<svg width="500" height="500" viewBox="0 0 500 500" fill="none" xmlns="http://www.w3.org/2000/svg">
<path d="M285.003 146.724C285.003 146.961 286.31 150.166 288.923 156.339C291.774 162.512 295.456 170.584 299.97 180.556C304.484 190.29 309.592 201.567 315.293 214.387C321.232 226.971 327.172 239.91 333.111 253.205C339.288 266.263 345.227 279.202 350.928 292.023C356.868 304.606 362.094 315.883 366.608 325.855C371.122 335.826 374.685 344.017 377.298 350.427C380.149 356.6 381.575 359.924 381.575 360.399C383.475 363.723 383.475 367.047 381.575 370.37C379.912 373.457 377.417 375 374.091 375C365.776 375 359.362 375 354.848 375C350.334 375 346.89 374.881 344.514 374.644C342.138 374.169 340.357 373.576 339.169 372.863C338.219 372.151 337.149 371.201 335.962 370.014C325.271 357.194 312.205 347.934 296.763 342.236C281.559 336.301 265.879 333.571 249.725 334.046C233.57 334.283 217.772 337.488 202.33 343.661C187.126 349.834 174.178 358.618 163.488 370.014C162.775 371.201 161.943 372.151 160.993 372.863C160.043 373.576 158.38 374.169 156.004 374.644C153.629 374.881 150.184 375 145.67 375C141.156 375 134.98 375 127.14 375C123.101 375 120.25 373.457 118.587 370.37C116.924 367.047 116.568 363.723 117.518 360.399C135.336 322.175 150.184 290.123 162.062 264.245C173.941 238.367 183.681 217.118 191.283 200.499C198.885 183.879 204.824 171.178 209.101 162.393C213.377 153.609 216.703 147.08 219.078 142.806C221.692 138.533 223.711 135.802 225.136 134.615C226.799 133.191 228.7 131.766 230.838 130.342C235.352 127.493 240.222 125.831 245.448 125.356C250.912 124.644 256.139 125 261.128 126.425C266.117 127.849 270.631 130.342 274.669 133.903C278.946 137.227 282.39 141.5 285.003 146.724ZM190.927 306.268C199.954 302.944 209.457 300.451 219.435 298.789C229.65 296.89 239.866 295.94 250.081 295.94C260.534 295.703 270.749 296.415 280.727 298.077C290.943 299.501 300.564 301.638 309.592 304.487C307.929 300.926 306.622 298.314 305.672 296.652C304.959 294.753 304.009 292.735 302.821 290.598C301.871 288.224 300.445 285.019 298.545 280.983C296.644 276.947 293.675 270.774 289.636 262.464C285.835 254.155 280.727 243.115 274.313 229.345C268.136 215.575 260.059 197.768 250.081 175.926C240.103 197.056 232.026 214.506 225.849 228.276C219.672 241.809 214.683 252.73 210.882 261.04C207.081 269.349 204.23 275.641 202.33 279.915C200.429 284.188 198.885 287.631 197.697 290.242C196.747 292.854 195.797 295.228 194.847 297.365C193.896 299.501 192.59 302.469 190.927 306.268Z" fill="#70FE90"/>
</svg>
