<svg width="500" height="500" viewBox="0 0 500 500" fill="none" xmlns="http://www.w3.org/2000/svg">
<path d="M148 274.566C148 260.989 150.649 248.166 155.948 236.097C161.248 224.029 168.439 213.469 177.524 204.417C186.608 195.366 197.332 188.2 209.697 182.92C222.062 177.64 235.435 175 249.819 175C264.202 175 277.576 177.64 289.941 182.92C302.306 187.949 313.03 194.989 322.114 204.04C331.451 213.091 338.768 223.651 344.068 235.72C349.367 247.789 352.017 260.737 352.017 274.566V348.863C352.017 355.651 349.619 360.806 344.825 364.326C340.03 367.594 334.731 369.229 328.927 369.229C323.123 369.229 317.698 367.594 312.651 364.326C307.857 360.806 305.46 355.651 305.46 348.863V274.566C305.46 264.76 303.819 256.211 300.539 248.92C297.511 241.629 293.474 235.594 288.427 230.817C283.38 225.789 277.45 222.143 270.637 219.88C264.076 217.366 257.389 216.109 250.576 216.109C243.51 216.109 236.571 217.366 229.758 219.88C223.197 222.143 217.267 225.789 211.968 230.817C206.669 235.594 202.379 241.629 199.099 248.92C196.071 256.211 194.557 264.76 194.557 274.566C194.557 281.857 195.818 289.023 198.342 296.063C201.118 302.851 204.903 309.011 209.697 314.543C214.744 320.074 220.674 324.6 227.487 328.12C234.3 331.389 241.744 333.023 249.819 333.023C251.333 333.023 253.352 332.897 255.875 332.646C258.398 332.394 261.048 332.52 263.824 333.023C266.852 333.526 269.627 334.657 272.151 336.417C274.927 338.177 277.197 341.069 278.964 345.091C280.983 349.869 281.614 354.143 280.857 357.914C280.1 361.434 278.333 364.451 275.558 366.966C272.782 369.48 268.997 371.366 264.202 372.623C259.66 373.88 254.613 374.509 249.062 374.509C239.221 374.509 228.37 372.497 216.51 368.474C204.903 364.451 193.926 358.417 183.58 350.371C173.486 342.074 165.033 331.64 158.22 319.069C151.407 306.497 148 291.663 148 274.566Z" fill="#70FE90"/>
</svg>
