<svg width="105" height="100" viewBox="0 0 105 100" fill="none" xmlns="http://www.w3.org/2000/svg">
<g filter="url(#filter0_f_132_2)">
<path d="M64.1064 13.6467C64.1064 13.7303 64.5582 14.8585 65.4621 17.0313C66.4481 19.2042 67.7216 22.0456 69.2828 25.5555C70.8439 28.982 72.6105 32.9516 74.5825 37.4644C76.6366 41.8936 78.6908 46.4482 80.7449 51.1282C82.8812 55.7246 84.9354 60.2792 86.9074 64.792C88.9616 69.2213 90.7691 73.1909 92.3303 76.7009C93.8913 80.2108 95.1241 83.094 96.0275 85.3504C97.0141 87.5233 97.5065 88.6932 97.5065 88.8604C98.1645 90.0304 98.1645 91.2004 97.5065 92.3703C96.9317 93.4568 96.0687 94 94.9182 94C92.0428 94 89.8242 94 88.2631 94C86.7019 94 85.5106 93.9582 84.6889 93.8747C83.8672 93.7075 83.251 93.4986 82.8401 93.2479C82.5115 92.9972 82.1417 92.6628 81.7309 92.245C78.0335 87.7322 73.5144 84.4729 68.1735 82.4672C62.9149 80.378 57.4919 79.4169 51.9047 79.584C46.3174 79.6676 40.8534 80.7959 35.5126 82.9687C30.2539 85.1415 25.7758 88.2336 22.0784 92.245C21.8319 92.6628 21.5443 92.9972 21.2156 93.2479C20.887 93.4986 20.3118 93.7075 19.4901 93.8747C18.6685 93.9582 17.4771 94 15.9159 94C14.3548 94 12.2185 94 9.507 94C8.11018 94 7.12418 93.4568 6.54902 92.3703C5.97386 91.2004 5.85061 90.0304 6.17927 88.8604C12.3417 75.4055 17.4771 64.1235 21.5854 55.0142C25.6937 45.905 29.0625 38.4254 31.6919 32.5755C34.3211 26.7256 36.3753 22.2545 37.8543 19.1624C39.3333 16.0703 40.4836 13.7721 41.3052 12.2678C42.2091 10.7635 42.9075 9.80247 43.4005 9.38462C43.9757 8.88319 44.633 8.38176 45.3725 7.88034C46.9336 6.87749 48.6181 6.2925 50.4256 6.12536C52.3155 5.87464 54.1232 6 55.8486 6.50143C57.5741 7.00286 59.1353 7.88034 60.5321 9.1339C62.0111 10.3039 63.2025 11.8082 64.1064 13.6467ZM31.5686 69.8063C34.6909 68.6363 37.9775 67.7588 41.4285 67.1738C44.9616 66.5052 48.4948 66.171 52.0279 66.171C55.6433 66.0874 59.1764 66.3381 62.6274 66.9231C66.1605 67.4245 69.4882 68.1767 72.6105 69.1795C72.0353 67.926 71.5834 67.0066 71.2547 66.4217C71.0083 65.7531 70.6796 65.0427 70.2688 64.2906C69.9401 63.4549 69.4471 62.3267 68.7898 60.906C68.1325 59.4853 67.1054 57.3124 65.7086 54.3875C64.3939 51.4625 62.6274 47.5765 60.4088 42.7294C58.2725 37.8822 55.4789 31.6144 52.0279 23.926C48.577 31.3637 45.7833 37.5062 43.647 42.3532C41.5107 47.1168 39.7852 50.961 38.4705 53.8861C37.1559 56.811 36.1699 59.0256 35.5126 60.5299C34.8553 62.0342 34.3211 63.2459 33.9103 64.1653C33.5816 65.0845 33.253 65.9203 32.9243 66.6724C32.5956 67.4245 32.1437 68.4692 31.5686 69.8063Z" fill="url(#paint0_linear_132_2)"/>
</g>
<defs>
<filter id="filter0_f_132_2" x="-4" y="-4" width="113" height="108" filterUnits="userSpaceOnUse" color-interpolation-filters="sRGB">
<feFlood flood-opacity="0" result="BackgroundImageFix"/>
<feBlend mode="normal" in="SourceGraphic" in2="BackgroundImageFix" result="shape"/>
<feGaussianBlur stdDeviation="2" result="effect1_foregroundBlur_132_2"/>
</filter>
<linearGradient id="paint0_linear_132_2" x1="25.906" y1="6" x2="78.4291" y2="93.7995" gradientUnits="userSpaceOnUse">
<stop stop-color="#70FE90"/>
<stop offset="0.461987" stop-color="#348045"/>
<stop offset="1" stop-color="#001505"/>
</linearGradient>
</defs>
</svg>
