<svg width="113" height="108" viewBox="0 0 113 108" fill="none" xmlns="http://www.w3.org/2000/svg">
<g clip-path="url(#clip0_132_2)" filter="url(#filter0_f_132_2)">
<path d="M70.3172 12.6895C70.3172 12.7844 70.8329 14.0665 71.8645 16.5356C72.9898 19.0048 74.4433 22.2336 76.2251 26.2222C78.0068 30.1159 80.023 34.6268 82.2737 39.755C84.6181 44.7882 86.9625 49.9639 89.3069 55.2821C91.7451 60.5052 94.0895 65.6809 96.3402 70.8091C98.6846 75.8424 100.748 80.3533 102.529 84.3419C104.311 88.3305 105.718 91.6068 106.749 94.1709C107.875 96.6401 108.437 97.9696 108.437 98.1595C109.188 99.4891 109.188 100.819 108.437 102.148C107.781 103.383 106.796 104 105.483 104C102.201 104 99.6692 104 97.8875 104C96.1057 104 94.746 103.952 93.8082 103.858C92.8704 103.668 92.1671 103.43 91.6982 103.145C91.3231 102.86 90.9011 102.48 90.4322 102.006C86.2123 96.8775 81.0546 93.1738 74.9591 90.8946C68.9574 88.5204 62.7681 87.4283 56.3913 87.6182C50.0145 87.7132 43.7784 88.9953 37.6829 91.4644C31.6812 93.9335 26.5703 97.4473 22.3504 102.006C22.0691 102.48 21.7408 102.86 21.3657 103.145C20.9906 103.43 20.3342 103.668 19.3964 103.858C18.4587 103.952 17.0989 104 15.3171 104C13.5354 104 11.0972 104 8.00256 104C6.40836 104 5.28304 103.383 4.6266 102.148C3.97016 100.819 3.8295 99.4891 4.2046 98.1595C11.2378 82.8699 17.0989 70.0494 21.7877 59.698C26.4766 49.3466 30.3214 40.8471 33.3223 34.1994C36.3231 27.5518 38.6675 22.471 40.3555 18.9573C42.0435 15.4435 43.3564 12.8319 44.2941 11.1225C45.3257 9.41311 46.1228 8.32099 46.6854 7.84616C47.3419 7.27635 48.0921 6.70655 48.9361 6.13675C50.7178 4.99714 52.6403 4.33238 54.7033 4.14245C56.8602 3.85755 58.9233 4 60.8926 4.56981C62.8619 5.13961 64.6437 6.13675 66.2379 7.56125C67.9259 8.89079 69.2856 10.6002 70.3172 12.6895ZM33.1816 76.5071C36.7451 75.1776 40.4962 74.1804 44.4348 73.5157C48.4672 72.7559 52.4996 72.3761 56.532 72.3761C60.6582 72.2811 64.6906 72.566 68.6292 73.2308C72.6616 73.8006 76.4595 74.6553 80.023 75.7949C79.3666 74.3704 78.8508 73.3257 78.4757 72.661C78.1944 71.9012 77.8193 71.094 77.3504 70.2393C76.9753 69.2897 76.4126 68.0076 75.6624 66.3932C74.9122 64.7787 73.74 62.3096 72.1458 58.9858C70.6454 55.6619 68.6292 51.246 66.0972 45.7379C63.659 40.2298 60.4706 33.1073 56.532 24.3704C52.5934 32.8224 49.405 39.8025 46.9668 45.3105C44.5286 50.7236 42.5593 55.0921 41.0588 58.416C39.5584 61.7398 38.4331 64.2564 37.6829 65.9658C36.9327 67.6752 36.3231 69.0522 35.8542 70.0969C35.4791 71.1415 35.104 72.0912 34.7289 72.9459C34.3538 73.8006 33.838 74.9877 33.1816 76.5071Z" fill="url(#paint0_linear_132_2)"/>
</g>
<defs>
<filter id="filter0_f_132_2" x="0" y="0" width="113" height="108" filterUnits="userSpaceOnUse" color-interpolation-filters="sRGB">
<feFlood flood-opacity="0" result="BackgroundImageFix"/>
<feBlend mode="normal" in="SourceGraphic" in2="BackgroundImageFix" result="shape"/>
<feGaussianBlur stdDeviation="2" result="effect1_foregroundBlur_132_2"/>
</filter>
<linearGradient id="paint0_linear_132_2" x1="26.7188" y1="4" x2="86.2814" y2="104" gradientUnits="userSpaceOnUse">
<stop stop-color="#70FE90"/>
<stop offset="0.461987" stop-color="#348045"/>
<stop offset="1" stop-color="#001505"/>
</linearGradient>
<clipPath id="clip0_132_2">
<rect width="105" height="100" fill="white" transform="translate(4 4)"/>
</clipPath>
</defs>
</svg>
