<svg width="2310" height="1440" viewBox="0 0 2310 1440" fill="none" xmlns="http://www.w3.org/2000/svg">
<g clip-path="url(#clip0_2305_1986)">
<rect width="2310" height="1440" fill="url(#paint0_linear_2305_1986)"/>
<line x1="2315" y1="567" x2="5" y2="567" stroke="#CCCCCC" stroke-width="2"/>
<line x1="2315" y1="721" x2="5" y2="721" stroke="#CCCCCC" stroke-width="2"/>
<line x1="2305" y1="875" x2="-5" y2="875" stroke="#CCCCCC" stroke-width="2"/>
<line x1="2105.5" y1="-2.18557e-08" x2="2105.5" y2="1440" stroke="white"/>
<line x1="214.5" y1="-2.18557e-08" x2="214.5" y2="1440" stroke="white"/>
<line x1="1150.5" y1="-2.18557e-08" x2="1150.5" y2="1440" stroke="white"/>
<rect x="500" y="364" width="1309" height="713" rx="73" fill="url(#paint1_linear_2305_1986)" stroke="#313131" stroke-width="2"/>
<rect x="538.5" y="406.5" width="1233" height="627" rx="39.5" fill="url(#paint2_linear_2305_1986)" stroke="black"/>
<rect x="595" y="459" width="1120" height="523" rx="85" fill="black"/>
<g filter="url(#filter0_f_2305_1986)">
<rect x="668" y="548" width="983" height="396" rx="68" fill="#70FE90"/>
</g>
<g filter="url(#filter1_i_2305_1986)">
<rect x="648" y="516" width="1013" height="408" rx="68" fill="url(#paint3_linear_2305_1986)"/>
</g>
<g filter="url(#filter2_di_2305_1986)">
<rect x="713" y="581" width="883" height="278" rx="50" fill="url(#paint4_linear_2305_1986)"/>
</g>
<path d="M908.562 661.105C908.562 661.238 909.297 663.024 910.768 666.464C912.372 669.903 914.445 674.402 916.986 679.958C919.526 685.382 922.401 691.667 925.61 698.811C928.953 705.823 932.296 713.033 935.639 720.442C939.116 727.718 942.459 734.929 945.668 742.073C949.011 749.085 951.952 755.369 954.493 760.926C957.034 766.482 959.039 771.047 960.51 774.619C962.115 778.059 962.917 779.911 962.917 780.175C963.987 782.028 963.987 783.88 962.917 785.732C961.981 787.452 960.577 788.312 958.705 788.312C954.025 788.312 950.415 788.312 947.874 788.312C945.333 788.312 943.395 788.246 942.057 788.113C940.72 787.849 939.717 787.518 939.049 787.121C938.514 786.724 937.912 786.195 937.244 785.534C931.226 778.389 923.872 773.23 915.181 770.054C906.623 766.747 897.797 765.225 888.705 765.49C879.612 765.622 870.72 767.408 862.028 770.848C853.471 774.288 846.183 779.183 840.166 785.534C839.765 786.195 839.297 786.724 838.762 787.121C838.227 787.518 837.291 787.849 835.954 788.113C834.617 788.246 832.678 788.312 830.137 788.312C827.596 788.312 824.12 788.312 819.707 788.312C817.434 788.312 815.829 787.452 814.893 785.732C813.957 783.88 813.757 782.028 814.292 780.175C824.32 758.875 832.678 741.015 839.364 726.594C846.049 712.173 851.532 700.332 855.811 691.071C860.089 681.81 863.432 674.732 865.839 669.837C868.246 664.942 870.118 661.304 871.455 658.922C872.926 656.541 874.063 655.02 874.865 654.358C875.801 653.564 876.871 652.771 878.074 651.977C880.615 650.389 883.356 649.463 886.298 649.198C889.373 648.802 892.315 649 895.123 649.794C897.931 650.588 900.472 651.977 902.745 653.961C905.152 655.813 907.091 658.195 908.562 661.105ZM855.61 750.011C860.691 748.159 866.04 746.77 871.656 745.844C877.406 744.785 883.156 744.256 888.905 744.256C894.789 744.124 900.539 744.521 906.155 745.447C911.904 746.24 917.32 747.431 922.401 749.019C921.465 747.034 920.73 745.579 920.195 744.653C919.794 743.594 919.259 742.47 918.59 741.279C918.055 739.956 917.253 738.17 916.183 735.921C915.114 733.672 913.442 730.232 911.169 725.602C909.03 720.971 906.155 714.819 902.544 707.146C899.068 699.472 894.521 689.55 888.905 677.378C883.289 689.153 878.743 698.877 875.266 706.55C871.79 714.092 868.982 720.177 866.842 724.808C864.703 729.438 863.098 732.944 862.028 735.326C860.959 737.707 860.089 739.625 859.421 741.081C858.886 742.536 858.351 743.859 857.816 745.05C857.281 746.24 856.546 747.894 855.61 750.011Z" fill="url(#paint5_linear_2305_1986)"/>
<path d="M1013.78 664.389C1013.78 660.288 1015.05 657.245 1017.59 655.26C1020.26 653.276 1023.14 652.284 1026.21 652.284C1029.29 652.284 1032.1 653.276 1034.64 655.26C1037.18 657.245 1038.45 660.288 1038.45 664.389V778.895C1038.45 782.864 1037.18 785.906 1034.64 788.023C1032.1 790.008 1029.29 791 1026.21 791C1023.14 791 1020.26 790.008 1017.59 788.023C1015.05 785.906 1013.78 782.864 1013.78 778.895V664.389Z" fill="url(#paint6_linear_2305_1986)"/>
<path d="M1094.63 704.079C1094.63 699.978 1095.91 696.935 1098.45 694.95C1100.99 692.966 1103.79 691.974 1106.87 691.974C1109.95 691.974 1112.75 692.966 1115.29 694.95C1117.83 696.935 1119.1 699.978 1119.1 704.079V778.895C1119.1 782.864 1117.83 785.906 1115.29 788.023C1112.75 790.008 1109.95 791 1106.87 791C1103.79 791 1100.99 790.008 1098.45 788.023C1095.91 785.906 1094.63 782.864 1094.63 778.895V704.079ZM1106.67 675.899C1102.66 675.899 1099.65 674.708 1097.64 672.327C1095.77 669.813 1094.84 667.101 1094.84 664.191C1094.84 661.148 1095.84 658.369 1097.84 655.856C1099.85 653.342 1102.93 652.085 1107.07 652.085C1111.08 652.085 1114.09 653.342 1116.1 655.856C1118.1 658.369 1119.1 661.148 1119.1 664.191C1119.1 667.101 1118.04 669.813 1115.9 672.327C1113.89 674.708 1110.81 675.899 1106.67 675.899Z" fill="url(#paint7_linear_2305_1986)"/>
<path d="M1199.97 778.895C1199.97 782.864 1198.63 785.906 1195.95 788.023C1193.41 790.008 1190.61 791 1187.53 791C1184.45 791 1181.65 790.008 1179.11 788.023C1176.57 786.039 1175.3 782.996 1175.3 778.895V736.029C1175.3 728.091 1176.7 721.212 1179.51 715.391C1182.45 709.437 1186.26 704.542 1190.94 700.705C1195.75 696.736 1201.1 693.826 1206.99 691.974C1213 689.989 1219.09 688.997 1225.24 688.997C1232.06 688.997 1238.61 690.187 1244.89 692.569C1251.18 694.95 1256.46 698.522 1260.74 703.285C1265.42 698.655 1270.97 695.149 1277.39 692.767C1283.94 690.386 1290.76 689.195 1297.85 689.195C1303.73 689.195 1309.48 690.121 1315.1 691.974C1320.71 693.693 1325.73 696.472 1330.14 700.308C1334.55 704.145 1338.09 709.04 1340.77 714.994C1343.44 720.815 1344.78 727.827 1344.78 736.029V778.895C1344.78 782.864 1343.51 785.906 1340.97 788.023C1338.43 790.008 1335.62 791 1332.55 791C1329.47 791 1326.6 790.008 1323.92 788.023C1321.38 785.906 1320.11 782.864 1320.11 778.895V736.029C1320.11 732.193 1319.37 728.885 1317.9 726.107C1316.57 723.196 1314.76 720.815 1312.49 718.963C1310.35 716.978 1307.81 715.523 1304.87 714.597C1302.06 713.538 1299.18 713.009 1296.24 713.009C1293.17 713.009 1290.22 713.538 1287.42 714.597C1284.61 715.523 1282.07 716.978 1279.79 718.963C1277.52 720.815 1275.72 723.196 1274.38 726.107C1273.04 728.885 1272.37 732.193 1272.37 736.029V778.895C1272.37 782.864 1271.1 785.906 1268.56 788.023C1266.02 790.008 1263.21 791 1260.14 791C1257.06 791 1254.19 790.008 1251.51 788.023C1248.97 785.906 1247.7 782.864 1247.7 778.895V736.029C1247.7 732.193 1246.97 728.885 1245.5 726.107C1244.16 723.196 1242.35 720.815 1240.08 718.963C1237.94 716.978 1235.4 715.523 1232.46 714.597C1229.52 713.538 1226.58 713.009 1223.63 713.009C1220.69 713.009 1217.75 713.472 1214.81 714.398C1212 715.324 1209.46 716.78 1207.19 718.764C1205.05 720.616 1203.31 722.998 1201.97 725.908C1200.63 728.819 1199.97 732.193 1199.97 736.029V778.895Z" fill="url(#paint8_linear_2305_1986)"/>
<path d="M1396.89 738.126C1396.89 730.981 1398.29 724.234 1401.1 717.884C1403.91 711.533 1407.72 705.977 1412.54 701.214C1417.35 696.451 1423.03 692.681 1429.58 689.902C1436.14 687.124 1443.22 685.735 1450.84 685.735C1458.47 685.735 1465.55 687.124 1472.11 689.902C1478.66 692.548 1484.34 696.253 1489.15 701.016C1494.1 705.778 1497.98 711.335 1500.79 717.685C1503.6 724.036 1505 730.849 1505 738.126V777.22C1505 780.792 1503.73 783.505 1501.19 785.357C1498.65 787.077 1495.84 787.937 1492.76 787.937C1489.69 787.937 1486.81 787.077 1484.14 785.357C1481.6 783.505 1480.33 780.792 1480.33 777.22V738.126C1480.33 732.966 1479.46 728.468 1477.72 724.631C1476.12 720.794 1473.98 717.619 1471.3 715.105C1468.63 712.459 1465.49 710.541 1461.88 709.35C1458.4 708.027 1454.86 707.366 1451.25 707.366C1447.5 707.366 1443.82 708.027 1440.21 709.35C1436.74 710.541 1433.6 712.459 1430.79 715.105C1427.98 717.619 1425.71 720.794 1423.97 724.631C1422.36 728.468 1421.56 732.966 1421.56 738.126C1421.56 741.962 1422.23 745.733 1423.57 749.437C1425.04 753.009 1427.04 756.251 1429.58 759.161C1432.26 762.072 1435.4 764.453 1439.01 766.306C1442.62 768.025 1446.57 768.885 1450.84 768.885C1451.65 768.885 1452.72 768.819 1454.05 768.687C1455.39 768.555 1456.8 768.621 1458.27 768.885C1459.87 769.15 1461.34 769.745 1462.68 770.671C1464.15 771.598 1465.35 773.119 1466.29 775.236C1467.36 777.749 1467.69 779.999 1467.29 781.983C1466.89 783.835 1465.95 785.423 1464.48 786.746C1463.01 788.069 1461.01 789.061 1458.47 789.723C1456.06 790.384 1453.39 790.715 1450.44 790.715C1445.23 790.715 1439.48 789.656 1433.19 787.54C1427.04 785.423 1421.23 782.248 1415.74 778.014C1410.4 773.648 1405.92 768.158 1402.31 761.543C1398.7 754.928 1396.89 747.122 1396.89 738.126Z" fill="url(#paint9_linear_2305_1986)"/>
</g>
<defs>
<filter id="filter0_f_2305_1986" x="620.6" y="500.6" width="1077.8" height="490.8" filterUnits="userSpaceOnUse" color-interpolation-filters="sRGB">
<feFlood flood-opacity="0" result="BackgroundImageFix"/>
<feBlend mode="normal" in="SourceGraphic" in2="BackgroundImageFix" result="shape"/>
<feGaussianBlur stdDeviation="23.7" result="effect1_foregroundBlur_2305_1986"/>
</filter>
<filter id="filter1_i_2305_1986" x="646" y="500" width="1015" height="424" filterUnits="userSpaceOnUse" color-interpolation-filters="sRGB">
<feFlood flood-opacity="0" result="BackgroundImageFix"/>
<feBlend mode="normal" in="SourceGraphic" in2="BackgroundImageFix" result="shape"/>
<feColorMatrix in="SourceAlpha" type="matrix" values="0 0 0 0 0 0 0 0 0 0 0 0 0 0 0 0 0 0 127 0" result="hardAlpha"/>
<feMorphology radius="8" operator="erode" in="SourceAlpha" result="effect1_innerShadow_2305_1986"/>
<feOffset dx="-2" dy="-16"/>
<feGaussianBlur stdDeviation="38.5"/>
<feComposite in2="hardAlpha" operator="arithmetic" k2="-1" k3="1"/>
<feColorMatrix type="matrix" values="0 0 0 0 0 0 0 0 0 0 0 0 0 0 0 0 0 0 0.25 0"/>
<feBlend mode="normal" in2="shape" result="effect1_innerShadow_2305_1986"/>
</filter>
<filter id="filter2_di_2305_1986" x="675" y="546" width="973" height="368" filterUnits="userSpaceOnUse" color-interpolation-filters="sRGB">
<feFlood flood-opacity="0" result="BackgroundImageFix"/>
<feColorMatrix in="SourceAlpha" type="matrix" values="0 0 0 0 0 0 0 0 0 0 0 0 0 0 0 0 0 0 127 0" result="hardAlpha"/>
<feOffset dx="7" dy="10"/>
<feGaussianBlur stdDeviation="22.5"/>
<feComposite in2="hardAlpha" operator="out"/>
<feColorMatrix type="matrix" values="0 0 0 0 0 0 0 0 0 0 0 0 0 0 0 0 0 0 0.25 0"/>
<feBlend mode="normal" in2="BackgroundImageFix" result="effect1_dropShadow_2305_1986"/>
<feBlend mode="normal" in="SourceGraphic" in2="effect1_dropShadow_2305_1986" result="shape"/>
<feColorMatrix in="SourceAlpha" type="matrix" values="0 0 0 0 0 0 0 0 0 0 0 0 0 0 0 0 0 0 127 0" result="hardAlpha"/>
<feMorphology radius="17" operator="erode" in="SourceAlpha" result="effect2_innerShadow_2305_1986"/>
<feOffset dx="1" dy="20"/>
<feGaussianBlur stdDeviation="27.2"/>
<feComposite in2="hardAlpha" operator="arithmetic" k2="-1" k3="1"/>
<feColorMatrix type="matrix" values="0 0 0 0 0 0 0 0 0 0 0 0 0 0 0 0 0 0 0.25 0"/>
<feBlend mode="normal" in2="shape" result="effect2_innerShadow_2305_1986"/>
</filter>
<linearGradient id="paint0_linear_2305_1986" x1="5.02182" y1="1.96121e-05" x2="2304.98" y2="1440" gradientUnits="userSpaceOnUse">
<stop stop-color="#1C1C1C"/>
<stop offset="1" stop-color="#1C1C1C"/>
</linearGradient>
<linearGradient id="paint1_linear_2305_1986" x1="511.181" y1="363" x2="1797.82" y2="1078" gradientUnits="userSpaceOnUse">
<stop stop-color="#464646"/>
<stop offset="1" stop-color="#171717"/>
</linearGradient>
<linearGradient id="paint2_linear_2305_1986" x1="557.246" y1="406" x2="1752.75" y2="1034" gradientUnits="userSpaceOnUse">
<stop stop-color="#1B1B1B"/>
<stop offset="1" stop-color="#242424"/>
</linearGradient>
<linearGradient id="paint3_linear_2305_1986" x1="1154.5" y1="516" x2="1154.5" y2="924" gradientUnits="userSpaceOnUse">
<stop stop-color="#70FE90"/>
<stop offset="1" stop-color="#0C1E1E"/>
</linearGradient>
<linearGradient id="paint4_linear_2305_1986" x1="1154.5" y1="581" x2="1154.5" y2="859" gradientUnits="userSpaceOnUse">
<stop stop-color="#0C1E1E"/>
<stop offset="1" stop-color="#70FE90"/>
</linearGradient>
<linearGradient id="paint5_linear_2305_1986" x1="1151.53" y1="791" x2="1167.47" y2="649" gradientUnits="userSpaceOnUse">
<stop stop-color="white"/>
<stop offset="1" stop-color="#24C749"/>
</linearGradient>
<linearGradient id="paint6_linear_2305_1986" x1="1151.53" y1="791" x2="1167.47" y2="649" gradientUnits="userSpaceOnUse">
<stop stop-color="white"/>
<stop offset="1" stop-color="#24C749"/>
</linearGradient>
<linearGradient id="paint7_linear_2305_1986" x1="1151.53" y1="791" x2="1167.47" y2="649" gradientUnits="userSpaceOnUse">
<stop stop-color="white"/>
<stop offset="1" stop-color="#24C749"/>
</linearGradient>
<linearGradient id="paint8_linear_2305_1986" x1="1151.53" y1="791" x2="1167.47" y2="649" gradientUnits="userSpaceOnUse">
<stop stop-color="white"/>
<stop offset="1" stop-color="#24C749"/>
</linearGradient>
<linearGradient id="paint9_linear_2305_1986" x1="1151.53" y1="791" x2="1167.47" y2="649" gradientUnits="userSpaceOnUse">
<stop stop-color="white"/>
<stop offset="1" stop-color="#24C749"/>
</linearGradient>
<clipPath id="clip0_2305_1986">
<rect width="2310" height="1440" fill="white"/>
</clipPath>
</defs>
</svg>
