<svg width="500" height="500" viewBox="0 0 500 500" fill="none" xmlns="http://www.w3.org/2000/svg">
<path d="M409.246 271.269C404.893 248.315 390.796 231.472 372.457 217.956C359.368 208.31 348.738 195.695 339.623 182.251C326.883 163.461 316.31 139.951 295.707 128.334C266.407 111.813 238.242 134.277 214.488 150.132C202.028 158.449 188.743 167.115 173.664 169.529C152.161 172.971 130.329 163.507 109.005 169.208C104.596 169.48 100.559 170.381 96.9992 171.999C96.9992 171.999 69.9992 180.999 61.9992 226.999C53.9992 272.999 60.9992 341.999 98.9992 381.999C136.999 421.999 166.999 426.999 186.999 427.999C187.545 428.026 188.087 428.028 188.627 428.02C201.9 430.042 217.584 429.012 235.607 424.006C293.487 407.928 290.271 370.95 341.72 362.911C393.169 354.873 418.089 317.894 409.246 271.269Z" fill="#92E3A9"/>
<path opacity="0.7" d="M409.246 271.269C404.893 248.315 390.796 231.472 372.457 217.956C359.368 208.31 348.738 195.695 339.623 182.251C326.883 163.461 316.31 139.951 295.707 128.334C266.407 111.813 238.242 134.277 214.488 150.132C202.028 158.449 188.743 167.115 173.664 169.529C152.161 172.971 130.329 163.507 109.005 169.208C104.596 169.48 100.559 170.381 96.9992 171.999C96.9992 171.999 69.9992 180.999 61.9992 226.999C53.9992 272.999 60.9992 341.999 98.9992 381.999C136.999 421.999 166.999 426.999 186.999 427.999C187.545 428.026 188.087 428.028 188.627 428.02C201.9 430.042 217.584 429.012 235.607 424.006C293.487 407.928 290.271 370.95 341.72 362.911C393.169 354.873 418.089 317.894 409.246 271.269Z" fill="white"/>
<path d="M222.12 91.64C222.123 91.637 226.703 88.022 227.877 85.7C228.877 83.722 229.601 80.925 228.569 78.818C227.559 76.755 225.029 75.766 222.997 77.03C220.175 78.785 219.873 84.771 220.592 87.649C220.654 87.898 222.073 91.677 222.12 91.64Z" fill="#92E3A9"/>
<path d="M179.748 121.793C179.937 121.966 183.206 124.335 183.224 124.278C183.225 124.274 185.051 118.732 184.749 116.148C184.492 113.947 183.552 111.214 181.529 110.026C179.548 108.863 176.893 109.433 175.895 111.609C174.51 114.63 177.56 119.789 179.748 121.793Z" fill="#92E3A9"/>
<path d="M275.777 97.123C275.777 97.123 258.999 114.441 259.091 135.715C259.183 156.989 276.109 174.162 276.109 174.162C276.109 174.162 292.887 156.844 292.795 135.57C292.703 114.296 275.777 97.123 275.777 97.123Z" fill="#92E3A9"/>
<path d="M251.856 148.455C252.094 148.194 252.301 147.938 252.463 147.693C253.683 145.843 254.724 143.147 253.941 140.936C253.175 138.771 250.776 137.498 248.611 138.52C246.334 139.596 245.217 143.249 244.975 146.237C244.066 146.028 243.247 145.871 242.544 145.752C242.243 145.076 241.94 144.395 241.633 143.706C241.301 143 241.071 142.287 240.78 141.568C240.378 140.506 240.017 139.39 239.654 138.277C240.981 137.684 244.845 135.877 246.285 134.285C247.772 132.641 249.209 130.135 248.77 127.83C248.34 125.573 246.162 123.951 243.867 124.634C240.682 125.582 238.81 131.275 238.743 134.241C238.741 134.337 238.792 134.966 238.859 135.711C238.538 134.614 238.213 133.519 237.925 132.396C237.106 129.211 236.371 125.941 235.621 122.667C235.465 121.985 235.298 121.306 235.139 120.624C236.258 120.131 240.462 118.209 241.97 116.542C243.457 114.898 244.894 112.391 244.455 110.087C244.025 107.831 241.847 106.208 239.552 106.891C236.367 107.839 234.495 113.532 234.428 116.498C234.426 116.604 234.488 117.354 234.566 118.193C234.133 116.421 233.679 114.658 233.174 112.924C232.295 109.89 231.265 106.949 230.042 104.18C230.438 104.01 235.412 101.857 237.089 100.003C238.576 98.3591 240.013 95.8521 239.574 93.5481C239.144 91.2911 236.966 89.6701 234.671 90.3521C231.486 91.3001 229.614 96.9931 229.547 99.9591C229.542 100.169 229.789 102.882 229.909 103.848C229.894 103.815 229.883 103.779 229.868 103.747C228.557 100.851 226.948 98.2491 225.302 95.8551C223.664 93.4651 221.917 91.3531 220.26 89.4521C218.607 87.5451 216.977 85.9031 215.524 84.4621C214.731 83.6881 213.991 82.9941 213.294 82.3551C213.308 82.3541 213.364 82.3491 213.364 82.3491C213.425 82.3431 211.812 78.6421 211.683 78.4201C210.194 75.8531 205.81 71.7681 202.562 72.4731C200.223 72.9811 199.096 75.4521 199.807 77.6361C200.533 79.8661 203.001 81.3701 205.096 82.0941C207.243 82.8351 211.933 82.4771 213.096 82.3741C213.807 83.0531 214.559 83.7861 215.372 84.6161C216.791 86.0861 218.379 87.7571 219.984 89.6911C220.413 90.2051 220.853 90.7761 221.29 91.3211C220.363 90.5551 219.077 89.5221 218.94 89.4351C216.436 87.8431 210.662 86.2381 208.105 88.3591C206.262 89.8881 206.401 92.6001 208.039 94.2111C209.711 95.8561 212.594 96.0531 214.787 95.7301C217.075 95.3931 221.162 92.8391 222.05 92.2701C222.999 93.4931 223.945 94.7711 224.854 96.1601C226.422 98.5491 227.968 101.177 229.193 104.047C229.261 104.206 229.312 104.38 229.379 104.541C228.986 104.083 226.653 101.726 226.471 101.58C224.158 99.7221 218.595 97.4931 215.82 99.3211C213.821 100.638 213.661 103.35 215.112 105.13C216.594 106.949 219.437 107.462 221.652 107.381C224.204 107.288 229.233 104.751 229.422 104.655C230.535 107.358 231.471 110.218 232.259 113.177C232.833 115.321 233.326 117.515 233.8 119.722C233.275 119.138 231.105 116.948 230.931 116.808C228.617 114.951 223.055 112.721 220.28 114.549C218.281 115.866 218.121 118.577 219.572 120.358C221.054 122.177 223.897 122.69 226.112 122.609C228.604 122.519 233.433 120.109 233.839 119.904C234.054 120.906 234.272 121.906 234.48 122.912C235.158 126.197 235.823 129.493 236.58 132.725C236.842 133.845 237.141 134.939 237.436 136.036C236.622 135.185 235.112 133.665 234.968 133.55C232.654 131.692 227.091 129.463 224.317 131.291C222.318 132.609 222.158 135.319 223.609 137.1C225.091 138.919 227.935 139.432 230.149 139.351C232.374 139.27 236.478 137.332 237.626 136.769C238.13 138.591 238.671 140.387 239.287 142.13C239.569 142.876 239.809 143.655 240.121 144.355C240.278 144.731 240.433 145.099 240.588 145.47C240.176 145.424 239.947 145.409 239.947 145.409C239.947 145.409 239.903 146.448 240.002 148.137C237.559 146.398 234.04 144.899 231.75 145.951C229.574 146.95 229.005 149.606 230.169 151.586C230.317 151.838 230.489 152.072 230.681 152.291C231.043 154.915 232.545 157.831 233.836 159.321C233.96 159.465 235.622 160.996 236.486 161.76C235.65 161.306 234.818 160.858 233.955 160.372C232.708 159.681 231.414 158.911 230.155 158.171C229.516 157.764 228.871 157.352 228.22 156.937C227.554 156.531 226.969 156.064 226.329 155.624C225.408 154.96 224.491 154.228 223.574 153.5C224.354 152.273 226.58 148.634 226.902 146.512C227.235 144.321 227.051 141.437 225.414 139.757C223.811 138.112 221.099 137.961 219.562 139.796C217.428 142.343 219.007 148.124 220.588 150.636C220.639 150.718 221.028 151.213 221.496 151.797C220.623 151.059 219.748 150.326 218.888 149.548C216.448 147.343 214.031 145.021 211.599 142.705C211.092 142.222 210.579 141.748 210.07 141.267C210.731 140.238 213.177 136.317 213.516 134.094C213.849 131.903 213.665 129.019 212.028 127.339C210.425 125.694 207.713 125.543 206.176 127.378C204.043 129.925 205.621 135.706 207.202 138.218C207.259 138.308 207.725 138.899 208.252 139.556C206.913 138.316 205.562 137.097 204.185 135.929C201.778 133.883 199.296 131.999 196.749 130.364C196.986 130.003 199.946 125.464 200.322 122.993C200.655 120.802 200.471 117.918 198.833 116.238C197.23 114.593 194.518 114.442 192.981 116.277C190.848 118.825 192.427 124.606 194.008 127.117C194.12 127.295 195.822 129.422 196.455 130.161C196.425 130.142 196.396 130.118 196.365 130.099C193.674 128.407 190.897 127.125 188.203 126.036C185.518 124.946 182.896 124.148 180.465 123.476C178.035 122.798 175.77 122.327 173.762 121.927C172.673 121.719 171.673 121.548 170.739 121.4C170.75 121.391 170.794 121.356 170.794 121.356C170.841 121.318 167.454 119.121 167.225 119.006C164.567 117.686 158.657 116.698 156.337 119.077C154.666 120.791 155.089 123.474 156.887 124.903C158.723 126.363 161.611 126.256 163.757 125.703C165.956 125.137 169.671 122.251 170.584 121.524C171.551 121.698 172.583 121.895 173.719 122.138C175.713 122.581 177.96 123.099 180.365 123.827C181.006 124.02 181.688 124.253 182.353 124.466C181.158 124.338 179.514 124.186 179.353 124.189C176.386 124.242 170.685 126.089 169.723 129.269C169.03 131.56 170.642 133.746 172.896 134.186C175.198 134.635 177.712 133.21 179.362 131.73C181.084 130.187 183.084 125.802 183.511 124.838C184.977 125.334 186.471 125.878 187.996 126.536C190.622 127.663 193.361 129.002 195.966 130.721C196.111 130.816 196.249 130.933 196.394 131.03C195.814 130.865 192.568 130.186 192.335 130.165C189.38 129.892 183.511 131.101 182.205 134.157C181.264 136.359 182.627 138.708 184.819 139.393C187.058 140.093 189.713 138.952 191.516 137.663C193.593 136.178 196.388 131.287 196.493 131.103C198.912 132.744 201.271 134.613 203.561 136.647C205.222 138.118 206.844 139.677 208.457 141.256C207.697 141.058 204.679 140.429 204.457 140.408C201.503 140.135 195.633 141.344 194.327 144.4C193.386 146.602 194.748 148.951 196.941 149.636C199.18 150.336 201.835 149.195 203.638 147.906C205.666 146.456 208.365 141.782 208.591 141.388C209.323 142.105 210.057 142.819 210.785 143.544C213.163 145.909 215.536 148.291 217.95 150.57C218.786 151.36 219.64 152.107 220.491 152.859C219.343 152.598 217.245 152.164 217.061 152.147C214.106 151.874 208.236 153.083 206.931 156.139C205.99 158.341 207.353 160.69 209.545 161.375C211.784 162.075 214.439 160.934 216.242 159.645C218.053 158.35 220.407 154.469 221.054 153.367C222.48 154.608 223.921 155.808 225.397 156.922C226.044 157.389 226.674 157.906 227.32 158.318C227.962 158.748 228.598 159.173 229.228 159.594C230.561 160.419 231.797 161.191 233.058 161.926C233.693 162.303 234.3 162.643 234.921 163.001C233.797 162.563 232.006 161.897 231.836 161.855C228.957 161.137 222.972 161.444 221.219 164.266C219.955 166.3 220.946 168.829 223.009 169.838C225.116 170.868 227.913 170.143 229.891 169.142C232.071 168.038 235.351 163.979 235.75 163.48C237.275 164.349 238.768 165.18 240.179 165.932C243.943 167.949 247.231 169.555 249.781 170.753C258.065 177.917 269.728 178.706 269.728 178.706C269.728 178.706 270.344 164.739 262.12 155.545C259.14 152.211 255.406 149.967 251.856 148.455ZM237.059 162.076C237.319 161.505 239.305 157.067 239.442 154.564C239.903 154.479 240.366 154.382 240.815 154.278C241.61 158.119 243.119 162.629 245.96 166.576C244.453 165.861 242.824 165.066 241.091 164.185C239.801 163.534 238.445 162.822 237.059 162.076Z" fill="#92E3A9"/>
<path d="M312.968 145.785C312.968 145.785 298.994 146.213 290.44 155.101C281.886 163.988 281.992 177.969 281.992 177.969C281.992 177.969 295.966 177.541 304.52 168.653C313.074 159.765 312.968 145.785 312.968 145.785Z" fill="#92E3A9"/>
<g opacity="0.5">
<path d="M222.12 91.64C222.123 91.637 226.703 88.022 227.877 85.7C228.877 83.722 229.601 80.925 228.569 78.818C227.559 76.755 225.029 75.766 222.997 77.03C220.175 78.785 219.873 84.771 220.592 87.649C220.654 87.898 222.073 91.677 222.12 91.64Z" fill="white"/>
<path d="M179.748 121.793C179.937 121.966 183.206 124.335 183.224 124.278C183.225 124.274 185.051 118.732 184.749 116.148C184.492 113.947 183.552 111.214 181.529 110.026C179.548 108.863 176.893 109.433 175.895 111.609C174.51 114.63 177.56 119.789 179.748 121.793Z" fill="white"/>
<path d="M275.777 97.123C275.777 97.123 258.999 114.441 259.091 135.715C259.183 156.989 276.109 174.162 276.109 174.162C276.109 174.162 292.887 156.844 292.795 135.57C292.703 114.296 275.777 97.123 275.777 97.123Z" fill="white"/>
<path d="M251.856 148.455C252.094 148.194 252.301 147.938 252.463 147.693C253.683 145.843 254.724 143.147 253.941 140.936C253.175 138.771 250.776 137.498 248.611 138.52C246.334 139.596 245.217 143.249 244.975 146.237C244.066 146.028 243.247 145.871 242.544 145.752C242.243 145.076 241.94 144.395 241.633 143.706C241.301 143 241.071 142.287 240.78 141.568C240.378 140.506 240.017 139.39 239.654 138.277C240.981 137.684 244.845 135.877 246.285 134.285C247.772 132.641 249.209 130.135 248.77 127.83C248.34 125.573 246.162 123.951 243.867 124.634C240.682 125.582 238.81 131.275 238.743 134.241C238.741 134.337 238.792 134.966 238.859 135.711C238.538 134.614 238.213 133.519 237.925 132.396C237.106 129.211 236.371 125.941 235.621 122.667C235.465 121.985 235.298 121.306 235.139 120.624C236.258 120.131 240.462 118.209 241.97 116.542C243.457 114.898 244.894 112.391 244.455 110.087C244.025 107.831 241.847 106.208 239.552 106.891C236.367 107.839 234.495 113.532 234.428 116.498C234.426 116.604 234.488 117.354 234.566 118.193C234.133 116.421 233.679 114.658 233.174 112.924C232.295 109.89 231.265 106.949 230.042 104.18C230.438 104.01 235.412 101.857 237.089 100.003C238.576 98.3591 240.013 95.8521 239.574 93.5481C239.144 91.2911 236.966 89.6701 234.671 90.3521C231.486 91.3001 229.614 96.9931 229.547 99.9591C229.542 100.169 229.789 102.882 229.909 103.848C229.894 103.815 229.883 103.779 229.868 103.747C228.557 100.851 226.948 98.2491 225.302 95.8551C223.664 93.4651 221.917 91.3531 220.26 89.4521C218.607 87.5451 216.977 85.9031 215.524 84.4621C214.731 83.6881 213.991 82.9941 213.294 82.3551C213.308 82.3541 213.364 82.3491 213.364 82.3491C213.425 82.3431 211.812 78.6421 211.683 78.4201C210.194 75.8531 205.81 71.7681 202.562 72.4731C200.223 72.9811 199.096 75.4521 199.807 77.6361C200.533 79.8661 203.001 81.3701 205.096 82.0941C207.243 82.8351 211.933 82.4771 213.096 82.3741C213.807 83.0531 214.559 83.7861 215.372 84.6161C216.791 86.0861 218.379 87.7571 219.984 89.6911C220.413 90.2051 220.853 90.7761 221.29 91.3211C220.363 90.5551 219.077 89.5221 218.94 89.4351C216.436 87.8431 210.662 86.2381 208.105 88.3591C206.262 89.8881 206.401 92.6001 208.039 94.2111C209.711 95.8561 212.594 96.0531 214.787 95.7301C217.075 95.3931 221.162 92.8391 222.05 92.2701C222.999 93.4931 223.945 94.7711 224.854 96.1601C226.422 98.5491 227.968 101.177 229.193 104.047C229.261 104.206 229.312 104.38 229.379 104.541C228.986 104.083 226.653 101.726 226.471 101.58C224.158 99.7221 218.595 97.4931 215.82 99.3211C213.821 100.638 213.661 103.35 215.112 105.13C216.594 106.949 219.437 107.462 221.652 107.381C224.204 107.288 229.233 104.751 229.422 104.655C230.535 107.358 231.471 110.218 232.259 113.177C232.833 115.321 233.326 117.515 233.8 119.722C233.275 119.138 231.105 116.948 230.931 116.808C228.617 114.951 223.055 112.721 220.28 114.549C218.281 115.866 218.121 118.577 219.572 120.358C221.054 122.177 223.897 122.69 226.112 122.609C228.604 122.519 233.433 120.109 233.839 119.904C234.054 120.906 234.272 121.906 234.48 122.912C235.158 126.197 235.823 129.493 236.58 132.725C236.842 133.845 237.141 134.939 237.436 136.036C236.622 135.185 235.112 133.665 234.968 133.55C232.654 131.692 227.091 129.463 224.317 131.291C222.318 132.609 222.158 135.319 223.609 137.1C225.091 138.919 227.935 139.432 230.149 139.351C232.374 139.27 236.478 137.332 237.626 136.769C238.13 138.591 238.671 140.387 239.287 142.13C239.569 142.876 239.809 143.655 240.121 144.355C240.278 144.731 240.433 145.099 240.588 145.47C240.176 145.424 239.947 145.409 239.947 145.409C239.947 145.409 239.903 146.448 240.002 148.137C237.559 146.398 234.04 144.899 231.75 145.951C229.574 146.95 229.005 149.606 230.169 151.586C230.317 151.838 230.489 152.072 230.681 152.291C231.043 154.915 232.545 157.831 233.836 159.321C233.96 159.465 235.622 160.996 236.486 161.76C235.65 161.306 234.818 160.858 233.955 160.372C232.708 159.681 231.414 158.911 230.155 158.171C229.516 157.764 228.871 157.352 228.22 156.937C227.554 156.531 226.969 156.064 226.329 155.624C225.408 154.96 224.491 154.228 223.574 153.5C224.354 152.273 226.58 148.634 226.902 146.512C227.235 144.321 227.051 141.437 225.414 139.757C223.811 138.112 221.099 137.961 219.562 139.796C217.428 142.343 219.007 148.124 220.588 150.636C220.639 150.718 221.028 151.213 221.496 151.797C220.623 151.059 219.748 150.326 218.888 149.548C216.448 147.343 214.031 145.021 211.599 142.705C211.092 142.222 210.579 141.748 210.07 141.267C210.731 140.238 213.177 136.317 213.516 134.094C213.849 131.903 213.665 129.019 212.028 127.339C210.425 125.694 207.713 125.543 206.176 127.378C204.043 129.925 205.621 135.706 207.202 138.218C207.259 138.308 207.725 138.899 208.252 139.556C206.913 138.316 205.562 137.097 204.185 135.929C201.778 133.883 199.296 131.999 196.749 130.364C196.986 130.003 199.946 125.464 200.322 122.993C200.655 120.802 200.471 117.918 198.833 116.238C197.23 114.593 194.518 114.442 192.981 116.277C190.848 118.825 192.427 124.606 194.008 127.117C194.12 127.295 195.822 129.422 196.455 130.161C196.425 130.142 196.396 130.118 196.365 130.099C193.674 128.407 190.897 127.125 188.203 126.036C185.518 124.946 182.896 124.148 180.465 123.476C178.035 122.798 175.77 122.327 173.762 121.927C172.673 121.719 171.673 121.548 170.739 121.4C170.75 121.391 170.794 121.356 170.794 121.356C170.841 121.318 167.454 119.121 167.225 119.006C164.567 117.686 158.657 116.698 156.337 119.077C154.666 120.791 155.089 123.474 156.887 124.903C158.723 126.363 161.611 126.256 163.757 125.703C165.956 125.137 169.671 122.251 170.584 121.524C171.551 121.698 172.583 121.895 173.719 122.138C175.713 122.581 177.96 123.099 180.365 123.827C181.006 124.02 181.688 124.253 182.353 124.466C181.158 124.338 179.514 124.186 179.353 124.189C176.386 124.242 170.685 126.089 169.723 129.269C169.03 131.56 170.642 133.746 172.896 134.186C175.198 134.635 177.712 133.21 179.362 131.73C181.084 130.187 183.084 125.802 183.511 124.838C184.977 125.334 186.471 125.878 187.996 126.536C190.622 127.663 193.361 129.002 195.966 130.721C196.111 130.816 196.249 130.933 196.394 131.03C195.814 130.865 192.568 130.186 192.335 130.165C189.38 129.892 183.511 131.101 182.205 134.157C181.264 136.359 182.627 138.708 184.819 139.393C187.058 140.093 189.713 138.952 191.516 137.663C193.593 136.178 196.388 131.287 196.493 131.103C198.912 132.744 201.271 134.613 203.561 136.647C205.222 138.118 206.844 139.677 208.457 141.256C207.697 141.058 204.679 140.429 204.457 140.408C201.503 140.135 195.633 141.344 194.327 144.4C193.386 146.602 194.748 148.951 196.941 149.636C199.18 150.336 201.835 149.195 203.638 147.906C205.666 146.456 208.365 141.782 208.591 141.388C209.323 142.105 210.057 142.819 210.785 143.544C213.163 145.909 215.536 148.291 217.95 150.57C218.786 151.36 219.64 152.107 220.491 152.859C219.343 152.598 217.245 152.164 217.061 152.147C214.106 151.874 208.236 153.083 206.931 156.139C205.99 158.341 207.353 160.69 209.545 161.375C211.784 162.075 214.439 160.934 216.242 159.645C218.053 158.35 220.407 154.469 221.054 153.367C222.48 154.608 223.921 155.808 225.397 156.922C226.044 157.389 226.674 157.906 227.32 158.318C227.962 158.748 228.598 159.173 229.228 159.594C230.561 160.419 231.797 161.191 233.058 161.926C233.693 162.303 234.3 162.643 234.921 163.001C233.797 162.563 232.006 161.897 231.836 161.855C228.957 161.137 222.972 161.444 221.219 164.266C219.955 166.3 220.946 168.829 223.009 169.838C225.116 170.868 227.913 170.143 229.891 169.142C232.071 168.038 235.351 163.979 235.75 163.48C237.275 164.349 238.768 165.18 240.179 165.932C243.943 167.949 247.231 169.555 249.781 170.753C258.065 177.917 269.728 178.706 269.728 178.706C269.728 178.706 270.344 164.739 262.12 155.545C259.14 152.211 255.406 149.967 251.856 148.455ZM237.059 162.076C237.319 161.505 239.305 157.067 239.442 154.564C239.903 154.479 240.366 154.382 240.815 154.278C241.61 158.119 243.119 162.629 245.96 166.576C244.453 165.861 242.824 165.066 241.091 164.185C239.801 163.534 238.445 162.822 237.059 162.076Z" fill="white"/>
<path d="M312.968 145.785C312.968 145.785 298.994 146.213 290.44 155.101C281.886 163.988 281.992 177.969 281.992 177.969C281.992 177.969 295.966 177.541 304.52 168.653C313.074 159.765 312.968 145.785 312.968 145.785Z" fill="white"/>
</g>
<path d="M276.469 154.786L290.194 142.446L289.605 141.791L276.46 153.609L276.391 137.436L276.463 137.485L288.072 120.51L287.345 120.012L276.385 136.038L276.217 97.1211L275.337 97.1251L275.451 123.539L266.712 115.977L266.137 116.643L275.456 124.708L275.537 143.595L262.291 131.875L261.708 132.534L275.542 144.774L275.616 161.971L265.662 154.159L265.119 154.852L275.621 163.093L275.669 174.164L276.549 174.16L276.465 154.783L276.469 154.786Z" fill="white"/>
<path d="M263.823 159.55L262.948 159.45L261.84 169.224L255.947 162.637L255.957 162.635L254.463 150.806L253.59 150.917L254.927 161.497L240.277 145.12L239.621 145.707L249.56 156.819L243.268 156.895L243.279 157.775L250.339 157.689L257.309 165.481L247.468 165.492L247.47 166.372L258.096 166.36L264.434 173.445L257.492 173.863L257.546 174.741L265.182 174.282L269.403 179L270.059 178.413L262.626 170.103L263.823 159.55Z" fill="white"/>
<path d="M296.989 163.034L308.674 160.662L308.498 159.799L298.047 161.921L313.285 146.09L312.652 145.48L302.312 156.221L301.766 149.951L300.89 150.027L301.502 157.063L294.253 164.594L293.507 154.781L292.628 154.848L293.434 165.445L286.843 172.293L285.908 165.402L285.036 165.521L286.064 173.102L281.674 177.663L282.308 178.273L290.039 170.241L300.653 170.647L300.687 169.767L290.857 169.391L296.987 163.023L296.989 163.034Z" fill="white"/>
<path d="M162.583 298.689C163.37 302.622 172.809 304.195 172.809 304.195L179.781 300.241C182.708 324.838 185.308 344.924 186.181 346.671C188.541 351.391 205.846 345.098 207.419 337.232C208.055 334.051 204.96 312.6 201.048 288.179L225.51 274.305C225.51 274.305 226.58 270.79 218.966 272.154C216.31 272.63 208.55 275.525 199.605 279.259C194.106 245.566 187.754 209.804 187.754 209.804C187.754 209.804 271.133 300.262 275.066 300.262C278.999 300.262 284.505 299.476 282.145 292.396C279.785 285.317 187.753 197.218 187.753 197.218C187.753 197.218 172.021 196.432 168.875 203.511C168.875 203.511 173.789 249.026 178.426 288.752C169.254 293.202 162.284 297.195 162.583 298.689Z" fill="#263238"/>
<path d="M348.563 275.5C348.42 271.44 348.089 267.369 347.352 263.356C346.653 259.342 345.696 255.366 344.392 251.512C343.122 247.649 341.59 243.876 339.765 240.27C337.967 236.651 335.94 233.159 333.672 229.858C331.428 226.54 328.991 223.373 326.366 220.401C323.76 217.41 321.01 214.568 318.085 211.944C312.268 206.654 305.939 202.067 299.356 198.018C272.895 181.953 242.328 174.577 212.121 175.068C204.559 175.312 197.014 176.057 189.586 177.489C182.167 178.918 174.836 180.948 167.875 183.915C160.9 186.811 154.292 190.667 148.345 195.125C142.387 199.62 136.904 204.709 132.149 210.364L132.13 210.386C131.962 210.587 131.977 210.886 132.17 211.069C132.37 211.259 132.686 211.25 132.876 211.05C137.893 205.757 143.56 201.093 149.631 197.05C155.692 192.977 162.187 189.593 169.052 187.125C182.775 182.14 197.488 180.232 212.068 180.367C226.672 180.561 241.241 182.791 255.272 186.832C269.282 190.914 282.832 196.75 295.097 204.654C307.328 212.539 318.357 222.526 326.358 234.684C328.375 237.704 330.155 240.878 331.723 244.147C333.318 247.405 334.636 250.795 335.721 254.252C336.838 257.701 337.637 261.248 338.209 264.824C338.82 268.398 339.058 272.025 339.139 275.647C339.215 279.273 338.95 282.897 338.562 286.503C338.286 288.291 338.037 290.085 337.689 291.859L337.08 294.503L336.776 295.825L336.386 297.124C334.378 304.076 331.27 310.697 327.299 316.753C319.26 328.847 307.934 338.537 295.347 345.749C282.739 353.009 268.804 357.876 254.517 360.688C240.215 363.474 225.521 364.314 210.974 363.193C209.151 363.109 207.342 362.862 205.526 362.696C204.62 362.599 203.709 362.523 202.806 362.408L200.107 361.997C198.312 361.698 196.498 361.505 194.719 361.12L189.379 359.969C188.484 359.797 187.605 359.559 186.73 359.305L184.098 358.572C182.343 358.084 180.58 357.624 178.869 356.991L173.698 355.222L168.632 353.169C167.791 352.819 166.939 352.494 166.106 352.125L163.638 350.95C162 350.152 160.33 349.417 158.718 348.568C155.531 346.8 152.283 345.137 149.242 343.121L146.925 341.67L145.768 340.942L144.655 340.149L140.203 336.977C138.718 335.921 137.351 334.71 135.919 333.584L133.794 331.865C133.081 331.298 132.441 330.646 131.761 330.04L127.736 326.342L123.96 322.392C123.34 321.725 122.683 321.092 122.093 320.398L120.347 318.297L118.601 316.196C118.027 315.49 117.411 314.816 116.904 314.057L113.722 309.617L112.927 308.506L112.218 307.34L110.799 305.008C108.792 301.961 107.304 298.628 105.626 295.399C102.58 288.794 100.448 281.777 99.3178 274.599C98.3068 267.409 98.2468 260.062 99.4208 252.882C100.496 245.685 102.742 238.694 105.694 232.042C108.736 225.425 112.483 219.122 116.886 213.304C125.63 201.605 136.617 191.668 148.699 183.474C148.916 183.326 148.984 183.032 148.847 182.804C148.705 182.567 148.399 182.49 148.162 182.631L148.142 182.643C141.819 186.421 135.697 190.626 129.974 195.383C124.284 200.172 118.948 205.448 114.164 211.259C109.316 217.021 105.184 223.428 101.715 230.237C98.3418 237.089 95.6648 244.402 94.2098 252.065C92.6768 259.711 92.5138 267.657 93.3698 275.482C94.3508 283.293 96.4388 290.98 99.5068 298.203C102.626 305.355 106.496 312.173 111.061 318.485C111.589 319.308 112.224 320.042 112.82 320.811L114.632 323.096L116.449 325.381C117.063 326.135 117.743 326.827 118.388 327.553L122.322 331.854L126.514 335.889C127.223 336.55 127.895 337.259 128.637 337.88L130.853 339.76C132.346 340.993 133.78 342.312 135.33 343.471L139.986 346.951L141.152 347.82L142.362 348.623L144.787 350.222C147.97 352.448 151.403 354.247 154.765 356.177C156.466 357.104 158.227 357.914 159.958 358.786L162.567 360.071C163.447 360.477 164.347 360.838 165.237 361.223L170.601 363.484L176.086 365.451C177.902 366.147 179.777 366.67 181.645 367.219L184.448 368.041C185.38 368.324 186.317 368.59 187.273 368.791L192.981 370.106C194.885 370.543 196.836 370.788 198.763 371.134L201.664 371.614C202.625 371.75 203.574 371.844 204.53 371.96C206.441 372.164 208.344 372.447 210.264 372.566C217.924 373.301 225.651 373.387 233.359 372.989C241.068 372.594 248.766 371.693 256.384 370.239C271.607 367.328 286.568 362.227 300.32 354.415C313.966 346.521 326.441 335.793 335.434 322.113C339.877 315.264 343.382 307.711 345.627 299.763L346.06 298.277L346.403 296.767L347.079 293.744C347.467 291.72 347.746 289.665 348.04 287.634C348.47 283.618 348.705 279.567 348.563 275.5Z" fill="#263238"/>
<path d="M210.909 209.758C211.518 210.995 212.76 211.713 214.051 211.713C214.571 211.713 215.098 211.597 215.595 211.352L229.547 204.48L238.717 212.284C239.376 212.844 240.182 213.118 240.984 213.118C241.974 213.118 242.959 212.7 243.651 211.887C244.903 210.415 244.726 208.206 243.254 206.953L236.388 201.11L244.123 197.3C245.857 196.446 246.571 194.348 245.716 192.614C244.862 190.88 242.763 190.167 241.03 191.021L230.581 196.168L223.241 189.921C221.769 188.669 219.56 188.845 218.307 190.318C217.055 191.79 217.232 193.999 218.704 195.252L223.74 199.538L212.502 205.073C210.768 205.926 210.054 208.024 210.909 209.758Z" fill="#263238"/>
<path opacity="0.3" d="M429.013 418.982L363.22 390.241C355.223 383.431 345.748 375.568 344.184 375.177C341.403 374.482 342.793 371.005 347.661 362.661C352.528 354.317 318.227 338.318 309.456 339.174C302.418 339.861 294.12 338.452 291.114 337.868C293.621 330.42 296.208 323.028 296.208 323.028L262.117 308.113L235.021 266.708L226.536 269.407C226.536 269.407 238.423 296.533 252.355 327.575C247.211 325.945 236.761 323.715 235.716 332.068C234.325 343.193 242.669 351.537 251.013 351.537C255.605 351.537 259.979 351.326 262.991 351.137C278.203 384.611 292.959 415.995 295.513 417.592C301.076 421.069 320.544 425.936 321.24 421.069C321.935 416.202 301.771 380.741 301.771 380.741C301.771 380.741 408.849 423.155 419.974 423.155C431.099 423.155 429.013 418.982 429.013 418.982ZM327.497 359.185C327.497 359.185 324.399 368.094 324.852 373.48L306.594 365.504L327.497 359.185ZM278.13 322.333L275.686 328.849L270.11 320.328L278.13 322.333Z" fill="black"/>
<path d="M387.397 203.55C387.397 203.55 389.573 198.925 388.213 195.389C386.853 191.852 361.825 186.14 361.825 186.14C361.825 186.14 356.112 186.14 356.384 189.405C356.656 192.669 377.331 205.183 378.963 206.271C380.596 207.359 386.853 209.807 387.397 203.55Z" fill="white" stroke="#263238" stroke-miterlimit="10" strokeLinecap="round" stroke-linejoin="round"/>
<path d="M368.898 200.83C368.898 200.83 371.074 196.477 376.243 195.389C381.412 194.301 388.213 197.837 389.029 203.55C389.845 209.263 385.493 211.983 382.772 211.983C380.052 211.983 377.603 208.174 377.603 208.174C377.603 208.174 368.898 204.91 368.898 200.83Z" fill="white" stroke="#263238" stroke-miterlimit="10" strokeLinecap="round" stroke-linejoin="round"/>
<path d="M362.203 227.684C362.203 227.684 364.705 235.191 373.881 238.111C383.056 241.03 400.156 236.86 410.166 238.111L417.673 246.035L405.995 253.542C405.995 253.542 393.58 249.302 379.72 246.452C365.859 243.602 357.198 230.604 357.198 230.604L362.203 227.684Z" fill="#263238"/>
<path d="M232.074 265.553L226.535 269.407L229.184 271.333L233.519 269.888L232.074 265.553Z" fill="#263238" stroke="#263238" stroke-miterlimit="10" strokeLinecap="round" stroke-linejoin="round"/>
<path d="M357.925 172.727C357.925 172.727 355.549 171.863 353.388 170.783C351.227 169.703 353.604 174.672 354.468 174.888C355.332 175.104 357.493 175.536 357.493 175.536L357.925 172.727Z" fill="white" stroke="#263238" stroke-miterlimit="10" strokeLinecap="round" stroke-linejoin="round"/>
<path d="M241.859 250.558L231.116 264.832C230.361 265.835 230.239 267.179 230.8 268.302C231.454 269.609 232.887 270.333 234.327 270.082L249.915 267.37L418.443 170.478C426.566 165.749 429.173 155.241 424.202 147.264C419.266 139.343 408.788 137.02 400.967 142.113L241.859 250.558Z" fill="#92E3A9" stroke="#263238" stroke-miterlimit="10" strokeLinecap="round" stroke-linejoin="round"/>
<path d="M400.966 142.113L356.046 173.138C356.467 180.917 359.807 191.224 373.424 195.769L418.442 170.478C426.565 165.749 429.172 155.241 424.201 147.264C419.265 139.343 408.787 137.02 400.966 142.113Z" fill="#263238" stroke="#263238" stroke-miterlimit="10" strokeLinecap="round" stroke-linejoin="round"/>
<path d="M230.8 268.302C231.454 269.609 232.887 270.333 234.327 270.082L249.915 267.37C237.306 262.466 241.859 250.558 241.859 250.558L231.116 264.832C230.361 265.836 230.238 267.18 230.8 268.302Z" fill="#92E3A9" stroke="#263238" stroke-miterlimit="10" strokeLinecap="round" stroke-linejoin="round"/>
<path d="M344.109 177.696C344.109 177.696 341.693 177.696 341.693 178.797C341.693 179.898 341.057 183.811 342.456 183.688C343.855 183.566 343.728 181.12 343.855 180.264C343.982 179.408 344.109 177.696 344.109 177.696Z" fill="white" stroke="#263238" stroke-miterlimit="10" strokeLinecap="round" stroke-linejoin="round"/>
<path d="M346.755 173.714C346.755 173.714 344.594 173.049 344.095 174.379C343.596 175.709 343.098 182.025 344.594 181.859C346.091 181.692 346.423 176.041 346.755 173.714Z" fill="white" stroke="#263238" stroke-miterlimit="10" strokeLinecap="round" stroke-linejoin="round"/>
<path d="M350.08 174.046C350.08 174.046 347.587 171.885 346.756 173.714C345.925 175.542 345.759 180.695 346.756 180.695C347.753 180.695 349.249 178.534 349.582 177.371C349.914 176.207 350.08 174.046 350.08 174.046Z" fill="white" stroke="#263238" stroke-miterlimit="10" strokeLinecap="round" stroke-linejoin="round"/>
<path d="M353.57 175.043C353.57 175.043 350.412 172.383 349.913 172.882C349.414 173.381 347.416 178.501 348.916 179.531C350.415 180.561 352.308 175.967 352.308 175.967L353.57 175.043Z" fill="white" stroke="#263238" stroke-miterlimit="10" strokeLinecap="round" stroke-linejoin="round"/>
<path d="M313.906 199.664C313.906 199.664 314.262 204.999 315.684 206.243C317.107 207.488 317.996 208.732 317.996 208.732C317.996 208.732 318.352 211.222 318.352 212.822C318.352 214.422 319.419 214.245 320.308 214.245C321.197 214.245 322.798 217.268 323.687 218.69C324.576 220.113 325.857 220.835 327.457 221.725C329.057 222.614 331.725 219.235 331.725 219.235L335.245 225.091L347.87 216.911L341.646 204.819C341.646 204.819 341.468 199.306 337.912 192.905C334.356 186.503 329.554 182.947 321.552 185.259C313.551 187.572 313.906 199.664 313.906 199.664Z" fill="white" stroke="#263238" stroke-miterlimit="10" strokeLinecap="round" stroke-linejoin="round"/>
<path d="M334 221.536L328.587 216.098" stroke="#263238" stroke-miterlimit="10" strokeLinecap="round" stroke-linejoin="round"/>
<path d="M324.665 205.901C324.665 205.901 323.096 207.078 321.135 205.901C319.174 204.724 317.997 202.371 317.997 199.626C317.997 196.88 314.467 198.057 314.467 198.057C314.467 198.057 310.545 202.371 307.799 200.802C305.054 199.233 303.485 196.095 311.329 186.29C319.173 176.485 326.626 176.877 332.901 180.799C339.176 184.721 341.646 204.821 341.646 204.821C341.646 204.821 341.53 208.646 336.431 209.823C331.332 211 324.665 209.823 324.665 205.901Z" fill="#263238" stroke="#263238" stroke-miterlimit="10" strokeLinecap="round" stroke-linejoin="round"/>
<path d="M323.686 209.267C323.686 209.267 321.908 202.51 324.753 203.399C327.598 204.288 329.198 210.334 329.021 211.045C328.844 211.756 327.421 212.112 326.709 211.934" fill="white"/>
<path d="M323.686 209.267C323.686 209.267 321.908 202.51 324.753 203.399C327.598 204.288 329.198 210.334 329.021 211.045C328.844 211.756 327.421 212.112 326.709 211.934" stroke="#263238" stroke-miterlimit="10" strokeLinecap="round" stroke-linejoin="round"/>
<path d="M344.241 211.72C344.241 211.72 337.784 215.373 334.761 218.04C331.738 220.707 329.071 228.709 329.071 228.709C329.071 228.709 347.387 216.262 350.587 214.483C353.788 212.705 354.499 211.816 354.499 211.816C354.499 211.816 347.798 210.831 344.241 211.72Z" fill="white" stroke="#263238" stroke-miterlimit="10" strokeLinecap="round" stroke-linejoin="round"/>
<path d="M299.115 259.516C299.115 259.516 293.932 257.124 287.951 253.934C281.97 250.744 275.591 247.156 275.591 247.156C275.591 247.156 272.003 246.757 270.408 247.156C268.813 247.555 263.231 248.751 261.238 248.751C259.245 248.751 258.048 250.744 259.245 251.542C260.441 252.339 266.82 251.542 266.82 251.542L256.852 256.326C256.852 256.326 255.656 258.718 258.447 258.718C261.238 258.718 262.434 258.319 265.624 258.718C268.814 259.117 275.193 255.13 275.193 255.13C275.193 255.13 292.073 274.581 295.993 274.823C299.912 275.066 307.887 265.895 299.115 259.516Z" fill="white" stroke="#263238" stroke-miterlimit="10" strokeLinecap="round" stroke-linejoin="round"/>
<path d="M304.426 255.781C304.426 255.781 295.721 258.229 294.089 262.038C292.457 265.847 292.73 271.559 295.994 274.824C299.258 278.088 300.618 278.905 304.154 277.544C307.69 276.183 308.507 274.008 308.779 271.831C309.05 269.655 310.955 262.31 304.426 255.781Z" fill="white" stroke="#263238" stroke-miterlimit="10" strokeLinecap="round" stroke-linejoin="round"/>
<path d="M420.915 408.883C420.915 408.883 419.283 411.603 419.011 412.419C418.739 413.235 412.754 414.051 413.57 416.772C414.386 419.493 420.643 421.669 423.635 421.941C426.627 422.213 432.612 418.132 433.7 417.044C434.344 416.401 435.303 412.178 434.788 408.883C434.433 406.607 432.612 404.802 432.612 404.802C432.612 404.802 427.443 396.914 420.915 408.883Z" fill="white" stroke="#263238" stroke-miterlimit="10" strokeLinecap="round" stroke-linejoin="round"/>
<path d="M434.788 408.883C434.527 407.21 433.478 405.799 432.939 405.165C430.88 405.291 428.479 405.899 426.899 407.795C424.179 411.059 425.539 418.404 422.274 419.493C419.839 420.304 415.591 417.334 413.588 415.771C413.481 416.074 413.459 416.404 413.569 416.772C414.385 419.492 420.642 421.669 423.634 421.941C426.626 422.213 432.611 418.132 433.699 417.044C434.344 416.401 435.303 412.179 434.788 408.883Z" fill="white" stroke="#263238" stroke-miterlimit="10" strokeLinecap="round" stroke-linejoin="round"/>
<path d="M427.715 410.788C426.627 415.685 427.987 418.949 423.635 421.942C426.627 422.214 432.612 418.133 433.7 417.045C434.344 416.402 435.303 412.179 434.788 408.884C434.677 408.172 434.417 407.516 434.119 406.937L433.7 406.98C433.7 406.98 428.804 405.891 427.715 410.788Z" fill="#263238" stroke="#263238" stroke-miterlimit="10" strokeLinecap="round" stroke-linejoin="round"/>
<path d="M411.248 372.704C407.167 364.543 390.661 342.561 390.661 342.561C390.661 342.561 383.046 294.966 382.772 291.69C382.246 285.412 378.222 275.927 378.222 275.927C378.222 275.927 365.09 273.192 340.062 287.882L340.334 296.043L357.776 317.556C358.619 316.867 359.105 316.446 359.105 316.446C359.105 316.446 370.258 344.466 372.707 349.906C375.155 355.347 387.248 374.704 393.248 378.704C396.59 380.932 420.915 408.884 420.915 408.884C420.915 408.884 425.54 404.803 428.532 404.803C431.524 404.803 432.613 404.803 432.613 404.803C432.613 404.803 415.328 380.865 411.248 372.704Z" fill="#263238" stroke="#263238" stroke-miterlimit="10" strokeLinecap="round" stroke-linejoin="round"/>
<g opacity="0.35">
<path d="M415.764 397.393C419.077 401.584 421.267 404.712 421.267 404.712" stroke="white" stroke-miterlimit="10" strokeLinecap="round" stroke-linejoin="round"/>
<path d="M366.083 319.349C366.083 319.349 370.394 330.558 375.999 343.492C381.604 356.426 388.502 371.946 398.849 379.707C403.217 382.983 407.892 387.949 411.837 392.595" stroke="white" stroke-miterlimit="10" strokeLinecap="round" stroke-linejoin="round"/>
<path d="M377.876 308.012L359.105 316.445L379.016 315.468" stroke="white" stroke-miterlimit="10" strokeLinecap="round" stroke-linejoin="round"/>
</g>
<path d="M374.611 198.925C369.986 199.469 358.017 207.63 357.201 208.446C356.385 209.262 353.12 211.166 351.76 212.255C351.76 212.255 323.74 229.665 321.292 231.297C318.844 232.929 313.947 236.194 314.219 237.282C314.491 238.37 299.801 262.309 299.801 262.309C299.801 262.309 295.448 268.022 299.529 273.191C303.61 278.36 307.418 274.823 309.322 273.735C311.226 272.647 326.188 258.501 326.188 258.501L339.994 291.447C339.994 291.447 359.105 278.632 379.507 279.448L365.905 226.129C365.905 226.129 384.675 211.983 385.22 207.086C385.765 202.19 379.236 198.381 374.611 198.925Z" fill="white"/>
<mask id="mask0_114_2132" style="mask-type:luminance" maskUnits="userSpaceOnUse" x="297" y="198" width="89" height="94">
<path d="M374.611 198.925C369.986 199.469 358.017 207.63 357.201 208.446C356.385 209.262 353.12 211.166 351.76 212.255C351.76 212.255 323.74 229.665 321.292 231.297C318.844 232.929 313.947 236.194 314.219 237.282C314.491 238.37 299.801 262.309 299.801 262.309C299.801 262.309 295.448 268.022 299.529 273.191C303.61 278.36 307.418 274.823 309.322 273.735C311.226 272.647 326.188 258.501 326.188 258.501L339.994 291.447C339.994 291.447 359.105 278.632 379.507 279.448L365.905 226.129C365.905 226.129 384.675 211.983 385.22 207.086C385.765 202.19 379.236 198.381 374.611 198.925Z" fill="white"/>
</mask>
<g mask="url(#mask0_114_2132)">
<path d="M374.611 198.925C372.758 199.143 369.727 200.584 366.706 202.285C367.738 202.097 369.137 202.248 370.352 203.81C372.598 206.698 367.785 216.004 367.785 216.004C367.785 216.004 365.813 203.143 365.86 207.019C365.906 210.895 364.897 222.743 364.897 222.743C364.897 222.743 358.479 215.041 358.8 216.967C359.121 218.892 363.293 236.863 365.86 243.602C368.427 250.341 363.934 269.274 361.367 274.73C358.8 280.185 360.404 251.625 357.516 258.685C354.628 265.745 345.001 285.32 342.754 287.245C340.597 289.094 343.468 261.08 344.269 257.421C343.29 260.474 336.657 279.864 336.657 279.864L327.672 256.759C327.672 256.759 312.269 244.244 313.873 246.49C315.478 248.736 319.328 255.796 319.328 255.796C319.328 255.796 310.022 253.871 311.626 254.512C313.23 255.154 320.29 258.684 320.29 258.684C320.29 258.684 305.849 268.953 301.678 270.237C300.545 270.586 299.367 270.766 298.242 270.867C298.518 271.64 298.921 272.421 299.529 273.191C303.61 278.36 307.418 274.823 309.322 273.735C311.226 272.647 326.188 258.501 326.188 258.501L339.994 291.447C339.994 291.447 359.105 278.632 379.507 279.448L365.905 226.129C365.905 226.129 384.675 211.983 385.22 207.087C385.765 202.19 379.236 198.381 374.611 198.925Z" fill="#92E3A9"/>
</g>
<mask id="mask1_114_2132" style="mask-type:luminance" maskUnits="userSpaceOnUse" x="297" y="198" width="89" height="94">
<path d="M374.611 198.925C369.986 199.469 358.017 207.63 357.201 208.446C356.385 209.262 353.12 211.166 351.76 212.255C351.76 212.255 323.74 229.665 321.292 231.297C318.844 232.929 313.947 236.194 314.219 237.282C314.491 238.37 299.801 262.309 299.801 262.309C299.801 262.309 295.448 268.022 299.529 273.191C303.61 278.36 307.418 274.823 309.322 273.735C311.226 272.647 326.188 258.501 326.188 258.501L339.994 291.447C339.994 291.447 359.105 278.632 379.507 279.448L365.905 226.129C365.905 226.129 384.675 211.983 385.22 207.086C385.765 202.19 379.236 198.381 374.611 198.925Z" fill="white"/>
</mask>
<g mask="url(#mask1_114_2132)">
<path opacity="0.5" d="M374.611 198.925C372.758 199.143 369.727 200.584 366.706 202.285C367.738 202.097 369.137 202.248 370.352 203.81C372.598 206.698 367.785 216.004 367.785 216.004C367.785 216.004 365.813 203.143 365.86 207.019C365.906 210.895 364.897 222.743 364.897 222.743C364.897 222.743 358.479 215.041 358.8 216.967C359.121 218.892 363.293 236.863 365.86 243.602C368.427 250.341 363.934 269.274 361.367 274.73C358.8 280.185 360.404 251.625 357.516 258.685C354.628 265.745 345.001 285.32 342.754 287.245C340.597 289.094 343.468 261.08 344.269 257.421C343.29 260.474 336.657 279.864 336.657 279.864L327.672 256.759C327.672 256.759 312.269 244.244 313.873 246.49C315.478 248.736 319.328 255.796 319.328 255.796C319.328 255.796 310.022 253.871 311.626 254.512C313.23 255.154 320.29 258.684 320.29 258.684C320.29 258.684 305.849 268.953 301.678 270.237C300.545 270.586 299.367 270.766 298.242 270.867C298.518 271.64 298.921 272.421 299.529 273.191C303.61 278.36 307.418 274.823 309.322 273.735C311.226 272.647 326.188 258.501 326.188 258.501L339.994 291.447C339.994 291.447 359.105 278.632 379.507 279.448L365.905 226.129C365.905 226.129 384.675 211.983 385.22 207.087C385.765 202.19 379.236 198.381 374.611 198.925Z" fill="white"/>
</g>
<path d="M374.611 198.925C369.986 199.469 358.017 207.63 357.201 208.446C356.385 209.262 353.12 211.166 351.76 212.255C351.76 212.255 323.74 229.665 321.292 231.297C318.844 232.929 313.947 236.194 314.219 237.282C314.491 238.37 299.801 262.309 299.801 262.309C299.801 262.309 295.448 268.022 299.529 273.191C303.61 278.36 307.418 274.823 309.322 273.735C311.226 272.647 326.188 258.501 326.188 258.501L339.994 291.447C339.994 291.447 359.105 278.632 379.507 279.448L365.905 226.129C365.905 226.129 384.675 211.983 385.22 207.086C385.765 202.19 379.236 198.381 374.611 198.925Z" stroke="#263238" stroke-miterlimit="10" strokeLinecap="round" stroke-linejoin="round"/>
<path d="M339.994 291.448C339.994 291.448 338.557 281.963 341.144 269.029Z" fill="white"/>
<path d="M339.994 291.448C339.994 291.448 338.557 281.963 341.144 269.029" stroke="#263238" stroke-miterlimit="10" strokeLinecap="round" stroke-linejoin="round"/>
<path d="M337.408 274.777C337.408 274.777 337.408 270.178 342.582 255.807Z" fill="white"/>
<path d="M337.408 274.777C337.408 274.777 337.408 270.178 342.582 255.807" stroke="#263238" stroke-miterlimit="10" strokeLinecap="round" stroke-linejoin="round"/>
<path d="M315.579 246.532L326.189 258.501L315.307 250.612" fill="white"/>
<path d="M315.579 246.532L326.189 258.501L315.307 250.612" stroke="#263238" stroke-miterlimit="10" strokeLinecap="round" stroke-linejoin="round"/>
<path d="M365.906 210.895V226.129L369.443 206.542" fill="white"/>
<path d="M365.906 210.895V226.129L369.443 206.542" stroke="#263238" stroke-miterlimit="10" strokeLinecap="round" stroke-linejoin="round"/>
<path d="M344.359 257.081C344.333 257.145 344.302 257.27 344.269 257.422C344.388 257.052 344.428 256.907 344.359 257.081Z" fill="#263238"/>
<path d="M350.584 191.871C349.469 191.871 348.373 191.339 347.695 190.35C346.601 188.756 347.006 186.577 348.601 185.484L388.934 157.817C390.525 156.723 392.706 157.129 393.799 158.723C394.893 160.317 394.487 162.496 392.893 163.589L352.56 191.256C351.956 191.672 351.267 191.871 350.584 191.871Z" fill="#263238"/>
<path d="M361.053 186.027L392.405 164.451" stroke="white" stroke-miterlimit="10" strokeLinecap="round" stroke-linejoin="round"/>
<path d="M357.514 179.453L388.865 157.878" stroke="white" stroke-miterlimit="10" strokeLinecap="round" stroke-linejoin="round"/>
<path d="M340.335 296.043C340.335 296.043 310.123 331.175 309.457 339.175C308.79 347.175 314.79 355.175 322.124 357.175C329.457 359.175 400.907 360.761 400.907 360.761L400.24 347.428L336.791 337.842L357.777 317.556" fill="#263238"/>
<path d="M340.335 296.043C340.335 296.043 310.123 331.175 309.457 339.175C308.79 347.175 314.79 355.175 322.124 357.175C329.457 359.175 400.907 360.761 400.907 360.761L400.24 347.428L336.791 337.842L357.777 317.556" stroke="#263238" stroke-miterlimit="10" strokeLinecap="round" stroke-linejoin="round"/>
<g opacity="0.35">
<path d="M387.554 353.287L392.381 353.839" stroke="white" stroke-miterlimit="10" strokeLinecap="round" stroke-linejoin="round"/>
<path d="M319.605 336.569L318.227 338.319C318.227 338.319 326.85 337.888 325.125 339.612C323.4 341.336 322.969 344.354 322.969 344.354L328.142 343.061C328.142 343.061 325.124 349.097 327.28 348.666C329.436 348.235 332.022 346.942 332.022 346.942L382.02 352.656" stroke="white" stroke-miterlimit="10" strokeLinecap="round" stroke-linejoin="round"/>
<path d="M348.406 290.032C348.406 290.032 340.215 295.637 344.095 296.499C347.975 297.361 352.717 296.068 351.424 297.792C350.131 299.516 345.388 303.828 345.388 303.828L326.138 328.273" stroke="white" stroke-miterlimit="10" strokeLinecap="round" stroke-linejoin="round"/>
<path d="M344.095 296.499C344.095 296.499 348.837 289.601 359.616 289.17" stroke="white" stroke-miterlimit="10" strokeLinecap="round" stroke-linejoin="round"/>
</g>
<path d="M398.865 347.267C398.865 347.267 406.374 345.56 407.74 347.95C409.106 350.34 409.788 356.142 409.788 358.873C409.788 361.604 411.836 366.041 411.495 370.137C411.154 374.233 405.01 378.67 402.962 378.67C400.914 378.67 400.914 366.382 398.866 361.603C396.817 356.824 396.476 349.997 398.865 347.267Z" fill="white" stroke="#263238" stroke-miterlimit="10" strokeLinecap="round" stroke-linejoin="round"/>
<path d="M403.602 378.557C406.058 377.876 411.183 373.87 411.495 370.136C411.836 366.04 409.788 361.603 409.788 358.872C409.788 356.141 409.105 350.339 407.74 347.949C407.129 346.88 405.29 346.633 403.442 346.684C402.633 347.543 401.955 348.806 402.176 350.572C402.665 354.481 406.573 370.36 405.107 374.757C404.583 376.332 404.059 377.587 403.602 378.557Z" fill="white" stroke="#263238" stroke-miterlimit="10" strokeLinecap="round" stroke-linejoin="round"/>
<path d="M407.74 347.949C407.453 347.446 406.884 347.132 406.18 346.938C405.096 348.454 404.249 350.476 404.42 353.047C404.854 359.563 406.158 364.775 406.592 370.422C406.88 374.163 406.214 375.997 405.479 377.693C408.039 376.163 411.251 373.067 411.495 370.136C411.836 366.04 409.788 361.603 409.788 358.872C409.788 356.141 409.105 350.339 407.74 347.949Z" fill="#263238" stroke="#263238" stroke-miterlimit="10" strokeLinecap="round" stroke-linejoin="round"/>
</svg>
