<svg width="500" height="500" viewBox="0 0 500 500" fill="none" xmlns="http://www.w3.org/2000/svg">
<path d="M289.414 39.6083L290.146 40.9473C290.204 41.0533 290.292 41.1413 290.398 41.1993L291.737 41.9313C292.177 42.1723 292.177 42.8043 291.737 43.0453L290.398 43.7773C290.291 43.8353 290.204 43.9233 290.146 44.0293L289.414 45.3683C289.173 45.8083 288.541 45.8083 288.3 45.3683L287.568 44.0293C287.51 43.9233 287.422 43.8353 287.316 43.7773L285.977 43.0453C285.537 42.8043 285.537 42.1723 285.977 41.9313L287.316 41.1993C287.423 41.1413 287.51 41.0533 287.568 40.9473L288.3 39.6083C288.541 39.1683 289.173 39.1683 289.414 39.6083Z" fill="#F0F0F0"/>
<path d="M36.9701 194.163L37.7021 195.502C37.7601 195.609 37.8481 195.696 37.9541 195.754L39.2931 196.486C39.7331 196.727 39.7331 197.359 39.2931 197.6L37.9541 198.332C37.8471 198.39 37.7601 198.478 37.7021 198.584L36.9701 199.923C36.7291 200.363 36.0971 200.363 35.8561 199.923L35.1241 198.584C35.0661 198.477 34.9781 198.39 34.8721 198.332L33.5331 197.6C33.0931 197.359 33.0931 196.727 33.5331 196.486L34.8721 195.754C34.9791 195.696 35.0661 195.608 35.1241 195.502L35.8561 194.163C36.0971 193.723 36.7291 193.723 36.9701 194.163Z" fill="#F0F0F0"/>
<path d="M87.7914 397.556L88.5234 398.895C88.5814 399.002 88.6694 399.089 88.7754 399.147L90.1144 399.879C90.5544 400.12 90.5544 400.752 90.1144 400.993L88.7754 401.725C88.6694 401.783 88.5814 401.871 88.5234 401.977L87.7914 403.316C87.5504 403.756 86.9184 403.756 86.6774 403.316L85.9454 401.977C85.8874 401.87 85.7994 401.783 85.6934 401.725L84.3544 400.993C83.9144 400.752 83.9144 400.12 84.3544 399.879L85.6934 399.147C85.7994 399.089 85.8874 399.001 85.9454 398.895L86.6774 397.556C86.9184 397.116 87.5504 397.116 87.7914 397.556Z" fill="#F0F0F0"/>
<path d="M359.978 204.48L360.71 205.819C360.768 205.926 360.856 206.013 360.962 206.071L362.301 206.803C362.741 207.044 362.741 207.676 362.301 207.917L360.962 208.649C360.855 208.707 360.768 208.795 360.71 208.901L359.978 210.24C359.737 210.68 359.105 210.68 358.864 210.24L358.132 208.901C358.074 208.794 357.986 208.707 357.88 208.649L356.541 207.917C356.101 207.676 356.101 207.044 356.541 206.803L357.88 206.071C357.987 206.013 358.074 205.925 358.132 205.819L358.864 204.48C359.105 204.04 359.738 204.04 359.978 204.48Z" fill="#F0F0F0"/>
<path d="M459.7 127.462L460.432 128.801C460.49 128.908 460.578 128.995 460.684 129.053L462.023 129.785C462.463 130.026 462.463 130.658 462.023 130.899L460.684 131.631C460.577 131.689 460.49 131.777 460.432 131.883L459.7 133.222C459.459 133.662 458.827 133.662 458.586 133.222L457.854 131.883C457.796 131.776 457.708 131.689 457.602 131.631L456.263 130.899C455.823 130.658 455.823 130.026 456.263 129.785L457.602 129.053C457.709 128.995 457.796 128.907 457.854 128.801L458.586 127.462C458.827 127.021 459.46 127.021 459.7 127.462Z" fill="#F0F0F0"/>
<path d="M443.92 301.59H263.174C259.942 301.59 257.312 298.96 257.312 295.728V32.4543C257.312 29.2223 259.942 26.5923 263.174 26.5923H443.92C447.152 26.5923 449.782 29.2213 449.782 32.4543V295.727C449.783 298.96 447.153 301.59 443.92 301.59ZM263.174 26.8423C260.079 26.8423 257.562 29.3603 257.562 32.4543V295.727C257.562 298.822 260.08 301.339 263.174 301.339H443.92C447.015 301.339 449.532 298.821 449.532 295.727V32.4543C449.532 29.3603 447.014 26.8423 443.92 26.8423H263.174Z" fill="#E0E0E0"/>
<path d="M235.493 301.59H54.7458C51.5138 301.59 48.8838 298.96 48.8838 295.728V32.4543C48.8838 29.2223 51.5128 26.5923 54.7458 26.5923H235.493C238.725 26.5923 241.355 29.2213 241.355 32.4543V295.727C241.355 298.96 238.725 301.59 235.493 301.59ZM54.7458 26.8423C51.6518 26.8423 49.1338 29.3603 49.1338 32.4543V295.727C49.1338 298.822 51.6518 301.339 54.7458 301.339H235.493C238.588 301.339 241.105 298.821 241.105 295.727V32.4543C241.105 29.3603 238.587 26.8423 235.493 26.8423H54.7458Z" fill="#E0E0E0"/>
<path d="M500 362.659H0V362.909H500V362.659Z" fill="#E0E0E0"/>
<path d="M67.7319 376.924H51.6719V377.174H67.7319V376.924Z" fill="#E0E0E0"/>
<path d="M223.882 374.214H170.352V374.464H223.882V374.214Z" fill="#E0E0E0"/>
<path d="M104.982 386.214H68.7324V386.464H104.982V386.214Z" fill="#E0E0E0"/>
<path d="M421.542 374.084H378.352V374.334H421.542V374.084Z" fill="#E0E0E0"/>
<path d="M436.782 374.084H430.452V374.334H436.782V374.084Z" fill="#E0E0E0"/>
<path d="M370.102 380.314H316.212V380.564H370.102V380.314Z" fill="#E0E0E0"/>
<path d="M456.563 87.4222C453.797 85.8472 450.046 86.2412 447.666 88.3552C446.787 85.5282 442.963 84.1072 440.451 85.6742C440.999 82.3162 440.272 78.6742 438.085 76.0682C435.898 73.4622 432.169 72.0992 428.922 73.1132C425.675 74.1272 423.317 77.7112 424.067 81.0292C422.152 79.9752 419.678 80.0192 417.801 81.1402C415.924 82.2622 414.714 84.4192 414.735 86.6062C414.735 86.6062 404.832 84.9882 404.401 95.5482H460.303C460.907 92.4222 459.33 88.9962 456.563 87.4222Z" fill="#F0F0F0"/>
<path d="M217.417 34.3682C215.091 33.0442 211.938 33.3752 209.937 35.1522C209.198 32.7752 205.983 31.5802 203.871 32.8982C204.332 30.0752 203.72 27.0132 201.882 24.8222C200.044 22.6312 196.908 21.4852 194.178 22.3382C191.448 23.1902 189.465 26.2042 190.097 28.9932C188.487 28.1072 186.407 28.1432 184.829 29.0872C183.251 30.0302 182.234 31.8442 182.252 33.6822C182.252 33.6822 173.926 32.3222 173.564 41.2002H220.563C221.069 38.5722 219.743 35.6922 217.417 34.3682Z" fill="#F0F0F0"/>
<path d="M74.6157 130.924C72.2897 129.6 69.1367 129.931 67.1357 131.708C66.3967 129.331 63.1817 128.137 61.0697 129.454C61.5307 126.631 60.9187 123.569 59.0807 121.378C57.2427 119.187 54.1067 118.041 51.3767 118.894C48.6467 119.746 46.6637 122.76 47.2957 125.549C45.6857 124.663 43.6057 124.699 42.0277 125.643C40.4497 126.586 39.4327 128.4 39.4507 130.238C39.4507 130.238 31.1247 128.878 30.7627 137.756H77.7617C78.2677 135.127 76.9417 132.248 74.6157 130.924Z" fill="#F0F0F0"/>
<path d="M209.272 163.32C206.946 161.996 203.793 162.327 201.792 164.104C201.053 161.727 197.838 160.532 195.726 161.85C196.187 159.027 195.575 155.965 193.737 153.774C191.899 151.583 188.763 150.437 186.033 151.29C183.303 152.143 181.32 155.156 181.952 157.945C180.342 157.059 178.262 157.095 176.684 158.039C175.106 158.982 174.089 160.796 174.107 162.634C174.107 162.634 165.781 161.274 165.419 170.152H212.418C212.924 167.524 211.598 164.644 209.272 163.32Z" fill="#F0F0F0"/>
<path d="M475.201 230.407C472.875 229.083 469.722 229.414 467.721 231.191C466.982 228.814 463.767 227.619 461.655 228.937C462.116 226.114 461.504 223.052 459.666 220.861C457.828 218.67 454.692 217.524 451.962 218.377C449.232 219.229 447.249 222.243 447.881 225.032C446.271 224.146 444.191 224.182 442.613 225.126C441.035 226.069 440.018 227.883 440.036 229.721C440.036 229.721 431.71 228.361 431.348 237.239H478.347C478.853 234.61 477.527 231.73 475.201 230.407Z" fill="#F0F0F0"/>
<path d="M92.3729 431.336C89.6059 429.762 85.8559 430.155 83.4759 432.268C82.5969 429.441 78.7729 428.02 76.2609 429.587C76.8089 426.23 76.0819 422.587 73.8949 419.981C71.7079 417.375 67.9789 416.012 64.7319 417.026C61.4849 418.04 59.1259 421.624 59.8769 424.942C57.9619 423.888 55.4879 423.932 53.6109 425.053C51.7339 426.175 50.5239 428.332 50.5459 430.519C50.5459 430.519 40.6429 428.901 40.2119 439.461H96.1139C96.7169 436.336 95.1399 432.91 92.3729 431.336Z" fill="#F0F0F0"/>
<path d="M450.085 427.792C447.318 426.218 443.568 426.611 441.188 428.724C440.309 425.897 436.485 424.476 433.973 426.043C434.521 422.686 433.794 419.043 431.607 416.436C429.42 413.83 425.691 412.467 422.444 413.481C419.197 414.495 416.839 418.079 417.589 421.397C415.674 420.343 413.2 420.387 411.323 421.508C409.446 422.63 408.236 424.787 408.258 426.974C408.258 426.974 398.354 425.356 397.924 435.916H453.826C454.429 432.792 452.851 429.366 450.085 427.792Z" fill="#F0F0F0"/>
<path opacity="0.2" d="M107.355 425.668C106.148 425.668 105.037 425.011 104.457 423.952L103.869 422.877L102.795 422.29C101.734 421.708 101.076 420.598 101.076 419.391C101.076 418.183 101.734 417.073 102.791 416.493L103.868 415.905L104.454 414.832C105.035 413.77 106.146 413.113 107.353 413.113C108.562 413.113 109.673 413.772 110.253 414.834L110.839 415.905L111.912 416.493C112.972 417.072 113.631 418.184 113.631 419.392C113.631 420.6 112.972 421.711 111.912 422.291L110.839 422.878L110.25 423.952C109.675 425.009 108.564 425.668 107.355 425.668Z" fill="#27DEBF"/>
<path d="M107.998 415.777L108.843 417.323C108.91 417.446 109.011 417.547 109.134 417.614L110.68 418.46C111.188 418.738 111.188 419.468 110.68 419.746L109.134 420.592C109.011 420.659 108.91 420.76 108.843 420.883L107.998 422.429C107.72 422.937 106.99 422.937 106.712 422.429L105.867 420.883C105.8 420.76 105.699 420.659 105.576 420.592L104.03 419.746C103.522 419.468 103.522 418.738 104.03 418.46L105.576 417.614C105.699 417.547 105.8 417.446 105.867 417.323L106.712 415.777C106.99 415.269 107.72 415.269 107.998 415.777Z" fill="#27DEBF"/>
<path d="M51.2281 283.123L51.7291 284.039C51.7691 284.112 51.8291 284.172 51.9021 284.212L52.8181 284.713C53.1191 284.878 53.1191 285.31 52.8181 285.475L51.9021 285.976C51.8291 286.016 51.7691 286.076 51.7291 286.149L51.2281 287.065C51.0631 287.366 50.6311 287.366 50.4661 287.065L49.9651 286.149C49.9251 286.076 49.8651 286.016 49.7921 285.976L48.8761 285.475C48.5751 285.31 48.5751 284.878 48.8761 284.713L49.7921 284.212C49.8651 284.172 49.9251 284.112 49.9651 284.039L50.4661 283.123C50.6311 282.822 51.0631 282.822 51.2281 283.123Z" fill="#27DEBF"/>
<path opacity="0.2" d="M141.188 150.246C139.424 150.246 137.799 149.285 136.95 147.736L136.091 146.163L134.521 145.305C132.97 144.454 132.007 142.831 132.007 141.065C132.007 139.299 132.969 137.676 134.515 136.826L136.09 135.966L136.947 134.397C137.797 132.845 139.422 131.883 141.187 131.883C142.955 131.883 144.58 132.847 145.428 134.399L146.286 135.965L147.856 136.824C149.406 137.671 150.37 139.296 150.37 141.064C150.37 142.83 149.406 144.455 147.856 145.304L146.286 146.162L145.425 147.733C144.581 149.282 142.956 150.246 141.188 150.246Z" fill="#27DEBF"/>
<path d="M142.129 135.78L143.365 138.041C143.463 138.221 143.611 138.369 143.791 138.467L146.052 139.704C146.795 140.11 146.795 141.178 146.052 141.585L143.791 142.821C143.611 142.919 143.463 143.067 143.365 143.247L142.129 145.508C141.722 146.251 140.655 146.251 140.248 145.508L139.011 143.247C138.913 143.067 138.765 142.919 138.585 142.821L136.324 141.585C135.581 141.178 135.581 140.111 136.324 139.704L138.585 138.467C138.765 138.369 138.913 138.221 139.011 138.041L140.248 135.78C140.655 135.037 141.723 135.037 142.129 135.78Z" fill="#27DEBF"/>
<path opacity="0.2" d="M436.299 257.278C435.092 257.278 433.981 256.621 433.401 255.562L432.812 254.487L431.74 253.9C430.679 253.318 430.021 252.208 430.021 251.001C430.021 249.793 430.679 248.683 431.736 248.103L432.812 247.515L433.398 246.442C433.979 245.38 435.091 244.723 436.298 244.723C437.507 244.723 438.618 245.382 439.198 246.444L439.784 247.515L440.858 248.103C441.918 248.682 442.577 249.794 442.577 251.002C442.577 252.21 441.918 253.321 440.858 253.901L439.784 254.488L439.195 255.562C438.619 256.619 437.508 257.278 436.299 257.278Z" fill="#27DEBF"/>
<path d="M436.942 247.386L437.787 248.932C437.854 249.055 437.955 249.156 438.078 249.223L439.624 250.069C440.132 250.347 440.132 251.077 439.624 251.355L438.078 252.201C437.955 252.268 437.854 252.369 437.787 252.492L436.942 254.038C436.664 254.546 435.934 254.546 435.656 254.038L434.811 252.492C434.744 252.369 434.643 252.268 434.52 252.201L432.974 251.355C432.466 251.077 432.466 250.347 432.974 250.069L434.52 249.223C434.643 249.156 434.744 249.055 434.811 248.932L435.656 247.386C435.934 246.878 436.664 246.878 436.942 247.386Z" fill="#27DEBF"/>
<path opacity="0.2" d="M362.3 442.096C361.093 442.096 359.982 441.439 359.402 440.38L358.814 439.305L357.74 438.718C356.679 438.136 356.021 437.026 356.021 435.819C356.021 434.611 356.679 433.501 357.736 432.921L358.813 432.333L359.399 431.26C359.98 430.199 361.091 429.541 362.298 429.541C363.507 429.541 364.618 430.2 365.198 431.262L365.784 432.333L366.857 432.921C367.917 433.5 368.576 434.612 368.576 435.82C368.576 437.028 367.917 438.139 366.857 438.719L365.784 439.306L365.195 440.38C364.621 441.437 363.51 442.096 362.3 442.096Z" fill="#27DEBF"/>
<path d="M362.945 432.205L363.79 433.751C363.857 433.874 363.958 433.975 364.081 434.042L365.627 434.887C366.135 435.165 366.135 435.895 365.627 436.173L364.081 437.018C363.958 437.085 363.857 437.186 363.79 437.309L362.945 438.855C362.667 439.363 361.937 439.363 361.659 438.855L360.814 437.309C360.747 437.186 360.646 437.085 360.523 437.018L358.977 436.173C358.469 435.895 358.469 435.165 358.977 434.887L360.523 434.042C360.646 433.975 360.747 433.874 360.814 433.751L361.659 432.205C361.937 431.696 362.667 431.696 362.945 432.205Z" fill="#27DEBF"/>
<path opacity="0.2" d="M368.667 99.8501C367.84 99.8501 367.078 99.4001 366.681 98.6741L366.278 97.9371L365.542 97.5351C364.815 97.1361 364.364 96.3751 364.364 95.5481C364.364 94.7201 364.815 93.9591 365.539 93.5621L366.277 93.1591L366.679 92.4241C367.077 91.6961 367.839 91.2461 368.666 91.2461C369.495 91.2461 370.256 91.6981 370.654 92.4251L371.056 93.1591L371.792 93.5621C372.518 93.9591 372.97 94.7211 372.97 95.5491C372.97 96.3771 372.518 97.1381 371.792 97.5361L371.056 97.9381L370.652 98.6741C370.257 99.3981 369.496 99.8501 368.667 99.8501Z" fill="#27DEBF"/>
<path d="M369.108 93.0713L369.687 94.1313C369.733 94.2153 369.802 94.2843 369.887 94.3313L370.947 94.9103C371.295 95.1003 371.295 95.6013 370.947 95.7913L369.887 96.3703C369.803 96.4163 369.733 96.4853 369.687 96.5703L369.108 97.6303C368.918 97.9783 368.417 97.9783 368.227 97.6303L367.648 96.5703C367.602 96.4863 367.533 96.4163 367.448 96.3703L366.388 95.7913C366.04 95.6003 366.04 95.1003 366.388 94.9103L367.448 94.3313C367.532 94.2853 367.602 94.2163 367.648 94.1313L368.227 93.0713C368.418 92.7223 368.918 92.7223 369.108 93.0713Z" fill="#27DEBF"/>
<path d="M282.6 155.917L283.116 156.86C283.157 156.935 283.219 156.997 283.294 157.038L284.237 157.554C284.547 157.723 284.547 158.169 284.237 158.338L283.294 158.854C283.219 158.895 283.157 158.957 283.116 159.032L282.6 159.975C282.431 160.285 281.985 160.285 281.816 159.975L281.3 159.032C281.259 158.957 281.197 158.895 281.122 158.854L280.179 158.338C279.869 158.169 279.869 157.723 280.179 157.554L281.122 157.038C281.197 156.997 281.259 156.935 281.3 156.86L281.816 155.917C281.985 155.607 282.43 155.607 282.6 155.917Z" fill="#27DEBF"/>
<path d="M92.8925 88.2378L93.3815 89.1318C93.4205 89.2028 93.4785 89.2618 93.5505 89.3008L94.4445 89.7898C94.7385 89.9508 94.7385 90.3728 94.4445 90.5338L93.5505 91.0228C93.4795 91.0618 93.4205 91.1198 93.3815 91.1908L92.8925 92.0848C92.7315 92.3788 92.3095 92.3788 92.1485 92.0848L91.6595 91.1908C91.6205 91.1198 91.5625 91.0608 91.4905 91.0228L90.5965 90.5338C90.3025 90.3728 90.3025 89.9508 90.5965 89.7898L91.4905 89.3008C91.5615 89.2618 91.6205 89.2038 91.6595 89.1318L92.1485 88.2378C92.3095 87.9448 92.7315 87.9448 92.8925 88.2378Z" fill="#27DEBF"/>
<path d="M127.467 126.407L128.199 127.746C128.257 127.852 128.345 127.94 128.451 127.998L129.79 128.73C130.23 128.971 130.23 129.603 129.79 129.844L128.451 130.576C128.344 130.634 128.257 130.722 128.199 130.828L127.467 132.167C127.226 132.607 126.594 132.607 126.353 132.167L125.621 130.828C125.563 130.721 125.475 130.634 125.369 130.576L124.03 129.844C123.59 129.603 123.59 128.971 124.03 128.73L125.369 127.998C125.475 127.94 125.563 127.852 125.621 127.746L126.353 126.407C126.594 125.967 127.226 125.967 127.467 126.407Z" fill="#27DEBF"/>
<path d="M376.879 65.7169L377.818 67.4329C377.893 67.5689 378.005 67.6819 378.141 67.7559L379.857 68.6949C380.421 69.0039 380.421 69.8139 379.857 70.1229L378.141 71.0619C378.004 71.1369 377.892 71.2489 377.818 71.3849L376.879 73.1009C376.57 73.6649 375.76 73.6649 375.451 73.1009L374.512 71.3849C374.437 71.2489 374.325 71.1359 374.189 71.0619L372.473 70.1229C371.909 69.8139 371.909 69.0039 372.473 68.6949L374.189 67.7559C374.325 67.6809 374.438 67.5689 374.512 67.4329L375.451 65.7169C375.76 65.1529 376.571 65.1529 376.879 65.7169Z" fill="#27DEBF"/>
<path d="M382.072 224.272L382.573 225.188C382.613 225.261 382.673 225.321 382.746 225.361L383.662 225.862C383.963 226.027 383.963 226.459 383.662 226.624L382.746 227.125C382.673 227.165 382.613 227.225 382.573 227.298L382.072 228.214C381.907 228.515 381.475 228.515 381.31 228.214L380.809 227.298C380.769 227.225 380.709 227.165 380.636 227.125L379.72 226.624C379.419 226.459 379.419 226.027 379.72 225.862L380.636 225.361C380.709 225.321 380.769 225.261 380.809 225.188L381.31 224.272C381.475 223.971 381.908 223.971 382.072 224.272Z" fill="#27DEBF"/>
<path d="M415.398 362.576L415.899 363.492C415.939 363.565 415.999 363.625 416.072 363.665L416.988 364.166C417.289 364.331 417.289 364.763 416.988 364.928L416.072 365.429C415.999 365.469 415.939 365.529 415.899 365.602L415.398 366.518C415.233 366.819 414.801 366.819 414.636 366.518L414.135 365.602C414.095 365.529 414.035 365.469 413.962 365.429L413.046 364.928C412.745 364.763 412.745 364.331 413.046 364.166L413.962 363.665C414.035 363.625 414.095 363.565 414.135 363.492L414.636 362.576C414.801 362.274 415.233 362.274 415.398 362.576Z" fill="#27DEBF"/>
<path d="M332.092 428.972L332.593 429.888C332.633 429.961 332.693 430.021 332.765 430.061L333.681 430.562C333.982 430.727 333.982 431.159 333.681 431.324L332.765 431.825C332.692 431.865 332.632 431.925 332.593 431.998L332.092 432.914C331.927 433.215 331.495 433.215 331.33 432.914L330.829 431.998C330.789 431.925 330.729 431.865 330.656 431.825L329.74 431.324C329.439 431.159 329.439 430.727 329.74 430.562L330.656 430.061C330.729 430.021 330.789 429.961 330.829 429.888L331.33 428.972C331.495 428.671 331.927 428.671 332.092 428.972Z" fill="#27DEBF"/>
<path opacity="0.2" d="M43.2477 316.52C42.0407 316.52 40.9297 315.863 40.3497 314.804L39.7617 313.729L38.6887 313.142C37.6277 312.56 36.9697 311.45 36.9697 310.243C36.9697 309.035 37.6277 307.925 38.6847 307.345L39.7617 306.757L40.3477 305.684C40.9287 304.623 42.0397 303.965 43.2467 303.965C44.4557 303.965 45.5667 304.624 46.1467 305.686L46.7327 306.757L47.8057 307.344C48.8657 307.923 49.5247 309.035 49.5247 310.243C49.5247 311.451 48.8657 312.562 47.8057 313.142L46.7327 313.729L46.1437 314.803C45.5677 315.861 44.4567 316.52 43.2477 316.52Z" fill="#27DEBF"/>
<path d="M43.891 306.628L44.736 308.174C44.803 308.297 44.904 308.398 45.027 308.465L46.573 309.31C47.081 309.588 47.081 310.318 46.573 310.596L45.027 311.441C44.904 311.508 44.803 311.609 44.736 311.732L43.891 313.278C43.613 313.786 42.883 313.786 42.605 313.278L41.759 311.732C41.692 311.609 41.591 311.508 41.468 311.441L39.922 310.596C39.414 310.318 39.414 309.588 39.922 309.31L41.468 308.465C41.591 308.398 41.692 308.297 41.759 308.174L42.605 306.628C42.883 306.12 43.613 306.12 43.891 306.628Z" fill="#27DEBF"/>
<path opacity="0.2" d="M93.6 201.747C91.383 201.747 89.137 201.571 86.926 201.223C68.626 198.344 54.264 183.506 51.998 165.14C49.31 143.298 63.396 123.392 84.765 118.836C85.301 118.721 85.852 118.664 86.399 118.664C89.932 118.664 93.091 121.065 94.08 124.502C95.066 127.929 93.674 131.561 90.621 133.544C83.472 138.193 79.734 146.405 80.867 154.973C81.99 163.46 88.265 170.728 96.482 173.057C98.513 173.633 100.594 173.925 102.665 173.925C108.989 173.925 115.013 171.199 119.19 166.447C120.761 164.662 122.994 163.639 125.319 163.639C126.442 163.639 127.532 163.873 128.558 164.335C132.457 166.092 134.324 170.48 132.891 174.362C126.854 190.741 111.064 201.747 93.6 201.747Z" fill="#27DEBF"/>
<path opacity="0.2" d="M87.5005 197.57C70.8865 194.956 57.7265 181.379 55.6695 164.687C53.1695 144.397 66.5505 126.499 85.5365 122.451C87.7325 121.983 89.9075 123.365 90.5275 125.524L90.5295 125.531C91.0705 127.415 90.2505 129.376 88.6075 130.444C80.3955 135.783 75.8585 145.293 77.2035 155.457C78.5235 165.431 85.7945 173.87 95.4745 176.614C105.431 179.437 115.571 176.165 121.969 168.888C123.247 167.435 125.278 166.911 127.042 167.706L127.126 167.744C129.157 168.659 130.194 170.992 129.424 173.082C123.255 189.816 106.049 200.488 87.5005 197.57Z" fill="#27DEBF"/>
<path d="M100.136 181.213C86.3007 180.056 74.9487 169.011 73.4497 155.209C72.1907 143.616 77.6917 133.227 86.4897 127.418C87.1267 126.997 86.6937 125.98 85.9497 126.149C69.6457 129.836 57.7147 145.049 59.1897 162.779C60.5357 178.952 73.3717 192.257 89.4947 194.117C105.92 196.012 120.34 186.362 125.785 172.244C126.073 171.497 125.13 170.898 124.597 171.495C118.698 178.1 109.86 182.026 100.136 181.213Z" fill="#27DEBF"/>
<path d="M416.801 218.961C417.761 220.375 418.721 221.788 419.68 223.202C419.9 223.526 420.35 223.701 420.706 223.471C421.029 223.263 421.211 222.792 420.975 222.445C420.015 221.031 419.055 219.618 418.096 218.204C417.876 217.88 417.426 217.705 417.07 217.935C416.748 218.143 416.566 218.614 416.801 218.961Z" fill="#263238"/>
<path d="M424.895 207.554C426.604 207.554 428.312 207.554 430.021 207.554C430.426 207.554 430.771 207.209 430.771 206.804C430.771 206.397 430.428 206.054 430.021 206.054C428.312 206.054 426.603 206.054 424.895 206.054C424.49 206.054 424.145 206.399 424.145 206.804C424.145 207.211 424.488 207.554 424.895 207.554Z" fill="#263238"/>
<path d="M408.381 256.177C408.778 254.743 409.462 253.251 409.019 251.831C408.502 250.173 406.506 249.302 404.8 249.626C403.094 249.95 401.696 251.203 400.704 252.629C399.052 255.003 398.304 257.989 398.64 260.861L409.567 264.976C408.009 262.364 407.57 259.109 408.381 256.177Z" fill="#27DEBF"/>
<path d="M356.889 313.973C365.559 316.031 374.596 317.9 383.311 316.042C392.026 314.184 405.046 309.879 403.494 298.478C403.001 294.855 400.536 287.334 400.536 287.334C400.536 287.334 409.319 277.815 414.275 280.06C421.86 291.715 423.146 314.047 413.122 323.675C403.093 333.308 389.258 339.083 375.416 340.413C366.67 341.254 357.825 340.532 349.185 338.937" fill="#27DEBF"/>
<path opacity="0.3" d="M386.64 315.249C386.64 315.249 384.316 330.546 376.135 338.977L379.667 316.559C382.015 316.39 384.339 315.955 386.64 315.249Z" fill="black"/>
<path d="M399.115 195.753C398.562 195.753 398.115 195.305 398.115 194.753V194.254C398.115 193.702 398.562 193.254 399.115 193.254C399.668 193.254 400.115 193.702 400.115 194.254V194.753C400.115 195.305 399.668 195.753 399.115 195.753Z" fill="#263238"/>
<path d="M399.925 312.084C399.372 312.084 398.925 311.637 398.925 311.084L398.923 310.078L400.923 310.069L399.923 310.072H400.923L400.925 311.084C400.925 311.637 400.477 312.084 399.925 312.084ZM399.911 307.025C399.361 307.025 398.914 306.581 398.911 306.031L398.907 305.016C398.905 304.463 399.352 304.015 399.904 304.013H399.907C400.458 304.013 400.905 304.458 400.907 305.01L400.911 306.019C400.914 306.572 400.469 307.022 399.917 307.025C399.915 307.025 399.913 307.025 399.911 307.025ZM399.891 301.967C399.34 301.967 398.893 301.522 398.891 300.97L398.886 299.967L400.886 299.949L399.886 299.955H400.886L400.891 300.964C400.893 301.517 400.446 301.965 399.894 301.967H399.891ZM399.863 296.908C399.313 296.908 398.866 296.464 398.863 295.914L398.857 294.902C398.854 294.349 399.299 293.899 399.851 293.896C399.853 293.896 399.855 293.896 399.857 293.896C400.407 293.896 400.854 294.34 400.857 294.89L400.863 295.902C400.866 296.455 400.421 296.905 399.869 296.908C399.867 296.908 399.865 296.908 399.863 296.908ZM399.832 291.849C399.283 291.849 398.837 291.407 398.832 290.858L398.825 289.844C398.822 289.291 399.267 288.841 399.819 288.838C399.821 288.838 399.823 288.838 399.825 288.838C400.375 288.838 400.822 289.282 400.825 289.832L400.832 290.84C400.837 291.393 400.393 291.844 399.841 291.849C399.838 291.849 399.835 291.849 399.832 291.849ZM399.796 286.792C399.246 286.792 398.799 286.348 398.796 285.798L398.788 284.798L400.788 284.772L399.788 284.781H400.788L400.796 285.787C400.799 286.34 400.354 286.79 399.802 286.793C399.8 286.792 399.798 286.792 399.796 286.792ZM399.757 281.733C399.208 281.733 398.762 281.291 398.757 280.742L398.748 279.73C398.743 279.177 399.187 278.726 399.739 278.721C400.29 278.719 400.744 279.16 400.748 279.712L400.757 280.724C400.762 281.277 400.318 281.728 399.766 281.733C399.763 281.733 399.76 281.733 399.757 281.733ZM399.713 276.675C399.164 276.675 398.718 276.233 398.713 275.684L398.704 274.672C398.699 274.119 399.143 273.668 399.695 273.663C400.29 273.662 400.699 274.102 400.704 274.654L400.713 275.666C400.718 276.219 400.273 276.67 399.722 276.675C399.719 276.675 399.716 276.675 399.713 276.675ZM399.668 271.616C399.119 271.616 398.673 271.174 398.668 270.625L398.659 269.614C398.654 269.061 399.098 268.61 399.65 268.605C399.653 268.605 399.656 268.605 399.659 268.605C400.208 268.605 400.654 269.047 400.659 269.596L400.668 270.607C400.673 271.16 400.229 271.611 399.677 271.616C399.674 271.616 399.671 271.616 399.668 271.616ZM399.622 266.552C399.075 266.552 398.629 266.112 398.622 265.564L398.612 264.546C398.607 263.993 399.051 263.542 399.603 263.537C399.606 263.537 399.609 263.537 399.612 263.537C400.161 263.537 400.607 263.979 400.612 264.528L400.622 265.54C400.628 266.093 400.186 266.545 399.634 266.552C399.63 266.552 399.626 266.552 399.622 266.552ZM399.575 261.484C399.028 261.484 398.582 261.044 398.575 260.496L398.565 259.479C398.56 258.926 399.005 258.475 399.556 258.47C400.105 258.489 400.56 258.909 400.565 259.461L400.575 260.472C400.581 261.025 400.138 261.477 399.587 261.484C399.583 261.484 399.579 261.484 399.575 261.484ZM399.526 256.423C398.979 256.423 398.533 255.982 398.526 255.435L398.516 254.429C398.511 253.876 398.955 253.42 399.507 253.415C400.105 253.432 400.511 253.851 400.516 254.402L400.526 255.411C400.532 255.964 400.09 256.416 399.538 256.423C399.534 256.423 399.53 256.423 399.526 256.423ZM399.478 251.363C398.931 251.363 398.485 250.924 398.478 250.375L398.468 249.361C398.463 248.809 398.907 248.357 399.459 248.352C399.462 248.352 399.465 248.352 399.468 248.352C400.017 248.352 400.463 248.794 400.468 249.343L400.478 250.351C400.484 250.903 400.042 251.356 399.49 251.362C399.486 251.363 399.482 251.363 399.478 251.363ZM399.431 246.31C398.884 246.31 398.438 245.87 398.431 245.322L398.421 244.309C398.416 243.757 398.86 243.305 399.412 243.3C399.922 243.316 400.416 243.739 400.421 244.291L400.431 245.298C400.437 245.85 399.995 246.303 399.443 246.31C399.438 246.31 399.434 246.31 399.431 246.31ZM399.384 241.258C398.835 241.258 398.389 240.816 398.384 240.267L398.375 239.259C398.37 238.707 398.814 238.255 399.366 238.25C399.922 238.258 400.371 238.689 400.375 239.241L400.384 240.249C400.389 240.801 399.944 241.253 399.393 241.258C399.39 241.258 399.387 241.258 399.384 241.258ZM399.339 236.211C398.79 236.211 398.344 235.769 398.339 235.22L398.33 234.213C398.325 233.661 398.769 233.209 399.321 233.204C399.922 233.2 400.325 233.643 400.33 234.195L400.339 235.202C400.344 235.754 399.9 236.206 399.348 236.211C399.345 236.211 399.342 236.211 399.339 236.211ZM399.295 231.158C398.745 231.158 398.298 230.714 398.295 230.164L398.287 229.156C398.282 228.604 398.726 228.152 399.278 228.147C399.281 228.147 399.284 228.147 399.287 228.147C399.836 228.147 400.282 228.589 400.287 229.138L400.295 230.152C400.298 230.704 399.853 231.154 399.301 231.158C399.299 231.158 399.297 231.158 399.295 231.158ZM399.256 226.1C398.706 226.1 398.259 225.656 398.256 225.106L398.248 224.097C398.243 223.545 398.687 223.093 399.239 223.088C399.242 223.088 399.245 223.088 399.248 223.088C399.797 223.088 400.243 223.53 400.248 224.079L400.256 225.094C400.259 225.646 399.814 226.097 399.262 226.1C399.26 226.1 399.258 226.1 399.256 226.1ZM399.218 221.041C398.669 221.041 398.223 220.599 398.218 220.05L398.211 219.039C398.208 218.487 398.653 218.035 399.205 218.032C399.207 218.032 399.209 218.032 399.211 218.032C399.761 218.032 400.208 218.474 400.211 219.025L400.218 220.033C400.223 220.585 399.779 221.037 399.227 221.042C399.224 221.041 399.221 221.041 399.218 221.041ZM399.184 215.983C398.634 215.983 398.187 215.539 398.184 214.989L398.178 213.977C398.175 213.425 398.62 212.975 399.172 212.971C399.174 212.971 399.176 212.971 399.178 212.971C399.728 212.971 400.175 213.415 400.178 213.965L400.184 214.977C400.187 215.529 399.742 215.98 399.19 215.983C399.188 215.983 399.187 215.983 399.184 215.983ZM399.157 210.924C398.606 210.924 398.159 210.478 398.157 209.927L398.152 208.919C398.149 208.367 398.594 207.917 399.146 207.913C399.148 207.913 399.15 207.913 399.152 207.913C399.702 207.913 400.149 208.357 400.152 208.907L400.157 209.921C400.159 210.473 399.712 210.922 399.16 210.924H399.157ZM399.136 205.866C398.585 205.866 398.138 205.42 398.136 204.869L398.133 203.857C398.131 203.305 398.577 202.856 399.13 202.854H399.133C399.684 202.854 400.131 203.3 400.133 203.851L400.136 204.863C400.138 205.415 399.692 205.865 399.139 205.866H399.136ZM399.121 200.808C398.568 200.808 398.121 200.36 398.121 199.808L398.119 198.799C398.117 198.247 398.563 197.798 399.116 197.796H399.119C399.67 197.796 400.117 198.242 400.119 198.793L400.121 199.808C400.121 200.36 399.674 200.808 399.121 200.808Z" fill="#263238"/>
<path d="M399.928 316.602C399.375 316.602 398.928 316.155 398.928 315.602V315.102C398.928 314.549 399.375 314.102 399.928 314.102C400.481 314.102 400.928 314.549 400.928 315.102V315.602C400.928 316.154 400.48 316.602 399.928 316.602Z" fill="#263238"/>
<path opacity="0.3" d="M401.307 290.597L403.088 296.249C403.088 296.249 409.454 294.464 411.804 291.575C413.943 288.945 414.064 283.644 413.865 283.298L401.307 290.597Z" fill="black"/>
<path d="M413.949 277.477C413.939 274.738 413.162 271.622 412.503 268.963C412.162 267.585 411.198 265.789 409.999 264.259C409.526 263.516 408.887 262.868 408.142 262.311C407.543 261.814 406.933 261.431 406.347 261.236L406.35 261.239C404.263 260.24 401.795 259.777 399.698 259.876C396.878 260.009 393.995 260.708 391.77 262.446C389.545 264.183 388.176 265.942 388.752 268.706C389.293 271.3 391.833 272.185 394.408 271.718C391.927 272.325 389.955 275.199 390.619 277.668C391.327 280.302 394.939 283.189 397.44 282.101C395.25 282.58 394.351 285.535 395.334 287.55C396.317 289.565 398.533 290.688 400.713 291.208C404.742 292.168 409.467 291.294 412.054 288.06C414.417 285.103 413.964 281.261 413.949 277.477Z" fill="#27DEBF"/>
<path d="M396.265 283.828C399.354 281.426 403.566 280.698 407.298 281.808C408.225 282.084 408.621 280.636 407.697 280.362C403.408 279.087 398.722 280.032 395.204 282.768C394.443 283.359 395.512 284.414 396.265 283.828Z" fill="black"/>
<path d="M393.536 272.741C396.62 271.031 400.151 270.344 403.653 270.721C404.059 270.765 404.399 270.345 404.403 269.971C404.408 269.53 404.054 269.264 403.653 269.221C399.898 268.816 396.078 269.616 392.778 271.446C391.934 271.914 392.69 273.21 393.536 272.741Z" fill="black"/>
<path d="M395.668 261.27C400.061 259.98 404.849 260.884 408.502 263.634C409.273 264.215 410.022 262.913 409.259 262.339C405.309 259.365 400.007 258.433 395.269 259.824C394.345 260.095 394.738 261.543 395.668 261.27Z" fill="black"/>
<path d="M409.346 192.342L409.364 192.343C409.337 192.321 409.312 192.297 409.286 192.275C408.822 191.757 408.321 191.274 407.778 190.839C405.267 188.112 403.986 184.683 405.363 181.575C401.586 181.465 397.803 181.6 394.044 181.978C395.378 184.389 394.502 188.098 392.498 190.526C389.384 192.815 387.354 196.493 387.354 200.654C387.354 207.599 392.984 213.229 399.928 213.229C406.873 213.229 412.503 207.599 412.503 200.654C412.502 197.463 411.304 194.559 409.346 192.342Z" fill="#27DEBF"/>
<g opacity="0.7">
<path d="M409.346 192.342L409.364 192.343C409.337 192.321 409.312 192.297 409.286 192.275C408.822 191.757 408.321 191.274 407.778 190.839C405.267 188.112 403.986 184.683 405.363 181.575C401.586 181.465 397.803 181.6 394.044 181.978C395.378 184.389 394.502 188.098 392.498 190.526C389.384 192.815 387.354 196.493 387.354 200.654C387.354 207.599 392.984 213.229 399.928 213.229C406.873 213.229 412.503 207.599 412.503 200.654C412.502 197.463 411.304 194.559 409.346 192.342Z" fill="white"/>
</g>
<path d="M396.445 186.197C397.426 188.841 397.973 191.623 398.017 194.445C398.027 195.101 398.02 195.76 397.969 196.414C397.942 196.76 397.926 197.167 397.739 197.472C397.407 198.014 396.805 197.946 396.624 197.366C396.288 196.287 396.815 194.804 397.16 193.778C397.565 192.577 398.146 191.185 399.255 190.464C400.5 189.655 401.652 190.466 402.387 191.519C403.118 192.565 404.122 194.201 403.545 195.507C403.227 196.226 402.506 196.339 402.135 195.609C401.855 195.06 401.843 194.387 401.804 193.787C401.586 190.492 401.965 187.195 402.888 184.026C403.023 183.562 402.3 183.363 402.165 183.827C401.577 185.845 401.2 187.918 401.057 190.016C400.99 191.002 400.975 191.992 401.012 192.979C401.044 193.83 401.037 194.755 401.315 195.569C401.696 196.685 402.901 197.426 403.856 196.404C405.02 195.158 404.269 193.233 403.552 191.97C402.875 190.778 401.894 189.394 400.378 189.364C398.868 189.333 397.751 190.676 397.126 191.904C396.386 193.359 395.697 195.304 395.803 196.96C395.877 198.112 396.934 199.288 398.056 198.263C398.706 197.669 398.712 196.703 398.747 195.889C398.796 194.752 398.766 193.611 398.658 192.477C398.446 190.258 397.943 188.086 397.168 185.997C397.002 185.549 396.277 185.743 396.445 186.197Z" fill="black"/>
<path opacity="0.3" d="M400.125 205.307C404.934 205.461 409.066 204.129 412.37 202.394C412.449 201.824 412.504 201.246 412.504 200.654C412.504 197.463 411.306 194.559 409.348 192.342L409.366 192.343C409.339 192.321 409.314 192.297 409.288 192.275C408.824 191.757 408.323 191.274 407.78 190.839C406.149 189.067 405.053 187 404.851 184.916C401.548 185.14 398.002 185.371 394.61 185.573C394.407 187.321 393.648 189.133 392.499 190.525C389.467 192.753 387.479 196.303 387.375 200.328C389.8 202.717 393.782 205.104 400.125 205.307Z" fill="black"/>
<path d="M110.537 277.684C97.1007 274.932 82.4297 279.147 72.5027 288.612C62.5767 298.077 57.6677 312.531 59.7777 326.083L84.8577 323.811C84.8577 323.811 76.7537 292.238 108.744 289.482L110.537 277.684Z" fill="#27DEBF"/>
<path d="M399.929 139.492C409.807 139.492 417.815 131.484 417.815 121.606C417.815 111.728 409.807 103.72 399.929 103.72C390.051 103.72 382.043 111.728 382.043 121.606C382.043 131.484 390.051 139.492 399.929 139.492Z" fill="#263238"/>
<path d="M340.672 399.939C393.883 346.728 393.883 260.456 340.671 207.245C287.46 154.034 201.188 154.033 147.977 207.244C94.7667 260.455 94.767 346.727 147.978 399.938C201.189 453.149 287.461 453.15 340.672 399.939Z" fill="#27DEBF"/>
<path opacity="0.3" d="M340.711 399.938C393.922 346.728 393.922 260.456 340.711 207.245C287.5 154.034 201.228 154.034 148.018 207.245C94.8067 260.456 94.8068 346.728 148.018 399.938C201.228 453.149 287.5 453.149 340.711 399.938Z" fill="white"/>
<path opacity="0.3" d="M146.134 398.047C158.261 410.77 172.819 420.929 188.945 427.922C207.687 436.412 228.132 440.471 248.695 439.785C246.791 438.734 244.792 437.866 242.724 437.192C241.527 436.783 241.594 435.27 240.386 434.843C237.792 434.169 234.003 433.837 231.396 433.274C229.374 432.847 227.118 433.254 225.332 432.921C220.592 432.049 217.143 431.593 217.143 431.593L214.777 429.92L213.881 427.098L211.13 425.146L207.608 424.85L205.021 423.022L203.796 420.652L200.589 418.012L197.496 418.381L194.882 417.409L190.748 417.964L189.393 419.42L185.213 419.963L183.682 418.393L179.795 416.553L173.165 407.65L169.312 407.497L162.858 402.434L161.18 401.998L158.652 400.006L151.023 398.025L148.593 398.729L146.134 398.047Z" fill="white"/>
<path opacity="0.3" d="M119.378 357.211L125.027 364.247L126.482 368.24L128.918 372.032L132.847 372.58L134.135 375.96L136.642 377.848L142.558 373.879L141.158 369.672L141.882 363.118L140.66 360.863L140.747 357.205L138.592 353.274L135.73 351.749L134.644 349.659L130.837 348.263L131.263 343.488L132.82 341.629L132.379 340.944L133.086 340.102L134.505 339.656L136.823 337L137.008 324.997L138.629 322.014L137.95 320.112L140.822 314.881L143.39 313.333L144.96 310.484L148.866 308.99L150.844 306.328L156.343 306.225L157.711 304.528L162.751 304.436L165.474 306.055L169.925 305.973L177.85 299.66L180.138 295.613L178.587 292.491L182.41 288.744L183.74 289.268L185.131 286.795L194.468 289.219L196.899 288.01L198.383 285.871L200.257 284.925L202.683 285.115L205.64 283.635L207.621 276.006L206.788 272.94L209.338 262.804L211.656 260.149L213.137 254.443L218.016 250.075L218.838 250.988L224.057 246.317L222.32 241.339L224.682 233.809L219.723 230.893L218.754 229.355L217.152 229.818L215.458 226.935L215.664 224.383L214.842 223.095L215.252 218.316L211.303 217.405L208.635 213.129L202.937 212.806L202.763 214.666L194.822 215.454L192.214 212.204L188.041 211.968L187.086 209.375L183.455 209.247L181.858 211.634L177.766 211.402L174.591 207.321L171.354 211.008L166.745 210.756L166.03 209.121L163.301 209.031L161.304 210.451L158.09 210.284L162.298 206.621L161.836 203.945L165.498 204.895L167.152 201.66L165.854 197.251L168.935 194.794L171.62 193.862L173.683 196.14L180.606 193.752L181.505 190.288L184.677 187.854L189.46 188.249L189.789 184.035L196.869 183.235L198.516 186.301L201.156 186.986L202.388 182.99L204.481 182.768L205.903 180.238L201.147 178.547L205.718 177.437L204.781 175.337L205.773 172.142C183.828 179.701 164.87 189.746 150.897 203.984C130.524 223.461 116.586 248.696 110.949 276.312C105.04 303.85 108.318 330.872 119.378 357.211Z" fill="white"/>
<path opacity="0.3" d="M278.175 423.467L271.1 415.214L271.071 412.503L269.381 411.608L270.987 401.846L268.704 398.533L267.838 392.461L269.224 387.121L266.675 384.017L273.019 372.505L276.97 368.515L280.113 368.956L282.174 366.853L282.399 363.036L288.789 356.552L293.392 338.823L292.181 334.518L295.537 322.719L293.499 321.034L290.295 321.831L281.271 314.374L282.008 311.536L277.276 307.62L278.555 299.809L281.925 294.919L280.214 289.589L282.093 277.96L293.09 268.845L297.903 271.006L300.397 266.67L299.687 263.131L302.119 263.551L307.489 261.248L308.907 258.359L311.332 257.36L316.305 257.527L317.458 259.357L315.978 261.041L317.561 263.537L325.75 262.732L342.011 272.8L344.259 260.502L339.474 252.208L342.582 250.963L345.376 251.933L347.118 246.164L337.721 243.154L335.911 238.645L331.176 237.123L329.578 232.865L325.27 230.639L325.573 223.764L321.707 222.972L321.119 220.344L313.3 218.722L310.919 220.742L306.546 219.834L305.756 224.319L300.98 222.265L298.768 218.238L294.131 217.278L291.657 210.561L287.706 209.03L285.828 205.285L288.71 202.776L288.038 200.973L290.956 200.525L292.051 198.187L298.257 199.375L301.396 198.887L304.442 200.329L309.126 199.916L308.177 197.862L309.621 197.634L299.879 193.818L300.176 190.98L297.6 189.171L300.025 186.543L295.745 184.21L290.051 187.324L285.066 184.694L279.32 185.499L276.709 188.404L274.365 188.024L270.996 191.025L271.591 194.127L269.11 197.033L264.557 196.503L262.455 193.433L259.558 195.058L257.662 189.061L258.409 187.626L255.941 184.021L256.035 178.329L252.013 178.262L257.509 173.842L248.077 172.533L247.179 171.225L245.301 172.187L243.042 169.158L245.364 168.556L244.515 167.31C273.569 167.687 300.718 176.152 322.641 192.576C338.818 203.533 352.275 218.045 361.982 235.002L359.604 241.713L364.182 245.784L365.319 254.89L361.499 256.178L360.301 251.633L357.696 258.969L352.945 260.52L356.823 267.537L353.056 271.445L350.508 270.783L347.738 273.11L347.061 281.614L358.022 294.72L358.439 299.828L361.299 304.43L361.609 311.578L357.825 314.358L355.796 315.9L355.675 318.751L366.752 319.428L368.899 321.321L375.254 336.863L374.221 345.047L362.354 359.392L355.776 359.639L352.645 363.044L353.608 365.607L339.38 381.082L335.934 381.246L331.625 385.925L317.379 390.174L316.936 395.206L309.895 401.374L300.427 399.013L294.836 401.731L296.938 406.869L296.01 413.957L290.705 422.661L288.654 422.78L287.147 422.877L285.89 424.961L282.577 425.176L278.175 423.467Z" fill="white"/>
<path opacity="0.3" d="M148.538 370.465L148.522 369.272L146.444 367.43L146.361 363.043L148.356 361.444L148.309 358.989L149.907 358.606L150.157 356.83L153.961 357.606L149.056 351.659L146.44 352.576L144.012 350.952L144.554 348.862L142.403 347.489L145.747 344.269L146.388 341.798L150.361 339.669L148.759 336.306L150.232 335.336L150.169 333.008L154.929 334.243L156.062 336.215L160.773 341.656L161.283 345.273L162.653 347.649L162.714 349.423L164.248 350.978L164.382 355.67L162.919 356.349L162.947 357.496L161.5 359.808L158.992 368.277L156.12 368.427L154.839 370.472L148.538 370.465Z" fill="white"/>
<path opacity="0.3" d="M206.538 189.589L207.987 187.897L210.783 181.327L212.62 182.471L213.37 181.591L211.294 178.609L212.851 176.375L212.715 174.956L215.473 173.489L220.813 174.876L222.698 174.893L223.793 175.943L228.531 174.942L228.594 176.896L230.73 177.45L228.755 181.921L226.874 184.022L227.614 186.315L220.305 191.388L219.003 192.825L213.168 192.532L212.346 194.631L209.805 195.323L206.538 189.589Z" fill="white"/>
<path opacity="0.3" d="M273.722 201.737L276.147 199.924L280.419 201.033L279.33 205.229L275.189 208.633L272.633 205.933L273.722 201.737Z" fill="white"/>
<path opacity="0.3" d="M308.702 227.528L309.914 226.556L310.535 225.17L312.237 223.82L313.507 223.694L314.867 222.598L315.591 224.202L317.891 225.125L318.253 230.007L322.707 229.975L322.949 233.62L321.578 234.323L321.23 235.666L317.446 234.683L315.336 235.846L316.122 236.962L315.272 237.474L315.687 238.07L313.225 239.336L312.9 238.894L312.047 239.421L310.207 238.667L308.401 239.664L307.549 238.742L306.249 239.105L305.44 236.452L301.9 235.533L301.281 234.656L299.404 234.169L296.546 230.186L296.807 228.43L295.802 227.029L297.298 225.658L299.349 225.914L300.961 226.919L302.186 226.781L303.976 227.538L304.957 229.405L305.894 228.932L307.03 229.324L308.702 227.528Z" fill="white"/>
<path opacity="0.3" d="M361.218 274.156L367.751 272.578L372.885 275.133L375.909 281.113L375.133 283.664L376.135 285.764L375.022 290.052L373.266 289.726L371.682 291.937L365.961 290.451L367.446 284.73L362.984 282.659L362.962 277.1L361.218 274.156Z" fill="white"/>
<path opacity="0.3" d="M288.736 218.68L292.36 222.471L290.677 228.956L285.468 231.267L284.87 230.184L283.266 229.963L281.954 224.916L281.123 223.414L282.226 222.739L282.864 221.097L286.225 219.005L287.959 219.163L288.736 218.68Z" fill="white"/>
<path opacity="0.3" d="M189.258 192.855L196.393 191.841L199.112 193.98L199.895 202.13L198.137 202.065L195.04 203.769L190.786 203.593L189.464 201.719L186.98 201.628L181.952 197.472L184.977 193.16L187.485 193.974L189.258 192.855Z" fill="white"/>
<path opacity="0.3" d="M241.644 174.681L246.588 177.593L248.524 184.252L243.151 186.88L236.087 185.046L238.067 177.417L241.644 174.681Z" fill="white"/>
<path d="M275.371 266.045C274.484 259.669 278.467 253.252 284.033 250.347C290.018 247.224 297.038 249.254 301.467 254.059C303.973 256.778 305.506 260.311 305.536 264.023C305.551 265.953 308.551 265.957 308.536 264.023C308.474 256.149 302.792 249.069 295.4 246.644C287.692 244.115 279.631 247.799 275.305 254.397C272.88 258.096 271.87 262.468 272.479 266.843C272.743 268.746 275.634 267.936 275.371 266.045Z" fill="#263238"/>
<path d="M253.869 267.686C254.756 274.062 250.773 280.479 245.207 283.383C239.222 286.506 232.202 284.476 227.773 279.671C225.267 276.952 223.734 273.419 223.704 269.707C223.689 267.777 220.689 267.773 220.704 269.707C220.766 277.581 226.448 284.661 233.84 287.086C241.548 289.615 249.609 285.931 253.935 279.333C256.36 275.634 257.37 271.262 256.761 266.887C256.497 264.984 253.606 265.795 253.869 267.686Z" fill="#263238"/>
<path d="M202.879 254.927C202.879 265.392 197.002 273.876 189.753 273.876C182.504 273.876 176.627 265.392 176.627 254.927C176.627 244.462 182.504 235.978 189.753 235.978C197.002 235.978 202.879 244.462 202.879 254.927Z" fill="#263238"/>
<path d="M382.209 120.197C379.051 121.521 331.683 185.892 331.683 185.892H468.176L418.525 120.197H382.209Z" fill="#27DEBF"/>
<path d="M399.354 105.851C399.354 88.3161 399.354 70.7811 399.354 53.2461C399.354 49.2311 399.354 45.2161 399.354 41.2001C399.354 40.2351 397.854 40.2331 397.854 41.2001C397.854 58.7351 397.854 76.2701 397.854 93.8051C397.854 97.8201 397.854 101.835 397.854 105.851C397.854 106.816 399.354 106.817 399.354 105.851Z" fill="#263238"/>
<g opacity="0.3">
<path d="M215.182 350.744C205.197 345.061 191.66 346.48 183.07 354.109C179.898 343.905 166.096 338.776 157.031 344.433C159.01 332.315 156.384 319.167 148.492 309.761C140.6 300.355 127.141 295.437 115.42 299.096C103.7 302.756 95.1887 315.692 97.8987 327.667C90.9857 323.862 82.0587 324.02 75.2847 328.069C68.5107 332.118 64.1437 339.905 64.2207 347.796C64.2207 347.796 115.564 349.064 130.652 379.241L228.688 380.071C230.861 368.79 225.167 356.427 215.182 350.744Z" fill="black"/>
</g>
<path d="M199.229 367.177C201.129 356.512 196.149 344.825 187.414 339.453C178.679 334.081 166.837 335.422 159.323 342.634C156.548 332.988 144.475 328.14 136.544 333.487C138.275 322.032 135.978 309.603 129.074 300.711C122.17 291.819 110.396 287.17 100.143 290.629C89.8895 294.088 82.4445 306.317 84.8155 317.638C78.7675 314.041 70.9585 314.191 65.0325 318.018C59.1065 321.845 55.2865 329.207 55.3545 336.666C55.3545 336.666 24.0865 331.145 22.7275 367.176" fill="#27DEBF"/>
<g opacity="0.8">
<path d="M187.414 339.453C178.679 334.081 166.837 335.422 159.323 342.634C156.548 332.988 144.475 328.14 136.544 333.487C138.275 322.032 135.978 309.603 129.074 300.711C122.17 291.819 110.396 287.17 100.143 290.629C89.8895 294.088 82.4445 306.317 84.8155 317.638C78.7675 314.041 70.9585 314.191 65.0325 318.018C59.1075 321.845 55.2865 329.207 55.3545 336.666C55.3545 336.666 24.0865 331.145 22.7275 367.176H199.228C201.129 356.512 196.149 344.825 187.414 339.453Z" fill="white"/>
</g>
<path opacity="0.3" d="M126.827 359.581C124.309 350.452 108.05 350.452 108.05 350.452C108.05 350.452 97.5509 339.749 89.9219 325.111C82.2929 310.473 88.3019 299.024 89.0649 297.883C89.0649 297.883 80.4609 306.419 83.3899 318.069C83.6969 319.29 72.3669 335.972 73.3119 338.981C74.2559 341.99 97.1509 370.857 97.1509 370.857L123.404 370.473C123.404 370.473 129.346 368.71 126.827 359.581Z" fill="black"/>
<path d="M121.966 360.259C120.744 358.636 118.968 357.512 117.117 356.674C110.673 353.755 102.849 354.091 96.6789 357.553L88.0349 361.698C85.5619 364.04 87.2179 372.005 87.2519 375.41C87.2859 378.816 88.7929 382.182 91.3129 384.474C93.0779 386.081 95.4239 387.182 97.8029 386.994C100.183 386.806 102.5 385.108 102.958 382.765C104.669 384.518 107.554 384.985 109.731 383.863C111.908 382.741 113.2 380.119 112.765 377.709C114.854 377.851 116.982 376.797 118.136 375.051C119.29 373.305 119.425 370.933 118.476 369.068C120.478 369.415 122.516 367.93 123.15 366C123.782 364.069 123.188 361.882 121.966 360.259Z" fill="#27DEBF"/>
<path d="M82.7953 312.569C73.0223 310.815 65.2353 314.074 59.4893 322.483C61.2203 341.279 70.7353 354.698 84.5673 364.941C86.1693 366.127 88.0463 367.07 90.0373 367.168C93.4753 367.337 96.3803 364.728 98.6033 362.101C100.827 359.474 103.02 356.494 106.295 355.436C93.1013 344.746 84.9593 329.413 82.7953 312.569Z" fill="#27DEBF"/>
<g opacity="0.1">
<path d="M451.44 163.771C446.214 169.611 436.523 174.706 427.91 177.519C419.296 180.332 409.186 181.662 400.125 181.538C388.439 181.377 373.969 179.831 367.829 177.519C359.862 174.519 352.713 171.512 347.031 165.172L331.682 185.892H468.175L451.44 163.771Z" fill="black"/>
</g>
<path d="M103.077 382.227C100.027 380.97 97.4246 378.695 95.7206 375.878C95.2216 375.053 93.9246 375.806 94.4256 376.635C96.3466 379.812 99.2516 382.261 102.678 383.674C103.053 383.828 103.503 383.507 103.601 383.15C103.719 382.719 103.453 382.382 103.077 382.227Z" fill="black"/>
<path d="M112.948 376.711C109.898 375.454 107.296 373.179 105.592 370.362C105.093 369.537 103.795 370.29 104.297 371.119C106.218 374.296 109.123 376.745 112.549 378.158C112.924 378.313 113.374 377.991 113.472 377.634C113.59 377.203 113.324 376.866 112.948 376.711Z" fill="black"/>
<path d="M118.55 367.667C115.5 366.41 112.898 364.135 111.194 361.318C110.695 360.493 109.397 361.246 109.899 362.075C111.82 365.252 114.725 367.701 118.151 369.114C118.526 369.269 118.976 368.947 119.074 368.59C119.192 368.159 118.926 367.822 118.55 367.667Z" fill="black"/>
<path opacity="0.3" d="M107.405 277.171L105.308 285.578C105.308 285.578 98.4584 289.634 97.1514 291.927C97.1514 291.927 102.154 289.471 108.744 289.482L110.536 277.684C110.536 277.684 108.01 277.242 107.405 277.171Z" fill="black"/>
<path d="M135.641 404.113C147.17 417.161 161.192 427.999 176.735 435.852C181.15 438.082 185.686 440.066 190.312 441.816C191.668 442.329 192.254 440.155 190.91 439.646C174.892 433.586 160.053 424.454 147.416 412.895C143.837 409.622 140.442 406.155 137.231 402.521C136.271 401.435 134.685 403.031 135.641 404.113Z" fill="#27DEBF"/>
<path d="M124.167 390.454C125.735 392.61 127.303 394.766 128.871 396.922C129.216 397.397 129.864 397.677 130.41 397.326C130.88 397.023 131.184 396.296 130.814 395.787C129.246 393.631 127.678 391.475 126.11 389.319C125.765 388.844 125.117 388.563 124.571 388.915C124.1 389.219 123.796 389.945 124.167 390.454Z" fill="#27DEBF"/>
<path d="M402.003 151.667C403.049 146.236 400.308 140.284 395.501 137.548C390.694 134.812 384.177 135.495 380.042 139.168C378.515 134.256 371.871 131.787 367.506 134.51C368.459 128.676 367.194 122.347 363.395 117.818C359.596 113.29 353.116 110.922 347.474 112.684C341.832 114.446 337.734 120.673 339.039 126.439C335.711 124.607 331.413 124.683 328.152 126.632C324.891 128.581 322.788 132.33 322.826 136.129C322.826 136.129 305.618 133.318 304.871 151.667" fill="#27DEBF"/>
<g opacity="0.7">
<path d="M395.501 137.549C390.694 134.813 384.177 135.496 380.042 139.169C378.515 134.257 371.871 131.787 367.506 134.511C368.459 128.677 367.194 122.348 363.395 117.819C359.596 113.291 353.116 110.923 347.474 112.685C341.832 114.447 337.734 120.675 339.039 126.44C335.711 124.608 331.413 124.684 328.152 126.633C324.891 128.582 322.788 132.331 322.826 136.13C322.826 136.13 305.618 133.319 304.871 151.668H402.004C403.049 146.236 400.308 140.284 395.501 137.549Z" fill="white"/>
</g>
<path d="M165.259 104.52C166.335 98.9308 163.515 92.8058 158.568 89.9908C153.621 87.1758 146.915 87.8788 142.66 91.6578C141.089 86.6028 134.251 84.0618 129.76 86.8638C130.741 80.8608 129.439 74.3468 125.53 69.6868C121.62 65.0268 114.953 62.5908 109.146 64.4038C103.34 66.2168 99.1227 72.6248 100.466 78.5578C97.0407 76.6728 92.6187 76.7508 89.2627 78.7568C85.9067 80.7628 83.7437 84.6208 83.7817 88.5298C83.7817 88.5298 66.0737 85.6368 65.3047 104.519" fill="#27DEBF"/>
<g opacity="0.8">
<path d="M158.568 89.9908C153.621 87.1758 146.915 87.8788 142.66 91.6578C141.089 86.6028 134.251 84.0618 129.76 86.8638C130.74 80.8608 129.439 74.3468 125.53 69.6868C121.62 65.0268 114.952 62.5908 109.146 64.4038C103.34 66.2168 99.1227 72.6258 100.466 78.5578C97.0407 76.6728 92.6187 76.7508 89.2627 78.7568C85.9067 80.7628 83.7437 84.6208 83.7817 88.5298C83.7817 88.5298 66.0737 85.6368 65.3047 104.519H165.26C166.335 98.9308 163.514 92.8058 158.568 89.9908Z" fill="white"/>
</g>
<path d="M404.291 339.631C403.525 335.653 405.533 331.294 409.054 329.29C412.575 327.286 417.348 327.786 420.377 330.477C421.495 326.879 426.362 325.071 429.559 327.065C428.861 322.792 429.787 318.156 432.57 314.839C435.353 311.522 440.099 309.788 444.232 311.079C448.365 312.369 451.366 316.931 450.41 321.153C452.848 319.811 455.996 319.867 458.384 321.295C460.772 322.723 462.313 325.469 462.285 328.251C462.285 328.251 474.889 326.192 475.436 339.632" fill="#27DEBF"/>
<g opacity="0.7">
<path d="M462.285 328.25C462.312 325.467 460.772 322.721 458.384 321.294C455.996 319.866 452.848 319.811 450.41 321.152C451.366 316.929 448.364 312.368 444.232 311.077C440.099 309.787 435.353 311.521 432.571 314.838C429.788 318.155 428.862 322.791 429.56 327.064C426.363 325.069 421.497 326.878 420.378 330.476C417.349 327.786 412.576 327.286 409.055 329.289C405.534 331.293 403.526 335.652 404.292 339.63H475.437C474.888 326.191 462.285 328.25 462.285 328.25Z" fill="white"/>
</g>
<path d="M32.1637 255.69C31.3857 251.648 33.4257 247.218 37.0027 245.182C40.5807 243.146 45.4307 243.654 48.5087 246.388C49.6447 242.732 54.5907 240.894 57.8387 242.921C57.1297 238.579 58.0707 233.868 60.8987 230.498C63.7267 227.128 68.5487 225.366 72.7477 226.677C76.9467 227.988 79.9967 232.623 79.0257 236.914C81.5027 235.55 84.7017 235.607 87.1287 237.058C89.5557 238.509 91.1207 241.299 91.0927 244.126C91.0927 244.126 103.9 242.034 104.456 255.69" fill="#27DEBF"/>
<g opacity="0.7">
<path d="M91.0921 244.126C91.1201 241.299 89.555 238.508 87.128 237.058C84.701 235.607 81.5021 235.551 79.0251 236.914C79.9961 232.623 76.9471 227.988 72.7471 226.677C68.5481 225.366 63.725 227.128 60.898 230.498C58.07 233.868 57.1291 238.579 57.8381 242.921C54.5901 240.894 49.645 242.732 48.508 246.388C45.43 243.654 40.58 243.146 37.002 245.182C33.424 247.218 31.384 251.648 32.163 255.69H104.454C103.899 242.033 91.0921 244.126 91.0921 244.126Z" fill="white"/>
</g>
<g opacity="0.3">
<path d="M377.317 361.094C379.091 353.256 370.094 340.839 362.423 338.443C354.752 336.048 345.943 339.267 340.778 345.423C335.613 351.579 333.894 360.185 335.189 368.116C329.255 364.414 320.222 367.771 318.146 374.449C312.524 369.456 303.664 368.527 297.129 372.246C290.594 375.965 286.867 384.057 288.289 391.44H357.239C357.241 391.441 374.742 368.518 377.317 361.094Z" fill="black"/>
</g>
<path d="M296.426 396.306C295.004 388.922 298.731 380.831 305.266 377.112C311.801 373.393 320.661 374.321 326.283 379.315C328.359 372.637 337.392 369.28 343.326 372.982C342.031 365.051 343.75 356.446 348.915 350.289C354.08 344.133 362.889 340.914 370.56 343.309C378.231 345.704 383.801 354.171 382.027 362.009C386.552 359.518 392.394 359.622 396.828 362.272C401.261 364.922 404.12 370.019 404.069 375.183C404.069 375.183 427.463 371.361 428.479 396.307" fill="#27DEBF"/>
<g opacity="0.8">
<path d="M404.069 375.182C404.12 370.017 401.261 364.92 396.828 362.271C392.395 359.621 386.552 359.518 382.027 362.008C383.801 354.17 378.23 345.703 370.56 343.308C362.889 340.913 354.08 344.132 348.915 350.288C343.75 356.444 342.031 365.049 343.326 372.981C337.392 369.279 328.359 372.636 326.283 379.314C320.661 374.321 311.801 373.392 305.266 377.111C298.731 380.83 295.004 388.922 296.426 396.305H428.479C427.463 371.36 404.069 375.182 404.069 375.182Z" fill="white"/>
</g>
<path d="M218.838 458.118C217.873 453.108 220.402 447.619 224.835 445.095C229.269 442.572 235.28 443.202 239.094 446.589C240.502 442.058 246.631 439.78 250.657 442.292C249.778 436.911 250.944 431.073 254.449 426.896C257.953 422.719 263.93 420.535 269.135 422.16C274.339 423.785 278.119 429.529 276.915 434.847C279.985 433.157 283.949 433.228 286.957 435.025C289.965 436.823 291.904 440.281 291.87 443.785C291.87 443.785 307.742 441.192 308.432 458.117" fill="#27DEBF"/>
<g opacity="0.7">
<path d="M291.87 443.786C291.904 440.282 289.965 436.824 286.957 435.026C283.949 433.228 279.985 433.158 276.915 434.848C278.119 429.53 274.339 423.786 269.135 422.161C263.931 420.536 257.954 422.72 254.449 426.897C250.945 431.074 249.778 436.912 250.657 442.293C246.631 439.781 240.503 442.059 239.094 446.59C235.28 443.202 229.268 442.572 224.835 445.096C220.401 447.619 217.873 453.109 218.838 458.119H308.431C307.742 441.193 291.87 443.786 291.87 443.786Z" fill="white"/>
</g>
</svg>
