<svg width="651" height="580" viewBox="0 0 651 580" fill="none" xmlns="http://www.w3.org/2000/svg">
<path d="M566.022 527.683H193.068C188.723 527.683 185.179 524.139 185.179 519.794V253.786C185.179 249.441 188.723 245.897 193.068 245.897H566.022C570.367 245.897 573.911 249.441 573.911 253.786V519.78C573.911 524.139 570.367 527.669 566.022 527.669V527.683ZM193.068 246.713C189.173 246.713 185.995 249.877 185.995 253.786V519.78C185.995 523.675 189.159 526.853 193.068 526.853H566.022C569.917 526.853 573.095 523.675 573.095 519.78V253.786C573.095 249.891 569.931 246.713 566.022 246.713H193.068Z" fill="#FDFEFE"/>
<path d="M561.072 534.278H188.119C183.773 534.278 180.229 530.735 180.229 526.389V260.382C180.229 256.036 183.773 252.493 188.119 252.493H561.072C565.417 252.493 568.961 256.036 568.961 260.382V526.375C568.961 530.72 565.417 534.264 561.072 534.264V534.278ZM188.119 253.308C184.223 253.308 181.045 256.472 181.045 260.382V526.375C181.045 530.27 184.209 533.449 188.119 533.449H561.072C564.967 533.449 568.145 530.285 568.145 526.375V260.382C568.145 256.486 564.981 253.308 561.072 253.308H188.119Z" fill="#FDFEFE"/>
<path d="M556.122 540.874H183.183C178.837 540.874 175.293 537.33 175.293 532.984V266.977C175.293 262.632 178.837 259.088 183.183 259.088H556.136C560.481 259.088 564.025 262.632 564.025 266.977V532.97C564.025 537.316 560.481 540.86 556.136 540.86L556.122 540.874ZM183.183 259.904C179.287 259.904 176.109 263.068 176.109 266.977V532.97C176.109 536.866 179.273 540.044 183.183 540.044H556.136C560.031 540.044 563.209 536.88 563.209 532.97V266.977C563.209 263.082 560.045 259.904 556.136 259.904H183.183Z" fill="#FDFEFE"/>
<path d="M563.617 292.008H175.701V292.838H563.617V292.008Z" fill="#FDFEFE"/>
<path d="M535.169 280.21C537.801 280.21 539.936 278.076 539.936 275.443C539.936 272.81 537.801 270.676 535.169 270.676C532.536 270.676 530.401 272.81 530.401 275.443C530.401 278.076 532.536 280.21 535.169 280.21Z" fill="url(#paint0_linear_4020_392)"/>
<path d="M519.01 280.21C521.643 280.21 523.778 278.076 523.778 275.443C523.778 272.81 521.643 270.676 519.01 270.676C516.377 270.676 514.243 272.81 514.243 275.443C514.243 278.076 516.377 280.21 519.01 280.21Z" fill="url(#paint1_linear_4020_392)"/>
<path d="M502.853 280.21C505.485 280.21 507.62 278.076 507.62 275.443C507.62 272.81 505.485 270.676 502.853 270.676C500.22 270.676 498.085 272.81 498.085 275.443C498.085 278.076 500.22 280.21 502.853 280.21Z" fill="url(#paint2_linear_4020_392)"/>
<path d="M214.879 477.409C197.147 480.348 179.203 482.219 161.189 482.275C152.189 482.275 143.174 481.797 134.231 480.615C129.759 480.011 125.315 479.195 120.913 478.197C116.512 477.142 112.166 475.862 107.92 474.273C99.4539 471.095 91.3398 466.469 84.9273 459.887C81.7351 456.597 79.021 452.814 77.01 448.679C76.4757 447.653 76.1382 446.556 75.7022 445.487C75.3225 444.404 74.7741 443.364 74.535 442.239L73.7194 438.892C73.5928 438.329 73.41 437.781 73.3397 437.204L73.1428 435.489C71.9616 426.348 73.4381 417.095 76.2647 408.46C79.1054 399.798 83.2397 391.656 87.9507 383.921C90.257 380.012 92.8867 376.327 95.4601 372.601C98.1742 368.987 100.86 365.331 103.771 361.885C106.57 358.327 109.663 355.037 112.631 351.62L117.285 346.698C118.832 345.052 120.393 343.421 122.01 341.846C134.793 329.091 148.434 317.251 162.735 306.254C191.311 284.246 222.009 265.135 253.861 248.288C285.783 231.567 318.844 217.055 352.861 205.13C369.863 199.181 387.118 193.908 404.583 189.45C422.049 184.978 439.74 181.392 457.599 178.931C462.057 178.256 466.557 177.863 471.029 177.3C475.529 176.948 480.015 176.428 484.515 176.245C493.515 175.627 502.557 175.613 511.571 175.894C520.6 176.259 529.6 177.23 538.487 178.945C547.347 180.689 556.136 183.248 564.264 187.327C572.35 191.391 579.803 197.142 584.936 204.708C590.223 212.203 592.361 221.541 592.122 230.541C591.826 239.625 589.267 248.428 585.766 256.711C582.165 264.966 577.623 272.771 572.533 280.182C577.511 272.7 581.941 264.839 585.4 256.557C588.775 248.26 591.166 239.471 591.32 230.527C591.419 221.653 589.183 212.597 583.937 205.397C578.833 198.127 571.52 192.642 563.547 188.775C555.545 184.88 546.897 182.405 538.136 180.773C529.361 179.156 520.445 178.256 511.501 177.975C502.557 177.778 493.599 177.848 484.67 178.552C480.198 178.777 475.754 179.339 471.282 179.719C466.838 180.309 462.381 180.745 457.951 181.448C422.485 186.736 387.68 196.031 353.86 207.956C320.039 219.91 287.133 234.478 255.408 251.199C223.669 267.877 193.054 286.833 164.578 308.63C150.332 319.515 136.748 331.243 124.049 343.857C122.432 345.404 120.885 347.021 119.352 348.652L114.74 353.518C111.787 356.879 108.735 360.156 105.937 363.629C103.026 367.018 100.354 370.604 97.6398 374.148C95.0804 377.79 92.4507 381.418 90.1585 385.229C85.4616 392.795 81.3413 400.754 78.5147 409.164C75.6882 417.545 74.1975 426.461 75.2663 435.207L75.435 436.853C75.4913 437.401 75.6741 437.922 75.7725 438.456L76.5319 441.662C76.7428 442.745 77.2632 443.729 77.6147 444.756C78.0225 445.768 78.346 446.837 78.8382 447.808C80.7226 451.773 83.2819 455.401 86.3195 458.579C92.4226 464.964 100.284 469.52 108.566 472.755C112.715 474.386 116.976 475.708 121.307 476.819C125.652 477.873 130.04 478.745 134.47 479.42C143.329 480.728 152.301 481.347 161.273 481.473C179.231 481.684 197.189 480.081 214.95 477.409H214.879Z" fill="url(#paint3_linear_4020_392)"/>
<mask id="mask0_4020_392" style="mask-type:luminance" maskUnits="userSpaceOnUse" x="72" y="175" width="521" height="308">
<path d="M214.879 477.409C197.147 480.348 179.203 482.219 161.189 482.275C152.189 482.275 143.174 481.797 134.231 480.615C129.759 480.011 125.315 479.195 120.913 478.197C116.512 477.142 112.166 475.862 107.92 474.273C99.4539 471.095 91.3398 466.469 84.9273 459.887C81.7351 456.597 79.021 452.814 77.01 448.679C76.4757 447.653 76.1382 446.556 75.7022 445.487C75.3225 444.404 74.7741 443.364 74.535 442.239L73.7194 438.892C73.5928 438.329 73.41 437.781 73.3397 437.204L73.1428 435.489C71.9616 426.348 73.4381 417.095 76.2647 408.46C79.1054 399.798 83.2397 391.656 87.9507 383.921C90.257 380.012 92.8867 376.327 95.4601 372.601C98.1742 368.987 100.86 365.331 103.771 361.885C106.57 358.327 109.663 355.037 112.631 351.62L117.285 346.698C118.832 345.052 120.393 343.421 122.01 341.846C134.793 329.091 148.434 317.251 162.735 306.254C191.311 284.246 222.009 265.135 253.861 248.288C285.783 231.567 318.844 217.055 352.861 205.13C369.863 199.181 387.118 193.908 404.583 189.45C422.049 184.978 439.74 181.392 457.599 178.931C462.057 178.256 466.557 177.863 471.029 177.3C475.529 176.948 480.015 176.428 484.515 176.245C493.515 175.627 502.557 175.613 511.571 175.894C520.6 176.259 529.6 177.23 538.487 178.945C547.347 180.689 556.136 183.248 564.264 187.327C572.35 191.391 579.803 197.142 584.936 204.708C590.223 212.203 592.361 221.541 592.122 230.541C591.826 239.625 589.267 248.428 585.766 256.711C582.165 264.966 577.623 272.771 572.533 280.182C577.511 272.7 581.941 264.839 585.4 256.557C588.775 248.26 591.166 239.471 591.32 230.527C591.419 221.653 589.183 212.597 583.937 205.397C578.833 198.127 571.52 192.642 563.547 188.775C555.545 184.88 546.897 182.405 538.136 180.773C529.361 179.156 520.445 178.256 511.501 177.975C502.557 177.778 493.599 177.848 484.67 178.552C480.198 178.777 475.754 179.339 471.282 179.719C466.838 180.309 462.381 180.745 457.951 181.448C422.485 186.736 387.68 196.031 353.86 207.956C320.039 219.91 287.133 234.478 255.408 251.199C223.669 267.877 193.054 286.833 164.578 308.63C150.332 319.515 136.748 331.243 124.049 343.857C122.432 345.404 120.885 347.021 119.352 348.652L114.74 353.518C111.787 356.879 108.735 360.156 105.937 363.629C103.026 367.018 100.354 370.604 97.6398 374.148C95.0804 377.79 92.4507 381.418 90.1585 385.229C85.4616 392.795 81.3413 400.754 78.5147 409.164C75.6882 417.545 74.1975 426.461 75.2663 435.207L75.435 436.853C75.4913 437.401 75.6741 437.922 75.7725 438.456L76.5319 441.662C76.7428 442.745 77.2632 443.729 77.6147 444.756C78.0225 445.768 78.346 446.837 78.8382 447.808C80.7226 451.773 83.2819 455.401 86.3195 458.579C92.4226 464.964 100.284 469.52 108.566 472.755C112.715 474.386 116.976 475.708 121.307 476.819C125.652 477.873 130.04 478.745 134.47 479.42C143.329 480.728 152.301 481.347 161.273 481.473C179.231 481.684 197.189 480.081 214.95 477.409H214.879Z" fill="white"/>
</mask>
<g mask="url(#mask0_4020_392)">
<path d="M592.333 216.76L573.25 175.641H592.333V216.76Z" fill="url(#paint4_linear_4020_392)"/>
<path d="M592.333 305.832L369.765 409.15L285.67 227.981L398.424 175.641H573.25L592.333 216.76V305.832Z" fill="url(#paint5_linear_4020_392)"/>
<path d="M369.765 409.149L212.194 482.289H91.8463L71.9478 439.426V327.193L285.671 227.981L369.765 409.149Z" fill="url(#paint6_linear_4020_392)"/>
<path d="M71.9478 439.426L91.8463 482.289H71.9478V439.426Z" fill="url(#paint7_linear_4020_392)"/>
</g>
<path d="M195.445 468.479C196.303 470.378 197.695 471.939 199.34 473.092C200.957 474.287 202.87 475.033 204.81 475.455C206.765 475.919 208.79 476.017 210.801 476.003C211.814 475.933 212.826 475.905 213.825 475.806L216.848 475.384L217.242 476.973C215.456 477.55 213.656 478.295 211.912 479.083C210.168 479.87 208.481 480.784 206.878 481.811C205.289 482.851 203.784 484.061 202.673 485.566C201.52 487.042 200.915 488.955 201.253 490.909C200.549 489.053 200.985 486.859 202.026 485.144C203.081 483.4 204.599 482.022 206.16 480.812C207.735 479.589 209.479 478.605 211.237 477.705C213.009 476.819 214.823 476.073 216.735 475.412L217.129 477.001L213.993 477.423C212.939 477.508 211.87 477.536 210.815 477.592C208.692 477.494 206.54 477.381 204.487 476.706C202.434 476.101 200.451 475.145 198.82 473.739C197.245 472.304 195.923 470.519 195.431 468.479H195.445Z" fill="url(#paint8_linear_4020_392)"/>
<path d="M600.475 364.641V408.643C600.475 428.865 563.729 445.403 563.729 445.403C563.729 445.403 526.97 428.851 526.97 408.643V364.641C529.403 364.613 531.878 364.374 534.353 363.91C544.703 361.941 553.421 356.288 559.412 348.568C561.592 345.769 565.867 345.769 568.032 348.568C574.023 356.288 582.728 361.941 593.078 363.91C595.567 364.374 598.028 364.613 600.461 364.641H600.475Z" fill="url(#paint9_linear_4020_392)"/>
<path d="M564.714 441.043L564.629 441.001C564.264 440.832 527.743 424.168 527.743 404.059V359.846H527.94C530.401 359.818 532.876 359.565 535.295 359.115C545.209 357.23 554.054 351.816 560.228 343.843C561.296 342.451 562.928 341.663 564.7 341.663C566.471 341.663 568.103 342.465 569.171 343.843C575.345 351.802 584.19 357.23 594.09 359.115C596.523 359.565 598.984 359.818 601.445 359.846H601.642V404.059C601.642 424.168 565.136 440.846 564.77 441.001L564.686 441.043H564.714ZM528.165 360.254V404.059C528.165 423.437 562.745 439.679 564.714 440.593C566.682 439.679 601.262 423.437 601.262 404.059V360.254C598.858 360.212 596.425 359.973 594.034 359.523C584.036 357.624 575.092 352.14 568.862 344.11C567.864 342.83 566.345 342.085 564.714 342.085C563.068 342.085 561.564 342.816 560.565 344.11C554.335 352.154 545.392 357.624 535.379 359.523C533.003 359.973 530.584 360.212 528.165 360.254Z" fill="#FDFEFE"/>
<path d="M562.942 406.492L552.507 396.071L554.842 393.737L562.942 401.837L578.214 386.551L580.548 388.871L562.942 406.492Z" fill="#FDFEFE"/>
<g opacity="0.05">
<path d="M276.994 546.935C264.337 546.935 253.059 537.934 250.626 525.053L229.462 412.468C226.72 397.928 236.339 383.865 250.879 381.137L427.983 347.837C435.029 346.515 442.172 348.005 448.079 352.056C453.999 356.106 457.979 362.209 459.315 369.254L480.479 481.839C481.801 488.884 480.31 496.028 476.26 501.934C472.21 507.855 466.107 511.834 459.062 513.17L281.958 546.47C280.284 546.78 278.625 546.935 276.994 546.935ZM432.99 349.018C431.429 349.018 429.854 349.159 428.279 349.454L251.175 382.754C237.52 385.328 228.506 398.518 231.079 412.159L252.243 524.744C253.481 531.353 257.236 537.091 262.79 540.888C268.345 544.685 275.039 546.091 281.662 544.839L458.766 511.539C465.376 510.302 471.113 506.547 474.91 500.992C478.707 495.437 480.113 488.744 478.862 482.12L457.698 369.535C456.46 362.926 452.705 357.188 447.151 353.391C442.918 350.495 438.01 348.99 432.99 348.99V349.018Z" fill="url(#paint10_linear_4020_392)"/>
</g>
<g opacity="0.15">
<path d="M280.72 549.522C275.377 549.522 270.145 547.919 265.631 544.839C259.711 540.789 255.731 534.686 254.395 527.641L233.231 415.056C231.909 408.01 233.4 400.867 237.45 394.96C241.5 389.04 247.603 385.06 254.648 383.724L431.752 350.424C438.798 349.102 445.941 350.593 451.848 354.643C457.768 358.693 461.748 364.796 463.084 371.841L484.248 484.426C485.57 491.472 484.079 498.615 480.029 504.522C475.979 510.442 469.876 514.422 462.831 515.758L285.727 549.058C284.053 549.367 282.38 549.522 280.706 549.522H280.72ZM436.773 351.605C435.212 351.605 433.637 351.746 432.062 352.041L254.958 385.341C248.348 386.579 242.611 390.334 238.814 395.888C235.017 401.443 233.611 408.137 234.862 414.76L256.026 527.345C257.264 533.955 261.019 539.692 266.573 543.489C272.128 547.286 278.822 548.692 285.445 547.441L462.549 514.141C469.159 512.903 474.896 509.148 478.693 503.594C482.49 498.039 483.896 491.345 482.645 484.722L461.481 372.137C460.243 365.527 456.488 359.79 450.934 355.993C446.701 353.096 441.793 351.591 436.773 351.591V351.605Z" fill="url(#paint11_linear_4020_392)"/>
</g>
<g opacity="0.38">
<path d="M284.545 552.095C271.903 552.095 260.597 543.095 258.178 530.214L237.014 417.629C234.272 403.088 243.89 389.026 258.431 386.298L435.535 352.998C450.076 350.269 464.138 359.874 466.866 374.415L488.031 487C489.352 494.045 487.862 501.189 483.812 507.095C479.762 513.016 473.659 516.995 466.613 518.331L289.509 551.631C287.836 551.941 286.177 552.095 284.545 552.095ZM440.499 354.179C438.966 354.179 437.405 354.319 435.83 354.615L258.726 387.915C245.072 390.488 236.058 403.679 238.631 417.32L259.795 529.905C262.369 543.559 275.559 552.574 289.2 550L466.304 516.7C472.913 515.462 478.651 511.708 482.448 506.153C486.245 500.598 487.651 493.904 486.399 487.281L465.235 374.696C462.957 362.616 452.368 354.165 440.485 354.165L440.499 354.179Z" fill="url(#paint12_linear_4020_392)"/>
</g>
<g opacity="0.5">
<path d="M241.274 420.124L241.274 420.124L262.438 532.709C263.749 539.624 267.654 545.612 273.465 549.588C277.894 552.609 283.025 554.182 288.265 554.183C289.904 554.183 291.544 554.031 293.186 553.728L241.274 420.124ZM241.274 420.124C238.583 405.855 248.023 392.054 262.292 389.377L262.292 389.377L439.396 356.077C446.311 354.779 453.32 356.242 459.116 360.216L459.117 360.217C464.928 364.192 468.832 370.18 470.144 377.096L491.308 489.68L491.308 489.68C493.999 503.949 484.559 517.75 470.29 520.427L470.289 520.427L293.187 553.727L241.274 420.124ZM439.507 356.697L439.507 356.697C440.945 356.427 442.383 356.284 443.81 356.257V356.238H444.31C449.431 356.238 454.437 357.774 458.753 360.727C464.417 364.599 468.247 370.451 469.509 377.192L490.673 489.776L490.673 489.776M439.507 356.697L490.182 489.869L490.673 489.776M439.507 356.697L262.403 389.997L262.402 389.997M439.507 356.697L262.402 389.997M490.673 489.776C493.298 503.689 484.105 517.14 470.179 519.765L470.179 519.765L293.075 553.065L490.673 489.776ZM262.402 389.997C248.477 392.622 239.284 406.073 241.908 419.986M262.402 389.997L241.908 419.986M241.908 419.986L241.908 419.986M241.908 419.986L241.908 419.986M241.908 419.986L263.072 532.57C264.334 539.311 268.165 545.163 273.829 549.035C279.493 552.907 286.321 554.341 293.075 553.065L241.908 419.986Z" stroke="black"/>
</g>
<g opacity="0.62">
<path d="M292.097 557.256C279.441 557.256 268.162 548.256 265.73 535.375L244.565 422.79C243.244 415.745 244.734 408.601 248.784 402.695C252.834 396.774 258.937 392.795 265.983 391.459L443.087 358.159C450.132 356.837 457.276 358.327 463.182 362.377C469.102 366.427 473.082 372.53 474.418 379.576L495.582 492.161C496.904 499.206 495.414 506.35 491.364 512.256C487.314 518.176 481.21 522.156 474.165 523.492L297.061 556.792C295.388 557.102 293.728 557.256 292.097 557.256ZM448.093 359.34C446.532 359.34 444.957 359.48 443.382 359.776L266.278 393.076C252.623 395.649 243.609 408.84 246.183 422.481L267.347 535.066C268.584 541.675 272.339 547.413 277.894 551.209C283.448 555.006 290.142 556.413 296.766 555.161L473.87 521.861C480.479 520.623 486.217 516.869 490.014 511.314C493.81 505.759 495.217 499.065 493.965 492.442L472.801 379.857C471.563 373.248 467.809 367.51 462.254 363.713C458.021 360.816 453.113 359.312 448.093 359.312V359.34Z" fill="url(#paint13_linear_4020_392)"/>
</g>
<g opacity="0.75">
<path d="M295.866 559.83C283.223 559.83 271.917 550.83 269.498 537.948L248.334 425.364C247.012 418.318 248.503 411.174 252.553 405.268C256.603 399.348 262.706 395.368 269.751 394.032L446.855 360.732C453.901 359.41 461.044 360.901 466.951 364.951C472.871 369.001 476.851 375.104 478.187 382.149L499.365 494.734C502.093 509.275 492.488 523.337 477.948 526.066L300.844 559.366C299.17 559.675 297.511 559.83 295.88 559.83H295.866ZM451.862 361.913C450.301 361.913 448.726 362.054 447.151 362.349L270.047 395.649C263.437 396.887 257.7 400.642 253.903 406.196C250.106 411.751 248.7 418.445 249.951 425.068L271.115 537.653C273.689 551.308 286.865 560.322 300.52 557.749L477.624 524.448C491.279 521.875 500.293 508.684 497.72 495.044L476.541 382.459C475.304 375.849 471.549 370.112 465.994 366.315C461.762 363.418 456.854 361.913 451.833 361.913H451.862Z" fill="url(#paint14_linear_4020_392)"/>
</g>
<g opacity="0.88">
<path d="M299.634 562.403C286.978 562.403 275.7 553.403 273.267 540.522L252.103 427.937C249.36 413.396 258.979 399.334 273.52 396.606L450.624 363.305C465.165 360.577 479.227 370.182 481.955 384.723L503.119 497.308C505.862 511.848 496.243 525.911 481.702 528.639L304.598 561.939C302.925 562.249 301.265 562.403 299.634 562.403ZM455.588 364.501C454.055 364.501 452.494 364.641 450.919 364.937L273.815 398.237C260.161 400.81 251.146 414.001 253.72 427.642L274.884 540.227C276.122 546.836 279.876 552.574 285.431 556.37C290.986 560.167 297.679 561.574 304.303 560.322L481.407 527.022C495.062 524.448 504.076 511.258 501.502 497.617L480.338 385.032C478.06 372.952 467.471 364.501 455.588 364.501Z" fill="url(#paint15_linear_4020_392)"/>
</g>
<path d="M303.403 564.991C290.747 564.991 279.455 555.991 277.036 543.11L255.872 430.525C253.144 415.984 262.748 401.921 277.289 399.193L454.393 365.893C461.438 364.571 468.582 366.062 474.489 370.112C480.409 374.162 484.389 380.265 485.724 387.31L506.903 499.895C509.631 514.436 500.026 528.499 485.485 531.227L308.381 564.527C306.708 564.836 305.049 564.991 303.417 564.991H303.403ZM459.399 367.074C457.838 367.074 456.263 367.215 454.688 367.51L277.584 400.81C263.93 403.384 254.916 416.575 257.489 430.215L278.653 542.8C281.227 556.455 294.417 565.455 308.058 562.896L485.162 529.595C498.817 527.036 507.831 513.831 505.257 500.191L484.079 387.606C482.842 380.996 479.087 375.259 473.532 371.462C469.299 368.565 464.392 367.06 459.371 367.06L459.399 367.074Z" fill="url(#paint16_linear_4020_392)"/>
<path d="M303.403 564.991C290.747 564.991 279.455 555.991 277.036 543.109L255.872 430.524C253.144 415.984 262.748 401.921 277.289 399.193L454.393 365.893C461.438 364.571 468.582 366.062 474.489 370.112C480.409 374.162 484.389 380.265 485.724 387.31L506.903 499.895C509.631 514.436 500.026 528.498 485.485 531.226L308.381 564.527C306.708 564.836 305.049 564.991 303.417 564.991H303.403Z" fill="url(#paint17_linear_4020_392)"/>
<path d="M388.102 459.986L396.764 487.534L375.361 491.556L373.421 462.728C369.75 461.04 366.938 457.665 366.136 453.39C364.814 446.373 369.427 439.637 376.43 438.315C383.447 436.993 390.183 441.606 391.505 448.609C392.307 452.87 390.9 457.046 388.102 459.957V459.986Z" fill="#0F0F0F"/>
<path d="M359.752 485.636V485.411L357.811 456.709C354.014 454.923 351.3 451.408 350.527 447.273C349.88 443.828 350.611 440.34 352.58 437.443C354.549 434.547 357.544 432.606 360.975 431.959C368.091 430.623 374.954 435.32 376.29 442.422C377.063 446.542 375.797 450.817 372.915 453.868L381.605 481.53L381.38 481.572L359.752 485.636ZM363.408 432.142C362.635 432.142 361.847 432.212 361.06 432.367C357.727 433 354.844 434.884 352.932 437.682C351.019 440.481 350.316 443.856 350.935 447.203C351.694 451.239 354.366 454.67 358.107 456.386L358.219 456.442V456.568L360.146 485.158L381.099 481.22L372.465 453.77L372.549 453.686C375.404 450.718 376.655 446.542 375.896 442.52C374.757 436.431 369.399 432.17 363.422 432.17L363.408 432.142Z" fill="#FDFEFE"/>
<path d="M267.881 396.395C266.165 396.718 264.506 395.579 264.183 393.863L248.278 309.291C238.94 259.65 271.734 211.655 321.389 202.317C345.436 197.789 369.806 202.908 390.014 216.717C410.222 230.527 423.835 251.381 428.363 275.428L444.268 360.001C444.591 361.716 443.452 363.376 441.736 363.699L422.049 367.398C420.333 367.721 418.674 366.582 418.35 364.866L402.446 280.294C399.225 263.166 389.522 248.316 375.136 238.486C361.524 229.177 345.253 225.422 329.039 227.77C291.97 233.128 267.501 268.875 274.42 305.677L290.086 388.998C290.409 390.713 289.27 392.373 287.555 392.696L267.867 396.395H267.881Z" fill="url(#paint18_linear_4020_392)"/>
<path d="M273.183 555.006C267.951 555.006 262.847 553.445 258.445 550.422C252.665 546.47 248.77 540.508 247.476 533.617L226.298 421.046C223.753 407.532 232.148 394.313 245.409 390.854L230.095 309.347C220.743 259.594 253.622 211.5 303.375 202.134C327.464 197.592 351.891 202.725 372.155 216.563C392.391 230.4 406.046 251.297 410.588 275.4L425.902 356.865C439.641 355.121 452.368 364.388 454.941 378.029L476.119 490.628C477.413 497.504 475.951 504.479 471.999 510.259C468.047 516.039 462.071 519.948 455.194 521.242L278.09 554.542C276.459 554.852 274.814 555.006 273.197 555.006H273.183ZM320.531 200.925C314.864 200.925 309.141 201.459 303.445 202.528C253.917 211.852 221.193 259.735 230.503 309.263L245.901 391.149L245.718 391.191C232.556 394.524 224.217 407.602 226.72 420.962L247.898 533.533C249.178 540.311 253.003 546.189 258.698 550.07C264.393 553.966 271.256 555.4 278.034 554.134L455.138 520.834C461.916 519.555 467.78 515.73 471.676 510.034C475.571 504.339 477.005 497.476 475.74 490.712L454.561 378.113C452.016 364.613 439.374 355.473 425.79 357.301L425.593 357.329L425.55 357.132L410.194 275.471C405.68 251.466 392.082 230.667 371.944 216.886C356.559 206.381 338.756 200.911 320.559 200.911L320.531 200.925ZM271.383 386.312L271.34 386.115L256.237 305.719C252.862 287.747 256.982 268.946 267.572 254.138C277.992 239.555 293.433 230.119 311.025 227.574C327.281 225.225 343.706 229.05 357.277 238.331C371.719 248.203 381.45 263.096 384.671 280.266L400.041 362.096L399.844 362.138L271.397 386.312H271.383ZM320.391 227.306C317.297 227.306 314.189 227.531 311.081 227.981C293.601 230.513 278.259 239.892 267.909 254.377C257.39 269.086 253.284 287.775 256.645 305.635L271.72 385.834L399.563 361.773L384.263 280.35C381.056 263.292 371.395 248.499 357.052 238.683C346.153 231.23 333.413 227.32 320.405 227.32L320.391 227.306Z" fill="#FDFEFE"/>
<defs>
<linearGradient id="paint0_linear_4020_392" x1="530.401" y1="275.443" x2="539.936" y2="275.443" gradientUnits="userSpaceOnUse">
<stop stop-color="#D5DA63"/>
<stop offset="1" stop-color="#636EB4"/>
</linearGradient>
<linearGradient id="paint1_linear_4020_392" x1="514.243" y1="275.443" x2="523.778" y2="275.443" gradientUnits="userSpaceOnUse">
<stop stop-color="#BDF589"/>
<stop offset="0.36" stop-color="#BDF589"/>
<stop offset="1" stop-color="#BDF589"/>
</linearGradient>
<linearGradient id="paint2_linear_4020_392" x1="498.085" y1="275.443" x2="507.62" y2="275.443" gradientUnits="userSpaceOnUse">
<stop stop-color="#BDF589"/>
<stop offset="0.36" stop-color="#BDF589"/>
<stop offset="1" stop-color="#BDF589"/>
</linearGradient>
<linearGradient id="paint3_linear_4020_392" x1="72.735" y1="329.007" x2="592.122" y2="329.007" gradientUnits="userSpaceOnUse">
<stop stop-color="#D5DA63"/>
<stop offset="1" stop-color="#636EB4"/>
</linearGradient>
<linearGradient id="paint4_linear_4020_392" x1="573.25" y1="196.2" x2="592.333" y2="196.2" gradientUnits="userSpaceOnUse">
<stop stop-color="#D5DA63"/>
<stop offset="1" stop-color="#636EB4"/>
</linearGradient>
<linearGradient id="paint5_linear_4020_392" x1="285.67" y1="292.388" x2="592.333" y2="292.388" gradientUnits="userSpaceOnUse">
<stop stop-color="#D5DA63"/>
<stop offset="1" stop-color="#636EB4"/>
</linearGradient>
<linearGradient id="paint6_linear_4020_392" x1="71.9478" y1="355.135" x2="369.765" y2="355.135" gradientUnits="userSpaceOnUse">
<stop stop-color="#D5DA63"/>
<stop offset="1" stop-color="#636EB4"/>
</linearGradient>
<linearGradient id="paint7_linear_4020_392" x1="71.9478" y1="460.858" x2="91.8463" y2="460.858" gradientUnits="userSpaceOnUse">
<stop stop-color="#D5DA63"/>
<stop offset="1" stop-color="#636EB4"/>
</linearGradient>
<linearGradient id="paint8_linear_4020_392" x1="195.445" y1="479.687" x2="217.256" y2="479.687" gradientUnits="userSpaceOnUse">
<stop stop-color="#D5DA63"/>
<stop offset="1" stop-color="#636EB4"/>
</linearGradient>
<linearGradient id="paint9_linear_4020_392" x1="526.97" y1="395.931" x2="600.475" y2="395.931" gradientUnits="userSpaceOnUse">
<stop stop-color="#D5DA63"/>
<stop offset="1" stop-color="#636EB4"/>
</linearGradient>
<linearGradient id="paint10_linear_4020_392" x1="229.452" y1="401.592" x2="480.527" y2="492.718" gradientUnits="userSpaceOnUse">
<stop stop-color="#D5DA63"/>
</linearGradient>
<linearGradient id="paint11_linear_4020_392" x1="230.647" y1="414.031" x2="486.858" y2="485.446" gradientUnits="userSpaceOnUse">
<stop stop-color="#D5DA63"/>
<stop offset="1" stop-color="#636EB4"/>
</linearGradient>
<linearGradient id="paint12_linear_4020_392" x1="233.245" y1="426.707" x2="491.81" y2="477.919" gradientUnits="userSpaceOnUse">
<stop stop-color="#D5DA63"/>
<stop offset="1" stop-color="#636EB4"/>
</linearGradient>
<linearGradient id="paint13_linear_4020_392" x1="242.591" y1="451.979" x2="497.537" y2="462.947" gradientUnits="userSpaceOnUse">
<stop stop-color="#D5DA63"/>
<stop offset="1" stop-color="#636EB4"/>
</linearGradient>
<linearGradient id="paint14_linear_4020_392" x1="249.309" y1="464.195" x2="498.371" y2="455.894" gradientUnits="userSpaceOnUse">
<stop stop-color="#D5DA63"/>
<stop offset="1" stop-color="#636EB4"/>
</linearGradient>
<linearGradient id="paint15_linear_4020_392" x1="257.3" y1="475.871" x2="497.935" y2="449.393" gradientUnits="userSpaceOnUse">
<stop stop-color="#D5DA63"/>
<stop offset="1" stop-color="#636EB4"/>
</linearGradient>
<linearGradient id="paint16_linear_4020_392" x1="266.455" y1="486.813" x2="496.315" y2="443.588" gradientUnits="userSpaceOnUse">
<stop stop-color="#D5DA63"/>
<stop offset="1" stop-color="#636EB4"/>
</linearGradient>
<linearGradient id="paint17_linear_4020_392" x1="255" y1="431.509" x2="559" y2="448.509" gradientUnits="userSpaceOnUse">
<stop stop-color="#464646"/>
<stop offset="1" stop-color="#BDF589"/>
</linearGradient>
<linearGradient id="paint18_linear_4020_392" x1="247.41" y1="307.069" x2="427.141" y2="273.271" gradientUnits="userSpaceOnUse">
<stop stop-color="#BDF589"/>
<stop offset="1" stop-color="#474747"/>
</linearGradient>
</defs>
</svg>
