<svg width="522" height="341" viewBox="0 0 522 341" fill="none" xmlns="http://www.w3.org/2000/svg">
<path d="M33.5079 340.156C35.1759 340.156 36.2439 338.632 36.2439 335.572C36.2439 332.524 35.1759 331.036 33.5079 331.036C31.8279 331.036 30.7599 332.512 30.7599 335.572C30.7599 338.632 31.8279 340.156 33.5079 340.156ZM33.5079 339.28C32.4999 339.28 31.8279 338.164 31.8279 335.572C31.8279 333.004 32.4999 331.924 33.5079 331.924C34.5039 331.924 35.1759 333.004 35.1759 335.572C35.1759 338.164 34.5039 339.28 33.5079 339.28Z" fill="white" fill-opacity="0.6"/>
<rect x="33" width="1" height="320" fill="white" fill-opacity="0.4"/>
<path d="M123.724 336.7L125.728 333.7C125.98 333.268 126.22 332.836 126.436 332.404H126.484C126.46 332.86 126.412 333.568 126.412 334V336.7H123.724ZM128.62 336.7H127.456V331.204H126.244L122.584 336.856V337.576H126.412V340H127.456V337.576H128.62V336.7ZM132.336 340.156C134.004 340.156 135.072 338.632 135.072 335.572C135.072 332.524 134.004 331.036 132.336 331.036C130.656 331.036 129.588 332.512 129.588 335.572C129.588 338.632 130.656 340.156 132.336 340.156ZM132.336 339.28C131.328 339.28 130.656 338.164 130.656 335.572C130.656 333.004 131.328 331.924 132.336 331.924C133.332 331.924 134.004 333.004 134.004 335.572C134.004 338.164 133.332 339.28 132.336 339.28Z" fill="white" fill-opacity="0.6"/>
<path d="M129.5 0V320" stroke="white" stroke-opacity="0.2" stroke-dasharray="2 2"/>
<path d="M221.492 340.156C223.148 340.156 224.252 339.16 224.252 337.876C224.252 336.676 223.532 336.016 222.764 335.572V335.512C223.292 335.104 223.94 334.312 223.94 333.388C223.94 332.032 223.028 331.072 221.528 331.072C220.148 331.072 219.116 331.96 219.116 333.304C219.116 334.228 219.656 334.888 220.304 335.332V335.392C219.5 335.824 218.684 336.64 218.684 337.816C218.684 339.172 219.872 340.156 221.492 340.156ZM222.092 335.224C221.06 334.816 220.112 334.36 220.112 333.304C220.112 332.452 220.7 331.876 221.504 331.876C222.452 331.876 223.004 332.584 223.004 333.448C223.004 334.096 222.692 334.696 222.092 335.224ZM221.516 339.34C220.46 339.34 219.68 338.656 219.68 337.72C219.68 336.88 220.172 336.184 220.88 335.728C222.128 336.232 223.208 336.676 223.208 337.852C223.208 338.728 222.524 339.34 221.516 339.34ZM228.136 340.156C229.804 340.156 230.872 338.632 230.872 335.572C230.872 332.524 229.804 331.036 228.136 331.036C226.456 331.036 225.388 332.512 225.388 335.572C225.388 338.632 226.456 340.156 228.136 340.156ZM228.136 339.28C227.128 339.28 226.456 338.164 226.456 335.572C226.456 333.004 227.128 331.924 228.136 331.924C229.132 331.924 229.804 333.004 229.804 335.572C229.804 338.164 229.132 339.28 228.136 339.28Z" fill="white" fill-opacity="0.6"/>
<path d="M225.3 0V320" stroke="white" stroke-opacity="0.2" stroke-dasharray="2 2"/>
<path d="M311.672 340H316.496V339.088H314.732V331.204H313.892C313.412 331.48 312.848 331.684 312.068 331.828V332.524H313.628V339.088H311.672V340ZM317.8 340H323.332V339.052H320.896C320.452 339.052 319.912 339.1 319.456 339.136C321.52 337.18 322.9 335.392 322.9 333.64C322.9 332.068 321.916 331.036 320.344 331.036C319.228 331.036 318.472 331.552 317.752 332.332L318.388 332.956C318.868 332.38 319.492 331.936 320.212 331.936C321.304 331.936 321.832 332.668 321.832 333.676C321.832 335.188 320.56 336.94 317.8 339.352V340ZM327.264 340.156C328.932 340.156 330 338.632 330 335.572C330 332.524 328.932 331.036 327.264 331.036C325.584 331.036 324.516 332.512 324.516 335.572C324.516 338.632 325.584 340.156 327.264 340.156ZM327.264 339.28C326.256 339.28 325.584 338.164 325.584 335.572C325.584 333.004 326.256 331.924 327.264 331.924C328.26 331.924 328.932 333.004 328.932 335.572C328.932 338.164 328.26 339.28 327.264 339.28Z" fill="white" fill-opacity="0.6"/>
<path d="M321.1 0V320" stroke="white" stroke-opacity="0.2" stroke-dasharray="2 2"/>
<path d="M407.472 340H412.296V339.088H410.532V331.204H409.692C409.212 331.48 408.648 331.684 407.868 331.828V332.524H409.428V339.088H407.472V340ZM416.684 339.304C415.58 339.304 414.92 338.308 414.788 336.484C415.364 335.668 416.036 335.356 416.588 335.356C417.656 335.356 418.172 336.112 418.172 337.3C418.172 338.5 417.524 339.304 416.684 339.304ZM419.048 331.936C418.568 331.42 417.908 331.036 416.996 331.036C415.292 331.036 413.744 332.356 413.744 335.8C413.744 338.704 414.992 340.156 416.684 340.156C418.052 340.156 419.204 339.004 419.204 337.3C419.204 335.464 418.256 334.54 416.768 334.54C416.072 334.54 415.304 334.948 414.764 335.608C414.812 332.872 415.832 331.948 417.032 331.948C417.572 331.948 418.1 332.2 418.448 332.62L419.048 331.936ZM423.064 340.156C424.732 340.156 425.8 338.632 425.8 335.572C425.8 332.524 424.732 331.036 423.064 331.036C421.384 331.036 420.316 332.512 420.316 335.572C420.316 338.632 421.384 340.156 423.064 340.156ZM423.064 339.28C422.056 339.28 421.384 338.164 421.384 335.572C421.384 333.004 422.056 331.924 423.064 331.924C424.06 331.924 424.732 333.004 424.732 335.572C424.732 338.164 424.06 339.28 423.064 339.28Z" fill="white" fill-opacity="0.6"/>
<path d="M416.9 0V320" stroke="white" stroke-opacity="0.2" stroke-dasharray="2 2"/>
<path d="M502.744 340H508.276V339.052H505.84C505.396 339.052 504.856 339.1 504.4 339.136C506.464 337.18 507.844 335.392 507.844 333.64C507.844 332.068 506.86 331.036 505.288 331.036C504.172 331.036 503.416 331.552 502.696 332.332L503.332 332.956C503.812 332.38 504.436 331.936 505.156 331.936C506.248 331.936 506.776 332.668 506.776 333.676C506.776 335.188 505.504 336.94 502.744 339.352V340ZM512.208 340.156C513.876 340.156 514.944 338.632 514.944 335.572C514.944 332.524 513.876 331.036 512.208 331.036C510.528 331.036 509.46 332.512 509.46 335.572C509.46 338.632 510.528 340.156 512.208 340.156ZM512.208 339.28C511.2 339.28 510.528 338.164 510.528 335.572C510.528 333.004 511.2 331.924 512.208 331.924C513.204 331.924 513.876 333.004 513.876 335.572C513.876 338.164 513.204 339.28 512.208 339.28ZM518.864 340.156C520.532 340.156 521.6 338.632 521.6 335.572C521.6 332.524 520.532 331.036 518.864 331.036C517.184 331.036 516.116 332.512 516.116 335.572C516.116 338.632 517.184 340.156 518.864 340.156ZM518.864 339.28C517.856 339.28 517.184 338.164 517.184 335.572C517.184 333.004 517.856 331.924 518.864 331.924C519.86 331.924 520.532 333.004 520.532 335.572C520.532 338.164 519.86 339.28 518.864 339.28Z" fill="white" fill-opacity="0.6"/>
<path d="M512.7 0V320" stroke="white" stroke-opacity="0.2" stroke-dasharray="2 2"/>
<rect x="34" y="42" width="405.154" height="8" fill="#268AFF"/>
<rect x="34" y="26" width="170" height="8" fill="#36F097"/>
<path d="M1.84844 42.8H2.85644V37.928C2.85644 37.172 2.77244 36.104 2.72444 35.336H2.77244L3.46844 37.34L5.13644 41.912H5.88044L7.54844 37.34L8.24444 35.336H8.29244C8.23244 36.104 8.14844 37.172 8.14844 37.928V42.8H9.19244V34.004H7.84844L6.16844 38.708C5.96444 39.32 5.77244 39.932 5.56844 40.544H5.50844C5.29244 39.932 5.08844 39.32 4.88444 38.708L3.19244 34.004H1.84844V42.8ZM14.0227 42.956C15.6187 42.956 17.0467 41.708 17.0467 39.548C17.0467 37.376 15.6187 36.116 14.0227 36.116C12.4267 36.116 10.9987 37.376 10.9987 39.548C10.9987 41.708 12.4267 42.956 14.0227 42.956ZM14.0227 42.044C12.8947 42.044 12.1387 41.048 12.1387 39.548C12.1387 38.048 12.8947 37.028 14.0227 37.028C15.1507 37.028 15.9187 38.048 15.9187 39.548C15.9187 41.048 15.1507 42.044 14.0227 42.044ZM18.7681 42.8H19.8601V38.072C20.5201 37.412 20.9761 37.076 21.6481 37.076C22.5121 37.076 22.8841 37.592 22.8841 38.816V42.8H23.9761V38.672C23.9761 37.004 23.3521 36.116 21.9841 36.116C21.0961 36.116 20.4241 36.608 19.8001 37.22H19.7641L19.6681 36.284H18.7681V42.8Z" fill="white" fill-opacity="0.6"/>
<rect x="34" y="103" width="68" height="8" fill="#268AFF"/>
<rect x="34" y="87" width="251" height="8" fill="#36F097"/>
<path d="M7.53991 103.8H8.65591V95.94H11.3199V95.004H4.87591V95.94H7.53991V103.8ZM14.0664 103.956C14.9664 103.956 15.6144 103.488 16.2264 102.78H16.2624L16.3464 103.8H17.2584V97.284H16.1664V101.904C15.5424 102.684 15.0744 103.008 14.4024 103.008C13.5384 103.008 13.1784 102.492 13.1784 101.28V97.284H12.0864V101.412C12.0864 103.068 12.6984 103.956 14.0664 103.956ZM22.0875 103.956C22.9755 103.956 23.6715 103.656 24.2475 103.284L23.8515 102.564C23.3715 102.888 22.8555 103.08 22.2195 103.08C20.9835 103.08 20.1315 102.192 20.0595 100.8H24.4515C24.4755 100.644 24.4995 100.416 24.4995 100.176C24.4995 98.316 23.5635 97.116 21.9075 97.116C20.3955 97.116 18.9675 98.436 18.9675 100.548C18.9675 102.696 20.3595 103.956 22.0875 103.956ZM20.0475 100.02C20.1795 98.736 20.9955 97.992 21.9195 97.992C22.9395 97.992 23.5395 98.7 23.5395 100.02H20.0475Z" fill="white" fill-opacity="0.6"/>
<rect width="480" height="60.8" transform="translate(33 129.6)" fill="white" fill-opacity="0.1"/>
<rect x="34" y="164" width="14" height="8" fill="#268AFF"/>
<rect x="34" y="148" width="433" height="8" fill="#36F097"/>
<path d="M2.55091 164.6H3.87091L5.17891 159.296C5.32291 158.6 5.47891 157.964 5.62291 157.292H5.67091C5.81491 157.964 5.94691 158.6 6.10291 159.296L7.43491 164.6H8.76691L10.5909 155.804H9.52291L8.59891 160.592C8.43091 161.528 8.26291 162.476 8.09491 163.436H8.03491C7.83091 162.476 7.62691 161.528 7.41091 160.592L6.17491 155.804H5.16691L3.95491 160.592C3.73891 161.54 3.52291 162.488 3.31891 163.436H3.27091C3.10291 162.488 2.92291 161.54 2.75491 160.592L1.83091 155.804H0.678906L2.55091 164.6ZM14.6461 164.756C15.5341 164.756 16.2301 164.456 16.8061 164.084L16.4101 163.364C15.9301 163.688 15.4141 163.88 14.7781 163.88C13.5421 163.88 12.6901 162.992 12.6181 161.6H17.0101C17.0341 161.444 17.0581 161.216 17.0581 160.976C17.0581 159.116 16.1221 157.916 14.4661 157.916C12.9541 157.916 11.5261 159.236 11.5261 161.348C11.5261 163.496 12.9181 164.756 14.6461 164.756ZM12.6061 160.82C12.7381 159.536 13.5541 158.792 14.4781 158.792C15.4981 158.792 16.0981 159.5 16.0981 160.82H12.6061ZM20.8826 164.756C21.6626 164.756 22.3466 164.336 22.8626 163.832H22.8866L22.9946 164.6H23.8826V155.048H22.7906V157.556L22.8506 158.684C22.2746 158.204 21.7826 157.916 21.0146 157.916C19.5266 157.916 18.1946 159.236 18.1946 161.348C18.1946 163.52 19.2506 164.756 20.8826 164.756ZM21.1226 163.844C19.9706 163.844 19.3226 162.908 19.3226 161.336C19.3226 159.848 20.1506 158.84 21.2066 158.84C21.7466 158.84 22.2386 159.032 22.7906 159.524V162.944C22.2506 163.544 21.7226 163.844 21.1226 163.844Z" fill="white" fill-opacity="0.6"/>
<rect x="34" y="224" width="160" height="8" fill="#268AFF"/>
<rect x="34" y="208" width="75" height="8" fill="#36F097"/>
<path d="M6.27428 225.4H7.39028V217.54H10.0543V216.604H3.61028V217.54H6.27428V225.4ZM11.5259 225.4H12.6179V220.672C13.2779 220.012 13.7339 219.676 14.4059 219.676C15.2699 219.676 15.6419 220.192 15.6419 221.416V225.4H16.7339V221.272C16.7339 219.604 16.1099 218.716 14.7419 218.716C13.8539 218.716 13.1819 219.208 12.5819 219.808L12.6179 218.464V215.848H11.5259V225.4ZM20.7109 225.556C21.6109 225.556 22.2589 225.088 22.8709 224.38H22.9069L22.9909 225.4H23.9029V218.884H22.8109V223.504C22.1869 224.284 21.7189 224.608 21.0469 224.608C20.1829 224.608 19.8229 224.092 19.8229 222.88V218.884H18.7309V223.012C18.7309 224.668 19.3429 225.556 20.7109 225.556Z" fill="white" fill-opacity="0.6"/>
<rect x="34" y="285" width="162" height="8" fill="#268AFF"/>
<rect x="34" y="269" width="332" height="8" fill="#36F097"/>
<path d="M11.8914 286.2H13.0074V282.252H16.3674V281.316H13.0074V278.34H16.9674V277.404H11.8914V286.2ZM18.147 286.2H19.239V282.012C19.671 280.896 20.343 280.512 20.883 280.512C21.147 280.512 21.303 280.536 21.519 280.62L21.723 279.66C21.519 279.552 21.315 279.516 21.027 279.516C20.295 279.516 19.635 280.044 19.179 280.872H19.143L19.047 279.684H18.147V286.2ZM22.7993 286.2H23.8913V279.684H22.7993V286.2ZM23.3513 278.34C23.7833 278.34 24.1073 278.04 24.1073 277.632C24.1073 277.188 23.7833 276.924 23.3513 276.924C22.9193 276.924 22.5953 277.188 22.5953 277.632C22.5953 278.04 22.9193 278.34 23.3513 278.34Z" fill="white" fill-opacity="0.6"/>
<g filter="url(#filter0_d_1703_1867)">
<rect x="351" y="113" width="130" height="89" rx="4" fill="#4B4F52" shape-rendering="crispEdges"/>
<path d="M361.534 137H363.074L364.6 130.812C364.768 130 364.95 129.258 365.118 128.474H365.174C365.342 129.258 365.496 130 365.678 130.812L367.232 137H368.786L370.914 126.738H369.668L368.59 132.324C368.394 133.416 368.198 134.522 368.002 135.642H367.932C367.694 134.522 367.456 133.416 367.204 132.324L365.762 126.738H364.586L363.172 132.324C362.92 133.43 362.668 134.536 362.43 135.642H362.374C362.178 134.536 361.968 133.43 361.772 132.324L360.694 126.738H359.35L361.534 137ZM375.645 137.182C376.681 137.182 377.493 136.832 378.165 136.398L377.703 135.558C377.143 135.936 376.541 136.16 375.799 136.16C374.357 136.16 373.363 135.124 373.279 133.5H378.403C378.431 133.318 378.459 133.052 378.459 132.772C378.459 130.602 377.367 129.202 375.435 129.202C373.671 129.202 372.005 130.742 372.005 133.206C372.005 135.712 373.629 137.182 375.645 137.182ZM373.265 132.59C373.419 131.092 374.371 130.224 375.449 130.224C376.639 130.224 377.339 131.05 377.339 132.59H373.265ZM382.921 137.182C383.831 137.182 384.629 136.692 385.231 136.104H385.259L385.385 137H386.421V125.856H385.147V128.782L385.217 130.098C384.545 129.538 383.971 129.202 383.075 129.202C381.339 129.202 379.785 130.742 379.785 133.206C379.785 135.74 381.017 137.182 382.921 137.182ZM383.201 136.118C381.857 136.118 381.101 135.026 381.101 133.192C381.101 131.456 382.067 130.28 383.299 130.28C383.929 130.28 384.503 130.504 385.147 131.078V135.068C384.517 135.768 383.901 136.118 383.201 136.118Z" fill="white"/>
<rect x="361" y="155" width="8" height="8" rx="1" fill="#268AFF"/>
<path d="M380.2 164H385.156V163.052H381.316V155.204H380.2V164ZM389.084 164.156C389.972 164.156 390.668 163.856 391.244 163.484L390.848 162.764C390.368 163.088 389.852 163.28 389.216 163.28C387.98 163.28 387.128 162.392 387.056 161H391.448C391.472 160.844 391.496 160.616 391.496 160.376C391.496 158.516 390.56 157.316 388.904 157.316C387.392 157.316 385.964 158.636 385.964 160.748C385.964 162.896 387.356 164.156 389.084 164.156ZM387.044 160.22C387.176 158.936 387.992 158.192 388.916 158.192C389.936 158.192 390.536 158.9 390.536 160.22H387.044ZM395.167 167C397.183 167 398.455 165.956 398.455 164.744C398.455 163.676 397.699 163.196 396.187 163.196H394.915C394.039 163.196 393.775 162.908 393.775 162.488C393.775 162.128 393.955 161.912 394.195 161.708C394.483 161.852 394.843 161.936 395.167 161.936C396.487 161.936 397.543 161.06 397.543 159.668C397.543 159.104 397.327 158.624 397.015 158.324H398.347V157.484H396.079C395.851 157.4 395.527 157.316 395.167 157.316C393.847 157.316 392.719 158.216 392.719 159.644C392.719 160.424 393.139 161.048 393.571 161.396V161.444C393.235 161.684 392.839 162.116 392.839 162.656C392.839 163.172 393.091 163.52 393.439 163.724V163.772C392.827 164.168 392.467 164.696 392.467 165.248C392.467 166.376 393.571 167 395.167 167ZM395.167 161.192C394.411 161.192 393.775 160.592 393.775 159.644C393.775 158.684 394.399 158.12 395.167 158.12C395.935 158.12 396.547 158.696 396.547 159.644C396.547 160.592 395.911 161.192 395.167 161.192ZM395.323 166.256C394.135 166.256 393.427 165.8 393.427 165.104C393.427 164.72 393.631 164.336 394.099 164C394.387 164.072 394.699 164.108 394.939 164.108H396.067C396.931 164.108 397.399 164.312 397.399 164.912C397.399 165.596 396.571 166.256 395.323 166.256ZM402.185 164.156C403.073 164.156 403.769 163.856 404.345 163.484L403.949 162.764C403.469 163.088 402.953 163.28 402.317 163.28C401.081 163.28 400.229 162.392 400.157 161H404.549C404.573 160.844 404.597 160.616 404.597 160.376C404.597 158.516 403.661 157.316 402.005 157.316C400.493 157.316 399.065 158.636 399.065 160.748C399.065 162.896 400.457 164.156 402.185 164.156ZM400.145 160.22C400.277 158.936 401.093 158.192 402.017 158.192C403.037 158.192 403.637 158.9 403.637 160.22H400.145ZM406.202 164H407.294V159.272C407.954 158.612 408.41 158.276 409.082 158.276C409.946 158.276 410.318 158.792 410.318 160.016V164H411.41V159.872C411.41 158.204 410.786 157.316 409.418 157.316C408.53 157.316 407.858 157.808 407.234 158.42H407.198L407.102 157.484H406.202V164ZM415.758 164.156C416.538 164.156 417.222 163.736 417.738 163.232H417.762L417.87 164H418.758V154.448H417.666V156.956L417.726 158.084C417.15 157.604 416.658 157.316 415.89 157.316C414.402 157.316 413.07 158.636 413.07 160.748C413.07 162.92 414.126 164.156 415.758 164.156ZM415.998 163.244C414.846 163.244 414.198 162.308 414.198 160.736C414.198 159.248 415.026 158.24 416.082 158.24C416.622 158.24 417.114 158.432 417.666 158.924V162.344C417.126 162.944 416.598 163.244 415.998 163.244ZM420.931 164H425.755V163.088H423.991V155.204H423.151C422.671 155.48 422.107 155.684 421.327 155.828V156.524H422.887V163.088H420.931V164Z" fill="white" fill-opacity="0.6"/>
<path d="M462.132 164.156C463.62 164.156 465.012 163.064 465.012 161.132C465.012 159.2 463.824 158.336 462.36 158.336C461.832 158.336 461.436 158.468 461.052 158.684L461.268 156.14H464.592V155.204H460.308L460.032 159.32L460.62 159.68C461.124 159.344 461.496 159.164 462.084 159.164C463.188 159.164 463.908 159.908 463.908 161.168C463.908 162.452 463.068 163.244 462.036 163.244C461.016 163.244 460.38 162.776 459.876 162.272L459.336 162.992C459.924 163.58 460.764 164.156 462.132 164.156ZM468.032 164H469.172C469.304 160.556 469.688 158.516 471.752 155.864V155.204H466.244V156.14H470.504C468.788 158.54 468.176 160.664 468.032 164Z" fill="white"/>
<rect x="361" y="181" width="8" height="8" rx="1" fill="#3DFFDC"/>
<path d="M380.2 190H385.156V189.052H381.316V181.204H380.2V190ZM389.084 190.156C389.972 190.156 390.668 189.856 391.244 189.484L390.848 188.764C390.368 189.088 389.852 189.28 389.216 189.28C387.98 189.28 387.128 188.392 387.056 187H391.448C391.472 186.844 391.496 186.616 391.496 186.376C391.496 184.516 390.56 183.316 388.904 183.316C387.392 183.316 385.964 184.636 385.964 186.748C385.964 188.896 387.356 190.156 389.084 190.156ZM387.044 186.22C387.176 184.936 387.992 184.192 388.916 184.192C389.936 184.192 390.536 184.9 390.536 186.22H387.044ZM395.167 193C397.183 193 398.455 191.956 398.455 190.744C398.455 189.676 397.699 189.196 396.187 189.196H394.915C394.039 189.196 393.775 188.908 393.775 188.488C393.775 188.128 393.955 187.912 394.195 187.708C394.483 187.852 394.843 187.936 395.167 187.936C396.487 187.936 397.543 187.06 397.543 185.668C397.543 185.104 397.327 184.624 397.015 184.324H398.347V183.484H396.079C395.851 183.4 395.527 183.316 395.167 183.316C393.847 183.316 392.719 184.216 392.719 185.644C392.719 186.424 393.139 187.048 393.571 187.396V187.444C393.235 187.684 392.839 188.116 392.839 188.656C392.839 189.172 393.091 189.52 393.439 189.724V189.772C392.827 190.168 392.467 190.696 392.467 191.248C392.467 192.376 393.571 193 395.167 193ZM395.167 187.192C394.411 187.192 393.775 186.592 393.775 185.644C393.775 184.684 394.399 184.12 395.167 184.12C395.935 184.12 396.547 184.696 396.547 185.644C396.547 186.592 395.911 187.192 395.167 187.192ZM395.323 192.256C394.135 192.256 393.427 191.8 393.427 191.104C393.427 190.72 393.631 190.336 394.099 190C394.387 190.072 394.699 190.108 394.939 190.108H396.067C396.931 190.108 397.399 190.312 397.399 190.912C397.399 191.596 396.571 192.256 395.323 192.256ZM402.185 190.156C403.073 190.156 403.769 189.856 404.345 189.484L403.949 188.764C403.469 189.088 402.953 189.28 402.317 189.28C401.081 189.28 400.229 188.392 400.157 187H404.549C404.573 186.844 404.597 186.616 404.597 186.376C404.597 184.516 403.661 183.316 402.005 183.316C400.493 183.316 399.065 184.636 399.065 186.748C399.065 188.896 400.457 190.156 402.185 190.156ZM400.145 186.22C400.277 184.936 401.093 184.192 402.017 184.192C403.037 184.192 403.637 184.9 403.637 186.22H400.145ZM406.202 190H407.294V185.272C407.954 184.612 408.41 184.276 409.082 184.276C409.946 184.276 410.318 184.792 410.318 186.016V190H411.41V185.872C411.41 184.204 410.786 183.316 409.418 183.316C408.53 183.316 407.858 183.808 407.234 184.42H407.198L407.102 183.484H406.202V190ZM415.758 190.156C416.538 190.156 417.222 189.736 417.738 189.232H417.762L417.87 190H418.758V180.448H417.666V182.956L417.726 184.084C417.15 183.604 416.658 183.316 415.89 183.316C414.402 183.316 413.07 184.636 413.07 186.748C413.07 188.92 414.126 190.156 415.758 190.156ZM415.998 189.244C414.846 189.244 414.198 188.308 414.198 186.736C414.198 185.248 415.026 184.24 416.082 184.24C416.622 184.24 417.114 184.432 417.666 184.924V188.344C417.126 188.944 416.598 189.244 415.998 189.244ZM420.403 190H425.935V189.052H423.499C423.055 189.052 422.515 189.1 422.059 189.136C424.123 187.18 425.503 185.392 425.503 183.64C425.503 182.068 424.519 181.036 422.947 181.036C421.831 181.036 421.075 181.552 420.355 182.332L420.991 182.956C421.471 182.38 422.095 181.936 422.815 181.936C423.907 181.936 424.435 182.668 424.435 183.676C424.435 185.188 423.163 186.94 420.403 189.352V190Z" fill="white" fill-opacity="0.6"/>
<path d="M460.056 190H464.88V189.088H463.116V181.204H462.276C461.796 181.48 461.232 181.684 460.452 181.828V182.524H462.012V189.088H460.056V190ZM468.788 190.156C470.276 190.156 471.668 189.064 471.668 187.132C471.668 185.2 470.48 184.336 469.016 184.336C468.488 184.336 468.092 184.468 467.708 184.684L467.924 182.14H471.248V181.204H466.964L466.688 185.32L467.276 185.68C467.78 185.344 468.152 185.164 468.74 185.164C469.844 185.164 470.564 185.908 470.564 187.168C470.564 188.452 469.724 189.244 468.692 189.244C467.672 189.244 467.036 188.776 466.532 188.272L465.992 188.992C466.58 189.58 467.42 190.156 468.788 190.156Z" fill="white"/>
</g>
<defs>
<filter id="filter0_d_1703_1867" x="339" y="101" width="154" height="113" filterUnits="userSpaceOnUse" color-interpolation-filters="sRGB">
<feFlood flood-opacity="0" result="BackgroundImageFix"/>
<feColorMatrix in="SourceAlpha" type="matrix" values="0 0 0 0 0 0 0 0 0 0 0 0 0 0 0 0 0 0 127 0" result="hardAlpha"/>
<feOffset/>
<feGaussianBlur stdDeviation="6"/>
<feComposite in2="hardAlpha" operator="out"/>
<feColorMatrix type="matrix" values="0 0 0 0 0 0 0 0 0 0 0 0 0 0 0 0 0 0 0.2 0"/>
<feBlend mode="normal" in2="BackgroundImageFix" result="effect1_dropShadow_1703_1867"/>
<feBlend mode="normal" in="SourceGraphic" in2="effect1_dropShadow_1703_1867" result="shape"/>
</filter>
</defs>
</svg>
