<svg width="109" height="383" viewBox="0 0 109 383" fill="none" xmlns="http://www.w3.org/2000/svg">
<path d="M14.333 334.166L9.58196 358.478L0.279963 376.624C-0.390037 377.932 0.186967 379.534 1.53697 380.114C2.29297 380.439 3.15297 380.381 3.85497 379.952C8.32397 377.22 24.715 367.089 24.963 365.29C25.25 363.207 31.677 339.977 31.677 339.977L14.333 334.166Z" fill="#27DEBF"/>
<path d="M1.53711 380.114L25.3201 363.658L25.0951 364.683C24.9001 365.569 24.4021 366.36 23.6801 366.909C21.7481 368.378 16.3231 372.316 3.92811 379.969C3.20711 380.415 2.30611 380.47 1.53711 380.114Z" fill="#263238"/>
<path d="M22.0405 356.503C21.3425 356.789 20.9435 357.663 21.2005 358.372C21.4575 359.081 22.3425 359.495 23.0455 359.221C23.7485 358.947 24.2595 357.913 23.9245 357.237C23.5895 356.561 22.5245 356.132 21.9075 356.567" fill="#EBEBEB"/>
<path d="M9.38595 370.755C9.23395 370.792 8.96695 369.405 7.67695 368.408C6.41695 367.372 5.00595 367.421 5.00795 367.264C4.99995 367.2 5.34794 367.079 5.93094 367.123C6.50994 367.163 7.31094 367.422 8.01594 367.982C8.71794 368.544 9.14895 369.267 9.31695 369.823C9.49095 370.383 9.44995 370.748 9.38595 370.755Z" fill="#263238"/>
<path d="M6.95229 373.616C6.81429 373.695 6.21029 372.738 5.03729 372.106C3.87829 371.447 2.74729 371.443 2.74129 371.283C2.69829 371.144 3.97529 370.886 5.30129 371.63C6.63329 372.359 7.09229 373.579 6.95229 373.616Z" fill="#263238"/>
<path d="M13.5052 367.305C13.3672 367.395 12.4442 365.918 10.7072 364.774C8.98717 363.603 7.27117 363.313 7.30117 363.15C7.29017 363.012 9.16217 363.07 11.0102 364.322C12.8692 365.554 13.6362 367.263 13.5052 367.305Z" fill="#263238"/>
<path d="M15.5662 360.034C15.4702 360.165 14.2552 359.313 12.5302 358.869C10.8102 358.401 9.33425 358.54 9.31525 358.379C9.27425 358.246 10.8202 357.845 12.6692 358.343C14.5232 358.825 15.6682 359.939 15.5662 360.034Z" fill="#263238"/>
<path d="M17.1416 352.934C17.0356 353.058 15.8686 351.956 14.0126 351.637C12.1636 351.277 10.6826 351.892 10.6276 351.739C10.5996 351.68 10.9296 351.434 11.5586 351.234C12.1826 351.032 13.1136 350.92 14.1106 351.102C15.1076 351.287 15.9376 351.721 16.4496 352.131C16.9666 352.541 17.1886 352.888 17.1416 352.934Z" fill="#263238"/>
<path d="M14.3516 350.294C14.3206 350.288 14.3376 349.95 14.5196 349.372C14.7016 348.798 15.0606 347.972 15.7726 347.134C16.1326 346.742 16.5316 346.223 17.2766 346.053C17.6476 345.966 18.1346 346.138 18.3516 346.521C18.5676 346.895 18.5706 347.312 18.4946 347.697C18.1326 349.228 16.4886 350.424 14.7126 350.266C12.9366 350.076 11.5826 348.741 11.1856 347.264C11.1106 346.888 11.0986 346.444 11.3766 346.076C11.6516 345.704 12.1796 345.648 12.5126 345.783C13.2076 346.048 13.5706 346.561 13.9246 346.961C14.6116 347.814 14.9726 348.632 15.1636 349.203C15.3546 349.778 15.3826 350.113 15.3516 350.121C15.2526 350.166 15.0006 348.798 13.6306 347.21C13.2796 346.837 12.8806 346.374 12.3746 346.213C12.1276 346.133 11.8886 346.185 11.7546 346.369C11.6196 346.544 11.6036 346.859 11.6746 347.157C12.0176 348.369 13.2576 349.587 14.7616 349.724C16.2566 349.872 17.7006 348.818 18.0036 347.589C18.0726 347.292 18.0586 346.975 17.9386 346.764C17.8196 346.556 17.5926 346.456 17.3496 346.497C16.8376 346.584 16.4106 347.023 16.0586 347.389C14.6506 348.943 14.4536 350.342 14.3516 350.294Z" fill="#263238"/>
<path d="M95.3643 336.057L99.4133 360.496L108.189 378.902C108.822 380.229 108.199 381.813 106.832 382.354C106.067 382.657 105.209 382.575 104.52 382.125C100.131 379.266 84.0394 368.668 83.8434 366.862C83.6164 364.772 77.8604 341.367 77.8604 341.367L95.3643 336.057Z" fill="#27DEBF"/>
<path d="M106.832 382.354L83.5322 365.22L83.7272 366.251C83.8962 367.143 84.3722 367.947 85.0782 368.517C86.9672 370.04 92.2762 374.134 104.446 382.14C105.155 382.606 106.053 382.687 106.832 382.354Z" fill="#263238"/>
<path d="M87.0165 358.164C87.7055 358.47 88.0795 359.355 87.8025 360.056C87.5245 360.758 86.6285 361.146 85.9335 360.852C85.2385 360.558 84.7575 359.51 85.1115 358.844C85.4655 358.178 86.5435 357.78 87.1475 358.232" fill="#EBEBEB"/>
<path d="M99.256 372.773C99.406 372.814 99.714 371.436 101.032 370.476C102.321 369.477 103.731 369.566 103.733 369.41C103.743 369.346 103.399 369.215 102.814 369.243C102.234 369.266 101.426 369.502 100.705 370.042C99.987 370.584 99.535 371.294 99.351 371.845C99.162 372.398 99.192 372.764 99.256 372.773Z" fill="#263238"/>
<path d="M101.608 375.704C101.744 375.787 102.375 374.848 103.566 374.249C104.744 373.623 105.875 373.652 105.885 373.493C105.932 373.355 104.662 373.061 103.316 373.766C101.962 374.457 101.469 375.662 101.608 375.704Z" fill="#263238"/>
<path d="M95.238 369.206C95.374 369.3 96.338 367.851 98.108 366.757C99.861 365.636 101.585 365.395 101.559 365.232C101.574 365.095 99.702 365.099 97.818 366.296C95.924 367.474 95.108 369.16 95.238 369.206Z" fill="#263238"/>
<path d="M93.3865 361.88C93.4795 362.014 94.7175 361.197 96.4555 360.803C98.1885 360.385 99.6595 360.567 99.6835 360.406C99.7275 360.274 98.1945 359.829 96.3315 360.274C94.4655 360.701 93.2885 361.781 93.3865 361.88Z" fill="#263238"/>
<path d="M92.0164 354.736C92.1184 354.862 93.3164 353.795 95.1804 353.53C97.0384 353.223 98.5024 353.881 98.5614 353.73C98.5914 353.671 98.2684 353.416 97.6454 353.198C97.0274 352.979 96.1004 352.84 95.0974 352.992C94.0954 353.148 93.2534 353.559 92.7294 353.953C92.2024 354.349 91.9704 354.689 92.0164 354.736Z" fill="#263238"/>
<path d="M94.8808 352.178C94.9118 352.173 94.9048 351.835 94.7398 351.251C94.5748 350.672 94.2387 349.836 93.5517 348.978C93.2037 348.576 92.8197 348.046 92.0797 347.854C91.7117 347.756 91.2198 347.914 90.9918 348.291C90.7648 348.659 90.7497 349.075 90.8147 349.463C91.1327 351.003 92.7417 352.246 94.5217 352.14C96.3027 352.001 97.6947 350.706 98.1337 349.241C98.2197 348.867 98.2438 348.424 97.9768 348.048C97.7128 347.668 97.1868 347.597 96.8498 347.722C96.1478 347.967 95.7698 348.469 95.4038 348.859C94.6928 349.692 94.3078 350.499 94.1008 351.064C93.8928 351.633 93.8557 351.968 93.8857 351.976C93.9827 352.023 94.2747 350.664 95.6897 349.115C96.0517 348.752 96.4628 348.301 96.9748 348.155C97.2238 348.082 97.4608 348.141 97.5898 348.329C97.7198 348.508 97.7267 348.823 97.6467 349.119C97.2687 350.321 95.9938 351.502 94.4868 351.596C92.9878 351.701 91.5748 350.606 91.3078 349.369C91.2478 349.07 91.2707 348.754 91.3967 348.546C91.5207 348.341 91.7517 348.248 91.9937 348.296C92.5037 348.397 92.9178 348.848 93.2578 349.225C94.6208 350.819 94.7778 352.223 94.8808 352.178Z" fill="#263238"/>
<path d="M16.6551 174.988C14.3971 171.549 5.02812 358.365 5.65612 359.437L30.3351 359.792L43.7691 259.97L51.0741 183.644L62.8531 255.362L77.3051 360.468L104.276 360.856L87.6061 170.334L52.6791 150.32L16.6551 174.988Z" fill="#263238"/>
<path d="M40.2201 49.4846C40.2201 49.4846 32.6551 50.7996 29.7711 53.3206C26.8871 55.8416 23.9561 61.6376 23.9561 61.6376L9.57715 71.3976L22.2351 121.842L11.6251 191.553L13.7441 197.564L93.0592 196.238L94.5711 190.768L86.3711 127.321L89.9732 84.7996L93.2851 67.7256L78.9212 61.2896C78.9212 61.2896 85.5001 59.2486 85.8011 58.1136C86.1021 56.9786 70.9791 49.2146 70.9791 49.2146C70.9791 49.2146 47.1171 45.1706 40.2201 49.4846Z" fill="#27DEBF"/>
<g opacity="0.3">
<path d="M16.1592 158.808C25.1052 170.404 37.3302 178.951 49.3562 187.31C51.8932 189.073 54.5262 190.879 57.5582 191.476C61.9002 192.331 66.6662 190.33 69.0952 186.631C70.8352 183.98 71.4262 180.638 73.4902 178.23C74.8862 176.602 76.8392 175.548 78.3362 174.014C79.6322 172.686 80.5462 171.042 81.4452 169.419C83.0842 166.459 84.7232 163.499 86.3632 160.539C80.3852 160.514 74.8622 163.458 69.4692 166.036C64.0762 168.614 58.0802 170.943 52.2532 169.61C44.1862 167.765 39.0462 159.556 31.2942 156.659C26.4192 154.837 20.7212 155.379 16.2772 158.087" fill="black"/>
</g>
<path d="M9.57701 71.3985C9.57701 71.3985 6.62201 75.1705 5.96701 83.0915C5.31201 91.0125 0.209007 132.57 1.92501 138.543C3.64101 144.515 25.852 169.443 33.25 168.829L36.012 167.831L38.656 169.88L50.478 161.019L24.422 128.233L25.822 81.0345C25.822 81.0345 17.819 69.5305 9.57701 71.3985Z" fill="#27DEBF"/>
<path d="M29.7715 53.3218C29.7855 53.3428 29.5325 53.4868 29.1235 53.8658C28.7135 54.2418 28.1515 54.8538 27.5335 55.7408C26.8985 56.6188 26.2545 57.7808 25.4625 59.1508C24.6195 60.4858 23.6535 62.0168 22.5725 63.7298L22.4045 63.5238C23.8415 62.9638 25.5985 62.9548 27.2795 63.5058C28.9675 64.0468 30.6015 65.0158 32.1835 66.1908C35.3435 68.5828 38.2315 71.9178 41.0275 75.7008C46.6025 83.3058 52.0345 92.7028 57.2765 103.118L57.3045 103.173L57.3025 103.239C57.1845 107.362 57.0605 111.676 56.9345 116.071C56.2985 138.379 55.7235 158.572 55.3055 173.218C55.0785 180.51 54.8945 186.419 54.7665 190.535C54.6925 192.558 54.6345 194.139 54.5935 195.242C54.5685 195.76 54.5495 196.166 54.5355 196.466C54.5195 196.742 54.5065 196.883 54.4975 196.882C54.4885 196.882 54.4835 196.74 54.4815 196.464C54.4835 196.164 54.4855 195.758 54.4875 195.239C54.5055 194.135 54.5305 192.553 54.5625 190.529C54.6515 186.412 54.7785 180.502 54.9355 173.209C55.2885 158.583 55.7395 138.382 56.4115 116.057C56.5405 111.66 56.6665 107.345 56.7865 103.221L56.8125 103.342C51.5975 92.9518 46.1925 83.5488 40.6765 75.9568C37.9085 72.1768 35.0615 68.8588 31.9635 66.4818C30.4095 65.3108 28.8115 64.3508 27.1795 63.8128C25.5525 63.2658 23.8825 63.2648 22.5035 63.7828L22.1055 63.9328L22.3355 63.5768C23.4355 61.8778 24.4195 60.3598 25.2765 59.0348C26.0785 57.6918 26.7545 56.5198 27.4105 55.6518C28.0525 54.7718 28.6395 54.1678 29.0705 53.8068C29.5035 53.4438 29.7715 53.3218 29.7715 53.3218Z" fill="#263238"/>
<path d="M83.071 59.3476C83.096 59.4306 81.552 59.8836 79.151 60.8446C76.76 61.8096 73.495 63.3266 70.374 65.7246C67.247 68.1166 64.818 70.7666 63.059 72.6646C62.242 73.5556 61.549 74.3126 60.983 74.9296C60.488 75.4606 60.202 75.7446 60.174 75.7206C60.147 75.6976 60.381 75.3696 60.829 74.7976C61.278 74.2256 61.939 73.4096 62.783 72.4196C64.476 70.4546 66.881 67.7416 70.057 65.3096C73.233 62.8696 76.576 61.3826 79.018 60.4996C80.243 60.0546 81.256 59.7586 81.959 59.5736C82.665 59.3896 83.062 59.3156 83.071 59.3476Z" fill="#263238"/>
<path d="M57.2235 103.319C57.1875 103.315 57.2245 102.788 57.3215 101.835C57.4325 100.885 57.6345 99.5138 57.9525 97.8338C58.5755 94.4708 59.6885 89.8768 61.1565 84.8718C62.6525 79.8738 64.2285 75.4128 65.6025 72.2778C66.2805 70.7068 66.8995 69.4648 67.3585 68.6258C67.8365 67.7948 68.1155 67.3458 68.1465 67.3638C68.1775 67.3818 67.9595 67.8638 67.5395 68.7178C67.1385 69.5808 66.5745 70.8378 65.9435 72.4198C64.6635 75.5758 63.1485 80.0378 61.6575 85.0208C60.1935 90.0108 59.0275 94.5758 58.3145 97.9078C57.9515 99.5728 57.6955 100.927 57.5225 101.865C57.3635 102.804 57.2585 103.323 57.2235 103.319Z" fill="#263238"/>
<path d="M59.6872 75.4235C59.5572 75.3615 61.3722 71.3285 63.7392 66.4165C66.1072 61.5035 68.1312 57.5725 68.2602 57.6355C68.3902 57.6975 66.5762 61.7305 64.2082 66.6425C61.8412 71.5545 59.8172 75.4855 59.6872 75.4235Z" fill="#263238"/>
<path d="M62.1553 94.1357L62.3873 93.6397C62.6263 93.8197 62.9843 93.9477 63.3283 93.9527C63.7213 93.9587 63.8823 93.8297 63.8853 93.6537C63.8933 93.1177 62.2223 93.4617 62.2373 92.3977C62.2443 91.9107 62.6433 91.5107 63.4573 91.5227C63.8173 91.5277 64.1843 91.6187 64.4483 91.7907L64.2363 92.2917C63.9723 92.1367 63.6993 92.0587 63.4453 92.0557C63.0523 92.0497 62.8983 92.1947 62.8963 92.3757C62.8883 92.9037 64.5603 92.5637 64.5443 93.6157C64.5373 94.0947 64.1343 94.4977 63.3153 94.4867C62.8633 94.4777 62.4063 94.3357 62.1553 94.1357Z" fill="white"/>
<path d="M67.2153 93.9587L67.2073 94.4908L64.9893 94.4587L65.0303 91.5938L67.1953 91.6247L67.1873 92.1568L65.6813 92.1348L65.6723 92.7567L67.0023 92.7757L66.9953 93.2917L65.6653 93.2728L65.6563 93.9357L67.2153 93.9587Z" fill="white"/>
<path d="M67.5695 93.0637C67.5815 92.1997 68.2535 91.5917 69.1465 91.6047C69.6415 91.6117 70.0525 91.7977 70.3175 92.1287L69.8865 92.5157C69.6975 92.2917 69.4575 92.1737 69.1705 92.1697C68.6345 92.1617 68.2485 92.5327 68.2405 93.0737C68.2325 93.6137 68.6075 93.9957 69.1445 94.0037C69.4315 94.0077 69.6745 93.8967 69.8695 93.6747L70.2895 94.0737C70.0145 94.4017 69.5985 94.5757 69.0995 94.5687C68.2115 94.5547 67.5575 93.9277 67.5695 93.0637Z" fill="white"/>
<path d="M72.8614 93.7148C72.8164 93.5738 72.7784 93.4338 72.7434 93.2958C72.7054 93.2018 72.6774 93.1058 72.6454 93.0108L72.6414 93.2848C72.6334 93.8288 72.3974 94.0508 71.9914 94.0448C71.5904 94.0388 71.3564 93.8108 71.3644 93.2658L71.3874 91.6858L70.7244 91.6768L70.7014 93.2808C70.6894 94.1238 71.1654 94.5978 71.9804 94.6088C72.4584 94.6158 72.8184 94.4548 73.0424 94.1548C72.9704 94.0158 72.9104 93.8678 72.8614 93.7148Z" fill="white"/>
<path d="M73.0111 92.4048L72.9971 93.3798C73.0061 93.4148 73.0161 93.4488 73.0261 93.4838C73.0531 93.5608 73.0871 93.6318 73.1061 93.7148C73.1341 93.8348 73.1621 93.9548 73.1911 94.0748C73.2701 94.4098 73.2841 94.7228 73.2501 95.0118C73.4961 94.7928 73.6361 94.4598 73.6431 94.0188L73.6661 92.4148L73.0111 92.4048Z" fill="white"/>
<path d="M76.1072 95.3148L75.5662 94.5088H75.5332L74.9563 94.5008L74.9442 95.2988L74.2812 95.2888L74.3223 92.4238L75.5622 92.4418C76.3272 92.4528 76.8002 92.8568 76.7912 93.4998C76.7852 93.9298 76.5632 94.2418 76.1892 94.3958L76.8183 95.3258L76.1072 95.3148ZM75.5182 92.9808L74.9782 92.9728L74.9642 93.9718L75.5042 93.9798C75.9092 93.9858 76.1172 93.8008 76.1212 93.4898C76.1252 93.1738 75.9232 92.9868 75.5182 92.9808Z" fill="white"/>
<path d="M77.333 92.4668L77.996 92.4768L77.955 95.3418L77.292 95.3318L77.333 92.4668Z" fill="white"/>
<path d="M79.2617 93.0349L78.3447 93.0219L78.3527 92.4819L80.8487 92.5179L80.8407 93.0579L79.9237 93.0449L79.8907 95.3699L79.2277 95.3599L79.2617 93.0349Z" fill="white"/>
<path d="M82.5019 94.3916L82.4869 95.4066L81.8239 95.3966L81.8389 94.3736L80.7559 92.5156L81.4599 92.5256L82.2069 93.8096L82.9909 92.5476L83.6419 92.5566L82.5019 94.3916Z" fill="white"/>
<path d="M75.3442 101.864C75.3112 101.877 75.1722 101.61 74.9492 101.113C74.7222 100.618 74.4352 99.8834 74.1182 98.9624C73.4812 97.1214 72.7912 94.5024 72.4122 91.5464C72.0392 88.5884 72.0542 85.8794 72.2102 83.9384C72.2872 82.9674 72.3812 82.1844 72.4772 81.6474C72.5692 81.1104 72.6362 80.8164 72.6722 80.8214C72.7542 80.8314 72.6372 82.0264 72.5782 83.9574C72.5172 85.8874 72.5612 88.5593 72.9292 91.4803C73.3032 94.4003 73.9282 96.9974 74.4692 98.8514C75.0082 100.706 75.4212 101.834 75.3442 101.864Z" fill="#263238"/>
<g opacity="0.3">
<path d="M59.1776 93.9048C58.7516 97.4648 57.6106 99.2238 57.5586 102.808C57.5476 103.576 56.3286 115.698 57.0446 115.978C57.8866 116.307 61.0956 107.476 61.7956 103.075C62.3446 99.6258 63.3176 95.0878 63.8946 91.6428C65.5776 81.5938 69.3066 76.1828 74.5336 67.4358C75.5236 65.7798 79.2186 61.2708 79.2186 61.2708C78.8626 61.0458 77.3966 61.7398 76.3706 62.2018C73.4226 63.5278 68.1446 67.7458 68.1446 67.7458C68.1446 67.7458 64.9726 73.8058 63.9016 76.8558C61.8496 82.7048 60.2616 88.6068 59.0976 94.4848" fill="black"/>
</g>
<g opacity="0.3">
<path d="M26.1552 63.3906C26.1552 63.3906 22.9322 65.1516 22.9532 66.5696C22.9732 67.9876 24.0592 69.1946 25.3002 69.8816C26.5412 70.5676 27.9532 70.8666 29.2822 71.3616C32.4112 72.5286 35.0172 74.7676 37.3732 77.1346C41.2362 81.0146 44.6282 85.3636 47.4522 90.0546C49.8002 93.9566 51.9522 98.3016 55.8842 100.601C53.2232 95.8416 50.4632 91.2366 47.8022 86.4776C45.1462 81.7276 42.0782 77.2216 38.6182 73.0216C35.1572 68.8196 29.5172 63.7286 26.1552 63.3906Z" fill="black"/>
</g>
<path d="M14.6778 133.637C14.6648 133.638 14.6508 133.549 14.6348 133.376C14.6158 133.203 14.6148 132.944 14.6428 132.608C14.7038 131.943 14.9148 130.942 15.5988 129.876C16.2648 128.828 17.4668 127.693 19.1938 127.269C20.8818 126.844 23.0428 127.124 24.7318 128.501L24.3438 128.692C24.1928 125.648 24.3838 122.196 24.9388 118.627C25.4468 115.337 26.0478 112.237 26.3918 109.389C26.7478 106.544 26.9338 103.965 26.9808 101.795C27.0458 99.6258 27.0368 97.8668 27.0098 96.6518C27.0058 96.0938 27.0028 95.6318 27.0008 95.2518C27.0048 94.9308 27.0148 94.7617 27.0328 94.7607C27.0508 94.7597 27.0748 94.9267 27.1058 95.2457C27.1348 95.6257 27.1698 96.0868 27.2128 96.6438C27.3028 97.8588 27.3678 99.6217 27.3498 101.802C27.3488 103.982 27.2008 106.581 26.8688 109.446C26.5488 112.315 25.9588 115.432 25.4548 118.703C24.9038 122.251 24.6988 125.651 24.8168 128.67L24.8378 129.202L24.4288 128.861C22.8928 127.581 20.8728 127.279 19.2848 127.65C17.6668 128.015 16.5088 129.049 15.8348 130.032C15.1468 131.029 14.8978 131.983 14.7918 132.625C14.6928 133.276 14.7138 133.636 14.6778 133.637Z" fill="#263238"/>
<path d="M17.192 158C17.201 157.991 17.31 158.086 17.511 158.278C17.738 158.5 18.028 158.782 18.387 159.132C19.166 159.865 20.308 160.94 21.849 162.192C23.394 163.436 25.318 164.892 27.673 166.305C28.851 167 30.129 167.728 31.548 168.254C32.249 168.516 33.008 168.659 33.776 168.587C34.526 168.526 35.322 168.217 35.834 167.682L35.989 167.52L36.155 167.648C36.988 168.289 37.886 168.981 38.805 169.689L38.512 169.687C42.152 166.952 46.144 163.952 50.323 160.811L50.277 161.184C50.211 161.101 50.139 161.012 50.067 160.922C46.502 156.485 43.327 152.105 40.372 148.171C37.43 144.228 34.76 140.695 32.449 137.782C30.143 134.866 28.188 132.579 26.785 131.047C26.093 130.271 25.527 129.697 25.145 129.305C24.765 128.91 24.572 128.697 24.584 128.683C24.596 128.67 24.814 128.858 25.218 129.229C25.625 129.597 26.216 130.151 26.933 130.907C28.386 132.401 30.39 134.658 32.737 137.55C35.088 140.439 37.793 143.953 40.756 147.881C43.732 151.799 46.922 156.173 50.472 160.592C50.544 160.681 50.615 160.771 50.681 160.853L50.851 161.065L50.636 161.226C46.449 164.356 42.45 167.346 38.804 170.072L38.656 170.183L38.511 170.07C37.596 169.357 36.702 168.66 35.873 168.014L36.194 167.979C35.528 168.666 34.664 168.956 33.818 169.032C32.973 169.107 32.14 168.938 31.405 168.656C29.935 168.096 28.661 167.35 27.476 166.633C25.116 165.179 23.204 163.686 21.676 162.404C20.152 161.114 19.036 160.003 18.287 159.235C17.948 158.863 17.675 158.564 17.46 158.329C17.273 158.121 17.183 158.009 17.192 158Z" fill="#263238"/>
<path d="M26.695 84.4766C26.602 84.5086 26.221 83.3196 25.258 81.5786C24.784 80.7046 24.125 79.7186 23.316 78.6876C22.486 77.6726 21.493 76.6236 20.336 75.6466C19.167 74.6846 17.955 73.8976 16.807 73.2636C15.647 72.6536 14.558 72.1836 13.613 71.8746C11.727 71.2406 10.489 71.0806 10.504 70.9836C10.509 70.9476 10.819 70.9656 11.381 71.0306C11.944 71.0826 12.75 71.2466 13.724 71.5236C14.702 71.7926 15.831 72.2376 17.031 72.8386C18.219 73.4636 19.471 74.2596 20.67 75.2456C21.856 76.2466 22.865 77.3346 23.694 78.3896C24.502 79.4626 25.143 80.4926 25.584 81.4056C26.033 82.3136 26.339 83.0766 26.492 83.6206C26.656 84.1636 26.729 84.4656 26.695 84.4766Z" fill="#263238"/>
<g opacity="0.3">
<path d="M74.422 99.3085C74.752 100.021 75.928 99.5786 76.066 99.0246C76.204 98.4706 75.917 97.9095 75.654 97.4035C73.791 93.8215 72.666 89.8585 72.369 85.8315C72.053 90.7185 72.57 94.7765 74.422 99.3085Z" fill="black"/>
</g>
<g opacity="0.3">
<path d="M14.25 132.584C13.367 129.791 14.698 126.465 17.264 125.052C17.918 124.692 18.658 124.444 19.403 124.499C21.024 124.617 22.185 126.058 23.136 127.375C21.341 126.837 19.323 127.092 17.718 128.061C16.113 129.029 14.946 130.696 14.585 132.535" fill="black"/>
</g>
<path d="M92.3803 72.1094C92.4493 72.1554 91.8583 73.0974 91.0243 74.6774C90.1883 76.2554 89.1483 78.4974 88.3023 81.0844C87.4633 83.6744 86.9843 86.0994 86.7323 87.8674C86.4773 89.6354 86.4013 90.7444 86.3183 90.7414C86.2583 90.7404 86.2033 89.6224 86.3673 87.8234C86.5283 86.0264 86.9553 83.5514 87.8073 80.9224C88.6643 78.2964 89.7753 76.0444 90.7033 74.4964C91.6293 72.9464 92.3303 72.0744 92.3803 72.1094Z" fill="#263238"/>
<g opacity="0.3">
<path d="M85.7703 97.5024C85.2323 98.0564 85.0863 102.715 85.0863 102.715C85.0953 108.34 85.4453 110.809 85.4543 116.434C85.4583 118.757 85.4573 121.114 84.8373 123.352C84.5083 124.54 84.0113 125.672 83.5153 126.8C82.8883 128.228 82.2533 129.668 81.3383 130.93C80.5723 131.986 79.6263 132.896 78.7013 133.816C74.2603 138.236 70.2073 143.046 66.6033 148.171L64.4043 151.394L86.2223 130.925L87.2973 128.217L87.3513 127.9L85.7703 97.5024Z" fill="black"/>
</g>
<path d="M93.2846 67.7256C93.2846 67.7256 96.7206 69.0176 98.5136 76.6846C100.584 85.5386 103.296 100.267 103.712 105.838C104.062 110.529 108.669 127.673 105.107 135.219C101.545 142.766 84.3206 166.074 77.5226 166.821L74.6876 166.102L71.7086 166.612L63.3516 156.996L64.0816 154.244C64.0816 154.244 63.1366 152.711 64.1236 151.344C65.1106 149.977 86.4216 129.953 86.4216 129.953C86.4216 129.953 85.6086 129.849 85.4346 128.468C85.1336 126.09 87.2046 126.176 87.2046 126.176L85.8296 105.226L93.2846 67.7256Z" fill="#27DEBF"/>
<path d="M94.5776 132.44C94.4856 132.569 92.9146 131.443 90.6836 130.74C88.4596 130.013 86.5266 130.015 86.5266 129.856C86.5036 129.728 88.5136 129.486 90.8426 130.244C93.1766 130.982 94.6706 132.349 94.5776 132.44Z" fill="#263238"/>
<path d="M98.8824 129.304C98.7844 129.443 96.7004 127.421 93.3604 126.556C90.0334 125.636 87.2194 126.346 87.2034 126.177C87.1874 126.12 87.8584 125.861 89.0074 125.716C90.1514 125.568 91.7794 125.596 93.4954 126.053C95.2094 126.515 96.6334 127.304 97.5504 128.004C98.4724 128.702 98.9244 129.263 98.8824 129.304Z" fill="#263238"/>
<path d="M86.5267 129.857C86.5067 129.907 86.1717 129.878 85.7337 129.549C85.5187 129.383 85.2977 129.111 85.1777 128.751C85.0577 128.391 85.0627 127.967 85.1647 127.565C85.2367 127.296 85.3347 127.063 85.4707 126.835L85.4467 126.886C85.7577 126.165 86.4147 126.03 86.7757 125.996C87.1697 125.971 87.3867 126.086 87.3747 126.139C87.3647 126.203 87.1507 126.207 86.8327 126.31C86.5317 126.404 86.0547 126.634 85.9227 127.046L85.9177 127.061L85.8987 127.097C85.8117 127.262 85.7227 127.482 85.6667 127.697C85.4777 128.369 85.6767 128.949 85.9847 129.282C86.2897 129.62 86.5657 129.78 86.5267 129.857Z" fill="#263238"/>
<path d="M85.5587 96.4795C85.5947 96.4765 85.6587 96.8905 85.7457 97.6405C85.8337 98.3905 85.9337 99.4785 86.0397 100.824C86.2537 103.514 86.4617 107.235 86.6417 111.346C86.8147 115.397 86.9707 119.06 87.0907 121.872C87.1417 123.133 87.1847 124.2 87.2187 125.062C87.2427 125.817 87.2387 126.235 87.2027 126.238C87.1667 126.241 87.1027 125.828 87.0157 125.077C86.9277 124.327 86.8277 123.24 86.7217 121.894C86.5077 119.204 86.2997 115.481 86.1197 111.369C85.9467 107.319 85.7907 103.656 85.6707 100.844C85.6197 99.5835 85.5767 98.5175 85.5427 97.6535C85.5197 96.9005 85.5237 96.4815 85.5587 96.4795Z" fill="#263238"/>
<path d="M86.8716 129.713C86.8826 129.725 86.7006 129.903 86.3436 130.231C85.9516 130.585 85.4256 131.06 84.7646 131.657C83.3566 132.934 81.3736 134.732 78.9176 136.96C76.4526 139.231 73.5246 141.977 70.3016 145.118C68.6916 146.688 67.0006 148.358 65.2686 150.111C64.8506 150.55 64.4476 151.011 64.1986 151.54C63.9346 152.068 63.8976 152.643 64.0166 153.251C64.1156 153.862 64.3466 154.487 64.3266 155.216C64.3066 155.891 64.0476 156.744 63.2556 157.073L63.3546 156.664C64.7386 158.246 66.1906 159.905 67.6676 161.594C69.1076 163.243 70.5236 164.864 71.9016 166.442L71.6646 166.358C72.6726 166.187 73.6656 166.018 74.6446 165.851L74.6816 165.845L74.7136 165.849C76.0196 166.009 77.1036 166.612 78.2346 166.417C79.3596 166.28 80.3786 165.692 81.2756 165.022C83.0576 163.633 84.6076 162.051 86.0496 160.569C88.9126 157.562 91.2596 154.704 93.1886 152.306C95.1146 149.905 96.6186 147.954 97.6596 146.619C98.1616 145.98 98.5596 145.473 98.8596 145.091C99.1366 144.746 99.2866 144.57 99.2996 144.579C99.3126 144.588 99.1866 144.782 98.9326 145.145C98.6496 145.54 98.2736 146.065 97.8016 146.725C96.8046 148.094 95.3416 150.076 93.4466 152.509C91.5496 154.938 89.2276 157.828 86.3706 160.873C84.9236 162.38 83.3976 163.963 81.5656 165.407C80.6406 166.103 79.5606 166.748 78.2956 166.909C77.0006 167.12 75.7996 166.471 74.6636 166.353L74.7316 166.351C73.7536 166.52 72.7606 166.691 71.7526 166.864L71.6106 166.889L71.5156 166.78C70.1356 165.203 68.7186 163.583 67.2776 161.936C65.8016 160.246 64.3516 158.586 62.9686 157.003L62.7256 156.725L63.0676 156.594C63.5616 156.405 63.8016 155.786 63.8176 155.197C63.8426 154.611 63.6296 153.988 63.5196 153.337C63.3866 152.69 63.4336 151.93 63.7486 151.324C64.0426 150.709 64.4826 150.22 64.9146 149.768C66.6656 148.009 68.3606 146.353 69.9856 144.79C73.2336 141.666 76.1906 138.946 78.6886 136.707C81.1886 134.469 83.2266 132.712 84.6436 131.517C85.3296 130.948 85.8746 130.496 86.2816 130.158C86.6586 129.854 86.8606 129.701 86.8716 129.713Z" fill="#263238"/>
<path d="M86.3663 117.706C86.3643 117.85 72.7333 117.77 55.9253 117.529C39.1113 117.287 25.4863 116.975 25.4883 116.831C25.4903 116.687 39.1183 116.767 55.9323 117.009C72.7413 117.249 86.3683 117.562 86.3663 117.706Z" fill="#263238"/>
<path d="M70.7208 125.954C70.7388 125.957 70.7298 126.09 70.6968 126.34C70.6578 126.589 70.6218 126.962 70.5128 127.43C70.3278 128.372 69.9608 129.721 69.3138 131.318C68.0508 134.497 65.3968 138.686 61.0878 141.79C56.7758 144.891 51.9598 146.078 48.5438 146.267C46.8238 146.374 45.4288 146.293 44.4758 146.169C43.9978 146.123 43.6328 146.039 43.3838 145.997C43.1358 145.948 43.0078 145.915 43.0098 145.897C43.0188 145.783 45.1238 146.202 48.5138 145.9C51.8728 145.62 56.5668 144.399 60.7828 141.367C64.9938 138.333 67.6418 134.27 68.9738 131.173C70.3388 128.056 70.6098 125.926 70.7208 125.954Z" fill="#263238"/>
<path d="M41.5408 167.746C41.4518 167.855 40.8828 167.535 40.3688 166.936C39.8528 166.338 39.6208 165.729 39.7428 165.657C39.8678 165.581 40.2788 166.037 40.7638 166.597C41.2458 167.159 41.6348 167.633 41.5408 167.746Z" fill="#263238"/>
<path d="M45.3591 164.768C45.2431 164.854 44.8131 164.469 44.3981 163.909C43.9831 163.349 43.7401 162.826 43.8561 162.74C43.9711 162.654 44.4021 163.039 44.8171 163.599C45.2311 164.159 45.4741 164.682 45.3591 164.768Z" fill="#263238"/>
<path d="M67.4777 156.748C67.5437 156.878 66.9717 157.297 66.2577 157.776C65.5417 158.253 64.9367 158.622 64.8407 158.511C64.7477 158.404 65.2217 157.84 65.9677 157.343C66.7127 156.844 67.4147 156.621 67.4777 156.748Z" fill="#263238"/>
<path d="M70.3147 159.538C70.4337 159.611 70.0877 160.372 69.3637 161.082C68.6427 161.796 67.8767 162.13 67.8057 162.009C67.7277 161.884 68.3247 161.378 68.9987 160.711C69.6757 160.047 70.1907 159.457 70.3147 159.538Z" fill="#263238"/>
<path d="M73.0333 162.864C73.1373 162.96 72.6963 163.598 71.9573 164.183C71.2203 164.771 70.4993 165.055 70.4293 164.933C70.3553 164.807 70.9293 164.337 71.6333 163.775C72.3403 163.217 72.9273 162.764 73.0333 162.864Z" fill="#263238"/>
<path d="M34.2368 56.4354C34.3848 56.3774 35.5788 59.3824 37.6188 62.7844C39.6418 66.1974 41.7168 68.6764 41.5958 68.7784C41.5448 68.8224 40.9598 68.2574 40.1198 67.2474C39.2798 66.2394 38.2008 64.7734 37.1718 63.0504C36.1458 61.3264 35.3688 59.6804 34.8818 58.4614C34.3938 57.2424 34.1748 56.4594 34.2368 56.4354Z" fill="#263238"/>
<path d="M94.5716 190.768C94.5716 190.786 94.2806 190.801 93.7266 190.813C93.1256 190.82 92.3186 190.829 91.3036 190.84C89.1486 190.86 86.1186 190.888 82.3956 190.922C74.8746 191.013 64.4866 191.295 53.0126 191.645C41.5346 191.995 31.1386 192.219 23.6126 192.216C19.8496 192.217 16.8046 192.19 14.7006 192.133C13.6856 192.103 12.8786 192.08 12.2786 192.062C11.7246 192.04 11.4346 192.02 11.4346 192.002C11.4346 191.984 11.7256 191.969 12.2796 191.957C12.8806 191.95 13.6876 191.941 14.7016 191.93C16.8566 191.91 19.8866 191.882 23.6096 191.847C31.1306 191.756 41.5196 191.474 52.9976 191.124C64.4716 190.774 74.8666 190.55 82.3926 190.553C86.1556 190.552 89.2006 190.579 91.3046 190.636C92.3196 190.666 93.1266 190.689 93.7266 190.707C94.2806 190.73 94.5716 190.75 94.5716 190.768Z" fill="#263238"/>
<path d="M73.8533 58.0746C73.7343 58.1776 72.5113 56.7796 70.5933 55.6036C68.6873 54.4066 66.8923 53.9316 66.9323 53.7786C66.9443 53.6486 68.8723 53.9106 70.8683 55.1616C72.8743 56.3956 73.9643 58.0066 73.8533 58.0746Z" fill="#27DEBF"/>
<path d="M67.3757 168.577C67.7507 169.301 68.6627 169.579 69.4777 169.548C70.2927 169.517 71.0837 169.254 71.8977 169.209C72.7117 169.164 73.6267 169.406 74.0397 170.109C74.3667 170.666 74.2907 171.397 73.9717 171.959C73.6527 172.521 73.1257 172.937 72.5677 173.264C69.9027 174.829 66.2487 174.477 63.9297 172.433" fill="#B78876"/>
<path d="M49.0459 180.997C51.3979 183.345 53.9949 185.448 56.7789 187.262C57.3939 187.663 58.0929 188.066 58.8179 187.947C59.5429 187.828 60.1199 186.885 59.6339 186.334C60.3779 186.931 61.5249 186.958 62.2969 186.397C63.0289 185.866 63.3629 184.85 63.1079 183.985C63.0909 183.927 63.1409 183.88 63.1969 183.901C63.9109 184.173 64.7509 184.152 65.3959 183.746C66.0819 183.314 66.4759 182.413 66.2159 181.644C66.9569 182.649 68.7359 182.251 69.3069 181.141C69.8779 180.031 69.4799 178.634 68.7239 177.641C67.9679 176.648 66.9069 175.941 65.9539 175.136C64.9999 174.331 64.1019 173.34 63.8749 172.113" fill="#B78876"/>
<path d="M59.949 186.747C59.895 186.87 58.55 186.312 57.312 185.053C56.064 183.802 55.52 182.453 55.643 182.4C55.778 182.327 56.498 183.503 57.682 184.687C58.854 185.882 60.023 186.613 59.949 186.747Z" fill="#AA6550"/>
<path d="M63.6861 184.431C63.6121 184.548 62.4541 183.922 61.3141 182.786C60.1681 181.655 59.5321 180.503 59.6471 180.429C59.7701 180.344 60.5741 181.327 61.6801 182.416C62.7791 183.512 63.7701 184.307 63.6861 184.431Z" fill="#AA6550"/>
<path d="M66.9492 182.126C66.8772 182.244 65.7672 181.669 64.6742 180.602C63.5762 179.54 62.9712 178.446 63.0862 178.371C63.2082 178.285 63.9802 179.208 65.0372 180.229C66.0872 181.255 67.0312 182.001 66.9492 182.126Z" fill="#AA6550"/>
<path d="M42.4853 158.399C42.4853 158.399 42.1873 157.124 45.4703 157.536C48.7533 157.949 50.2213 158.266 53.9103 158.076C57.5993 157.885 63.5833 156.834 63.5833 156.834L73.2113 165.307C73.2113 165.307 63.3633 173.959 60.4173 175.5C57.4713 177.041 51.4723 180.885 48.0583 180.701C45.4633 180.561 45.2303 179.27 45.2303 179.27C45.2303 179.27 42.6973 177.528 43.0743 176.681C43.0743 176.681 40.0663 176.516 40.6303 174.209C40.6303 174.209 38.4863 173.813 38.1383 172.589C37.7903 171.366 39.4093 169.927 40.0323 169.31C41.0333 168.318 49.7963 161.887 49.8343 161.706C49.8343 161.706 42.3473 160.964 42.4853 158.399Z" fill="#B78876"/>
<path d="M48.6981 167.752C48.7861 167.866 47.0221 169.373 44.7601 171.117C42.4971 172.862 40.5912 174.183 40.5032 174.069C40.4152 173.955 42.1782 172.449 44.4422 170.704C46.7042 168.96 48.6101 167.638 48.6981 167.752Z" fill="#AA6550"/>
<path d="M53.3352 168.65C53.3862 168.692 52.9742 169.313 52.1842 170.22C51.3962 171.127 50.2122 172.305 48.7642 173.439C47.3142 174.57 45.8852 175.435 44.8142 175.98C43.7422 176.527 43.0402 176.777 43.0122 176.717C42.9402 176.573 45.5972 175.267 48.4432 173.027C51.3032 170.808 53.2132 168.545 53.3352 168.65Z" fill="#AA6550"/>
<path d="M57.4773 171.617C57.5263 171.653 57.0843 172.372 56.1723 173.382C55.2643 174.391 53.8463 175.657 52.0633 176.733C50.2763 177.805 48.4943 178.464 47.1773 178.794C45.8583 179.127 45.0163 179.18 45.0073 179.12C44.9623 178.954 48.3053 178.414 51.7953 176.286C55.3083 174.201 57.3523 171.5 57.4773 171.617Z" fill="#AA6550"/>
<path d="M69.2311 168.863C69.2551 168.89 68.9961 169.156 68.5071 169.615C68.0151 170.069 67.2871 170.71 66.3551 171.463C64.4971 172.974 61.8121 174.93 58.6521 176.778C57.0731 177.703 55.5301 178.518 54.1031 179.207C52.6831 179.908 51.3301 180.448 50.1341 180.686C48.9391 180.939 47.9241 180.865 47.2671 180.689C46.6061 180.511 46.2901 180.296 46.3011 180.276C46.3121 180.17 47.7381 180.935 50.0541 180.327C51.1961 180.052 52.4931 179.497 53.8911 178.777C55.2971 178.069 56.8211 177.247 58.3891 176.329C61.5251 174.495 64.2231 172.602 66.1291 171.173C68.0401 169.746 69.1781 168.801 69.2311 168.863Z" fill="#AA6550"/>
<path d="M51.5946 0.736522C41.9766 -0.151478 33.4906 7.01252 32.7716 16.6455C32.1726 24.6615 31.6096 33.3345 31.5996 37.7075C31.5806 47.0935 40.9456 48.6875 40.9456 48.6875C40.9456 48.6875 40.6766 51.4645 40.3676 54.9105C39.7456 61.8505 44.9786 67.9375 51.9336 68.3565C58.7526 68.7675 64.6116 63.5695 65.0166 56.7505L67.2586 18.9695C67.8096 9.66252 60.8786 1.59452 51.5946 0.736522Z" fill="#B78876"/>
<path d="M40.9317 48.5525C40.9317 48.5525 46.8557 49.1205 53.2157 45.2515C53.2157 45.2515 50.0717 52.0345 40.7207 51.0545L40.9317 48.5525Z" fill="#AA6550"/>
<path d="M66.3467 22.1815C66.5077 22.1145 72.8217 20.3675 72.5247 26.7795C72.2277 33.1915 65.8507 31.5705 65.8477 31.3865C65.8457 31.2025 66.3467 22.1815 66.3467 22.1815Z" fill="#B78876"/>
<path d="M67.92 29.0484C67.949 29.0294 68.028 29.1314 68.213 29.2274C68.393 29.3204 68.707 29.3934 69.047 29.2834C69.736 29.0664 70.356 28.0174 70.441 26.8624C70.485 26.2794 70.388 25.7184 70.203 25.2484C70.029 24.7704 69.741 24.4284 69.402 24.3524C69.066 24.2584 68.815 24.4514 68.728 24.6274C68.634 24.8024 68.669 24.9324 68.634 24.9424C68.615 24.9574 68.501 24.8284 68.565 24.5664C68.598 24.4404 68.68 24.2924 68.836 24.1764C68.996 24.0584 69.225 24.0054 69.461 24.0414C69.954 24.0984 70.378 24.5744 70.582 25.0904C70.813 25.6094 70.935 26.2414 70.887 26.8954C70.786 28.1854 70.069 29.3644 69.129 29.5894C68.673 29.6864 68.302 29.5324 68.115 29.3724C67.924 29.2044 67.897 29.0594 67.92 29.0484Z" fill="#AA6550"/>
<path d="M36.4175 21.7593C36.3825 22.4663 36.9525 23.0793 37.6905 23.1303C38.4265 23.1803 39.0545 22.6493 39.0895 21.9423C39.1245 21.2353 38.5545 20.6213 37.8185 20.5703C37.0795 20.5193 36.4525 21.0523 36.4175 21.7593Z" fill="#263238"/>
<path d="M35.1417 20.0235C35.3047 20.2005 36.3317 19.4635 37.7737 19.4885C39.2147 19.4925 40.2617 20.2495 40.4207 20.0755C40.4987 19.9985 40.3337 19.6805 39.8777 19.3385C39.4287 18.9975 38.6597 18.6615 37.7617 18.6525C36.8637 18.6445 36.1027 18.9645 35.6637 19.2965C35.2157 19.6305 35.0607 19.9435 35.1417 20.0235Z" fill="#263238"/>
<path d="M50.8668 22.1557C50.8318 22.8627 51.4018 23.4757 52.1398 23.5257C52.8768 23.5757 53.5028 23.0447 53.5388 22.3377C53.5738 21.6307 53.0038 21.0167 52.2678 20.9657C51.5288 20.9157 50.9028 21.4487 50.8668 22.1557Z" fill="#263238"/>
<path d="M49.313 20.4966C49.477 20.6736 50.5041 19.9366 51.9451 19.9616C53.3861 19.9656 54.434 20.7226 54.593 20.5486C54.671 20.4716 54.508 20.1536 54.05 19.8116C53.601 19.4706 52.8321 19.1346 51.9341 19.1256C51.0361 19.1176 50.276 19.4376 49.836 19.7696C49.389 20.1036 49.233 20.4176 49.313 20.4966Z" fill="#263238"/>
<path d="M43.9258 31.1153C43.9338 31.0333 43.0398 30.8653 41.5898 30.6593C41.2228 30.6163 40.8748 30.5373 40.8168 30.2853C40.7338 30.0183 40.8938 29.6233 41.0788 29.1973C41.4378 28.3113 41.8138 27.3823 42.2078 26.4093C43.7778 22.4383 44.9188 19.1713 44.7588 19.1093C44.5978 19.0473 43.1958 22.2163 41.6258 26.1863C41.2478 27.1653 40.8858 28.0993 40.5418 28.9923C40.3968 29.4083 40.1498 29.8793 40.3298 30.4343C40.4248 30.7113 40.6928 30.9143 40.9278 30.9813C41.1628 31.0563 41.3698 31.0633 41.5518 31.0773C43.0118 31.1783 43.9188 31.1973 43.9258 31.1153Z" fill="#263238"/>
<path d="M47.6499 15.2746C47.8179 15.6566 49.2419 15.3766 50.9439 15.4686C52.6479 15.5266 54.0419 15.9316 54.2429 15.5656C54.3319 15.3916 54.0699 15.0386 53.4949 14.6956C52.9239 14.3536 52.0299 14.0506 51.0089 14.0046C49.9879 13.9606 49.0709 14.1826 48.4719 14.4726C47.8679 14.7646 47.5759 15.0926 47.6499 15.2746Z" fill="#263238"/>
<path d="M34.6029 14.7104C34.8519 15.0414 35.8499 14.7154 37.0449 14.7174C38.2399 14.6764 39.2479 14.9694 39.4859 14.6294C39.5899 14.4644 39.4359 14.1344 38.9979 13.8174C38.5669 13.5024 37.8419 13.2394 37.0209 13.2524C36.1999 13.2664 35.4839 13.5534 35.0639 13.8824C34.6359 14.2134 34.4929 14.5484 34.6029 14.7104Z" fill="#263238"/>
<path d="M67.084 21.8966C67.153 22.8796 67.103 24.0136 66.881 24.9736C66.658 25.9336 66.097 26.8646 65.209 27.2926C63.586 28.0736 61.581 26.8116 60.883 25.1516C60.185 23.4916 60.412 21.6076 60.603 19.8166C60.864 17.3736 61.034 14.8906 60.598 12.4726C60.163 10.0546 59.065 7.68157 57.164 6.12557C55.263 4.56957 52.487 3.97757 50.267 5.02957C48.897 5.67857 47.856 6.86056 46.575 7.67056C45.423 8.39956 44.027 8.82156 42.683 8.59056C41.339 8.36056 39.519 7.41557 39.747 6.07157C40.279 2.93957 38.105 5.56656 38.248 5.03456C38.487 4.14656 40.292 2.62456 41.041 2.07456C42.424 1.05856 43.888 0.571569 45.353 0.314569C49.417 -0.398431 53.79 0.116565 57.602 1.69756C61.414 3.27756 64.761 6.22456 66.32 10.0446C68.122 14.4626 67.841 17.1396 67.233 21.8986" fill="#263238"/>
<path d="M46.9775 35.3817C46.9925 35.6687 45.7945 35.9667 44.3015 36.0477C42.8075 36.1277 41.5855 35.9597 41.5695 35.6727C41.5545 35.3857 42.7515 35.0877 44.2455 35.0077C45.7385 34.9267 46.9615 35.0947 46.9775 35.3817Z" fill="#263238"/>
<path d="M67.0692 22.4605C67.0512 22.5255 66.2932 22.3905 65.1052 22.0315C63.9162 21.6765 62.3112 21.0795 60.5672 20.3715C58.9332 19.7145 57.4502 19.1175 56.1032 18.5765C54.9572 18.1315 54.2392 17.8725 54.2592 17.7985C54.2762 17.7335 55.0352 17.8685 56.2232 18.2275C57.4122 18.5825 59.0172 19.1795 60.7622 19.8885C62.3952 20.5455 63.8782 21.1415 65.2252 21.6835C66.3722 22.1275 67.0902 22.3865 67.0692 22.4605Z" fill="#263238"/>
<path d="M40.3869 16.9196C41.2389 17.0206 41.9369 17.6696 42.0649 18.5176C42.3189 20.1986 42.0359 21.9626 41.2419 23.4686C40.2159 25.4126 38.3519 26.8966 36.2269 27.4596C35.0079 27.7826 33.6319 27.7906 32.5669 27.1166C31.0739 26.1726 30.6139 24.2216 30.4829 22.4596C30.3879 21.1746 30.4219 19.7966 31.1289 18.7186C32.0319 17.3426 33.8029 16.8126 35.4459 16.7236C37.0899 16.6336 40.3869 16.9196 40.3869 16.9196Z" fill="#263238"/>
<path d="M47.9269 17.1516C47.0629 17.2286 46.3379 17.8646 46.1839 18.7186C45.8779 20.4106 46.1129 22.2026 46.8719 23.7476C47.8529 25.7436 49.6939 27.2976 51.8259 27.9286C53.0489 28.2906 54.4389 28.3386 55.5369 27.6876C57.0739 26.7766 57.5959 24.8176 57.7789 23.0406C57.9129 21.7436 57.9179 20.3506 57.2349 19.2396C56.3619 17.8226 54.5869 17.2346 52.9279 17.0966C51.2689 16.9586 47.9269 17.1516 47.9269 17.1516Z" fill="#263238"/>
<path d="M49.4432 17.4174C49.4402 17.5614 46.9762 17.6284 43.9412 17.5684C40.9042 17.5074 38.4462 17.3424 38.4492 17.1984C38.4522 17.0544 40.9152 16.9874 43.9522 17.0474C46.9872 17.1074 49.4462 17.2734 49.4432 17.4174Z" fill="#263238"/>
<path d="M66.7026 59.9747C66.6936 59.9747 66.6846 59.9227 66.6746 59.8187C66.6656 59.7147 66.6646 59.5587 66.6926 59.3557C66.7396 58.9487 66.9426 58.3687 67.3116 57.6967C67.6776 57.0217 68.1586 56.2307 68.4396 55.1987C68.7436 54.1767 68.8726 52.9557 68.8646 51.6067C68.8656 50.2487 68.6936 48.7887 68.5946 47.1587C68.5896 46.7457 68.6366 46.2717 68.9046 45.8647C69.1496 45.4767 69.6416 45.1137 70.2176 45.2597C70.4816 45.3337 70.7106 45.5017 70.8566 45.7487C71.0116 45.9937 71.0116 46.3587 70.8376 46.6127C70.4296 47.1337 69.7966 47.0837 69.3256 46.9057C68.3756 46.4567 67.8486 45.3307 68.1316 44.2887C68.2676 43.7797 68.5766 43.3107 69.0216 42.9937C69.2476 42.8357 69.5086 42.7157 69.8076 42.6827C70.0966 42.6477 70.4566 42.7257 70.6896 42.9817C70.9066 43.2187 71.0406 43.5697 70.9006 43.9367C70.7386 44.3127 70.3496 44.4307 70.0676 44.4447C69.4726 44.4747 68.9086 44.2017 68.5226 43.7817C68.1356 43.3657 67.8996 42.7677 67.9896 42.1647C68.0786 41.5647 68.4616 41.0507 68.9626 40.7457C69.3826 40.4857 69.8986 40.3677 70.4086 40.4867C70.6646 40.5537 70.8946 40.6827 71.0846 40.8817C71.2726 41.0697 71.4096 41.4067 71.3146 41.7157C71.2326 42.0287 70.9506 42.2367 70.7076 42.3117C70.4566 42.3947 70.2076 42.4057 69.9636 42.3747C69.4876 42.2997 69.0676 42.0977 68.7066 41.8157C67.9966 41.2657 67.5416 40.2647 67.8886 39.3567C68.2116 38.5117 69.1096 37.8697 70.0466 38.0787C70.4966 38.1867 70.9266 38.5097 71.0056 39.0487C71.0376 39.3147 70.9166 39.5927 70.7316 39.7577C70.5476 39.9267 70.3216 40.0187 70.0846 40.0417C69.6056 40.0727 69.2146 39.8457 68.9116 39.6077C68.6036 39.3627 68.3426 39.0597 68.1696 38.7027C67.7976 37.9987 67.9596 37.0217 68.6326 36.5637C69.3206 36.0747 70.3676 36.4707 70.5006 37.2977L70.5226 37.4367L70.4026 37.5017C69.4526 38.0167 68.3176 37.4847 67.9756 36.6307C67.7936 36.1947 67.8746 35.7027 68.0836 35.3387C68.2956 34.9707 68.6176 34.6907 68.9856 34.5427C69.3506 34.3867 69.7746 34.3877 70.1196 34.5357C70.4696 34.6627 70.7696 35.0607 70.6756 35.4527C70.6416 35.6437 70.4976 35.8247 70.3126 35.8877C70.1286 35.9537 69.9436 35.9247 69.7926 35.8597C69.4726 35.7277 69.3186 35.4097 69.2586 35.1557C69.0816 34.1137 69.1696 33.3207 69.2306 32.7797C69.3056 32.2417 69.3896 31.9667 69.4076 31.9707C69.4876 31.9657 69.1416 33.1307 69.4826 35.0957C69.5476 35.3217 69.6716 35.5407 69.8916 35.6217C70.1106 35.7167 70.3646 35.6337 70.3966 35.3977C70.5016 34.8827 69.6686 34.5647 69.1116 34.8477C68.5286 35.0847 68.0356 35.8337 68.3206 36.4917C68.5696 37.1377 69.5346 37.5457 70.1896 37.1507L70.0916 37.3547C70.0366 36.8887 69.2956 36.5847 68.8786 36.9227C68.4236 37.2437 68.2786 37.9537 68.5786 38.5027C68.8486 39.0347 69.4756 39.5937 70.0386 39.5677C70.3136 39.5437 70.5606 39.3217 70.5206 39.0987C70.4996 38.8687 70.2236 38.6107 69.9306 38.5567C69.3136 38.4037 68.5926 38.8887 68.3576 39.5337C68.1076 40.1727 68.4366 40.9627 69.0226 41.4137C69.3136 41.6417 69.6726 41.8087 70.0296 41.8627C70.3726 41.9147 70.7746 41.7937 70.8126 41.5737C70.8956 41.3707 70.6066 41.0657 70.2766 40.9897C69.9446 40.9117 69.5486 40.9877 69.2326 41.1887C68.8476 41.4207 68.5616 41.8187 68.5016 42.2397C68.4366 42.6597 68.6026 43.1077 68.9016 43.4297C69.1976 43.7547 69.6256 43.9497 70.0336 43.9307C70.4656 43.9197 70.5526 43.6167 70.3156 43.3297C70.1156 43.0947 69.6346 43.1637 69.3106 43.4057C68.9686 43.6467 68.7186 44.0177 68.6106 44.4177C68.3686 45.2117 68.8256 46.1407 69.5096 46.4627C69.8396 46.6097 70.3056 46.5717 70.4456 46.3517C70.6146 46.1347 70.4036 45.7847 70.0936 45.6997C69.8126 45.6137 69.4606 45.8137 69.2766 46.1077C69.0786 46.3977 69.0256 46.7757 69.0266 47.1547C69.1036 48.7227 69.2576 50.2367 69.2326 51.6067C69.2166 52.9797 69.0586 54.2347 68.7176 55.2827C68.3996 56.3417 67.8726 57.1497 67.4886 57.7957C67.0976 58.4447 66.8746 58.9867 66.7956 59.3747C66.7146 59.7607 66.7266 59.9737 66.7026 59.9747Z" fill="#E0E0E0"/>
<path d="M70.3886 29.2867C70.3246 28.8057 70.2166 28.3197 69.9626 27.9057C69.7086 27.4917 69.2866 27.1577 68.8036 27.1127C68.2646 27.0627 67.7136 27.4127 67.5306 27.9217C67.3526 28.4157 67.5816 29.0267 68.0036 29.3407C68.0136 29.3487 68.0206 29.3557 68.0306 29.3627C68.0336 29.3647 68.0366 29.3687 68.0406 29.3707L68.0366 29.3667C68.0746 29.3937 68.1156 29.4197 68.1476 29.4397C68.3146 29.5457 68.5506 29.5587 68.7186 29.6627C69.0626 29.8757 69.1736 30.3287 69.1576 30.7327C69.1416 31.1367 69.0316 31.5367 69.0616 31.9407C69.0836 32.2337 69.2506 32.5757 69.5446 32.5817C69.7996 32.5867 69.9796 32.3367 70.0856 32.1037C70.4826 31.2337 70.5156 30.2357 70.3886 29.2867Z" fill="#E0E0E0"/>
<path d="M40.8008 50.1986C40.8008 50.1986 38.7898 53.1466 38.6248 55.0626C38.5158 56.3306 39.3608 61.2636 39.9448 64.4546C40.2798 66.2866 40.9958 68.0246 42.0458 69.5636L43.3478 71.4706C45.2298 74.2266 46.7988 77.1836 48.0258 80.2866C50.5618 86.6996 54.8238 97.4976 54.9728 98.0146C55.1858 98.7526 56.8668 101.786 56.8668 101.786L59.1208 74.8316L65.9208 61.3556C66.5128 60.1826 66.8438 58.8956 66.8918 57.5836L67.0498 53.2576C67.1078 51.6726 66.5438 50.1286 65.4778 48.9546L65.1358 52.8486L53.8588 63.0936L40.7778 54.2916L40.8008 50.1986Z" fill="white"/>
<path d="M53.2858 63.1788C53.3458 63.2728 52.0228 63.6548 50.9288 65.4038C49.7928 67.0918 48.9348 69.8178 48.1908 72.8608C48.1148 73.1618 48.0408 73.4598 47.9708 73.7388L47.8698 74.1408L47.5538 73.8758C45.2768 71.9678 43.5278 69.9928 42.2638 68.5908C41.0108 67.1768 40.2628 66.2998 40.3118 66.2528C40.3618 66.2048 41.2018 66.9988 42.5228 68.3488C43.8528 69.6858 45.6418 71.6098 47.8838 73.4748L47.4668 73.6118C47.5368 73.3318 47.6108 73.0338 47.6858 72.7328C48.4318 69.6788 49.3618 66.9008 50.6258 65.1928C51.2428 64.3408 51.9038 63.7598 52.4348 63.4938C52.9528 63.2128 53.2828 63.1598 53.2858 63.1788Z" fill="#263238"/>
<path d="M61.3362 70.4426C61.4212 70.5006 60.3852 72.1726 58.7972 74.5696L58.3822 75.1956L58.3702 74.4346C58.3532 73.3396 58.0482 72.0916 57.6742 70.7686C57.0772 68.4576 56.5232 66.3736 55.6692 65.0926C54.8472 63.7966 53.9952 63.2686 54.0612 63.1896C54.0792 63.1626 54.3002 63.2716 54.6632 63.5296C55.0222 63.7916 55.5062 64.2336 55.9752 64.8866C56.9572 66.1866 57.5842 68.3366 58.1782 70.6336C58.5482 71.9506 58.8562 73.2546 58.8382 74.4396L58.4122 74.3046C60.0692 71.9566 61.2512 70.3846 61.3362 70.4426Z" fill="#263238"/>
<path d="M56.1754 99.9456C56.0314 99.9546 55.3894 91.7826 54.7394 81.6956C54.0904 71.6046 53.6804 63.4197 53.8234 63.4107C53.9674 63.4017 54.6094 71.5717 55.2594 81.6627C55.9094 91.7497 56.3194 99.9366 56.1754 99.9456Z" fill="#263238"/>
<path d="M30.9766 22.4714C30.8516 22.5324 30.4156 21.4334 30.8576 20.1244C31.2856 18.8104 32.2926 18.1894 32.3556 18.3134C32.4556 18.4284 31.7196 19.1394 31.3516 20.2884C30.9596 21.4294 31.1246 22.4384 30.9766 22.4714Z" fill="#E0E0E0"/>
<path d="M47.47 23.0368C47.364 23.1248 46.705 22.2748 46.711 21.0108C46.705 19.7468 47.364 18.8968 47.471 18.9848C47.604 19.0578 47.221 19.9078 47.232 21.0108C47.22 22.1138 47.603 22.9638 47.47 23.0368Z" fill="#E0E0E0"/>
</svg>
