<svg width="388" height="237" viewBox="0 0 388 237" fill="none" xmlns="http://www.w3.org/2000/svg">
<path d="M353.5 127C353.5 150.505 334.887 169.5 312 169.5C289.113 169.5 270.5 150.505 270.5 127C270.5 103.495 289.113 84.5 312 84.5C334.887 84.5 353.5 103.495 353.5 127Z" fill="white" stroke="#12B76A" stroke-width="3"/>
<g clip-path="url(#clip0_1_1339)">
<path d="M312 100.844C297.582 100.844 285.844 112.572 285.844 127C285.844 141.418 297.582 153.156 312 153.156C326.418 153.156 338.156 141.418 338.156 127C338.156 112.572 326.418 100.844 312 100.844ZM288.48 127C288.48 123.593 289.208 120.355 290.516 117.434L301.738 148.168C293.891 144.35 288.48 136.302 288.48 127ZM312 150.52C309.69 150.52 307.465 150.182 305.355 149.56L312.411 129.057L319.636 148.864C319.689 148.98 319.741 149.085 319.805 149.191C317.368 150.045 314.742 150.52 312 150.52ZM315.238 115.979C316.651 115.905 317.927 115.757 317.927 115.757C319.193 115.609 319.045 113.743 317.78 113.816C317.78 113.816 313.972 114.112 311.515 114.112C309.205 114.112 305.324 113.816 305.324 113.816C304.058 113.743 303.911 115.683 305.176 115.757C305.176 115.757 306.379 115.905 307.644 115.979L311.304 126.019L306.157 141.449L297.593 115.979C299.006 115.905 300.282 115.757 300.282 115.757C301.548 115.609 301.4 113.743 300.135 113.816C300.135 113.816 296.327 114.112 293.87 114.112C293.427 114.112 292.91 114.101 292.351 114.08C296.559 107.699 303.784 103.48 312 103.48C318.117 103.48 323.696 105.822 327.884 109.65C327.778 109.64 327.683 109.629 327.578 109.629C325.268 109.629 323.633 111.644 323.633 113.806C323.633 115.746 324.751 117.381 325.943 119.322C326.839 120.883 327.884 122.897 327.884 125.808C327.884 127.823 327.114 130.154 326.091 133.412L323.749 141.249L315.238 115.979ZM323.823 147.324L331.005 126.557C332.345 123.203 332.798 120.524 332.798 118.13C332.798 117.265 332.746 116.464 332.64 115.715C334.475 119.069 335.52 122.908 335.52 127C335.52 135.68 330.816 143.253 323.823 147.324Z" fill="black"/>
</g>
<g filter="url(#filter0_f_1_1339)">
<ellipse cx="246" cy="127" rx="43" ry="44" fill="white" fill-opacity="0.89"/>
</g>
<path d="M291 128C291 152.853 270.853 173 246 173C221.147 173 201 152.853 201 128C201 103.147 221.147 83 246 83C270.853 83 291 103.147 291 128ZM203.487 128C203.487 151.479 222.521 170.513 246 170.513C269.479 170.513 288.513 151.479 288.513 128C288.513 104.521 269.479 85.4874 246 85.4874C222.521 85.4874 203.487 104.521 203.487 128Z" fill="#F79009"/>
<g clip-path="url(#clip1_1_1339)">
<path d="M235.637 116.447C234.965 115.997 234.338 115.485 233.762 114.918C231.708 112.87 230.657 110.267 230.657 106.89V105.596C234.073 102.09 239.338 100 245.613 100C257.75 100 264.772 106.3 266.504 115.165H255.495C254.28 111.668 251.243 108.946 245.703 108.946C240.254 108.946 236.397 111.817 235.639 116.447H235.637ZM229.537 106.89C229.537 114.171 234.113 118.504 243.275 120.788L252.986 123C261.658 124.957 266.936 129.817 266.936 137.737C267.001 141.195 265.859 144.568 263.705 147.275C263.705 139.375 259.543 135.105 249.508 132.537L239.977 130.409C232.343 128.699 226.452 124.703 226.452 116.099C226.414 112.77 227.503 109.525 229.537 106.89ZM257.655 137.089C256.998 142.118 252.948 144.953 247.085 144.953C241.878 144.953 237.977 142.824 236.503 138.225H225.062C226.916 148.24 235.254 154 247.168 154C253.531 154 259.041 152.043 262.58 148.512V147.275C262.58 143.54 261.606 140.804 259.561 138.689C258.981 138.094 258.342 137.559 257.655 137.091V137.089Z" fill="black"/>
</g>
<g filter="url(#filter1_f_1_1339)">
<ellipse cx="182" cy="127" rx="43" ry="44" fill="white" fill-opacity="0.89"/>
</g>
<path d="M227 128C227 152.853 206.853 173 182 173C157.147 173 137 152.853 137 128C137 103.147 157.147 83 182 83C206.853 83 227 103.147 227 128ZM139.487 128C139.487 151.479 158.521 170.513 182 170.513C205.479 170.513 224.513 151.479 224.513 128C224.513 104.521 205.479 85.4874 182 85.4874C158.521 85.4874 139.487 104.521 139.487 128Z" fill="#FE7D54"/>
<g clip-path="url(#clip2_1_1339)">
<path d="M172.325 101C166.324 101 164.149 101.625 161.953 102.8C159.78 103.953 158.004 105.732 156.856 107.907C155.682 110.106 155.056 112.288 155.056 118.307V120.552C155.056 121 155.232 121.425 155.547 121.743L159.529 125.734C159.576 125.782 159.637 125.815 159.702 125.828C159.768 125.842 159.837 125.835 159.899 125.81C159.961 125.784 160.014 125.741 160.051 125.685C160.088 125.629 160.108 125.563 160.108 125.496V119.043C160.108 114.529 160.576 112.894 161.458 111.242C162.318 109.611 163.649 108.277 165.278 107.412C166.923 106.53 168.556 106.062 173.061 106.062H177.93C178.378 106.062 178.807 105.883 179.122 105.565L183.105 101.578C183.152 101.531 183.185 101.472 183.199 101.406C183.212 101.341 183.206 101.273 183.181 101.211C183.156 101.149 183.113 101.096 183.058 101.058C183.003 101.021 182.938 101 182.871 101H172.325ZM189.436 101C188.986 101 188.554 101.18 188.239 101.495L184.259 105.489C184.228 105.519 184.203 105.556 184.186 105.596C184.169 105.636 184.16 105.679 184.16 105.723C184.16 105.909 184.313 106.06 184.498 106.06H190.937C195.442 106.06 197.075 106.533 198.722 107.412C200.35 108.277 201.682 109.611 202.543 111.242C203.42 112.894 203.89 114.529 203.89 119.043V123.925C203.89 124.371 204.066 124.803 204.381 125.118L208.363 129.109C208.41 129.157 208.471 129.19 208.536 129.203C208.602 129.217 208.671 129.21 208.733 129.185C208.795 129.159 208.848 129.116 208.885 129.06C208.922 129.004 208.942 128.938 208.942 128.871V118.307C208.942 112.288 208.316 110.106 207.142 107.905C205.994 105.732 204.219 103.954 202.048 102.802C199.854 101.625 197.678 101 191.675 101H189.436ZM170.212 109.438C169.327 109.438 168.45 109.613 167.633 109.953C166.815 110.292 166.072 110.789 165.447 111.416C164.822 112.043 164.326 112.786 163.988 113.605C163.65 114.423 163.477 115.3 163.478 116.185V128.99C163.478 129.436 163.656 129.864 163.971 130.18L167.953 134.176C168 134.224 168.06 134.256 168.126 134.269C168.191 134.282 168.259 134.276 168.32 134.25C168.382 134.225 168.435 134.181 168.471 134.126C168.508 134.07 168.528 134.004 168.527 133.938V117.873C168.527 117.465 168.601 117.061 168.745 116.68C168.907 116.23 169.168 115.814 169.528 115.454L174.721 110.007C174.767 109.959 174.797 109.898 174.808 109.833C174.82 109.768 174.812 109.701 174.785 109.64C174.759 109.58 174.715 109.528 174.66 109.492C174.605 109.456 174.54 109.437 174.474 109.438H170.212ZM181.017 109.438C180.567 109.438 180.139 109.618 179.824 109.933L175.835 113.924C175.789 113.972 175.758 114.032 175.745 114.097C175.733 114.162 175.74 114.229 175.765 114.29C175.791 114.351 175.833 114.404 175.888 114.441C175.943 114.478 176.007 114.499 176.074 114.5H192.103C192.521 114.5 192.922 114.577 193.291 114.718C193.741 114.88 194.159 115.141 194.519 115.499L199.948 120.703C199.996 120.75 200.056 120.781 200.122 120.794C200.187 120.806 200.255 120.799 200.316 120.773C200.378 120.747 200.43 120.703 200.466 120.648C200.503 120.592 200.522 120.527 200.522 120.46V116.185C200.523 115.3 200.35 114.423 200.013 113.604C199.675 112.785 199.179 112.041 198.554 111.415C197.928 110.788 197.186 110.29 196.368 109.951C195.55 109.611 194.673 109.436 193.788 109.435L181.017 109.438ZM195.806 121.729C195.717 121.729 195.631 121.765 195.567 121.828C195.504 121.891 195.469 121.977 195.469 122.067V138.13C195.47 138.537 195.397 138.941 195.255 139.322C195.087 139.784 194.82 140.203 194.472 140.55L189.279 145.995C189.232 146.043 189.201 146.103 189.188 146.169C189.176 146.234 189.183 146.302 189.209 146.363C189.235 146.425 189.279 146.477 189.334 146.514C189.39 146.55 189.455 146.57 189.522 146.569H193.788C194.673 146.568 195.55 146.392 196.368 146.052C197.186 145.712 197.929 145.214 198.554 144.587C199.179 143.96 199.675 143.215 200.013 142.397C200.35 141.578 200.523 140.7 200.522 139.815V127.012C200.522 126.565 200.345 126.137 200.029 125.82L196.047 121.828C196.015 121.797 195.978 121.772 195.936 121.755C195.895 121.738 195.851 121.729 195.806 121.729ZM155.396 126.792C155.307 126.792 155.221 126.827 155.157 126.891C155.094 126.954 155.059 127.04 155.059 127.129V137.693C155.059 143.71 155.684 145.894 156.859 148.095C158.006 150.267 159.78 152.045 161.95 153.195C164.146 154.37 166.322 155 172.327 155H174.564C175.014 155 175.441 154.82 175.756 154.505L179.741 150.511C179.788 150.464 179.821 150.404 179.834 150.339C179.847 150.274 179.841 150.206 179.815 150.144C179.789 150.082 179.746 150.03 179.69 149.993C179.635 149.956 179.569 149.937 179.503 149.938H173.061C168.556 149.938 166.923 149.469 165.276 148.587C163.647 147.723 162.316 146.389 161.455 144.758C160.578 143.106 160.108 141.471 160.108 136.957V132.07C160.106 131.624 159.928 131.197 159.613 130.882L155.635 126.891C155.571 126.827 155.486 126.792 155.396 126.792ZM204.228 130.167C204.138 130.167 204.052 130.202 203.989 130.266C203.926 130.329 203.89 130.415 203.89 130.504V136.957C203.89 141.471 203.422 143.106 202.54 144.758C201.679 146.389 200.348 147.723 198.72 148.587C197.075 149.469 195.442 149.938 190.937 149.938H186.068C185.846 149.937 185.625 149.98 185.42 150.065C185.215 150.15 185.028 150.275 184.871 150.432L180.891 154.422C180.828 154.486 180.793 154.573 180.794 154.663C180.794 154.849 180.94 155 181.127 155H191.675C197.683 155 199.856 154.37 202.052 153.195C204.223 152.045 205.997 150.267 207.144 148.095C208.318 145.894 208.944 143.712 208.944 137.693V135.448C208.943 135.001 208.765 134.573 208.449 134.257L204.469 130.266C204.405 130.202 204.317 130.167 204.228 130.167ZM163.818 135.202C163.773 135.202 163.729 135.21 163.688 135.227C163.647 135.244 163.609 135.269 163.578 135.3C163.546 135.332 163.521 135.369 163.504 135.41C163.487 135.451 163.478 135.495 163.478 135.54V139.81C163.477 140.696 163.65 141.573 163.988 142.391C164.326 143.21 164.821 143.954 165.447 144.581C166.072 145.208 166.815 145.706 167.632 146.046C168.45 146.386 169.327 146.561 170.212 146.562H182.983C183.433 146.562 183.861 146.383 184.176 146.068L188.165 142.074C188.196 142.043 188.221 142.007 188.238 141.967C188.255 141.927 188.264 141.883 188.264 141.84C188.264 141.75 188.228 141.664 188.165 141.601C188.102 141.538 188.016 141.502 187.927 141.502H171.898C171.49 141.502 171.086 141.428 170.705 141.282C170.243 141.115 169.824 140.848 169.477 140.501L164.047 135.297C163.985 135.236 163.904 135.202 163.818 135.202Z" fill="black"/>
</g>
<g filter="url(#filter2_f_1_1339)">
<ellipse cx="119" cy="127" rx="43" ry="44" fill="white" fill-opacity="0.89"/>
</g>
<path d="M164 128C164 152.853 143.853 173 119 173C94.1472 173 74 152.853 74 128C74 103.147 94.1472 83 119 83C143.853 83 164 103.147 164 128ZM76.4874 128C76.4874 151.479 95.5209 170.513 119 170.513C142.479 170.513 161.513 151.479 161.513 128C161.513 104.521 142.479 85.4874 119 85.4874C95.5209 85.4874 76.4874 104.521 76.4874 128Z" fill="#2E90FA"/>
<g filter="url(#filter3_d_1_1339)">
<path d="M76.8716 199L79.0635 187.829L68.9995 193.343L73.9569 194.781L76.8716 199Z" fill="#2E90FA"/>
<path d="M76.8716 199L79.0635 187.829L68.9995 193.343L73.9569 194.781L76.8716 199Z" stroke="#141414" stroke-width="0.7"/>
</g>
<g filter="url(#filter4_d_1_1339)">
<path d="M70 200.4C70 199.627 69.3732 199 68.6 199H19C11.268 199 5 205.268 5 213V213C5 220.732 11.268 227 19 227H53.2C62.4784 227 70 219.478 70 210.2V200.4Z" fill="#2E90FA" shape-rendering="crispEdges"/>
<path d="M68.6 199.7H19C11.6546 199.7 5.7 205.655 5.7 213C5.7 220.345 11.6546 226.3 19 226.3H53.2C62.0918 226.3 69.3 219.092 69.3 210.2V200.4C69.3 200.013 68.9866 199.7 68.6 199.7Z" stroke="#1570EF" stroke-width="1.4" shape-rendering="crispEdges"/>
<path d="M16.6949 216.6V208.455H19.5983C20.232 208.455 20.757 208.57 21.1733 208.801C21.5896 209.031 21.9011 209.347 22.1079 209.747C22.3148 210.145 22.4182 210.593 22.4182 211.091C22.4182 211.593 22.3134 212.043 22.104 212.444C21.8971 212.841 21.5843 213.157 21.1653 213.39C20.749 213.621 20.2254 213.736 19.5943 213.736H17.5977V212.694H19.4829C19.8833 212.694 20.2081 212.625 20.4574 212.488C20.7066 212.347 20.8896 212.156 21.0062 211.915C21.1229 211.673 21.1812 211.399 21.1812 211.091C21.1812 210.784 21.1229 210.511 21.0062 210.272C20.8896 210.034 20.7053 209.847 20.4534 209.711C20.2042 209.576 19.8754 209.509 19.467 209.509H17.9239V216.6H16.6949ZM25.4866 216.735C25.0995 216.735 24.7495 216.664 24.4366 216.52C24.1238 216.375 23.8758 216.164 23.6929 215.888C23.5126 215.612 23.4224 215.274 23.4224 214.874C23.4224 214.529 23.4887 214.245 23.6213 214.023C23.7539 213.8 23.9328 213.624 24.1582 213.494C24.3836 213.364 24.6355 213.266 24.9139 213.199C25.1923 213.133 25.476 213.083 25.765 213.048C26.131 213.006 26.4279 212.971 26.656 212.945C26.884 212.916 27.0497 212.869 27.1531 212.806C27.2565 212.742 27.3082 212.639 27.3082 212.495V212.468C27.3082 212.12 27.2101 211.851 27.0139 211.66C26.8203 211.469 26.5313 211.374 26.1469 211.374C25.7465 211.374 25.431 211.463 25.2003 211.64C24.9722 211.815 24.8145 212.01 24.727 212.225L23.6094 211.97C23.7419 211.599 23.9355 211.3 24.19 211.072C24.4472 210.841 24.7429 210.674 25.077 210.57C25.4111 210.464 25.7624 210.411 26.131 210.411C26.3749 210.411 26.6334 210.441 26.9065 210.499C27.1823 210.555 27.4395 210.658 27.6781 210.809C27.9194 210.96 28.1169 211.176 28.2707 211.457C28.4245 211.736 28.5014 212.098 28.5014 212.543V216.6H27.34V215.765H27.2923C27.2154 215.919 27.1001 216.07 26.9463 216.218C26.7925 216.367 26.595 216.49 26.3537 216.588C26.1124 216.686 25.8234 216.735 25.4866 216.735ZM25.7452 215.781C26.0739 215.781 26.355 215.716 26.5883 215.586C26.8243 215.456 27.0033 215.286 27.1253 215.077C27.2499 214.865 27.3122 214.638 27.3122 214.397V213.609C27.2698 213.652 27.1876 213.691 27.0656 213.728C26.9463 213.763 26.8097 213.793 26.656 213.82C26.5022 213.844 26.3524 213.866 26.2065 213.888C26.0607 213.906 25.9387 213.922 25.8406 213.935C25.6099 213.964 25.3991 214.013 25.2082 214.082C25.02 214.151 24.8688 214.251 24.7548 214.381C24.6435 214.508 24.5878 214.678 24.5878 214.89C24.5878 215.184 24.6965 215.407 24.9139 215.558C25.1313 215.706 25.4084 215.781 25.7452 215.781ZM30.6183 218.891C30.4407 218.891 30.2789 218.876 30.1331 218.847C29.9873 218.821 29.8785 218.791 29.8069 218.76L30.0933 217.785C30.3107 217.844 30.5043 217.869 30.674 217.861C30.8437 217.853 30.9935 217.789 31.1234 217.67C31.256 217.551 31.3727 217.356 31.4734 217.085L31.6206 216.68L29.3854 210.491H30.6581L32.2052 215.232H32.2689L33.816 210.491H35.0927L32.5751 217.415C32.4585 217.734 32.31 218.003 32.1297 218.223C31.9494 218.445 31.7346 218.613 31.4854 218.724C31.2361 218.835 30.9471 218.891 30.6183 218.891ZM37.3996 208.455V216.6H36.2104V208.455H37.3996ZM41.5727 216.723C41 216.723 40.5002 216.592 40.0733 216.33C39.6464 216.067 39.3149 215.7 39.079 215.228C38.843 214.756 38.725 214.204 38.725 213.573C38.725 212.94 38.843 212.385 39.079 211.911C39.3149 211.436 39.6464 211.068 40.0733 210.805C40.5002 210.543 41 210.411 41.5727 210.411C42.1454 210.411 42.6453 210.543 43.0721 210.805C43.499 211.068 43.8305 211.436 44.0665 211.911C44.3024 212.385 44.4204 212.94 44.4204 213.573C44.4204 214.204 44.3024 214.756 44.0665 215.228C43.8305 215.7 43.499 216.067 43.0721 216.33C42.6453 216.592 42.1454 216.723 41.5727 216.723ZM41.5767 215.725C41.9479 215.725 42.2555 215.627 42.4994 215.431C42.7434 215.234 42.9237 214.973 43.0403 214.647C43.1596 214.321 43.2193 213.962 43.2193 213.569C43.2193 213.18 43.1596 212.822 43.0403 212.495C42.9237 212.167 42.7434 211.903 42.4994 211.704C42.2555 211.505 41.9479 211.406 41.5767 211.406C41.2028 211.406 40.8926 211.505 40.646 211.704C40.4021 211.903 40.2204 212.167 40.1011 212.495C39.9845 212.822 39.9261 213.18 39.9261 213.569C39.9261 213.962 39.9845 214.321 40.1011 214.647C40.2204 214.973 40.4021 215.234 40.646 215.431C40.8926 215.627 41.2028 215.725 41.5767 215.725ZM47.5257 216.735C47.1386 216.735 46.7886 216.664 46.4757 216.52C46.1628 216.375 45.9149 216.164 45.7319 215.888C45.5516 215.612 45.4615 215.274 45.4615 214.874C45.4615 214.529 45.5278 214.245 45.6604 214.023C45.7929 213.8 45.9719 213.624 46.1973 213.494C46.4227 213.364 46.6746 213.266 46.953 213.199C47.2314 213.133 47.5151 213.083 47.8041 213.048C48.17 213.006 48.467 212.971 48.695 212.945C48.923 212.916 49.0888 212.869 49.1922 212.806C49.2956 212.742 49.3473 212.639 49.3473 212.495V212.468C49.3473 212.12 49.2492 211.851 49.053 211.66C48.8594 211.469 48.5704 211.374 48.1859 211.374C47.7855 211.374 47.47 211.463 47.2393 211.64C47.0113 211.815 46.8535 212.01 46.766 212.225L45.6484 211.97C45.781 211.599 45.9746 211.3 46.2291 211.072C46.4863 210.841 46.7819 210.674 47.116 210.57C47.4501 210.464 47.8015 210.411 48.17 210.411C48.414 210.411 48.6725 210.441 48.9456 210.499C49.2213 210.555 49.4785 210.658 49.7172 210.809C49.9585 210.96 50.156 211.176 50.3098 211.457C50.4636 211.736 50.5405 212.098 50.5405 212.543V216.6H49.3791V215.765H49.3314C49.2545 215.919 49.1391 216.07 48.9854 216.218C48.8316 216.367 48.634 216.49 48.3927 216.588C48.1515 216.686 47.8624 216.735 47.5257 216.735ZM47.7842 215.781C48.113 215.781 48.3941 215.716 48.6274 215.586C48.8634 215.456 49.0424 215.286 49.1643 215.077C49.289 214.865 49.3513 214.638 49.3513 214.397V213.609C49.3088 213.652 49.2266 213.691 49.1047 213.728C48.9854 213.763 48.8488 213.793 48.695 213.82C48.5412 213.844 48.3914 213.866 48.2456 213.888C48.0998 213.906 47.9778 213.922 47.8797 213.935C47.649 213.964 47.4382 214.013 47.2473 214.082C47.059 214.151 46.9079 214.251 46.7939 214.381C46.6825 214.508 46.6268 214.678 46.6268 214.89C46.6268 215.184 46.7355 215.407 46.953 215.558C47.1704 215.706 47.4475 215.781 47.7842 215.781ZM54.4114 216.719C53.9182 216.719 53.478 216.593 53.0909 216.341C52.7064 216.087 52.4042 215.725 52.1841 215.256C51.9667 214.784 51.8579 214.218 51.8579 213.557C51.8579 212.897 51.968 212.332 52.1881 211.863C52.4108 211.394 52.7157 211.034 53.1028 210.785C53.49 210.536 53.9288 210.411 54.4193 210.411C54.7985 210.411 55.1034 210.475 55.3341 210.602C55.5674 210.727 55.7477 210.873 55.875 211.04C56.0049 211.207 56.1057 211.354 56.1773 211.481H56.2489V208.455H57.4381V216.6H56.2767V215.649H56.1773C56.1057 215.779 56.0023 215.928 55.867 216.095C55.7345 216.262 55.5515 216.408 55.3182 216.532C55.0848 216.657 54.7826 216.719 54.4114 216.719ZM54.6739 215.705C55.0159 215.705 55.3049 215.615 55.5409 215.435C55.7795 215.252 55.9598 214.998 56.0818 214.675C56.2064 214.352 56.2687 213.975 56.2687 213.545C56.2687 213.121 56.2078 212.75 56.0858 212.432C55.9638 212.114 55.7848 211.866 55.5489 211.688C55.3129 211.51 55.0212 211.422 54.6739 211.422C54.3159 211.422 54.0176 211.514 53.779 211.7C53.5403 211.886 53.36 212.139 53.2381 212.46C53.1187 212.78 53.0591 213.142 53.0591 213.545C53.0591 213.954 53.1201 214.321 53.242 214.647C53.364 214.973 53.5443 215.232 53.7829 215.423C54.0242 215.611 54.3212 215.705 54.6739 215.705Z" fill="white"/>
</g>
<g filter="url(#filter5_d_1_1339)">
<path d="M272.027 10.4851L270.229 1.3205L278.485 5.8441L274.418 7.02393L272.027 10.4851Z" fill="#FF479F"/>
<path d="M272.027 10.4851L270.229 1.3205L278.485 5.8441L274.418 7.02393L272.027 10.4851Z" stroke="#0F0F0F" stroke-width="0.574257"/>
</g>
<g filter="url(#filter6_d_1_1339)">
<path d="M277.337 11.6336C277.337 10.9993 277.851 10.4851 278.485 10.4851H313.515C319.858 10.4851 325 15.6272 325 21.9703C325 28.3133 319.858 33.4554 313.515 33.4554H291.119C283.507 33.4554 277.337 27.2849 277.337 19.6732V11.6336Z" fill="#FF479F" shape-rendering="crispEdges"/>
<path d="M277.911 11.6336C277.911 11.3165 278.168 11.0594 278.485 11.0594H313.515C319.541 11.0594 324.426 15.9443 324.426 21.9703C324.426 27.9962 319.541 32.8811 313.515 32.8811H291.119C283.825 32.8811 277.911 26.9678 277.911 19.6732V11.6336Z" stroke="#B11C64" stroke-width="1.14851" shape-rendering="crispEdges"/>
<path d="M287.259 25.0792V18.3969H289.641C290.161 18.3969 290.592 18.4915 290.933 18.6808C291.275 18.87 291.53 19.1289 291.7 19.4573C291.87 19.7836 291.954 20.1512 291.954 20.5601C291.954 20.9713 291.868 21.3411 291.697 21.6695C291.527 21.9958 291.27 22.2546 290.927 22.4461C290.585 22.6353 290.155 22.7299 289.638 22.7299H288V21.8751H289.546C289.875 21.8751 290.141 21.8185 290.346 21.7054C290.55 21.5901 290.7 21.4335 290.796 21.2356C290.892 21.0376 290.94 20.8125 290.94 20.5601C290.94 20.3078 290.892 20.0838 290.796 19.888C290.7 19.6922 290.549 19.5389 290.343 19.4279C290.138 19.317 289.868 19.2615 289.533 19.2615H288.267V25.0792H287.259ZM293.058 25.0792V20.0675H294.001V20.8636H294.053C294.145 20.5939 294.306 20.3818 294.536 20.2273C294.769 20.0707 295.032 19.9924 295.326 19.9924C295.387 19.9924 295.458 19.9946 295.541 19.9989C295.626 20.0033 295.692 20.0087 295.74 20.0153V20.9484C295.701 20.9375 295.631 20.9256 295.531 20.9125C295.431 20.8973 295.331 20.8897 295.231 20.8897C295 20.8897 294.795 20.9386 294.614 21.0365C294.436 21.1322 294.295 21.266 294.19 21.4378C294.086 21.6075 294.034 21.8011 294.034 22.0186V25.0792H293.058ZM296.584 25.0792V20.0675H297.56V25.0792H296.584ZM297.077 19.2942C296.907 19.2942 296.762 19.2376 296.64 19.1245C296.52 19.0092 296.46 18.8722 296.46 18.7134C296.46 18.5524 296.52 18.4154 296.64 18.3023C296.762 18.187 296.907 18.1293 297.077 18.1293C297.247 18.1293 297.391 18.187 297.511 18.3023C297.633 18.4154 297.694 18.5524 297.694 18.7134C297.694 18.8722 297.633 19.0092 297.511 19.1245C297.391 19.2376 297.247 19.2942 297.077 19.2942ZM302.628 21.291L301.744 21.4476C301.707 21.3345 301.648 21.2269 301.567 21.1246C301.489 21.0224 301.383 20.9386 301.248 20.8734C301.113 20.8081 300.944 20.7755 300.742 20.7755C300.466 20.7755 300.235 20.8375 300.05 20.9615C299.865 21.0833 299.773 21.241 299.773 21.4346C299.773 21.6021 299.835 21.7369 299.959 21.8392C300.083 21.9414 300.283 22.0252 300.559 22.0904L301.355 22.2731C301.817 22.3797 302.16 22.5439 302.386 22.7658C302.613 22.9877 302.726 23.2759 302.726 23.6305C302.726 23.9306 302.639 24.1982 302.465 24.4331C302.293 24.6659 302.053 24.8486 301.744 24.9813C301.437 25.114 301.081 25.1803 300.677 25.1803C300.116 25.1803 299.658 25.0607 299.303 24.8214C298.949 24.58 298.731 24.2374 298.651 23.7936L299.593 23.65C299.652 23.8958 299.773 24.0818 299.956 24.208C300.138 24.332 300.377 24.394 300.67 24.394C300.99 24.394 301.246 24.3276 301.437 24.1949C301.628 24.0601 301.724 23.8958 301.724 23.7022C301.724 23.5456 301.665 23.414 301.548 23.3074C301.433 23.2009 301.255 23.1204 301.016 23.066L300.168 22.88C299.7 22.7734 299.354 22.6038 299.13 22.371C298.908 22.1383 298.797 21.8435 298.797 21.4868C298.797 21.191 298.88 20.9321 299.045 20.7102C299.211 20.4884 299.439 20.3154 299.73 20.1914C300.022 20.0653 300.356 20.0022 300.732 20.0022C301.274 20.0022 301.7 20.1197 302.011 20.3546C302.322 20.5873 302.528 20.8995 302.628 21.291ZM303.798 25.0792V20.0675H304.735V20.8832H304.797C304.901 20.6069 305.072 20.3916 305.309 20.2371C305.546 20.0805 305.83 20.0022 306.161 20.0022C306.496 20.0022 306.776 20.0805 307.003 20.2371C307.231 20.3937 307.399 20.6091 307.508 20.8832H307.56C307.68 20.6156 307.87 20.4024 308.131 20.2437C308.392 20.0827 308.704 20.0022 309.065 20.0022C309.519 20.0022 309.89 20.1447 310.177 20.4296C310.467 20.7146 310.611 21.1442 310.611 21.7185V25.0792H309.636V21.8098C309.636 21.4705 309.543 21.2247 309.358 21.0724C309.173 20.9201 308.953 20.844 308.696 20.844C308.378 20.844 308.131 20.9419 307.955 21.1377C307.779 21.3313 307.691 21.5803 307.691 21.8849V25.0792H306.719V21.7478C306.719 21.4759 306.634 21.2573 306.464 21.092C306.294 20.9267 306.074 20.844 305.802 20.844C305.617 20.844 305.446 20.893 305.29 20.9908C305.135 21.0866 305.01 21.2203 304.914 21.3922C304.821 21.564 304.774 21.763 304.774 21.9893V25.0792H303.798ZM311.919 25.0792V20.0675H312.894V25.0792H311.919ZM312.411 19.2942C312.242 19.2942 312.096 19.2376 311.974 19.1245C311.855 19.0092 311.795 18.8722 311.795 18.7134C311.795 18.5524 311.855 18.4154 311.974 18.3023C312.096 18.187 312.242 18.1293 312.411 18.1293C312.581 18.1293 312.726 18.187 312.845 18.3023C312.967 18.4154 313.028 18.5524 313.028 18.7134C313.028 18.8722 312.967 19.0092 312.845 19.1245C312.726 19.2376 312.581 19.2942 312.411 19.2942ZM316.318 25.1803C315.833 25.1803 315.415 25.0705 315.065 24.8508C314.717 24.6289 314.449 24.3233 314.262 23.9339C314.075 23.5445 313.982 23.0986 313.982 22.5962C313.982 22.0872 314.077 21.638 314.269 21.2486C314.46 20.8571 314.73 20.5514 315.078 20.3317C315.426 20.1121 315.836 20.0022 316.308 20.0022C316.689 20.0022 317.028 20.0729 317.326 20.2143C317.624 20.3535 317.864 20.5493 318.047 20.8016C318.232 21.0539 318.342 21.3487 318.377 21.6858H317.427C317.375 21.4509 317.255 21.2486 317.068 21.0789C316.883 20.9093 316.635 20.8244 316.324 20.8244C316.053 20.8244 315.814 20.8962 315.61 21.0398C315.408 21.1812 315.25 21.3835 315.137 21.6467C315.024 21.9077 314.967 22.2166 314.967 22.5733C314.967 22.9387 315.023 23.2542 315.133 23.5195C315.244 23.7849 315.401 23.9905 315.603 24.1362C315.808 24.2819 316.048 24.3548 316.324 24.3548C316.509 24.3548 316.677 24.3211 316.827 24.2537C316.979 24.1841 317.106 24.0851 317.209 23.9568C317.313 23.8284 317.386 23.674 317.427 23.4934H318.377C318.342 23.8175 318.236 24.1068 318.06 24.3613C317.884 24.6158 317.648 24.816 317.352 24.9617C317.059 25.1074 316.714 25.1803 316.318 25.1803Z" fill="white"/>
</g>
<g filter="url(#filter7_d_1_1339)">
<path d="M75 37.4C75 36.6268 74.3732 36 73.6 36H29.5C22.5964 36 17 41.5964 17 48.5C17 55.4036 22.5964 61 29.5 61H58.2C67.4784 61 75 53.4784 75 44.2V37.4Z" fill="#FE7D54" shape-rendering="crispEdges"/>
<path d="M74.3 37.4C74.3 37.0134 73.9866 36.7 73.6 36.7H29.5C22.983 36.7 17.7 41.983 17.7 48.5C17.7 55.017 22.983 60.3 29.5 60.3H58.2C67.0918 60.3 74.3 53.0918 74.3 44.2V37.4Z" stroke="#994227" stroke-width="1.4" shape-rendering="crispEdges"/>
<path d="M32.1787 46.6731C32.1439 46.3643 32.0003 46.125 31.748 45.9553C31.4957 45.7835 31.1781 45.6976 30.7953 45.6976C30.5212 45.6976 30.2841 45.7411 30.084 45.8281C29.8838 45.9129 29.7283 46.0304 29.6174 46.1805C29.5086 46.3284 29.4542 46.4969 29.4542 46.6862C29.4542 46.845 29.4912 46.982 29.5652 47.0973C29.6413 47.2126 29.7403 47.3094 29.8621 47.3877C29.9861 47.4638 30.1188 47.528 30.2602 47.5802C30.4015 47.6302 30.5375 47.6716 30.668 47.7042L31.3206 47.8739C31.5337 47.9261 31.7524 47.9968 31.9764 48.0859C32.2005 48.1751 32.4082 48.2926 32.5996 48.4383C32.791 48.5841 32.9455 48.7646 33.0629 48.98C33.1826 49.1953 33.2424 49.4531 33.2424 49.7532C33.2424 50.1317 33.1445 50.4678 32.9487 50.7615C32.7551 51.0551 32.4734 51.2868 32.1037 51.4564C31.736 51.6261 31.2912 51.7109 30.7692 51.7109C30.2689 51.7109 29.836 51.6315 29.4706 51.4728C29.1051 51.314 28.8191 51.0888 28.6124 50.7974C28.4058 50.5037 28.2916 50.1557 28.2698 49.7532H29.2813C29.3009 49.9947 29.3792 50.1959 29.5162 50.3569C29.6554 50.5157 29.8327 50.6342 30.0481 50.7125C30.2656 50.7886 30.5038 50.8267 30.7626 50.8267C31.0476 50.8267 31.301 50.7821 31.5229 50.6929C31.7469 50.6016 31.9231 50.4754 32.0515 50.3145C32.1798 50.1513 32.244 49.961 32.244 49.7435C32.244 49.5455 32.1874 49.3835 32.0743 49.2573C31.9634 49.1311 31.8122 49.0267 31.6208 48.9441C31.4315 48.8614 31.2173 48.7885 30.978 48.7255L30.1884 48.5101C29.6533 48.3644 29.2291 48.1501 28.9159 47.8673C28.6048 47.5846 28.4493 47.2104 28.4493 46.7449C28.4493 46.3599 28.5537 46.0238 28.7625 45.7367C28.9713 45.4496 29.2541 45.2266 29.6109 45.0678C29.9676 44.9069 30.37 44.8264 30.8181 44.8264C31.2705 44.8264 31.6697 44.9058 32.0156 45.0646C32.3636 45.2234 32.6377 45.442 32.8378 45.7204C33.0379 45.9966 33.1423 46.3142 33.151 46.6731H32.1787ZM36.5289 51.7012C36.0351 51.7012 35.6098 51.5957 35.2531 51.3847C34.8985 51.1715 34.6245 50.8724 34.4309 50.4874C34.2394 50.1002 34.1437 49.6467 34.1437 49.1268C34.1437 48.6134 34.2394 48.161 34.4309 47.7694C34.6245 47.3779 34.8942 47.0723 35.24 46.8526C35.5881 46.6329 35.9948 46.523 36.4603 46.523C36.7431 46.523 37.0172 46.5698 37.2826 46.6633C37.548 46.7569 37.7861 46.9037 37.9971 47.1038C38.2081 47.304 38.3745 47.5639 38.4963 47.8836C38.6182 48.2012 38.6791 48.5873 38.6791 49.042V49.3878H34.6952V48.6569H37.7231C37.7231 48.4003 37.6709 48.173 37.5664 47.975C37.462 47.7749 37.3152 47.6172 37.126 47.5019C36.9389 47.3866 36.7192 47.329 36.4669 47.329C36.1928 47.329 35.9535 47.3964 35.749 47.5313C35.5468 47.6639 35.3901 47.838 35.2792 48.0533C35.1704 48.2665 35.1161 48.4981 35.1161 48.7483V49.3193C35.1161 49.6543 35.1748 49.9392 35.2923 50.1742C35.4119 50.4091 35.5783 50.5885 35.7915 50.7125C36.0046 50.8343 36.2537 50.8952 36.5387 50.8952C36.7235 50.8952 36.8921 50.8691 37.0444 50.8169C37.1967 50.7625 37.3283 50.6821 37.4392 50.5755C37.5501 50.4689 37.635 50.3373 37.6937 50.1807L38.6171 50.3471C38.5431 50.619 38.4104 50.8572 38.219 51.0616C38.0298 51.2639 37.7916 51.4216 37.5044 51.5347C37.2195 51.6457 36.8943 51.7012 36.5289 51.7012ZM40.7371 48.6243V51.6H39.7615V46.5883H40.6979V47.404H40.7599C40.8752 47.1386 41.0558 46.9255 41.3016 46.7645C41.5495 46.6035 41.8617 46.523 42.238 46.523C42.5795 46.523 42.8786 46.5948 43.1353 46.7384C43.3919 46.8798 43.591 47.0908 43.7324 47.3714C43.8738 47.652 43.9445 47.9989 43.9445 48.4122V51.6H42.9689V48.5297C42.9689 48.1664 42.8742 47.8826 42.685 47.6781C42.4958 47.4714 42.2358 47.3681 41.9052 47.3681C41.679 47.3681 41.4778 47.4171 41.3016 47.5149C41.1275 47.6128 40.9894 47.7564 40.8872 47.9456C40.7871 48.1327 40.7371 48.3589 40.7371 48.6243ZM47.5923 46.5883V47.3714H44.8548V46.5883H47.5923ZM45.5889 45.3876H46.5645V50.1285C46.5645 50.3177 46.5928 50.4602 46.6493 50.5559C46.7059 50.6494 46.7788 50.7136 46.8679 50.7484C46.9593 50.781 47.0583 50.7974 47.1649 50.7974C47.2432 50.7974 47.3117 50.7919 47.3704 50.781C47.4292 50.7702 47.4748 50.7615 47.5075 50.7549L47.6837 51.5609C47.6271 51.5826 47.5466 51.6044 47.4422 51.6261C47.3378 51.65 47.2073 51.6631 47.0507 51.6653C46.794 51.6696 46.5547 51.6239 46.3328 51.5282C46.111 51.4325 45.9315 51.2846 45.7945 51.0845C45.6574 50.8844 45.5889 50.6331 45.5889 50.3308V45.3876ZM48.6715 51.6V46.5883H49.6144V47.3844H49.6666C49.758 47.1147 49.919 46.9026 50.1495 46.7482C50.3823 46.5916 50.6455 46.5133 50.9391 46.5133C51 46.5133 51.0718 46.5154 51.1545 46.5198C51.2393 46.5241 51.3057 46.5296 51.3535 46.5361V47.4693C51.3144 47.4584 51.2448 47.4464 51.1447 47.4334C51.0446 47.4182 50.9446 47.4105 50.8445 47.4105C50.6139 47.4105 50.4084 47.4595 50.2278 47.5574C50.0495 47.6531 49.9081 47.7868 49.8037 47.9587C49.6993 48.1284 49.6471 48.322 49.6471 48.5395V51.6H48.6715ZM52.967 53.4794C52.8212 53.4794 52.6886 53.4674 52.5689 53.4435C52.4493 53.4218 52.3601 53.3978 52.3014 53.3717L52.5363 52.5723C52.7147 52.6202 52.8734 52.6408 53.0127 52.6343C53.1519 52.6278 53.2748 52.5756 53.3814 52.4777C53.4901 52.3798 53.5858 52.2199 53.6685 51.9981L53.7892 51.6653L51.9555 46.5883H52.9996L54.2689 50.4776H54.3211L55.5903 46.5883H56.6377L54.5723 52.2689C54.4766 52.5299 54.3548 52.7507 54.2069 52.9312C54.0589 53.114 53.8827 53.251 53.6783 53.3424C53.4738 53.4337 53.2367 53.4794 52.967 53.4794Z" fill="white"/>
</g>
<g filter="url(#filter8_d_1_1339)">
<path d="M80.9728 35.3366L82.771 27.0884L74.5149 31.1596L78.5817 32.2215L80.9728 35.3366Z" fill="#FE7D54"/>
<path d="M80.9728 35.3366L82.771 27.0884L74.5149 31.1596L78.5817 32.2215L80.9728 35.3366Z" stroke="#0F0F0F" stroke-width="0.574257"/>
</g>
<g filter="url(#filter9_d_1_1339)">
<path d="M297.128 188L294.936 176.829L305 182.343L300.043 183.781L297.128 188Z" fill="#12B76A"/>
<path d="M297.128 188L294.936 176.829L305 182.343L300.043 183.781L297.128 188Z" stroke="#1E1E1E" stroke-width="0.7"/>
</g>
<g filter="url(#filter10_d_1_1339)">
<path d="M304 189.4C304 188.627 304.627 188 305.4 188H369C376.732 188 383 194.268 383 202V202C383 209.732 376.732 216 369 216H320.8C311.522 216 304 208.478 304 199.2V189.4Z" fill="#12B76A" shape-rendering="crispEdges"/>
<path d="M305.4 188.7H369C376.345 188.7 382.3 194.655 382.3 202C382.3 209.345 376.345 215.3 369 215.3H320.8C311.908 215.3 304.7 208.092 304.7 199.2V189.4C304.7 189.013 305.013 188.7 305.4 188.7Z" stroke="#039855" stroke-width="1.4" shape-rendering="crispEdges"/>
<path d="M317.69 205.6L315.431 197.455H316.723L318.31 203.763H318.386L320.036 197.455H321.317L322.968 203.766H323.043L324.626 197.455H325.923L323.66 205.6H322.423L320.708 199.499H320.645L318.931 205.6H317.69ZM328.92 205.723C328.347 205.723 327.847 205.592 327.42 205.33C326.993 205.067 326.662 204.7 326.426 204.228C326.19 203.756 326.072 203.204 326.072 202.573C326.072 201.94 326.19 201.385 326.426 200.911C326.662 200.436 326.993 200.068 327.42 199.805C327.847 199.543 328.347 199.411 328.92 199.411C329.492 199.411 329.992 199.543 330.419 199.805C330.846 200.068 331.177 200.436 331.413 200.911C331.649 201.385 331.767 201.94 331.767 202.573C331.767 203.204 331.649 203.756 331.413 204.228C331.177 204.7 330.846 205.067 330.419 205.33C329.992 205.592 329.492 205.723 328.92 205.723ZM328.924 204.725C329.295 204.725 329.602 204.627 329.846 204.431C330.09 204.234 330.271 203.973 330.387 203.647C330.506 203.321 330.566 202.962 330.566 202.569C330.566 202.18 330.506 201.822 330.387 201.495C330.271 201.167 330.09 200.903 329.846 200.704C329.602 200.505 329.295 200.406 328.924 200.406C328.55 200.406 328.239 200.505 327.993 200.704C327.749 200.903 327.567 201.167 327.448 201.495C327.331 201.822 327.273 202.18 327.273 202.569C327.273 202.962 327.331 203.321 327.448 203.647C327.567 203.973 327.749 204.234 327.993 204.431C328.239 204.627 328.55 204.725 328.924 204.725ZM333.095 205.6V199.491H334.244V200.461H334.308C334.419 200.133 334.615 199.874 334.896 199.686C335.18 199.495 335.501 199.399 335.859 199.399C335.933 199.399 336.021 199.402 336.121 199.407C336.225 199.413 336.306 199.419 336.364 199.427V200.565C336.316 200.552 336.231 200.537 336.109 200.521C335.988 200.502 335.866 200.493 335.744 200.493C335.463 200.493 335.212 200.553 334.992 200.672C334.774 200.789 334.602 200.952 334.475 201.161C334.348 201.368 334.284 201.604 334.284 201.869V205.6H333.095ZM339.461 205.719C338.968 205.719 338.528 205.593 338.141 205.341C337.756 205.087 337.454 204.725 337.234 204.256C337.017 203.784 336.908 203.218 336.908 202.557C336.908 201.897 337.018 201.332 337.238 200.863C337.461 200.394 337.766 200.034 338.153 199.785C338.54 199.536 338.979 199.411 339.469 199.411C339.848 199.411 340.153 199.475 340.384 199.602C340.617 199.727 340.798 199.873 340.925 200.04C341.055 200.207 341.156 200.354 341.227 200.481H341.299V197.455H342.488V205.6H341.327V204.649H341.227C341.156 204.779 341.052 204.928 340.917 205.095C340.784 205.262 340.601 205.408 340.368 205.532C340.135 205.657 339.833 205.719 339.461 205.719ZM339.724 204.705C340.066 204.705 340.355 204.615 340.591 204.435C340.829 204.252 341.01 203.998 341.132 203.675C341.256 203.352 341.319 202.975 341.319 202.545C341.319 202.121 341.258 201.75 341.136 201.432C341.014 201.114 340.835 200.866 340.599 200.688C340.363 200.51 340.071 200.422 339.724 200.422C339.366 200.422 339.068 200.514 338.829 200.7C338.59 200.886 338.41 201.139 338.288 201.46C338.169 201.78 338.109 202.142 338.109 202.545C338.109 202.954 338.17 203.321 338.292 203.647C338.414 203.973 338.594 204.232 338.833 204.423C339.074 204.611 339.371 204.705 339.724 204.705ZM344.185 207.891V199.491H345.347V200.481H345.446C345.515 200.354 345.614 200.207 345.744 200.04C345.874 199.873 346.055 199.727 346.285 199.602C346.516 199.475 346.821 199.411 347.2 199.411C347.693 199.411 348.133 199.536 348.521 199.785C348.908 200.034 349.211 200.394 349.431 200.863C349.654 201.332 349.765 201.897 349.765 202.557C349.765 203.218 349.655 203.784 349.435 204.256C349.215 204.725 348.913 205.087 348.529 205.341C348.144 205.593 347.705 205.719 347.212 205.719C346.841 205.719 346.537 205.657 346.301 205.532C346.068 205.408 345.885 205.262 345.752 205.095C345.62 204.928 345.518 204.779 345.446 204.649H345.375V207.891H344.185ZM345.351 202.545C345.351 202.975 345.413 203.352 345.538 203.675C345.662 203.998 345.843 204.252 346.079 204.435C346.314 204.615 346.604 204.705 346.946 204.705C347.301 204.705 347.598 204.611 347.836 204.423C348.075 204.232 348.255 203.973 348.377 203.647C348.502 203.321 348.564 202.954 348.564 202.545C348.564 202.142 348.503 201.78 348.381 201.46C348.262 201.139 348.082 200.886 347.84 200.7C347.602 200.514 347.304 200.422 346.946 200.422C346.601 200.422 346.309 200.51 346.071 200.688C345.835 200.866 345.656 201.114 345.534 201.432C345.412 201.75 345.351 202.121 345.351 202.545ZM351.098 205.6V199.491H352.247V200.461H352.311C352.422 200.133 352.618 199.874 352.9 199.686C353.183 199.495 353.504 199.399 353.862 199.399C353.936 199.399 354.024 199.402 354.125 199.407C354.228 199.413 354.309 199.419 354.367 199.427V200.565C354.319 200.552 354.235 200.537 354.113 200.521C353.991 200.502 353.869 200.493 353.747 200.493C353.466 200.493 353.215 200.553 352.995 200.672C352.778 200.789 352.605 200.952 352.478 201.161C352.351 201.368 352.287 201.604 352.287 201.869V205.6H351.098ZM357.81 205.723C357.209 205.723 356.69 205.595 356.255 205.338C355.823 205.078 355.489 204.713 355.253 204.244C355.02 203.772 354.903 203.219 354.903 202.585C354.903 201.959 355.02 201.408 355.253 200.931C355.489 200.453 355.818 200.081 356.239 199.813C356.664 199.545 357.16 199.411 357.727 199.411C358.072 199.411 358.406 199.468 358.729 199.582C359.053 199.696 359.343 199.875 359.6 200.119C359.857 200.363 360.06 200.68 360.209 201.07C360.357 201.457 360.431 201.928 360.431 202.482V202.903H355.575V202.013H359.266C359.266 201.7 359.203 201.423 359.075 201.181C358.948 200.937 358.769 200.745 358.538 200.605C358.31 200.464 358.042 200.394 357.735 200.394C357.401 200.394 357.109 200.476 356.86 200.64C356.613 200.802 356.422 201.014 356.287 201.277C356.155 201.537 356.088 201.819 356.088 202.124V202.82C356.088 203.228 356.16 203.576 356.303 203.862C356.449 204.148 356.652 204.367 356.912 204.518C357.171 204.667 357.475 204.741 357.822 204.741C358.048 204.741 358.253 204.709 358.439 204.645C358.624 204.579 358.785 204.481 358.92 204.351C359.055 204.221 359.159 204.061 359.23 203.87L360.356 204.073C360.266 204.404 360.104 204.695 359.871 204.944C359.64 205.19 359.35 205.383 359 205.52C358.652 205.656 358.256 205.723 357.81 205.723ZM366.329 200.982L365.251 201.173C365.206 201.035 365.134 200.904 365.036 200.78C364.941 200.655 364.811 200.553 364.646 200.473C364.482 200.394 364.277 200.354 364.03 200.354C363.693 200.354 363.412 200.43 363.187 200.581C362.961 200.729 362.849 200.921 362.849 201.157C362.849 201.362 362.924 201.526 363.075 201.651C363.227 201.775 363.47 201.877 363.807 201.957L364.778 202.18C365.34 202.309 365.759 202.51 366.034 202.78C366.31 203.051 366.448 203.402 366.448 203.834C366.448 204.2 366.342 204.526 366.13 204.813C365.92 205.096 365.627 205.319 365.251 205.481C364.877 205.642 364.444 205.723 363.95 205.723C363.266 205.723 362.708 205.577 362.276 205.286C361.844 204.991 361.579 204.574 361.48 204.033L362.63 203.858C362.702 204.158 362.849 204.384 363.071 204.538C363.294 204.689 363.584 204.765 363.942 204.765C364.332 204.765 364.644 204.684 364.877 204.522C365.11 204.358 365.227 204.158 365.227 203.922C365.227 203.731 365.155 203.57 365.012 203.44C364.872 203.31 364.656 203.212 364.364 203.146L363.33 202.919C362.76 202.789 362.338 202.583 362.065 202.299C361.795 202.015 361.659 201.656 361.659 201.221C361.659 200.86 361.76 200.545 361.962 200.274C362.163 200.004 362.442 199.793 362.797 199.642C363.152 199.488 363.559 199.411 364.018 199.411C364.678 199.411 365.198 199.555 365.577 199.841C365.956 200.125 366.207 200.505 366.329 200.982ZM372.333 200.982L371.256 201.173C371.211 201.035 371.139 200.904 371.041 200.78C370.945 200.655 370.815 200.553 370.651 200.473C370.487 200.394 370.281 200.354 370.035 200.354C369.698 200.354 369.417 200.43 369.191 200.581C368.966 200.729 368.853 200.921 368.853 201.157C368.853 201.362 368.929 201.526 369.08 201.651C369.231 201.775 369.475 201.877 369.812 201.957L370.782 202.18C371.344 202.309 371.763 202.51 372.039 202.78C372.315 203.051 372.453 203.402 372.453 203.834C372.453 204.2 372.347 204.526 372.135 204.813C371.925 205.096 371.632 205.319 371.256 205.481C370.882 205.642 370.448 205.723 369.955 205.723C369.271 205.723 368.713 205.577 368.281 205.286C367.848 204.991 367.583 204.574 367.485 204.033L368.635 203.858C368.706 204.158 368.853 204.384 369.076 204.538C369.299 204.689 369.589 204.765 369.947 204.765C370.337 204.765 370.648 204.684 370.882 204.522C371.115 204.358 371.232 204.158 371.232 203.922C371.232 203.731 371.16 203.57 371.017 203.44C370.876 203.31 370.66 203.212 370.369 203.146L369.335 202.919C368.765 202.789 368.343 202.583 368.07 202.299C367.799 202.015 367.664 201.656 367.664 201.221C367.664 200.86 367.765 200.545 367.966 200.274C368.168 200.004 368.446 199.793 368.802 199.642C369.157 199.488 369.564 199.411 370.023 199.411C370.683 199.411 371.203 199.555 371.582 199.841C371.961 200.125 372.212 200.505 372.333 200.982Z" fill="white"/>
</g>
<g clip-path="url(#clip3_1_1339)">
<path d="M116.903 101L141.68 115.906V144.195L123.021 155V126.711L98.2302 111.818L116.903 101ZM96.3199 142.18L115.017 131.352V153.43L96.3199 142.18Z" fill="black"/>
</g>
<defs>
<filter id="filter0_f_1_1339" x="199" y="79" width="94" height="96" filterUnits="userSpaceOnUse" color-interpolation-filters="sRGB">
<feFlood flood-opacity="0" result="BackgroundImageFix"/>
<feBlend mode="normal" in="SourceGraphic" in2="BackgroundImageFix" result="shape"/>
<feGaussianBlur stdDeviation="2" result="effect1_foregroundBlur_1_1339"/>
</filter>
<filter id="filter1_f_1_1339" x="135" y="79" width="94" height="96" filterUnits="userSpaceOnUse" color-interpolation-filters="sRGB">
<feFlood flood-opacity="0" result="BackgroundImageFix"/>
<feBlend mode="normal" in="SourceGraphic" in2="BackgroundImageFix" result="shape"/>
<feGaussianBlur stdDeviation="2" result="effect1_foregroundBlur_1_1339"/>
</filter>
<filter id="filter2_f_1_1339" x="72" y="79" width="94" height="96" filterUnits="userSpaceOnUse" color-interpolation-filters="sRGB">
<feFlood flood-opacity="0" result="BackgroundImageFix"/>
<feBlend mode="normal" in="SourceGraphic" in2="BackgroundImageFix" result="shape"/>
<feGaussianBlur stdDeviation="2" result="effect1_foregroundBlur_1_1339"/>
</filter>
<filter id="filter3_d_1_1339" x="66.6918" y="186.463" width="14.2603" height="15.5214" filterUnits="userSpaceOnUse" color-interpolation-filters="sRGB">
<feFlood flood-opacity="0" result="BackgroundImageFix"/>
<feColorMatrix in="SourceAlpha" type="matrix" values="0 0 0 0 0 0 0 0 0 0 0 0 0 0 0 0 0 0 127 0" result="hardAlpha"/>
<feOffset dy="0.7"/>
<feGaussianBlur stdDeviation="0.7"/>
<feComposite in2="hardAlpha" operator="out"/>
<feColorMatrix type="matrix" values="0 0 0 0 0 0 0 0 0 0 0 0 0 0 0 0 0 0 0.25 0"/>
<feBlend mode="normal" in2="BackgroundImageFix" result="effect1_dropShadow_1_1339"/>
<feBlend mode="normal" in="SourceGraphic" in2="effect1_dropShadow_1_1339" result="shape"/>
</filter>
<filter id="filter4_d_1_1339" x="0.8" y="194.8" width="79" height="42" filterUnits="userSpaceOnUse" color-interpolation-filters="sRGB">
<feFlood flood-opacity="0" result="BackgroundImageFix"/>
<feColorMatrix in="SourceAlpha" type="matrix" values="0 0 0 0 0 0 0 0 0 0 0 0 0 0 0 0 0 0 127 0" result="hardAlpha"/>
<feOffset dx="2.8" dy="2.8"/>
<feGaussianBlur stdDeviation="3.5"/>
<feComposite in2="hardAlpha" operator="out"/>
<feColorMatrix type="matrix" values="0 0 0 0 0.180392 0 0 0 0 0.564706 0 0 0 0 0.980392 0 0 0 0.16 0"/>
<feBlend mode="normal" in2="BackgroundImageFix" result="effect1_dropShadow_1_1339"/>
<feBlend mode="normal" in="SourceGraphic" in2="effect1_dropShadow_1_1339" result="shape"/>
</filter>
<filter id="filter5_d_1_1339" x="268.68" y="0.200553" width="11.6988" height="12.7332" filterUnits="userSpaceOnUse" color-interpolation-filters="sRGB">
<feFlood flood-opacity="0" result="BackgroundImageFix"/>
<feColorMatrix in="SourceAlpha" type="matrix" values="0 0 0 0 0 0 0 0 0 0 0 0 0 0 0 0 0 0 127 0" result="hardAlpha"/>
<feOffset dy="0.574257"/>
<feGaussianBlur stdDeviation="0.574257"/>
<feComposite in2="hardAlpha" operator="out"/>
<feColorMatrix type="matrix" values="0 0 0 0 0 0 0 0 0 0 0 0 0 0 0 0 0 0 0.25 0"/>
<feBlend mode="normal" in2="BackgroundImageFix" result="effect1_dropShadow_1_1339"/>
<feBlend mode="normal" in="SourceGraphic" in2="effect1_dropShadow_1_1339" result="shape"/>
</filter>
<filter id="filter6_d_1_1339" x="273.891" y="7.03956" width="59.1485" height="34.4555" filterUnits="userSpaceOnUse" color-interpolation-filters="sRGB">
<feFlood flood-opacity="0" result="BackgroundImageFix"/>
<feColorMatrix in="SourceAlpha" type="matrix" values="0 0 0 0 0 0 0 0 0 0 0 0 0 0 0 0 0 0 127 0" result="hardAlpha"/>
<feOffset dx="2.29703" dy="2.29703"/>
<feGaussianBlur stdDeviation="2.87129"/>
<feComposite in2="hardAlpha" operator="out"/>
<feColorMatrix type="matrix" values="0 0 0 0 0.968627 0 0 0 0 0.564706 0 0 0 0 0.0352941 0 0 0 0.16 0"/>
<feBlend mode="normal" in2="BackgroundImageFix" result="effect1_dropShadow_1_1339"/>
<feBlend mode="normal" in="SourceGraphic" in2="effect1_dropShadow_1_1339" result="shape"/>
</filter>
<filter id="filter7_d_1_1339" x="12.8" y="31.8" width="72" height="39" filterUnits="userSpaceOnUse" color-interpolation-filters="sRGB">
<feFlood flood-opacity="0" result="BackgroundImageFix"/>
<feColorMatrix in="SourceAlpha" type="matrix" values="0 0 0 0 0 0 0 0 0 0 0 0 0 0 0 0 0 0 127 0" result="hardAlpha"/>
<feOffset dx="2.8" dy="2.8"/>
<feGaussianBlur stdDeviation="3.5"/>
<feComposite in2="hardAlpha" operator="out"/>
<feColorMatrix type="matrix" values="0 0 0 0 0.996078 0 0 0 0 0.490196 0 0 0 0 0.329412 0 0 0 0.09 0"/>
<feBlend mode="normal" in2="BackgroundImageFix" result="effect1_dropShadow_1_1339"/>
<feBlend mode="normal" in="SourceGraphic" in2="effect1_dropShadow_1_1339" result="shape"/>
</filter>
<filter id="filter8_d_1_1339" x="72.5832" y="26.0033" width="11.7533" height="11.7442" filterUnits="userSpaceOnUse" color-interpolation-filters="sRGB">
<feFlood flood-opacity="0" result="BackgroundImageFix"/>
<feColorMatrix in="SourceAlpha" type="matrix" values="0 0 0 0 0 0 0 0 0 0 0 0 0 0 0 0 0 0 127 0" result="hardAlpha"/>
<feOffset dy="0.574257"/>
<feGaussianBlur stdDeviation="0.574257"/>
<feComposite in2="hardAlpha" operator="out"/>
<feColorMatrix type="matrix" values="0 0 0 0 0 0 0 0 0 0 0 0 0 0 0 0 0 0 0.25 0"/>
<feBlend mode="normal" in2="BackgroundImageFix" result="effect1_dropShadow_1_1339"/>
<feBlend mode="normal" in="SourceGraphic" in2="effect1_dropShadow_1_1339" result="shape"/>
</filter>
<filter id="filter9_d_1_1339" x="293.047" y="175.464" width="14.2603" height="15.5214" filterUnits="userSpaceOnUse" color-interpolation-filters="sRGB">
<feFlood flood-opacity="0" result="BackgroundImageFix"/>
<feColorMatrix in="SourceAlpha" type="matrix" values="0 0 0 0 0 0 0 0 0 0 0 0 0 0 0 0 0 0 127 0" result="hardAlpha"/>
<feOffset dy="0.7"/>
<feGaussianBlur stdDeviation="0.7"/>
<feComposite in2="hardAlpha" operator="out"/>
<feColorMatrix type="matrix" values="0 0 0 0 0 0 0 0 0 0 0 0 0 0 0 0 0 0 0.25 0"/>
<feBlend mode="normal" in2="BackgroundImageFix" result="effect1_dropShadow_1_1339"/>
<feBlend mode="normal" in="SourceGraphic" in2="effect1_dropShadow_1_1339" result="shape"/>
</filter>
<filter id="filter10_d_1_1339" x="299.8" y="183.8" width="93" height="42" filterUnits="userSpaceOnUse" color-interpolation-filters="sRGB">
<feFlood flood-opacity="0" result="BackgroundImageFix"/>
<feColorMatrix in="SourceAlpha" type="matrix" values="0 0 0 0 0 0 0 0 0 0 0 0 0 0 0 0 0 0 127 0" result="hardAlpha"/>
<feOffset dx="2.8" dy="2.8"/>
<feGaussianBlur stdDeviation="3.5"/>
<feComposite in2="hardAlpha" operator="out"/>
<feColorMatrix type="matrix" values="0 0 0 0 0.0705882 0 0 0 0 0.717647 0 0 0 0 0.415686 0 0 0 0.16 0"/>
<feBlend mode="normal" in2="BackgroundImageFix" result="effect1_dropShadow_1_1339"/>
<feBlend mode="normal" in="SourceGraphic" in2="effect1_dropShadow_1_1339" result="shape"/>
</filter>
<clipPath id="clip0_1_1339">
<rect width="54" height="54" fill="white" transform="translate(285 100)"/>
</clipPath>
<clipPath id="clip1_1_1339">
<rect width="54" height="54" fill="white" transform="translate(219 100)"/>
</clipPath>
<clipPath id="clip2_1_1339">
<rect width="54" height="54" fill="white" transform="translate(155 101)"/>
</clipPath>
<clipPath id="clip3_1_1339">
<rect width="54" height="54" fill="white" transform="translate(92 101)"/>
</clipPath>
</defs>
</svg>
