<svg width="500" height="500" viewBox="0 0 500 500" fill="none" xmlns="http://www.w3.org/2000/svg">
<path d="M258.946 437.183C377.12 437.183 472.919 424.455 472.919 408.753C472.919 393.052 377.12 380.323 258.946 380.323C140.773 380.323 44.9736 393.052 44.9736 408.753C44.9736 424.455 140.773 437.183 258.946 437.183Z" fill="#27DEBF"/>
<path opacity="0.5" d="M258.946 437.183C377.12 437.183 472.919 424.455 472.919 408.753C472.919 393.052 377.12 380.323 258.946 380.323C140.773 380.323 44.9736 393.052 44.9736 408.753C44.9736 424.455 140.773 437.183 258.946 437.183Z" fill="white"/>
<path d="M279.296 385.279C279.296 385.279 189.021 398.716 187.643 399.405C186.265 400.094 183.509 401.817 184.542 403.195C185.576 404.573 199.702 403.195 199.702 403.195L204.526 401.128L273.438 398.027L244.15 428.693C244.15 428.693 242.083 431.794 243.117 432.828C244.15 433.861 248.285 434.55 248.974 433.517C249.663 432.483 251.386 429.382 251.386 429.382L289.632 400.094L358.544 410.775C358.544 410.775 357.855 412.153 360.267 412.842C362.679 413.531 372.326 416.977 372.671 414.91C373.015 412.842 372.671 410.086 369.914 409.397C367.158 408.708 286.187 385.966 286.187 385.966L279.296 385.279Z" fill="#263238" stroke="#263238" stroke-miterlimit="10" stroke-linecap="round" stroke-linejoin="round"/>
<path d="M283.876 390.102H282.294C278.735 390.102 275.849 387.216 275.849 383.656V366.571C275.849 363.011 278.735 360.125 282.294 360.125H283.876C287.435 360.125 290.321 363.011 290.321 366.571V383.656C290.321 387.216 287.435 390.102 283.876 390.102Z" fill="#263238" stroke="#263238" stroke-miterlimit="10" stroke-linecap="round" stroke-linejoin="round"/>
<path d="M287.494 371.84H279.02C275.175 371.84 272.06 368.722 272.06 364.879V332.904H294.455V364.879C294.455 368.724 291.338 371.84 287.494 371.84Z" fill="#263238" stroke="#263238" stroke-miterlimit="10" stroke-linecap="round" stroke-linejoin="round"/>
<path d="M380.25 284.322C376.738 290.028 374.881 296.608 371.461 302.427C356.974 327.081 330.883 341.195 302.38 340.829C275.504 340.484 257.932 336.005 238.637 328.081C219.343 320.156 203.836 311.198 197.29 301.549C190.744 291.902 167.313 267.782 156.287 255.034C145.262 242.285 146.296 240.218 138.371 237.462C130.446 234.705 134.236 225.747 144.573 218.512C154.909 211.276 166.97 216.789 172.483 223.335C177.995 229.882 193.846 237.806 215.208 249.523C236.57 261.237 262.757 263.993 279.295 258.825C295.833 253.657 301.346 236.773 301.691 219.201C302.035 201.629 296.522 185.089 280.327 163.383C264.134 141.676 250.35 128.927 253.796 112.388C257.241 95.8502 280.672 66.9067 290.664 69.663C300.655 72.4194 314.783 96.1931 353.717 105.497C392.652 114.8 422.974 112.733 425.73 110.321C428.487 107.909 445.025 79.9994 455.363 75.1758C465.699 70.3521 476.38 79.6549 475.693 86.8904C475.004 94.1258 438.825 167.862 434.001 180.61C429.178 193.358 385.763 275.363 385.763 275.363C385.763 275.363 380.255 284.315 380.25 284.322Z" fill="#27DEBF"/>
<mask id="mask0_120_6843" style="mask-type:luminance" maskUnits="userSpaceOnUse" x="134" y="69" width="342" height="272">
<path d="M380.25 284.322C376.738 290.028 374.881 296.608 371.461 302.427C356.974 327.081 330.883 341.195 302.38 340.829C275.504 340.484 257.932 336.005 238.637 328.081C219.343 320.156 203.836 311.198 197.29 301.549C190.744 291.902 167.313 267.782 156.287 255.034C145.262 242.285 146.296 240.218 138.371 237.462C130.446 234.705 134.236 225.747 144.573 218.512C154.909 211.276 166.97 216.789 172.483 223.335C177.995 229.882 193.846 237.806 215.208 249.523C236.57 261.237 262.757 263.993 279.295 258.825C295.833 253.657 301.346 236.773 301.691 219.201C302.035 201.629 296.522 185.089 280.327 163.383C264.134 141.676 250.35 128.927 253.796 112.388C257.241 95.8502 280.672 66.9067 290.664 69.663C300.655 72.4194 314.783 96.1931 353.717 105.497C392.652 114.8 422.974 112.733 425.73 110.321C428.487 107.909 445.025 79.9994 455.363 75.1758C465.699 70.3521 476.38 79.6549 475.693 86.8904C475.004 94.1258 438.825 167.862 434.001 180.61C429.178 193.358 385.763 275.363 385.763 275.363C385.763 275.363 380.255 284.315 380.25 284.322Z" fill="white"/>
</mask>
<g mask="url(#mask0_120_6843)">
<path opacity="0.2" d="M380.389 284.096C365.076 282.7 350.181 270.468 326.984 269.719C299.799 268.841 277.001 314.442 241.046 314.442C222.021 314.442 207.666 308.549 198.361 303C205.423 312.095 220.311 320.556 238.636 328.081C257.93 336.005 275.504 340.484 302.378 340.829C330.88 341.194 356.973 327.081 371.46 302.427C374.879 296.608 376.737 290.028 380.249 284.322C380.249 284.322 380.308 284.227 380.389 284.096Z" fill="black"/>
</g>
<mask id="mask1_120_6843" style="mask-type:luminance" maskUnits="userSpaceOnUse" x="134" y="69" width="342" height="272">
<path d="M380.25 284.322C376.738 290.028 374.881 296.608 371.461 302.427C356.974 327.081 330.883 341.195 302.38 340.829C275.504 340.484 257.932 336.005 238.637 328.081C219.343 320.156 203.836 311.198 197.29 301.549C190.744 291.902 167.313 267.782 156.287 255.034C145.262 242.285 146.296 240.218 138.371 237.462C130.446 234.705 134.236 225.747 144.573 218.512C154.909 211.276 166.97 216.789 172.483 223.335C177.995 229.882 193.846 237.806 215.208 249.523C236.57 261.237 262.757 263.993 279.295 258.825C295.833 253.657 301.346 236.773 301.691 219.201C302.035 201.629 296.522 185.089 280.327 163.383C264.134 141.676 250.35 128.927 253.796 112.388C257.241 95.8502 280.672 66.9067 290.664 69.663C300.655 72.4194 314.783 96.1931 353.717 105.497C392.652 114.8 422.974 112.733 425.73 110.321C428.487 107.909 445.025 79.9994 455.363 75.1758C465.699 70.3521 476.38 79.6549 475.693 86.8904C475.004 94.1258 438.825 167.862 434.001 180.61C429.178 193.358 385.763 275.363 385.763 275.363C385.763 275.363 380.255 284.315 380.25 284.322Z" fill="white"/>
</mask>
<g mask="url(#mask1_120_6843)">
<path opacity="0.2" d="M426.952 166.243C426.952 166.243 469.921 80.3065 472.551 79.4289C475.182 78.5513 478.689 82.0601 478.689 88.1986C478.689 94.337 434.001 180.61 434.001 180.61L426.952 166.243Z" fill="black"/>
</g>
<path d="M380.25 284.322C376.738 290.028 374.881 296.608 371.461 302.427C356.974 327.081 330.883 341.195 302.38 340.829C275.504 340.484 257.932 336.005 238.637 328.081C219.343 320.156 203.836 311.198 197.29 301.549C190.744 291.902 167.313 267.782 156.287 255.034C145.262 242.285 146.296 240.218 138.371 237.462C130.446 234.705 134.236 225.747 144.573 218.512C154.909 211.276 166.97 216.789 172.483 223.335C177.995 229.882 193.846 237.806 215.208 249.523C236.57 261.237 262.757 263.993 279.295 258.825C295.833 253.657 301.346 236.773 301.691 219.201C302.035 201.629 296.522 185.089 280.327 163.383C264.134 141.676 250.35 128.927 253.796 112.388C257.241 95.8502 280.672 66.9067 290.664 69.663C300.655 72.4194 314.783 96.1931 353.717 105.497C392.652 114.8 422.974 112.733 425.73 110.321C428.487 107.909 445.025 79.9994 455.363 75.1758C465.699 70.3521 476.38 79.6549 475.693 86.8904C475.004 94.1258 438.825 167.862 434.001 180.61C429.178 193.358 385.763 275.363 385.763 275.363C385.763 275.363 380.255 284.315 380.25 284.322Z" stroke="#263238" stroke-miterlimit="10" stroke-linecap="round" stroke-linejoin="round"/>
<path d="M425.732 110.321C425.732 110.321 410.227 138.575 409.538 141.332Z" fill="white"/>
<path d="M425.732 110.321C425.732 110.321 410.227 138.575 409.538 141.332" stroke="#263238" stroke-miterlimit="10" stroke-linecap="round" stroke-linejoin="round"/>
<path d="M230.367 173.202C230.367 173.202 228.472 173.202 223.131 170.963C217.791 168.723 214.69 166.311 210.211 166.139C205.732 165.967 193.845 175.787 193.845 181.127C193.845 186.467 211.589 186.64 217.62 186.812C223.65 186.984 230.541 187.501 231.919 186.984C233.297 186.467 233.125 174.064 232.091 173.547C231.056 173.03 230.367 173.202 230.367 173.202Z" fill="white" stroke="#263238" stroke-miterlimit="10" stroke-linecap="round" stroke-linejoin="round"/>
<path d="M236.742 171.996L228.99 172.685C228.99 172.685 230.368 176.648 230.368 184.228C230.368 191.808 228.473 198.182 228.473 198.182L238.809 198.01C238.809 198.01 243.633 185.95 243.633 180.955C243.633 175.959 236.742 171.996 236.742 171.996Z" fill="white" stroke="#263238" stroke-miterlimit="10" stroke-linecap="round" stroke-linejoin="round"/>
<path d="M320.469 125.826C320.469 125.826 302.897 148.223 296.866 155.975C290.836 163.727 278.605 168.551 277.225 169.068C275.847 169.585 236.739 171.997 236.739 171.997C236.739 171.997 239.668 176.992 238.807 184.572C237.945 192.152 236.223 200.077 236.223 200.077C236.223 200.077 245.181 200.766 259.998 197.665C274.813 194.564 283.255 197.148 291.87 189.568C300.484 181.988 316.507 142.536 319.608 135.645C322.709 128.754 324.259 124.448 320.469 125.826Z" fill="#263238" stroke="#263238" stroke-miterlimit="10" stroke-linecap="round" stroke-linejoin="round"/>
<path d="M114.252 355.301C114.252 355.301 104.26 363.915 93.9238 372.873C83.5875 381.831 62.224 388.722 50.5094 391.134C38.7949 393.546 25.7005 394.58 24.6669 396.647C23.6332 398.714 22.5996 401.815 31.5578 404.227C40.516 406.639 52.2305 409.395 61.5349 410.773C70.8376 412.151 75.3167 411.462 79.7958 410.084C84.2749 408.706 90.1322 408.017 90.1322 408.017L89.0986 412.84C89.0986 412.84 93.9222 413.874 107.015 413.53C120.108 413.185 123.553 412.84 124.931 410.773C126.31 408.706 126.31 405.95 126.31 405.95C126.31 405.95 132.511 392.512 131.822 386.31C131.133 380.109 129.066 376.663 129.066 376.663L136.646 363.915L114.252 355.301Z" fill="white" stroke="#263238" stroke-miterlimit="10" stroke-linecap="round" stroke-linejoin="round"/>
<path d="M131.824 386.312C131.331 381.887 130.141 378.873 129.498 377.505C121.045 379.533 107.704 380.455 107.704 380.455C107.704 380.455 111.838 373.908 109.082 369.429C106.326 364.95 99.4346 368.396 99.4346 368.396L99.0169 368.462C97.3576 369.899 95.6446 371.381 93.9219 372.875C83.5855 381.833 62.222 388.724 50.5075 391.136C38.7929 393.548 25.6985 394.581 24.6649 396.648C23.6313 398.716 22.5976 401.817 31.5558 404.228C40.514 406.64 52.2286 409.397 61.5329 410.775C70.8357 412.153 75.3148 411.464 79.7939 410.086C84.273 408.708 90.1302 408.018 90.1302 408.018L89.0966 412.842C89.0966 412.842 93.9203 413.876 107.013 413.531C120.106 413.187 123.551 412.842 124.929 410.775C126.308 408.708 126.308 405.951 126.308 405.951C126.308 405.951 132.513 392.514 131.824 386.312Z" fill="#263238" stroke="#263238" stroke-miterlimit="10" stroke-linecap="round" stroke-linejoin="round"/>
<path d="M26.3887 399.06C26.3887 399.06 44.9942 407.674 66.0131 407.674C87.0304 407.674 84.9631 406.296 92.5448 406.296C100.125 406.296 114.942 408.363 123.211 404.918" stroke="white" stroke-miterlimit="10" stroke-linecap="round" stroke-linejoin="round"/>
<path d="M172.481 223.336C172.481 223.336 168.347 221.268 164.557 231.605C160.767 241.941 120.453 316.022 113.907 326.703C107.36 337.383 96.335 350.476 96.335 350.476C96.335 350.476 108.739 360.813 118.043 365.981C127.346 371.149 136.993 374.594 136.993 374.594C136.993 374.594 159.733 333.247 170.76 311.541C181.786 289.835 202.46 253.656 202.46 253.656C202.46 253.656 207.628 242.975 193.846 232.638C180.064 222.302 172.481 223.336 172.481 223.336Z" fill="#263238" stroke="#263238" stroke-miterlimit="10" stroke-linecap="round" stroke-linejoin="round"/>
<path d="M295.145 247.455C295.145 247.455 281.363 245.388 265.168 227.816C248.974 210.244 242.773 205.937 242.773 205.937C242.773 205.937 228.991 188.538 215.552 181.645C202.115 174.754 186.953 175.788 178.339 196.116C169.726 216.444 147.673 284.668 145.261 297.76C142.849 310.853 140.782 319.124 141.816 321.536C142.849 323.948 155.942 327.738 165.247 330.494C174.549 333.25 174.549 332.217 176.617 328.771C178.684 325.326 202.804 263.65 202.804 263.65C202.804 263.65 220.031 290.871 247.252 296.384C274.473 301.897 289.288 297.762 305.137 290.871C320.986 283.98 336.837 272.955 332.702 260.894C328.568 248.832 295.145 247.455 295.145 247.455Z" fill="#263238" stroke="#263238" stroke-miterlimit="10" stroke-linecap="round" stroke-linejoin="round"/>
<path d="M155.254 300.172C155.254 300.172 176.271 257.447 181.441 235.741" stroke="white" stroke-miterlimit="10" stroke-linecap="round" stroke-linejoin="round"/>
<path d="M202.805 263.649C202.805 263.649 218.654 210.931 219.687 203.007" stroke="white" stroke-miterlimit="10" stroke-linecap="round" stroke-linejoin="round"/>
<path d="M213.831 227.47C213.831 227.47 258.279 239.529 284.466 247.798" stroke="white" stroke-miterlimit="10" stroke-linecap="round" stroke-linejoin="round"/>
<path d="M249.327 217.662C249.327 217.662 286.745 252.69 301.074 258.263" stroke="white" stroke-miterlimit="10" stroke-linecap="round" stroke-linejoin="round"/>
<path d="M375.771 133.923C375.771 133.923 375.407 133.884 374.75 133.81C369.554 133.234 345.994 130.55 338.043 128.41C329.085 125.998 323.055 122.897 320.471 125.826C317.887 128.754 285.326 193.877 285.154 197.15C284.981 200.423 293.423 213.171 292.561 216.445C291.7 219.718 284.981 224.541 284.465 227.298C283.948 230.054 283.603 230.571 283.431 231.088C283.259 231.605 282.914 233.155 282.914 233.155C282.914 233.155 263.62 220.751 254.315 214.033C245.012 207.314 242.084 205.419 242.773 205.936C243.462 206.453 251.387 224.197 267.58 235.052C283.774 245.905 290.837 249.867 302.209 254.519C313.58 259.17 342.005 270.195 345.451 270.712C348.896 271.229 356.476 274.158 365.779 266.233C375.082 258.309 436.931 171.997 436.759 169.24C436.587 166.484 405.748 144.431 399.719 142.019C393.689 139.608 375.408 133.884 375.408 133.884" fill="#263238"/>
<path d="M375.771 133.923C375.771 133.923 375.407 133.884 374.75 133.81C369.554 133.234 345.994 130.55 338.043 128.41C329.085 125.998 323.055 122.897 320.471 125.826C317.887 128.754 285.326 193.877 285.154 197.15C284.981 200.423 293.423 213.171 292.561 216.445C291.7 219.718 284.981 224.541 284.465 227.298C283.948 230.054 283.603 230.571 283.431 231.088C283.259 231.605 282.914 233.155 282.914 233.155C282.914 233.155 263.62 220.751 254.315 214.033C245.012 207.314 242.084 205.419 242.773 205.936C243.462 206.453 251.387 224.197 267.58 235.052C283.774 245.905 290.837 249.867 302.209 254.519C313.58 259.17 342.005 270.195 345.451 270.712C348.896 271.229 356.476 274.158 365.779 266.233C375.082 258.309 436.931 171.997 436.759 169.24C436.587 166.484 405.748 144.431 399.719 142.019C393.689 139.608 375.408 133.884 375.408 133.884" stroke="#263238" stroke-miterlimit="10" stroke-linecap="round" stroke-linejoin="round"/>
<path d="M312.025 229.882C312.025 231.405 310.405 232.638 308.408 232.638C306.41 232.638 304.79 231.405 304.79 229.882C304.79 228.359 306.41 227.125 308.408 227.125C310.407 227.125 312.025 228.359 312.025 229.882Z" fill="white" stroke="#263238" stroke-miterlimit="10" stroke-linecap="round" stroke-linejoin="round"/>
<path d="M304.447 237.462C304.447 238.985 302.827 240.218 300.83 240.218C298.832 240.218 297.212 238.985 297.212 237.462C297.212 235.939 298.832 234.706 300.83 234.706C302.827 234.706 304.447 235.941 304.447 237.462Z" fill="white" stroke="#263238" stroke-miterlimit="10" stroke-linecap="round" stroke-linejoin="round"/>
<path d="M362.85 145.465C362.85 145.465 343.555 158.902 330.288 172.341C317.023 185.778 301.689 200.768 301.345 204.041C301 207.314 308.236 214.722 308.408 216.445C308.58 218.167 311.337 225.747 311.337 225.747L334.078 211.449L399.544 143.57C399.544 143.57 382.316 142.708 373.012 143.053C363.711 143.398 362.85 145.465 362.85 145.465Z" fill="white" stroke="#263238" stroke-miterlimit="10" stroke-linecap="round" stroke-linejoin="round"/>
<path d="M355.786 162.177L355.27 168.379C355.27 168.379 330.461 189.568 326.671 193.186C322.881 196.804 316.162 202.661 315.645 204.901C315.128 207.14 315.817 211.275 313.922 214.892C312.027 218.51 310.305 220.922 310.305 220.922L311.338 225.746L328.91 214.376C328.91 214.376 341.658 196.804 347.688 188.188C353.717 179.575 358.713 169.411 358.713 169.411L369.394 165.104L368.705 152.183L355.786 162.177Z" fill="#27DEBF" stroke="#263238" stroke-miterlimit="10" stroke-linecap="round" stroke-linejoin="round"/>
<path d="M364.227 158.559L349.067 167L359.231 145.811C359.231 145.811 366.984 139.437 366.984 143.399C366.984 147.361 364.227 158.559 364.227 158.559Z" fill="white" stroke="#263238" stroke-miterlimit="10" stroke-linecap="round" stroke-linejoin="round"/>
<path d="M362.771 103.131H365.406" stroke="#263238" stroke-miterlimit="10" stroke-linecap="round" stroke-linejoin="round"/>
<path d="M357.51 76.2096C357.51 76.2096 350.964 84.4787 350.619 86.5459C350.274 88.6132 352.514 93.0923 352.686 94.6428C352.859 96.1932 354.926 95.1596 355.959 91.7141C356.993 88.2687 361.644 77.2432 361.644 77.2432C361.644 77.2432 360.439 72.9364 357.51 76.2096Z" fill="#263238" stroke="#263238" stroke-miterlimit="10" stroke-linecap="round" stroke-linejoin="round"/>
<path d="M356.53 81.6783C356.53 81.6783 353.571 91.0493 352.092 97.9532C350.613 104.859 350.366 113.736 351.353 120.394C352.339 127.053 353.573 144.561 354.312 146.534C355.052 148.507 359.245 149.494 361.463 149.741C363.683 149.988 364.915 149.248 364.915 149.248C364.915 149.248 362.997 158.561 364.231 158.561C365.464 158.561 393.52 142.343 395.74 140.864C397.961 139.385 400.426 124.342 400.426 124.342L406.568 118.969C407.741 117.942 409.201 116.755 409.498 115.224C410.023 112.525 411.62 107.425 411.136 105.007C410.397 101.308 407.577 100.42 407.577 100.42C407.577 100.42 413.249 81.9253 412.262 76.5004C412.262 76.5004 414.235 70.0889 400.426 65.8974C386.617 61.706 366.396 61.9514 359.984 67.3764C353.573 72.8014 355.052 76.5004 356.285 77.7339C357.519 78.9674 357.519 78.9674 357.519 78.9674L356.53 81.6783Z" fill="white" stroke="#263238" stroke-miterlimit="10" stroke-linecap="round" stroke-linejoin="round"/>
<path d="M400.424 65.8957C386.615 61.7043 366.394 61.9497 359.983 67.3747C353.571 72.7997 355.05 76.4986 356.284 77.7322C357.517 78.9657 357.517 78.9657 357.517 78.9657C357.517 78.9657 362.942 83.8982 371.327 83.4042C379.711 82.9101 391.547 77.7322 397.959 77.7322C404.37 77.7322 400.671 84.1436 395.986 87.5956C391.3 91.0476 393.026 92.5282 396.725 95.2406C400.424 97.9531 398.945 100.173 397.959 103.131C396.972 106.089 401.166 107.077 402.644 105.597C404.123 104.116 404.617 102.39 405.357 101.405C406.096 100.419 407.575 100.419 407.575 100.419C407.575 100.419 413.247 81.9236 412.261 76.4986C412.261 76.4986 414.234 70.0872 400.424 65.8957Z" fill="#263238" stroke="#263238" stroke-miterlimit="10" stroke-linecap="round" stroke-linejoin="round"/>
<path d="M364.914 127.545L357.022 125.572L363.514 111.092V102.372" stroke="#263238" stroke-miterlimit="10" stroke-linecap="round" stroke-linejoin="round"/>
<path d="M358.995 134.696L366.146 135.435" stroke="#263238" stroke-miterlimit="10" stroke-linecap="round" stroke-linejoin="round"/>
<path d="M364.915 149.245C364.915 149.245 389.327 138.395 392.287 136.175C395.246 133.955 398.206 125.325 398.206 125.325" stroke="#263238" stroke-miterlimit="10" stroke-linecap="round" stroke-linejoin="round"/>
<path d="M379.514 118.666H373.245C368.916 118.666 365.405 115.156 365.405 110.826V103.129H381.354C384.667 103.129 387.352 105.816 387.352 109.128V110.825C387.354 115.158 383.843 118.666 379.514 118.666Z" fill="#263238" stroke="#263238" stroke-miterlimit="10" stroke-linecap="round" stroke-linejoin="round"/>
<path d="M350.143 117.038H355.755C359.631 117.038 362.773 113.897 362.773 110.021V103.131H348.497C345.531 103.131 343.127 105.535 343.127 108.501V110.021C343.127 113.897 346.269 117.038 350.143 117.038Z" fill="#263238" stroke="#263238" stroke-miterlimit="10" stroke-linecap="round" stroke-linejoin="round"/>
<path d="M380.619 103.131L405.352 100.859L404.773 102.112L387.424 105.775C387.424 105.775 382.836 103.035 380.619 103.131Z" fill="#263238" stroke="#263238" stroke-miterlimit="10" stroke-linecap="round" stroke-linejoin="round"/>
<path d="M409.192 109.978C409.192 109.978 409.424 105.242 407.331 104.811C405.237 104.381 401.75 109.978 401.285 110.623C400.82 111.268 403.146 110.409 403.378 112.346C403.611 114.283 402.216 114.283 401.75 115.145" stroke="#263238" stroke-miterlimit="10" stroke-linecap="round" stroke-linejoin="round"/>
<path d="M401.285 110.623C401.285 110.623 403.378 107.18 405.704 109.762C408.03 112.345 406.169 115.143 406.169 115.143" stroke="#263238" stroke-miterlimit="10" stroke-linecap="round" stroke-linejoin="round"/>
<path d="M368.881 101.706C368.881 101.706 376.634 97.5712 380.94 97.7435C385.247 97.9158 386.281 100.155 386.281 100.155C386.281 100.155 382.319 98.0881 379.907 98.9494C377.495 99.8108 373.36 102.395 370.949 102.567C368.537 102.739 368.881 101.706 368.881 101.706Z" fill="#263238" stroke="#263238" stroke-miterlimit="10" stroke-linecap="round" stroke-linejoin="round"/>
<path d="M361.473 101.534C361.473 101.534 361.129 101.189 356.477 100.155C351.826 99.1218 350.964 99.4663 351.998 99.9831C353.032 100.5 357.074 101.659 359.923 102.395C362.772 103.131 361.473 101.534 361.473 101.534Z" fill="#263238" stroke="#263238" stroke-miterlimit="10" stroke-linecap="round" stroke-linejoin="round"/>
<path d="M366.723 157.516L368.018 174.236L401.268 142.536L397.306 138.229L366.723 157.516Z" fill="white" stroke="#263238" stroke-miterlimit="10" stroke-linecap="round" stroke-linejoin="round"/>
<path d="M190.917 172.341C190.917 172.341 187.127 175.27 186.955 176.993C186.782 178.715 191.606 186.984 193.501 188.19C195.396 189.396 194.879 189.569 195.568 188.018C196.257 186.468 192.467 172.686 192.123 171.824C191.777 170.963 190.917 172.341 190.917 172.341Z" fill="white" stroke="#263238" stroke-miterlimit="10" stroke-linecap="round" stroke-linejoin="round"/>
<path d="M196.774 166.484C196.774 166.484 192.123 166.484 190.744 168.379C189.366 170.274 190.4 172.858 191.433 175.959C192.467 179.06 194.362 186.295 195.568 188.018C196.774 189.741 199.875 190.258 200.219 187.501C200.564 184.745 199.013 170.618 198.669 168.379C198.324 166.139 196.774 166.484 196.774 166.484Z" fill="white" stroke="#263238" stroke-miterlimit="10" stroke-linecap="round" stroke-linejoin="round"/>
<path d="M209.006 165.45C209.006 165.45 201.082 161.488 199.359 161.488C197.636 161.488 195.741 163.9 195.741 167.173C195.741 170.446 197.636 181.816 197.808 184.228C197.981 186.64 199.014 189.051 200.565 188.535C202.115 188.018 202.977 187.501 203.838 184.056C204.699 180.61 205.216 169.929 205.216 169.929" fill="white"/>
<path d="M209.006 165.45C209.006 165.45 201.082 161.488 199.359 161.488C197.636 161.488 195.741 163.9 195.741 167.173C195.741 170.446 197.636 181.816 197.808 184.228C197.981 186.64 199.014 189.051 200.565 188.535C202.115 188.018 202.977 187.501 203.838 184.056C204.699 180.61 205.216 169.929 205.216 169.929" stroke="#263238" stroke-miterlimit="10" stroke-linecap="round" stroke-linejoin="round"/>
<path d="M222.098 177.854L212.968 191.119C212.968 191.119 213.829 194.564 216.241 193.531C218.653 192.497 222.098 188.707 224.682 185.951C227.266 183.194 228.817 183.022 227.783 180.438C226.75 177.854 223.649 176.303 223.649 176.303C223.649 176.303 219.514 169.068 215.035 166.139C210.556 163.211 208.661 163.038 206.938 165.795C205.215 168.551 202.804 184.573 202.804 187.675C202.804 190.776 204.354 192.499 205.732 191.637C207.11 190.776 209.178 187.158 209.867 184.402C210.556 181.646 214.691 171.481 214.691 171.481" fill="white"/>
<path d="M222.098 177.854L212.968 191.119C212.968 191.119 213.829 194.564 216.241 193.531C218.653 192.497 222.098 188.707 224.682 185.951C227.266 183.194 228.817 183.022 227.783 180.438C226.75 177.854 223.649 176.303 223.649 176.303C223.649 176.303 219.514 169.068 215.035 166.139C210.556 163.211 208.661 163.038 206.938 165.795C205.215 168.551 202.804 184.573 202.804 187.675C202.804 190.776 204.354 192.499 205.732 191.637C207.11 190.776 209.178 187.158 209.867 184.402C210.556 181.646 214.691 171.481 214.691 171.481" stroke="#263238" stroke-miterlimit="10" stroke-linecap="round" stroke-linejoin="round"/>
<path d="M141.816 321.534L155.253 300.171L170.757 322.911C170.757 322.911 168.001 329.802 167.312 333.936C166.623 338.071 166.278 345.995 164.9 347.029C163.522 348.063 151.807 347.029 144.917 343.928C138.026 340.827 138.715 335.659 139.404 331.524C140.093 327.391 141.816 321.534 141.816 321.534Z" fill="white" stroke="#263238" stroke-miterlimit="10" stroke-linecap="round" stroke-linejoin="round"/>
<path d="M161.11 336.351C161.11 336.351 162.488 328.082 155.598 326.359C148.707 324.637 141.127 324.637 139.059 327.738C136.992 330.838 131.824 339.108 129.757 339.452C127.689 339.797 103.569 333.25 97.7122 331.528C91.8549 329.805 91.8549 339.108 93.5776 344.965C95.3004 350.822 108.393 360.125 116.318 362.881C124.242 365.638 132.167 367.705 132.167 367.705L131.478 370.117C131.478 370.117 156.976 377.008 159.388 377.008C161.799 377.008 162.488 372.184 162.488 372.184C162.488 372.184 169.724 369.083 169.724 362.192C169.724 355.301 170.068 342.207 170.068 342.207C170.068 342.207 165.934 336.696 161.11 336.351Z" fill="#263238" stroke="#263238" stroke-miterlimit="10" stroke-linecap="round" stroke-linejoin="round"/>
<path d="M158.009 368.739C154.564 367.016 149.051 365.293 149.051 365.293C149.051 365.293 145.606 366.327 143.883 366.671C142.16 367.016 140.437 366.671 132.513 360.469C124.588 354.268 104.258 339.797 98.4011 336.696C94.8711 334.827 93.3451 337.712 92.6885 340.301C92.8445 341.921 93.1598 343.544 93.5775 344.965C95.3002 350.822 108.393 360.125 116.318 362.881C124.242 365.638 132.167 367.705 132.167 367.705L131.478 370.117C131.478 370.117 156.976 377.008 159.387 377.008C161.799 377.008 162.488 372.184 162.488 372.184C162.488 372.184 161.455 370.461 158.009 368.739Z" fill="white" stroke="#263238" stroke-miterlimit="10" stroke-linecap="round" stroke-linejoin="round"/>
<path d="M144.226 373.562L145.259 367.705H132.167L131.478 370.117L144.226 373.562Z" fill="#263238" stroke="#263238" stroke-miterlimit="10" stroke-linecap="round" stroke-linejoin="round"/>
<path d="M202.459 283.288C202.459 283.288 209.35 296.381 230.369 297.759C251.386 299.137 269.648 295.347 279.985 285.011C290.321 274.674 295.834 261.58 308.239 254.689C320.643 247.798 329.947 253.655 348.553 258.479C367.158 263.303 375.429 260.546 375.429 260.546C375.429 260.546 387.833 259.857 391.623 254.345C395.413 248.832 396.102 241.252 399.892 245.042C403.682 248.832 408.505 273.296 403.337 283.288C398.169 293.28 397.824 295.347 365.78 288.112C333.736 280.876 332.322 278.224 323.363 283.737C314.405 289.249 304.397 305.848 285.15 314.785C262.858 325.134 242.083 323.946 222.787 319.81C203.492 315.675 193.154 296.725 193.154 296.725" fill="#27DEBF"/>
<path d="M202.459 283.288C202.459 283.288 209.35 296.381 230.369 297.759C251.386 299.137 269.648 295.347 279.985 285.011C290.321 274.674 295.834 261.58 308.239 254.689C320.643 247.798 329.947 253.655 348.553 258.479C367.158 263.303 375.429 260.546 375.429 260.546C375.429 260.546 387.833 259.857 391.623 254.345C395.413 248.832 396.102 241.252 399.892 245.042C403.682 248.832 408.505 273.296 403.337 283.288C398.169 293.28 397.824 295.347 365.78 288.112C333.736 280.876 332.322 278.224 323.363 283.737C314.405 289.249 304.397 305.848 285.15 314.785C262.858 325.134 242.083 323.946 222.787 319.81C203.492 315.675 193.154 296.725 193.154 296.725" stroke="#263238" stroke-miterlimit="10" stroke-linecap="round" stroke-linejoin="round"/>
<path d="M334.266 194.624C334.266 194.624 329.106 189.662 325.534 185.494C321.961 181.325 320.77 179.341 318.587 173.982C316.405 168.624 314.022 164.455 311.243 165.448C308.464 166.441 298.739 165.25 297.547 167.234C296.356 169.219 289.806 178.349 289.212 180.334C288.617 182.318 292.586 185.097 294.173 186.685C295.761 188.273 297.547 189.861 298.937 189.861C300.326 189.861 301.914 187.28 301.914 187.28C301.914 187.28 305.288 191.25 307.273 192.638C309.257 194.028 313.227 194.424 313.227 194.424L324.541 206.73L334.266 194.624Z" fill="white" stroke="#263238" stroke-miterlimit="10" stroke-linecap="round" stroke-linejoin="round"/>
<path d="M316.206 197.998L327.321 187.678L330.297 190.456L318.984 200.579L316.206 197.998Z" fill="#263238" stroke="#263238" stroke-miterlimit="10" stroke-linecap="round" stroke-linejoin="round"/>
<path d="M301.914 187.28L297.15 185.692" stroke="#263238" stroke-miterlimit="10" stroke-linecap="round" stroke-linejoin="round"/>
<path d="M331.685 189.96C331.685 192.208 329.819 194.029 327.516 194.029C325.215 194.029 323.348 192.208 323.348 189.96C323.348 187.712 325.213 185.89 327.516 185.89C329.819 185.892 331.685 187.712 331.685 189.96Z" fill="white" stroke="#263238" stroke-miterlimit="10" stroke-linecap="round" stroke-linejoin="round"/>
<path d="M424.354 159.593C424.354 159.593 431.59 163.038 434.691 166.139C437.792 169.24 439.859 171.307 437.447 178.543C435.035 185.778 391.966 262.271 389.209 266.405C386.453 270.54 380.595 273.296 375.772 270.54C370.948 267.783 317.542 208.175 317.542 208.175L335.114 191.293L370.604 222.303L400.236 177.855" fill="#263238"/>
<path d="M424.354 159.593C424.354 159.593 431.59 163.038 434.691 166.139C437.792 169.24 439.859 171.307 437.447 178.543C435.035 185.778 391.966 262.271 389.209 266.405C386.453 270.54 380.595 273.296 375.772 270.54C370.948 267.783 317.542 208.175 317.542 208.175L335.114 191.293L370.604 222.303L400.236 177.855" stroke="#263238" stroke-miterlimit="10" stroke-linecap="round" stroke-linejoin="round"/>
<path d="M391.229 237.099L370.602 222.302L392.817 227.572" stroke="white" stroke-miterlimit="10" stroke-linecap="round" stroke-linejoin="round"/>
<path d="M346.414 201.678L370.602 222.302L396.451 181.366" stroke="white" stroke-miterlimit="10" stroke-linecap="round" stroke-linejoin="round"/>
</svg>
