<svg width="1920" height="1088" viewBox="0 0 1920 1088" fill="none" xmlns="http://www.w3.org/2000/svg">
<g clip-path="url(#clip0_2314_2013)">
<rect width="1920" height="1088" fill="url(#paint0_linear_2314_2013)"/>
<line x1="1893" y1="428" x2="-22" y2="428" stroke="#CCCCCC" stroke-width="2"/>
<line x1="2310" y1="567" x2="8.74229e-08" y2="567" stroke="#CCCCCC" stroke-width="2"/>
<line x1="2288" y1="719" x2="-22" y2="719" stroke="#CCCCCC" stroke-width="2"/>
<line x1="312.5" y1="-2.18557e-08" x2="312.5" y2="1440" stroke="white"/>
<line x1="960.5" y1="-2.18557e-08" x2="960.5" y2="1440" stroke="white"/>
<line x1="1607.5" y1="-85" x2="1607.5" y2="1355" stroke="white"/>
<rect x="515" y="324" width="889.359" height="484.134" rx="73" fill="url(#paint1_linear_2314_2013)" stroke="#313131" stroke-width="2"/>
<rect x="541.016" y="352.736" width="838.006" height="425.982" rx="39.5" fill="url(#paint2_linear_2314_2013)" stroke="black"/>
<rect x="579.27" y="388.271" width="761.497" height="355.592" rx="85" fill="black"/>
<g filter="url(#filter0_f_2314_2013)">
<rect x="628.906" y="448.783" width="668.35" height="269.244" rx="68" fill="#70FE90"/>
</g>
<g filter="url(#filter1_i_2314_2013)">
<rect x="615.305" y="427.026" width="688.747" height="277.402" rx="68" fill="url(#paint3_linear_2314_2013)"/>
</g>
<g filter="url(#filter2_di_2314_2013)">
<rect x="659.5" y="471.22" width="600.359" height="189.014" rx="50" fill="url(#paint4_linear_2314_2013)"/>
</g>
<path d="M792.461 525.684C792.461 525.774 792.961 526.988 793.961 529.327C795.052 531.666 796.461 534.724 798.189 538.502C799.916 542.19 801.871 546.463 804.053 551.32C806.326 556.088 808.598 560.99 810.871 566.028C813.235 570.975 815.508 575.877 817.69 580.735C819.963 585.502 821.963 589.775 823.69 593.553C825.418 597.331 826.781 600.434 827.781 602.863C828.872 605.202 829.418 606.461 829.418 606.641C830.145 607.9 830.145 609.159 829.418 610.419C828.782 611.588 827.827 612.173 826.554 612.173C823.372 612.173 820.917 612.173 819.19 612.173C817.463 612.173 816.144 612.128 815.235 612.038C814.326 611.858 813.644 611.633 813.19 611.363C812.826 611.093 812.417 610.734 811.962 610.284C807.871 605.426 802.871 601.918 796.961 599.759C791.143 597.511 785.143 596.476 778.96 596.656C772.778 596.746 766.732 597.96 760.823 600.299C755.004 602.638 750.049 605.966 745.958 610.284C745.686 610.734 745.367 611.093 745.004 611.363C744.64 611.633 744.004 611.858 743.095 612.038C742.185 612.128 740.867 612.173 739.14 612.173C737.412 612.173 735.049 612.173 732.048 612.173C730.503 612.173 729.412 611.588 728.775 610.419C728.139 609.159 728.003 607.9 728.366 606.641C735.185 592.159 740.867 580.015 745.413 570.21C749.959 560.406 753.686 552.355 756.595 546.058C759.505 539.762 761.777 534.949 763.414 531.621C765.05 528.293 766.323 525.819 767.232 524.2C768.232 522.581 769.005 521.546 769.551 521.097C770.187 520.557 770.914 520.017 771.733 519.478C773.46 518.398 775.324 517.768 777.324 517.589C779.415 517.319 781.415 517.454 783.324 517.993C785.233 518.533 786.961 519.478 788.506 520.827C790.143 522.086 791.461 523.705 792.461 525.684ZM756.459 586.132C759.914 584.872 763.55 583.928 767.369 583.298C771.278 582.579 775.187 582.219 779.097 582.219C783.097 582.129 787.006 582.399 790.825 583.028C794.734 583.568 798.416 584.378 801.871 585.457C801.234 584.108 800.734 583.118 800.371 582.489C800.098 581.769 799.734 581.005 799.28 580.195C798.916 579.295 798.371 578.081 797.643 576.552C796.916 575.023 795.78 572.684 794.234 569.536C792.779 566.387 790.825 562.205 788.37 556.987C786.006 551.77 782.915 545.024 779.097 536.748C775.278 544.754 772.187 551.365 769.823 556.583C767.46 561.71 765.55 565.848 764.096 568.996C762.641 572.144 761.55 574.528 760.823 576.147C760.096 577.766 759.505 579.071 759.05 580.06C758.686 581.05 758.323 581.949 757.959 582.759C757.595 583.568 757.095 584.693 756.459 586.132Z" fill="url(#paint5_linear_2314_2013)"/>
<path d="M863.999 527.917C863.999 525.128 864.863 523.059 866.59 521.71C868.408 520.361 870.363 519.686 872.454 519.686C874.545 519.686 876.454 520.361 878.182 521.71C879.909 523.059 880.773 525.128 880.773 527.917V605.77C880.773 608.469 879.909 610.537 878.182 611.977C876.454 613.326 874.545 614.001 872.454 614.001C870.363 614.001 868.408 613.326 866.59 611.977C864.863 610.537 863.999 608.469 863.999 605.77V527.917Z" fill="url(#paint6_linear_2314_2013)"/>
<path d="M918.974 554.902C918.974 552.114 919.837 550.045 921.565 548.696C923.292 547.346 925.201 546.672 927.292 546.672C929.384 546.672 931.293 547.346 933.02 548.696C934.747 550.045 935.611 552.114 935.611 554.902V605.77C935.611 608.469 934.747 610.537 933.02 611.977C931.293 613.326 929.384 614.001 927.292 614.001C925.201 614.001 923.292 613.326 921.565 611.977C919.837 610.537 918.974 608.469 918.974 605.77V554.902ZM927.156 535.743C924.429 535.743 922.383 534.933 921.019 533.314C919.747 531.605 919.11 529.761 919.11 527.782C919.11 525.713 919.792 523.824 921.156 522.115C922.519 520.406 924.611 519.551 927.429 519.551C930.156 519.551 932.202 520.406 933.566 522.115C934.929 523.824 935.611 525.713 935.611 527.782C935.611 529.761 934.884 531.605 933.429 533.314C932.066 534.933 929.974 535.743 927.156 535.743Z" fill="url(#paint7_linear_2314_2013)"/>
<path d="M990.589 605.77C990.589 608.469 989.68 610.537 987.862 611.977C986.135 613.326 984.225 614.001 982.134 614.001C980.043 614.001 978.134 613.326 976.407 611.977C974.679 610.627 973.816 608.558 973.816 605.77V576.626C973.816 571.228 974.77 566.551 976.679 562.593C978.679 558.545 981.271 555.217 984.453 552.608C987.726 549.91 991.362 547.931 995.362 546.672C999.453 545.322 1003.59 544.648 1007.77 544.648C1012.41 544.648 1016.86 545.457 1021.14 547.076C1025.41 548.696 1029 551.124 1031.91 554.363C1035.09 551.214 1038.86 548.83 1043.23 547.211C1047.68 545.592 1052.32 544.783 1057.14 544.783C1061.14 544.783 1065.05 545.412 1068.87 546.672C1072.69 547.841 1076.09 549.73 1079.09 552.339C1082.09 554.947 1084.5 558.275 1086.32 562.323C1088.14 566.281 1089.05 571.049 1089.05 576.626V605.77C1089.05 608.469 1088.19 610.537 1086.46 611.977C1084.73 613.326 1082.82 614.001 1080.73 614.001C1078.64 614.001 1076.69 613.326 1074.87 611.977C1073.14 610.537 1072.28 608.469 1072.28 605.77V576.626C1072.28 574.017 1071.78 571.768 1070.78 569.879C1069.87 567.9 1068.64 566.281 1067.09 565.022C1065.64 563.673 1063.91 562.683 1061.91 562.053C1060 561.334 1058.05 560.974 1056.05 560.974C1053.96 560.974 1051.96 561.334 1050.05 562.053C1048.14 562.683 1046.41 563.673 1044.87 565.022C1043.32 566.281 1042.09 567.9 1041.18 569.879C1040.27 571.768 1039.82 574.017 1039.82 576.626V605.77C1039.82 608.469 1038.96 610.537 1037.23 611.977C1035.5 613.326 1033.59 614.001 1031.5 614.001C1029.41 614.001 1027.46 613.326 1025.64 611.977C1023.91 610.537 1023.05 608.469 1023.05 605.77V576.626C1023.05 574.017 1022.55 571.768 1021.55 569.879C1020.64 567.9 1019.41 566.281 1017.86 565.022C1016.41 563.673 1014.68 562.683 1012.68 562.053C1010.68 561.334 1008.68 560.974 1006.68 560.974C1004.68 560.974 1002.68 561.289 1000.68 561.918C998.772 562.548 997.044 563.538 995.499 564.887C994.044 566.146 992.862 567.765 991.953 569.744C991.044 571.723 990.589 574.017 990.589 576.626V605.77Z" fill="url(#paint8_linear_2314_2013)"/>
<path d="M1124.48 578.051C1124.48 573.193 1125.43 568.606 1127.34 564.288C1129.25 559.971 1131.84 556.193 1135.12 552.954C1138.39 549.716 1142.25 547.152 1146.71 545.263C1151.16 543.374 1155.98 542.43 1161.16 542.43C1166.35 542.43 1171.16 543.374 1175.62 545.263C1180.07 547.062 1183.94 549.581 1187.21 552.819C1190.57 556.058 1193.21 559.836 1195.12 564.153C1197.03 568.471 1197.98 573.104 1197.98 578.051V604.632C1197.98 607.06 1197.12 608.904 1195.39 610.164C1193.67 611.333 1191.76 611.918 1189.67 611.918C1187.57 611.918 1185.62 611.333 1183.8 610.164C1182.07 608.904 1181.21 607.06 1181.21 604.632V578.051C1181.21 574.543 1180.62 571.484 1179.44 568.876C1178.35 566.267 1176.89 564.108 1175.07 562.399C1173.26 560.6 1171.12 559.296 1168.66 558.486C1166.3 557.587 1163.89 557.137 1161.44 557.137C1158.89 557.137 1156.39 557.587 1153.94 558.486C1151.57 559.296 1149.44 560.6 1147.53 562.399C1145.62 564.108 1144.07 566.267 1142.89 568.876C1141.8 571.484 1141.25 574.543 1141.25 578.051C1141.25 580.659 1141.71 583.223 1142.62 585.742C1143.62 588.17 1144.98 590.374 1146.71 592.353C1148.53 594.332 1150.66 595.951 1153.12 597.211C1155.57 598.38 1158.25 598.965 1161.16 598.965C1161.71 598.965 1162.44 598.92 1163.35 598.83C1164.26 598.74 1165.21 598.785 1166.21 598.965C1167.3 599.145 1168.3 599.549 1169.21 600.179C1170.21 600.809 1171.03 601.843 1171.66 603.282C1172.39 604.991 1172.62 606.521 1172.35 607.87C1172.07 609.129 1171.44 610.209 1170.44 611.108C1169.44 612.008 1168.07 612.682 1166.35 613.132C1164.71 613.582 1162.89 613.807 1160.89 613.807C1157.35 613.807 1153.44 613.087 1149.16 611.648C1144.98 610.209 1141.03 608.05 1137.3 605.171C1133.66 602.203 1130.62 598.47 1128.16 593.972C1125.71 589.475 1124.48 584.168 1124.48 578.051Z" fill="url(#paint9_linear_2314_2013)"/>
</g>
<defs>
<filter id="filter0_f_2314_2013" x="581.506" y="401.383" width="763.148" height="364.044" filterUnits="userSpaceOnUse" color-interpolation-filters="sRGB">
<feFlood flood-opacity="0" result="BackgroundImageFix"/>
<feBlend mode="normal" in="SourceGraphic" in2="BackgroundImageFix" result="shape"/>
<feGaussianBlur stdDeviation="23.7" result="effect1_foregroundBlur_2314_2013"/>
</filter>
<filter id="filter1_i_2314_2013" x="613.305" y="411.026" width="690.746" height="293.402" filterUnits="userSpaceOnUse" color-interpolation-filters="sRGB">
<feFlood flood-opacity="0" result="BackgroundImageFix"/>
<feBlend mode="normal" in="SourceGraphic" in2="BackgroundImageFix" result="shape"/>
<feColorMatrix in="SourceAlpha" type="matrix" values="0 0 0 0 0 0 0 0 0 0 0 0 0 0 0 0 0 0 127 0" result="hardAlpha"/>
<feMorphology radius="8" operator="erode" in="SourceAlpha" result="effect1_innerShadow_2314_2013"/>
<feOffset dx="-2" dy="-16"/>
<feGaussianBlur stdDeviation="38.5"/>
<feComposite in2="hardAlpha" operator="arithmetic" k2="-1" k3="1"/>
<feColorMatrix type="matrix" values="0 0 0 0 0 0 0 0 0 0 0 0 0 0 0 0 0 0 0.25 0"/>
<feBlend mode="normal" in2="shape" result="effect1_innerShadow_2314_2013"/>
</filter>
<filter id="filter2_di_2314_2013" x="621.5" y="436.22" width="690.359" height="279.014" filterUnits="userSpaceOnUse" color-interpolation-filters="sRGB">
<feFlood flood-opacity="0" result="BackgroundImageFix"/>
<feColorMatrix in="SourceAlpha" type="matrix" values="0 0 0 0 0 0 0 0 0 0 0 0 0 0 0 0 0 0 127 0" result="hardAlpha"/>
<feOffset dx="7" dy="10"/>
<feGaussianBlur stdDeviation="22.5"/>
<feComposite in2="hardAlpha" operator="out"/>
<feColorMatrix type="matrix" values="0 0 0 0 0 0 0 0 0 0 0 0 0 0 0 0 0 0 0.25 0"/>
<feBlend mode="normal" in2="BackgroundImageFix" result="effect1_dropShadow_2314_2013"/>
<feBlend mode="normal" in="SourceGraphic" in2="effect1_dropShadow_2314_2013" result="shape"/>
<feColorMatrix in="SourceAlpha" type="matrix" values="0 0 0 0 0 0 0 0 0 0 0 0 0 0 0 0 0 0 127 0" result="hardAlpha"/>
<feMorphology radius="17" operator="erode" in="SourceAlpha" result="effect2_innerShadow_2314_2013"/>
<feOffset dx="1" dy="20"/>
<feGaussianBlur stdDeviation="27.2"/>
<feComposite in2="hardAlpha" operator="arithmetic" k2="-1" k3="1"/>
<feColorMatrix type="matrix" values="0 0 0 0 0 0 0 0 0 0 0 0 0 0 0 0 0 0 0.25 0"/>
<feBlend mode="normal" in2="shape" result="effect2_innerShadow_2314_2013"/>
</filter>
<linearGradient id="paint0_linear_2314_2013" x1="4.17398" y1="1.4818e-05" x2="1809.01" y2="1243.09" gradientUnits="userSpaceOnUse">
<stop stop-color="#1C1C1C"/>
<stop offset="1" stop-color="#1C1C1C"/>
</linearGradient>
<linearGradient id="paint1_linear_2314_2013" x1="522.282" y1="323" x2="1397.08" y2="809.134" gradientUnits="userSpaceOnUse">
<stop stop-color="#464646"/>
<stop offset="1" stop-color="#171717"/>
</linearGradient>
<linearGradient id="paint2_linear_2314_2013" x1="553.601" y1="352.236" x2="1366.44" y2="779.218" gradientUnits="userSpaceOnUse">
<stop stop-color="#1B1B1B"/>
<stop offset="1" stop-color="#242424"/>
</linearGradient>
<linearGradient id="paint3_linear_2314_2013" x1="959.678" y1="427.026" x2="959.678" y2="704.428" gradientUnits="userSpaceOnUse">
<stop stop-color="#70FE90"/>
<stop offset="1" stop-color="#0C1E1E"/>
</linearGradient>
<linearGradient id="paint4_linear_2314_2013" x1="959.679" y1="471.22" x2="959.679" y2="660.234" gradientUnits="userSpaceOnUse">
<stop stop-color="#0C1E1E"/>
<stop offset="1" stop-color="#70FE90"/>
</linearGradient>
<linearGradient id="paint5_linear_2314_2013" x1="957.657" y1="614.001" x2="968.495" y2="517.454" gradientUnits="userSpaceOnUse">
<stop stop-color="white"/>
<stop offset="1" stop-color="#24C749"/>
</linearGradient>
<linearGradient id="paint6_linear_2314_2013" x1="957.657" y1="614.001" x2="968.495" y2="517.454" gradientUnits="userSpaceOnUse">
<stop stop-color="white"/>
<stop offset="1" stop-color="#24C749"/>
</linearGradient>
<linearGradient id="paint7_linear_2314_2013" x1="957.657" y1="614.001" x2="968.495" y2="517.454" gradientUnits="userSpaceOnUse">
<stop stop-color="white"/>
<stop offset="1" stop-color="#24C749"/>
</linearGradient>
<linearGradient id="paint8_linear_2314_2013" x1="957.657" y1="614.001" x2="968.495" y2="517.454" gradientUnits="userSpaceOnUse">
<stop stop-color="white"/>
<stop offset="1" stop-color="#24C749"/>
</linearGradient>
<linearGradient id="paint9_linear_2314_2013" x1="957.657" y1="614.001" x2="968.495" y2="517.454" gradientUnits="userSpaceOnUse">
<stop stop-color="white"/>
<stop offset="1" stop-color="#24C749"/>
</linearGradient>
<clipPath id="clip0_2314_2013">
<rect width="1920" height="1088" fill="white"/>
</clipPath>
</defs>
</svg>
