<svg width="500" height="500" viewBox="0 0 500 500" fill="none" xmlns="http://www.w3.org/2000/svg">
<path opacity="0.2" d="M244.91 459.024C357.641 459.024 449.028 367.637 449.028 254.906C449.028 142.174 357.641 50.7871 244.91 50.7871C132.178 50.7871 40.791 142.174 40.791 254.906C40.791 367.637 132.178 459.024 244.91 459.024Z" fill="#27DEBF"/>
<path opacity="0.2" d="M367.359 377.359C434.988 309.73 434.988 200.082 367.359 132.453C299.73 64.8238 190.082 64.8238 122.453 132.453C54.8241 200.082 54.8241 309.73 122.453 377.359C190.082 444.988 299.73 444.988 367.359 377.359Z" fill="#27DEBF"/>
<path opacity="0.2" d="M350.524 360.524C408.855 302.193 408.855 207.619 350.524 149.287C292.193 90.956 197.619 90.9561 139.287 149.287C80.9559 207.619 80.9559 302.193 139.287 360.524C197.619 418.855 292.193 418.856 350.524 360.524Z" fill="#27DEBF"/>
<path opacity="0.2" d="M337.341 347.341C388.392 296.291 388.392 213.521 337.341 162.47C286.29 111.419 203.52 111.419 152.47 162.47C101.419 213.521 101.419 296.291 152.47 347.341C203.52 398.392 286.29 398.392 337.341 347.341Z" fill="#27DEBF"/>
<path d="M302.22 430.842C292.707 429.628 289.703 422.459 295.51 414.827C301.318 407.196 313.737 401.994 323.25 403.206C332.762 404.42 335.767 411.589 329.959 419.221C324.152 426.852 311.734 432.054 302.22 430.842Z" fill="#263238"/>
<path d="M332.829 412.964L329.647 414.297C328.316 413.115 326.376 412.283 323.873 411.963C316.137 410.976 306.037 415.208 301.315 421.413C299.787 423.422 299.021 425.387 298.929 427.165L295.751 428.497L301.822 432.749L301.833 432.744C303.099 433.584 304.749 434.179 306.772 434.438C314.509 435.425 324.608 431.193 329.331 424.988C330.566 423.365 331.299 421.772 331.588 420.28L331.599 420.275L332.829 412.964Z" fill="#27DEBF"/>
<path opacity="0.4" d="M332.829 412.964L329.647 414.297C328.316 413.115 326.376 412.283 323.873 411.963C316.137 410.976 306.037 415.208 301.315 421.413C299.787 423.422 299.021 425.387 298.929 427.165L295.751 428.497L301.822 432.749L301.833 432.744C303.099 433.584 304.749 434.179 306.772 434.438C314.509 435.425 324.608 431.193 329.331 424.988C330.566 423.365 331.299 421.772 331.588 420.28L331.599 420.275L332.829 412.964Z" fill="black"/>
<path d="M315.988 424.802C332.022 418.133 341.899 405.223 338.049 395.966C334.199 386.708 318.08 384.61 302.045 391.279C286.011 397.947 276.134 410.858 279.984 420.115C283.834 429.372 299.953 431.471 315.988 424.802Z" fill="#27DEBF"/>
<path d="M314.467 421.144C331.097 414.228 341.341 400.837 337.348 391.236C333.355 381.635 316.636 379.458 300.006 386.375C283.376 393.291 273.132 406.681 277.125 416.283C281.118 425.884 297.837 428.061 314.467 421.144Z" fill="#27DEBF"/>
<path opacity="0.2" d="M314.467 421.144C331.097 414.228 341.341 400.837 337.348 391.236C333.355 381.635 316.636 379.458 300.006 386.375C283.376 393.291 273.132 406.681 277.125 416.283C281.118 425.884 297.837 428.061 314.467 421.144Z" fill="black"/>
<path d="M312.738 416.994C329.789 409.902 340.293 396.173 336.198 386.328C332.104 376.484 314.962 374.252 297.911 381.344C280.86 388.436 270.356 402.165 274.45 412.009C278.545 421.854 295.687 424.085 312.738 416.994Z" fill="#27DEBF"/>
<path d="M311.012 412.839C328.484 405.572 339.247 391.504 335.051 381.417C330.856 371.33 313.291 369.043 295.82 376.309C278.348 383.576 267.586 397.644 271.781 407.731C275.976 417.818 293.541 420.105 311.012 412.839Z" fill="#27DEBF"/>
<path opacity="0.2" d="M311.012 412.839C328.484 405.572 339.247 391.504 335.051 381.417C330.856 371.33 313.291 369.043 295.82 376.309C278.348 383.576 267.586 397.644 271.781 407.731C275.976 417.818 293.541 420.105 311.012 412.839Z" fill="black"/>
<path d="M284.098 412.762C268.407 410.718 263.483 398.875 273.097 386.309C282.712 373.743 303.226 365.212 318.916 367.255C334.606 369.299 339.531 381.142 329.916 393.708C320.302 406.274 299.788 414.805 284.098 412.762Z" fill="#27DEBF"/>
<path d="M281.778 408.704C265.719 406.613 260.677 394.491 270.518 381.628C280.359 368.766 301.355 360.035 317.415 362.127C333.475 364.218 338.516 376.341 328.675 389.201C318.834 402.064 297.838 410.795 281.778 408.704Z" fill="#37474F"/>
<path d="M201.429 149.294C143.789 173.265 116.494 239.423 140.464 297.062C174.918 379.915 248.998 365.243 262.886 398.638C265.098 403.958 270.827 407.816 279.546 408.951C296.983 411.222 319.781 401.742 330.466 387.776C335.809 380.793 337.112 374.012 334.9 368.691H334.901C321.015 335.297 383.653 293.113 349.199 210.261C325.228 152.619 259.069 125.325 201.429 149.294Z" fill="#27DEBF"/>
<path opacity="0.9" d="M201.429 149.294C143.789 173.265 116.494 239.423 140.464 297.062C174.918 379.915 248.998 365.243 262.886 398.638C265.098 403.958 270.827 407.816 279.546 408.951C296.983 411.222 319.781 401.742 330.466 387.776C335.809 380.793 337.112 374.012 334.9 368.691H334.901C321.015 335.297 383.653 293.113 349.199 210.261C325.228 152.619 259.069 125.325 201.429 149.294Z" fill="white"/>
<path d="M272.049 169.342C271.013 170.407 270.089 171.636 269.298 173.043C266.499 178.022 267.206 184.476 270.14 189.377C275.816 198.858 288.151 201.108 297.044 206.618C306.774 212.645 315.447 220.385 322.48 229.417C324.578 232.111 327.756 236.705 330.458 238.792C334.704 242.073 340.133 240.606 342.301 237.968C345.459 234.125 345.444 228.177 344.362 223.968C337.927 198.941 325.753 183.285 306.293 170.066C295.687 162.859 282.092 159.018 272.049 169.342Z" fill="white"/>
<path opacity="0.6" d="M293.576 290.848C325.057 259.367 325.057 208.326 293.576 176.845C262.094 145.364 211.053 145.364 179.572 176.845C148.091 208.326 148.091 259.367 179.572 290.848C211.053 322.33 262.094 322.33 293.576 290.848Z" fill="white"/>
<path d="M334.52 256.122C334.789 259.744 336.682 262.817 339.496 265.018C342.569 267.42 347.367 266.384 349.524 263.296C351.744 260.12 352.274 255.77 350.725 252.197C349.078 248.396 344.902 245.342 340.486 246.689C336.369 247.943 334.25 252.474 334.52 256.122Z" fill="white"/>
<path opacity="0.15" d="M273.607 381.793C265.79 369.536 259.23 363.938 239.468 362.362C219.709 360.786 186.251 359.815 160.267 330.698C197.689 376.374 251.285 370.744 262.885 398.639C265.097 403.959 270.825 407.816 279.544 408.952C283.141 409.421 286.971 409.364 290.871 408.896C285.927 401.131 278.471 389.419 273.607 381.793Z" fill="#27DEBF"/>
<path opacity="0.15" d="M315.395 364.416C312.215 350.229 312.872 341.631 325.689 326.506C338.503 311.383 361.408 286.975 359.084 248.018C365.086 306.76 323.3 340.795 334.9 368.69C337.113 374.01 335.809 380.792 330.467 387.775C328.262 390.656 325.523 393.331 322.441 395.767C320.419 386.788 317.374 373.242 315.395 364.416Z" fill="#27DEBF"/>
<path d="M224.786 212.573C231.368 219.579 231.027 230.595 224.021 237.177C217.016 243.759 206 243.418 199.417 236.412C192.834 229.407 193.176 218.391 200.182 211.808C207.188 205.225 218.202 205.568 224.786 212.573Z" fill="#29AB95"/>
<path opacity="0.2" d="M214.69 235.743C205.817 238.002 197.669 232.399 194.705 223.998C194.579 228.434 196.137 232.921 199.418 236.411C206 243.417 217.016 243.759 224.022 237.176C229.205 232.305 230.73 225.01 228.511 218.705C229.698 223.397 224.119 233.343 214.69 235.743Z" fill="black"/>
<path d="M223.147 247.997C229.729 255.003 229.388 266.019 222.382 272.601C215.377 279.183 204.361 278.842 197.778 271.836C191.196 264.831 191.537 253.815 198.543 247.232C205.548 240.649 216.564 240.991 223.147 247.997Z" fill="#29AB95"/>
<path opacity="0.45" d="M223.147 247.997C229.729 255.003 229.388 266.019 222.382 272.601C215.377 279.183 204.361 278.842 197.778 271.836C191.196 264.831 191.537 253.815 198.543 247.232C205.548 240.649 216.564 240.991 223.147 247.997Z" fill="white"/>
<path opacity="0.2" d="M213.049 271.166C204.175 273.425 196.029 267.823 193.065 259.422C192.939 263.86 194.497 268.345 197.777 271.835C204.36 278.841 215.376 279.183 222.381 272.6C227.565 267.728 229.09 260.433 226.871 254.129C228.059 258.821 222.479 268.767 213.049 271.166Z" fill="#29AB95"/>
<path d="M249.617 265.403C256.199 272.409 255.857 283.425 248.852 290.007C241.846 296.589 230.83 296.248 224.248 289.242C217.666 282.237 218.007 271.221 225.013 264.639C232.018 258.055 243.034 258.398 249.617 265.403Z" fill="#29AB95"/>
<path opacity="0.15" d="M249.617 265.403C256.199 272.409 255.857 283.425 248.852 290.007C241.846 296.589 230.83 296.248 224.248 289.242C217.666 282.237 218.007 271.221 225.013 264.639C232.018 258.055 243.034 258.398 249.617 265.403Z" fill="white"/>
<path opacity="0.4" d="M239.519 288.573C230.645 290.832 222.498 285.23 219.534 276.83C219.408 281.266 220.966 285.753 224.247 289.243C230.83 296.248 241.846 296.591 248.851 290.007C254.035 285.136 255.559 277.841 253.341 271.537C254.529 276.227 248.948 286.174 239.519 288.573Z" fill="#29AB95"/>
<path d="M278.978 251.303C285.561 258.308 285.219 269.324 278.213 275.907C271.208 282.489 260.192 282.147 253.609 275.142C247.027 268.136 247.368 257.12 254.374 250.538C261.38 243.954 272.396 244.297 278.978 251.303Z" fill="#29AB95"/>
<path opacity="0.2" d="M268.88 274.472C260.008 276.731 251.86 271.129 248.896 262.728C248.77 267.165 250.328 271.651 253.609 275.141C260.191 282.146 271.207 282.489 278.212 275.905C283.395 271.034 284.921 263.739 282.702 257.435C283.89 262.127 278.31 272.071 268.88 274.472Z" fill="black"/>
<path d="M279.675 220.392C286.257 227.397 285.916 238.413 278.91 244.995C271.904 251.578 260.888 251.236 254.306 244.231C247.722 237.225 248.065 226.209 255.071 219.627C262.076 213.043 273.091 213.386 279.675 220.392Z" fill="#29AB95"/>
<path opacity="0.45" d="M279.675 220.392C286.257 227.397 285.916 238.413 278.91 244.995C271.904 251.578 260.888 251.236 254.306 244.231C247.722 237.225 248.065 226.209 255.071 219.627C262.076 213.043 273.091 213.386 279.675 220.392Z" fill="white"/>
<path opacity="0.2" d="M269.579 243.561C260.706 245.82 252.558 240.218 249.594 231.818C249.468 236.254 251.026 240.741 254.307 244.231C260.889 251.237 271.905 251.579 278.911 244.996C284.093 240.125 285.619 232.829 283.4 226.525C284.588 231.216 279.008 241.162 269.579 243.561Z" fill="#29AB95"/>
<path d="M273.294 235.497C278.522 241.06 278.249 249.808 272.686 255.035C267.123 260.263 258.375 259.99 253.148 254.427C247.92 248.864 248.193 240.116 253.756 234.889C259.319 229.661 268.067 229.934 273.294 235.497Z" fill="#29AB95"/>
<path opacity="0.3" d="M273.294 235.497C278.522 241.06 278.249 249.808 272.686 255.035C267.123 260.263 258.375 259.99 253.148 254.427C247.92 248.864 248.193 240.116 253.756 234.889C259.319 229.661 268.067 229.934 273.294 235.497Z" fill="white"/>
<path opacity="0.5" d="M265.277 253.897C258.231 255.691 251.761 251.242 249.407 244.571C249.307 248.095 250.544 251.657 253.149 254.429C258.377 259.992 267.123 260.265 272.687 255.037C276.803 251.169 278.014 245.375 276.252 240.369C277.196 244.092 272.765 251.991 265.277 253.897Z" fill="#29AB95"/>
<path d="M263.681 217.802C263.714 206.26 254.385 196.877 242.843 196.843C231.301 196.81 221.917 206.139 221.884 217.681C221.85 229.223 231.18 238.607 242.722 238.64C254.264 238.674 263.648 229.344 263.681 217.802Z" fill="#29AB95"/>
<path opacity="0.15" d="M263.681 217.802C263.714 206.26 254.385 196.877 242.843 196.843C231.301 196.81 221.917 206.139 221.884 217.681C221.85 229.223 231.18 238.607 242.722 238.64C254.264 238.674 263.648 229.344 263.681 217.802Z" fill="white"/>
<path opacity="0.4" d="M245.885 231.245C235.232 233.957 225.45 227.232 221.89 217.146C221.738 222.473 223.611 227.859 227.548 232.049C235.452 240.46 248.678 240.872 257.09 232.967C263.314 227.119 265.144 218.36 262.48 210.791C263.906 216.423 257.206 228.364 245.885 231.245Z" fill="#29AB95"/>
<path d="M238.655 269.809C250.197 269.809 259.554 260.453 259.554 248.911C259.554 237.369 250.197 228.012 238.655 228.012C227.113 228.012 217.757 237.369 217.757 248.911C217.757 260.453 227.113 269.809 238.655 269.809Z" fill="#29AB95"/>
<path opacity="0.2" d="M241.762 262.418C231.108 265.13 221.327 258.405 217.768 248.319C217.616 253.646 219.489 259.032 223.426 263.222C231.33 271.634 244.556 272.045 252.968 264.14C259.192 258.292 261.022 249.533 258.358 241.962C259.784 247.596 253.084 259.536 241.762 262.418Z" fill="black"/>
<path d="M230.624 243.521C230.862 235.89 224.869 229.512 217.238 229.275C209.608 229.038 203.23 235.031 202.992 242.661C202.755 250.291 208.748 256.67 216.378 256.907C224.009 257.144 230.387 251.151 230.624 243.521Z" fill="#29AB95"/>
<path opacity="0.3" d="M230.624 243.521C230.862 235.89 224.869 229.512 217.238 229.275C209.608 229.038 203.23 235.031 202.992 242.661C202.755 250.291 208.748 256.67 216.378 256.907C224.009 257.144 230.387 251.151 230.624 243.521Z" fill="white"/>
<path opacity="0.5" d="M218.864 252.017C211.818 253.81 205.348 249.362 202.994 242.692C202.894 246.215 204.131 249.778 206.736 252.55C211.964 258.113 220.71 258.386 226.274 253.157C230.39 249.29 231.6 243.495 229.839 238.489C230.784 242.213 226.351 250.112 218.864 252.017Z" fill="#29AB95"/>
<path d="M377.939 359.783C376.911 359.783 375.859 359.765 374.788 359.728C374.147 359.708 373.644 359.17 373.666 358.529C373.687 357.887 374.264 357.356 374.866 357.407C379.008 357.541 382.858 357.407 386.285 356.991C386.921 356.905 387.5 357.369 387.578 358.005C387.654 358.643 387.2 359.221 386.564 359.299C383.907 359.621 381.007 359.783 377.939 359.783ZM363.255 358.756C363.206 358.756 363.155 358.752 363.105 358.747C359.454 358.276 355.572 357.638 351.57 356.851C350.94 356.728 350.53 356.116 350.653 355.487C350.776 354.857 351.384 354.451 352.017 354.57C355.971 355.347 359.801 355.978 363.403 356.441C364.04 356.523 364.488 357.106 364.406 357.742C364.33 358.329 363.832 358.756 363.255 358.756ZM397.632 356.431C397.186 356.431 396.763 356.175 396.57 355.743C396.309 355.157 396.571 354.47 397.156 354.208C398.281 353.706 399.335 353.137 400.285 352.518C401.358 351.865 402.255 351.062 402.839 350.516C403.861 349.556 404.735 348.492 405.434 347.35C405.769 346.804 406.485 346.63 407.031 346.967C407.578 347.302 407.749 348.019 407.413 348.564C406.605 349.881 405.6 351.108 404.428 352.209C403.769 352.828 402.751 353.737 401.523 354.483C400.501 355.151 399.339 355.779 398.103 356.331C397.95 356.398 397.789 356.431 397.632 356.431ZM340.461 354.335C340.368 354.335 340.273 354.325 340.178 354.3C336.525 353.387 332.739 352.359 328.923 351.243C328.308 351.062 327.954 350.418 328.134 349.802C328.313 349.186 328.959 348.832 329.575 349.012C333.361 350.12 337.117 351.141 340.74 352.045C341.364 352.2 341.741 352.832 341.586 353.454C341.455 353.982 340.982 354.335 340.461 354.335ZM318.159 347.836C318.039 347.836 317.917 347.816 317.796 347.778C314.201 346.594 310.498 345.311 306.786 343.966C306.183 343.746 305.871 343.08 306.09 342.478C306.309 341.874 306.973 341.564 307.578 341.782C311.268 343.119 314.951 344.395 318.523 345.573C319.133 345.774 319.463 346.43 319.263 347.039C319.101 347.527 318.647 347.836 318.159 347.836ZM296.313 339.933C296.171 339.933 296.029 339.907 295.89 339.853C292.347 338.465 288.715 336.991 285.1 335.475C284.508 335.226 284.229 334.545 284.476 333.955C284.724 333.363 285.407 333.085 285.997 333.331C289.597 334.841 293.211 336.308 296.736 337.69C297.333 337.923 297.628 338.597 297.394 339.195C297.215 339.653 296.776 339.933 296.313 339.933ZM408.851 338.353C408.239 338.353 407.725 337.872 407.692 337.251C407.523 333.996 406.629 330.345 405.033 326.399C404.793 325.804 405.079 325.128 405.674 324.887C406.264 324.647 406.946 324.933 407.186 325.529C408.88 329.716 409.83 333.62 410.013 337.132C410.046 337.773 409.554 338.318 408.912 338.351C408.892 338.352 408.871 338.353 408.851 338.353ZM274.883 330.957C274.726 330.957 274.565 330.924 274.412 330.856C270.928 329.305 267.366 327.677 263.827 326.016C263.247 325.744 262.996 325.052 263.269 324.472C263.54 323.892 264.234 323.638 264.813 323.914C268.337 325.568 271.886 327.189 275.356 328.734C275.942 328.994 276.205 329.681 275.944 330.267C275.752 330.7 275.327 330.957 274.883 330.957ZM253.85 321.09C253.678 321.09 253.502 321.051 253.337 320.969C251.197 319.915 249.049 318.841 246.892 317.747C245.571 317.089 244.257 316.411 242.94 315.714C242.374 315.414 242.157 314.711 242.457 314.144C242.759 313.579 243.461 313.359 244.028 313.661C245.328 314.348 246.622 315.018 247.936 315.671C250.094 316.764 252.233 317.834 254.365 318.885C254.94 319.168 255.177 319.864 254.894 320.441C254.69 320.852 254.278 321.09 253.85 321.09ZM400.799 316.811C400.409 316.811 400.027 316.613 399.809 316.256C397.954 313.233 395.757 310.049 393.28 306.794C392.892 306.284 392.991 305.555 393.502 305.166C394.013 304.777 394.742 304.877 395.13 305.387C397.652 308.703 399.893 311.951 401.789 315.041C402.124 315.588 401.954 316.303 401.406 316.638C401.216 316.755 401.006 316.811 400.799 316.811ZM233.233 310.387C233.047 310.387 232.859 310.343 232.685 310.248C229.177 308.363 225.772 306.504 222.477 304.674C221.916 304.363 221.715 303.655 222.026 303.096C222.336 302.536 223.043 302.332 223.605 302.644C226.891 304.468 230.286 306.322 233.785 308.202C234.35 308.506 234.561 309.209 234.259 309.775C234.047 310.166 233.647 310.387 233.233 310.387ZM212.945 299.08C212.745 299.08 212.543 299.028 212.358 298.92C209.02 296.962 205.66 294.953 202.371 292.943C201.823 292.609 201.651 291.894 201.986 291.346C202.319 290.798 203.035 290.625 203.581 290.96C206.859 292.962 210.208 294.966 213.535 296.917C214.088 297.242 214.274 297.953 213.949 298.506C213.731 298.874 213.343 299.08 212.945 299.08ZM386.843 298.271C386.521 298.271 386.199 298.137 385.969 297.875C384.372 296.051 382.665 294.17 380.895 292.285C379.993 291.324 379.071 290.358 378.127 289.388C377.679 288.929 377.69 288.192 378.151 287.746C378.609 287.299 379.346 287.31 379.792 287.769C380.745 288.749 381.677 289.724 382.588 290.696C384.377 292.6 386.103 294.501 387.718 296.344C388.14 296.827 388.092 297.561 387.609 297.984C387.387 298.175 387.114 298.271 386.843 298.271ZM193.114 286.967C192.902 286.967 192.686 286.908 192.493 286.785C189.24 284.718 185.954 282.585 182.727 280.447C182.192 280.092 182.045 279.372 182.4 278.837C182.754 278.302 183.473 278.154 184.008 278.511C187.224 280.642 190.498 282.766 193.738 284.826C194.279 285.17 194.439 285.888 194.095 286.429C193.874 286.776 193.499 286.967 193.114 286.967ZM370.693 281.578C370.406 281.578 370.118 281.473 369.894 281.258C367.184 278.686 364.312 276.056 361.357 273.436C360.877 273.01 360.833 272.277 361.259 271.796C361.685 271.315 362.419 271.273 362.9 271.698C365.874 274.335 368.765 276.984 371.494 279.573C371.959 280.015 371.979 280.751 371.537 281.215C371.307 281.457 371.001 281.578 370.693 281.578ZM173.743 274.129C173.516 274.129 173.286 274.063 173.083 273.923C169.882 271.711 166.68 269.452 163.571 267.21C163.05 266.834 162.933 266.109 163.308 265.588C163.681 265.067 164.409 264.95 164.93 265.326C168.028 267.56 171.215 269.81 174.405 272.013C174.933 272.378 175.066 273.101 174.701 273.63C174.474 273.954 174.113 274.129 173.743 274.129ZM154.898 260.531C154.655 260.531 154.409 260.455 154.2 260.296C151.072 257.936 147.972 255.538 144.984 253.171C144.482 252.773 144.397 252.042 144.796 251.539C145.196 251.037 145.924 250.951 146.428 251.351C149.401 253.707 152.487 256.092 155.599 258.442C156.112 258.829 156.212 259.557 155.826 260.069C155.598 260.371 155.251 260.531 154.898 260.531ZM136.689 246.093C136.427 246.093 136.164 246.005 135.946 245.823C132.917 243.292 129.944 240.736 127.107 238.224C126.626 237.798 126.582 237.065 127.008 236.584C127.434 236.101 128.169 236.061 128.648 236.485C131.465 238.983 134.421 241.524 137.433 244.039C137.925 244.45 137.992 245.183 137.58 245.675C137.353 245.951 137.023 246.093 136.689 246.093ZM119.312 230.668C119.025 230.668 118.737 230.563 118.512 230.35C115.612 227.599 112.817 224.841 110.206 222.156C109.759 221.697 109.769 220.961 110.23 220.514C110.691 220.066 111.423 220.076 111.873 220.537C114.46 223.199 117.233 225.934 120.112 228.663C120.576 229.105 120.596 229.84 120.154 230.306C119.926 230.547 119.62 230.668 119.312 230.668ZM103.146 213.982C102.824 213.982 102.502 213.848 102.272 213.586C99.5753 210.514 97.0761 207.475 94.8443 204.553C94.4548 204.042 94.5522 203.314 95.0624 202.925C95.5739 202.536 96.301 202.635 96.6892 203.143C98.8898 206.024 101.355 209.021 104.018 212.054C104.441 212.537 104.393 213.271 103.912 213.694C103.691 213.887 103.418 213.982 103.146 213.982ZM89.15 195.467C88.7605 195.467 88.3801 195.273 88.1607 194.916C85.9004 191.258 84.0711 187.74 82.7235 184.454C82.4807 183.861 82.765 183.182 83.357 182.939C83.949 182.696 84.6294 182.979 84.8721 183.572C86.1717 186.74 87.9439 190.146 90.138 193.695C90.4743 194.24 90.3055 194.956 89.7602 195.293C89.5694 195.411 89.3577 195.467 89.15 195.467ZM80.9773 173.982C80.3593 173.982 79.8452 173.495 79.8179 172.872L79.8088 172.733C79.7828 172.245 79.7686 171.776 79.7686 171.314C79.7686 167.41 80.6942 163.962 82.5209 161.064C82.8611 160.52 83.5777 160.356 84.123 160.7C84.6657 161.042 84.8293 161.76 84.4865 162.301C82.8974 164.822 82.0938 167.855 82.0938 171.314C82.0938 171.733 82.1042 172.159 82.1288 172.591L82.1392 172.769C82.1665 173.411 81.6706 173.953 81.0292 173.981C81.0123 173.982 80.9954 173.982 80.9773 173.982ZM171.881 164.376C171.76 164.376 171.638 164.358 171.516 164.317C167.769 163.08 164.051 161.921 160.464 160.87C159.85 160.69 159.495 160.045 159.676 159.429C159.856 158.815 160.5 158.457 161.117 158.641C164.73 159.699 168.473 160.868 172.244 162.113C172.853 162.314 173.184 162.971 172.983 163.58C172.824 164.067 172.369 164.376 171.881 164.376ZM149.585 157.867C149.492 157.867 149.397 157.856 149.302 157.832C145.431 156.865 141.637 156.014 138.025 155.301C137.397 155.176 136.987 154.566 137.11 153.936C137.235 153.307 137.845 152.896 138.475 153.021C142.124 153.742 145.955 154.602 149.865 155.579C150.488 155.734 150.866 156.364 150.71 156.987C150.579 157.516 150.106 157.867 149.585 157.867ZM92.3983 155.649C91.9504 155.649 91.5246 155.388 91.3337 154.952C91.0767 154.363 91.3454 153.679 91.9322 153.422C95.1494 152.017 99.0378 151.04 103.486 150.518C104.139 150.437 104.701 150.9 104.775 151.536C104.85 152.173 104.393 152.75 103.757 152.825C99.535 153.321 95.8687 154.239 92.8618 155.551C92.7125 155.618 92.5541 155.649 92.3983 155.649ZM126.791 153.43C126.742 153.43 126.691 153.426 126.641 153.421C122.595 152.895 118.738 152.565 115.179 152.441C114.538 152.419 114.037 151.88 114.06 151.24C114.084 150.598 114.637 150.095 115.261 150.121C118.894 150.248 122.822 150.584 126.939 151.118C127.576 151.201 128.025 151.784 127.943 152.42C127.866 153.003 127.365 153.43 126.791 153.43Z" fill="white"/>
<path d="M195.838 435.215C193.758 435.215 191.744 434.868 189.854 434.184C189.25 433.966 188.937 433.3 189.157 432.697C189.375 432.094 190.043 431.785 190.643 432C192.282 432.592 194.029 432.892 195.839 432.892C195.843 432.892 195.848 432.892 195.848 432.892C197.588 432.892 199.425 432.618 201.31 432.078L201.662 433.184L201.914 434.318C199.856 434.911 197.805 435.215 195.848 435.215C195.846 435.215 195.842 435.215 195.838 435.215ZM211.969 429.115C211.604 429.115 211.245 428.943 211.019 428.623C210.649 428.099 210.773 427.374 211.298 427.004C213.602 425.379 216.014 423.386 218.468 421.082C218.973 420.606 219.481 420.12 219.989 419.618C220.444 419.169 221.18 419.172 221.631 419.63C222.081 420.087 222.076 420.822 221.619 421.272C221.097 421.787 220.578 422.288 220.059 422.775C217.527 425.153 215.03 427.215 212.638 428.902C212.435 429.048 212.2 429.115 211.969 429.115ZM181.281 427.16C180.923 427.16 180.571 426.995 180.343 426.684C178.271 423.849 176.462 420.275 174.969 416.064C174.755 415.459 175.072 414.795 175.675 414.581C176.28 414.363 176.944 414.682 177.158 415.287C178.576 419.287 180.278 422.659 182.219 425.313C182.596 425.829 182.485 426.558 181.966 426.937C181.758 427.087 181.519 427.16 181.281 427.16ZM228.622 413.028C228.361 413.028 228.099 412.94 227.881 412.76C227.388 412.351 227.319 411.618 227.729 411.124C230.039 408.34 232.408 405.268 234.771 401.99C235.143 401.47 235.869 401.348 236.392 401.728C236.912 402.102 237.03 402.829 236.655 403.349C234.261 406.669 231.86 409.784 229.517 412.608C229.287 412.885 228.956 413.028 228.622 413.028ZM173.098 405.625C172.552 405.625 172.065 405.24 171.96 404.683C171.274 401.114 170.724 397.211 170.324 393.083C170.261 392.444 170.729 391.876 171.368 391.815C172.026 391.758 172.574 392.221 172.635 392.859C173.028 396.916 173.568 400.748 174.239 404.245C174.36 404.875 173.949 405.484 173.318 405.605C173.245 405.618 173.17 405.625 173.098 405.625ZM242.245 394.236C242.03 394.236 241.812 394.176 241.617 394.05C241.078 393.702 240.922 392.983 241.271 392.444C243.281 389.331 245.321 386.017 247.336 382.598C247.662 382.046 248.373 381.86 248.926 382.186C249.479 382.511 249.664 383.223 249.338 383.776C247.307 387.223 245.251 390.563 243.223 393.705C243.001 394.049 242.627 394.236 242.245 394.236ZM170.756 382.548C170.132 382.548 169.616 382.051 169.597 381.423C169.525 379.178 169.49 376.828 169.49 374.443C169.49 372.903 169.505 371.341 169.533 369.755C169.545 369.114 170.058 368.655 170.717 368.615C171.358 368.627 171.867 369.156 171.857 369.798C171.828 371.37 171.814 372.918 171.814 374.443C171.814 376.805 171.849 379.129 171.919 381.351C171.94 381.993 171.436 382.529 170.795 382.548C170.782 382.548 170.769 382.548 170.756 382.548ZM254.052 374.239C253.864 374.239 253.674 374.194 253.497 374.098C252.934 373.791 252.726 373.086 253.033 372.522C254.829 369.217 256.641 365.768 258.414 362.268C258.704 361.696 259.402 361.468 259.976 361.756C260.547 362.047 260.777 362.745 260.487 363.317C258.702 366.838 256.882 370.308 255.072 373.632C254.863 374.019 254.465 374.239 254.052 374.239ZM171.151 359.336C171.127 359.336 171.105 359.335 171.081 359.334C170.441 359.296 169.951 358.747 169.99 358.105C170.211 354.347 170.508 350.439 170.873 346.491C170.933 345.851 171.505 345.391 172.137 345.441C172.776 345.499 173.246 346.066 173.188 346.705C172.826 350.627 172.53 354.509 172.31 358.242C172.272 358.861 171.761 359.336 171.151 359.336ZM264.561 353.529C264.395 353.529 264.226 353.493 264.064 353.417C263.484 353.142 263.238 352.449 263.512 351.87C265.139 348.442 266.769 344.9 268.355 341.344C268.616 340.759 269.305 340.494 269.888 340.756C270.475 341.017 270.737 341.704 270.476 342.29C268.883 345.864 267.246 349.421 265.613 352.866C265.413 353.284 264.996 353.529 264.561 353.529ZM274.029 332.32C273.878 332.32 273.726 332.291 273.579 332.229C272.987 331.981 272.71 331.301 272.959 330.709C274.438 327.19 275.91 323.58 277.337 319.977C277.573 319.381 278.249 319.092 278.845 319.325C279.441 319.562 279.733 320.237 279.497 320.834C278.065 324.45 276.585 328.075 275.1 331.609C274.913 332.053 274.482 332.32 274.029 332.32ZM282.588 310.728C282.452 310.728 282.316 310.705 282.182 310.654C281.581 310.43 281.276 309.76 281.5 309.16C282.847 305.56 284.179 301.895 285.459 298.266C285.673 297.661 286.34 297.343 286.94 297.556C287.545 297.769 287.862 298.432 287.65 299.037C286.366 302.68 285.029 306.359 283.677 309.973C283.501 310.441 283.058 310.728 282.588 310.728ZM290.316 288.826C290.194 288.826 290.07 288.807 289.948 288.766C289.339 288.564 289.01 287.907 289.212 287.298C290.417 283.672 291.615 279.96 292.769 276.265C292.96 275.654 293.608 275.312 294.225 275.503C294.838 275.695 295.179 276.346 294.987 276.958C293.828 280.668 292.627 284.392 291.417 288.03C291.256 288.518 290.803 288.826 290.316 288.826ZM297.246 266.659C297.138 266.659 297.028 266.643 296.919 266.612C296.303 266.432 295.95 265.787 296.131 265.171C297.22 261.457 298.282 257.709 299.289 254.032C299.46 253.413 300.105 253.046 300.718 253.218C301.337 253.388 301.7 254.025 301.532 254.645C300.52 258.336 299.453 262.097 298.361 265.824C298.212 266.331 297.748 266.659 297.246 266.659ZM303.376 244.282C303.282 244.282 303.186 244.27 303.09 244.245C302.468 244.087 302.091 243.455 302.25 242.833C302.638 241.311 303.021 239.787 303.397 238.261C303.954 236.021 304.493 233.794 305.017 231.578C305.167 230.953 305.794 230.572 306.416 230.715C307.04 230.863 307.426 231.488 307.278 232.113C306.751 234.337 306.209 236.572 305.652 238.818C305.275 240.349 304.89 241.879 304.501 243.407C304.367 243.932 303.894 244.282 303.376 244.282ZM308.711 221.684C308.629 221.684 308.548 221.675 308.464 221.658C307.836 221.521 307.439 220.903 307.574 220.276C308.398 216.462 309.185 212.644 309.909 208.928C310.031 208.3 310.633 207.888 311.273 208.01C311.901 208.132 312.313 208.742 312.191 209.373C311.462 213.103 310.674 216.938 309.846 220.768C309.728 221.312 309.246 221.684 308.711 221.684ZM313.153 198.893C313.086 198.893 313.02 198.888 312.953 198.877C312.322 198.767 311.897 198.166 312.006 197.534C312.667 193.708 313.288 189.86 313.847 186.099C313.941 185.465 314.525 185.032 315.166 185.12C315.801 185.215 316.239 185.805 316.144 186.44C315.582 190.22 314.96 194.086 314.295 197.93C314.198 198.495 313.707 198.893 313.153 198.893ZM316.559 175.927C316.513 175.927 316.466 175.924 316.418 175.918C315.78 175.84 315.329 175.261 315.405 174.623C315.883 170.727 316.3 166.856 316.646 163.114C316.706 162.474 317.288 161.997 317.911 162.065C318.55 162.123 319.02 162.689 318.961 163.328C318.612 167.092 318.191 170.987 317.712 174.905C317.638 175.496 317.137 175.927 316.559 175.927ZM318.686 152.808C318.663 152.808 318.64 152.808 318.616 152.805C317.976 152.768 317.488 152.219 317.525 151.579C317.759 147.615 317.911 143.728 317.98 140.025C317.991 139.384 318.469 138.892 319.164 138.885C319.805 138.897 320.315 139.427 320.304 140.068C320.233 143.802 320.079 147.72 319.844 151.715C319.809 152.332 319.296 152.808 318.686 152.808ZM235.794 137.884C235.606 137.884 235.416 137.839 235.24 137.743C234.676 137.436 234.468 136.73 234.775 136.167C236.678 132.669 238.611 129.257 240.516 126.024C240.842 125.471 241.554 125.288 242.106 125.614C242.659 125.94 242.844 126.651 242.518 127.204C240.626 130.414 238.706 133.804 236.814 137.278C236.604 137.665 236.204 137.884 235.794 137.884ZM319.082 129.598C318.457 129.598 317.942 129.101 317.923 128.473C317.797 124.444 317.556 120.571 317.208 116.964C317.146 116.325 317.614 115.757 318.252 115.695C318.907 115.638 319.458 116.101 319.519 116.739C319.873 120.397 320.117 124.321 320.244 128.4C320.265 129.042 319.761 129.578 319.12 129.597C319.107 129.597 319.095 129.598 319.082 129.598ZM247.61 117.889C247.394 117.889 247.176 117.829 246.981 117.704C246.443 117.356 246.287 116.636 246.636 116.098C248.825 112.708 251.035 109.461 253.207 106.45C253.579 105.929 254.308 105.811 254.828 106.188C255.349 106.563 255.466 107.289 255.09 107.809C252.943 110.789 250.754 114.001 248.586 117.358C248.365 117.701 247.991 117.889 247.61 117.889ZM316.744 106.52C316.197 106.52 315.71 106.133 315.605 105.578C314.822 101.5 313.842 97.7826 312.692 94.5316C312.477 93.9279 312.794 93.2632 313.399 93.049C313.999 92.8348 314.666 93.1516 314.881 93.7566C316.07 97.1178 317.081 100.948 317.886 105.139C318.007 105.768 317.594 106.377 316.964 106.498C316.89 106.514 316.816 106.52 316.744 106.52ZM261.24 99.0951C260.979 99.0951 260.716 99.0069 260.499 98.8264C260.006 98.4174 259.937 97.6839 260.347 97.1906C263.01 93.9838 265.668 91.0691 268.246 88.5284C268.704 88.0779 269.44 88.0856 269.888 88.54C270.338 88.997 270.334 89.7332 269.877 90.1824C267.353 92.6686 264.747 95.5261 262.134 98.6732C261.905 98.9523 261.575 99.0951 261.24 99.0951ZM308.581 84.9775C308.223 84.9775 307.87 84.8126 307.641 84.4998C306.827 83.3845 305.961 82.3797 305.066 81.5163C303.27 79.8026 301.304 78.551 299.23 77.8006C298.626 77.5825 298.313 76.9164 298.533 76.3127C298.751 75.709 299.418 75.3974 300.019 75.6156C302.4 76.4763 304.64 77.898 306.674 79.8402C307.67 80.8022 308.625 81.9071 309.517 83.1314C309.896 83.6494 309.782 84.3764 309.264 84.7542C309.058 84.9048 308.819 84.9775 308.581 84.9775ZM277.907 83.021C277.54 83.021 277.181 82.8496 276.955 82.5264C276.586 82.0019 276.712 81.2774 277.238 80.9087C280.92 78.3225 284.498 76.5166 287.871 75.539C288.492 75.3559 289.138 75.7103 289.317 76.3231C289.498 76.9359 289.159 77.5786 288.546 77.7616L288.528 77.7668C285.39 78.6743 282.044 80.3699 278.573 82.8094C278.369 82.9535 278.138 83.021 277.907 83.021Z" fill="white"/>
<path d="M134.5 325.052C130.458 325.052 126.552 324.972 122.837 324.813C122.196 324.786 121.698 324.245 121.726 323.603C121.753 322.962 122.304 322.444 122.936 322.492C126.618 322.649 130.489 322.728 134.446 322.728C135.088 322.728 135.634 323.249 135.634 323.89C135.634 324.532 135.14 325.052 134.5 325.052ZM146.11 324.838C145.488 324.838 144.973 324.345 144.951 323.718C144.928 323.076 145.429 322.539 146.07 322.516C149.817 322.382 153.708 322.182 157.635 321.921C158.296 321.899 158.83 322.365 158.871 323.004C158.913 323.644 158.428 324.197 157.788 324.24C153.838 324.501 149.923 324.702 146.152 324.837C146.14 324.838 146.126 324.838 146.11 324.838ZM111.299 324.016C111.262 324.016 111.224 324.014 111.186 324.01C107.108 323.614 103.207 323.098 99.5886 322.478C98.9563 322.37 98.5318 321.769 98.6396 321.137C98.7473 320.504 99.3419 320.08 99.9807 320.188C103.543 320.799 107.387 321.307 111.41 321.698C112.048 321.759 112.516 322.326 112.453 322.965C112.396 323.568 111.89 324.016 111.299 324.016ZM169.291 323.315C168.698 323.315 168.192 322.863 168.136 322.261C168.077 321.622 168.546 321.056 169.185 320.995C172.982 320.641 176.859 320.231 180.707 319.777C181.329 319.697 181.922 320.158 181.996 320.795C182.072 321.433 181.616 322.01 180.978 322.084C177.112 322.54 173.216 322.953 169.4 323.31C169.364 323.313 169.328 323.315 169.291 323.315ZM192.362 320.606C191.792 320.606 191.293 320.186 191.213 319.605C191.123 318.97 191.566 318.383 192.201 318.293C195.95 317.766 199.806 317.185 203.662 316.563C204.293 316.455 204.893 316.891 204.993 317.524C205.095 318.157 204.664 318.754 204.032 318.854C200.161 319.48 196.288 320.064 192.523 320.593C192.47 320.602 192.415 320.606 192.362 320.606ZM88.4571 319.963C88.3519 319.963 88.2441 319.949 88.139 319.919C83.9754 318.73 80.2571 317.328 77.0866 315.748C76.5128 315.462 76.2791 314.765 76.5647 314.19C76.8503 313.617 77.5436 313.379 78.124 313.668C81.1659 315.183 84.7504 316.533 88.7777 317.683C89.3944 317.86 89.7515 318.502 89.5762 319.119C89.4295 319.629 88.9634 319.963 88.4571 319.963ZM215.297 316.908C214.747 316.908 214.258 316.515 214.156 315.954C214.041 315.323 214.46 314.719 215.092 314.604C218.543 313.978 222.084 313.304 225.615 312.602L226.469 312.424C227.096 312.295 227.713 312.695 227.844 313.322C227.977 313.951 227.574 314.566 226.946 314.697L226.08 314.878C222.525 315.585 218.972 316.262 215.508 316.89C215.435 316.902 215.365 316.908 215.297 316.908ZM238.093 312.427C237.553 312.427 237.068 312.047 236.957 311.497C236.828 310.869 237.233 310.256 237.862 310.126C241.733 309.335 245.539 308.499 249.171 307.64C249.785 307.492 250.42 307.879 250.568 308.503C250.716 309.128 250.329 309.753 249.705 309.901C246.049 310.766 242.22 311.607 238.325 312.403C238.247 312.419 238.169 312.427 238.093 312.427ZM68.257 309.102C67.9415 309.102 67.6286 308.974 67.4001 308.724L67.2534 308.559C64.3673 305.253 62.7821 301.557 62.5393 297.57C62.5003 296.93 62.9872 296.38 63.6273 296.341C64.2582 296.308 64.8191 296.789 64.858 297.43C65.0684 300.892 66.464 304.121 69.0009 307.028L69.1151 307.157C69.5475 307.631 69.5137 308.365 69.0411 308.798C68.8178 309 68.5374 309.102 68.257 309.102ZM260.691 307.054C260.182 307.054 259.715 306.717 259.573 306.201C259.402 305.583 259.765 304.943 260.383 304.773C261.646 304.424 262.899 304.069 264.14 303.707C266.654 303.045 269.127 302.378 271.586 301.699C272.202 301.525 272.844 301.891 273.016 302.51C273.187 303.128 272.823 303.768 272.205 303.938C269.736 304.619 267.256 305.288 264.762 305.945C263.541 306.302 262.277 306.659 261.002 307.013C260.897 307.04 260.795 307.054 260.691 307.054ZM283.066 300.79C282.564 300.79 282.101 300.463 281.952 299.956C281.77 299.341 282.122 298.696 282.736 298.514C286.45 297.416 290.183 296.276 293.827 295.125C294.441 294.931 295.092 295.273 295.285 295.884C295.479 296.496 295.138 297.148 294.527 297.342C290.868 298.497 287.123 299.641 283.395 300.743C283.284 300.774 283.173 300.79 283.066 300.79ZM305.221 293.79C304.737 293.79 304.284 293.483 304.12 292.999C303.915 292.391 304.242 291.732 304.85 291.527C308.51 290.293 312.193 289.012 315.799 287.715C316.407 287.498 317.068 287.811 317.286 288.416C317.503 289.018 317.19 289.684 316.586 289.902C312.967 291.203 309.266 292.491 305.591 293.73C305.469 293.77 305.343 293.79 305.221 293.79ZM66.3459 287.498C66.1693 287.498 65.9901 287.458 65.8214 287.372C65.2488 287.081 65.0203 286.383 65.3111 285.81C66.8977 282.685 69.1956 279.421 72.1414 276.109C72.5686 275.629 73.3034 275.587 73.7825 276.013C74.2616 276.439 74.3044 277.174 73.8786 277.653C71.0652 280.816 68.8801 283.913 67.3832 286.862C67.1781 287.264 66.7691 287.498 66.3459 287.498ZM327.083 285.926C326.617 285.926 326.175 285.641 325.997 285.181C325.768 284.582 326.068 283.91 326.666 283.68C330.303 282.284 333.927 280.846 337.439 279.404C338.033 279.16 338.71 279.445 338.956 280.038C339.199 280.631 338.915 281.31 338.322 281.553C334.793 283.001 331.152 284.446 327.498 285.848C327.362 285.901 327.222 285.926 327.083 285.926ZM348.577 277.099C348.129 277.099 347.704 276.839 347.513 276.404C347.254 275.816 347.522 275.131 348.107 274.873C351.698 273.295 355.244 271.676 358.647 270.063C359.232 269.787 359.921 270.037 360.194 270.615C360.468 271.194 360.222 271.887 359.643 272.161C356.22 273.784 352.654 275.411 349.043 277C348.892 277.068 348.732 277.099 348.577 277.099ZM81.3463 269.966C81.0192 269.966 80.6933 269.828 80.4635 269.558C80.0467 269.071 80.1039 268.338 80.5907 267.921C83.3535 265.558 86.4642 263.137 89.8371 260.727C90.3591 260.353 91.0861 260.474 91.4587 260.997C91.8313 261.519 91.7119 262.245 91.1887 262.618C87.8702 264.99 84.8141 267.369 82.1019 269.688C81.8838 269.874 81.6151 269.966 81.3463 269.966ZM369.564 267.136C369.142 267.136 368.736 266.906 368.529 266.505C368.236 265.933 368.461 265.234 369.031 264.94C372.553 263.13 375.982 261.286 379.225 259.459C379.786 259.143 380.492 259.343 380.806 259.9C381.122 260.459 380.924 261.167 380.365 261.483C377.097 263.324 373.642 265.182 370.094 267.006C369.924 267.094 369.742 267.136 369.564 267.136ZM100.177 256.384C99.7898 256.384 99.412 256.191 99.19 255.839C98.8499 255.295 99.0148 254.579 99.5574 254.238C102.716 252.261 106.097 250.258 109.604 248.286C110.162 247.972 110.871 248.17 111.185 248.728C111.499 249.288 111.3 249.996 110.741 250.311C107.267 252.265 103.92 254.249 100.791 256.207C100.6 256.326 100.387 256.384 100.177 256.384ZM389.783 255.702C389.397 255.702 389.018 255.508 388.797 255.158C388.456 254.614 388.621 253.897 389.165 253.556C392.569 251.419 395.796 249.258 398.758 247.134C399.282 246.762 400.004 246.88 400.379 247.402C400.753 247.924 400.632 248.649 400.112 249.023C397.111 251.174 393.842 253.362 390.398 255.524C390.207 255.643 389.994 255.702 389.783 255.702ZM120.413 244.963C119.991 244.963 119.585 244.734 119.378 244.332C119.085 243.763 119.31 243.061 119.881 242.769C123.227 241.05 126.746 239.317 130.339 237.616C130.92 237.342 131.612 237.59 131.885 238.169C132.159 238.75 131.911 239.442 131.332 239.716C127.762 241.406 124.265 243.129 120.94 244.835C120.773 244.922 120.591 244.963 120.413 244.963ZM408.591 242.093C408.264 242.093 407.939 241.955 407.709 241.688C407.291 241.201 407.347 240.467 407.834 240.049C408.995 239.055 410.107 238.055 411.142 237.08C412.938 235.394 414.582 233.706 416.035 232.065C416.458 231.583 417.192 231.539 417.675 231.965C418.155 232.389 418.201 233.124 417.775 233.605C416.277 235.299 414.581 237.039 412.734 238.774C411.674 239.772 410.534 240.795 409.346 241.814C409.128 242.001 408.858 242.093 408.591 242.093ZM423.525 224.493C423.352 224.493 423.176 224.454 423.011 224.371C422.436 224.087 422.202 223.39 422.486 222.815C423.038 221.701 423.502 220.588 423.863 219.507C424.616 217.335 424.995 215.231 424.995 213.241C424.995 212.898 424.984 212.557 424.961 212.221C424.918 211.58 425.404 211.027 426.044 210.985C426.703 210.952 427.238 211.427 427.28 212.066C427.304 212.456 427.319 212.846 427.319 213.241C427.319 215.49 426.895 217.85 426.063 220.254C425.672 221.424 425.169 222.637 424.568 223.845C424.365 224.256 423.953 224.493 423.525 224.493ZM421.74 203.175C421.418 203.175 421.096 203.042 420.867 202.779C418.73 200.345 415.718 198.139 411.916 196.224C411.342 195.936 411.111 195.238 411.4 194.665C411.689 194.093 412.387 193.86 412.96 194.151C417.031 196.2 420.278 198.587 422.614 201.247C423.037 201.729 422.989 202.464 422.507 202.887C422.286 203.081 422.014 203.175 421.74 203.175ZM401.6 192.226C401.493 192.226 401.385 192.211 401.279 192.18C397.885 191.204 394.116 190.353 390.076 189.655C389.445 189.546 389.02 188.945 389.129 188.313C389.24 187.68 389.836 187.253 390.473 187.366C394.595 188.079 398.447 188.949 401.922 189.948C402.538 190.126 402.894 190.769 402.716 191.386C402.569 191.893 402.105 192.226 401.6 192.226ZM378.764 188.133C378.725 188.133 378.689 188.132 378.648 188.127C374.998 187.767 371.12 187.497 367.126 187.323C366.485 187.295 365.989 186.753 366.016 186.112C366.045 185.471 366.625 184.991 367.227 185.002C371.264 185.178 375.183 185.451 378.878 185.816C379.516 185.878 379.982 186.447 379.919 187.086C379.86 187.684 379.355 188.133 378.764 188.133ZM343.949 187.283C343.327 187.283 342.812 186.79 342.79 186.163C342.766 185.521 343.269 184.984 343.909 184.962C347.817 184.824 351.676 184.754 355.383 184.754H355.561C356.202 184.754 356.723 185.275 356.723 185.916C356.723 186.557 356.202 187.078 355.561 187.078H355.383C351.704 187.078 347.871 187.147 343.991 187.283C343.978 187.282 343.963 187.283 343.949 187.283Z" fill="white"/>
<path d="M76.4366 258.909C83.6421 257.387 90.7178 261.996 92.2381 269.201C93.7597 276.407 89.1508 283.483 81.9453 285.003C74.7398 286.524 67.6641 281.916 66.1425 274.71C64.6222 267.505 69.2311 260.429 76.4366 258.909Z" fill="#27DEBF"/>
<path opacity="0.2" d="M76.4366 258.909C83.6421 257.387 90.7178 261.996 92.2381 269.201C93.7597 276.407 89.1508 283.483 81.9453 285.003C74.7398 286.524 67.6641 281.916 66.1425 274.71C64.6222 267.505 69.2311 260.429 76.4366 258.909Z" fill="white"/>
<path opacity="0.15" d="M87.5852 274.738C85.5326 281.447 78.6231 284.551 71.9434 283.147C74.7983 284.996 78.3543 285.761 81.9454 285.003C89.1509 283.481 93.7598 276.407 92.2382 269.2C91.1126 263.868 86.9438 259.966 81.9337 258.91C85.478 260 89.7676 267.611 87.5852 274.738Z" fill="white"/>
<path d="M331.515 136.712C334.333 129.907 331.102 122.107 324.298 119.288C317.494 116.47 309.693 119.701 306.875 126.505C304.056 133.309 307.287 141.11 314.091 143.928C320.896 146.747 328.696 143.516 331.515 136.712Z" fill="#27DEBF"/>
<path opacity="0.5" d="M331.515 136.712C334.333 129.907 331.102 122.107 324.298 119.288C317.494 116.47 309.693 119.701 306.875 126.505C304.056 133.309 307.287 141.11 314.091 143.928C320.896 146.747 328.696 143.516 331.515 136.712Z" fill="white"/>
<path opacity="0.35" d="M314.73 139.25C308.591 135.857 306.98 128.455 309.732 122.209C307.335 124.62 305.851 127.942 305.851 131.611C305.851 138.976 311.821 144.946 319.187 144.946C324.636 144.946 329.315 141.673 331.384 136.989C329.587 140.232 321.254 142.857 314.73 139.25Z" fill="white"/>
<path d="M401.914 318.732C396.482 323.706 388.047 323.333 383.073 317.902C378.099 312.47 378.472 304.035 383.903 299.061C389.335 294.088 397.77 294.459 402.744 299.891C407.717 305.323 407.346 313.758 401.914 318.732Z" fill="#27DEBF"/>
<path opacity="0.5" d="M401.914 318.732C396.482 323.706 388.047 323.333 383.073 317.902C378.099 312.47 378.472 304.035 383.903 299.061C389.335 294.088 397.77 294.459 402.744 299.891C407.717 305.323 407.346 313.758 401.914 318.732Z" fill="white"/>
<path opacity="0.35" d="M384.265 310.767C382.623 303.947 386.994 297.761 393.46 295.574C390.062 295.434 386.61 296.583 383.904 299.062C378.472 304.035 378.101 312.47 383.075 317.902C386.754 321.922 392.329 323.162 397.18 321.525C393.574 322.388 386.01 318.014 384.265 310.767Z" fill="white"/>
</svg>
