<svg width="500" height="500" viewBox="0 0 500 500" fill="none" xmlns="http://www.w3.org/2000/svg">
<path d="M437.05 327.584C437.05 327.584 472.107 249.599 432.757 175.191C393.407 100.783 307.551 81.4662 260.331 100.783C213.111 120.101 179.484 180.915 133.694 200.948C87.9051 220.98 29.2371 283.225 68.5871 356.203C107.937 429.18 154.442 423.456 226.704 404.854C298.966 386.252 411.293 391.26 437.05 327.584Z" fill="#92E3A9"/>
<path opacity="0.7" d="M437.05 327.584C437.05 327.584 472.107 249.599 432.757 175.191C393.407 100.783 307.551 81.4662 260.331 100.783C213.111 120.101 179.484 180.915 133.694 200.948C87.9051 220.98 29.2371 283.225 68.5871 356.203C107.937 429.18 154.442 423.456 226.704 404.854C298.966 386.252 411.293 391.26 437.05 327.584Z" fill="white"/>
<path d="M421.391 369.793V364.435L413.333 358.025L328.874 298.126C327.64 296.727 324.482 296.121 321.82 296.771L110.813 339.867H105.502L105.397 344.269C105.397 344.269 105.32 346.588 106.106 347.487L178.661 430.506C179.91 431.935 183.139 432.536 185.872 431.85L418.436 372.867C420.675 372.305 421.822 371.024 421.391 369.793Z" fill="white" stroke="#263238" stroke-miterlimit="10" strokeLinecap="round" stroke-linejoin="round"/>
<path d="M418.436 366.753L185.872 425.736C183.139 426.423 179.91 425.821 178.661 424.392L106.106 341.373C104.863 339.951 106.077 338.255 108.817 337.585L321.82 290.657C324.482 290.006 327.64 290.613 328.874 292.011L421 363C422.24 364.405 421.092 366.086 418.436 366.753Z" fill="white" stroke="#263238" stroke-miterlimit="10" strokeLinecap="round" stroke-linejoin="round"/>
<path d="M338.442 299.385L330.333 293.667C328.293 291.354 323.073 290.352 318.67 291.428L216.829 313.789L110.988 337.108C104.988 338.349 104.833 340.527 107.576 343.056L135.226 374.693L165.977 409.879L403.936 349.852L338.442 299.385Z" fill="#263238" stroke="#263238" stroke-miterlimit="10" strokeLinecap="round" stroke-linejoin="round"/>
<path d="M237.676 327.579C217.25 332.6 208.257 345.354 217.642 356.058C227.033 366.769 251.229 371.331 271.633 366.255C291.985 361.191 300.845 348.453 291.477 337.797C282.113 327.148 258.05 322.571 237.676 327.579ZM250.146 364.757L226.021 337.262L283.449 339.783L250.146 364.757Z" fill="#92E3A9"/>
<path d="M406.28 361.97L188.417 417.156C186.726 417.58 184.73 417.207 183.957 416.323L182.13 414.233C181.358 413.35 182.102 412.29 183.793 411.867L401.686 356.759C403.332 356.347 405.288 356.719 406.055 357.589L407.87 359.647C408.638 360.518 407.926 361.558 406.28 361.97Z" fill="#92E3A9" stroke="#263238" stroke-miterlimit="10" strokeLinecap="round" stroke-linejoin="round"/>
<path d="M200.248 410.798C198.682 409.015 194.663 408.258 191.269 409.107C187.874 409.957 186.391 412.092 187.957 413.877C189.524 415.662 193.547 416.419 196.941 415.568C200.334 414.717 201.814 412.582 200.248 410.798Z" fill="#263238" stroke="#263238" stroke-miterlimit="10" strokeLinecap="round" stroke-linejoin="round"/>
<path d="M150.957 234.612C150.839 234.612 151.269 234.581 151.605 234.581C153.053 234.581 154.226 233.474 154.226 232.109C154.226 230.744 153.053 229.637 151.605 229.637C151.597 229.637 151.589 229.638 151.581 229.638L151.585 229.617H142.224C142.224 229.617 142.803 226.239 142.803 225.081C142.803 223.923 143.382 222.186 141.838 219.966C140.294 217.746 136.723 218.615 136.723 218.615L137.267 223.199C137.353 223.921 137.215 224.652 136.873 225.294L132.67 233.186L130.74 234.827L130.161 244.574C131.415 247.566 135.372 248.531 135.372 248.531H147.792C147.869 248.538 147.948 248.542 148.027 248.542C149.475 248.542 150.648 247.435 150.648 246.07C150.648 245.202 150.173 244.44 149.456 243.999C149.614 244.027 149.777 244.044 149.944 244.044C151.392 244.044 152.565 242.937 152.565 241.572C152.565 240.716 152.104 239.962 151.403 239.518C152.638 239.318 153.578 238.306 153.578 237.084C153.578 235.719 152.404 234.612 150.957 234.612Z" fill="white"/>
<path d="M148.026 248.929C147.941 248.929 147.858 248.925 147.775 248.918H135.371C135.34 248.918 135.309 248.914 135.279 248.907C135.11 248.866 131.118 247.86 129.803 244.725C129.78 244.671 129.77 244.612 129.774 244.553L130.353 234.806C130.359 234.701 130.408 234.603 130.488 234.535L132.362 232.942L136.531 225.115C136.837 224.54 136.959 223.894 136.882 223.247L136.338 218.663C136.315 218.469 136.44 218.289 136.63 218.242C136.786 218.204 140.477 217.339 142.153 219.748C143.475 221.648 143.335 223.222 143.232 224.371C143.209 224.629 143.187 224.873 143.187 225.083C143.187 226.014 142.836 228.264 142.678 229.233H151.583C151.627 229.233 151.67 229.24 151.711 229.255C153.32 229.309 154.611 230.57 154.611 232.112C154.611 233.316 153.824 234.348 152.713 234.769C153.47 235.289 153.963 236.134 153.963 237.088C153.963 238.234 153.256 239.236 152.202 239.689C152.679 240.204 152.95 240.871 152.95 241.576C152.95 242.986 151.871 244.16 150.457 244.393C150.827 244.874 151.033 245.46 151.033 246.075C151.033 247.647 149.684 248.929 148.026 248.929ZM135.421 248.146H147.791C147.802 248.146 147.812 248.146 147.823 248.147C147.89 248.152 147.958 248.157 148.026 248.157C149.258 248.157 150.261 247.221 150.261 246.071C150.261 245.368 149.884 244.717 149.253 244.329C149.095 244.232 149.028 244.036 149.095 243.863C149.161 243.69 149.34 243.588 149.523 243.62C149.669 243.646 149.807 243.659 149.944 243.659C151.177 243.659 152.179 242.723 152.179 241.573C152.179 240.881 151.812 240.235 151.197 239.846C151.062 239.76 150.993 239.6 151.025 239.442C151.057 239.285 151.183 239.164 151.342 239.139C152.414 238.965 153.193 238.102 153.193 237.086C153.193 235.936 152.19 235 150.958 235C150.95 235 150.928 234.999 150.92 234.999C150.716 234.987 150.552 234.817 150.552 234.613C150.552 234.197 150.904 234.197 151.605 234.197C152.837 234.197 153.84 233.261 153.84 232.111C153.84 230.961 152.837 230.025 151.605 230.025C151.609 230.025 151.593 230.026 151.581 230.026C151.538 230.026 151.495 230.019 151.455 230.005H142.224C142.11 230.005 142.002 229.955 141.929 229.868C141.855 229.781 141.824 229.666 141.844 229.554C141.85 229.52 142.417 226.195 142.417 225.083C142.417 224.839 142.44 224.578 142.465 224.302C142.562 223.213 142.683 221.858 141.521 220.188C140.408 218.588 138.028 218.791 137.149 218.929L137.65 223.155C137.746 223.959 137.595 224.762 137.214 225.477L133.01 233.369C132.987 233.412 132.956 233.45 132.919 233.482L131.114 235.016L130.55 244.507C131.684 247.066 135.007 248.035 135.421 248.146Z" fill="#263238"/>
<path d="M129.759 250.076H123.837C122.656 250.076 121.699 249.119 121.699 247.938V233.396C121.699 232.215 122.656 231.258 123.837 231.258H129.759C130.94 231.258 131.897 232.215 131.897 233.396V247.938C131.897 249.119 130.94 250.076 129.759 250.076Z" fill="#263238"/>
<path d="M353.632 109.064C353.556 109.026 353.843 109.145 354.059 109.253C354.991 109.72 356.103 109.387 356.544 108.508C356.985 107.629 356.587 106.538 355.655 106.07C355.65 106.067 355.644 106.066 355.639 106.063L355.648 106.051L349.623 103.029C349.623 103.029 351.086 101.042 351.46 100.297C351.834 99.5519 352.767 98.6199 352.49 96.6929C352.213 94.7659 349.634 94.1719 349.634 94.1719L348.504 97.2979C348.326 97.7909 348.001 98.2169 347.574 98.5199L342.32 102.243L340.548 102.676L337.028 108.763C336.87 111.094 339.105 112.992 339.105 112.992L347.099 117.002C347.147 117.031 347.196 117.059 347.247 117.085C348.179 117.552 349.291 117.219 349.732 116.34C350.012 115.781 349.953 115.138 349.633 114.622C349.726 114.691 349.825 114.754 349.933 114.808C350.865 115.275 351.978 114.942 352.418 114.063C352.694 113.512 352.641 112.878 352.333 112.366C353.192 112.636 354.124 112.288 354.519 111.502C354.962 110.622 354.564 109.531 353.632 109.064Z" fill="white"/>
<path d="M347.122 117.333C347.067 117.306 347.015 117.276 346.964 117.245L338.98 113.24C338.96 113.23 338.942 113.218 338.925 113.204C338.829 113.123 336.585 111.186 336.751 108.744C336.754 108.702 336.766 108.66 336.788 108.624L340.308 102.537C340.346 102.471 340.409 102.424 340.483 102.406L342.204 101.986L347.414 98.2939C347.797 98.0229 348.084 97.6459 348.243 97.2049L349.373 94.0789C349.421 93.9469 349.56 93.8709 349.697 93.9019C349.81 93.9279 352.465 94.5629 352.766 96.6539C353.003 98.3039 352.405 99.2719 351.968 99.9779C351.87 100.137 351.777 100.287 351.709 100.422C351.408 101.022 350.456 102.356 350.041 102.929L355.773 105.804C355.801 105.818 355.827 105.837 355.848 105.859C356.866 106.413 357.29 107.641 356.792 108.634C356.403 109.409 355.563 109.819 354.713 109.731C355.033 110.31 355.077 111.014 354.769 111.627C354.399 112.364 353.62 112.781 352.796 112.732C352.937 113.218 352.895 113.735 352.668 114.188C352.213 115.095 351.139 115.503 350.154 115.196C350.237 115.625 350.18 116.068 349.982 116.465C349.472 117.478 348.189 117.868 347.122 117.333ZM339.262 112.759L347.224 116.753C347.231 116.756 347.238 116.76 347.244 116.764C347.285 116.789 347.327 116.814 347.372 116.836C348.165 117.234 349.113 116.955 349.484 116.215C349.711 115.763 349.678 115.222 349.397 114.768C349.327 114.655 349.347 114.507 349.445 114.417C349.543 114.327 349.692 114.319 349.799 114.399C349.885 114.463 349.969 114.516 350.058 114.56C350.851 114.958 351.799 114.679 352.17 113.939C352.393 113.494 352.365 112.959 352.095 112.51C352.035 112.411 352.043 112.286 352.115 112.195C352.187 112.104 352.307 112.067 352.417 112.102C353.163 112.336 353.943 112.032 354.271 111.378C354.642 110.638 354.299 109.711 353.506 109.314C353.501 109.311 353.487 109.304 353.482 109.301C353.355 109.227 353.304 109.065 353.37 108.934C353.504 108.666 353.731 108.78 354.182 109.006C354.975 109.404 355.923 109.125 356.294 108.385C356.665 107.645 356.322 106.718 355.529 106.321C355.532 106.323 355.521 106.318 355.513 106.314C355.485 106.3 355.46 106.281 355.439 106.26L349.498 103.28C349.425 103.243 349.371 103.176 349.352 103.096C349.333 103.016 349.35 102.932 349.398 102.866C349.412 102.846 350.851 100.889 351.211 100.174C351.29 100.017 351.389 99.8569 351.494 99.6869C351.908 99.0169 352.423 98.1839 352.215 96.7339C352.015 95.3449 350.418 94.7069 349.807 94.5119L348.765 97.3939C348.567 97.9429 348.211 98.4109 347.735 98.7479L342.481 102.471C342.452 102.491 342.42 102.506 342.386 102.514L340.729 102.919L337.302 108.846C337.205 110.858 339.031 112.554 339.262 112.759Z" fill="#263238"/>
<path d="M334.46 111.905L331.718 110.53C330.662 110.001 330.236 108.716 330.765 107.66L334.923 99.3691C335.452 98.3141 336.737 97.8871 337.793 98.4171L340.535 99.7921C341.59 100.321 342.017 101.606 341.487 102.662L337.329 110.952C336.8 112.008 335.515 112.434 334.46 111.905Z" fill="#263238"/>
<path d="M361.224 224.852C361.108 224.871 361.527 224.77 361.858 224.714C363.286 224.475 364.26 223.189 364.034 221.842C363.808 220.495 362.468 219.598 361.04 219.837C361.032 219.838 361.024 219.841 361.016 219.842V219.821L351.784 221.368C351.784 221.368 351.797 217.941 351.605 216.799C351.414 215.657 351.697 213.848 349.808 211.914C347.918 209.98 344.54 211.427 344.54 211.427L345.834 215.858C346.038 216.556 346.023 217.3 345.792 217.99L342.951 226.469L341.319 228.406L342.359 238.115C344.091 240.858 348.153 241.156 348.153 241.156L360.402 239.103C360.479 239.097 360.557 239.088 360.635 239.075C362.063 238.836 363.037 237.55 362.811 236.204C362.668 235.348 362.073 234.675 361.293 234.359C361.454 234.361 361.617 234.35 361.782 234.322C363.21 234.083 364.184 232.797 363.959 231.45C363.817 230.606 363.238 229.939 362.474 229.617C363.659 229.215 364.419 228.062 364.217 226.857C363.992 225.511 362.652 224.613 361.224 224.852Z" fill="white"/>
<path d="M360.7 239.457C360.616 239.471 360.534 239.48 360.451 239.488L348.218 241.538C348.188 241.543 348.157 241.545 348.126 241.542C347.952 241.529 343.849 241.197 342.034 238.322C342.003 238.272 341.983 238.216 341.977 238.157L340.937 228.448C340.926 228.343 340.958 228.239 341.026 228.158L342.611 226.277L345.429 217.868C345.636 217.25 345.649 216.593 345.466 215.967L344.172 211.535C344.117 211.347 344.211 211.149 344.391 211.072C344.539 211.009 348.036 209.545 350.087 211.644C351.705 213.299 351.827 214.875 351.915 216.025C351.935 216.283 351.954 216.528 351.989 216.734C352.143 217.653 352.169 219.929 352.173 220.911L360.956 219.439C360.999 219.432 361.043 219.432 361.086 219.439C362.681 219.226 364.163 220.256 364.418 221.777C364.617 222.964 364.011 224.113 362.985 224.711C363.817 225.098 364.444 225.851 364.601 226.791C364.79 227.921 364.259 229.026 363.294 229.647C363.85 230.076 364.227 230.69 364.343 231.384C364.576 232.774 363.706 234.111 362.35 234.574C362.794 234.987 363.094 235.531 363.196 236.138C363.454 237.695 362.335 239.182 360.7 239.457ZM348.139 240.768L360.339 238.723C360.349 238.721 360.36 238.72 360.371 238.719C360.438 238.713 360.505 238.706 360.573 238.695C361.789 238.491 362.623 237.403 362.433 236.268C362.317 235.575 361.837 234.995 361.151 234.716C360.979 234.646 360.881 234.464 360.918 234.283C360.954 234.101 361.115 233.971 361.3 233.973C361.449 233.974 361.586 233.964 361.721 233.941C362.937 233.737 363.771 232.648 363.581 231.514C363.467 230.831 362.998 230.255 362.327 229.973C362.179 229.911 362.085 229.764 362.091 229.603C362.097 229.443 362.201 229.303 362.353 229.251C363.382 228.902 364.007 227.922 363.839 226.92C363.649 225.785 362.505 225.028 361.29 225.232C361.282 225.233 361.26 225.237 361.253 225.237C361.05 225.259 360.86 225.119 360.826 224.917C360.757 224.507 361.105 224.449 361.796 224.333C363.012 224.129 363.846 223.04 363.656 221.906C363.466 220.771 362.322 220.014 361.107 220.218C361.111 220.218 361.096 220.221 361.083 220.223C361.04 220.23 360.997 220.23 360.955 220.223L351.851 221.749C351.739 221.768 351.624 221.736 351.537 221.662C351.45 221.588 351.4 221.48 351.401 221.366C351.401 221.332 351.411 217.959 351.228 216.862C351.188 216.622 351.168 216.361 351.146 216.084C351.062 214.994 350.957 213.638 349.535 212.183C348.173 210.789 345.859 211.382 345.015 211.664L346.208 215.749C346.435 216.526 346.419 217.343 346.162 218.111L343.321 226.59C343.306 226.636 343.282 226.679 343.25 226.716L341.724 228.527L342.737 237.981C344.276 240.32 347.713 240.726 348.139 240.768Z" fill="#263238"/>
<path d="M342.874 243.607L337.034 244.586C335.869 244.781 334.767 243.995 334.572 242.831L332.168 228.489C331.973 227.324 332.759 226.222 333.923 226.027L339.763 225.048C340.928 224.853 342.03 225.639 342.225 226.803L344.629 241.145C344.825 242.31 344.039 243.412 342.874 243.607Z" fill="#263238"/>
<path d="M229.584 87.406C226.874 89.007 225.496 91.994 225.806 94.932C223.382 93.242 220.101 93.006 217.391 94.607C213.688 96.794 212.458 101.569 214.646 105.273C217.223 109.637 222.444 111.008 227.093 111.66C229.159 111.949 231.236 112.159 233.314 112.334C233.581 112.356 236.185 112.6 236.185 112.6C236.172 112.579 237.31 110.154 237.419 109.909C238.269 108.005 239.088 106.084 239.832 104.135C241.506 99.749 242.826 94.515 240.249 90.151C238.062 86.448 233.287 85.218 229.584 87.406Z" fill="#263238"/>
<path d="M382.12 187.875C379.151 186.828 375.978 187.693 373.926 189.819C373.662 186.876 371.734 184.211 368.766 183.164C364.71 181.733 360.262 183.861 358.831 187.917C357.145 192.696 359.451 197.577 361.941 201.557C363.047 203.325 364.222 205.051 365.424 206.756C365.578 206.975 367.065 209.126 367.065 209.126C367.073 209.102 369.662 208.415 369.919 208.342C371.924 207.769 373.922 207.162 375.893 206.479C380.329 204.942 385.187 202.588 386.873 197.809C388.304 193.753 386.176 189.305 382.12 187.875Z" fill="#263238"/>
<path d="M111.482 262.556C108.438 263.36 106.301 265.861 105.801 268.773C103.927 266.488 100.834 265.37 97.7911 266.174C93.6331 267.273 91.1531 271.534 92.2521 275.693C93.5471 280.593 98.1991 283.331 102.497 285.221C104.407 286.061 106.349 286.827 108.301 287.56C108.552 287.654 110.991 288.596 110.991 288.596C110.985 288.572 112.738 286.548 112.91 286.342C114.246 284.74 115.556 283.115 116.801 281.441C119.604 277.675 122.296 272.996 121.001 268.096C119.902 263.937 115.64 261.457 111.482 262.556Z" fill="#263238"/>
<path d="M138.748 168.559C136.874 167.898 134.871 168.444 133.575 169.786C133.409 167.928 132.191 166.246 130.317 165.585C127.757 164.682 124.949 166.025 124.046 168.586C122.982 171.603 124.437 174.684 126.009 177.197C126.707 178.313 127.449 179.403 128.208 180.479C128.306 180.617 129.244 181.975 129.244 181.975C129.249 181.96 130.883 181.526 131.046 181.48C132.312 181.118 133.573 180.735 134.817 180.304C137.617 179.334 140.684 177.848 141.748 174.831C142.652 172.27 141.309 169.463 138.748 168.559Z" fill="#263238"/>
<path d="M181.415 292.559C179.541 291.898 177.538 292.444 176.242 293.786C176.076 291.928 174.858 290.246 172.984 289.585C170.424 288.682 167.616 290.025 166.713 292.586C165.649 295.603 167.104 298.684 168.676 301.197C169.374 302.313 170.116 303.403 170.875 304.479C170.972 304.617 171.911 305.975 171.911 305.975C171.916 305.96 173.55 305.526 173.713 305.48C174.979 305.118 176.24 304.735 177.484 304.304C180.284 303.334 183.351 301.848 184.415 298.831C185.319 296.27 183.975 293.463 181.415 292.559Z" fill="#263238"/>
<path d="M190.214 351.827C190.214 351.827 178.892 363.611 177.737 369.387C176.582 375.163 179.354 380.247 183.976 378.86C188.597 377.474 192.756 363.148 193.912 360.606C195.067 358.064 196.454 355.292 196.454 355.292C196.454 355.292 192.987 350.672 190.214 351.827Z" fill="#92E3A9" stroke="#263238" stroke-miterlimit="10" strokeLinecap="round" stroke-linejoin="round"/>
<path d="M177.639 370.005C176.795 375.518 179.521 380.197 183.976 378.861C185.579 378.38 187.126 376.341 188.512 373.778C185.51 368.869 180.649 369.191 177.639 370.005Z" fill="white" stroke="#263238" stroke-miterlimit="10" strokeLinecap="round" stroke-linejoin="round"/>
<path d="M190.107 370.477C187.593 373.943 184.343 377.665 181.897 377.012C179.346 376.332 178.175 371.78 177.733 369.419C176.595 375.182 179.364 380.244 183.977 378.86C186.227 378.185 188.368 374.437 190.107 370.477Z" fill="white" stroke="#263238" stroke-miterlimit="10" strokeLinecap="round" stroke-linejoin="round"/>
<path d="M192.525 358.297C192.525 358.297 187.442 355.524 187.211 356.448C186.98 357.372 192.063 359.914 192.756 359.914C193.449 359.914 193.911 359.683 192.525 358.297Z" fill="white" stroke="#263238" stroke-miterlimit="10" strokeLinecap="round" stroke-linejoin="round"/>
<path d="M191.37 359.914C191.37 359.914 186.287 357.141 186.056 358.065C185.825 358.989 190.908 361.531 191.602 361.531C192.294 361.531 192.756 361.3 191.37 359.914Z" fill="white" stroke="#263238" stroke-miterlimit="10" strokeLinecap="round" stroke-linejoin="round"/>
<path d="M190.214 361.531C190.214 361.531 185.131 358.758 184.9 359.683C184.669 360.607 189.752 363.149 190.445 363.149C191.138 363.149 191.601 362.918 190.214 361.531Z" fill="white" stroke="#263238" stroke-miterlimit="10" strokeLinecap="round" stroke-linejoin="round"/>
<path d="M189.059 363.149C189.059 363.149 183.976 360.376 183.745 361.301C183.514 362.225 188.597 364.767 189.291 364.767C189.983 364.766 190.445 364.535 189.059 363.149Z" fill="white" stroke="#263238" stroke-miterlimit="10" strokeLinecap="round" stroke-linejoin="round"/>
<path d="M276.399 344.202C276.399 344.202 270.391 348.823 269.005 352.058C267.619 355.293 270.391 356.217 274.088 356.91C277.785 357.603 281.251 361.531 286.334 362.918C291.417 364.304 297.887 363.842 295.807 360.607C293.728 357.372 287.027 353.213 285.871 351.365C284.716 349.517 284.023 347.899 284.023 347.899L276.399 344.202Z" fill="#92E3A9" stroke="#263238" stroke-miterlimit="10" strokeLinecap="round" stroke-linejoin="round"/>
<path d="M295.808 360.607C295.224 359.699 294.271 358.718 293.183 357.735C289.303 358.422 286.985 361.141 285.909 362.786C286.051 362.829 286.19 362.878 286.335 362.917C291.418 364.304 297.888 363.842 295.808 360.607Z" fill="white" stroke="#263238" stroke-miterlimit="10" strokeLinecap="round" stroke-linejoin="round"/>
<path d="M285.642 350.44C285.642 350.44 279.634 351.595 280.79 352.519C281.945 353.444 286.797 351.596 285.642 350.44Z" fill="white" stroke="#263238" stroke-miterlimit="10" strokeLinecap="round" stroke-linejoin="round"/>
<path d="M287.49 351.596C287.49 351.596 281.483 352.751 282.638 353.675C283.793 354.6 288.645 352.751 287.49 351.596Z" fill="white" stroke="#263238" stroke-miterlimit="10" strokeLinecap="round" stroke-linejoin="round"/>
<path d="M288.414 352.751C288.414 352.751 282.406 353.906 283.562 354.83C284.717 355.755 289.57 353.906 288.414 352.751Z" fill="white" stroke="#263238" stroke-miterlimit="10" strokeLinecap="round" stroke-linejoin="round"/>
<path d="M290.263 354.368C290.263 354.368 284.255 355.523 285.411 356.447C286.566 357.372 291.418 355.524 290.263 354.368Z" fill="white" stroke="#263238" stroke-miterlimit="10" strokeLinecap="round" stroke-linejoin="round"/>
<path d="M296.172 361.528C291.668 362.715 287.52 361.767 283.562 359.683C279.172 357.372 276.861 356.217 272.471 354.6C270.624 353.919 269.478 353.282 268.764 352.769C268.065 355.431 270.68 356.271 274.089 356.911C277.786 357.604 281.252 361.532 286.335 362.919C290.885 364.159 296.526 363.912 296.172 361.528Z" fill="white" stroke="#263238" stroke-miterlimit="10" strokeLinecap="round" stroke-linejoin="round"/>
<path d="M233.653 247.551C233.653 247.551 225.335 285.051 223.717 294.062C222.1 303.073 221.406 308.619 221.406 308.619C221.406 308.619 215.398 313.009 209.391 322.714C203.383 332.418 190.213 351.827 190.213 351.827C190.213 351.827 189.751 355.293 193.91 356.448C193.91 356.448 195.99 357.372 197.145 356.448C198.3 355.524 237.811 319.017 242.433 311.392C247.054 303.767 256.528 277.195 256.528 277.195L262.536 276.04L300.892 311.623L275.013 344.664C275.013 344.664 274.089 346.513 276.63 348.13C279.172 349.747 283.1 349.054 285.179 348.13C287.259 347.206 323.766 311.392 323.997 308.85C324.228 306.308 322.38 303.305 321.917 302.38C321.455 301.456 284.717 252.403 284.717 252.403L282.637 247.089C282.637 247.089 258.376 249.862 247.516 247.782C236.657 245.703 234.578 244.085 233.653 247.551Z" fill="white" stroke="#263238" stroke-miterlimit="10" strokeLinecap="round" stroke-linejoin="round"/>
<path d="M262.536 276.039L275.706 272.112" stroke="#263238" stroke-miterlimit="10" strokeLinecap="round" stroke-linejoin="round"/>
<path d="M263.922 276.733L281.945 274.653" stroke="#263238" stroke-miterlimit="10" strokeLinecap="round" stroke-linejoin="round"/>
<path d="M300.891 311.623L308.747 318.092" stroke="#263238" stroke-miterlimit="10" strokeLinecap="round" stroke-linejoin="round"/>
<path d="M266.102 259.687L258.177 262.329C258.177 262.329 270.63 261.952 271.008 263.461C271.385 264.97 263.46 271.008 263.46 271.008" stroke="#263238" stroke-miterlimit="10" strokeLinecap="round" stroke-linejoin="round"/>
<path d="M237.799 254.781C237.799 254.781 241.95 261.951 232.138 266.102" stroke="#263238" stroke-miterlimit="10" strokeLinecap="round" stroke-linejoin="round"/>
<path d="M287.625 171.363C287.625 171.363 254.217 170.609 252.6 171.071C250.983 171.533 232.498 194.639 230.418 196.719C228.338 198.799 222.793 202.727 222.331 205.73C221.869 208.734 226.028 218.669 230.649 218.669C235.27 218.669 243.588 209.427 243.588 209.427C243.588 209.427 232.497 247.783 232.959 249.4C233.421 251.017 241.277 254.714 258.838 256.794C276.398 258.873 283.792 251.48 284.254 249.169C284.716 246.858 283.792 242.931 283.792 242.931L289.8 232.302C289.8 232.302 300.429 240.226 305.281 236.76C310.133 233.294 310.133 222.665 312.444 219.431C314.755 216.197 320.3 198.867 318.452 196.556C316.603 194.245 287.625 171.363 287.625 171.363Z" fill="#92E3A9" stroke="#263238" stroke-miterlimit="10" strokeLinecap="round" stroke-linejoin="round"/>
<path d="M305.744 196.324C305.744 196.324 299.274 191.635 298.35 193.714C297.426 195.793 291.418 207.347 287.028 212.199C282.638 217.051 280.327 221.672 283.1 225.369C285.873 229.066 289.801 232.301 289.801 232.301" stroke="#263238" stroke-miterlimit="10" strokeLinecap="round" stroke-linejoin="round"/>
<path d="M243.588 209.426L251.906 181.699" stroke="#263238" stroke-miterlimit="10" strokeLinecap="round" stroke-linejoin="round"/>
<path d="M281.021 172.688C281.021 172.688 268.775 171.302 263.46 165.987C258.146 160.673 255.373 155.358 246.131 153.972C236.889 152.586 229.495 153.972 229.495 153.972L231.806 165.987C231.806 165.987 242.897 161.828 248.442 165.063C253.987 168.298 256.76 176.385 264.385 178.464C272.01 180.543 281.714 180.081 281.714 180.081L281.021 172.688Z" fill="#263238" stroke="#263238" stroke-miterlimit="10" strokeLinecap="round" stroke-linejoin="round"/>
<path d="M291.187 174.768C291.187 174.768 294.653 177.541 295.577 181.931C296.501 186.321 292.342 191.635 289.107 194.639C285.872 197.643 282.637 199.029 274.319 200.185C266.001 201.34 258.607 192.791 253.061 191.867C247.516 190.943 236.194 197.181 236.194 197.181L238.505 187.245C238.505 187.245 245.437 182.624 255.141 183.779C264.845 184.934 271.315 191.866 275.012 192.79C278.709 193.714 285.41 191.635 286.796 186.32C288.182 181.006 286.334 176.153 288.644 174.536C290.956 172.919 291.187 174.768 291.187 174.768Z" fill="#263238" stroke="#263238" stroke-miterlimit="10" strokeLinecap="round" stroke-linejoin="round"/>
<path d="M290.032 131.79C290.032 131.79 283.331 133.639 280.558 137.798C277.785 141.957 269.698 166.218 269.929 168.298C270.16 170.377 280.558 168.298 280.558 168.298C280.558 168.298 273.395 183.317 273.395 185.859C273.395 188.401 276.63 189.787 280.789 188.863C284.948 187.939 299.117 163.544 299.117 163.544C299.117 163.544 303.315 168.424 305.975 166.75C309.016 164.835 308.055 160.974 305.744 160.974C303.433 160.974 312.214 151.501 309.21 145.262C306.206 139.022 292.805 129.711 290.032 131.79Z" fill="white" stroke="#263238" stroke-miterlimit="10" strokeLinecap="round" stroke-linejoin="round"/>
<path d="M287.49 124.397C287.49 124.397 274.551 124.397 273.858 130.636C273.165 136.875 279.866 139.647 287.259 138.492C294.653 137.337 301.354 137.799 302.278 138.954C303.202 140.109 293.267 142.42 295.577 144.037C297.888 145.654 300.198 145.423 300.198 145.423C300.198 145.423 296.963 146.347 297.194 148.658C297.425 150.969 299.436 161.176 301.053 161.176C302.67 161.176 305.743 160.973 305.743 160.973C305.743 160.973 310.133 158.893 313.599 155.196C317.065 151.499 317.989 143.643 313.599 139.022C309.209 134.401 305.743 129.942 302.277 126.245C298.811 122.548 295.576 118.62 288.644 117.696C281.712 116.772 278.017 119.544 287.49 124.397Z" fill="#263238" stroke="#263238" stroke-miterlimit="10" strokeLinecap="round" stroke-linejoin="round"/>
<path d="M314.472 148.251C314.856 150.605 314.611 152.352 314.611 152.352" stroke="white" stroke-miterlimit="10" strokeLinecap="round" stroke-linejoin="round"/>
<path d="M290.723 131.694C290.723 131.694 276.542 133.074 281.9 135.783C287.258 138.492 295.457 133.416 305.787 137.505C310.15 139.232 312.402 142.15 313.547 144.944" stroke="white" stroke-miterlimit="10" strokeLinecap="round" stroke-linejoin="round"/>
<path d="M299.332 142.454C299.332 142.454 309.016 147.188 310.307 154.075" stroke="white" stroke-miterlimit="10" strokeLinecap="round" stroke-linejoin="round"/>
<path d="M280.558 168.298C280.558 168.298 291.649 167.605 294.653 165.063" stroke="#263238" stroke-miterlimit="10" strokeLinecap="round" stroke-linejoin="round"/>
<path d="M269.93 143.344C269.93 143.344 286.797 143.113 296.271 145.192C296.271 145.192 294.61 150.659 291.837 152.508C289.064 154.356 284.256 153.048 283.101 152.124C281.946 151.2 281.022 145.654 281.022 145.654H279.173L278.249 148.427C278.249 148.427 277.556 152.124 275.014 152.124C272.471 152.124 269.93 151.662 269.93 143.344Z" fill="#92E3A9" stroke="#263238" stroke-miterlimit="10" strokeLinecap="round" stroke-linejoin="round"/>
<path d="M278.727 146.99C275.544 145.887 272.259 146.367 270.143 146.929C270.8 151.79 272.904 152.124 275.013 152.124C277.555 152.124 278.248 148.427 278.248 148.427L278.727 146.99Z" fill="#263238" stroke="#263238" stroke-miterlimit="10" strokeLinecap="round" stroke-linejoin="round"/>
<path d="M294.59 149.136C290.42 145.292 286.231 149.054 281.499 148.011C281.879 149.641 282.453 151.606 283.1 152.124C284.255 153.048 289.064 154.356 291.836 152.508C292.945 151.768 293.872 150.451 294.59 149.136Z" fill="#263238" stroke="#263238" stroke-miterlimit="10" strokeLinecap="round" stroke-linejoin="round"/>
<path d="M296.27 145.192L306.764 161.374L305.744 160.972L295.301 147.976L296.27 145.192Z" fill="#92E3A9" stroke="#263238" stroke-miterlimit="10" strokeLinecap="round" stroke-linejoin="round"/>
<path d="M277.092 159.055C277.092 159.055 285.179 161.366 287.49 156.513" stroke="#263238" stroke-miterlimit="10" strokeLinecap="round" stroke-linejoin="round"/>
<path d="M286.104 155.59L289.57 156.976" stroke="#263238" stroke-miterlimit="10" strokeLinecap="round" stroke-linejoin="round"/>
<path d="M279.634 148.427C279.634 148.427 272.471 149.351 272.471 150.507C272.471 151.663 277.092 154.897 277.092 154.897" fill="white"/>
<path d="M279.634 148.427C279.634 148.427 272.471 149.351 272.471 150.507C272.471 151.663 277.092 154.897 277.092 154.897" stroke="#263238" stroke-miterlimit="10" strokeLinecap="round" stroke-linejoin="round"/>
<path d="M278.71 172.226C278.71 172.226 277.555 171.995 276.168 173.381C274.782 174.767 271.602 180.24 270.782 182.413C269.299 186.34 274.499 193.359 279.86 190.941C282.524 189.739 283.183 190.787 286.187 187.09C289.191 183.393 289.8 180.544 289.8 179.389C289.8 178.234 291.879 178.234 287.489 180.313C283.1 182.392 274.32 178.926 278.71 172.226Z" fill="#263238" stroke="#263238" stroke-miterlimit="10" strokeLinecap="round" stroke-linejoin="round"/>
<path d="M133.039 94.9439C130.137 96.1639 128.369 98.9379 128.28 101.892C126.106 99.8899 122.887 99.2139 119.986 100.434C116.022 102.101 114.159 106.667 115.827 110.632C117.792 115.303 122.78 117.367 127.299 118.639C129.307 119.204 131.337 119.693 133.372 120.147C133.634 120.205 136.18 120.798 136.18 120.798C136.17 120.775 137.625 118.526 137.766 118.299C138.866 116.527 139.936 114.734 140.936 112.904C143.187 108.784 145.201 103.776 143.236 99.1039C141.569 95.1379 137.004 93.2759 133.039 94.9439Z" fill="#263238"/>
<path d="M177.534 113.981C174.58 112.893 171.395 113.715 169.314 115.813C169.09 112.867 167.199 110.176 164.244 109.088C160.208 107.602 155.732 109.669 154.246 113.706C152.495 118.462 154.735 123.374 157.17 127.387C158.252 129.17 159.403 130.912 160.582 132.633C160.733 132.854 162.191 135.025 162.191 135.025C162.2 135.002 164.797 134.35 165.056 134.28C167.069 133.734 169.075 133.155 171.055 132.499C175.511 131.023 180.401 128.735 182.152 123.979C183.637 119.943 181.57 115.466 177.534 113.981Z" fill="#263238"/>
<path d="M172.957 109.946C172.839 109.946 173.269 109.915 173.605 109.915C175.053 109.915 176.226 108.808 176.226 107.443C176.226 106.078 175.053 104.971 173.605 104.971C173.597 104.971 173.589 104.972 173.581 104.972L173.585 104.951H164.224C164.224 104.951 164.803 101.573 164.803 100.415C164.803 99.2568 165.382 97.5198 163.838 95.2998C162.294 93.0798 158.723 93.9488 158.723 93.9488L159.267 98.5328C159.353 99.2548 159.215 99.9858 158.873 100.628L154.67 108.52L152.74 110.161L152.161 119.908C153.415 122.9 157.372 123.865 157.372 123.865H169.792C169.869 123.872 169.948 123.876 170.027 123.876C171.475 123.876 172.648 122.769 172.648 121.404C172.648 120.536 172.173 119.774 171.456 119.333C171.614 119.361 171.777 119.378 171.944 119.378C173.392 119.378 174.565 118.271 174.565 116.906C174.565 116.05 174.104 115.296 173.403 114.852C174.638 114.652 175.578 113.64 175.578 112.418C175.578 111.053 174.404 109.946 172.957 109.946Z" fill="white"/>
<path d="M170.026 124.262C169.941 124.262 169.858 124.257 169.775 124.251H157.371C157.34 124.251 157.309 124.247 157.279 124.24C157.11 124.199 153.118 123.193 151.803 120.057C151.78 120.003 151.77 119.944 151.774 119.885L152.353 110.138C152.359 110.033 152.408 109.935 152.488 109.867L154.362 108.274L158.531 100.447C158.837 99.8719 158.959 99.2259 158.882 98.5789L158.338 93.9949C158.315 93.8009 158.44 93.6209 158.63 93.5739C158.786 93.5359 162.477 92.6709 164.153 95.0799C165.475 96.9799 165.335 98.5539 165.232 99.7029C165.209 99.9609 165.187 100.205 165.187 100.415C165.187 101.346 164.836 103.596 164.678 104.565H173.583C173.627 104.565 173.67 104.572 173.711 104.587C175.32 104.641 176.611 105.901 176.611 107.443C176.611 108.647 175.824 109.679 174.713 110.1C175.47 110.62 175.963 111.465 175.963 112.419C175.963 113.565 175.256 114.567 174.202 115.02C174.679 115.535 174.95 116.203 174.95 116.907C174.95 118.317 173.871 119.491 172.457 119.723C172.827 120.204 173.033 120.79 173.033 121.405C173.033 122.98 171.684 124.262 170.026 124.262ZM157.421 123.479H169.791C169.802 123.479 169.812 123.479 169.823 123.48C169.89 123.486 169.958 123.49 170.026 123.49C171.258 123.49 172.261 122.554 172.261 121.404C172.261 120.702 171.884 120.05 171.253 119.662C171.095 119.565 171.028 119.369 171.095 119.196C171.161 119.023 171.34 118.921 171.523 118.953C171.669 118.979 171.807 118.992 171.944 118.992C173.176 118.992 174.179 118.056 174.179 116.906C174.179 116.214 173.812 115.568 173.197 115.178C173.062 115.092 172.993 114.932 173.025 114.774C173.057 114.617 173.183 114.496 173.342 114.471C174.414 114.297 175.193 113.434 175.193 112.418C175.193 111.268 174.19 110.332 172.958 110.332C172.95 110.332 172.928 110.331 172.92 110.331C172.716 110.319 172.552 110.149 172.552 109.945C172.552 109.529 172.904 109.529 173.605 109.529C174.837 109.529 175.84 108.593 175.84 107.443C175.84 106.293 174.837 105.357 173.605 105.357C173.609 105.357 173.593 105.358 173.58 105.358C173.537 105.358 173.494 105.351 173.454 105.337H164.223C164.109 105.337 164.001 105.287 163.928 105.2C163.854 105.113 163.823 104.998 163.843 104.886C163.849 104.852 164.416 101.528 164.416 100.415C164.416 100.171 164.439 99.9109 164.464 99.6349C164.561 98.5459 164.682 97.1909 163.52 95.5209C162.407 93.9209 160.027 94.1239 159.148 94.2619L159.649 98.4879C159.745 99.2919 159.594 100.095 159.213 100.81L155.009 108.702C154.986 108.745 154.955 108.783 154.918 108.815L153.113 110.349L152.549 119.84C153.684 122.399 157.007 123.368 157.421 123.479Z" fill="#263238"/>
<path d="M151.759 125.409H145.837C144.656 125.409 143.699 124.452 143.699 123.271V108.729C143.699 107.548 144.656 106.591 145.837 106.591H151.759C152.94 106.591 153.897 107.548 153.897 108.729V123.271C153.897 124.452 152.94 125.409 151.759 125.409Z" fill="#263238"/>
<path d="M212.44 135.1L211.919 130.063C211.919 130.062 211.92 130.061 211.92 130.06V130.05C211.92 130.034 211.917 130.012 211.912 129.993L211.132 122.45C211.17 122.441 211.191 122.44 211.21 122.43C211.24 122.43 211.26 122.42 211.29 122.4C211.49 122.34 211.63 122.15 211.63 121.93C211.63 121.62 211.38 121.38 211.03 121.44C211.029 121.44 211.028 121.441 211.027 121.441L207 82.5001C206.98 82.3201 206.87 82.1701 206.7 82.1001C206.54 82.0201 206.35 82.0401 206.21 82.1401C206.132 82.1981 202.902 84.4751 198.25 86.9921C198.25 86.9911 198.25 86.9911 198.25 86.9901L197.81 87.2301L197.33 87.4901C193.871 89.3061 189.751 91.1741 185.59 92.3701L184.982 92.5441C182.158 93.3111 179.327 93.7481 176.7 93.6301C175.816 93.5861 174.901 93.5181 173.977 93.4361L173.224 93.3691C170.792 93.1481 168.259 92.8231 165.611 92.4911C165.249 92.4431 164.879 92.3991 164.511 92.3541V92.3511L163.562 92.2371C160.883 91.8891 158.108 91.5651 155.251 91.3291V91.3211L154.753 91.2811C154.752 91.2811 154.752 91.2811 154.751 91.2811C154.75 91.2811 154.749 91.2811 154.749 91.2811L154.251 91.2411C154.251 91.2441 154.251 91.2451 154.251 91.2481C150.83 90.9891 147.283 90.8891 143.611 91.0731V91.0711L143.486 91.0771C143.36 91.0841 143.237 91.0841 143.111 91.0911C143.054 91.0941 142.996 91.1011 142.94 91.1051L142.611 91.1211L142.612 91.1311C138.906 91.3701 135.073 91.9151 131.104 92.9101C131.103 92.9081 131.103 92.9041 131.102 92.9021L130.761 92.9901C130.714 93.0021 130.669 93.0101 130.622 93.0221C130.499 93.0541 130.374 93.0891 130.25 93.1221L130.132 93.1531C129.871 93.2211 129.61 93.2891 129.352 93.3631C126.016 94.3001 122.711 95.6551 119.534 97.2491C119.533 97.2471 119.533 97.2451 119.532 97.2431L119.275 97.3741C119.215 97.4051 119.153 97.4321 119.092 97.4631C119.033 97.4931 118.976 97.5271 118.917 97.5571L118.612 97.7131L118.613 97.7211C115.222 99.4861 111.998 101.505 109.043 103.605C109.042 103.605 109.042 103.604 109.042 103.603C109.042 103.603 109.042 103.603 109.042 103.593L108.642 103.883L108.212 104.193L108.214 104.201C105.18 106.407 102.463 108.662 100.197 110.762C100.195 110.76 100.194 110.756 100.192 110.754L99.8638 111.065C99.8538 111.074 99.8418 111.084 99.8318 111.094C99.7898 111.133 99.7538 111.17 99.7118 111.209L99.4218 111.484L99.4228 111.486C96.4658 114.29 94.3938 116.706 93.5408 118.179L93.5218 118.193L93.5118 118.23C93.3128 118.58 93.1618 118.893 93.1118 119.123C93.1018 119.193 93.0918 119.263 93.0918 119.323C93.0918 119.415 93.1238 119.497 93.1428 119.583L93.1318 119.623C93.1378 119.623 93.1438 119.62 93.1498 119.62C93.2028 119.828 93.2918 120.023 93.4618 120.173C93.7718 120.463 94.2618 120.613 94.9718 120.683C95.1968 120.708 95.4498 120.721 95.7218 120.727L95.7818 120.733C95.7848 120.731 95.7868 120.729 95.7898 120.727C96.3698 120.738 97.0648 120.711 97.8718 120.662L97.8988 120.66C98.0538 120.65 98.1978 120.643 98.3618 120.632C99.0718 120.582 99.8618 120.522 100.742 120.452C101.352 120.402 101.992 120.342 102.662 120.292C105.527 120.072 108.95 119.865 112.631 119.96L112.632 119.962L113.682 120.052C113.682 120.051 113.681 120.05 113.681 120.049L118.003 120.433C119.221 120.645 120.466 120.937 121.745 121.31L122.463 121.526C125.824 122.558 129.388 124.066 133.182 125.821L133.935 126.168C135.856 127.068 137.83 128.02 139.872 129.012C141.872 129.982 143.892 130.952 145.942 131.912C146.011 131.945 146.084 131.976 146.154 132.009L146.392 132.122C146.393 132.121 146.392 132.12 146.393 132.119C149.47 133.569 152.627 134.978 155.902 136.28V136.283L156.086 136.357C156.196 136.401 156.301 136.449 156.412 136.493C156.479 136.519 156.548 136.543 156.616 136.57L156.872 136.673C156.873 136.671 156.872 136.669 156.873 136.667C157.814 137.034 158.758 137.399 159.722 137.743C162.437 138.727 165.38 139.526 168.442 140.16V140.163L168.61 140.197C168.728 140.221 168.843 140.25 168.962 140.273C169.075 140.296 169.19 140.313 169.303 140.335L169.442 140.363C169.442 140.362 169.442 140.361 169.442 140.361C172.811 141.017 176.294 141.464 179.771 141.712V141.714L179.9 141.723C180.027 141.732 180.154 141.746 180.281 141.754C180.358 141.759 180.435 141.761 180.513 141.766L180.771 141.784C180.772 141.782 180.771 141.781 180.772 141.779C182.658 141.898 184.542 141.964 186.391 141.964C187.541 141.964 188.667 141.931 189.78 141.886L189.781 141.894L190.095 141.878C190.156 141.875 190.22 141.877 190.281 141.874C195.264 141.653 199.889 140.985 203.711 139.915V139.924L204.06 139.82C204.103 139.808 204.149 139.797 204.191 139.784C204.27 139.761 204.343 139.735 204.421 139.712L204.681 139.634L204.68 139.63C208.035 138.595 210.699 137.22 212.311 135.504C212.41 135.39 212.46 135.25 212.44 135.1ZM169.37 139.328L168.78 133.69C172.22 134.42 175.54 134.95 178.88 135.29L179.629 140.716C176.17 140.459 172.706 139.997 169.37 139.328ZM146.38 131.008L146.09 126.79C149.54 128.08 152.68 129.19 155.68 130.16L155.86 135.175C152.598 133.865 149.447 132.45 146.38 131.008ZM115.53 119.1C114.809 119.044 114.097 119.016 113.392 118.988L113.39 118.98L112.8 116.87C115.34 116.55 118.05 116.43 121.04 116.52L121.43 119.55C121.28 119.54 121.14 119.53 120.99 119.53C120.96 119.53 120.92 119.52 120.91 119.52C120 119.47 119.11 119.44 118.22 119.44H118.21C118.209 119.44 118.207 119.44 118.206 119.44C117.3 119.282 116.407 119.166 115.53 119.1ZM97.3148 119.697C98.5438 118.878 99.8518 118.079 101.21 117.31L101.67 118.8C101.59 118.83 101.52 118.86 101.45 118.88C101.43 118.89 101.4 118.9 101.38 118.9L99.7998 119.52L99.7888 119.524C98.9158 119.597 98.0728 119.66 97.3148 119.697ZM119.46 104.27C116.04 105.46 113.03 106.65 110.28 107.87L109.372 104.627C112.255 102.561 115.419 100.545 118.751 98.7861L119.46 104.27ZM120.56 104.93C122.96 104.11 125.6 103.24 128.43 102.37C129.28 102.1 130.11 101.86 130.92 101.64L131.43 107.11C127.93 107.36 124.43 107.86 121.03 108.62L120.56 104.94V104.93ZM164.23 99.4102C163.09 99.2602 161.97 99.1001 160.88 98.9501C159.05 98.6901 157.3 98.4401 155.5 98.2401L155.28 92.3381C158.141 92.5661 160.912 92.9001 163.59 93.2471V93.2501L164.23 99.4102ZM207.05 92.7501L208.821 109.84C208.761 109.84 208.69 109.85 208.62 109.88C208.6 109.88 206.53 110.69 201.22 111.17L199.47 96.8001C203.47 95.1101 206.08 93.4201 207.05 92.7501ZM202.87 133.11C199.06 134.09 194.75 134.63 190.04 134.73L188.97 124.5C189.07 124.5 189.17 124.5 189.27 124.5C193.79 124.5 197.98 124.32 201.75 123.94L202.87 133.1V133.11ZM145.59 119.66L147.27 119.96C149.91 120.43 152.61 120.91 155.35 121.37L155.64 129.09C152.65 128.12 149.48 127 146.01 125.68L145.59 119.66ZM120.05 108.85C117.08 109.55 114.14 110.44 111.29 111.5L110.55 108.85C113.25 107.63 116.23 106.46 119.59 105.27L120.05 108.85ZM120.18 109.85L120.91 115.51C117.86 115.43 115.11 115.56 112.52 115.89L111.57 112.47C114.37 111.41 117.26 110.53 120.18 109.85ZM121.16 109.62C124.56 108.86 128.04 108.35 131.53 108.1L132.31 116.5C128.4 115.97 124.99 115.65 121.93 115.55L121.16 109.62ZM177.2 123.06C175.55 122.94 173.73 122.79 171.52 122.58C170.2 122.45 168.9 122.31 167.59 122.15L166.3 109.67C169.45 110.08 172.38 110.51 175.22 110.91L175.53 110.96L177.2 123.06ZM155.54 99.2501C157.26 99.4401 158.96 99.6901 160.74 99.9401C161.92 100.1 163.1 100.27 164.34 100.44L165.17 108.51C161.88 108.11 158.82 107.79 155.84 107.54L155.54 99.2501ZM155.32 120.35C152.65 119.9 150.03 119.44 147.45 118.98L145.52 118.64L144.78 107.92C148.06 108 151.38 108.18 154.88 108.47L155.32 120.35ZM132.44 107.04L131.9 101.36C136 100.24 139.69 99.5201 143.17 99.1501L143.7 106.89C140.63 106.83 137.5 106.85 134.39 106.95C133.74 106.97 133.08 107 132.44 107.04ZM132.53 108.04C133.16 108 133.79 107.97 134.43 107.95C137.55 107.85 140.68 107.83 143.77 107.89L144.5 118.46C141.01 117.84 137.07 117.16 133.33 116.64L132.53 108.04ZM155.88 108.55C158.87 108.8 161.96 109.12 165.28 109.54L166.57 122.02C163.44 121.64 160.15 121.15 156.32 120.52L155.88 108.55ZM171.42 123.58C173.73 123.8 175.62 123.96 177.34 124.07L178.74 134.26C175.41 133.92 172.11 133.39 168.68 132.64L167.701 123.18C168.931 123.33 170.17 123.46 171.42 123.58ZM176.57 111.11C180.25 111.63 183.59 112.08 186.69 112.34L187.85 123.49C184.76 123.47 181.53 123.34 178.22 123.12L176.57 111.11ZM201.63 122.94C197.78 123.32 193.5 123.51 188.86 123.5L187.71 112.42C189.13 112.53 190.48 112.58 191.73 112.58C194.85 112.58 197.74 112.47 200.34 112.26L201.63 122.94ZM201.34 112.17C206.31 111.71 208.5 110.99 208.92 110.83C208.922 110.829 208.921 110.829 208.924 110.829L210.049 121.681C210.03 121.682 210.01 121.691 209.991 121.691C208.551 122.011 206.121 122.471 202.641 122.841L201.34 112.17ZM200.22 111.26C197.66 111.47 194.8 111.58 191.73 111.58C190.45 111.58 189.06 111.52 187.6 111.41L186.46 100.5C190.64 99.8401 194.69 98.7301 198.51 97.1901L200.22 111.26ZM186.58 111.33C183.49 111.06 180.14 110.61 176.43 110.08L175.21 101.27C175.69 101.28 176.18 101.29 176.68 101.29C179.67 101.29 182.62 101.08 185.47 100.66L186.58 111.33ZM175.39 109.92H175.36C172.45 109.51 169.44 109.07 166.19 108.64L165.35 100.57C167.68 100.85 170.69 101.15 174.19 101.25L175.39 109.92ZM154.84 107.46C151.33 107.17 148.01 106.99 144.71 106.91L144.16 99.0501C147.56 98.7401 150.8 98.7701 154.54 99.1501L154.84 107.46ZM143.1 98.1501C139.61 98.5201 135.91 99.2401 131.81 100.36L131.21 93.9151C135.158 92.9131 138.978 92.3681 142.68 92.1291L143.1 98.1501ZM109.36 108.29C106.3 109.71 103.59 111.18 100.91 112.92L100.65 112.07C100.65 112.06 100.64 112.04 100.64 112.02L100.572 111.796C102.787 109.747 105.475 107.486 108.511 105.253L109.36 108.29ZM101.22 113.9C103.9 112.17 106.59 110.68 109.63 109.27L110.36 111.86C107.44 112.99 104.56 114.33 101.81 115.83L101.22 113.91V113.9ZM102.62 118.44L102.11 116.8C104.85 115.3 107.71 113.97 110.63 112.83L111.53 116.02C108.79 116.43 106.21 117.08 103.84 117.98C103.42 118.14 103.01 118.29 102.62 118.44ZM122.45 119.62L122.06 116.55C125.11 116.67 128.51 116.99 132.41 117.53L132.75 121.21C129.35 120.41 125.89 119.87 122.45 119.62ZM133.43 117.67C137.18 118.2 141.12 118.87 144.58 119.48L144.98 125.29C143.95 124.89 142.9 124.48 141.83 124.06C139.21 123.03 136.51 122.16 133.79 121.48L133.43 117.67ZM156.65 129.42L156.36 121.54C160.2 122.17 163.51 122.66 166.67 123.05L167.64 132.42C164.12 131.63 160.51 130.65 156.65 129.42ZM178.36 124.14C181.65 124.35 184.88 124.47 187.96 124.49L189.03 134.74C185.91 134.78 182.87 134.66 179.77 134.36L178.36 124.14ZM190.68 140.89L190.14 135.73C194.85 135.62 199.16 135.07 202.99 134.1L203.578 138.967C199.929 140.015 195.483 140.66 190.68 140.893V140.89ZM202.76 123.84C206.23 123.46 208.68 123.01 210.15 122.68C210.151 122.68 210.151 122.68 210.151 122.68L210.882 129.799C210.881 129.8 210.881 129.8 210.88 129.801C210.82 129.841 210.75 129.891 210.66 129.941C209.89 130.461 207.72 131.731 203.85 132.841L202.76 123.84ZM206.934 91.6301C206.933 91.6311 206.931 91.6291 206.93 91.6301C206.88 91.6401 206.84 91.6601 206.8 91.6801C206.8 91.6801 206.76 91.7101 206.7 91.7701C206.2 92.1201 203.64 93.9301 199.35 95.7701L198.41 88.0801L198.409 88.0751C202.019 86.1291 204.835 84.2921 206.09 83.4401L206.934 91.6301ZM197.46 88.5801L198.39 96.1701C194.59 97.7101 190.55 98.8401 186.36 99.5101L185.72 93.4001V93.3971C189.891 92.2201 193.998 90.3901 197.46 88.5801ZM184.739 93.6571L184.74 93.6701L185.36 99.6701C182.55 100.08 179.63 100.29 176.68 100.29C176.13 100.29 175.6 100.28 175.07 100.27L174.28 94.4701L174.279 94.4661C175.083 94.5341 175.88 94.5971 176.66 94.6301C179.245 94.7531 182 94.3561 184.739 93.6571ZM173.24 94.3761L173.241 94.3801L174.051 100.24C170.561 100.14 167.561 99.8301 165.251 99.5401L164.621 93.3741C164.908 93.4091 165.194 93.4421 165.481 93.4801C168.175 93.8261 170.755 94.1541 173.24 94.3761ZM154.29 92.2561L154.5 98.1301C150.77 97.7701 147.52 97.7401 144.1 98.0501L143.68 92.0721C147.345 91.8881 150.876 91.9881 154.29 92.2561ZM129.62 94.3201C129.822 94.2651 130.021 94.2151 130.22 94.1621L130.83 100.62C129.95 100.86 129.06 101.12 128.13 101.41C125.38 102.27 122.79 103.11 120.43 103.93L119.7 98.2931C122.897 96.6601 126.238 95.2731 129.62 94.3201ZM99.7498 112.569L100.04 113.49C98.7298 114.35 97.4698 115.26 96.2698 116.14L96.2688 116.141C97.1758 115.11 98.3508 113.895 99.7498 112.569ZM94.0898 119.32C94.0938 119.22 94.1468 119.075 94.2228 118.91L95.2598 118.14C96.8598 116.94 98.5598 115.68 100.35 114.49L100.91 116.33C99.1998 117.29 97.5698 118.29 96.0698 119.32C95.8718 119.458 95.6738 119.587 95.4868 119.725C94.8118 119.699 94.3248 119.61 94.1298 119.43C94.0998 119.4 94.0898 119.38 94.0898 119.32ZM110.67 118.93C108.008 118.93 105.531 119.075 103.34 119.237C103.347 119.234 103.353 119.232 103.36 119.23C103.63 119.13 103.91 119.02 104.19 118.92C106.54 118.04 109.09 117.39 111.8 117L112.35 118.95L112.351 118.953C111.786 118.941 111.223 118.93 110.67 118.93ZM123.059 120.676C123.076 120.678 123.092 120.678 123.11 120.68H123.12C126.38 120.95 129.63 121.48 132.85 122.26L133.08 124.67V124.675C129.562 123.053 126.232 121.666 123.059 120.676ZM134.13 125.16L133.89 122.541C136.45 123.191 138.99 124.021 141.47 124.991C142.65 125.461 143.83 125.921 144.98 126.361L145.05 126.391L145.34 130.521V130.524C143.641 129.723 141.97 128.91 140.31 128.111C138.185 127.08 136.135 126.091 134.13 125.16ZM156.88 135.585L156.691 130.49C160.571 131.7 164.191 132.69 167.751 133.47L168.341 139.117C165.445 138.503 162.649 137.735 160.061 136.8C158.983 136.412 157.927 136.002 156.88 135.585ZM180.66 140.79L179.91 135.38C182.63 135.63 185.3 135.75 188.01 135.75C188.38 135.75 188.75 135.75 189.13 135.74L189.679 140.934C186.754 141.042 183.723 140.997 180.66 140.79ZM204.56 138.672V138.67L203.98 133.84C207.768 132.77 210.037 131.521 210.998 130.921L211.42 134.98C209.923 136.487 207.537 137.721 204.56 138.672Z" fill="#92E3A9"/>
<path d="M205.597 79.356L217.06 181.489" stroke="#263238" strokeWidth="3" stroke-miterlimit="10" strokeLinecap="round" stroke-linejoin="round"/>
<path d="M218.866 164.832C218.866 164.832 224.873 163.215 225.567 165.063C226.26 166.911 225.798 171.995 225.567 172.688C225.336 173.381 222.563 174.306 222.563 172.919C222.563 171.533 220.946 168.298 220.946 168.298L218.866 164.832Z" stroke="#263238" stroke-miterlimit="10" strokeLinecap="round" stroke-linejoin="round"/>
<path d="M232.267 220.748C232.267 220.748 235.502 216.589 233.422 210.812C231.343 205.035 222.562 195.1 219.327 189.324C216.092 183.547 218.172 184.01 218.172 184.01C218.172 184.01 221.176 182.624 221.407 181.006C221.638 179.388 222.562 169.222 222.562 167.604C222.562 165.987 214.706 162.752 211.471 162.29C208.236 161.828 209.392 164.832 210.316 171.763C211.24 178.695 212.627 198.104 213.782 204.804C214.937 211.505 216.555 218.668 222.562 222.133C228.57 225.6 232.267 220.748 232.267 220.748Z" fill="white" stroke="#263238" stroke-miterlimit="10" strokeLinecap="round" stroke-linejoin="round"/>
<path d="M210.084 168.067C210.084 168.067 211.701 166.681 212.857 166.681C214.013 166.681 221.868 169.685 221.868 169.685" stroke="#263238" stroke-miterlimit="10" strokeLinecap="round" stroke-linejoin="round"/>
<path d="M211.703 174.074C211.703 174.074 213.782 172.919 215.169 172.688C216.555 172.457 221.408 173.381 221.408 173.381" stroke="#263238" stroke-miterlimit="10" strokeLinecap="round" stroke-linejoin="round"/>
<path d="M214.475 177.078C214.475 177.078 215.168 176.154 217.017 176.154C218.866 176.154 221.176 177.078 221.176 177.078" stroke="#263238" stroke-miterlimit="10" strokeLinecap="round" stroke-linejoin="round"/>
<path d="M218.866 180.544L214.475 182.392" stroke="#263238" stroke-miterlimit="10" strokeLinecap="round" stroke-linejoin="round"/>
<path d="M217.271 182.074L226.168 262.587" stroke="#263238" strokeWidth="3" stroke-miterlimit="10" strokeLinecap="round" stroke-linejoin="round"/>
<path d="M233.884 226.063C233.884 226.063 230.88 222.135 227.876 218.669C224.872 215.203 220.713 218.9 220.713 218.9C220.713 218.9 216.092 219.593 216.092 221.211C216.092 222.829 217.709 225.601 217.709 225.601C217.709 225.601 217.016 229.991 218.864 231.609C220.712 233.226 221.868 233.688 223.023 233.688C224.178 233.688 277.784 234.612 282.174 234.381C286.564 234.15 297.193 235.998 300.89 230.915C304.587 225.832 302.276 218.207 294.42 217.514C286.566 216.82 254.68 226.294 233.884 226.063Z" fill="white" stroke="#263238" stroke-miterlimit="10" strokeLinecap="round" stroke-linejoin="round"/>
</svg>
