<svg width="32" height="32" viewBox="0 0 32 32" fill="none" xmlns="http://www.w3.org/2000/svg">
<rect width="32" height="32" rx="7" fill="#0C1E1E"/>
<path d="M4.12869 26.5613C4.03217 26.3732 4 26.2165 4 26.0285C4 25.9345 4 25.8091 4.03217 25.7151C13.7158 5.5018 13.0402 6.25392 14.2627 5.47046C15.067 4.96905 15.7426 5.00039 16.0322 5.00039C16.9973 5.00039 18.4129 5.43913 19.1528 6.91203C19.1528 7.06873 27.8713 25.4331 27.8713 25.7151C27.9678 25.8718 28 26.0285 28 26.1539C28 26.4359 27.807 27 27.1957 27H25.4584C24.2038 27 24.0751 26.8746 23.7534 26.5613C21.8231 24.3049 18.9598 23.3647 16.2252 23.3647C16.1287 23.3647 15.7105 23.3961 14.9383 23.3961C14.1662 23.4274 13.1046 23.7095 11.7212 24.2422C10.3378 24.775 9.14745 25.5584 8.18231 26.5613C7.98928 26.8746 7.82842 27 6.57373 27H4.9008C4.54692 27 4.28954 26.8433 4.12869 26.5613ZM10.6595 20.9517C11.4638 20.6696 12.3324 20.4189 13.2654 20.2622C14.1662 20.1055 14.874 20.0429 15.3566 20.0429C15.8713 20.0429 16.1609 20.0115 16.2252 20.0115C17.9303 20.0115 19.7319 20.2936 21.3727 20.795L21.0509 20.0742C20.5684 19.2281 20.504 19.0714 16 9.48179C13.2976 15.06 12.2359 17.4418 11.689 18.6326C11.1421 19.8235 11.1099 19.9488 10.6595 20.9517Z" fill="#70FE90"/>
</svg>
