<svg width="500" height="500" viewBox="0 0 500 500" fill="none" xmlns="http://www.w3.org/2000/svg">
<path d="M399.698 87.1331C398.171 84.1081 396.103 81.3741 393.422 79.3011C389.496 76.2651 383.588 73.307 376.463 74.807C363.281 77.582 362.587 90.071 355.649 92.1521C348.711 94.2331 345.242 84.52 334.141 87.295C323.04 90.07 325.121 99.09 319.571 100.477C314.02 101.865 306.389 97.008 299.451 99.089C292.513 101.17 291.125 108.108 287.656 108.802C284.187 109.496 284.187 109.496 284.187 109.496H434.634C434.634 109.496 431.968 99.0891 422.255 94.2321C412.542 89.3751 409.767 95.6201 404.91 92.8441C402.238 91.3201 400.617 88.9541 399.698 87.1331Z" stroke="#B5B5B5" stroke-miterlimit="10" stroke-linecap="round" stroke-linejoin="round"/>
<path d="M121.696 134.616C120.79 132.821 119.563 131.199 117.972 129.969C115.643 128.168 112.137 126.413 107.91 127.302C100.089 128.949 99.6772 136.358 95.5602 137.593C91.4432 138.828 89.3852 133.065 82.7992 134.711C76.2132 136.358 77.4472 141.709 74.1542 142.533C70.8612 143.356 66.3332 140.475 62.2162 141.71C58.0992 142.945 57.2762 147.062 55.2182 147.473C53.1602 147.885 53.1602 147.885 53.1602 147.885H142.424C142.424 147.885 140.842 141.71 135.079 138.829C129.316 135.947 127.669 139.652 124.788 138.006C123.203 137.1 122.241 135.696 121.696 134.616Z" stroke="#B5B5B5" stroke-miterlimit="10" stroke-linecap="round" stroke-linejoin="round"/>
<path d="M212.403 51.7841C211.497 49.9891 210.27 48.3671 208.679 47.1371C206.35 45.3361 202.844 43.5811 198.617 44.4701C190.796 46.1171 190.384 53.5261 186.267 54.7611C182.15 55.9961 180.092 50.2331 173.506 51.8791C166.919 53.5261 168.154 58.8771 164.861 59.7001C161.568 60.5231 157.04 57.6421 152.923 58.8771C148.806 60.1121 147.983 64.2281 145.925 64.6401C143.867 65.0521 143.867 65.0521 143.867 65.0521H233.131C233.131 65.0521 231.549 58.8771 225.786 55.9961C220.023 53.1141 218.376 56.8191 215.495 55.1731C213.91 54.2681 212.948 52.8641 212.403 51.7841Z" stroke="#B5B5B5" stroke-miterlimit="10" stroke-linecap="round" stroke-linejoin="round"/>
<path d="M165.015 260.512C199.713 248.379 226.318 234.187 224.439 228.813C222.56 223.44 192.909 228.919 158.211 241.053C123.513 253.186 96.908 267.378 98.7871 272.752C100.666 278.125 130.318 272.645 165.015 260.512Z" stroke="#E8E8E8" stroke-miterlimit="10" stroke-linecap="round" stroke-linejoin="round"/>
<path d="M176.861 262.996C172.823 264.553 174.763 271.542 170.434 273.056C167.255 274.168 164.33 278.816 161.252 279.813" stroke="#E8E8E8" stroke-miterlimit="10" stroke-linecap="round" stroke-linejoin="round"/>
<path d="M214.341 258.122C206.24 262.464 198.08 252.953 185.803 257.687" stroke="#E8E8E8" stroke-miterlimit="10" stroke-linecap="round" stroke-linejoin="round"/>
<path d="M191.221 335.45C225.918 323.316 252.523 309.124 250.644 303.751C248.765 298.377 219.114 303.857 184.416 315.99C149.718 328.123 123.113 342.315 124.992 347.689C126.871 353.063 156.523 347.583 191.221 335.45Z" stroke="#E8E8E8" stroke-miterlimit="10" stroke-linecap="round" stroke-linejoin="round"/>
<path d="M207.321 323.357C201.411 325.756 193.358 320.267 186.711 322.591C183.299 323.784 179.935 324.913 176.642 325.974" stroke="#E8E8E8" stroke-miterlimit="10" stroke-linecap="round" stroke-linejoin="round"/>
<path d="M230.143 304.206C223.509 307.745 235.84 325.084 226.323 328.947" stroke="#E8E8E8" stroke-miterlimit="10" stroke-linecap="round" stroke-linejoin="round"/>
<path d="M259.715 329.74C261.594 335.113 234.99 349.304 200.294 361.437C165.598 373.569 135.948 379.048 134.069 373.675C132.19 368.302 158.794 354.111 193.49 341.978C228.186 329.845 257.836 324.366 259.715 329.74Z" fill="#9E9E9E" stroke="#E8E8E8" stroke-miterlimit="10" stroke-linecap="round" stroke-linejoin="round"/>
<path d="M137.531 182.551C102.679 194.738 84.3051 232.87 96.4911 267.722L144.017 403.64L270.228 359.508L222.702 223.59C210.516 188.738 172.383 170.364 137.531 182.551Z" stroke="#E8E8E8" stroke-miterlimit="10" stroke-linecap="round" stroke-linejoin="round"/>
<path d="M137.531 182.551C107.067 193.203 91.0058 226.535 101.658 256.999L151.962 400.862L262.283 362.286L211.979 218.423C201.327 187.959 167.995 171.898 137.531 182.551Z" stroke="#E8E8E8" stroke-miterlimit="10" stroke-linecap="round" stroke-linejoin="round"/>
<path d="M213.89 257.28L203.146 226.555C194.503 201.837 162.249 173.907 137.53 182.55C112.812 191.193 104.99 233.136 113.633 257.854L162.366 397.223L251.879 365.923L230.594 305.05" stroke="#E8E8E8" stroke-miterlimit="10" stroke-linecap="round" stroke-linejoin="round"/>
<path d="M200.202 264.285L189.358 233.273C183.492 216.496 154.308 176.684 137.531 182.55C120.754 188.416 122.738 237.74 128.604 254.516L176.746 392.195L237.5 370.951L216.906 312.055" stroke="#E8E8E8" stroke-miterlimit="10" stroke-linecap="round" stroke-linejoin="round"/>
<path d="M272.228 282.134L275.524 291.559L230.594 305.051L213.89 257.28L224.698 256.819C237.091 256.29 249.098 252.351 259.396 245.436L259.019 260.202L263.369 266.723" stroke="#E8E8E8" stroke-miterlimit="10" stroke-linecap="round" stroke-linejoin="round"/>
<path d="M251.326 297.432L236.383 255.172" stroke="#E8E8E8" stroke-miterlimit="10" stroke-linecap="round" stroke-linejoin="round"/>
<path d="M196.435 319.214L217.029 378.11L197.217 385.038L143.461 231.304C141.548 225.833 132.06 184.464 137.531 182.551C143.002 180.638 161.36 218.905 163.273 224.376L166.109 232.485L167.919 240.361C167.919 240.361 167.919 244.553 171.831 247.906C175.743 251.259 181.053 251.818 182.171 254.613C183.289 257.408 183.009 261.04 184.965 262.438C186.921 263.835 186.921 263.835 186.921 263.835" stroke="#E8E8E8" stroke-miterlimit="10" stroke-linecap="round" stroke-linejoin="round"/>
<path d="M200.293 361.436C165.597 373.568 135.947 379.047 134.068 373.674L146.024 407.865C147.903 413.238 177.553 407.759 212.249 395.627C246.945 383.495 273.549 369.304 271.67 363.93L259.714 329.739C261.593 335.113 234.99 349.304 200.293 361.436Z" fill="#6A6A6A" stroke="#E8E8E8" stroke-miterlimit="10" stroke-linecap="round" stroke-linejoin="round"/>
<path d="M142.612 178.441C144.613 174.289 142.869 169.302 138.717 167.302C134.566 165.301 129.579 167.045 127.578 171.197C125.578 175.348 127.322 180.335 131.473 182.336C135.625 184.336 140.612 182.592 142.612 178.441Z" stroke="#E8E8E8" stroke-width="2" stroke-miterlimit="10" stroke-linecap="round" stroke-linejoin="round"/>
<path d="M266.359 271.465C266.359 271.465 268.885 263.888 275.199 263.572C281.514 263.256 283.724 258.205 285.618 256.626" stroke="#E8E8E8" stroke-miterlimit="10" stroke-linecap="round" stroke-linejoin="round"/>
<path d="M133.42 165.492C130.779 165.95 128.285 164.243 127.594 161.717C127.323 160.594 126.945 159.501 126.626 158.393C126.235 157.312 125.898 156.207 125.465 155.148C124.974 153.933 125.053 152.62 125.457 151.474C125.887 150.32 126.741 149.279 127.943 148.69C129.145 148.101 130.479 148.098 131.688 148.627C132.919 149.144 133.938 150.217 134.495 151.641C135.012 152.872 135.386 154.14 135.835 155.391C136.219 156.658 136.627 157.92 136.953 159.204C137.761 162.168 136.049 165.038 133.42 165.492Z" stroke="#E8E8E8" stroke-width="2" stroke-miterlimit="10" stroke-linejoin="round"/>
<path d="M132.164 160.7C132.844 163.178 133.401 165.691 133.76 168.25" stroke="#E8E8E8" stroke-width="2" stroke-miterlimit="10" stroke-linejoin="round"/>
<path d="M126.841 146.291L127.77 147.98L128.6 149.72C129.177 150.872 129.654 152.067 130.14 153.261" stroke="#E8E8E8" stroke-width="2" stroke-miterlimit="10" stroke-linejoin="round"/>
<path d="M125.694 143.687C124.556 144.391 123.224 144.55 122.031 144.3C120.867 144.016 119.68 143.463 118.942 142.434C117.579 140.701 116.095 139.099 114.477 137.689C114.251 137.48 114.054 137.248 113.881 137.001C113.688 136.782 113.523 136.543 113.383 136.289C113.103 135.78 112.924 135.206 112.844 134.599C112.695 133.38 112.894 132.044 113.606 130.935C113.968 130.376 114.441 129.908 114.986 129.572C115.524 129.249 116.139 129.056 116.8 129C117.46 128.944 118.165 129.027 118.869 129.249C119.574 129.468 120.286 129.819 120.854 130.383L122.39 131.81C122.903 132.287 123.424 132.757 123.865 133.29C124.764 134.339 125.756 135.336 126.567 136.443C127.49 137.72 127.97 139.163 127.743 140.506C127.545 141.842 126.831 142.984 125.694 143.687Z" stroke="#E8E8E8" stroke-width="2" stroke-miterlimit="10" stroke-linejoin="round"/>
<path d="M122.745 139.71C123.504 140.743 124.343 141.727 125 142.834C125.694 143.917 126.416 144.987 127.005 146.135" stroke="#E8E8E8" stroke-width="2" stroke-miterlimit="10" stroke-linejoin="round"/>
<path d="M111.407 129.477C113.658 130.714 115.784 132.179 117.751 133.849" stroke="#E8E8E8" stroke-width="2" stroke-miterlimit="10" stroke-linejoin="round"/>
<path d="M109.069 127.857C108.459 129.047 107.398 129.871 106.222 130.263C105.629 130.462 105.022 130.536 104.386 130.518C103.742 130.506 103.095 130.374 102.473 130.104C100.337 129.131 98.0673 128.301 95.8403 127.429C93.2403 126.495 91.8163 123.697 92.6713 121.158C93.5243 118.621 96.4393 117.354 99.1873 118.332C101.569 119.273 103.958 120.132 106.335 121.217C107.7 121.808 108.721 122.838 109.21 124.095C109.704 125.324 109.679 126.666 109.069 127.857Z" stroke="#E8E8E8" stroke-width="2" stroke-miterlimit="10" stroke-linejoin="round"/>
<path d="M104.522 125.894L106.298 126.647C106.884 126.911 107.454 127.207 108.034 127.486C109.179 128.071 110.374 128.568 111.465 129.257" stroke="#E8E8E8" stroke-width="2" stroke-miterlimit="10" stroke-linejoin="round"/>
<path d="M90.2051 120.197C92.6611 120.965 95.0801 121.836 97.5161 122.67" stroke="#E8E8E8" stroke-width="2" stroke-miterlimit="10" stroke-linejoin="round"/>
<path d="M87.6214 119.005C86.7994 121.545 83.9534 122.919 81.2714 122.063L74.1934 119.849C71.4724 118.998 69.9114 116.24 70.7134 113.681C71.5124 111.132 74.3514 109.746 77.0564 110.591L84.1654 112.814C86.8974 113.687 88.4484 116.454 87.6214 119.005Z" stroke="#E8E8E8" stroke-width="2" stroke-miterlimit="10" stroke-linejoin="round"/>
<path d="M82.8564 117.658C85.3144 118.416 87.7744 119.168 90.2184 119.971" stroke="#E8E8E8" stroke-width="2" stroke-miterlimit="10" stroke-linejoin="round"/>
<path d="M68.2334 112.754L75.6134 115.009" stroke="#E8E8E8" stroke-width="2" stroke-miterlimit="10" stroke-linejoin="round"/>
<path d="M65.6384 111.588C64.8194 114.136 61.9364 115.461 59.1954 114.543C56.8124 113.674 54.4244 112.889 52.0434 111.923C49.2884 110.888 47.9314 107.899 49.0144 105.45C50.1004 102.999 52.9524 101.92 55.5244 102.879C57.7384 103.775 60.0554 104.548 62.3284 105.371C64.9724 106.262 66.4584 109.038 65.6384 111.588Z" stroke="#E8E8E8" stroke-width="2" stroke-miterlimit="10" stroke-linejoin="round"/>
<path d="M60.8916 110.179C63.3426 110.965 65.7806 111.783 68.2426 112.529" stroke="#E8E8E8" stroke-width="2" stroke-miterlimit="10" stroke-linejoin="round"/>
<path d="M46.6396 104.276C49.0106 105.283 51.3636 106.317 53.7846 107.19" stroke="#E8E8E8" stroke-width="2" stroke-miterlimit="10" stroke-linejoin="round"/>
<path d="M44.2507 102.73C43.6467 103.924 42.5787 104.744 41.2977 105.08C40.0247 105.412 38.5537 105.126 37.2167 104.342C36.0217 103.679 34.9927 102.864 33.8877 102.115C32.7777 101.373 31.7487 100.543 30.7147 99.7161C30.1217 99.2411 29.6327 98.6911 29.2877 98.0851C28.9567 97.4641 28.7507 96.8051 28.6747 96.1521C28.5217 94.8431 28.8997 93.5581 29.8037 92.5721C30.7067 91.5861 31.9507 91.0711 33.1967 91.0031C34.4407 90.9431 35.6847 91.3321 36.7407 92.1291C37.6517 92.8391 38.5357 93.5891 39.4967 94.2161L40.9087 95.2001C41.3747 95.5391 41.8487 95.8561 42.3397 96.1231C43.4547 96.7671 44.1587 97.8441 44.5197 99.0381C44.8967 100.204 44.8537 101.536 44.2507 102.73Z" stroke="#E8E8E8" stroke-width="2" stroke-miterlimit="10" stroke-linejoin="round"/>
<path d="M39.8506 100.469C40.9776 101.096 42.0526 101.807 43.2156 102.36L46.6786 104.054" stroke="#E8E8E8" stroke-width="2" stroke-miterlimit="10" stroke-linejoin="round"/>
<path d="M27.9785 90.6492L29.3665 91.9902L30.8215 93.2592L32.2745 94.5262C32.7655 94.9402 33.2845 95.3202 33.7885 95.7192" stroke="#E8E8E8" stroke-width="2" stroke-miterlimit="10" stroke-linejoin="round"/>
<path d="M26.2123 88.4219C25.2453 89.3479 23.9763 89.7569 22.6783 89.6379C21.3843 89.5199 20.0403 88.8899 19.1013 87.7229C17.4033 85.7369 15.8253 83.6579 14.3003 81.5399C13.4543 80.3039 13.1053 78.8919 13.3193 77.5949C13.5343 76.2929 14.2453 75.1489 15.3763 74.4339C17.6493 73.0249 20.6293 73.7319 22.1843 75.9019C23.5543 77.8089 24.9713 79.6839 26.4963 81.4589C27.3383 82.5039 27.7533 83.7469 27.7163 84.9939C27.6733 86.2429 27.1793 87.4969 26.2123 88.4219Z" stroke="#E8E8E8" stroke-width="2" stroke-miterlimit="10" stroke-linejoin="round"/>
<path d="M22.7939 84.8459C23.6079 85.8439 24.5039 86.7699 25.3799 87.7109C26.2399 88.6669 27.1609 89.565 28.0899 90.452" stroke="#E8E8E8" stroke-width="2" stroke-miterlimit="10" stroke-linejoin="round"/>
<path d="M14.0996 72.113C15.4346 74.314 16.8516 76.463 18.3596 78.543" stroke="#E8E8E8" stroke-width="2" stroke-miterlimit="10" stroke-linejoin="round"/>
<path d="M12.9679 69.504C11.7919 70.155 10.4539 70.23 9.23993 69.779C8.03993 69.323 6.87493 68.391 6.26793 67.007C5.72593 65.81 5.14293 64.636 4.66793 63.399C4.16893 62.175 3.65993 60.956 3.24293 59.684C2.99393 58.96 2.87293 58.231 2.90293 57.525C2.94993 56.809 3.12293 56.131 3.40693 55.533C3.96993 54.335 4.98293 53.462 6.29193 53.13C7.57993 52.803 8.89793 53.05 9.99293 53.647C11.0769 54.251 11.9119 55.208 12.3759 56.444C12.7339 57.529 13.1659 58.601 13.6129 59.669C14.0259 60.745 14.5349 61.795 15.0229 62.85C15.5569 64.067 15.6719 65.366 15.2959 66.573C14.9279 67.774 14.1309 68.86 12.9679 69.504Z" stroke="#E8E8E8" stroke-width="2" stroke-miterlimit="10" stroke-linejoin="round"/>
<path d="M10.5752 65.1741C11.6982 67.4911 12.9382 69.7471 14.2582 71.9501" stroke="#E8E8E8" stroke-width="2" stroke-miterlimit="10" stroke-linejoin="round"/>
<path d="M5.83301 50.5161C6.39901 53.0311 7.05601 55.5211 7.96901 57.9231" stroke="#E8E8E8" stroke-width="2" stroke-miterlimit="10" stroke-linejoin="round"/>
<path d="M313.657 223.932C313.657 223.932 300.733 217.271 296.154 216.889C294.755 216.772 293.036 216.905 291.322 217.146C288.241 217.579 287.552 221.76 290.331 223.158C291.328 223.659 292.389 224.13 293.482 224.52C298.825 226.427 313.657 223.932 313.657 223.932Z" fill="white" stroke="#263238" stroke-miterlimit="10" stroke-linecap="round" stroke-linejoin="round"/>
<path d="M290.233 220.096C290.233 220.096 300.203 222.883 309.743 223.419" stroke="#263238" stroke-width="0.5" stroke-miterlimit="10" stroke-linecap="round" stroke-linejoin="round"/>
<path d="M208.409 307.694C208.409 307.694 195.485 301.033 190.906 300.651C189.507 300.534 187.788 300.667 186.075 300.908C182.994 301.34 182.305 305.522 185.084 306.92C186.081 307.421 187.142 307.892 188.235 308.282C193.577 310.19 208.409 307.694 208.409 307.694Z" fill="white" stroke="#263238" stroke-miterlimit="10" stroke-linecap="round" stroke-linejoin="round"/>
<path d="M184.985 303.858C184.985 303.858 194.954 306.645 204.495 307.181" stroke="#263238" stroke-width="0.5" stroke-miterlimit="10" stroke-linecap="round" stroke-linejoin="round"/>
<path d="M299.419 276.876C299.419 276.876 286.346 283.241 283.3 286.68C282.369 287.731 281.446 289.187 280.613 290.704C279.115 293.431 282.052 296.486 284.835 295.096C285.833 294.598 286.845 294.029 287.813 293.387C292.539 290.25 299.419 276.876 299.419 276.876Z" fill="white" stroke="#263238" stroke-miterlimit="10" stroke-linecap="round" stroke-linejoin="round"/>
<path d="M282.324 293.341C282.324 293.341 290.525 287.024 296.666 279.703" stroke="#263238" stroke-width="0.5" stroke-miterlimit="10" stroke-linecap="round" stroke-linejoin="round"/>
<path d="M195.728 321.404C195.728 321.404 182.655 327.769 179.609 331.208C178.678 332.259 177.755 333.715 176.922 335.232C175.424 337.959 178.361 341.014 181.145 339.624C182.143 339.126 183.155 338.557 184.123 337.915C188.848 334.778 195.728 321.404 195.728 321.404Z" fill="white" stroke="#263238" stroke-miterlimit="10" stroke-linecap="round" stroke-linejoin="round"/>
<path d="M178.633 337.869C178.633 337.869 186.834 331.552 192.975 324.231" stroke="#263238" stroke-width="0.5" stroke-miterlimit="10" stroke-linecap="round" stroke-linejoin="round"/>
<path d="M256.598 262.726C256.598 262.726 247.641 267.087 245.554 269.443C244.916 270.163 244.284 271.161 243.713 272.2C242.687 274.068 244.699 276.161 246.606 275.209C247.29 274.868 247.983 274.478 248.646 274.038C251.884 271.889 256.598 262.726 256.598 262.726Z" fill="white" stroke="#263238" stroke-miterlimit="10" stroke-linecap="round" stroke-linejoin="round"/>
<path d="M244.886 274.007C244.886 274.007 250.505 269.679 254.712 264.663" stroke="#263238" stroke-width="0.5" stroke-miterlimit="10" stroke-linecap="round" stroke-linejoin="round"/>
<path d="M201.409 281.106C201.409 281.106 196.412 272.488 193.911 270.577C193.147 269.993 192.106 269.435 191.028 268.941C189.09 268.053 187.148 270.211 188.236 272.044C188.626 272.701 189.065 273.365 189.551 273.994C191.929 277.068 201.409 281.106 201.409 281.106Z" fill="white" stroke="#263238" stroke-miterlimit="10" stroke-linecap="round" stroke-linejoin="round"/>
<path d="M189.312 270.241C189.312 270.241 194.035 275.532 199.343 279.365" stroke="#263238" stroke-width="0.5" stroke-miterlimit="10" stroke-linecap="round" stroke-linejoin="round"/>
<path d="M371.718 230.511C371.718 230.511 372.643 230.451 372.29 231.917C371.936 233.383 371.336 234.058 371.942 234.765C372.549 235.473 377.165 235.132 378.008 234.863C378.851 234.593 392.588 236.44 392.588 236.44C392.588 236.44 387.882 240.193 386.24 241.824C384.598 243.454 384.674 243.868 384.964 244.753C385.254 245.638 385.539 246.138 385.539 246.138C385.539 246.138 385.173 243.842 386.284 242.915C387.395 241.988 388.189 242.236 390.298 241.256C392.407 240.276 394.994 238.725 394.994 238.725C394.994 238.725 398.13 240.617 399.977 241.677C401.824 242.737 403.392 243.683 403.516 244.577C403.64 245.471 403.903 246.422 403.903 246.422C403.903 246.422 404.788 244.253 404.514 243.528C404.24 242.803 398.446 239.443 397.394 238.631C396.342 237.818 395.96 237.356 395.96 237.356C395.96 237.356 400.727 238.841 402.51 239.261C404.292 239.681 406.579 240.461 407.277 240.746C407.975 241.031 409.226 242.154 409.361 242.823C409.496 243.491 409.94 241.603 407.975 240.034C406.01 238.465 403.132 237.139 401.645 236.992C400.158 236.846 396.599 236.39 396.223 236.314C395.847 236.237 394.843 234.908 392.261 234.851C389.679 234.794 384.756 234.09 381.82 233.505C378.883 232.921 375.377 231.337 374.931 230.235C374.484 229.132 371.683 228.787 371.718 230.511Z" fill="#263238" stroke="#263238" stroke-miterlimit="10" stroke-linecap="round" stroke-linejoin="round"/>
<path d="M399.862 180.874C399.862 180.874 409.732 180.561 414.176 180.638C418.62 180.715 426.488 187.892 427.965 190.725C429.442 193.559 429.461 196.418 429.461 196.418C429.461 196.418 435.158 202.461 435.532 203.481C435.906 204.501 427.145 200.804 427.145 200.804C427.145 200.804 424.403 202.041 420.176 203.044C415.949 204.047 413.431 203.764 408.676 207.031C403.921 210.298 393.421 218.288 389.16 221.633C384.899 224.978 382.384 227.919 381.741 228.525C381.099 229.131 381.821 232.525 381.821 232.525C381.821 232.525 381.336 234.683 380.833 235.593C380.33 236.504 379.662 236.851 379.662 236.851L379.349 235.36L377.787 235.963L377.274 234.638L374.679 235.191C374.679 235.191 374.521 232.027 373.636 231.294C372.751 230.561 372.099 230.543 371.717 230.511C371.335 230.479 373.262 230.273 369.773 231.082C366.284 231.89 366.553 231.876 365.503 232.192C364.453 232.507 363.663 232.185 363.663 232.185L364.244 230.438C364.244 230.438 363.593 230.42 362.994 230.92C362.395 231.42 361.05 231.491 361.05 231.491L360.65 230.212L359.556 230.634L358.436 230.797C358.436 230.797 349.789 245.865 344.301 260.611C338.813 275.357 337.947 279.094 337.321 277.723C336.695 276.352 338.895 265.472 341.191 256.615C343.487 247.758 345.88 242.536 345.88 242.536C345.88 242.536 342.897 248.881 335.576 261.02C328.255 273.158 330.462 276.786 329.584 275.064C328.706 273.342 327.221 271.497 330.429 263.632C333.637 255.767 338.832 245.613 338.832 245.613C338.832 245.613 334.174 252.515 328.77 262.212C323.367 271.909 323.741 274.541 323.15 272.44C322.559 270.339 323.503 267.377 323.807 266.634C324.11 265.89 324.282 262.241 326.294 258.599C328.306 254.957 329.711 251.191 329.711 251.191C329.711 251.191 326.102 256.166 323.292 260.474C320.482 264.782 320.319 269.055 318.539 268.577C316.759 268.099 316.697 265.346 316.697 265.346C316.697 265.346 314.102 265.899 314.283 264.485C314.465 263.071 315.019 261.066 315.818 260.4C316.616 259.734 319.504 254.59 323.418 252.095C327.332 249.6 332.876 243.432 337.908 237.55C342.94 231.668 350.295 218.8 353.044 213.351C355.793 207.902 363.523 197.666 363.523 197.666C363.523 197.666 359.461 199.232 354.618 201.1C349.775 202.968 349.02 203.528 346.234 203.259C343.447 202.99 340.582 201.945 339.974 200.21C339.366 198.474 340.554 196.851 340.554 196.851C340.554 196.851 336.925 195.743 335.865 193.823C334.805 191.903 336.705 189.827 336.705 189.827C336.705 189.827 332.885 187.897 332.641 186.558C332.397 185.219 333.403 183.398 333.403 183.398C333.403 183.398 330.799 183.328 330.885 181.503C330.971 179.679 331.335 178.463 331.335 178.463C331.335 178.463 328.201 177.432 326.742 175.846C325.283 174.259 320.942 173.604 320.803 171.688C320.663 169.771 323.241 169.583 323.241 169.583C323.241 169.583 320.697 167.429 321 166.685C321.303 165.941 325.366 165.986 325.366 165.986C325.366 165.986 325.131 165.271 323.759 163.471C322.387 161.672 323.071 159.347 323.071 159.347C323.071 159.347 323.452 157.767 324.641 157.756C325.83 157.745 328.704 157.802 328.704 157.802C328.704 157.802 326.246 153.824 328.797 153.377C331.349 152.93 334.83 153.11 335.82 153.266C336.81 153.422 345.638 154.047 345.977 154.185C346.316 154.323 336.809 150.197 335.124 148.518C333.439 146.839 334.158 142.173 336.006 141.192C337.854 140.21 340.937 142.336 342.222 142.736C343.507 143.136 351.807 146.026 351.807 146.026C351.807 146.026 343.133 140.504 340.979 139.006C338.825 137.508 336.881 136.467 337.166 134.475C337.452 132.484 339.074 131.41 339.074 131.41C339.074 131.41 337.788 127.786 338.993 125.798C340.199 123.81 342.022 124.182 342.022 124.182C342.022 124.182 340.926 119.768 341.976 117.841C343.025 115.914 343.069 115.807 343.972 116.176C344.875 116.544 347.228 117.876 347.228 117.876C347.228 117.876 344.959 111.496 345.61 109.902C346.26 108.308 347.639 105.895 348.343 106.43C349.046 106.965 355.733 113.163 355.733 113.163C355.733 113.163 352.093 106.596 352.794 102.295C353.495 97.994 357.175 96.396 357.991 96.977C358.807 97.558 360.997 103.162 362.074 104.717C363.151 106.272 365.332 109.641 365.332 109.641C365.332 109.641 362.16 101.281 363.382 97.316C364.604 93.352 367.285 90.974 367.902 91.721C368.519 92.468 371.196 100.751 371.926 103.156C372.656 105.561 376.375 112.905 376.375 112.905C376.375 112.905 372.898 102.065 374.059 96.96C375.22 91.855 382.232 89.509 382.077 91.181C381.922 92.853 383.02 103.715 383.447 106.864C383.874 110.013 387.316 119.971 387.316 119.971C387.316 119.971 385.826 108.454 386.752 102.633C387.678 96.812 396.122 90.958 396.296 92.145C396.47 93.332 393.51 112.208 393.503 114.808C393.495 117.408 394.558 124.164 394.558 124.164C394.558 124.164 395.361 116.062 397.182 111.598C399.003 107.134 401.484 104.923 404.114 103.64C406.744 102.357 406.813 102.509 406.042 105.046C405.271 107.583 400.375 126.041 400.219 127.713C400.064 129.385 399.561 131.908 399.561 131.908L398.504 136.436C398.504 136.436 401.383 129.056 401.791 130.959C402.2 132.861 399.461 142.158 399.461 142.158C399.461 142.158 397.667 148.493 397.563 149.07C397.459 149.647 396.232 161.048 396.042 163.45C395.852 165.852 397.61 174.131 397.975 176.139C398.341 178.146 399.862 180.874 399.862 180.874Z" fill="white" stroke="#263238" stroke-miterlimit="10" stroke-linecap="round" stroke-linejoin="round"/>
<path d="M381.823 232.525C381.823 232.525 394.067 231.217 395.709 230.583C397.351 229.95 398.5 230.725 399.118 231.207C399.736 231.689 401.632 235.222 404.57 238.797C407.508 242.372 408.175 245.327 407.939 246.304C407.703 247.281 406.861 247.551 406.861 247.551C406.861 247.551 407.365 245.917 406.812 245.078C406.259 244.239 405.867 244.002 405.485 243.54C405.104 243.078 404.217 241.26 403.637 240.486C403.057 239.713 400.178 235.395 400.178 235.395C400.178 235.395 400.835 239.573 401.297 240.834C401.759 242.096 402.673 243.848 402.008 244.88C401.343 245.912 400.93 246.127 400.93 246.127C400.93 246.127 401.638 244.192 400.74 242.6C399.843 241.008 399.439 239.003 399.036 237.995C398.633 236.987 397.59 233.955 397.488 233.607C397.488 233.607 396.801 234.093 394.639 236.201C392.477 238.309 391.055 239.799 391.055 239.799C391.055 239.799 388.114 240.823 387.395 241.986C386.676 243.149 387.428 244.299 387.428 244.299C387.428 244.299 385.586 242.628 385.832 241.425C386.078 240.222 388.273 238.434 389.942 237.735C391.611 237.036 395.329 233.11 395.329 233.11L380.176 235.132L381.823 232.525Z" fill="#9C9C9C" stroke="#263238" stroke-miterlimit="10" stroke-linecap="round" stroke-linejoin="round"/>
<path d="M394.921 126.997L395.66 142.49" stroke="#263238" stroke-miterlimit="10" stroke-linecap="round" stroke-linejoin="round"/>
<path d="M387.948 121.846C387.948 121.846 391.451 138.331 392.118 141.994" stroke="#263238" stroke-miterlimit="10" stroke-linecap="round" stroke-linejoin="round"/>
<path d="M377.497 115.685C377.497 115.685 383.333 125.39 385.901 131.456C388.468 137.522 389.554 142.983 389.554 142.983" stroke="#263238" stroke-miterlimit="10" stroke-linecap="round" stroke-linejoin="round"/>
<path d="M368.217 114.07C368.217 114.07 372.807 119.062 376.143 123.949C379.479 128.836 387.177 138.216 387.455 143.891" stroke="#263238" stroke-miterlimit="10" stroke-linecap="round" stroke-linejoin="round"/>
<path d="M368.023 126.775C368.793 127.589 369.552 128.391 370.274 129.152C375.31 134.462 385.753 143.468 386.467 147.015" stroke="#263238" stroke-miterlimit="10" stroke-linecap="round" stroke-linejoin="round"/>
<path d="M358.407 116.579C358.407 116.579 362.333 120.753 366.427 125.085" stroke="#263238" stroke-miterlimit="10" stroke-linecap="round" stroke-linejoin="round"/>
<path d="M376.807 142.837C381.08 146.986 384.261 150.407 384.532 150.702" stroke="#263238" stroke-miterlimit="10" stroke-linecap="round" stroke-linejoin="round"/>
<path d="M349.65 120.74C349.65 120.74 362.999 130.39 370.211 136.723C371.806 138.123 373.376 139.567 374.859 140.97" stroke="#263238" stroke-miterlimit="10" stroke-linecap="round" stroke-linejoin="round"/>
<path d="M343.727 125.377C343.727 125.377 354.16 135.465 364.04 139.495C373.92 143.525 384.518 153.506 384.518 153.506" stroke="#263238" stroke-miterlimit="10" stroke-linecap="round" stroke-linejoin="round"/>
<path d="M361.087 143.484L364.84 145.654C364.84 145.654 381.883 154.369 383.356 156.055" stroke="#263238" stroke-miterlimit="10" stroke-linecap="round" stroke-linejoin="round"/>
<path d="M340.947 131.839L359.925 142.812" stroke="#263238" stroke-miterlimit="10" stroke-linecap="round" stroke-linejoin="round"/>
<path d="M355.391 147.632C355.391 147.632 377.809 154.47 380.992 157.261" stroke="#263238" stroke-miterlimit="10" stroke-linecap="round" stroke-linejoin="round"/>
<path d="M348.642 154.645C348.642 154.645 374.279 158.184 379.105 160.831" stroke="#263238" stroke-miterlimit="10" stroke-linecap="round" stroke-linejoin="round"/>
<path d="M334.186 155.124C334.186 155.124 331.746 156.163 332.316 158.295C332.887 160.427 338.739 162.678 344.324 163.464C349.909 164.25 380.322 165.261 380.835 165.063" stroke="#263238" stroke-miterlimit="10" stroke-linecap="round" stroke-linejoin="round"/>
<path d="M354.337 172.833C365.132 171.314 379.458 169.244 380.152 168.854" stroke="#263238" stroke-miterlimit="10" stroke-linecap="round" stroke-linejoin="round"/>
<path d="M338.349 162.189C338.349 162.189 333.231 163.822 333.717 166.869C334.203 169.916 342.421 174.488 342.421 174.488C342.421 174.488 346.454 173.937 351.883 173.177" stroke="#263238" stroke-miterlimit="10" stroke-linecap="round" stroke-linejoin="round"/>
<path d="M368.029 179.34C373.104 177.649 377.116 176.297 377.116 176.297" stroke="#263238" stroke-miterlimit="10" stroke-linecap="round" stroke-linejoin="round"/>
<path d="M342.42 174.489C342.42 174.489 337.834 176.552 337.901 179.564C337.969 182.576 344.534 186.61 347.715 185.873C349.503 185.459 358.569 182.485 366.167 179.96" stroke="#263238" stroke-miterlimit="10" stroke-linecap="round" stroke-linejoin="round"/>
<path d="M341.2 185.249C341.2 185.249 338.39 187.901 342.361 190.877C346.333 193.853 371.279 185.31 372.447 184.566" stroke="#263238" stroke-miterlimit="10" stroke-linecap="round" stroke-linejoin="round"/>
<path d="M351.451 191.194C351.451 191.194 344.879 193.532 345.413 196.463C345.946 199.393 351.123 200.827 352.994 199.419C354.864 198.012 369.932 187.202 369.932 187.202" stroke="#263238" stroke-miterlimit="10" stroke-linecap="round" stroke-linejoin="round"/>
<path d="M380.976 174.613C380.914 177.699 381.012 178.839 381.012 178.839C381.012 178.839 377.819 179.226 377.838 180.532C377.857 181.839 379.595 183.327 379.595 183.327C379.595 183.327 378.285 183.832 377.858 185.217C377.431 186.602 378.705 186.862 378.705 186.862" stroke="#263238" stroke-miterlimit="10" stroke-linecap="round" stroke-linejoin="round"/>
<path d="M393.694 143.349C393.694 143.349 382.381 151.466 381.541 163.335C381.29 166.875 381.142 169.683 381.058 171.88" stroke="#263238" stroke-miterlimit="10" stroke-linecap="round" stroke-linejoin="round"/>
<path d="M360.444 206.835C360.444 206.835 355.798 220.412 356.159 221.399C356.521 222.386 358.444 221.731 358.444 221.731C358.444 221.731 357.437 222.64 357.253 224.963C357.069 227.287 357.507 229.024 357.599 229.422" stroke="#263238" stroke-miterlimit="10" stroke-linecap="round" stroke-linejoin="round"/>
<path d="M331.74 247.54C331.74 247.54 340.846 234.583 343.322 231.635" stroke="#263238" stroke-miterlimit="10" stroke-linecap="round" stroke-linejoin="round"/>
<path d="M345.532 231.217C345.532 231.217 345.29 233.997 347.574 232.769C349.858 231.542 352.217 229.505 352.217 229.505C352.217 229.505 350.941 231.383 351.983 231.328C353.024 231.273 355.887 229.562 355.887 229.562" stroke="#263238" stroke-miterlimit="10" stroke-linecap="round" stroke-linejoin="round"/>
<path d="M338.833 245.611C338.833 245.611 344.432 234.846 346.002 233.808" stroke="#263238" stroke-miterlimit="10" stroke-linecap="round" stroke-linejoin="round"/>
<path d="M346.763 241.314C346.763 241.314 351.378 233.122 352.343 232.316" stroke="#263238" stroke-miterlimit="10" stroke-linecap="round" stroke-linejoin="round"/>
<path d="M404.342 180.751C404.463 180.748 404.586 180.745 404.71 180.742" stroke="#263238" stroke-miterlimit="10" stroke-linecap="round" stroke-linejoin="round"/>
<path d="M403.041 180.783C403.156 180.78 403.273 180.777 403.392 180.774" stroke="#263238" stroke-miterlimit="10" stroke-linecap="round" stroke-linejoin="round"/>
<path d="M405.028 180.734C405.157 180.731 405.288 180.728 405.419 180.725" stroke="#263238" stroke-miterlimit="10" stroke-linecap="round" stroke-linejoin="round"/>
<path d="M403.68 180.767C403.788 180.764 403.898 180.762 404.009 180.759" stroke="#263238" stroke-miterlimit="10" stroke-linecap="round" stroke-linejoin="round"/>
<path d="M405.713 180.719C405.852 180.716 405.994 180.713 406.135 180.71C405.994 180.713 405.853 180.716 405.713 180.719Z" stroke="#263238" stroke-miterlimit="10" stroke-linecap="round" stroke-linejoin="round"/>
<path d="M406.467 180.702C406.559 180.7 406.653 180.698 406.745 180.696C406.653 180.699 406.56 180.701 406.467 180.702Z" stroke="#263238" stroke-miterlimit="10" stroke-linecap="round" stroke-linejoin="round"/>
<path d="M411.468 205.376C411.235 205.491 410.997 205.616 410.754 205.749C410.997 205.616 411.236 205.491 411.468 205.376Z" fill="white" stroke="#263238" stroke-miterlimit="10" stroke-linecap="round" stroke-linejoin="round"/>
<path d="M408.284 204.962C408.284 204.962 407.544 205.116 407.671 204.803C407.799 204.49 408.831 202.907 408.831 202.907L406.719 202.866L407.771 201.473C407.771 201.473 404.51 200.69 404.261 200.588C404.012 200.486 404.975 198.601 404.975 198.601C404.975 198.601 403.08 198.739 402.792 197.073C402.504 195.406 402.81 193.709 402.81 193.709C402.81 193.709 401.342 192.563 401.143 191.389C400.945 190.215 402.232 186.821 402.232 186.821C402.232 186.821 400.765 186.86 400.719 186.022C400.674 185.183 402.191 182.887 402.191 182.887C402.191 182.887 401.068 182.793 400.289 182.567C399.51 182.34 402.164 181.054 402.164 181.054L402.914 180.788C401.11 180.835 399.86 180.875 399.86 180.875C399.86 180.875 398.34 178.147 397.974 176.139C397.609 174.13 395.851 165.851 396.041 163.45C396.231 161.048 397.458 149.647 397.562 149.07C397.562 149.07 395.017 146.43 394.117 150.949C393.217 155.468 391.851 161.13 391.851 161.13C390.749 165.567 389.893 164.773 389.272 166.297C388.651 167.82 387.578 168.716 387.672 169.642C387.766 170.569 388.326 170.353 387.876 172.612C387.426 174.872 386.057 174.758 385.669 175.71C385.281 176.662 386.012 177.183 386.152 178.572C386.293 179.962 386.914 178.439 384.862 181.155C382.811 183.872 388.612 184.683 388.612 184.683C388.612 184.683 383.876 186.278 381.234 187.583C380.067 188.16 379.309 188.679 379.548 188.981C380.326 189.965 382.348 190.789 382.348 190.789C382.348 190.789 372.52 192.333 367.314 199.315C362.107 206.297 366.399 205.605 366.399 205.605C366.399 205.605 357.648 214.917 359.39 215.85C361.132 216.783 369.357 212.808 369.357 212.808C369.357 212.808 364.181 219.137 364.82 221.618C365.459 224.1 367.543 223.617 367.543 223.617C367.543 223.617 365.896 226.499 366.752 227.292C367.608 228.085 373.377 226.663 373.377 226.663C373.377 226.663 374.344 232.388 377.78 230.902C381.216 229.416 385.505 222.948 385.505 222.948C385.505 222.948 388.563 221.293 390.791 220.363C395.399 216.791 403.458 210.686 407.909 207.565L408.284 204.962Z" fill="#27DEBF" stroke="#263238" stroke-miterlimit="10" stroke-linecap="round" stroke-linejoin="round"/>
<path d="M410.559 205.855C410.332 205.983 410.098 206.121 409.86 206.267C410.098 206.122 410.332 205.983 410.559 205.855Z" fill="white" stroke="#263238" stroke-miterlimit="10" stroke-linecap="round" stroke-linejoin="round"/>
<path d="M411.584 205.319C411.855 205.188 412.12 205.066 412.38 204.956" stroke="#263238" stroke-miterlimit="10" stroke-linecap="round" stroke-linejoin="round"/>
<path d="M408.676 207.031C408.488 207.16 408.284 207.303 408.076 207.448C408.281 207.305 408.488 207.161 408.676 207.031Z" stroke="#263238" stroke-miterlimit="10" stroke-linecap="round" stroke-linejoin="round"/>
<path d="M408.677 207.031C409.007 206.804 409.324 206.598 409.633 206.405C409.323 206.599 409.007 206.805 408.677 207.031Z" fill="white" stroke="#263238" stroke-miterlimit="10" stroke-linecap="round" stroke-linejoin="round"/>
<path d="M429.462 196.418C429.462 196.418 429.443 193.559 427.966 190.725C426.489 187.891 418.621 180.715 414.177 180.638C411.311 180.588 406.193 180.701 402.917 180.787L402.167 181.053C402.167 181.053 399.513 182.34 400.292 182.566C401.071 182.792 402.194 182.886 402.194 182.886C402.194 182.886 400.677 185.183 400.722 186.021C400.767 186.86 402.235 186.82 402.235 186.82C402.235 186.82 400.948 190.213 401.146 191.388C401.344 192.562 402.813 193.708 402.813 193.708C402.813 193.708 402.507 195.406 402.795 197.072C403.083 198.739 404.978 198.6 404.978 198.6C404.978 198.6 404.015 200.485 404.264 200.587C404.513 200.689 407.774 201.472 407.774 201.472L406.722 202.865L408.834 202.906C408.834 202.906 407.801 204.489 407.674 204.802C407.547 205.115 408.287 204.961 408.287 204.961L407.914 207.564C408.18 207.378 408.442 207.194 408.68 207.031C413.435 203.764 415.953 204.047 420.18 203.044C424.407 202.041 427.149 200.804 427.149 200.804C427.149 200.804 435.909 204.501 435.536 203.481C435.159 202.461 429.462 196.418 429.462 196.418Z" fill="#263238" stroke="#263238" stroke-miterlimit="10" stroke-linecap="round" stroke-linejoin="round"/>
<path d="M425.961 198.868C425.961 198.868 423.518 199.876 422.472 200.543C421.426 201.21 419.62 201.84 417.93 202.426C416.239 203.012 416.373 201.973 416.092 201.95C415.811 201.927 415.964 202.263 413.291 202.174C410.618 202.085 409.525 199.544 408.861 199.274C408.197 199.003 405.459 196.702 405.069 194.811C404.679 192.92 405.022 189.233 408.149 189.871C411.276 190.509 419.221 193.567 419.694 194.307C420.167 195.047 421.769 196.338 422.547 196.564C423.326 196.79 424.283 196.816 424.283 196.816C424.283 196.816 426.835 198.86 425.961 198.868Z" fill="white" stroke="#263238" stroke-miterlimit="10" stroke-linecap="round" stroke-linejoin="round"/>
<path d="M423.818 194.395C423.545 195.064 422.748 195.371 422.038 195.081C421.328 194.791 420.973 194.014 421.246 193.345C421.519 192.676 422.316 192.369 423.026 192.659C423.736 192.949 424.091 193.726 423.818 194.395Z" fill="white" stroke="#263238" stroke-miterlimit="10" stroke-linecap="round" stroke-linejoin="round"/>
</svg>
