<svg width="210" height="208" viewBox="0 0 210 208" fill="none" xmlns="http://www.w3.org/2000/svg">
<path d="M129.763 196.313C180.461 182.692 210.548 130.441 196.963 79.607C183.379 28.7729 131.268 -1.39428 80.5698 12.2266C29.8721 25.8476 -0.214584 78.098 13.3704 128.933C26.9547 179.767 79.0655 209.934 129.763 196.313Z" fill="url(#paint0_radial_131_1865)"/>
<path fillRule="evenodd" clip-rule="evenodd" d="M1.5792 102.374C0.92988 102.386 0.40625 102.917 0.40625 103.571C0.40625 104.168 0.84188 104.662 1.4114 104.752L5.7206 138.734C5.0517 138.961 4.5702 139.595 4.5702 140.342C4.5702 141.28 5.3283 142.039 6.263 142.039C6.495 142.039 6.7156 141.993 6.9168 141.908L22.128 164.373C21.991 164.552 21.9092 164.777 21.9092 165.02C21.9092 165.609 22.3851 166.086 22.9716 166.086C23.1338 166.086 23.2878 166.049 23.4248 165.984L41.3039 184.788C41.1121 185.062 40.9996 185.397 40.9996 185.758C40.9996 186.696 41.7577 187.455 42.6925 187.455C43.2205 187.455 43.6926 187.212 44.0025 186.832L75.0466 203.237C75.0309 203.314 75.0227 203.394 75.0227 203.476C75.0227 204.137 75.557 204.672 76.2158 204.672C76.7042 204.672 77.1242 204.378 77.309 203.957L93.6349 206.082C93.6969 206.964 94.4289 207.659 95.3239 207.659C96.1739 207.659 96.8789 207.029 96.9989 206.209L138.466 203.961C138.704 204.611 139.326 205.073 140.055 205.073C140.99 205.073 141.748 204.314 141.748 203.377C141.748 203.113 141.688 202.864 141.581 202.642L188.428 167.058C188.727 167.322 189.119 167.482 189.548 167.482C190.482 167.482 191.24 166.722 191.24 165.785C191.24 165.135 190.875 164.569 190.34 164.285L202.178 124.062L202.892 122.939C203.002 122.973 203.119 122.991 203.24 122.991C203.899 122.991 204.433 122.455 204.433 121.795C204.433 121.23 204.044 120.758 203.521 120.631L203.489 119.611L207.416 106.269C207.464 106.273 207.513 106.275 207.563 106.275C208.498 106.275 209.255 105.515 209.255 104.578C209.255 103.663 208.534 102.918 207.63 102.882L202.03 68.0392C202.431 67.8463 202.708 67.4353 202.708 66.9595C202.708 66.2989 202.174 65.7631 201.515 65.7631C201.391 65.7631 201.271 65.782 201.158 65.8173L186.718 44.178C187.022 43.8713 187.209 43.4492 187.209 42.9831C187.209 42.0458 186.451 41.286 185.517 41.286C185.216 41.286 184.933 41.3647 184.689 41.5026L168.209 22.314C168.329 22.1269 168.399 21.9039 168.399 21.6645C168.399 21.0037 167.865 20.468 167.206 20.468C166.865 20.468 166.558 20.6114 166.34 20.8415L134.368 4.45624C134.409 4.31054 134.431 4.15694 134.431 3.99824C134.431 3.06094 133.672 2.30114 132.738 2.30114C131.985 2.30114 131.348 2.79344 131.127 3.47444L112.66 1.34504C112.563 0.781437 112.073 0.352539 111.484 0.352539C110.917 0.352539 110.443 0.747838 110.321 1.27804L70.1371 3.58964C69.9473 2.86104 69.286 2.32344 68.4996 2.32344C67.5648 2.32344 66.8073 3.08324 66.8073 4.02054C66.8073 4.28594 66.8683 4.53704 66.9764 4.76064L19.5236 40.9608C19.2251 40.6981 18.8347 40.5387 18.4066 40.5387C17.4719 40.5387 16.7137 41.2985 16.7137 42.2358C16.7137 42.8976 17.0915 43.471 17.6428 43.7508L6.5937 84.046C6.5553 84.043 6.5164 84.042 6.4774 84.042C5.5426 84.042 4.7852 84.801 4.7852 85.739C4.7852 86.401 5.1636 86.975 5.7149 87.255L1.5792 102.374ZM2.773 103.791C2.7862 103.719 2.7931 103.646 2.7931 103.571C2.7931 103.285 2.6925 103.022 2.5259 102.817L6.0952 97.616L6.0644 105.47L2.773 103.791ZM2.4681 104.391L6.0613 106.224L6.0261 115.273L2.2946 104.544C2.3575 104.498 2.4153 104.447 2.4681 104.391ZM6.9275 87.375C6.8879 87.386 6.8477 87.396 6.8068 87.404L6.7754 95.437L9.21 91.89L6.9275 87.375ZM8.1696 85.716C8.1703 85.724 8.1702 85.731 8.1702 85.739C8.1702 86.279 7.9188 86.76 7.5266 87.071L9.6437 91.258L11.3793 88.729C11.2945 89.242 11.214 89.756 11.1373 90.27L9.9895 91.942L31.5811 134.652C31.7646 134.595 31.9595 134.565 32.1619 134.565C32.2355 134.565 32.3084 134.57 32.3807 134.577L48.6794 78.145C48.2425 77.9324 47.8955 77.5618 47.7126 77.108L8.1696 85.716ZM7.6372 84.503C7.8025 84.658 7.9358 84.847 8.0282 85.058L47.5705 76.4493C47.5692 76.4209 47.5686 76.3932 47.5686 76.3648C47.5686 75.6059 47.9942 74.9467 48.619 74.6145L36.8558 38.5865C36.791 38.5939 36.7257 38.5978 36.659 38.5978C36.4522 38.5978 36.2542 38.5606 36.0706 38.4925L7.6372 84.503ZM35.4999 38.1374L7.4191 83.577L18.2909 43.929C18.3286 43.9316 18.3676 43.9329 18.4066 43.9329C18.5047 43.9329 18.6008 43.9245 18.6945 43.9084L23.318 55.8421C23.4625 55.5968 23.6078 55.3521 23.7542 55.1081L19.3206 43.6643C19.7889 43.3625 20.0988 42.8355 20.0988 42.2358C20.0988 42.188 20.0969 42.1406 20.0932 42.0939L35.1604 37.6901C35.2484 37.8577 35.3635 38.0088 35.4999 38.1374ZM34.9725 37.0433L22.6812 40.6358L40.5546 32.3951L37.5743 35.4728C37.3103 35.3025 36.996 35.2037 36.659 35.2037C35.7243 35.2037 34.9668 35.9634 34.9668 36.9007C34.9668 36.9488 34.9687 36.9963 34.9725 37.0433ZM38.0558 35.9422L42.2461 31.6151L45.3697 30.1752C46.1171 29.5679 46.8753 28.9712 47.6428 28.3856L43.5436 30.2756L67.5856 5.44914C67.617 5.46924 67.6491 5.48834 67.6818 5.50644L63.6435 18.536C63.9176 18.4027 64.1936 18.2706 64.4695 18.1397L68.3223 5.70844C68.3808 5.71454 68.4399 5.71764 68.4996 5.71764C68.8208 5.71764 69.1213 5.62794 69.3771 5.47214L85.7085 23.5587C85.4457 23.895 85.2892 24.3188 85.2892 24.7793C85.2892 24.8215 85.2905 24.8633 85.293 24.9048L38.1954 36.1869C38.1551 36.1013 38.1086 36.0195 38.0558 35.9422ZM38.3506 36.8422L85.4483 25.5601C85.5432 25.7818 85.6777 25.9825 85.8424 26.1536L50.4232 74.5918C50.1585 74.4594 49.8593 74.3844 49.5431 74.3844C49.4463 74.3844 49.3507 74.3914 49.2577 74.4052L37.4945 38.377C38.0062 38.0852 38.3519 37.5334 38.3519 36.9007C38.3519 36.8811 38.3513 36.8617 38.3506 36.8422ZM50.965 74.9908L86.3836 26.5523C86.6489 26.6847 86.9475 26.7593 87.2637 26.7593C87.4554 26.7593 87.6409 26.7319 87.8163 26.6808L110.968 74.2325C110.463 74.5817 110.107 75.1326 110.015 75.7686L51.488 76.0194C51.4183 75.6236 51.2316 75.2681 50.965 74.9908ZM51.4905 76.6926L110.018 76.4424C110.095 76.946 110.338 77.3947 110.688 77.7313L80.215 121.081C79.9108 120.928 79.5676 120.842 79.2036 120.842C78.878 120.842 78.5687 120.91 78.2896 121.035L50.8714 77.8297C51.192 77.5372 51.4164 77.1401 51.4905 76.6926ZM50.305 78.191L77.7226 121.397C77.2474 121.812 76.9469 122.423 76.9469 123.104C76.9469 123.202 76.9532 123.298 76.9651 123.393L33.9415 135.686C33.7485 135.286 33.4248 134.96 33.0256 134.764L49.325 78.333C49.3966 78.34 49.4695 78.345 49.5431 78.345C49.8134 78.345 50.0705 78.29 50.305 78.191ZM34.1251 136.334L77.1487 124.041C77.4932 124.799 78.2425 125.333 79.1194 125.365L84.3828 172.353C84.0622 172.446 83.7749 172.619 83.5436 172.848L33.9415 137.403C34.0666 137.144 34.1364 136.852 34.1364 136.545C34.1364 136.474 34.1326 136.404 34.1251 136.334ZM33.5512 137.952L83.1532 173.397C83.0287 173.657 82.9583 173.948 82.9583 174.255C82.9583 174.316 82.9615 174.376 82.9665 174.435L49.1232 183.523L41.3548 177.904L32.8987 138.383C33.1445 138.283 33.3657 138.136 33.5512 137.952ZM32.2418 138.523L40.542 177.316L30.5571 170.093L27.1821 165.885L33.2941 166.648C33.0766 166.395 32.8597 166.143 32.6441 165.888L26.5767 165.13L24.1169 162.064L25.6294 156.472C25.4647 156.219 25.3012 155.966 25.1384 155.712L23.5964 161.415L20.9053 158.06L14.4451 139.484L30.2843 137.161C30.5426 137.953 31.2856 138.525 32.1619 138.525C32.1883 138.525 32.2147 138.525 32.2418 138.523ZM30.1875 136.494L14.22 138.836L6.6905 117.184L6.732 106.566L10.1969 108.333C10.1856 108.076 10.1755 107.819 10.1661 107.562L6.7345 105.811L6.771 96.632L9.5557 92.574L30.982 134.957C30.5118 135.309 30.2032 135.865 30.1875 136.494ZM85.222 176.214C85.1277 176.228 85.0315 176.235 84.9334 176.235C84.1382 176.235 83.4537 175.764 83.14 175.085L49.826 184.032L61.6131 192.559L73.746 197.253L72.5805 193.792C72.849 193.891 73.118 193.988 73.3877 194.084L74.5613 197.568L81.9745 200.437L87.346 197.892C87.722 197.964 88.0985 198.033 88.4757 198.102L82.8401 200.772L88.9886 203.151L94.0499 203.156L85.222 176.214ZM86.7828 174.951C86.6131 175.404 86.2824 175.779 85.86 176.004L94.7579 203.157L101.35 203.163L143.4 186.162C143.359 186.022 143.333 185.877 143.323 185.726L86.7828 174.951ZM86.6986 173.367C86.8325 173.634 86.9079 173.936 86.9079 174.255C86.9079 174.267 86.9079 174.277 86.9079 174.289L143.395 185.054C143.557 184.483 143.97 184.017 144.506 183.783L134.578 139.551C134.546 139.553 134.512 139.554 134.478 139.554C133.948 139.554 133.467 139.344 133.112 139.003L86.6986 173.367ZM85.0503 172.279C85.5344 172.307 85.9713 172.51 86.2994 172.826L132.713 138.462C132.579 138.194 132.504 137.893 132.504 137.574C132.504 137.517 132.506 137.461 132.511 137.406L81.2787 123.995C81.0084 124.627 80.4596 125.111 79.787 125.291L85.0503 172.279ZM80.7638 121.469C81.1932 121.881 81.4603 122.461 81.4603 123.104C81.4603 123.185 81.4559 123.264 81.4478 123.343L132.681 136.754C132.853 136.375 133.14 136.061 133.498 135.855L112.606 78.331C112.489 78.349 112.37 78.359 112.249 78.359C111.885 78.359 111.541 78.273 111.237 78.12L80.7638 121.469ZM114.283 77.0764C114.064 77.5315 113.698 77.9028 113.246 78.126L134.129 135.625C134.242 135.604 134.359 135.594 134.478 135.594C134.806 135.594 135.114 135.674 135.386 135.815L171.025 88.67C170.696 88.317 170.494 87.841 170.494 87.319C170.494 87.313 170.494 87.307 170.494 87.301L114.283 77.0764ZM113.926 74.5823C114.286 74.9838 114.505 75.5139 114.505 76.0963C114.505 76.2085 114.497 76.3194 114.481 76.4279L170.614 86.639C170.736 86.304 170.945 86.012 171.215 85.789L144.756 39.1685C144.546 39.2445 144.321 39.2859 144.085 39.2859C143.729 39.2859 143.395 39.1916 143.107 39.0268L113.926 74.5823ZM111.572 73.9369C111.785 73.8695 112.013 73.8335 112.249 73.8335C112.672 73.8335 113.069 73.9508 113.408 74.1544L142.589 38.5985C142.29 38.2516 142.11 37.7999 142.11 37.3059C142.11 37.2755 142.111 37.2453 142.112 37.2152L89.0923 25.527C88.9522 25.8725 88.7171 26.1691 88.4197 26.3848L111.572 73.9369ZM89.1741 24.2763C89.2162 24.4369 89.2382 24.6055 89.2382 24.7793C89.2382 24.8094 89.2376 24.8393 89.2363 24.8689L142.256 36.5572C142.428 36.1347 142.742 35.7852 143.138 35.5678L134.501 10.2152L126.369 7.27974L89.1741 24.2763ZM86.207 23.1065C86.5125 22.912 86.8746 22.7993 87.2637 22.7993C87.9413 22.7993 88.5392 23.1418 88.8949 23.6634L125.464 6.95304L118.228 4.34094L112.923 4.34274L114.896 9.45414C114.647 9.42834 114.397 9.40354 114.147 9.37974L112.203 4.34304L105.625 4.34524L92.4099 9.83104C91.4859 9.95764 90.5614 10.0982 89.6373 10.2529L103.867 4.34584L70.1591 4.35744C70.1107 4.59934 70.0108 4.82264 69.8712 5.01544L86.207 23.1065ZM143.774 35.3503L135.31 10.5074L146.406 14.5128L158.488 23.4373L156.324 23.9634C156.585 24.13 156.844 24.298 157.103 24.4672L159.194 23.9588L168.615 30.9171L169.161 33.807C169.439 34.0599 169.715 34.3145 169.99 34.5708L169.41 31.5042L180.372 39.6015L182.347 42.2088L146.058 37.2357C146.021 36.1748 145.152 35.326 144.085 35.326C143.979 35.326 143.875 35.3343 143.774 35.3503ZM145.968 37.9033L182.922 42.9675L184.542 45.1063L172.698 85.352C172.622 85.343 172.546 85.339 172.469 85.339C172.233 85.339 172.008 85.38 171.799 85.456L145.34 38.8347C145.631 38.5944 145.852 38.2722 145.968 37.9033ZM173.342 85.543L185.046 45.7723L187.154 48.5554L193.956 67.5582L192.929 67.6856C193.018 67.9005 193.106 68.1161 193.193 68.3316L194.188 68.2081L201.887 89.719L202.257 101.594L174.364 87.875C174.416 87.699 174.443 87.512 174.443 87.319C174.443 86.54 173.994 85.866 173.342 85.543ZM174.068 88.48L202.28 102.356L202.553 111.12L199.966 114.798L199.7 114.286C199.662 114.639 199.623 114.992 199.582 115.345L182.41 139.766C182.155 139.645 181.871 139.577 181.572 139.575L173.123 89.188C173.506 89.053 173.835 88.803 174.068 88.48ZM172.461 89.299L180.909 139.686C180.293 139.903 179.817 140.416 179.651 141.055L136.445 137.401C136.406 136.947 136.214 136.537 135.921 136.222L171.561 89.077C171.83 89.218 172.136 89.297 172.461 89.299ZM136.39 138.072L179.595 141.727C179.632 142.153 179.803 142.542 180.067 142.848L146.359 183.931C146.052 183.734 145.686 183.619 145.294 183.619C145.248 183.619 145.204 183.62 145.159 183.623L135.234 139.404C135.8 139.168 136.233 138.677 136.39 138.072ZM146.855 184.387L180.586 143.277C180.874 143.441 181.207 143.535 181.562 143.535C181.662 143.535 181.759 143.528 181.855 143.514L188.708 164.311C188.198 164.603 187.855 165.154 187.855 165.785C187.855 165.816 187.856 165.846 187.857 165.877L174.63 169.318C174.343 169.628 174.053 169.935 173.761 170.24L185.797 167.109L147.009 184.616C146.963 184.536 146.911 184.459 146.855 184.387ZM147.238 185.251L186.978 167.314L144.029 199.937L165.256 178.123C164.003 179.15 162.721 180.145 161.411 181.11L141.067 202.016C140.999 201.965 140.927 201.919 140.851 201.879L145.106 187.57C145.168 187.576 145.231 187.579 145.294 187.579C146.384 187.579 147.268 186.692 147.268 185.599C147.268 185.48 147.258 185.364 147.238 185.251ZM144.458 187.393L140.208 201.686C140.157 201.682 140.106 201.679 140.055 201.679C139.713 201.679 139.394 201.781 139.128 201.956L133.334 195.278C133.1 195.352 132.866 195.423 132.631 195.494L138.649 202.431C138.499 202.655 138.401 202.917 138.371 203.199L103.142 203.165L143.699 186.767C143.894 187.035 144.155 187.252 144.458 187.393ZM189.346 164.1L182.492 143.302C183.114 142.969 183.537 142.312 183.537 141.555C183.537 141.008 183.316 140.513 182.958 140.155L199.88 116.09L202.397 120.938L202.394 120.951C202.199 121.147 202.072 121.411 202.05 121.704L198.47 122.485C198.423 122.726 198.375 122.966 198.326 123.205L201.964 122.412L201.561 123.781L195.871 132.742C195.598 133.614 195.312 134.483 195.015 135.346L200.873 126.119L189.695 164.094C189.647 164.09 189.597 164.088 189.548 164.088C189.479 164.088 189.412 164.092 189.346 164.1ZM111.585 2.74134C111.552 2.74414 111.518 2.74554 111.484 2.74554C111.108 2.74554 110.773 2.57144 110.554 2.29934L107.249 3.67104L111.943 3.66944L111.585 2.74134ZM112.448 2.25424C112.381 2.34624 112.301 2.42824 112.211 2.49764L112.663 3.66924L116.364 3.66794L112.448 2.25424ZM131.089 4.38254C131.085 4.36724 131.082 4.35194 131.079 4.33654L120.209 4.34024L126.339 6.55304L131.089 4.38254ZM132.956 5.68134C132.885 5.69054 132.812 5.69534 132.738 5.69534C132.174 5.69534 131.676 5.41954 131.368 4.99524L127.244 6.87974L134.223 9.39894L132.956 5.68134ZM133.874 5.25634C133.788 5.33474 133.693 5.40434 133.592 5.46364L135.032 9.69114L144.51 13.1124L133.874 5.25634ZM166.014 21.6074C166.014 21.6022 166.015 21.5969 166.015 21.5916L148.621 15.3125L159.34 23.2301L166.014 21.6074ZM167.091 22.8554C166.698 22.8176 166.36 22.5886 166.172 22.2622L160.046 23.7515L168.431 29.9447L167.091 22.8554ZM183.918 42.4242C183.937 42.3706 183.958 42.3183 183.982 42.2674L182.287 41.0161L183.289 42.3379L183.918 42.4242ZM185.761 44.6626C185.681 44.6742 185.6 44.6802 185.517 44.6802C185.467 44.6802 185.418 44.678 185.37 44.6739L185.282 44.9702L186.399 46.444L185.761 44.6626ZM200.337 66.7659C200.369 66.5737 200.445 66.3972 200.556 66.2478L188.508 50.3418L194.639 67.4732L200.337 66.7659ZM201.216 68.1179C200.857 68.0253 200.564 67.7694 200.419 67.4341L194.872 68.123L201.82 87.535L201.216 68.1179ZM206.221 103.544C206.348 103.378 206.506 103.235 206.686 103.126L202.624 91.776L202.939 101.93L206.221 103.544ZM206.333 105.744C206.046 105.439 205.87 105.03 205.87 104.578C205.87 104.43 205.889 104.286 205.925 104.149L202.963 102.692L203.196 110.204L206.333 105.744ZM95.1249 204.276C95.1899 204.268 95.2569 204.265 95.3239 204.265C95.9139 204.265 96.4349 204.568 96.7369 205.028L99.6879 203.835L94.9789 203.83L95.1249 204.276ZM93.8959 205.049C94.0439 204.817 94.2469 204.623 94.4869 204.487L94.2709 203.83L90.7343 203.826L93.8959 205.049ZM76.1479 202.281C76.1705 202.28 76.1932 202.279 76.2158 202.279C76.5917 202.279 76.9268 202.453 77.1455 202.725L81.136 200.835L74.8404 198.398L76.1479 202.281ZM75.4439 202.563C75.4665 202.544 75.4904 202.525 75.5149 202.507L74.0251 198.083L63.7586 194.11L75.4439 202.563ZM44.3652 185.498C44.3784 185.583 44.3847 185.67 44.3847 185.758C44.3847 185.803 44.3834 185.847 44.3797 185.891L59.1445 191.603L48.9887 184.257L44.3652 185.498ZM42.6724 184.062C42.6793 184.061 42.6855 184.061 42.6925 184.061C43.2997 184.061 43.8322 184.382 44.1307 184.864L48.2852 183.748L41.5654 178.887L42.6724 184.062ZM41.9136 184.251C41.9469 184.234 41.9809 184.217 42.0154 184.202L40.7526 178.299L32.1443 172.072L41.9136 184.251ZM23.5581 164.131C23.7894 164.285 23.9573 164.528 24.0138 164.81L25.6187 165.011L23.8994 162.868L23.5581 164.131ZM7.9528 140.436C7.9326 140.812 7.7899 141.156 7.5643 141.427L19.6487 156.493L13.7681 139.583L7.9528 140.436ZM6.6056 138.68C7.1871 138.8 7.6598 139.219 7.8566 139.769L13.543 138.935L6.6823 119.207L6.6056 138.68ZM11.2033 147.039L21.8074 162.7L20.3088 158.391L11.2033 147.039ZM2.3373 106.713L6.0179 117.297L5.9475 135.183L2.3373 106.713ZM2.4499 101.739L6.0996 96.422L6.1317 88.278L2.4499 101.739ZM87.1179 203.149L82.0016 201.169L77.8433 203.14L87.1179 203.149ZM101.48 203.837L127.843 203.863L97.3239 205.517L101.48 203.837ZM81.4503 203.817L88.8635 203.824L92.5939 205.267L81.4503 203.817ZM61.29 193.156L71.8105 200.766L46.7992 187.549L61.29 193.156ZM37.4335 179.741L30.0906 170.586L25.7287 167.43L37.4335 179.741ZM24.2307 165.516L28.5034 168.607L26.2234 165.765L24.2307 165.516ZM22.9295 163.881L23.3789 162.219L21.5648 159.957L22.9295 163.881ZM200.315 115.471L202.672 120.007L202.814 119.523L202.588 112.239L200.315 115.471ZM203.231 111.324L203.422 117.458L206.664 106.441L203.231 111.324ZM169.226 30.5317L178.934 37.7022L167.803 23.0077L169.226 30.5317ZM80.2905 3.68034L105.492 3.67164L109.522 1.99884L80.2905 3.68034ZM118.345 3.66724L114.321 2.21464L126.894 3.66434L118.345 3.66724ZM162.346 19.5513L146.725 13.9122L136.26 6.18264L162.346 19.5513ZM180.849 39.1168L174.093 30.1982L183.322 40.9435L180.849 39.1168ZM194.997 57.7959L187.752 48.2304L186.754 45.443L194.997 57.7959ZM202.556 89.592L202.014 72.1758L206.654 101.044L202.556 89.592ZM65.139 7.00854L21.0374 40.6521L41.852 31.0556L65.139 7.00854Z" fill="url(#paint1_radial_131_1865)"/>
<defs>
<radialGradient id="paint0_radial_131_1865" cx="0" cy="0" r="1" gradientUnits="userSpaceOnUse" gradientTransform="translate(192.949 82.885) rotate(166.521) scale(191.987 192.447)">
<stop offset="0.260417" stop-color="#171717"/>
<stop offset="0.727754" stop-color="#0F0F0F"/>
<stop offset="1" stop-color="#B02424"/>
</radialGradient>
<radialGradient id="paint1_radial_131_1865" cx="0" cy="0" r="1" gradientUnits="userSpaceOnUse" gradientTransform="translate(4.6789 140.557) rotate(-18.5503) scale(114.912 192.812)">
<stop stop-color="#B02424"/>
<stop offset="0.520536" stop-color="white"/>
<stop offset="1" stop-color="#402121"/>
</radialGradient>
</defs>
</svg>
