<svg width="309" height="313" viewBox="0 0 309 313" fill="none" xmlns="http://www.w3.org/2000/svg">
<path d="M17.3807 193.806C37.6367 269.404 115.342 314.268 190.94 294.011C266.54 273.755 311.4 196.049 291.15 120.451C270.89 44.8533 193.18 -0.0104961 117.585 20.2467C41.9867 40.503 -2.87629 118.208 17.3807 193.806Z" fill="url(#paint0_radial_131_1889)"/>
<path fill-rule="evenodd" clip-rule="evenodd" d="M157.08 2.66463C157.06 1.69643 156.27 0.915527 155.3 0.915527C154.41 0.915527 153.68 1.56513 153.55 2.41443L103.009 8.84003C102.672 7.84263 101.729 7.12463 100.617 7.12463C99.2228 7.12463 98.0938 8.25503 98.0938 9.64893C98.0938 9.99483 98.1628 10.3238 98.2888 10.6237L64.8798 33.3059C64.6128 33.1016 64.2798 32.9797 63.9178 32.9797C63.0418 32.9797 62.3328 33.6893 62.3328 34.5638C62.3328 34.8057 62.3868 35.0353 62.4838 35.2397L34.5198 61.9C34.1118 61.6141 33.6138 61.4463 33.0768 61.4463C31.6828 61.4463 30.5528 62.5768 30.5528 63.9706C30.5528 64.758 30.9138 65.462 31.4788 65.9241L7.08282 112.215C6.96882 112.192 6.84884 112.18 6.72784 112.18C5.74484 112.18 4.94879 112.977 4.94879 113.959C4.94879 114.687 5.38584 115.313 6.01184 115.589L2.85181 139.934C1.54081 140.026 0.506836 141.118 0.506836 142.452C0.506836 143.72 1.44384 144.771 2.66284 144.949L6.0058 206.783C5.0398 207.138 4.35181 208.065 4.35181 209.152C4.35181 210.546 5.48179 211.677 6.87579 211.677C7.26779 211.677 7.63781 211.588 7.96881 211.428L60.8868 281.285C60.4938 281.73 60.2558 282.314 60.2558 282.954C60.2558 284.347 61.3868 285.477 62.7808 285.477C63.7468 285.477 64.5878 284.933 65.0118 284.135L124.83 301.788L126.5 302.851C126.45 303.016 126.42 303.19 126.42 303.371C126.42 304.354 127.22 305.15 128.2 305.15C129.04 305.15 129.74 304.57 129.93 303.789L131.45 303.742L151.29 309.598C151.28 309.67 151.28 309.743 151.28 309.817C151.28 311.211 152.41 312.341 153.8 312.341C155.16 312.341 156.27 311.265 156.33 309.918L208.14 301.566C208.43 302.165 209.04 302.578 209.75 302.578C210.73 302.578 211.53 301.782 211.53 300.799C211.53 300.614 211.5 300.435 211.45 300.267L243.63 278.735C244.08 279.187 244.71 279.467 245.41 279.467C246.8 279.467 247.93 278.337 247.93 276.943C247.93 276.494 247.81 276.073 247.61 275.708L276.14 251.134C276.42 251.314 276.75 251.419 277.11 251.419C278.09 251.419 278.89 250.622 278.89 249.639C278.89 249.131 278.68 248.672 278.33 248.348L302.7 200.672C302.92 200.733 303.15 200.766 303.38 200.766C304.78 200.766 305.91 199.635 305.91 198.241C305.91 197.119 305.17 196.169 304.16 195.84L307.33 168.302C308.17 168.158 308.8 167.428 308.8 166.548C308.8 165.704 308.22 164.997 307.43 164.814L303.99 104.895C305.07 104.612 305.87 103.626 305.87 102.453C305.87 101.059 304.74 99.93 303.35 99.93C302.95 99.93 302.58 100.02 302.25 100.182L248.41 29.4224C248.8 28.9772 249.04 28.3951 249.04 27.7568C249.04 26.3629 247.91 25.2325 246.52 25.2325C245.53 25.2325 244.68 25.7958 244.26 26.6179L184.34 10.1419C184.34 10.0847 184.34 10.0266 184.34 9.96853C184.34 8.57473 183.22 7.44523 181.82 7.44523C180.84 7.44523 179.98 8.00953 179.57 8.83153L157.08 2.66463ZM154.98 4.44473C155.08 4.46443 155.19 4.47473 155.3 4.47473C155.73 4.47473 156.12 4.32473 156.42 4.07633L164.16 9.39863L152.48 9.35273L154.98 4.44473ZM154.08 3.99013L151.36 9.34803L137.9 9.29553L153.86 3.73143C153.92 3.82513 154 3.91133 154.08 3.99013ZM179.39 10.6397C179.37 10.5806 179.36 10.5206 179.34 10.4597L167.4 10.4128L172.67 14.0432L179.39 10.6397ZM181.86 12.4919C181.84 12.4928 181.83 12.4928 181.82 12.4928C181.02 12.4928 180.3 12.1179 179.84 11.533L173.61 14.69L177.37 17.278C176.61 17.1515 175.85 17.0315 175.08 16.9171L172.6 15.2055L109.08 47.4019C109.164 47.6756 109.209 47.9662 109.209 48.268C109.209 48.3777 109.202 48.4864 109.191 48.5942L193.11 72.898C193.43 72.2466 193.98 71.7291 194.66 71.4564L181.86 12.4919ZM183.66 11.6979C183.43 11.9445 183.15 12.1432 182.83 12.281L195.64 71.2445C195.68 71.2426 195.72 71.2417 195.76 71.2417C196.89 71.2417 197.87 71.8763 198.36 72.808L251.94 55.2673C251.93 55.1707 251.93 55.0732 251.93 54.9739C251.93 54.6655 251.98 54.3702 252.08 54.0965L183.66 11.6979ZM252.61 53.2454L185.04 11.3727L244 27.5843C243.99 27.6405 243.99 27.6986 243.99 27.7568C243.99 27.903 244.01 28.0464 244.03 28.1861L226.28 35.0803C226.65 35.2959 227.01 35.5125 227.37 35.7309L244.39 29.1197C244.84 29.818 245.63 30.2801 246.52 30.2801C246.59 30.2801 246.66 30.2773 246.73 30.2717L253.28 52.7392C253.03 52.8704 252.8 53.042 252.61 53.2454ZM254.24 52.459L248.9 34.1308L261.15 60.7827L256.57 56.3387C256.83 55.945 256.97 55.4763 256.97 54.9739C256.97 53.58 255.84 52.4505 254.45 52.4505C254.38 52.4505 254.31 52.4533 254.24 52.459ZM255.88 57.0567L262.31 63.3051L264.45 67.9628C265.36 69.0773 266.24 70.2078 267.11 71.3523L264.3 65.2398L301.22 101.09C301.19 101.137 301.17 101.185 301.14 101.233L281.76 95.212C281.96 95.621 282.16 96.032 282.35 96.444L300.84 102.189C300.83 102.276 300.83 102.364 300.83 102.453C300.83 102.932 300.96 103.38 301.19 103.761L274.29 128.114C273.79 127.722 273.16 127.489 272.48 127.489C272.41 127.489 272.35 127.491 272.29 127.494L255.51 57.2648C255.64 57.2048 255.76 57.1354 255.88 57.0567ZM254.54 57.4963L271.32 127.726C270.99 127.867 270.69 128.068 270.43 128.314L198.4 75.4983C198.6 75.1036 198.71 74.6574 198.71 74.186C198.71 74.0416 198.7 73.8991 198.68 73.7604L252.26 56.2196C252.69 56.9826 253.51 57.4982 254.45 57.4982C254.48 57.4982 254.51 57.4972 254.54 57.4963ZM197.81 76.3063L269.84 129.121C269.64 129.516 269.53 129.962 269.53 130.433C269.53 130.719 269.57 130.995 269.65 131.257L198.93 165.78C198.41 165.027 197.59 164.496 196.65 164.359L196.28 77.0862C196.86 76.9821 197.39 76.7037 197.81 76.3063ZM195.27 77.0899L195.65 164.363C194.9 164.478 194.23 164.84 193.73 165.363L129.26 119.922C129.49 119.469 129.62 118.957 129.62 118.414C129.62 117.929 129.52 117.468 129.33 117.051L193.58 76.1666C194.02 76.6447 194.61 76.9793 195.27 77.0899ZM193.05 75.322L128.79 116.206C128.18 115.497 127.27 115.049 126.25 115.049C126.11 115.049 125.96 115.059 125.82 115.076L107.541 50.9217C108.138 50.6339 108.622 50.1512 108.913 49.5559L192.84 73.8607C192.82 73.9675 192.82 74.0763 192.82 74.186C192.82 74.589 192.9 74.9724 193.05 75.322ZM106.578 51.1954L124.86 115.35C123.73 115.864 122.94 116.981 122.89 118.289L53.0118 126.137C52.8738 125.659 52.6168 125.231 52.2758 124.886L104.988 50.9217C105.374 51.1082 105.807 51.2122 106.265 51.2122C106.37 51.2122 106.475 51.2066 106.578 51.1954ZM104.173 50.3396L51.4598 124.304C51.0738 124.118 50.6408 124.013 50.1838 124.013C50.0938 124.013 50.0048 124.018 49.9158 124.025L36.4008 73.5598L44.7568 61.9759L103.531 49.3666C103.679 49.7331 103.899 50.063 104.173 50.3396ZM103.322 48.3871L45.6318 60.7639L56.3738 45.8749L62.6318 40.8423L61.4968 49.9562C61.8718 49.6319 62.2478 49.3085 62.6268 48.987L63.7538 39.9396L68.3138 36.2717L76.6298 38.527C77.0058 38.2814 77.3828 38.0377 77.7608 37.7949L69.2788 35.4956L74.2688 31.4827L101.894 21.8495L105.348 45.4681C104.171 45.8534 103.32 46.9613 103.32 48.268C103.32 48.3074 103.32 48.3467 103.322 48.3871ZM106.34 45.3238L102.857 21.514L135.06 10.2863L150.85 10.3481L148.22 15.5149C148.6 15.498 148.98 15.483 149.37 15.4689L151.97 10.3519L165.62 10.4063L171.66 14.5587L108.626 46.5086C108.103 45.8074 107.276 45.3472 106.34 45.3238ZM47.2698 127.389C47.2498 127.248 47.2388 127.104 47.2388 126.958C47.2388 125.773 47.9398 124.752 48.9488 124.284L35.6438 74.6078L22.9638 92.184L15.9818 110.276L21.1298 108.538C20.9828 108.938 20.8388 109.34 20.6948 109.742L15.5128 111.492L11.2478 122.546L15.0328 130.556C14.9258 131.116 14.8218 131.678 14.7198 132.24L10.7498 123.837L7.21082 133.005L7.2038 140.553L47.2698 127.389ZM49.1498 129.716C48.4758 129.463 47.9178 128.97 47.5828 128.34L7.20282 141.607L7.19379 151.438L32.4768 214.141C32.6838 214.079 32.9008 214.041 33.1248 214.026L49.1498 129.716ZM51.5038 129.59C51.1068 129.79 50.6588 129.902 50.1838 129.902C50.1668 129.902 50.1508 129.902 50.1338 129.902L34.1238 214.133C34.9738 214.375 35.6668 214.99 36.0138 215.79L101.794 200.986C101.791 200.937 101.79 200.887 101.79 200.837C101.79 200.046 102.102 199.329 102.609 198.799L51.5038 129.59ZM53.1228 127.133C53.0808 127.854 52.7788 128.506 52.3088 128.995L103.414 198.204C103.812 198.005 104.26 197.893 104.734 197.893C104.818 197.893 104.902 197.897 104.984 197.903L124.93 121.508C123.99 121.105 123.27 120.287 123 119.284L53.1228 127.133ZM128.68 120.741C128.07 121.381 127.21 121.779 126.25 121.779C126.13 121.779 126.01 121.773 125.9 121.761L105.953 198.156C106.517 198.413 106.985 198.841 107.29 199.375L192.84 168.222C192.81 168.048 192.8 167.87 192.8 167.689C192.8 167.147 192.92 166.635 193.15 166.181L128.68 120.741ZM194.7 170.723C194.03 170.396 193.47 169.851 193.14 169.177L107.632 200.316C107.663 200.485 107.679 200.659 107.679 200.837C107.679 201.325 107.56 201.785 107.35 202.191L177.46 255.334C177.99 254.843 178.69 254.542 179.47 254.542C179.48 254.542 179.49 254.542 179.5 254.542L194.7 170.723ZM198.41 170.19C197.82 170.727 197.03 171.054 196.16 171.054C195.99 171.054 195.83 171.042 195.67 171.018L180.48 254.72C180.98 254.902 181.42 255.215 181.75 255.617L251.08 216.163C250.97 215.85 250.9 215.513 250.9 215.162C250.9 214.631 251.04 214.133 251.29 213.704L198.41 170.19ZM199.37 166.68C199.47 166.998 199.53 167.338 199.53 167.689C199.53 168.321 199.35 168.913 199.05 169.418L251.93 212.931C252.44 212.486 253.11 212.217 253.85 212.217C253.89 212.217 253.94 212.218 253.98 212.22L271.37 133.16C270.85 132.951 270.41 132.6 270.09 132.157L199.37 166.68ZM273.23 133.282C272.99 133.344 272.74 133.377 272.48 133.377C272.43 133.377 272.39 133.376 272.34 133.374L254.96 212.435C255.59 212.692 256.11 213.16 256.43 213.75L294.14 200.871L298.5 188.744L273.23 133.282ZM274.97 128.857C275.25 129.313 275.42 129.853 275.42 130.433C275.42 131.444 274.91 132.335 274.14 132.865L298.99 187.395L302.87 176.605V168.695L295.27 171.637C295.31 171.265 295.34 170.893 295.38 170.52L302.87 167.621V157.812L294.71 138.106C294.52 136.729 294.31 135.35 294.08 133.972L302.87 155.191L302.85 104.928C302.49 104.855 302.16 104.706 301.87 104.498L274.97 128.857ZM256.76 214.699L293.7 202.077L287.75 218.622L274.47 236.639L273.69 233.412C273.44 233.801 273.19 234.188 272.94 234.574L273.7 237.692L263.35 251.74L259.05 252.555C258.68 252.968 258.3 253.38 257.92 253.79L262.48 252.925L250.43 269.272L246.56 272.217L253.95 218.104C255.53 218.049 256.79 216.752 256.79 215.162C256.79 215.004 256.78 214.85 256.76 214.699ZM252.96 217.969L245.43 273.074L242.25 275.489L182.4 257.828C182.41 257.716 182.42 257.602 182.42 257.486C182.42 257.135 182.35 256.799 182.24 256.487L251.57 217.033C251.93 217.467 252.41 217.797 252.96 217.969ZM182.11 258.789L241.26 276.242L237.12 279.385L208.86 289.527L208.67 287.996C208.35 288.129 208.03 288.26 207.71 288.39L207.89 289.874L175.9 301.354L158.24 301.905L178.64 260.313C178.91 260.389 179.18 260.431 179.47 260.431C180.63 260.431 181.63 259.761 182.11 258.789ZM177.74 259.872L157.11 301.94L144.08 302.346L138.61 298.489L139.37 298.092C138.84 298.036 138.32 297.977 137.79 297.916L101.474 272.31C101.654 271.931 101.756 271.507 101.758 271.06L176.69 258.462C176.89 259.033 177.26 259.523 177.74 259.872ZM176.53 257.474L101.593 270.072C101.271 269.154 100.507 268.444 99.5568 268.197L104.992 203.77C105.667 203.712 106.277 203.425 106.745 202.988L176.86 256.132C176.65 256.534 176.53 256.991 176.53 257.474ZM103.993 203.688L98.5588 268.113C97.9238 268.167 97.3468 268.423 96.8908 268.816L35.7938 218.552C36.0878 218.095 36.2578 217.549 36.2578 216.964C36.2578 216.897 36.2558 216.83 36.2518 216.764L102.013 201.964C102.363 202.808 103.095 203.454 103.993 203.688ZM35.1158 219.293L96.2538 269.59C96.0088 270.019 95.8688 270.517 95.8688 271.046C95.8688 271.194 95.8798 271.34 95.9008 271.482L64.9718 281.702C64.5368 280.942 63.7188 280.43 62.7808 280.43C62.7348 280.43 62.6888 280.431 62.6438 280.433L57.5258 260.709C57.0658 260.281 56.6088 259.849 56.1548 259.414L60.8108 277.36L34.7748 219.521C34.8938 219.453 35.0088 219.376 35.1158 219.293ZM33.8308 219.864L60.5058 279.123L11.9908 215.078L44.4318 246.732C42.9048 244.863 41.4238 242.951 39.9888 240.997L8.8988 210.661C8.9738 210.56 9.04284 210.452 9.10284 210.34L30.3828 216.685C30.3728 216.777 30.3698 216.871 30.3698 216.964C30.3698 218.591 31.6878 219.909 33.3138 219.909C33.4898 219.909 33.6638 219.893 33.8308 219.864ZM30.6448 215.718L9.38983 209.38C9.39583 209.305 9.39984 209.229 9.39984 209.152C9.39984 208.642 9.24779 208.167 8.98779 207.771L18.9188 199.131C18.8098 198.782 18.7028 198.433 18.5978 198.082L8.2818 207.056C7.9488 206.832 7.55879 206.686 7.13879 206.642L7.1908 154.11L31.5768 214.587C31.1788 214.878 30.8558 215.267 30.6448 215.718ZM65.2858 282.653L96.2148 272.433C96.7108 273.36 97.6888 273.991 98.8138 273.991C99.6268 273.991 100.363 273.661 100.896 273.128L136.68 298.36L129.47 302.115L129.46 302.109C129.16 301.819 128.77 301.629 128.33 301.597L127.17 296.258C126.82 296.188 126.46 296.117 126.1 296.044L127.28 301.468L125.25 300.867L111.921 292.383C110.623 291.976 109.332 291.55 108.048 291.106L121.77 299.841L65.2948 283.174C65.3008 283.101 65.3038 283.028 65.3038 282.954C65.3038 282.852 65.2978 282.752 65.2858 282.653ZM305.25 166.699C305.25 166.65 305.24 166.599 305.24 166.548C305.24 165.988 305.5 165.488 305.91 165.162L303.87 160.234V167.234L305.25 166.699ZM305.98 167.986C305.84 167.886 305.72 167.767 305.61 167.633L303.87 168.307V173.825L305.98 167.986ZM302.81 195.783C302.83 195.777 302.86 195.772 302.88 195.768L302.87 179.56L299.58 188.7L302.81 195.783ZM300.88 198.567C300.87 198.461 300.86 198.352 300.86 198.241C300.86 197.402 301.27 196.658 301.9 196.199L299.1 190.05L295.35 200.456L300.88 198.567ZM301.51 199.935C301.39 199.807 301.29 199.666 301.2 199.515L294.92 201.663L289.83 215.795L301.51 199.935ZM277.19 247.862C277.2 247.862 277.21 247.863 277.22 247.863L286.56 221.926L274.78 237.91L277.19 247.862ZM275.34 249.467C275.39 248.881 275.74 248.378 276.22 248.097L274.01 238.963L264.8 251.466L275.34 249.467ZM246.24 274.559C246.32 274.587 246.39 274.618 246.47 274.654L248.33 272.127L246.37 273.62L246.24 274.559ZM242.91 277.308C242.89 277.188 242.88 277.067 242.88 276.943C242.88 276.869 242.88 276.796 242.89 276.724L242.45 276.594L240.26 278.258L242.91 277.308ZM210.04 299.043C210.32 299.089 210.59 299.203 210.81 299.368L234.46 281.403L208.99 290.546L210.04 299.043ZM208.03 300.353C208.16 299.818 208.54 299.381 209.04 299.165L208.02 290.893L179.15 301.253L208.03 300.353ZM155.34 307.816C155.59 308.006 155.8 308.241 155.96 308.509L172.84 302.452L157.74 302.922L155.34 307.816ZM152.07 307.983C152.52 307.555 153.13 307.293 153.8 307.293C154.02 307.293 154.24 307.321 154.44 307.375L156.61 302.958L145.44 303.306L152.07 307.983ZM5.53784 142.155C5.54884 142.252 5.55481 142.352 5.55481 142.452C5.55481 143.332 5.1028 144.108 4.4198 144.559L6.19379 148.96L6.20081 141.937L5.53784 142.155ZM4.38782 140.323C4.73282 140.543 5.02179 140.846 5.22479 141.203L6.20184 140.882L6.20679 135.608L4.38782 140.323ZM8.50482 113.858C8.50682 113.891 8.50781 113.925 8.50781 113.959C8.50781 114.52 8.24881 115.019 7.84381 115.345L10.6558 121.296L14.2788 111.908L8.50482 113.858ZM8.08484 112.808C8.11384 112.842 8.14185 112.877 8.16785 112.914L14.7478 110.692L20.6558 95.383L8.08484 112.808ZM33.4638 66.4649C33.3368 66.4846 33.2078 66.494 33.0768 66.494C33.0098 66.494 32.9448 66.4921 32.8798 66.4865L24.3848 88.503L35.3098 73.3592L33.4638 66.4649ZM35.5998 63.9406C35.6008 63.9509 35.6008 63.9603 35.6008 63.9706C35.6008 64.8761 35.1238 65.6701 34.4068 66.1153L36.0658 72.3103L43.2958 62.2899L35.5998 63.9406ZM35.3178 62.8092C35.3438 62.8589 35.3688 62.9095 35.3908 62.9611L44.1698 61.0779L53.4308 48.2418L35.3178 62.8092ZM65.2388 35.4384C65.0108 35.7833 64.6498 36.0336 64.2298 36.118L63.9318 38.5111L67.1188 35.9474L65.2388 35.4384ZM100.478 12.1685C99.9188 12.1385 99.4078 11.9257 99.0038 11.5892L76.5978 29.609L101.747 20.84L100.478 12.1685ZM103.09 10.1597C102.911 11.0268 102.288 11.7317 101.47 12.0251L102.71 20.5044L132.05 10.2741L103.09 10.1597ZM90.6578 17.0156L67.3678 32.8279L73.7758 30.5932L90.6578 17.0156ZM150.63 3.79513L134.89 9.28333L108.289 9.17833L150.63 3.79513ZM158.03 3.96293L165.93 9.40523L178.04 9.45303L158.03 3.96293ZM7.21381 130.216L10.1578 122.586L7.22784 116.386L7.21381 130.216ZM6.1908 151.631L6.15179 190.942L3.69183 145.435L6.1908 151.631ZM6.22083 121.764L6.20984 132.819L4.06384 138.382L6.22083 121.764ZM22.0758 91.702L10.7578 107.39L30.4138 70.0944L22.0758 91.702ZM42.0258 56.1287L55.6398 45.1794L60.3328 38.6751L42.0258 56.1287ZM63.1798 36.4414L58.5828 42.8126L62.8098 39.4128L63.1798 36.4414ZM65.6118 34.501L68.0828 35.1712L71.4468 32.466L65.6118 34.501ZM137.61 299.01L130.86 302.523L131.58 302.736L142.41 302.398L137.61 299.01ZM143.77 303.358L134.65 303.642L151.03 308.477L143.77 303.358ZM263.92 252.651L253.26 267.127L275.11 250.529L263.92 252.651ZM303.85 120.035L303.87 157.614L306.36 163.623L303.85 120.035ZM303.87 176.78L306.03 170.78L303.88 189.528L303.87 176.78ZM280.25 242.392L288.64 219.099L300.13 203.494L280.25 242.392ZM251.16 269.982L264.42 259.909L248.44 273.67L251.16 269.982ZM223.38 291.08L237.6 280.276L241.75 278.788L223.38 291.08ZM176.09 302.35L201.99 301.543L159.06 308.462L176.09 302.35ZM298.91 97.442L248.87 31.6796L263.14 62.7174L298.91 97.442Z" fill="url(#paint1_radial_131_1889)"/>
<defs>
<radialGradient id="paint0_radial_131_1889" cx="0" cy="0" r="1" gradientUnits="userSpaceOnUse" gradientTransform="translate(186.07 288.025) rotate(-103.445) scale(286.24 286.24)">
<stop offset="0.260417" stop-color="#171717"/>
<stop offset="0.727754" stop-color="#0F0F0F"/>
<stop offset="1" stop-color="#04875E"/>
</radialGradient>
<radialGradient id="paint1_radial_131_1889" cx="0" cy="0" r="1" gradientUnits="userSpaceOnUse" gradientTransform="translate(100.297 7.28684) rotate(71.496) scale(171.305 286.818)">
<stop stop-color="#03D19F"/>
<stop offset="0.520536" stop-color="#696969"/>
<stop offset="1" stop-color="#171717"/>
</radialGradient>
</defs>
</svg>
