<svg width="2310" height="1440" viewBox="0 0 2310 1440" fill="none" xmlns="http://www.w3.org/2000/svg">
<g clip-path="url(#clip0_2297_1755)">
<rect width="2310" height="1440" fill="url(#paint0_linear_2297_1755)"/>
<line x1="2315" y1="567" x2="5" y2="567" stroke="#CCCCCC" stroke-width="2"/>
<line x1="2315" y1="721" x2="5" y2="721" stroke="#CCCCCC" stroke-width="2"/>
<line x1="2305" y1="875" x2="-5" y2="875" stroke="#CCCCCC" stroke-width="2"/>
<line x1="2105.5" y1="-2.18557e-08" x2="2105.5" y2="1440" stroke="white"/>
<line x1="214.5" y1="-2.18557e-08" x2="214.5" y2="1440" stroke="white"/>
<line x1="1150.5" y1="-2.18557e-08" x2="1150.5" y2="1440" stroke="white"/>
<rect x="500" y="364" width="1309" height="713" rx="73" fill="url(#paint1_linear_2297_1755)" stroke="#313131" stroke-width="2"/>
<rect x="538.5" y="406.5" width="1233" height="627" rx="39.5" fill="url(#paint2_linear_2297_1755)" stroke="black"/>
<rect x="595" y="459" width="1120" height="523" rx="85" fill="black"/>
<g filter="url(#filter0_f_2297_1755)">
<rect x="668" y="548" width="983" height="396" rx="68" fill="#0077FF"/>
</g>
<g filter="url(#filter1_i_2297_1755)">
<rect x="648" y="516" width="1013" height="408" rx="68" fill="url(#paint3_linear_2297_1755)"/>
</g>
<g filter="url(#filter2_di_2297_1755)">
<rect x="713" y="581" width="883" height="278" rx="50" fill="url(#paint4_linear_2297_1755)"/>
<rect x="714.5" y="582.5" width="880" height="275" rx="48.5" stroke="#194EB2" stroke-width="3"/>
</g>
<g clip-path="url(#clip1_2297_1755)">
<path d="M1163.97 686.133C1163.95 686.892 1163.63 687.611 1163.08 688.138C1162.54 688.666 1161.81 688.96 1161.05 688.96H1130.92C1128.94 688.96 1127.29 687.36 1127.29 685.413C1127.29 676.629 1124.25 672.352 1118.03 672.352C1111.81 672.352 1107.79 676.171 1107.68 682.843C1107.54 690.283 1111.75 697.045 1123.74 708.661C1139.52 723.456 1145.84 736.56 1145.54 753.883C1145.04 781.893 1125.99 800 1096.99 800C1082.18 800 1070.87 796.043 1063.34 788.235C1055.7 780.304 1052.2 768.667 1052.93 753.648C1052.96 752.889 1053.28 752.169 1053.83 751.641C1054.37 751.114 1055.1 750.82 1055.86 750.821H1087.03C1087.46 750.828 1087.89 750.931 1088.28 751.123C1088.67 751.315 1089.01 751.591 1089.28 751.931C1089.52 752.212 1089.69 752.54 1089.79 752.893C1089.89 753.247 1089.91 753.617 1089.85 753.979C1089.5 759.397 1090.45 763.445 1092.58 765.685C1093.95 767.136 1095.85 767.872 1098.23 767.872C1103.98 767.872 1107.36 763.808 1107.49 756.725C1107.59 750.603 1105.65 745.237 1095.1 734.384C1081.46 721.072 1069.24 707.317 1069.62 685.691C1069.84 673.147 1074.83 661.675 1083.66 653.387C1093 644.629 1105.77 640 1120.59 640C1135.44 640.107 1146.7 644.341 1154.05 652.587C1161.01 660.4 1164.35 671.685 1163.98 686.133H1163.97Z" fill="url(#paint5_linear_2297_1755)"/>
<path d="M1257.37 794.731L1257.56 645.755C1257.57 645.382 1257.5 645.011 1257.36 644.665C1257.22 644.319 1257.01 644.004 1256.75 643.739C1256.49 643.475 1256.17 643.265 1255.83 643.123C1255.48 642.981 1255.11 642.909 1254.74 642.912H1208.11C1206.54 642.912 1205.85 644.261 1205.4 645.152L1137.89 793.819V793.845L1137.86 793.883C1137.11 795.712 1138.53 797.669 1140.51 797.669H1173.11C1174.87 797.669 1176.04 797.136 1176.61 796.027L1183.08 780.48C1183.88 778.405 1184.03 778.213 1186.29 778.213H1217.43C1219.6 778.213 1219.64 778.256 1219.61 780.373L1218.91 794.827C1218.9 795.199 1218.97 795.569 1219.11 795.915C1219.25 796.261 1219.46 796.575 1219.72 796.84C1219.98 797.105 1220.3 797.314 1220.64 797.457C1220.99 797.599 1221.36 797.672 1221.73 797.669H1254.66C1255.07 797.674 1255.47 797.59 1255.84 797.422C1256.21 797.255 1256.54 797.008 1256.81 796.699C1257.04 796.43 1257.21 796.115 1257.3 795.776C1257.4 795.436 1257.42 795.079 1257.37 794.731ZM1199.68 744.992C1199.43 744.993 1199.19 744.984 1198.94 744.965C1198.83 744.956 1198.72 744.922 1198.62 744.865C1198.52 744.808 1198.43 744.73 1198.37 744.636C1198.3 744.543 1198.25 744.436 1198.23 744.323C1198.21 744.211 1198.22 744.095 1198.25 743.984C1198.31 743.771 1198.4 743.477 1198.54 743.12L1221.89 685.371C1222.1 684.801 1222.34 684.244 1222.61 683.701C1222.99 682.923 1223.45 682.869 1223.6 683.445C1223.72 683.925 1220.92 742.741 1220.92 742.741C1220.7 744.944 1220.6 745.035 1218.42 745.216L1199.7 745.003H1199.66L1199.67 744.992L1199.68 744.992Z" fill="url(#paint6_linear_2297_1755)"/>
<path d="M1323.79 642.912H1299.04C1297.73 642.912 1296.26 643.605 1295.92 645.163L1261.47 794.656C1261.39 794.993 1261.4 795.343 1261.48 795.679C1261.56 796.014 1261.72 796.327 1261.94 796.592C1262.23 796.93 1262.58 797.201 1262.99 797.387C1263.39 797.573 1263.83 797.67 1264.27 797.669H1295.21C1296.88 797.669 1298.01 796.853 1298.32 795.44L1302.08 778.496C1302.35 777.173 1301.89 776.149 1300.7 775.531C1300.15 775.245 1299.59 774.957 1299.04 774.667L1293.67 771.877L1288.34 769.093L1286.27 768.021C1286.1 767.938 1285.96 767.808 1285.87 767.648C1285.77 767.487 1285.72 767.302 1285.72 767.115C1285.73 766.837 1285.85 766.573 1286.05 766.379C1286.24 766.186 1286.51 766.079 1286.79 766.08L1303.74 766.155C1308.81 766.181 1313.89 765.824 1318.88 764.907C1353.99 758.427 1377.31 730.32 1377.99 692.075C1378.56 659.435 1360.33 642.896 1323.82 642.896L1323.79 642.912ZM1315.37 731.872H1314.71C1313.22 731.872 1312.96 731.712 1312.91 731.659C1312.89 731.621 1322.69 688.603 1322.69 688.544C1322.95 687.301 1322.93 686.587 1322.17 686.165C1321.18 685.621 1306.87 678.08 1306.87 678.08C1306.71 677.993 1306.57 677.86 1306.47 677.698C1306.38 677.536 1306.33 677.351 1306.33 677.163C1306.34 676.889 1306.45 676.628 1306.65 676.437C1306.85 676.246 1307.11 676.139 1307.38 676.139H1330.02C1337.06 676.352 1340.99 682.651 1340.8 693.408C1340.48 712.027 1331.62 731.221 1315.37 731.877V731.872Z" fill="url(#paint7_linear_2297_1755)"/>
<path d="M1069.07 715.093V715.163L1063.33 740.048C1063.02 741.456 1061.61 742.485 1059.99 742.485H1053.06C1052.81 742.486 1052.56 742.568 1052.36 742.718C1052.16 742.868 1052.02 743.078 1051.95 743.317C1045.55 764.992 1036.9 779.888 1025.47 788.832C1015.74 796.448 1003.76 800 987.742 800C973.354 800 963.652 795.376 955.423 786.245C944.547 774.181 940.054 754.427 942.776 730.629C947.685 685.952 970.873 640.869 1015.52 640.869C1029.1 640.752 1039.76 644.939 1047.18 653.296C1055.02 662.139 1059.01 675.451 1059.03 692.88C1059.01 693.644 1058.69 694.37 1058.14 694.904C1057.6 695.438 1056.86 695.738 1056.1 695.739H1023.38C1022.81 695.721 1022.27 695.485 1021.86 695.078C1021.46 694.671 1021.23 694.125 1021.21 693.552C1020.95 681.499 1017.37 675.632 1010.26 675.632C997.721 675.632 990.324 692.645 986.402 702.075C980.921 715.248 978.13 729.557 978.68 743.808C978.942 750.443 980.009 759.771 986.311 763.637C991.899 767.061 999.872 764.789 1004.7 760.997C1009.53 757.2 1013.41 750.635 1015.04 744.645C1015.27 743.813 1015.29 743.168 1015.07 742.88C1014.84 742.581 1014.21 742.512 1013.72 742.512H1005.32C1004.88 742.513 1004.44 742.418 1004.03 742.232C1003.63 742.046 1003.27 741.774 1002.98 741.435C1002.76 741.17 1002.61 740.858 1002.52 740.524C1002.44 740.189 1002.44 739.84 1002.52 739.504L1008.26 714.576C1008.54 713.301 1009.7 712.336 1011.13 712.165V712.101H1066.25C1066.38 712.101 1066.51 712.101 1066.64 712.128C1068.07 712.315 1069.08 713.643 1069.05 715.093H1069.07Z" fill="url(#paint8_linear_2297_1755)"/>
</g>
</g>
<defs>
<filter id="filter0_f_2297_1755" x="620.6" y="500.6" width="1077.8" height="490.8" filterUnits="userSpaceOnUse" color-interpolation-filters="sRGB">
<feFlood flood-opacity="0" result="BackgroundImageFix"/>
<feBlend mode="normal" in="SourceGraphic" in2="BackgroundImageFix" result="shape"/>
<feGaussianBlur stdDeviation="23.7" result="effect1_foregroundBlur_2297_1755"/>
</filter>
<filter id="filter1_i_2297_1755" x="646" y="500" width="1015" height="424" filterUnits="userSpaceOnUse" color-interpolation-filters="sRGB">
<feFlood flood-opacity="0" result="BackgroundImageFix"/>
<feBlend mode="normal" in="SourceGraphic" in2="BackgroundImageFix" result="shape"/>
<feColorMatrix in="SourceAlpha" type="matrix" values="0 0 0 0 0 0 0 0 0 0 0 0 0 0 0 0 0 0 127 0" result="hardAlpha"/>
<feMorphology radius="8" operator="erode" in="SourceAlpha" result="effect1_innerShadow_2297_1755"/>
<feOffset dx="-2" dy="-16"/>
<feGaussianBlur stdDeviation="38.5"/>
<feComposite in2="hardAlpha" operator="arithmetic" k2="-1" k3="1"/>
<feColorMatrix type="matrix" values="0 0 0 0 0 0 0 0 0 0 0 0 0 0 0 0 0 0 0.25 0"/>
<feBlend mode="normal" in2="shape" result="effect1_innerShadow_2297_1755"/>
</filter>
<filter id="filter2_di_2297_1755" x="675" y="546" width="973" height="368" filterUnits="userSpaceOnUse" color-interpolation-filters="sRGB">
<feFlood flood-opacity="0" result="BackgroundImageFix"/>
<feColorMatrix in="SourceAlpha" type="matrix" values="0 0 0 0 0 0 0 0 0 0 0 0 0 0 0 0 0 0 127 0" result="hardAlpha"/>
<feOffset dx="7" dy="10"/>
<feGaussianBlur stdDeviation="22.5"/>
<feComposite in2="hardAlpha" operator="out"/>
<feColorMatrix type="matrix" values="0 0 0 0 0 0 0 0 0 0 0 0 0 0 0 0 0 0 0.25 0"/>
<feBlend mode="normal" in2="BackgroundImageFix" result="effect1_dropShadow_2297_1755"/>
<feBlend mode="normal" in="SourceGraphic" in2="effect1_dropShadow_2297_1755" result="shape"/>
<feColorMatrix in="SourceAlpha" type="matrix" values="0 0 0 0 0 0 0 0 0 0 0 0 0 0 0 0 0 0 127 0" result="hardAlpha"/>
<feMorphology radius="17" operator="erode" in="SourceAlpha" result="effect2_innerShadow_2297_1755"/>
<feOffset dx="1" dy="20"/>
<feGaussianBlur stdDeviation="27.2"/>
<feComposite in2="hardAlpha" operator="arithmetic" k2="-1" k3="1"/>
<feColorMatrix type="matrix" values="0 0 0 0 0 0 0 0 0 0 0 0 0 0 0 0 0 0 0.25 0"/>
<feBlend mode="normal" in2="shape" result="effect2_innerShadow_2297_1755"/>
</filter>
<linearGradient id="paint0_linear_2297_1755" x1="5.02182" y1="1.96121e-05" x2="2304.98" y2="1440" gradientUnits="userSpaceOnUse">
<stop stop-color="#1C1C1C"/>
<stop offset="1" stop-color="#1C1C1C"/>
</linearGradient>
<linearGradient id="paint1_linear_2297_1755" x1="511.181" y1="363" x2="1797.82" y2="1078" gradientUnits="userSpaceOnUse">
<stop stop-color="#464646"/>
<stop offset="1" stop-color="#171717"/>
</linearGradient>
<linearGradient id="paint2_linear_2297_1755" x1="557.246" y1="406" x2="1752.75" y2="1034" gradientUnits="userSpaceOnUse">
<stop stop-color="#1B1B1B"/>
<stop offset="1" stop-color="#242424"/>
</linearGradient>
<linearGradient id="paint3_linear_2297_1755" x1="1154.5" y1="516" x2="1154.5" y2="924" gradientUnits="userSpaceOnUse">
<stop stop-color="#1A51B8"/>
<stop offset="1" stop-color="#092161"/>
</linearGradient>
<linearGradient id="paint4_linear_2297_1755" x1="1154.5" y1="581" x2="1154.5" y2="859" gradientUnits="userSpaceOnUse">
<stop stop-color="#061E3D"/>
<stop offset="1" stop-color="#13469E"/>
</linearGradient>
<linearGradient id="paint5_linear_2297_1755" x1="1108.43" y1="640" x2="1108.43" y2="800" gradientUnits="userSpaceOnUse">
<stop stop-color="#FEFDFA"/>
<stop offset="1" stop-color="#6C95E4"/>
</linearGradient>
<linearGradient id="paint6_linear_2297_1755" x1="1197.61" y1="642.912" x2="1197.61" y2="797.67" gradientUnits="userSpaceOnUse">
<stop stop-color="#FEFDFA"/>
<stop offset="1" stop-color="#6C95E4"/>
</linearGradient>
<linearGradient id="paint7_linear_2297_1755" x1="1319.71" y1="642.896" x2="1319.71" y2="797.669" gradientUnits="userSpaceOnUse">
<stop stop-color="#FEFDFA"/>
<stop offset="1" stop-color="#6C95E4"/>
</linearGradient>
<linearGradient id="paint8_linear_2297_1755" x1="1005.53" y1="640.867" x2="1005.53" y2="800" gradientUnits="userSpaceOnUse">
<stop stop-color="#FEFDFA"/>
<stop offset="1" stop-color="#6C95E4"/>
</linearGradient>
<clipPath id="clip0_2297_1755">
<rect width="2310" height="1440" fill="white"/>
</clipPath>
<clipPath id="clip1_2297_1755">
<rect width="436" height="160" fill="white" transform="translate(942 640)"/>
</clipPath>
</defs>
</svg>
