<svg width="500" height="500" viewBox="0 0 500 500" fill="none" xmlns="http://www.w3.org/2000/svg">
<path d="M228 218.571C228 211.19 230.284 205.714 234.852 202.143C239.421 198.571 244.47 196.786 250 196.786C255.53 196.786 260.579 198.571 265.147 202.143C269.716 205.714 272 211.19 272 218.571V353.214C272 360.357 269.716 365.833 265.147 369.643C260.579 373.214 255.53 375 250 375C244.47 375 239.421 373.214 234.852 369.643C230.284 365.833 228 360.357 228 353.214V218.571ZM249.639 167.857C242.426 167.857 237.016 165.714 233.41 161.429C230.044 156.905 228.361 152.024 228.361 146.786C228.361 141.31 230.164 136.31 233.771 131.786C237.377 127.262 242.907 125 250.361 125C257.574 125 262.984 127.262 266.59 131.786C270.197 136.31 272 141.31 272 146.786C272 152.024 270.076 156.905 266.229 161.429C262.623 165.714 257.093 167.857 249.639 167.857Z" fill="#70FE90"/>
</svg>
