<?xml version="1.0" encoding="utf-8"?>
<!-- Generator: Adobe Illustrator 27.5.0, SVG Export Plug-In . SVG Version: 6.00 Build 0)  -->
<svg version="1.1" xmlns="http://www.w3.org/2000/svg" xmlns:xlink="http://www.w3.org/1999/xlink" x="0px" y="0px"
	 viewBox="0 0 500 500" style="enable-background:new 0 0 500 500;" xml:space="preserve">
<g id="Background_Simple">
	<g>
		<path style="fill:#92E3A9;" d="M474.489,209.506c-1.747-18.906-1.942-35.648-10.767-53.556
			c-7.086-14.379-14.962-28.928-25.768-41.517c-32.995-38.439-84.648-55.573-138.431-57.318
			c-88.18-2.861-174.029,46.201-203.509,119.005c-4.761,11.757-12.593,21.666-21.455,31.002c-0.922-0.486-1.449-1.792-1.45-4.049
			c-0.002-20.097-26.083,2.375-30.17,7.85C-9.942,281.745,1.438,398.197,89.57,443.477c36.192,18.595,76.301,27.526,117.924,30.429
			c37.858,2.64,78.868-2.335,107.429-26.032c24.732-20.519,33.17-50.99,53.843-73.54c-1.656,2.865-5.831,11.058-5.768,20.735
			c0.079,12.065,35.034,7.223,70.784-46.041C467.322,299.059,478.484,252.742,474.489,209.506z"/>
		<path style="opacity:0.7;fill:#FFFFFF;" d="M474.489,209.506c-1.747-18.906-1.942-35.648-10.767-53.556
			c-7.086-14.379-14.962-28.928-25.768-41.517c-32.995-38.439-84.648-55.573-138.431-57.318
			c-88.18-2.861-174.029,46.201-203.509,119.005c-4.761,11.757-12.593,21.666-21.455,31.002c-0.922-0.486-1.449-1.792-1.45-4.049
			c-0.002-20.097-26.083,2.375-30.17,7.85C-9.942,281.745,1.438,398.197,89.57,443.477c36.192,18.595,76.301,27.526,117.924,30.429
			c37.858,2.64,78.868-2.335,107.429-26.032c24.732-20.519,33.17-50.99,53.843-73.54c-1.656,2.865-5.831,11.058-5.768,20.735
			c0.079,12.065,35.034,7.223,70.784-46.041C467.322,299.059,478.484,252.742,474.489,209.506z"/>
	</g>
</g>
<g id="Brain">
	<g>
		<path style="fill:#92E3A9;stroke:#263238;stroke-linecap:round;stroke-linejoin:round;stroke-miterlimit:10;" d="M393.883,251.243
			c0-7.25-2.612-13.887-6.94-19.032c1.553-3.595,2.417-7.556,2.417-11.721c0-15.238-11.52-27.78-26.326-29.404
			c-1.16-15.279-13.916-27.317-29.492-27.317c-1.745,0-3.451,0.16-5.113,0.449c-4.319-12.744-19.485-22.157-37.533-22.157
			c-6.191,0-12.039,1.113-17.231,3.083c-6.913-8.114-18.889-13.485-32.516-13.485c-9.602,0-18.383,2.67-25.154,7.083
			c-4.631-3.045-10.17-4.822-16.126-4.822c-14.098,0-25.873,9.927-28.729,23.171c-4.291-4.258-10.198-6.89-16.721-6.89
			c-10.265,0-19.007,6.514-22.321,15.634c-2.61-1.038-5.453-1.614-8.432-1.614c-12.613,0-22.838,10.225-22.838,22.838
			c0,2.131,0.298,4.191,0.844,6.148c-2.525-0.904-5.244-1.4-8.08-1.4c-13.238,0-23.969,10.731-23.969,23.969
			c0,6.917,2.934,13.145,7.619,17.52c-5.763,4.853-9.428,12.118-9.428,20.242c0,14.611,11.845,26.456,26.456,26.456
			c2.454,0,4.827-0.341,7.082-0.966c-3.988,4.632-6.404,10.656-6.404,17.247c0,14.611,11.845,26.456,26.456,26.456
			c6.205,0,11.906-2.142,16.418-5.719c4.339,12.791,16.438,21.999,30.695,21.999c11.455,0,21.514-5.947,27.28-14.916
			c5.81,8.718,15.727,14.464,26.99,14.464c13.282,0,24.691-7.991,29.699-19.425c5.945,6.906,14.743,11.285,24.57,11.285
			c8.918,0,16.993-3.603,22.853-9.43c5.12,3.384,11.252,5.36,17.849,5.36c11.009,0,20.729-5.493,26.588-13.882
			c2.155,0.643,4.435,0.993,6.799,0.993c13.113,0,23.743-10.63,23.743-23.743c0-3.608-0.809-7.027-2.249-10.09
			C384.916,276.026,393.883,264.685,393.883,251.243z"/>
		<path style="fill:#263238;" d="M343.332,202.471c1.361,7.027-0.74,6.429-5.006,7.255c-4.267,0.826-9.084,2.764-10.444-4.263
			c-1.361-7.027,2.938-4.168,7.204-4.994C339.353,199.642,341.972,195.443,343.332,202.471z"/>
		<path style="fill:none;stroke:#263238;stroke-linecap:round;stroke-linejoin:round;stroke-miterlimit:10;" d="M331.166,214.886
			c0,0,7.213,5.694,18.222,1.518"/>
		<path style="fill:none;stroke:#263238;stroke-width:2;stroke-linecap:round;stroke-linejoin:round;stroke-miterlimit:10;" d="
			M321.903,248.953c0,0,9.175-13.522,18.351-8.21"/>
		<g>
			<path style="fill:#263238;" d="M293.153,210.148c1.361,7.027-0.995,13.394-5.262,14.22c-4.266,0.826-8.828-4.201-10.189-11.228
				c-1.361-7.027,0.995-13.394,5.261-14.22C287.23,198.094,291.792,203.121,293.153,210.148z"/>
			<ellipse style="fill:#FFFFFF;" cx="282.658" cy="207.843" rx="2.769" ry="3.801"/>
		</g>
		<g>
			<path style="fill:none;stroke:#263238;stroke-linecap:round;stroke-linejoin:round;stroke-miterlimit:10;" d="M215.997,138.742
				c0,0,4.325,1.439,8.045,7.64c0,0,20.846-7.283,32.863,3.1c8.75,7.56,6.821,15.502,6.821,15.502s10.157-5.343,22.283-0.579
				c12.126,4.764,11.693,21.654,11.693,21.654"/>
			<path style="fill:none;stroke:#263238;stroke-linecap:round;stroke-linejoin:round;stroke-miterlimit:10;" d="M299.911,320.99
				c0,0,4.119-3.471,5.979-9.672c0,0,14.262-2.48,18.602-16.742c3.117-10.24-1.86-14.261-1.86-14.261s9.921-3.72,7.441-19.222"/>
			<path style="fill:none;stroke:#263238;stroke-linecap:round;stroke-linejoin:round;stroke-miterlimit:10;" d="M98.488,209.444
				c0,0-0.433-16.457,14.724-19.921"/>
			<path style="fill:none;stroke:#263238;stroke-linecap:round;stroke-linejoin:round;stroke-miterlimit:10;" d="M124.906,176.097
				c0,0,4.764-12.559,17.756-9.528"/>
			<path style="fill:none;stroke:#263238;stroke-linecap:round;stroke-linejoin:round;stroke-miterlimit:10;" d="M94.591,268.342
				c0,0,3.032,13.858,18.622,14.724"/>
			<path style="fill:none;stroke:#263238;stroke-linecap:round;stroke-linejoin:round;stroke-miterlimit:10;" d="M157.152,311.701
				c-0.768-2.986-1.732-6.603-3.663-10.879c-6.063-13.425-21.221-15.591-25.118-9.528"/>
			<path style="fill:none;stroke:#263238;stroke-linecap:round;stroke-linejoin:round;stroke-miterlimit:10;" d="M137.824,317.013
				c0,0-5.556-10.128-18.981-10.128"/>
			<path style="fill:none;stroke:#263238;stroke-linecap:round;stroke-linejoin:round;stroke-miterlimit:10;" d="M207.19,320.311
				c-15.591,3.465-25.551-2.599-25.551-2.599s-3.898,6.063-14.725,4.764c-5.534-0.664-7.334-2.799-8.581-6.52"/>
			<path style="fill:none;stroke:#263238;stroke-linecap:round;stroke-linejoin:round;stroke-miterlimit:10;" d="M117.544,227.633
				c3.465,6.496,4.331,13.425-2.598,18.189"/>
			<path style="fill:none;stroke:#263238;stroke-linecap:round;stroke-linejoin:round;stroke-miterlimit:10;" d="M91.126,208.145
				c0,0-2.598,6.496,3.898,11.693c4.721,3.777,12.644,2.75,17.951,4.4"/>
			<path style="fill:none;stroke:#263238;stroke-linecap:round;stroke-linejoin:round;stroke-miterlimit:10;" d="M77.244,233.296
				c0,0,8.686,9.061,21.245,8.628"/>
			<path style="fill:none;stroke:#263238;stroke-linecap:round;stroke-linejoin:round;stroke-miterlimit:10;" d="M174.554,164.645
				c8.639,0.563,20.136,0.596,26.14-2.406c10.394-5.197,5.63-11.693-3.898-7.795c-9.528,3.898-12.126,5.197-12.126,5.197"/>
			<path style="fill:none;stroke:#263238;stroke-linecap:round;stroke-linejoin:round;stroke-miterlimit:10;" d="M163.449,163.538
				c0,0,2.656,0.386,6.622,0.753"/>
			<path style="fill:none;stroke:#263238;stroke-linecap:round;stroke-linejoin:round;stroke-miterlimit:10;" d="M353.136,186.924
				c0,0,9.095,2.165,12.126,13.858"/>
			<path style="fill:none;stroke:#263238;stroke-linecap:round;stroke-linejoin:round;stroke-miterlimit:10;" d="M271.185,309.647
				c1.504-0.855,3.005-1.805,4.49-2.86"/>
			<path style="fill:none;stroke:#263238;stroke-linecap:round;stroke-linejoin:round;stroke-miterlimit:10;" d="M239.11,317.17
				c0,0,12.401,1.154,26.138-4.607"/>
			<path style="fill:none;stroke:#263238;stroke-linecap:round;stroke-linejoin:round;stroke-miterlimit:10;" d="M137.704,269.137
				c-3.199,0.849-7.125,1.431-11.449,1.085c-11.285-0.903-19.411-4.514-24.377-13.091"/>
			<path style="fill:none;stroke:#263238;stroke-linecap:round;stroke-linejoin:round;stroke-miterlimit:10;" d="M206.568,233.354
				c2.49-1.327,5.105-2.609,7.825-3.799"/>
			<path style="fill:none;stroke:#263238;stroke-linecap:round;stroke-linejoin:round;stroke-miterlimit:10;" d="M179.956,252.095
				c0,0,7.942-7.597,20.237-15.098"/>
			<path style="fill:none;stroke:#263238;stroke-linecap:round;stroke-linejoin:round;stroke-miterlimit:10;" d="M218.775,209.519
				c-12.713,0-29.627,10.692-36.427,15.376c-2.673,1.842-6.274,1.959-8.884,0.028c-3.072-2.273-4.349-6.873,5.865-16.03"/>
			<path style="fill:none;stroke:#263238;stroke-linecap:round;stroke-linejoin:round;stroke-miterlimit:10;" d="M146.118,265.708
				c0,0-1.385,0.875-3.774,1.863"/>
			<path style="fill:none;stroke:#263238;stroke-linecap:round;stroke-linejoin:round;stroke-miterlimit:10;" d="M226.47,173.168
				c0,0-11.737-8.577-1.806-14.445c9.931-5.868,36.565,0.451,46.947,13.542"/>
		</g>
	</g>
</g>
<g id="Glasses">
	<g>
		<path style="fill:#263238;stroke:#263238;stroke-linecap:round;stroke-linejoin:round;stroke-miterlimit:10;" d="M142.545,231.505
			c0,0,12.248-18.665,15.27-22.552c3.023-3.886,11.227-6.477,19-8.204c7.773-1.727,21.591-3.023,21.591-3.023
			s23.318,0.432,26.341,1.727c3.023,1.296,6.477,3.886,6.477,3.886s6.477-9.932,16.409-9.932c9.932,0,48.795,0.864,49.659,4.75
			c0.864,3.886,5.182,28.932,5.182,28.932s0-28.932,2.159-29.363c2.159-0.432,6.045-3.023,8.204,1.295
			c2.159,4.318,5.614,18.136,5.614,18.136s3.023-23.318,12.954-24.613c9.932-1.296,30.735-7.954,30.735-7.954l-0.94-3.705
			l-38.987,12.322c0,0-8.512-2.39-14.99-2.39c-6.477,0-12.954,0.432-12.954,0.432s-41.454-6.045-51.386-4.75
			c-9.932,1.295-18.136,5.182-18.136,5.182s-55.704,4.75-58.295,5.182c-2.591,0.432-15.545,3.455-18.136,7.773
			C145.724,208.953,142.545,231.505,142.545,231.505z"/>
		<g>
			<path style="fill:#FFFFFF;stroke:#263238;stroke-linecap:round;stroke-linejoin:round;stroke-miterlimit:10;" d="
				M234.211,183.489c0,0-70.278,11.349-78.572,11.349c-8.294,0-22.262,26.627-24.008,31.865c-1.746,5.238,6.548,5.675,10.913,4.802
				s11.786-27.936,17.46-29.683c5.675-1.746,68.158-4.25,68.158-4.25L234.211,183.489z"/>
			<path style="fill:#FFFFFF;stroke:#263238;stroke-linecap:round;stroke-linejoin:round;stroke-miterlimit:10;" d="
				M364.337,175.568c-18.168,1.25-32.477,6.431-32.477,6.431s-7.579,1.906-12.448,4.65c-6.426,1.615-14.774,1.61-17.367,1.563
				c-6.181-2.483-16.065-3.644-16.065-3.644s-22.604-4.676-44.018-3.747c-21.414,0.929-20.819,8.096-19.952,9.253
				c1.165,1.554,6.152,7.5,6.152,7.5s1.606,37.158,13.384,43.196c11.778,6.038,55.141-0.929,64.242-3.716
				c8.204-2.512,3.867-30.518,1.689-41.947c2.948-1.278,5.79-1.377,7.883-1.148c-0.098,10.847,0.51,37.071,7.779,38.585
				c8.084,1.683,45.644,3.861,54.644-2.889c9-6.751,4.721-41.311,4.721-41.311s0,0,3.423-4.345
				C389.349,179.652,382.505,174.318,364.337,175.568z M299.364,230.086c-5.353,2.322-47.11,6.503-53.535,0.929
				c-6.424-5.574-10.707-34.371-9.101-38.087c1.606-3.716,4.818-1.393,14.454-1.858c9.636-0.465,48.181,4.18,48.181,4.18
				S304.717,227.763,299.364,230.086z M372.699,221.044c-4.564,5.793-40.349,6.037-45.208,4.415
				c-4.859-1.623-5.279-32.252-5.279-32.252s31.745-8.098,39.927-8.617c8.182-0.519,10.535-2.986,12.45,0.296
				C376.504,188.168,377.262,215.251,372.699,221.044z"/>
		</g>
	</g>
</g>
<g id="Hands">
	<g>
		<path style="fill:#C9C9C9;stroke:#263238;stroke-linecap:round;stroke-linejoin:round;stroke-miterlimit:10;" d="M149.531,435.804
			c0,0-5.216-11.234,0.401-19.259c5.617-8.025,9.63-13.241,16.049-11.636c6.42,1.605,8.025,6.821,4.815,12.438
			c-3.21,5.617-6.821,10.432-6.821,10.432s11.181,7.932,10.78,11.543c-0.401,3.611-7.623,8.025-11.235,7.623
			C159.91,446.545,150.334,437.81,149.531,435.804z"/>
		<path style="fill:#C9C9C9;stroke:#263238;stroke-linecap:round;stroke-linejoin:round;stroke-miterlimit:10;" d="M138.604,436.135
			c0,0-5.216-11.234,0.401-19.259c5.617-8.025,9.63-13.241,16.049-11.636c6.42,1.605,8.025,6.821,4.815,12.438
			c-3.21,5.617-6.821,10.432-6.821,10.432s11.181,7.932,10.78,11.543c-0.401,3.611-7.623,8.025-11.234,7.623
			C148.983,446.876,139.407,438.141,138.604,436.135z"/>
		<path style="fill:#C9C9C9;stroke:#263238;stroke-linecap:round;stroke-linejoin:round;stroke-miterlimit:10;" d="M127.655,440.981
			c0,0-3.82-19.201,8.359-30.467c6.129-5.669,10.9-7.249,14.512-2.033c3.611,5.216-3.611,13.642-5.617,19.259
			c-2.006,5.617,1.204,11.234,2.407,11.636c1.204,0.401,14.043,2.006,14.043,2.006s4.815,24.074-3.611,24.074
			S128.061,449.359,127.655,440.981z"/>
		<path style="fill:#C9C9C9;stroke:#263238;stroke-linecap:round;stroke-linejoin:round;stroke-miterlimit:10;" d="M191.173,329.753
			c-4.081,3.996-9.208,6.92-14.939,8.321v60.59l-3.469,3.735c0,0-4.469,6.703-8.938,16.386c-4.469,9.683-5.959,27.558-5.959,27.558
			l-22.344-7.448c0,0-3.724-14.151-4.469-20.11c-0.745-5.958-11.172-12.662-16.386-2.979c-5.214,9.683,2.234,26.813,14.151,39.475
			c11.917,12.662,26.069,18.621,40.965,19.365c14.896,0.745,39.447-8.769,43.171-23.666c3.724-14.896-21.526-52.464-21.526-52.464
			L191.173,329.753z"/>
		<path style="fill:#263238;stroke:#263238;stroke-linecap:round;stroke-linejoin:round;stroke-miterlimit:10;" d="M176.234,338.074
			v11.277c3.984-0.756,9.652-2.201,14.994-4.865l-0.055-14.734C187.091,333.749,181.964,336.673,176.234,338.074z"/>
	</g>
	<g>
		<g>
			<path style="fill:#C9C9C9;stroke:#263238;stroke-linecap:round;stroke-linejoin:round;stroke-miterlimit:10;" d="
				M374.813,287.919c0.045,0.594,0.076,1.193,0.076,1.799c0,9.577-5.673,17.823-13.839,21.578
				c16.096,8.751,40.808,23.017,42.172,28.813c2.032,8.634-16.253-2.031-16.253-2.031l8.634,24.379c0,0,39.108,13.205,46.726-13.713
				C448.339,327.509,396.833,299.009,374.813,287.919z"/>
			<path style="fill:#263238;stroke:#263238;stroke-linecap:round;stroke-linejoin:round;stroke-miterlimit:10;" d="
				M374.889,289.718c0,9.577-5.673,17.823-13.84,21.578c4.488,2.44,9.643,5.307,14.778,8.301c-0.094-1.769-0.023-6.726,2.77-14.165
				c2.129-5.671,5.118-9.568,7.169-11.785c-4.087-2.218-7.813-4.145-10.953-5.727C374.858,288.515,374.889,289.113,374.889,289.718z
				"/>
		</g>
		<g>
			<path style="fill:#C9C9C9;stroke:#263238;stroke-linecap:round;stroke-linejoin:round;stroke-miterlimit:10;" d="
				M375.057,314.864c0,0-35.246,6.064-44.72,4.927c-9.475-1.137-15.159-2.653-15.538,4.548c-0.379,7.201,5.306,9.854,10.612,11.749
				c5.306,1.895,17.433,3.79,20.465,3.411c3.032-0.379,33.351-0.758,35.625-9.854C383.773,320.549,379.983,313.727,375.057,314.864z
				"/>
			<path style="fill:#C9C9C9;stroke:#263238;stroke-linecap:round;stroke-linejoin:round;stroke-miterlimit:10;" d="M411.11,360.513
				c0,0-11.459,13.751-21.199,8.594c-9.74-5.156-9.167-12.032-9.167-12.032l-11.459,6.875c0,0,7.448,4.583,6.302,10.313
				c-1.146,5.729-12.605,4.583-18.907,1.146c-6.302-3.438-7.448-8.021-7.448-8.021s-3.438-0.573-6.875-4.011
				c-3.438-3.438-2.865-10.313-2.865-10.313s-5.156-5.729-5.729-9.74c-0.573-4.01-0.573-16.615,4.011-20.626
				c4.583-4.011,34.376-9.167,34.376-9.167s-14.323-6.302-18.907-6.302c-4.584,0-18.907,6.875-24.063,7.448
				c-5.156,0.573-9.167-5.729-5.729-13.75c3.438-8.021,31.512-17.188,40.264-12.225c8.753,4.963,19.321,13.371,19.321,13.371
				l28.647,35.522c0,0,8.807,2.006,18.457-2.565"/>
			<path style="fill:none;stroke:#263238;stroke-linecap:round;stroke-linejoin:round;stroke-miterlimit:10;" d="M339.493,353.065
				c0,0,4.305-19.05,6.845-21.082c2.539-2.032,30.981-8.126,30.981-8.126"/>
			<path style="fill:none;stroke:#263238;stroke-linecap:round;stroke-linejoin:round;stroke-miterlimit:10;" d="M349.233,367.388
				c0,0,3.199-19.153,6.755-21.692c3.555-2.54,24.887-7.618,24.887-7.618"/>
		</g>
	</g>
</g>
<g id="Eyesbrows">
	<g>
		<path style="fill:#263238;" d="M236.198,171.59c0,0,12.603-18.004,41.063-21.47c5.674-0.691,11.432,0.285,16.588,2.751l9.95,4.758
			l-9.552,16.166c0,0-0.735-6.613-20.574-7.348c-19.84-0.735-30.862,12.492-34.536,11.022S231.789,175.264,236.198,171.59z"/>
		<path style="fill:#263238;" d="M319.781,166.947c0,0,22.803,7.356,33.102-5.885c10.298-13.241,11.034-19.126,13.976-14.712
			c2.942,4.414,0,24.275-13.976,33.838c-13.976,9.563-32.366,3.678-32.366,3.678L319.781,166.947z"/>
	</g>
</g>
<g id="Speech_Bubble">
	<g>
		<path style="fill:#263238;stroke:#263238;stroke-linecap:round;stroke-linejoin:round;stroke-miterlimit:10;" d="M367.145,129.579
			h69.781c3.881,0,7.026-3.146,7.026-7.026V40.321c0-3.88-3.146-7.026-7.026-7.026h-69.781c-3.881,0-7.026,3.146-7.026,7.026v82.232
			C360.118,126.434,363.264,129.579,367.145,129.579z"/>
		<path style="fill:#263238;stroke:#263238;stroke-linecap:round;stroke-linejoin:round;stroke-miterlimit:10;" d="M344.364,129.185
			h10.49c1.458,0,2.641-1.182,2.641-2.641v-16.3c0-1.458-1.182-2.641-2.641-2.641h-10.49c-1.458,0-2.641,1.182-2.641,2.641v16.3
			C341.723,128.003,342.905,129.185,344.364,129.185z"/>
		<path style="fill:#263238;stroke:#263238;stroke-linecap:round;stroke-linejoin:round;stroke-miterlimit:10;" d="M331.273,135.929
			h5.444c1.458,0,2.641-1.182,2.641-2.641v-9.395c0-1.458-1.182-2.641-2.641-2.641h-5.444c-1.458,0-2.641,1.182-2.641,2.641v9.395
			C328.632,134.747,329.815,135.929,331.273,135.929z"/>
	</g>
</g>
<g id="Question_Marks_2">
	<g>
		<path style="fill:none;stroke:#263238;stroke-linecap:round;stroke-linejoin:round;stroke-miterlimit:10;" d="M148.405,47.098
			c-1.211,0.938-1.958,2.38-2.243,4.326c-0.182,1.247-0.21,2.376-0.078,3.39c0.129,1.014,0.309,2.094,0.541,3.241l-17.756,1.46
			c-0.351-1.96-0.572-3.842-0.666-5.646c-0.094-1.804,0.002-3.678,0.287-5.627c1.002-6.852,3.868-11.903,8.599-15.149
			c4.731-3.246,10.99-4.3,18.78-3.16c7.865,1.15,13.619,4.101,17.261,8.849c3.64,4.75,4.903,10.941,3.787,18.573
			c-0.684,4.673-2.113,8.998-4.285,12.977c-0.313,0.572-0.64,1.137-0.981,1.695 M169.679,74.96c-1.63,2.217-3.505,4.313-5.625,6.288
			c-3.546,3.3-7.7,6.272-12.462,8.917l-1.675,11.45l-17.291-2.529l2.204-15.071c3.904-2.213,7.503-4.789,10.797-7.729
			c3.294-2.938,6.034-6.176,8.223-9.716c2.189-3.538,3.578-7.332,4.171-11.382c0.421-2.881,0.2-5.042-0.664-6.481
			c-0.863-1.44-2.308-2.307-4.333-2.603 M128.403,123.885l2.649-18.109l18.575,2.717l-2.649,18.109L128.403,123.885z"/>
	</g>
	<g>
		<path style="fill:none;stroke:#263238;stroke-linecap:round;stroke-linejoin:round;stroke-miterlimit:10;" d="M449.033,247.193
			c1.151-2.51,1.888-5.14,2.212-7.89c0.303-2.574,0.051-4.492-0.753-5.75c-0.804-1.259-2.112-1.995-3.92-2.208
			c-1.67-0.197-3.032,0.137-4.086,1.001c-1.054,0.865-1.683,2.167-1.887,3.905c-0.131,1.114-0.127,2.119,0.015,3.018
			c0.14,0.899,0.327,1.855,0.562,2.87l-15.762,1.743c-0.361-1.735-0.605-3.404-0.733-5.007c-0.129-1.603-0.09-3.273,0.114-5.014
			c0.72-6.122,3.144-10.688,7.272-13.695c4.128-3.007,9.671-4.101,16.631-3.282c5.27,0.62,9.509,2.171,12.717,4.651
			 M464.734,224.915c3.016,4.062,4.143,9.342,3.378,15.843c-0.491,4.175-1.655,8.059-3.488,11.654
			c-1.835,3.593-4.288,6.903-7.358,9.928c-3.072,3.025-6.695,5.774-10.865,8.246l-1.204,10.23l-15.449-1.818l1.584-13.465
			c3.418-2.067,6.556-4.449,9.413-7.147c2.857-2.696,5.215-5.646,7.074-8.85 M426.61,301.169l1.904-16.179l16.596,1.953
			l-1.904,16.179L426.61,301.169z"/>
	</g>
	<g>
		<path style="fill:none;stroke:#263238;stroke-linecap:round;stroke-linejoin:round;stroke-miterlimit:10;" d="M21.204,274.561
			c2.625-1.27,5.728-2.156,9.31-2.656c7.233-1.01,13.067,0.11,17.501,3.36c4.433,3.252,7.141,8.386,8.122,15.405
			c0.6,4.297,0.454,8.48-0.438,12.548c-0.424,1.931-1.004,3.834-1.739,5.71 M52.239,312.724c-0.403,0.782-0.834,1.559-1.294,2.33
			c-2.278,3.823-5.176,7.514-8.695,11.073l1.471,10.529l-15.901,2.222l-1.936-13.859c2.873-2.957,5.384-6.155,7.532-9.596
			c2.149-3.439,3.732-7.001,4.751-10.686c1.019-3.683,1.268-7.388,0.748-11.112c-0.37-2.649-1.122-4.498-2.254-5.545
			c-1.132-1.047-2.63-1.44-4.491-1.18c-1.719,0.24-2.991,0.929-3.818,2.067c-0.827,1.139-1.114,2.603-0.864,4.393
			c0.16,1.146,0.427,2.149,0.804,3.01c0.375,0.861,0.811,1.767,1.311,2.719l-15.284,5.859c-0.814-1.638-1.493-3.241-2.041-4.808
			c-0.548-1.567-0.945-3.245-1.196-5.036c-0.88-6.301,0.347-11.494,3.683-15.575c1.154-1.412,2.538-2.64,4.15-3.683 M30.482,361.836
			l-2.327-16.652l17.082-2.387l2.326,16.652L30.482,361.836z"/>
	</g>
	<g>
		<path style="fill:none;stroke:#263238;stroke-linecap:round;stroke-linejoin:round;stroke-miterlimit:10;" d="M274.269,414.816
			c0.407-0.516,0.801-1.043,1.181-1.58c1.563-2.208,2.754-4.52,3.575-6.935c0.82-2.414,1.128-4.872,0.925-7.373
			c-0.145-1.779-0.575-3.039-1.289-3.78c-0.714-0.741-1.696-1.06-2.946-0.958c-1.154,0.094-2.028,0.504-2.622,1.23
			c-0.594,0.727-0.842,1.691-0.744,2.893c0.063,0.77,0.202,1.448,0.42,2.035c0.217,0.588,0.472,1.208,0.769,1.861l-10.405,3.316
			c-0.479-1.122-0.87-2.216-1.175-3.281c-0.304-1.065-0.505-2.197-0.603-3.4c-0.345-4.231,0.672-7.642,3.051-10.233
			c2.379-2.59,5.973-4.081,10.783-4.473c4.856-0.395,8.699,0.575,11.528,2.91 M288.607,389.023c1.663,2.198,2.639,5.063,2.927,8.598
			c0.235,2.885-0.023,5.666-0.774,8.341c-0.751,2.675-1.958,5.242-3.621,7.701c-1.664,2.459-3.736,4.806-6.216,7.041l0.576,7.07
			l-10.676,0.869l-0.758-9.306c1.034-0.948,2.007-1.942,2.921-2.981 M271.713,444.038l-0.91-11.181l11.469-0.934l0.91,11.181
			L271.713,444.038z"/>
	</g>
</g>
<g id="Question_Mark_1">
	<g>
		<path style="fill:#92E3A9;stroke:#263238;stroke-linecap:round;stroke-linejoin:round;stroke-miterlimit:10;" d="M389.596,95.629
			V78.263c4.039-3.14,7.674-6.64,10.905-10.501c3.231-3.858,5.788-7.964,7.674-12.318c1.886-4.352,2.827-8.862,2.827-13.529
			c0-3.32-0.607-5.721-1.819-7.202c-1.212-1.481-2.985-2.221-5.318-2.221c-2.153,0-3.836,0.628-5.047,1.884
			c-1.212,1.258-1.817,3.008-1.817,5.251c0,1.436,0.156,2.715,0.471,3.837c0.313,1.123,0.693,2.311,1.145,3.567l-19.791,4.577
			c-0.719-2.153-1.279-4.24-1.682-6.259c-0.404-2.02-0.605-4.15-0.605-6.395c0-7.896,2.4-14.067,7.201-18.51
			c4.801-4.443,11.689-6.664,20.665-6.664c9.063,0,16.042,2.379,20.933,7.135c4.89,4.758,7.337,11.534,7.337,20.328
			c0,5.385-0.899,10.5-2.693,15.347c-1.797,4.846-4.421,9.423-7.875,13.731c-3.456,4.308-7.652,8.347-12.588,12.116v13.193H389.596z
			 M388.924,124.304v-20.866h21.404v20.866H388.924z"/>
	</g>
</g>
</svg>
