<svg width="2310" height="1440" viewBox="0 0 2310 1440" fill="none" xmlns="http://www.w3.org/2000/svg">
<g clip-path="url(#clip0_2297_1755)">
<rect width="2310" height="1440" fill="url(#paint0_linear_2297_1755)"/>
<line x1="2315" y1="567" x2="5" y2="567" stroke="#CCCCCC" stroke-width="2"/>
<line x1="2315" y1="721" x2="5" y2="721" stroke="#CCCCCC" stroke-width="2"/>
<line x1="2305" y1="875" x2="-5" y2="875" stroke="#CCCCCC" stroke-width="2"/>
<line x1="2105.5" y1="-2.18557e-08" x2="2105.5" y2="1440" stroke="white"/>
<line x1="214.5" y1="-2.18557e-08" x2="214.5" y2="1440" stroke="white"/>
<line x1="1150.5" y1="-2.18557e-08" x2="1150.5" y2="1440" stroke="white"/>
<rect x="500" y="364" width="1309" height="713" rx="73" fill="url(#paint1_linear_2297_1755)" stroke="#313131" stroke-width="2"/>
<rect x="538.5" y="406.5" width="1233" height="627" rx="39.5" fill="url(#paint2_linear_2297_1755)" stroke="black"/>
<rect x="595" y="459" width="1120" height="523" rx="85" fill="black"/>
<g filter="url(#filter0_f_2297_1755)">
<rect x="668" y="548" width="983" height="396" rx="68" fill="#0077FF"/>
</g>
<g filter="url(#filter1_i_2297_1755)">
<rect x="648" y="516" width="1013" height="408" rx="68" fill="url(#paint3_linear_2297_1755)"/>
</g>
<g filter="url(#filter2_di_2297_1755)">
<rect x="713" y="581" width="883" height="278" rx="50" fill="url(#paint4_linear_2297_1755)"/>
<rect x="714.5" y="582.5" width="880" height="275" rx="48.5" stroke="#194EB2" stroke-width="3"/>
</g>
<path d="M847.667 640C832.939 640 821 651.939 821 666.667V773.333C821 788.061 832.939 800 847.667 800H954.333C969.061 800 981 788.061 981 773.333V666.667C981 651.939 969.061 640 954.333 640H847.667ZM912.861 756.044C919.25 761.194 925.637 763.736 932.026 763.671C935.937 763.671 938.935 762.954 941.021 761.52C943.042 760.151 944.052 758.196 944.052 755.653C944.052 753.046 943.042 750.829 941.021 749.004C938.935 747.18 934.992 745.354 929.19 743.529C922.215 741.508 916.837 738.9 913.057 735.707C909.341 732.513 907.451 728.047 907.386 722.311C907.386 716.9 909.732 712.371 914.426 708.72C918.988 705.069 924.823 703.244 931.928 703.244C941.836 703.244 949.788 705.656 955.786 710.48L948.941 721.138C946.53 719.247 943.759 717.878 940.63 717.031C937.501 716.053 934.699 715.564 932.221 715.564C928.832 715.564 926.126 716.184 924.106 717.422C922.085 718.66 921.075 720.291 921.075 722.311C921.075 724.527 922.313 726.418 924.79 727.982C927.268 729.482 931.504 731.144 937.501 732.969C944.737 735.12 949.886 737.988 952.95 741.573C956.014 745.158 957.546 749.722 957.546 755.262C957.546 760.933 955.362 765.822 950.995 769.929C946.692 773.971 940.435 776.089 932.221 776.284C921.466 776.284 912.47 773.058 905.235 766.604L912.861 756.044ZM863.703 761.716C865.789 763.02 868.298 763.671 871.232 763.671C874.295 763.671 876.838 762.791 878.858 761.031C880.879 759.206 881.889 756.044 881.889 751.547V704.418H895.09V754.089C894.894 761.78 892.677 767.322 888.441 770.711C886.028 772.732 883.388 774.166 880.52 775.013C877.652 775.86 874.882 776.284 872.209 776.284C867.32 776.284 862.986 775.437 859.205 773.742C855.163 771.917 851.774 768.691 849.036 764.062L858.227 756.533C859.922 758.815 861.747 760.542 863.703 761.716Z" fill="url(#paint5_linear_2297_1755)"/>
<path d="M1027.45 766.156C1024.17 766.156 1021.31 765.812 1018.88 765.125V753.031C1021.38 753.656 1023.66 753.969 1025.72 753.969C1028.91 753.969 1031.19 752.969 1032.56 750.969C1033.94 749 1034.62 745.906 1034.62 741.688V677.469H1049.16V741.594C1049.16 749.594 1047.33 755.688 1043.67 759.875C1040.02 764.062 1034.61 766.156 1027.45 766.156ZM1098.56 746L1095.8 738.875H1095.42C1093.02 741.906 1090.53 744.016 1087.97 745.203C1085.44 746.359 1082.12 746.938 1078.03 746.938C1073 746.938 1069.03 745.5 1066.12 742.625C1063.25 739.75 1061.81 735.656 1061.81 730.344C1061.81 724.781 1063.75 720.688 1067.62 718.062C1071.53 715.406 1077.41 713.938 1085.25 713.656L1094.34 713.375V711.078C1094.34 705.766 1091.62 703.109 1086.19 703.109C1082 703.109 1077.08 704.375 1071.42 706.906L1066.69 697.25C1072.72 694.094 1079.41 692.516 1086.75 692.516C1093.78 692.516 1099.17 694.047 1102.92 697.109C1106.67 700.172 1108.55 704.828 1108.55 711.078V746H1098.56ZM1094.34 721.719L1088.81 721.906C1084.66 722.031 1081.56 722.781 1079.53 724.156C1077.5 725.531 1076.48 727.625 1076.48 730.438C1076.48 734.469 1078.8 736.484 1083.42 736.484C1086.73 736.484 1089.38 735.531 1091.34 733.625C1093.34 731.719 1094.34 729.188 1094.34 726.031V721.719ZM1135.78 746L1115.81 693.594H1130.77L1140.89 723.453C1141.92 726.703 1142.59 730.281 1142.91 734.188H1143.28C1143.47 730.656 1144.17 727.078 1145.39 723.453L1155.47 693.594H1170.42L1150.45 746H1135.78ZM1211.25 746L1208.48 738.875H1208.11C1205.7 741.906 1203.22 744.016 1200.66 745.203C1198.12 746.359 1194.81 746.938 1190.72 746.938C1185.69 746.938 1181.72 745.5 1178.81 742.625C1175.94 739.75 1174.5 735.656 1174.5 730.344C1174.5 724.781 1176.44 720.688 1180.31 718.062C1184.22 715.406 1190.09 713.938 1197.94 713.656L1207.03 713.375V711.078C1207.03 705.766 1204.31 703.109 1198.88 703.109C1194.69 703.109 1189.77 704.375 1184.11 706.906L1179.38 697.25C1185.41 694.094 1192.09 692.516 1199.44 692.516C1206.47 692.516 1211.86 694.047 1215.61 697.109C1219.36 700.172 1221.23 704.828 1221.23 711.078V746H1211.25ZM1207.03 721.719L1201.5 721.906C1197.34 722.031 1194.25 722.781 1192.22 724.156C1190.19 725.531 1189.17 727.625 1189.17 730.438C1189.17 734.469 1191.48 736.484 1196.11 736.484C1199.42 736.484 1202.06 735.531 1204.03 733.625C1206.03 731.719 1207.03 729.188 1207.03 726.031V721.719ZM1277.58 726.969C1277.58 733.156 1275.34 738.031 1270.88 741.594C1266.44 745.156 1260.25 746.938 1252.31 746.938C1245 746.938 1238.53 745.562 1232.91 742.812V729.312C1237.53 731.375 1241.44 732.828 1244.62 733.672C1247.84 734.516 1250.78 734.938 1253.44 734.938C1256.62 734.938 1259.06 734.328 1260.75 733.109C1262.47 731.891 1263.33 730.078 1263.33 727.672C1263.33 726.328 1262.95 725.141 1262.2 724.109C1261.45 723.047 1260.34 722.031 1258.88 721.062C1257.44 720.094 1254.48 718.547 1250.02 716.422C1245.83 714.453 1242.69 712.562 1240.59 710.75C1238.5 708.938 1236.83 706.828 1235.58 704.422C1234.33 702.016 1233.7 699.203 1233.7 695.984C1233.7 689.922 1235.75 685.156 1239.84 681.688C1243.97 678.219 1249.66 676.484 1256.91 676.484C1260.47 676.484 1263.86 676.906 1267.08 677.75C1270.33 678.594 1273.72 679.781 1277.25 681.312L1272.56 692.609C1268.91 691.109 1265.88 690.062 1263.47 689.469C1261.09 688.875 1258.75 688.578 1256.44 688.578C1253.69 688.578 1251.58 689.219 1250.11 690.5C1248.64 691.781 1247.91 693.453 1247.91 695.516C1247.91 696.797 1248.2 697.922 1248.8 698.891C1249.39 699.828 1250.33 700.75 1251.61 701.656C1252.92 702.531 1256 704.125 1260.84 706.438C1267.25 709.5 1271.64 712.578 1274.02 715.672C1276.39 718.734 1277.58 722.5 1277.58 726.969ZM1310.16 746.938C1293.84 746.938 1285.69 737.984 1285.69 720.078C1285.69 711.172 1287.91 704.375 1292.34 699.688C1296.78 694.969 1303.14 692.609 1311.42 692.609C1317.48 692.609 1322.92 693.797 1327.73 696.172L1323.52 707.234C1321.27 706.328 1319.17 705.594 1317.23 705.031C1315.3 704.438 1313.36 704.141 1311.42 704.141C1303.98 704.141 1300.27 709.422 1300.27 719.984C1300.27 730.234 1303.98 735.359 1311.42 735.359C1314.17 735.359 1316.72 735 1319.06 734.281C1321.41 733.531 1323.75 732.375 1326.09 730.812V743.047C1323.78 744.516 1321.44 745.531 1319.06 746.094C1316.72 746.656 1313.75 746.938 1310.16 746.938ZM1367.53 692.609C1369.47 692.609 1371.08 692.75 1372.36 693.031L1371.28 706.438C1370.12 706.125 1368.72 705.969 1367.06 705.969C1362.5 705.969 1358.94 707.141 1356.38 709.484C1353.84 711.828 1352.58 715.109 1352.58 719.328V746H1338.28V693.594H1349.11L1351.22 702.406H1351.92C1353.55 699.469 1355.73 697.109 1358.48 695.328C1361.27 693.516 1364.28 692.609 1367.53 692.609ZM1381.27 680.047C1381.27 675.391 1383.86 673.062 1389.05 673.062C1394.23 673.062 1396.83 675.391 1396.83 680.047C1396.83 682.266 1396.17 684 1394.86 685.25C1393.58 686.469 1391.64 687.078 1389.05 687.078C1383.86 687.078 1381.27 684.734 1381.27 680.047ZM1396.17 746H1381.88V693.594H1396.17V746ZM1440 746.938C1433.84 746.938 1429.02 744.703 1425.52 740.234H1424.77C1425.27 744.609 1425.52 747.141 1425.52 747.828V769.062H1411.22V693.594H1422.84L1424.86 700.391H1425.52C1428.86 695.203 1433.81 692.609 1440.38 692.609C1446.56 692.609 1451.41 695 1454.91 699.781C1458.41 704.562 1460.16 711.203 1460.16 719.703C1460.16 725.297 1459.33 730.156 1457.67 734.281C1456.05 738.406 1453.72 741.547 1450.69 743.703C1447.66 745.859 1444.09 746.938 1440 746.938ZM1435.78 704.047C1432.25 704.047 1429.67 705.141 1428.05 707.328C1426.42 709.484 1425.58 713.062 1425.52 718.062V719.609C1425.52 725.234 1426.34 729.266 1428 731.703C1429.69 734.141 1432.34 735.359 1435.97 735.359C1442.38 735.359 1445.58 730.078 1445.58 719.516C1445.58 714.359 1444.78 710.5 1443.19 707.938C1441.62 705.344 1439.16 704.047 1435.78 704.047ZM1494.05 735.547C1496.55 735.547 1499.55 735 1503.05 733.906V744.547C1499.48 746.141 1495.11 746.938 1489.92 746.938C1484.2 746.938 1480.03 745.5 1477.41 742.625C1474.81 739.719 1473.52 735.375 1473.52 729.594V704.328H1466.67V698.281L1474.55 693.5L1478.67 682.438H1487.81V693.594H1502.48V704.328H1487.81V729.594C1487.81 731.625 1488.38 733.125 1489.5 734.094C1490.66 735.062 1492.17 735.547 1494.05 735.547Z" fill="url(#paint6_linear_2297_1755)"/>
</g>
<defs>
<filter id="filter0_f_2297_1755" x="620.6" y="500.6" width="1077.8" height="490.8" filterUnits="userSpaceOnUse" color-interpolation-filters="sRGB">
<feFlood flood-opacity="0" result="BackgroundImageFix"/>
<feBlend mode="normal" in="SourceGraphic" in2="BackgroundImageFix" result="shape"/>
<feGaussianBlur stdDeviation="23.7" result="effect1_foregroundBlur_2297_1755"/>
</filter>
<filter id="filter1_i_2297_1755" x="646" y="500" width="1015" height="424" filterUnits="userSpaceOnUse" color-interpolation-filters="sRGB">
<feFlood flood-opacity="0" result="BackgroundImageFix"/>
<feBlend mode="normal" in="SourceGraphic" in2="BackgroundImageFix" result="shape"/>
<feColorMatrix in="SourceAlpha" type="matrix" values="0 0 0 0 0 0 0 0 0 0 0 0 0 0 0 0 0 0 127 0" result="hardAlpha"/>
<feMorphology radius="8" operator="erode" in="SourceAlpha" result="effect1_innerShadow_2297_1755"/>
<feOffset dx="-2" dy="-16"/>
<feGaussianBlur stdDeviation="38.5"/>
<feComposite in2="hardAlpha" operator="arithmetic" k2="-1" k3="1"/>
<feColorMatrix type="matrix" values="0 0 0 0 0 0 0 0 0 0 0 0 0 0 0 0 0 0 0.25 0"/>
<feBlend mode="normal" in2="shape" result="effect1_innerShadow_2297_1755"/>
</filter>
<filter id="filter2_di_2297_1755" x="675" y="546" width="973" height="368" filterUnits="userSpaceOnUse" color-interpolation-filters="sRGB">
<feFlood flood-opacity="0" result="BackgroundImageFix"/>
<feColorMatrix in="SourceAlpha" type="matrix" values="0 0 0 0 0 0 0 0 0 0 0 0 0 0 0 0 0 0 127 0" result="hardAlpha"/>
<feOffset dx="7" dy="10"/>
<feGaussianBlur stdDeviation="22.5"/>
<feComposite in2="hardAlpha" operator="out"/>
<feColorMatrix type="matrix" values="0 0 0 0 0 0 0 0 0 0 0 0 0 0 0 0 0 0 0.25 0"/>
<feBlend mode="normal" in2="BackgroundImageFix" result="effect1_dropShadow_2297_1755"/>
<feBlend mode="normal" in="SourceGraphic" in2="effect1_dropShadow_2297_1755" result="shape"/>
<feColorMatrix in="SourceAlpha" type="matrix" values="0 0 0 0 0 0 0 0 0 0 0 0 0 0 0 0 0 0 127 0" result="hardAlpha"/>
<feMorphology radius="17" operator="erode" in="SourceAlpha" result="effect2_innerShadow_2297_1755"/>
<feOffset dx="1" dy="20"/>
<feGaussianBlur stdDeviation="27.2"/>
<feComposite in2="hardAlpha" operator="arithmetic" k2="-1" k3="1"/>
<feColorMatrix type="matrix" values="0 0 0 0 0 0 0 0 0 0 0 0 0 0 0 0 0 0 0.25 0"/>
<feBlend mode="normal" in2="shape" result="effect2_innerShadow_2297_1755"/>
</filter>
<linearGradient id="paint0_linear_2297_1755" x1="5.02182" y1="1.96121e-05" x2="2304.98" y2="1440" gradientUnits="userSpaceOnUse">
<stop stop-color="#1C1C1C"/>
<stop offset="1" stop-color="#1C1C1C"/>
</linearGradient>
<linearGradient id="paint1_linear_2297_1755" x1="511.181" y1="363" x2="1797.82" y2="1078" gradientUnits="userSpaceOnUse">
<stop stop-color="#464646"/>
<stop offset="1" stop-color="#171717"/>
</linearGradient>
<linearGradient id="paint2_linear_2297_1755" x1="557.246" y1="406" x2="1752.75" y2="1034" gradientUnits="userSpaceOnUse">
<stop stop-color="#1B1B1B"/>
<stop offset="1" stop-color="#242424"/>
</linearGradient>
<linearGradient id="paint3_linear_2297_1755" x1="1154.5" y1="516" x2="1154.5" y2="924" gradientUnits="userSpaceOnUse">
<stop stop-color="#1A51B8"/>
<stop offset="1" stop-color="#092161"/>
</linearGradient>
<linearGradient id="paint4_linear_2297_1755" x1="1154.5" y1="581" x2="1154.5" y2="859" gradientUnits="userSpaceOnUse">
<stop stop-color="#061E3D"/>
<stop offset="1" stop-color="#13469E"/>
</linearGradient>
<linearGradient id="paint5_linear_2297_1755" x1="901" y1="640" x2="901" y2="800" gradientUnits="userSpaceOnUse">
<stop stop-color="#FEFDFA"/>
<stop offset="1" stop-color="#6C95E4"/>
</linearGradient>
<linearGradient id="paint6_linear_2297_1755" x1="1109.5" y1="687" x2="1109.5" y2="783" gradientUnits="userSpaceOnUse">
<stop stop-color="#FEFDFA"/>
<stop offset="1" stop-color="#6C95E4"/>
</linearGradient>
<clipPath id="clip0_2297_1755">
<rect width="2310" height="1440" fill="white"/>
</clipPath>
</defs>
</svg>
