<svg width="279" height="223" viewBox="0 0 279 223" fill="none" xmlns="http://www.w3.org/2000/svg">
<rect x="0.25" y="1.14999" width="170.5" height="38.5" rx="19.25" fill="#466A59"/>
<rect x="0.25" y="1.14999" width="170.5" height="38.5" rx="19.25" stroke="#212429" stroke-width="0.5"/>
<path d="M19.143 25.9L16.231 15.82H17.302L19.661 24.143L22.006 15.827L23.084 15.82L25.443 24.143L27.788 15.82H28.866L25.961 25.9H24.925L22.545 17.633L20.179 25.9H19.143ZM32.4427 26.11C31.7053 26.11 31.066 25.9467 30.5247 25.62C29.988 25.2933 29.5703 24.8337 29.2717 24.241C28.973 23.6483 28.8237 22.953 28.8237 22.155C28.8237 21.329 28.9707 20.615 29.2647 20.013C29.5587 19.411 29.9717 18.9467 30.5037 18.62C31.0403 18.2933 31.6727 18.13 32.4007 18.13C33.1473 18.13 33.7843 18.3027 34.3117 18.648C34.839 18.9887 35.238 19.4787 35.5087 20.118C35.7793 20.7573 35.903 21.5203 35.8797 22.407H34.8297V22.043C34.811 21.063 34.5987 20.3233 34.1927 19.824C33.7913 19.3247 33.2033 19.075 32.4287 19.075C31.6167 19.075 30.9937 19.3387 30.5597 19.866C30.1303 20.3933 29.9157 21.1447 29.9157 22.12C29.9157 23.072 30.1303 23.8117 30.5597 24.339C30.9937 24.8617 31.6073 25.123 32.4007 25.123C32.942 25.123 33.4133 24.9993 33.8147 24.752C34.2207 24.5 34.5403 24.1383 34.7737 23.667L35.7327 24.038C35.434 24.696 34.993 25.207 34.4097 25.571C33.831 25.9303 33.1753 26.11 32.4427 26.11ZM29.5517 22.407V21.546H35.3267V22.407H29.5517ZM40.8281 26.11C40.1328 26.11 39.5448 25.935 39.0641 25.585C38.5835 25.2303 38.2195 24.752 37.9721 24.15C37.7248 23.5433 37.6011 22.8643 37.6011 22.113C37.6011 21.3477 37.7248 20.6663 37.9721 20.069C38.2241 19.467 38.5928 18.9933 39.0781 18.648C39.5635 18.3027 40.1608 18.13 40.8701 18.13C41.5608 18.13 42.1535 18.305 42.6481 18.655C43.1428 19.005 43.5208 19.481 43.7821 20.083C44.0481 20.685 44.1811 21.3617 44.1811 22.113C44.1811 22.869 44.0481 23.548 43.7821 24.15C43.5161 24.752 43.1335 25.2303 42.6341 25.585C42.1348 25.935 41.5328 26.11 40.8281 26.11ZM37.4261 25.9V15.82H38.4621V20.209H38.3501V25.9H37.4261ZM40.7231 25.151C41.2505 25.151 41.6891 25.018 42.0391 24.752C42.3891 24.486 42.6505 24.1243 42.8231 23.667C43.0005 23.205 43.0891 22.687 43.0891 22.113C43.0891 21.5437 43.0028 21.0303 42.8301 20.573C42.6575 20.1157 42.3938 19.754 42.0391 19.488C41.6891 19.222 41.2435 19.089 40.7021 19.089C40.1748 19.089 39.7361 19.2173 39.3861 19.474C39.0408 19.7307 38.7818 20.0877 38.6091 20.545C38.4365 20.9977 38.3501 21.5203 38.3501 22.113C38.3501 22.6963 38.4365 23.219 38.6091 23.681C38.7818 24.1383 39.0431 24.4977 39.3931 24.759C39.7431 25.0203 40.1865 25.151 40.7231 25.151ZM51.23 26.103C50.7307 26.103 50.271 26.0143 49.851 25.837C49.431 25.6597 49.0693 25.4077 48.766 25.081C48.4627 24.7497 48.241 24.3553 48.101 23.898L49.081 23.604C49.249 24.1033 49.5243 24.4813 49.907 24.738C50.2943 24.9947 50.7307 25.1183 51.216 25.109C51.664 25.0997 52.049 24.9993 52.371 24.808C52.6977 24.6167 52.9473 24.3507 53.12 24.01C53.2927 23.6693 53.379 23.275 53.379 22.827C53.379 22.141 53.1783 21.5903 52.777 21.175C52.3803 20.755 51.8553 20.545 51.202 20.545C51.02 20.545 50.8287 20.5707 50.628 20.622C50.4273 20.6687 50.2407 20.7363 50.068 20.825L49.55 20.006L53.47 16.387L53.638 16.807H48.5V15.82H54.324V16.821L50.908 20.083L50.894 19.677C51.594 19.5883 52.21 19.6677 52.742 19.915C53.274 20.1623 53.6893 20.5403 53.988 21.049C54.2913 21.553 54.443 22.1457 54.443 22.827C54.443 23.471 54.303 24.0403 54.023 24.535C53.7477 25.025 53.3673 25.41 52.882 25.69C52.3967 25.9653 51.846 26.103 51.23 26.103ZM56.4553 25.9V24.703H57.6523V25.9H56.4553ZM63.104 26.11C62.4833 26.11 61.9233 25.9653 61.424 25.676C60.9293 25.3867 60.5373 24.9947 60.248 24.5C59.9587 24.0007 59.814 23.4407 59.814 22.82V18.9C59.814 18.2793 59.9587 17.7217 60.248 17.227C60.5373 16.7277 60.9293 16.3333 61.424 16.044C61.9233 15.7547 62.4833 15.61 63.104 15.61C63.7247 15.61 64.2823 15.7547 64.777 16.044C65.2763 16.3333 65.6707 16.7277 65.96 17.227C66.2493 17.7217 66.394 18.2793 66.394 18.9V22.82C66.394 23.4407 66.2493 24.0007 65.96 24.5C65.6707 24.9947 65.2763 25.3867 64.777 25.676C64.2823 25.9653 63.7247 26.11 63.104 26.11ZM63.104 25.116C63.5193 25.116 63.8973 25.0157 64.238 24.815C64.5787 24.6097 64.8493 24.3367 65.05 23.996C65.2507 23.6553 65.351 23.2797 65.351 22.869V18.851C65.351 18.4357 65.2507 18.0577 65.05 17.717C64.8493 17.3763 64.5787 17.1057 64.238 16.905C63.8973 16.6997 63.5193 16.597 63.104 16.597C62.6887 16.597 62.3107 16.6997 61.97 16.905C61.6293 17.1057 61.3587 17.3763 61.158 17.717C60.9573 18.0577 60.857 18.4357 60.857 18.851V22.869C60.857 23.2797 60.9573 23.6553 61.158 23.996C61.3587 24.3367 61.6293 24.6097 61.97 24.815C62.3107 25.0157 62.6887 25.116 63.104 25.116ZM74.0946 26.11C73.39 26.11 72.788 25.935 72.2886 25.585C71.7893 25.2303 71.4066 24.752 71.1406 24.15C70.8746 23.548 70.7416 22.869 70.7416 22.113C70.7416 21.3617 70.8723 20.685 71.1336 20.083C71.3996 19.481 71.78 19.005 72.2746 18.655C72.7693 18.305 73.362 18.13 74.0526 18.13C74.762 18.13 75.3593 18.3027 75.8446 18.648C76.33 18.9933 76.6963 19.467 76.9436 20.069C77.1956 20.6663 77.3216 21.3477 77.3216 22.113C77.3216 22.8643 77.198 23.5433 76.9506 24.15C76.7033 24.752 76.3393 25.2303 75.8586 25.585C75.378 25.935 74.79 26.11 74.0946 26.11ZM74.1996 25.151C74.7363 25.151 75.1796 25.0203 75.5296 24.759C75.8796 24.4977 76.141 24.1383 76.3136 23.681C76.4863 23.219 76.5726 22.6963 76.5726 22.113C76.5726 21.5203 76.4863 20.9977 76.3136 20.545C76.141 20.0877 75.8796 19.7307 75.5296 19.474C75.1843 19.2173 74.748 19.089 74.2206 19.089C73.6793 19.089 73.2313 19.222 72.8766 19.488C72.522 19.754 72.2583 20.1157 72.0856 20.573C71.9176 21.0303 71.8336 21.5437 71.8336 22.113C71.8336 22.687 71.92 23.205 72.0926 23.667C72.27 24.1243 72.5336 24.486 72.8836 24.752C73.2336 25.018 73.6723 25.151 74.1996 25.151ZM76.5726 25.9V20.209H76.4606V15.82H77.4966V25.9H76.5726ZM82.6595 26.11C81.9221 26.11 81.2828 25.9467 80.7415 25.62C80.2048 25.2933 79.7871 24.8337 79.4885 24.241C79.1898 23.6483 79.0405 22.953 79.0405 22.155C79.0405 21.329 79.1875 20.615 79.4815 20.013C79.7755 19.411 80.1885 18.9467 80.7205 18.62C81.2571 18.2933 81.8895 18.13 82.6175 18.13C83.3641 18.13 84.0011 18.3027 84.5285 18.648C85.0558 18.9887 85.4548 19.4787 85.7255 20.118C85.9961 20.7573 86.1198 21.5203 86.0965 22.407H85.0465V22.043C85.0278 21.063 84.8155 20.3233 84.4095 19.824C84.0081 19.3247 83.4201 19.075 82.6455 19.075C81.8335 19.075 81.2105 19.3387 80.7765 19.866C80.3471 20.3933 80.1325 21.1447 80.1325 22.12C80.1325 23.072 80.3471 23.8117 80.7765 24.339C81.2105 24.8617 81.8241 25.123 82.6175 25.123C83.1588 25.123 83.6301 24.9993 84.0315 24.752C84.4375 24.5 84.7571 24.1383 84.9905 23.667L85.9495 24.038C85.6508 24.696 85.2098 25.207 84.6265 25.571C84.0478 25.9303 83.3921 26.11 82.6595 26.11ZM79.7685 22.407V21.546H85.5435V22.407H79.7685ZM89.4205 25.9L86.6765 18.34H87.7195L89.9525 24.556L92.1715 18.34H93.2285L90.4845 25.9H89.4205ZM97.4114 26.11C96.6741 26.11 96.0348 25.9467 95.4934 25.62C94.9568 25.2933 94.5391 24.8337 94.2404 24.241C93.9418 23.6483 93.7924 22.953 93.7924 22.155C93.7924 21.329 93.9394 20.615 94.2334 20.013C94.5274 19.411 94.9404 18.9467 95.4724 18.62C96.0091 18.2933 96.6414 18.13 97.3694 18.13C98.1161 18.13 98.7531 18.3027 99.2804 18.648C99.8078 18.9887 100.207 19.4787 100.477 20.118C100.748 20.7573 100.872 21.5203 100.848 22.407H99.7984V22.043C99.7798 21.063 99.5674 20.3233 99.1614 19.824C98.7601 19.3247 98.1721 19.075 97.3974 19.075C96.5854 19.075 95.9624 19.3387 95.5284 19.866C95.0991 20.3933 94.8844 21.1447 94.8844 22.12C94.8844 23.072 95.0991 23.8117 95.5284 24.339C95.9624 24.8617 96.5761 25.123 97.3694 25.123C97.9108 25.123 98.3821 24.9993 98.7834 24.752C99.1894 24.5 99.5091 24.1383 99.7424 23.667L100.701 24.038C100.403 24.696 99.9618 25.207 99.3784 25.571C98.7998 25.9303 98.1441 26.11 97.4114 26.11ZM94.5204 22.407V21.546H100.295V22.407H94.5204ZM102.542 25.9V15.61H103.571V25.9H102.542ZM108.826 26.11C108.075 26.11 107.433 25.9397 106.901 25.599C106.369 25.2583 105.961 24.787 105.676 24.185C105.392 23.583 105.249 22.8923 105.249 22.113C105.249 21.3197 105.394 20.6243 105.683 20.027C105.973 19.4297 106.383 18.9653 106.915 18.634C107.452 18.298 108.089 18.13 108.826 18.13C109.582 18.13 110.226 18.3003 110.758 18.641C111.295 18.977 111.703 19.446 111.983 20.048C112.268 20.6453 112.41 21.3337 112.41 22.113C112.41 22.9063 112.268 23.604 111.983 24.206C111.699 24.8033 111.288 25.27 110.751 25.606C110.215 25.942 109.573 26.11 108.826 26.11ZM108.826 25.123C109.666 25.123 110.292 24.8453 110.702 24.29C111.113 23.73 111.318 23.0043 111.318 22.113C111.318 21.1983 111.111 20.4703 110.695 19.929C110.285 19.3877 109.662 19.117 108.826 19.117C108.262 19.117 107.795 19.2453 107.426 19.502C107.062 19.754 106.789 20.1063 106.607 20.559C106.43 21.007 106.341 21.525 106.341 22.113C106.341 23.023 106.551 23.7533 106.971 24.304C107.391 24.85 108.01 25.123 108.826 25.123ZM117.35 26.11C116.654 26.11 116.066 25.935 115.586 25.585C115.105 25.2303 114.741 24.752 114.494 24.15C114.246 23.5433 114.123 22.8643 114.123 22.113C114.123 21.3477 114.246 20.6663 114.494 20.069C114.746 19.467 115.114 18.9933 115.6 18.648C116.085 18.3027 116.682 18.13 117.392 18.13C118.082 18.13 118.675 18.305 119.17 18.655C119.664 19.005 120.042 19.481 120.304 20.083C120.57 20.685 120.703 21.3617 120.703 22.113C120.703 22.869 120.57 23.548 120.304 24.15C120.038 24.752 119.655 25.2303 119.156 25.585C118.656 25.935 118.054 26.11 117.35 26.11ZM113.948 29.26V18.34H114.872V24.031H114.984V29.26H113.948ZM117.245 25.151C117.772 25.151 118.211 25.018 118.561 24.752C118.911 24.486 119.172 24.1243 119.345 23.667C119.522 23.205 119.611 22.687 119.611 22.113C119.611 21.5437 119.524 21.0303 119.352 20.573C119.179 20.1157 118.915 19.754 118.561 19.488C118.211 19.222 117.765 19.089 117.224 19.089C116.696 19.089 116.258 19.2173 115.908 19.474C115.562 19.7307 115.303 20.0877 115.131 20.545C114.958 20.9977 114.872 21.5203 114.872 22.113C114.872 22.6963 114.958 23.219 115.131 23.681C115.303 24.1383 115.565 24.4977 115.915 24.759C116.265 25.0203 116.708 25.151 117.245 25.151ZM131.256 25.9L131.263 20.937C131.263 20.3537 131.099 19.8963 130.773 19.565C130.451 19.229 130.04 19.061 129.541 19.061C129.256 19.061 128.978 19.1263 128.708 19.257C128.437 19.3877 128.213 19.5977 128.036 19.887C127.863 20.1763 127.777 20.5543 127.777 21.021L127.168 20.846C127.154 20.3047 127.259 19.831 127.483 19.425C127.711 19.019 128.024 18.704 128.421 18.48C128.822 18.2513 129.275 18.137 129.779 18.137C130.539 18.137 131.148 18.3727 131.606 18.844C132.063 19.3107 132.292 19.943 132.292 20.741L132.285 25.9H131.256ZM122.233 25.9V18.34H123.157V20.202H123.269V25.9H122.233ZM126.755 25.9L126.762 21.007C126.762 20.405 126.601 19.9313 126.279 19.586C125.961 19.236 125.541 19.061 125.019 19.061C124.496 19.061 124.074 19.2407 123.752 19.6C123.43 19.9547 123.269 20.4283 123.269 21.021L122.653 20.685C122.653 20.1997 122.767 19.7657 122.996 19.383C123.224 18.9957 123.537 18.6923 123.934 18.473C124.33 18.249 124.781 18.137 125.285 18.137C125.765 18.137 126.192 18.2397 126.566 18.445C126.944 18.6503 127.24 18.949 127.455 19.341C127.669 19.733 127.777 20.209 127.777 20.769L127.77 25.9H126.755ZM137.265 26.11C136.528 26.11 135.888 25.9467 135.347 25.62C134.81 25.2933 134.393 24.8337 134.094 24.241C133.795 23.6483 133.646 22.953 133.646 22.155C133.646 21.329 133.793 20.615 134.087 20.013C134.381 19.411 134.794 18.9467 135.326 18.62C135.863 18.2933 136.495 18.13 137.223 18.13C137.97 18.13 138.607 18.3027 139.134 18.648C139.661 18.9887 140.06 19.4787 140.331 20.118C140.602 20.7573 140.725 21.5203 140.702 22.407H139.652V22.043C139.633 21.063 139.421 20.3233 139.015 19.824C138.614 19.3247 138.026 19.075 137.251 19.075C136.439 19.075 135.816 19.3387 135.382 19.866C134.953 20.3933 134.738 21.1447 134.738 22.12C134.738 23.072 134.953 23.8117 135.382 24.339C135.816 24.8617 136.43 25.123 137.223 25.123C137.764 25.123 138.236 24.9993 138.637 24.752C139.043 24.5 139.363 24.1383 139.596 23.667L140.555 24.038C140.256 24.696 139.815 25.207 139.232 25.571C138.653 25.9303 137.998 26.11 137.265 26.11ZM134.374 22.407V21.546H140.149V22.407H134.374ZM147.51 25.9V22.043C147.51 21.623 147.471 21.238 147.391 20.888C147.312 20.5333 147.184 20.2253 147.006 19.964C146.834 19.698 146.607 19.4927 146.327 19.348C146.052 19.2033 145.716 19.131 145.319 19.131C144.955 19.131 144.633 19.194 144.353 19.32C144.078 19.446 143.845 19.628 143.653 19.866C143.467 20.0993 143.324 20.384 143.226 20.72C143.128 21.056 143.079 21.4387 143.079 21.868L142.351 21.707C142.351 20.9323 142.487 20.2813 142.757 19.754C143.028 19.2267 143.401 18.8277 143.877 18.557C144.353 18.2863 144.899 18.151 145.515 18.151C145.968 18.151 146.362 18.221 146.698 18.361C147.039 18.501 147.326 18.69 147.559 18.928C147.797 19.166 147.989 19.439 148.133 19.747C148.278 20.0503 148.383 20.3747 148.448 20.72C148.514 21.0607 148.546 21.4013 148.546 21.742V25.9H147.51ZM142.043 25.9V18.34H142.974V20.202H143.079V25.9H142.043ZM154.479 25.9C154.054 25.9887 153.634 26.0237 153.219 26.005C152.808 25.9863 152.439 25.8977 152.113 25.739C151.791 25.5803 151.546 25.333 151.378 24.997C151.242 24.717 151.168 24.4347 151.154 24.15C151.144 23.8607 151.14 23.5317 151.14 23.163V16.24H152.162V23.121C152.162 23.4383 152.164 23.7043 152.169 23.919C152.178 24.129 152.227 24.3157 152.316 24.479C152.484 24.7917 152.75 24.9783 153.114 25.039C153.482 25.0997 153.937 25.0857 154.479 24.997V25.9ZM149.523 19.222V18.34H154.479V19.222H149.523Z" fill="white"/>
<rect x="189.25" y="1.14999" width="79.5" height="38.5" rx="19.25" fill="#466A59"/>
<rect x="189.25" y="1.14999" width="79.5" height="38.5" rx="19.25" stroke="#212429" stroke-width="0.5"/>
<path d="M210.019 26.11C209.31 26.11 208.67 25.9863 208.101 25.739C207.532 25.4917 207.046 25.1393 206.645 24.682C206.248 24.2247 205.945 23.674 205.735 23.03C205.525 22.3813 205.42 21.658 205.42 20.86C205.42 19.8053 205.602 18.886 205.966 18.102C206.335 17.3133 206.862 16.702 207.548 16.268C208.234 15.834 209.058 15.617 210.019 15.617C211.092 15.617 211.965 15.869 212.637 16.373C213.314 16.8723 213.785 17.5443 214.051 18.389L213.015 18.641C212.796 18.025 212.434 17.5327 211.93 17.164C211.431 16.7953 210.808 16.611 210.061 16.611C209.272 16.6063 208.617 16.7837 208.094 17.143C207.571 17.4977 207.177 17.997 206.911 18.641C206.65 19.2803 206.517 20.02 206.512 20.86C206.507 21.7 206.636 22.4397 206.897 23.079C207.163 23.7137 207.56 24.213 208.087 24.577C208.614 24.9363 209.272 25.1183 210.061 25.123C210.784 25.123 211.382 24.983 211.853 24.703C212.324 24.423 212.681 24.0217 212.924 23.499C213.171 22.9763 213.311 22.358 213.344 21.644H211.02V20.762H214.422C214.436 20.8693 214.443 20.9837 214.443 21.105C214.448 21.2217 214.45 21.3057 214.45 21.357C214.45 22.267 214.287 23.0813 213.96 23.8C213.633 24.514 213.141 25.0787 212.483 25.494C211.83 25.9047 211.008 26.11 210.019 26.11ZM215.851 25.9V18.34H216.775V20.16L216.593 19.922C216.677 19.698 216.787 19.4927 216.922 19.306C217.057 19.1147 217.204 18.9583 217.363 18.837C217.559 18.6643 217.788 18.5337 218.049 18.445C218.31 18.3517 218.574 18.298 218.84 18.284C219.106 18.2653 219.349 18.284 219.568 18.34V19.306C219.293 19.236 218.992 19.2197 218.665 19.257C218.338 19.2943 218.037 19.425 217.762 19.649C217.51 19.845 217.321 20.0807 217.195 20.356C217.069 20.6267 216.985 20.916 216.943 21.224C216.901 21.5273 216.88 21.8283 216.88 22.127V25.9H215.851ZM223.916 26.11C223.165 26.11 222.523 25.9397 221.991 25.599C221.459 25.2583 221.051 24.787 220.766 24.185C220.482 23.583 220.339 22.8923 220.339 22.113C220.339 21.3197 220.484 20.6243 220.773 20.027C221.063 19.4297 221.473 18.9653 222.005 18.634C222.542 18.298 223.179 18.13 223.916 18.13C224.672 18.13 225.316 18.3003 225.848 18.641C226.385 18.977 226.793 19.446 227.073 20.048C227.358 20.6453 227.5 21.3337 227.5 22.113C227.5 22.9063 227.358 23.604 227.073 24.206C226.789 24.8033 226.378 25.27 225.841 25.606C225.305 25.942 224.663 26.11 223.916 26.11ZM223.916 25.123C224.756 25.123 225.382 24.8453 225.792 24.29C226.203 23.73 226.408 23.0043 226.408 22.113C226.408 21.1983 226.201 20.4703 225.785 19.929C225.375 19.3877 224.752 19.117 223.916 19.117C223.352 19.117 222.885 19.2453 222.516 19.502C222.152 19.754 221.879 20.1063 221.697 20.559C221.52 21.007 221.431 21.525 221.431 22.113C221.431 23.023 221.641 23.7533 222.061 24.304C222.481 24.85 223.1 25.123 223.916 25.123ZM230.381 25.9L228.071 18.333L229.1 18.34L230.892 24.213L232.691 18.34H233.629L235.428 24.213L237.234 18.34H238.256L235.946 25.9H235.05L233.16 19.88L231.277 25.9H230.381ZM243.633 25.9C243.208 25.9887 242.788 26.0237 242.373 26.005C241.962 25.9863 241.594 25.8977 241.267 25.739C240.945 25.5803 240.7 25.333 240.532 24.997C240.397 24.717 240.322 24.4347 240.308 24.15C240.299 23.8607 240.294 23.5317 240.294 23.163V16.24H241.316V23.121C241.316 23.4383 241.318 23.7043 241.323 23.919C241.332 24.129 241.381 24.3157 241.47 24.479C241.638 24.7917 241.904 24.9783 242.268 25.039C242.637 25.0997 243.092 25.0857 243.633 24.997V25.9ZM238.677 19.222V18.34H243.633V19.222H238.677ZM250.583 25.9V22.043C250.583 21.623 250.543 21.238 250.464 20.888C250.384 20.5333 250.256 20.2253 250.079 19.964C249.906 19.698 249.68 19.4927 249.4 19.348C249.124 19.2033 248.788 19.131 248.392 19.131C248.028 19.131 247.706 19.194 247.426 19.32C247.15 19.446 246.917 19.628 246.726 19.866C246.539 20.0993 246.397 20.384 246.299 20.72C246.201 21.056 246.152 21.4387 246.152 21.868L245.424 21.707C245.424 20.9323 245.559 20.2813 245.83 19.754C246.1 19.2267 246.474 18.8277 246.95 18.557C247.426 18.2863 247.972 18.151 248.588 18.151C249.04 18.151 249.435 18.221 249.771 18.361C250.111 18.501 250.398 18.69 250.632 18.928C250.87 19.166 251.061 19.439 251.206 19.747C251.35 20.0503 251.455 20.3747 251.521 20.72C251.586 21.0607 251.619 21.4013 251.619 21.742V25.9H250.583ZM245.116 25.9V15.82H246.047V21.511H246.152V25.9H245.116Z" fill="white"/>
<rect x="0.25" y="62.15" width="59.5" height="38.5" rx="19.25" fill="#466A59"/>
<rect x="0.25" y="62.15" width="59.5" height="38.5" rx="19.25" stroke="#212429" stroke-width="0.5"/>
<path d="M16.28 86.9L19.752 76.82H21.117L24.589 86.9H23.518L20.221 77.394H20.627L17.351 86.9H16.28ZM17.827 84.457V83.491H23.035V84.457H17.827ZM25.853 86.9V76.82H29.745C29.843 76.82 29.9527 76.8247 30.074 76.834C30.2 76.8387 30.326 76.8527 30.452 76.876C30.9794 76.9553 31.425 77.1397 31.789 77.429C32.1577 77.7137 32.4354 78.073 32.622 78.507C32.8134 78.941 32.909 79.4217 32.909 79.949C32.909 80.4717 32.8134 80.95 32.622 81.384C32.4307 81.818 32.1507 82.1797 31.782 82.469C31.418 82.7537 30.9747 82.9357 30.452 83.015C30.326 83.0337 30.2 83.0477 30.074 83.057C29.9527 83.0663 29.843 83.071 29.745 83.071H26.882V86.9H25.853ZM26.882 82.091H29.717C29.801 82.091 29.899 82.0863 30.011 82.077C30.123 82.0677 30.2327 82.0513 30.34 82.028C30.6854 81.9533 30.9677 81.811 31.187 81.601C31.411 81.391 31.5767 81.1413 31.684 80.852C31.796 80.5627 31.852 80.2617 31.852 79.949C31.852 79.6363 31.796 79.3353 31.684 79.046C31.5767 78.752 31.411 78.5 31.187 78.29C30.9677 78.08 30.6854 77.9377 30.34 77.863C30.2327 77.8397 30.123 77.8257 30.011 77.821C29.899 77.8117 29.801 77.807 29.717 77.807H26.882V82.091ZM34.4423 86.9V76.82H35.4713V86.9H34.4423ZM40.3908 87.103C39.5042 87.103 38.7738 86.9117 38.1998 86.529C37.6305 86.1463 37.2805 85.6143 37.1498 84.933L38.1998 84.758C38.3118 85.1873 38.5662 85.5303 38.9628 85.787C39.3642 86.039 39.8588 86.165 40.4468 86.165C41.0208 86.165 41.4735 86.046 41.8048 85.808C42.1362 85.5653 42.3018 85.2363 42.3018 84.821C42.3018 84.5877 42.2482 84.3987 42.1408 84.254C42.0382 84.1047 41.8258 83.967 41.5038 83.841C41.1818 83.715 40.7012 83.5657 40.0618 83.393C39.3758 83.2063 38.8392 83.0197 38.4518 82.833C38.0645 82.6463 37.7892 82.4317 37.6258 82.189C37.4625 81.9417 37.3808 81.6407 37.3808 81.286C37.3808 80.8567 37.5022 80.481 37.7448 80.159C37.9875 79.8323 38.3235 79.5803 38.7528 79.403C39.1822 79.221 39.6815 79.13 40.2508 79.13C40.8202 79.13 41.3288 79.2233 41.7768 79.41C42.2295 79.592 42.5935 79.8487 42.8688 80.18C43.1442 80.5113 43.3075 80.8963 43.3588 81.335L42.3088 81.524C42.2388 81.0807 42.0172 80.7307 41.6438 80.474C41.2752 80.2127 40.8062 80.0773 40.2368 80.068C39.7002 80.054 39.2638 80.1567 38.9278 80.376C38.5918 80.5907 38.4238 80.8777 38.4238 81.237C38.4238 81.4377 38.4845 81.6103 38.6058 81.755C38.7272 81.895 38.9465 82.028 39.2638 82.154C39.5858 82.28 40.0432 82.4177 40.6358 82.567C41.3312 82.7443 41.8772 82.931 42.2738 83.127C42.6705 83.323 42.9528 83.554 43.1208 83.82C43.2888 84.086 43.3728 84.415 43.3728 84.807C43.3728 85.521 43.1068 86.0833 42.5748 86.494C42.0475 86.9 41.3195 87.103 40.3908 87.103Z" fill="white"/>
<rect x="78.25" y="62.15" width="184.5" height="38.5" rx="19.25" fill="#466A59"/>
<rect x="78.25" y="62.15" width="184.5" height="38.5" rx="19.25" stroke="#212429" stroke-width="0.5"/>
<path d="M99.019 87.11C98.3097 87.11 97.6703 86.9863 97.101 86.739C96.5317 86.4917 96.0463 86.1393 95.645 85.682C95.2483 85.2247 94.945 84.674 94.735 84.03C94.525 83.3813 94.42 82.658 94.42 81.86C94.42 80.8053 94.602 79.886 94.966 79.102C95.3347 78.3133 95.862 77.702 96.548 77.268C97.234 76.834 98.0577 76.617 99.019 76.617C100.092 76.617 100.965 76.869 101.637 77.373C102.314 77.8723 102.785 78.5443 103.051 79.389L102.015 79.641C101.796 79.025 101.434 78.5327 100.93 78.164C100.431 77.7953 99.8077 77.611 99.061 77.611C98.2723 77.6063 97.6167 77.7837 97.094 78.143C96.5713 78.4977 96.177 78.997 95.911 79.641C95.6497 80.2803 95.5167 81.02 95.512 81.86C95.5073 82.7 95.6357 83.4397 95.897 84.079C96.163 84.7137 96.5597 85.213 97.087 85.577C97.6143 85.9363 98.2723 86.1183 99.061 86.123C99.7843 86.123 100.382 85.983 100.853 85.703C101.324 85.423 101.681 85.0217 101.924 84.499C102.171 83.9763 102.311 83.358 102.344 82.644H100.02V81.762H103.422C103.436 81.8693 103.443 81.9837 103.443 82.105C103.448 82.2217 103.45 82.3057 103.45 82.357C103.45 83.267 103.287 84.0813 102.96 84.8C102.633 85.514 102.141 86.0787 101.483 86.494C100.83 86.9047 100.008 87.11 99.019 87.11ZM108.008 87.11C107.257 87.11 106.615 86.9397 106.083 86.599C105.551 86.2583 105.143 85.787 104.858 85.185C104.573 84.583 104.431 83.8923 104.431 83.113C104.431 82.3197 104.576 81.6243 104.865 81.027C105.154 80.4297 105.565 79.9653 106.097 79.634C106.634 79.298 107.271 79.13 108.008 79.13C108.764 79.13 109.408 79.3003 109.94 79.641C110.477 79.977 110.885 80.446 111.165 81.048C111.45 81.6453 111.592 82.3337 111.592 83.113C111.592 83.9063 111.45 84.604 111.165 85.206C110.88 85.8033 110.47 86.27 109.933 86.606C109.396 86.942 108.755 87.11 108.008 87.11ZM108.008 86.123C108.848 86.123 109.473 85.8453 109.884 85.29C110.295 84.73 110.5 84.0043 110.5 83.113C110.5 82.1983 110.292 81.4703 109.877 80.929C109.466 80.3877 108.843 80.117 108.008 80.117C107.443 80.117 106.977 80.2453 106.608 80.502C106.244 80.754 105.971 81.1063 105.789 81.559C105.612 82.007 105.523 82.525 105.523 83.113C105.523 84.023 105.733 84.7533 106.153 85.304C106.573 85.85 107.191 86.123 108.008 86.123ZM112.996 82.931V82.049H117.196V82.931H112.996ZM123.131 86.9C122.706 86.9887 122.286 87.0237 121.871 87.005C121.46 86.9863 121.092 86.8977 120.765 86.739C120.443 86.5803 120.198 86.333 120.03 85.997C119.895 85.717 119.82 85.4347 119.806 85.15C119.797 84.8607 119.792 84.5317 119.792 84.163V77.24H120.814V84.121C120.814 84.4383 120.816 84.7043 120.821 84.919C120.83 85.129 120.879 85.3157 120.968 85.479C121.136 85.7917 121.402 85.9783 121.766 86.039C122.135 86.0997 122.59 86.0857 123.131 85.997V86.9ZM118.175 80.222V79.34H123.131V80.222H118.175ZM127.504 87.11C126.753 87.11 126.111 86.9397 125.579 86.599C125.047 86.2583 124.639 85.787 124.354 85.185C124.07 84.583 123.927 83.8923 123.927 83.113C123.927 82.3197 124.072 81.6243 124.361 81.027C124.651 80.4297 125.061 79.9653 125.593 79.634C126.13 79.298 126.767 79.13 127.504 79.13C128.26 79.13 128.904 79.3003 129.436 79.641C129.973 79.977 130.381 80.446 130.661 81.048C130.946 81.6453 131.088 82.3337 131.088 83.113C131.088 83.9063 130.946 84.604 130.661 85.206C130.377 85.8033 129.966 86.27 129.429 86.606C128.893 86.942 128.251 87.11 127.504 87.11ZM127.504 86.123C128.344 86.123 128.97 85.8453 129.38 85.29C129.791 84.73 129.996 84.0043 129.996 83.113C129.996 82.1983 129.789 81.4703 129.373 80.929C128.963 80.3877 128.34 80.117 127.504 80.117C126.94 80.117 126.473 80.2453 126.104 80.502C125.74 80.754 125.467 81.1063 125.285 81.559C125.108 82.007 125.019 82.525 125.019 83.113C125.019 84.023 125.229 84.7533 125.649 85.304C126.069 85.85 126.688 86.123 127.504 86.123ZM132.492 82.931V82.049H136.692V82.931H132.492ZM138.511 86.9V76.82H139.456L143.418 85.297L147.359 76.82H148.318V86.893H147.338V79.116L143.747 86.9H143.082L139.498 79.116V86.9H138.511ZM152.446 87.11C151.876 87.11 151.398 87.0073 151.011 86.802C150.628 86.5967 150.341 86.3237 150.15 85.983C149.958 85.6423 149.863 85.2713 149.863 84.87C149.863 84.4593 149.944 84.1093 150.108 83.82C150.276 83.526 150.502 83.2857 150.787 83.099C151.076 82.9123 151.41 82.77 151.788 82.672C152.17 82.5787 152.593 82.497 153.055 82.427C153.521 82.3523 153.976 82.2893 154.42 82.238C154.868 82.182 155.26 82.1283 155.596 82.077L155.232 82.301C155.246 81.5543 155.101 81.0013 154.798 80.642C154.494 80.2827 153.967 80.103 153.216 80.103C152.698 80.103 152.259 80.2197 151.9 80.453C151.545 80.6863 151.295 81.055 151.151 81.559L150.15 81.265C150.322 80.5883 150.67 80.0633 151.193 79.69C151.715 79.3167 152.394 79.13 153.23 79.13C153.92 79.13 154.506 79.2607 154.987 79.522C155.472 79.7787 155.815 80.152 156.016 80.642C156.109 80.8613 156.17 81.1063 156.198 81.377C156.226 81.6477 156.24 81.923 156.24 82.203V86.9H155.323V85.003L155.589 85.115C155.332 85.7637 154.933 86.2583 154.392 86.599C153.85 86.9397 153.202 87.11 152.446 87.11ZM152.565 86.221C153.045 86.221 153.465 86.1347 153.825 85.962C154.184 85.7893 154.473 85.5537 154.693 85.255C154.912 84.9517 155.054 84.611 155.12 84.233C155.176 83.9903 155.206 83.7243 155.211 83.435C155.215 83.141 155.218 82.9217 155.218 82.777L155.61 82.98C155.26 83.0267 154.879 83.0733 154.469 83.12C154.063 83.1667 153.661 83.2203 153.265 83.281C152.873 83.3417 152.518 83.414 152.201 83.498C151.986 83.5587 151.778 83.645 151.578 83.757C151.377 83.8643 151.211 84.009 151.081 84.191C150.955 84.373 150.892 84.5993 150.892 84.87C150.892 85.0893 150.945 85.3017 151.053 85.507C151.165 85.7123 151.342 85.8827 151.585 86.018C151.832 86.1533 152.159 86.221 152.565 86.221ZM158.062 86.9V79.34H158.986V81.16L158.804 80.922C158.888 80.698 158.998 80.4927 159.133 80.306C159.268 80.1147 159.415 79.9583 159.574 79.837C159.77 79.6643 159.999 79.5337 160.26 79.445C160.521 79.3517 160.785 79.298 161.051 79.284C161.317 79.2653 161.56 79.284 161.779 79.34V80.306C161.504 80.236 161.203 80.2197 160.876 80.257C160.549 80.2943 160.248 80.425 159.973 80.649C159.721 80.845 159.532 81.0807 159.406 81.356C159.28 81.6267 159.196 81.916 159.154 82.224C159.112 82.5273 159.091 82.8283 159.091 83.127V86.9H158.062ZM163.1 86.9L163.107 76.82H164.143V82.98L167.517 79.34H168.889L165.347 83.12L169.351 86.9H167.853L164.143 83.26V86.9H163.1ZM173.115 87.11C172.377 87.11 171.738 86.9467 171.197 86.62C170.66 86.2933 170.242 85.8337 169.944 85.241C169.645 84.6483 169.496 83.953 169.496 83.155C169.496 82.329 169.643 81.615 169.937 81.013C170.231 80.411 170.644 79.9467 171.176 79.62C171.712 79.2933 172.345 79.13 173.073 79.13C173.819 79.13 174.456 79.3027 174.984 79.648C175.511 79.9887 175.91 80.4787 176.181 81.118C176.451 81.7573 176.575 82.5203 176.552 83.407H175.502V83.043C175.483 82.063 175.271 81.3233 174.865 80.824C174.463 80.3247 173.875 80.075 173.101 80.075C172.289 80.075 171.666 80.3387 171.232 80.866C170.802 81.3933 170.588 82.1447 170.588 83.12C170.588 84.072 170.802 84.8117 171.232 85.339C171.666 85.8617 172.279 86.123 173.073 86.123C173.614 86.123 174.085 85.9993 174.487 85.752C174.893 85.5 175.212 85.1383 175.446 84.667L176.405 85.038C176.106 85.696 175.665 86.207 175.082 86.571C174.503 86.9303 173.847 87.11 173.115 87.11ZM170.224 83.407V82.546H175.999V83.407H170.224ZM182.221 86.9C181.796 86.9887 181.376 87.0237 180.961 87.005C180.55 86.9863 180.182 86.8977 179.855 86.739C179.533 86.5803 179.288 86.333 179.12 85.997C178.985 85.717 178.91 85.4347 178.896 85.15C178.887 84.8607 178.882 84.5317 178.882 84.163V77.24H179.904V84.121C179.904 84.4383 179.906 84.7043 179.911 84.919C179.92 85.129 179.969 85.3157 180.058 85.479C180.226 85.7917 180.492 85.9783 180.856 86.039C181.225 86.0997 181.68 86.0857 182.221 85.997V86.9ZM177.265 80.222V79.34H182.221V80.222H177.265ZM190.013 87.11C189.309 87.11 188.674 86.9933 188.109 86.76C187.549 86.522 187.085 86.186 186.716 85.752C186.352 85.318 186.114 84.8023 186.002 84.205L187.052 84.03C187.22 84.6833 187.575 85.1967 188.116 85.57C188.658 85.9387 189.304 86.123 190.055 86.123C190.55 86.123 190.993 86.046 191.385 85.892C191.777 85.7333 192.085 85.5093 192.309 85.22C192.533 84.9307 192.645 84.5877 192.645 84.191C192.645 83.9297 192.599 83.708 192.505 83.526C192.412 83.3393 192.288 83.1853 192.134 83.064C191.98 82.9427 191.812 82.8423 191.63 82.763C191.448 82.679 191.271 82.6113 191.098 82.56L188.543 81.797C188.235 81.7083 187.951 81.5963 187.689 81.461C187.428 81.321 187.199 81.1553 187.003 80.964C186.812 80.768 186.663 80.5393 186.555 80.278C186.448 80.0167 186.394 79.718 186.394 79.382C186.394 78.8127 186.544 78.3203 186.842 77.905C187.141 77.4897 187.549 77.17 188.067 76.946C188.585 76.722 189.176 76.6123 189.838 76.617C190.51 76.617 191.11 76.736 191.637 76.974C192.169 77.212 192.608 77.5527 192.953 77.996C193.299 78.4347 193.527 78.955 193.639 79.557L192.561 79.753C192.491 79.3143 192.33 78.934 192.078 78.612C191.826 78.29 191.504 78.0427 191.112 77.87C190.725 77.6927 190.298 77.6017 189.831 77.597C189.379 77.597 188.975 77.674 188.62 77.828C188.27 77.9773 187.993 78.1827 187.787 78.444C187.582 78.7053 187.479 79.004 187.479 79.34C187.479 79.6807 187.573 79.9537 187.759 80.159C187.951 80.3643 188.184 80.5253 188.459 80.642C188.739 80.7587 189.01 80.8543 189.271 80.929L191.245 81.51C191.451 81.566 191.691 81.6477 191.966 81.755C192.246 81.8577 192.517 82.007 192.778 82.203C193.044 82.3943 193.264 82.6463 193.436 82.959C193.609 83.2717 193.695 83.6683 193.695 84.149C193.695 84.6157 193.602 85.0333 193.415 85.402C193.233 85.7707 192.974 86.081 192.638 86.333C192.307 86.585 191.917 86.7763 191.469 86.907C191.026 87.0423 190.541 87.11 190.013 87.11ZM198.297 87.11C197.546 87.11 196.904 86.9397 196.372 86.599C195.84 86.2583 195.432 85.787 195.147 85.185C194.862 84.583 194.72 83.8923 194.72 83.113C194.72 82.3197 194.865 81.6243 195.154 81.027C195.443 80.4297 195.854 79.9653 196.386 79.634C196.923 79.298 197.56 79.13 198.297 79.13C199.053 79.13 199.697 79.3003 200.229 79.641C200.766 79.977 201.174 80.446 201.454 81.048C201.739 81.6453 201.881 82.3337 201.881 83.113C201.881 83.9063 201.739 84.604 201.454 85.206C201.169 85.8033 200.759 86.27 200.222 86.606C199.685 86.942 199.044 87.11 198.297 87.11ZM198.297 86.123C199.137 86.123 199.762 85.8453 200.173 85.29C200.584 84.73 200.789 84.0043 200.789 83.113C200.789 82.1983 200.581 81.4703 200.166 80.929C199.755 80.3877 199.132 80.117 198.297 80.117C197.732 80.117 197.266 80.2453 196.897 80.502C196.533 80.754 196.26 81.1063 196.078 81.559C195.901 82.007 195.812 82.525 195.812 83.113C195.812 84.023 196.022 84.7533 196.442 85.304C196.862 85.85 197.48 86.123 198.297 86.123ZM203.565 86.9V76.61H204.594V86.9H203.565ZM209.584 87.089C209.131 87.089 208.735 87.019 208.394 86.879C208.058 86.739 207.771 86.55 207.533 86.312C207.3 86.074 207.111 85.8033 206.966 85.5C206.821 85.192 206.716 84.8677 206.651 84.527C206.586 84.1817 206.553 83.8387 206.553 83.498V79.34H207.589V83.197C207.589 83.6123 207.629 83.9973 207.708 84.352C207.787 84.7067 207.913 85.017 208.086 85.283C208.263 85.5443 208.49 85.7473 208.765 85.892C209.045 86.0367 209.383 86.109 209.78 86.109C210.144 86.109 210.464 86.046 210.739 85.92C211.019 85.794 211.252 85.6143 211.439 85.381C211.63 85.143 211.775 84.856 211.873 84.52C211.971 84.1793 212.02 83.7967 212.02 83.372L212.748 83.533C212.748 84.3077 212.613 84.9587 212.342 85.486C212.071 86.0133 211.698 86.4123 211.222 86.683C210.746 86.9537 210.2 87.089 209.584 87.089ZM212.125 86.9V85.038H212.02V79.34H213.049V86.9H212.125ZM219.121 86.9C218.697 86.9887 218.277 87.0237 217.861 87.005C217.451 86.9863 217.082 86.8977 216.755 86.739C216.433 86.5803 216.188 86.333 216.02 85.997C215.885 85.717 215.81 85.4347 215.796 85.15C215.787 84.8607 215.782 84.5317 215.782 84.163V77.24H216.804V84.121C216.804 84.4383 216.807 84.7043 216.811 84.919C216.821 85.129 216.87 85.3157 216.958 85.479C217.126 85.7917 217.392 85.9783 217.756 86.039C218.125 86.0997 218.58 86.0857 219.121 85.997V86.9ZM214.165 80.222V79.34H219.121V80.222H214.165ZM220.751 77.905V76.75H221.78V77.905H220.751ZM220.751 86.9V79.34H221.78V86.9H220.751ZM227.035 87.11C226.284 87.11 225.642 86.9397 225.11 86.599C224.578 86.2583 224.17 85.787 223.885 85.185C223.601 84.583 223.458 83.8923 223.458 83.113C223.458 82.3197 223.603 81.6243 223.892 81.027C224.182 80.4297 224.592 79.9653 225.124 79.634C225.661 79.298 226.298 79.13 227.035 79.13C227.791 79.13 228.435 79.3003 228.967 79.641C229.504 79.977 229.912 80.446 230.192 81.048C230.477 81.6453 230.619 82.3337 230.619 83.113C230.619 83.9063 230.477 84.604 230.192 85.206C229.908 85.8033 229.497 86.27 228.96 86.606C228.424 86.942 227.782 87.11 227.035 87.11ZM227.035 86.123C227.875 86.123 228.501 85.8453 228.911 85.29C229.322 84.73 229.527 84.0043 229.527 83.113C229.527 82.1983 229.32 81.4703 228.904 80.929C228.494 80.3877 227.871 80.117 227.035 80.117C226.471 80.117 226.004 80.2453 225.635 80.502C225.271 80.754 224.998 81.1063 224.816 81.559C224.639 82.007 224.55 82.525 224.55 83.113C224.55 84.023 224.76 84.7533 225.18 85.304C225.6 85.85 226.219 86.123 227.035 86.123ZM237.624 86.9V83.043C237.624 82.623 237.584 82.238 237.505 81.888C237.425 81.5333 237.297 81.2253 237.12 80.964C236.947 80.698 236.721 80.4927 236.441 80.348C236.165 80.2033 235.829 80.131 235.433 80.131C235.069 80.131 234.747 80.194 234.467 80.32C234.191 80.446 233.958 80.628 233.767 80.866C233.58 81.0993 233.438 81.384 233.34 81.72C233.242 82.056 233.193 82.4387 233.193 82.868L232.465 82.707C232.465 81.9323 232.6 81.2813 232.871 80.754C233.141 80.2267 233.515 79.8277 233.991 79.557C234.467 79.2863 235.013 79.151 235.629 79.151C236.081 79.151 236.476 79.221 236.812 79.361C237.152 79.501 237.439 79.69 237.673 79.928C237.911 80.166 238.102 80.439 238.247 80.747C238.391 81.0503 238.496 81.3747 238.562 81.72C238.627 82.0607 238.66 82.4013 238.66 82.742V86.9H237.624ZM232.157 86.9V79.34H233.088V81.202H233.193V86.9H232.157ZM243.297 87.103C242.41 87.103 241.68 86.9117 241.106 86.529C240.537 86.1463 240.187 85.6143 240.056 84.933L241.106 84.758C241.218 85.1873 241.472 85.5303 241.869 85.787C242.27 86.039 242.765 86.165 243.353 86.165C243.927 86.165 244.38 86.046 244.711 85.808C245.042 85.5653 245.208 85.2363 245.208 84.821C245.208 84.5877 245.154 84.3987 245.047 84.254C244.944 84.1047 244.732 83.967 244.41 83.841C244.088 83.715 243.607 83.5657 242.968 83.393C242.282 83.2063 241.745 83.0197 241.358 82.833C240.971 82.6463 240.695 82.4317 240.532 82.189C240.369 81.9417 240.287 81.6407 240.287 81.286C240.287 80.8567 240.408 80.481 240.651 80.159C240.894 79.8323 241.23 79.5803 241.659 79.403C242.088 79.221 242.588 79.13 243.157 79.13C243.726 79.13 244.235 79.2233 244.683 79.41C245.136 79.592 245.5 79.8487 245.775 80.18C246.05 80.5113 246.214 80.8963 246.265 81.335L245.215 81.524C245.145 81.0807 244.923 80.7307 244.55 80.474C244.181 80.2127 243.712 80.0773 243.143 80.068C242.606 80.054 242.17 80.1567 241.834 80.376C241.498 80.5907 241.33 80.8777 241.33 81.237C241.33 81.4377 241.391 81.6103 241.512 81.755C241.633 81.895 241.853 82.028 242.17 82.154C242.492 82.28 242.949 82.4177 243.542 82.567C244.237 82.7443 244.783 82.931 245.18 83.127C245.577 83.323 245.859 83.554 246.027 83.82C246.195 84.086 246.279 84.415 246.279 84.807C246.279 85.521 246.013 86.0833 245.481 86.494C244.954 86.9 244.226 87.103 243.297 87.103Z" fill="white"/>
<rect x="0.25" y="123.15" width="172.5" height="38.5" rx="19.25" fill="#466A59"/>
<rect x="0.25" y="123.15" width="172.5" height="38.5" rx="19.25" stroke="#212429" stroke-width="0.5"/>
<path d="M16.98 147.9V137.82H23.28V138.807H18.009V142.293H22.44V143.28H18.009V146.913H23.28V147.9H16.98ZM27.1274 148.11C26.558 148.11 26.0797 148.007 25.6924 147.802C25.3097 147.597 25.0227 147.324 24.8314 146.983C24.64 146.642 24.5444 146.271 24.5444 145.87C24.5444 145.459 24.626 145.109 24.7894 144.82C24.9574 144.526 25.1837 144.286 25.4684 144.099C25.7577 143.912 26.0914 143.77 26.4694 143.672C26.852 143.579 27.2744 143.497 27.7364 143.427C28.203 143.352 28.658 143.289 29.1014 143.238C29.5494 143.182 29.9414 143.128 30.2774 143.077L29.9134 143.301C29.9274 142.554 29.7827 142.001 29.4794 141.642C29.176 141.283 28.6487 141.103 27.8974 141.103C27.3794 141.103 26.9407 141.22 26.5814 141.453C26.2267 141.686 25.977 142.055 25.8324 142.559L24.8314 142.265C25.004 141.588 25.3517 141.063 25.8744 140.69C26.397 140.317 27.076 140.13 27.9114 140.13C28.602 140.13 29.1877 140.261 29.6684 140.522C30.1537 140.779 30.4967 141.152 30.6974 141.642C30.7907 141.861 30.8514 142.106 30.8794 142.377C30.9074 142.648 30.9214 142.923 30.9214 143.203V147.9H30.0044V146.003L30.2704 146.115C30.0137 146.764 29.6147 147.258 29.0734 147.599C28.532 147.94 27.8834 148.11 27.1274 148.11ZM27.2464 147.221C27.727 147.221 28.147 147.135 28.5064 146.962C28.8657 146.789 29.155 146.554 29.3744 146.255C29.5937 145.952 29.736 145.611 29.8014 145.233C29.8574 144.99 29.8877 144.724 29.8924 144.435C29.897 144.141 29.8994 143.922 29.8994 143.777L30.2914 143.98C29.9414 144.027 29.561 144.073 29.1504 144.12C28.7444 144.167 28.343 144.22 27.9464 144.281C27.5544 144.342 27.1997 144.414 26.8824 144.498C26.6677 144.559 26.46 144.645 26.2594 144.757C26.0587 144.864 25.893 145.009 25.7624 145.191C25.6364 145.373 25.5734 145.599 25.5734 145.87C25.5734 146.089 25.627 146.302 25.7344 146.507C25.8464 146.712 26.0237 146.883 26.2664 147.018C26.5137 147.153 26.8404 147.221 27.2464 147.221ZM35.5647 148.103C34.678 148.103 33.9477 147.912 33.3737 147.529C32.8043 147.146 32.4543 146.614 32.3237 145.933L33.3737 145.758C33.4857 146.187 33.74 146.53 34.1367 146.787C34.538 147.039 35.0327 147.165 35.6207 147.165C36.1947 147.165 36.6473 147.046 36.9787 146.808C37.31 146.565 37.4757 146.236 37.4757 145.821C37.4757 145.588 37.422 145.399 37.3147 145.254C37.212 145.105 36.9997 144.967 36.6777 144.841C36.3557 144.715 35.875 144.566 35.2357 144.393C34.5497 144.206 34.013 144.02 33.6257 143.833C33.2383 143.646 32.963 143.432 32.7997 143.189C32.6363 142.942 32.5547 142.641 32.5547 142.286C32.5547 141.857 32.676 141.481 32.9187 141.159C33.1613 140.832 33.4973 140.58 33.9267 140.403C34.356 140.221 34.8553 140.13 35.4247 140.13C35.994 140.13 36.5027 140.223 36.9507 140.41C37.4033 140.592 37.7673 140.849 38.0427 141.18C38.318 141.511 38.4813 141.896 38.5327 142.335L37.4827 142.524C37.4127 142.081 37.191 141.731 36.8177 141.474C36.449 141.213 35.98 141.077 35.4107 141.068C34.874 141.054 34.4377 141.157 34.1017 141.376C33.7657 141.591 33.5977 141.878 33.5977 142.237C33.5977 142.438 33.6583 142.61 33.7797 142.755C33.901 142.895 34.1203 143.028 34.4377 143.154C34.7597 143.28 35.217 143.418 35.8097 143.567C36.505 143.744 37.051 143.931 37.4477 144.127C37.8443 144.323 38.1267 144.554 38.2947 144.82C38.4627 145.086 38.5467 145.415 38.5467 145.807C38.5467 146.521 38.2807 147.083 37.7487 147.494C37.2213 147.9 36.4933 148.103 35.5647 148.103ZM40.9037 151.26L42.3667 147.291L42.3877 148.467L39.0767 140.34H40.1687L42.8847 147.137H42.4367L44.9427 140.34H45.9927L41.9327 151.26H40.9037ZM47.0685 143.931V143.049H51.2685V143.931H47.0685ZM57.2034 147.9C56.7788 147.989 56.3588 148.024 55.9434 148.005C55.5328 147.986 55.1641 147.898 54.8374 147.739C54.5154 147.58 54.2704 147.333 54.1024 146.997C53.9671 146.717 53.8924 146.435 53.8784 146.15C53.8691 145.861 53.8644 145.532 53.8644 145.163V138.24H54.8864V145.121C54.8864 145.438 54.8888 145.704 54.8934 145.919C54.9028 146.129 54.9518 146.316 55.0404 146.479C55.2084 146.792 55.4744 146.978 55.8384 147.039C56.2071 147.1 56.6621 147.086 57.2034 146.997V147.9ZM52.2474 141.222V140.34H57.2034V141.222H52.2474ZM61.5765 148.11C60.8251 148.11 60.1835 147.94 59.6515 147.599C59.1195 147.258 58.7111 146.787 58.4265 146.185C58.1418 145.583 57.9995 144.892 57.9995 144.113C57.9995 143.32 58.1441 142.624 58.4335 142.027C58.7228 141.43 59.1335 140.965 59.6655 140.634C60.2021 140.298 60.8391 140.13 61.5765 140.13C62.3325 140.13 62.9765 140.3 63.5085 140.641C64.0451 140.977 64.4535 141.446 64.7335 142.048C65.0181 142.645 65.1605 143.334 65.1605 144.113C65.1605 144.906 65.0181 145.604 64.7335 146.206C64.4488 146.803 64.0381 147.27 63.5015 147.606C62.9648 147.942 62.3231 148.11 61.5765 148.11ZM61.5765 147.123C62.4165 147.123 63.0418 146.845 63.4525 146.29C63.8631 145.73 64.0685 145.004 64.0685 144.113C64.0685 143.198 63.8608 142.47 63.4455 141.929C63.0348 141.388 62.4118 141.117 61.5765 141.117C61.0118 141.117 60.5451 141.245 60.1765 141.502C59.8125 141.754 59.5395 142.106 59.3575 142.559C59.1801 143.007 59.0915 143.525 59.0915 144.113C59.0915 145.023 59.3015 145.753 59.7215 146.304C60.1415 146.85 60.7598 147.123 61.5765 147.123ZM66.5646 143.931V143.049H70.7646V143.931H66.5646ZM75.4745 148.089C75.0218 148.089 74.6252 148.019 74.2845 147.879C73.9485 147.739 73.6615 147.55 73.4235 147.312C73.1902 147.074 73.0012 146.803 72.8565 146.5C72.7118 146.192 72.6068 145.868 72.5415 145.527C72.4762 145.182 72.4435 144.839 72.4435 144.498V140.34H73.4795V144.197C73.4795 144.612 73.5192 144.997 73.5985 145.352C73.6778 145.707 73.8038 146.017 73.9765 146.283C74.1538 146.544 74.3802 146.747 74.6555 146.892C74.9355 147.037 75.2738 147.109 75.6705 147.109C76.0345 147.109 76.3542 147.046 76.6295 146.92C76.9095 146.794 77.1428 146.614 77.3295 146.381C77.5208 146.143 77.6655 145.856 77.7635 145.52C77.8615 145.179 77.9105 144.797 77.9105 144.372L78.6385 144.533C78.6385 145.308 78.5032 145.959 78.2325 146.486C77.9618 147.013 77.5885 147.412 77.1125 147.683C76.6365 147.954 76.0905 148.089 75.4745 148.089ZM78.0155 147.9V146.038H77.9105V140.34H78.9395V147.9H78.0155ZM83.717 148.103C82.8303 148.103 82.1 147.912 81.526 147.529C80.9567 147.146 80.6067 146.614 80.476 145.933L81.526 145.758C81.638 146.187 81.8923 146.53 82.289 146.787C82.6903 147.039 83.185 147.165 83.773 147.165C84.347 147.165 84.7997 147.046 85.131 146.808C85.4623 146.565 85.628 146.236 85.628 145.821C85.628 145.588 85.5743 145.399 85.467 145.254C85.3643 145.105 85.152 144.967 84.83 144.841C84.508 144.715 84.0273 144.566 83.388 144.393C82.702 144.206 82.1653 144.02 81.778 143.833C81.3907 143.646 81.1153 143.432 80.952 143.189C80.7887 142.942 80.707 142.641 80.707 142.286C80.707 141.857 80.8283 141.481 81.071 141.159C81.3137 140.832 81.6497 140.58 82.079 140.403C82.5083 140.221 83.0077 140.13 83.577 140.13C84.1463 140.13 84.655 140.223 85.103 140.41C85.5557 140.592 85.9197 140.849 86.195 141.18C86.4703 141.511 86.6337 141.896 86.685 142.335L85.635 142.524C85.565 142.081 85.3433 141.731 84.97 141.474C84.6013 141.213 84.1323 141.077 83.563 141.068C83.0263 141.054 82.59 141.157 82.254 141.376C81.918 141.591 81.75 141.878 81.75 142.237C81.75 142.438 81.8107 142.61 81.932 142.755C82.0533 142.895 82.2727 143.028 82.59 143.154C82.912 143.28 83.3693 143.418 83.962 143.567C84.6573 143.744 85.2033 143.931 85.6 144.127C85.9967 144.323 86.279 144.554 86.447 144.82C86.615 145.086 86.699 145.415 86.699 145.807C86.699 146.521 86.433 147.083 85.901 147.494C85.3737 147.9 84.6457 148.103 83.717 148.103ZM91.4505 148.11C90.7132 148.11 90.0738 147.947 89.5325 147.62C88.9958 147.293 88.5782 146.834 88.2795 146.241C87.9808 145.648 87.8315 144.953 87.8315 144.155C87.8315 143.329 87.9785 142.615 88.2725 142.013C88.5665 141.411 88.9795 140.947 89.5115 140.62C90.0482 140.293 90.6805 140.13 91.4085 140.13C92.1552 140.13 92.7922 140.303 93.3195 140.648C93.8468 140.989 94.2458 141.479 94.5165 142.118C94.7872 142.757 94.9108 143.52 94.8875 144.407H93.8375V144.043C93.8188 143.063 93.6065 142.323 93.2005 141.824C92.7992 141.325 92.2112 141.075 91.4365 141.075C90.6245 141.075 90.0015 141.339 89.5675 141.866C89.1382 142.393 88.9235 143.145 88.9235 144.12C88.9235 145.072 89.1382 145.812 89.5675 146.339C90.0015 146.862 90.6152 147.123 91.4085 147.123C91.9498 147.123 92.4212 146.999 92.8225 146.752C93.2285 146.5 93.5482 146.138 93.7815 145.667L94.7405 146.038C94.4418 146.696 94.0008 147.207 93.4175 147.571C92.8388 147.93 92.1832 148.11 91.4505 148.11ZM88.5595 144.407V143.546H94.3345V144.407H88.5595ZM99.3837 138.905V137.75H100.413V138.905H99.3837ZM99.3837 147.9V140.34H100.413V147.9H99.3837ZM107.971 147.9V144.043C107.971 143.623 107.932 143.238 107.852 142.888C107.773 142.533 107.645 142.225 107.467 141.964C107.295 141.698 107.068 141.493 106.788 141.348C106.513 141.203 106.177 141.131 105.78 141.131C105.416 141.131 105.094 141.194 104.814 141.32C104.539 141.446 104.306 141.628 104.114 141.866C103.928 142.099 103.785 142.384 103.687 142.72C103.589 143.056 103.54 143.439 103.54 143.868L102.812 143.707C102.812 142.932 102.948 142.281 103.218 141.754C103.489 141.227 103.862 140.828 104.338 140.557C104.814 140.286 105.36 140.151 105.976 140.151C106.429 140.151 106.823 140.221 107.159 140.361C107.5 140.501 107.787 140.69 108.02 140.928C108.258 141.166 108.45 141.439 108.594 141.747C108.739 142.05 108.844 142.375 108.909 142.72C108.975 143.061 109.007 143.401 109.007 143.742V147.9H107.971ZM102.504 147.9V140.34H103.435V142.202H103.54V147.9H102.504ZM114.94 147.9C114.515 147.989 114.095 148.024 113.68 148.005C113.269 147.986 112.9 147.898 112.574 147.739C112.252 147.58 112.007 147.333 111.839 146.997C111.703 146.717 111.629 146.435 111.615 146.15C111.605 145.861 111.601 145.532 111.601 145.163V138.24H112.623V145.121C112.623 145.438 112.625 145.704 112.63 145.919C112.639 146.129 112.688 146.316 112.777 146.479C112.945 146.792 113.211 146.978 113.575 147.039C113.943 147.1 114.398 147.086 114.94 146.997V147.9ZM109.984 141.222V140.34H114.94V141.222H109.984ZM119.355 148.11C118.617 148.11 117.978 147.947 117.437 147.62C116.9 147.293 116.482 146.834 116.184 146.241C115.885 145.648 115.736 144.953 115.736 144.155C115.736 143.329 115.883 142.615 116.177 142.013C116.471 141.411 116.884 140.947 117.416 140.62C117.952 140.293 118.585 140.13 119.313 140.13C120.059 140.13 120.696 140.303 121.224 140.648C121.751 140.989 122.15 141.479 122.421 142.118C122.691 142.757 122.815 143.52 122.792 144.407H121.742V144.043C121.723 143.063 121.511 142.323 121.105 141.824C120.703 141.325 120.115 141.075 119.341 141.075C118.529 141.075 117.906 141.339 117.472 141.866C117.042 142.393 116.828 143.145 116.828 144.12C116.828 145.072 117.042 145.812 117.472 146.339C117.906 146.862 118.519 147.123 119.313 147.123C119.854 147.123 120.325 146.999 120.727 146.752C121.133 146.5 121.452 146.138 121.686 145.667L122.645 146.038C122.346 146.696 121.905 147.207 121.322 147.571C120.743 147.93 120.087 148.11 119.355 148.11ZM116.464 144.407V143.546H122.239V144.407H116.464ZM124.345 147.9V140.34H125.269V142.16L125.087 141.922C125.171 141.698 125.281 141.493 125.416 141.306C125.552 141.115 125.699 140.958 125.857 140.837C126.053 140.664 126.282 140.534 126.543 140.445C126.805 140.352 127.068 140.298 127.334 140.284C127.6 140.265 127.843 140.284 128.062 140.34V141.306C127.787 141.236 127.486 141.22 127.159 141.257C126.833 141.294 126.532 141.425 126.256 141.649C126.004 141.845 125.815 142.081 125.689 142.356C125.563 142.627 125.479 142.916 125.437 143.224C125.395 143.527 125.374 143.828 125.374 144.127V147.9H124.345ZM130.139 147.9V139.78C130.139 139.584 130.148 139.39 130.167 139.199C130.19 139.008 130.235 138.826 130.3 138.653C130.365 138.476 130.468 138.312 130.608 138.163C130.762 137.995 130.93 137.874 131.112 137.799C131.294 137.72 131.483 137.668 131.679 137.645C131.88 137.622 132.076 137.61 132.267 137.61H133.233V138.478H132.337C131.945 138.478 131.651 138.574 131.455 138.765C131.264 138.956 131.168 139.257 131.168 139.668V147.9H130.139ZM128.83 141.222V140.34H133.233V141.222H128.83ZM136.311 148.11C135.742 148.11 135.263 148.007 134.876 147.802C134.493 147.597 134.206 147.324 134.015 146.983C133.824 146.642 133.728 146.271 133.728 145.87C133.728 145.459 133.81 145.109 133.973 144.82C134.141 144.526 134.367 144.286 134.652 144.099C134.941 143.912 135.275 143.77 135.653 143.672C136.036 143.579 136.458 143.497 136.92 143.427C137.387 143.352 137.842 143.289 138.285 143.238C138.733 143.182 139.125 143.128 139.461 143.077L139.097 143.301C139.111 142.554 138.966 142.001 138.663 141.642C138.36 141.283 137.832 141.103 137.081 141.103C136.563 141.103 136.124 141.22 135.765 141.453C135.41 141.686 135.161 142.055 135.016 142.559L134.015 142.265C134.188 141.588 134.535 141.063 135.058 140.69C135.581 140.317 136.26 140.13 137.095 140.13C137.786 140.13 138.371 140.261 138.852 140.522C139.337 140.779 139.68 141.152 139.881 141.642C139.974 141.861 140.035 142.106 140.063 142.377C140.091 142.648 140.105 142.923 140.105 143.203V147.9H139.188V146.003L139.454 146.115C139.197 146.764 138.798 147.258 138.257 147.599C137.716 147.94 137.067 148.11 136.311 148.11ZM136.43 147.221C136.911 147.221 137.331 147.135 137.69 146.962C138.049 146.789 138.339 146.554 138.558 146.255C138.777 145.952 138.92 145.611 138.985 145.233C139.041 144.99 139.071 144.724 139.076 144.435C139.081 144.141 139.083 143.922 139.083 143.777L139.475 143.98C139.125 144.027 138.745 144.073 138.334 144.12C137.928 144.167 137.527 144.22 137.13 144.281C136.738 144.342 136.383 144.414 136.066 144.498C135.851 144.559 135.644 144.645 135.443 144.757C135.242 144.864 135.077 145.009 134.946 145.191C134.82 145.373 134.757 145.599 134.757 145.87C134.757 146.089 134.811 146.302 134.918 146.507C135.03 146.712 135.207 146.883 135.45 147.018C135.697 147.153 136.024 147.221 136.43 147.221ZM145.063 148.11C144.303 148.11 143.659 147.94 143.131 147.599C142.604 147.258 142.203 146.789 141.927 146.192C141.657 145.59 141.517 144.899 141.507 144.12C141.517 143.327 141.661 142.631 141.941 142.034C142.221 141.432 142.625 140.965 143.152 140.634C143.68 140.298 144.319 140.13 145.07 140.13C145.836 140.13 146.501 140.317 147.065 140.69C147.635 141.063 148.024 141.574 148.234 142.223L147.226 142.545C147.049 142.092 146.767 141.742 146.379 141.495C145.997 141.243 145.558 141.117 145.063 141.117C144.508 141.117 144.048 141.245 143.684 141.502C143.32 141.754 143.05 142.106 142.872 142.559C142.695 143.012 142.604 143.532 142.599 144.12C142.609 145.025 142.819 145.753 143.229 146.304C143.64 146.85 144.251 147.123 145.063 147.123C145.577 147.123 146.013 147.006 146.372 146.773C146.736 146.535 147.012 146.19 147.198 145.737L148.234 146.045C147.954 146.717 147.544 147.23 147.002 147.585C146.461 147.935 145.815 148.11 145.063 148.11ZM152.673 148.11C151.936 148.11 151.296 147.947 150.755 147.62C150.218 147.293 149.801 146.834 149.502 146.241C149.203 145.648 149.054 144.953 149.054 144.155C149.054 143.329 149.201 142.615 149.495 142.013C149.789 141.411 150.202 140.947 150.734 140.62C151.271 140.293 151.903 140.13 152.631 140.13C153.378 140.13 154.015 140.303 154.542 140.648C155.069 140.989 155.468 141.479 155.739 142.118C156.01 142.757 156.133 143.52 156.11 144.407H155.06V144.043C155.041 143.063 154.829 142.323 154.423 141.824C154.022 141.325 153.434 141.075 152.659 141.075C151.847 141.075 151.224 141.339 150.79 141.866C150.361 142.393 150.146 143.145 150.146 144.12C150.146 145.072 150.361 145.812 150.79 146.339C151.224 146.862 151.838 147.123 152.631 147.123C153.172 147.123 153.644 146.999 154.045 146.752C154.451 146.5 154.771 146.138 155.004 145.667L155.963 146.038C155.664 146.696 155.223 147.207 154.64 147.571C154.061 147.93 153.406 148.11 152.673 148.11ZM149.782 144.407V143.546H155.557V144.407H149.782Z" fill="white"/>
<rect x="192.25" y="123.15" width="86.5" height="38.5" rx="19.25" fill="#466A59"/>
<rect x="192.25" y="123.15" width="86.5" height="38.5" rx="19.25" stroke="#212429" stroke-width="0.5"/>
<path d="M212.48 148.11C211.775 148.11 211.141 147.993 210.576 147.76C210.016 147.522 209.552 147.186 209.183 146.752C208.819 146.318 208.581 145.802 208.469 145.205L209.519 145.03C209.687 145.683 210.042 146.197 210.583 146.57C211.124 146.939 211.771 147.123 212.522 147.123C213.017 147.123 213.46 147.046 213.852 146.892C214.244 146.733 214.552 146.509 214.776 146.22C215 145.931 215.112 145.588 215.112 145.191C215.112 144.93 215.065 144.708 214.972 144.526C214.879 144.339 214.755 144.185 214.601 144.064C214.447 143.943 214.279 143.842 214.097 143.763C213.915 143.679 213.738 143.611 213.565 143.56L211.01 142.797C210.702 142.708 210.417 142.596 210.156 142.461C209.895 142.321 209.666 142.155 209.47 141.964C209.279 141.768 209.129 141.539 209.022 141.278C208.915 141.017 208.861 140.718 208.861 140.382C208.861 139.813 209.01 139.32 209.309 138.905C209.608 138.49 210.016 138.17 210.534 137.946C211.052 137.722 211.642 137.612 212.305 137.617C212.977 137.617 213.577 137.736 214.104 137.974C214.636 138.212 215.075 138.553 215.42 138.996C215.765 139.435 215.994 139.955 216.106 140.557L215.028 140.753C214.958 140.314 214.797 139.934 214.545 139.612C214.293 139.29 213.971 139.043 213.579 138.87C213.192 138.693 212.765 138.602 212.298 138.597C211.845 138.597 211.442 138.674 211.087 138.828C210.737 138.977 210.459 139.183 210.254 139.444C210.049 139.705 209.946 140.004 209.946 140.34C209.946 140.681 210.039 140.954 210.226 141.159C210.417 141.364 210.651 141.525 210.926 141.642C211.206 141.759 211.477 141.854 211.738 141.929L213.712 142.51C213.917 142.566 214.158 142.648 214.433 142.755C214.713 142.858 214.984 143.007 215.245 143.203C215.511 143.394 215.73 143.646 215.903 143.959C216.076 144.272 216.162 144.668 216.162 145.149C216.162 145.616 216.069 146.033 215.882 146.402C215.7 146.771 215.441 147.081 215.105 147.333C214.774 147.585 214.384 147.776 213.936 147.907C213.493 148.042 213.007 148.11 212.48 148.11ZM220.743 148.11C219.982 148.11 219.338 147.94 218.811 147.599C218.284 147.258 217.882 146.789 217.607 146.192C217.336 145.59 217.196 144.899 217.187 144.12C217.196 143.327 217.341 142.631 217.621 142.034C217.901 141.432 218.305 140.965 218.832 140.634C219.359 140.298 219.999 140.13 220.75 140.13C221.515 140.13 222.18 140.317 222.745 140.69C223.314 141.063 223.704 141.574 223.914 142.223L222.906 142.545C222.729 142.092 222.446 141.742 222.059 141.495C221.676 141.243 221.238 141.117 220.743 141.117C220.188 141.117 219.728 141.245 219.364 141.502C219 141.754 218.729 142.106 218.552 142.559C218.375 143.012 218.284 143.532 218.279 144.12C218.288 145.025 218.498 145.753 218.909 146.304C219.32 146.85 219.931 147.123 220.743 147.123C221.256 147.123 221.693 147.006 222.052 146.773C222.416 146.535 222.691 146.19 222.878 145.737L223.914 146.045C223.634 146.717 223.223 147.23 222.682 147.585C222.141 147.935 221.494 148.11 220.743 148.11ZM227.481 148.11C226.912 148.11 226.433 148.007 226.046 147.802C225.663 147.597 225.376 147.324 225.185 146.983C224.994 146.642 224.898 146.271 224.898 145.87C224.898 145.459 224.98 145.109 225.143 144.82C225.311 144.526 225.537 144.286 225.822 144.099C226.111 143.912 226.445 143.77 226.823 143.672C227.206 143.579 227.628 143.497 228.09 143.427C228.557 143.352 229.012 143.289 229.455 143.238C229.903 143.182 230.295 143.128 230.631 143.077L230.267 143.301C230.281 142.554 230.136 142.001 229.833 141.642C229.53 141.283 229.002 141.103 228.251 141.103C227.733 141.103 227.294 141.22 226.935 141.453C226.58 141.686 226.331 142.055 226.186 142.559L225.185 142.265C225.358 141.588 225.705 141.063 226.228 140.69C226.751 140.317 227.43 140.13 228.265 140.13C228.956 140.13 229.541 140.261 230.022 140.522C230.507 140.779 230.85 141.152 231.051 141.642C231.144 141.861 231.205 142.106 231.233 142.377C231.261 142.648 231.275 142.923 231.275 143.203V147.9H230.358V146.003L230.624 146.115C230.367 146.764 229.968 147.258 229.427 147.599C228.886 147.94 228.237 148.11 227.481 148.11ZM227.6 147.221C228.081 147.221 228.501 147.135 228.86 146.962C229.219 146.789 229.509 146.554 229.728 146.255C229.947 145.952 230.09 145.611 230.155 145.233C230.211 144.99 230.241 144.724 230.246 144.435C230.251 144.141 230.253 143.922 230.253 143.777L230.645 143.98C230.295 144.027 229.915 144.073 229.504 144.12C229.098 144.167 228.697 144.22 228.3 144.281C227.908 144.342 227.553 144.414 227.236 144.498C227.021 144.559 226.814 144.645 226.613 144.757C226.412 144.864 226.247 145.009 226.116 145.191C225.99 145.373 225.927 145.599 225.927 145.87C225.927 146.089 225.981 146.302 226.088 146.507C226.2 146.712 226.377 146.883 226.62 147.018C226.867 147.153 227.194 147.221 227.6 147.221ZM233.237 147.9V137.61H234.266V147.9H233.237ZM238.528 148.11C237.958 148.11 237.48 148.007 237.093 147.802C236.71 147.597 236.423 147.324 236.232 146.983C236.04 146.642 235.945 146.271 235.945 145.87C235.945 145.459 236.026 145.109 236.19 144.82C236.358 144.526 236.584 144.286 236.869 144.099C237.158 143.912 237.492 143.77 237.87 143.672C238.252 143.579 238.675 143.497 239.137 143.427C239.603 143.352 240.058 143.289 240.502 143.238C240.95 143.182 241.342 143.128 241.678 143.077L241.314 143.301C241.328 142.554 241.183 142.001 240.88 141.642C240.576 141.283 240.049 141.103 239.298 141.103C238.78 141.103 238.341 141.22 237.982 141.453C237.627 141.686 237.377 142.055 237.233 142.559L236.232 142.265C236.404 141.588 236.752 141.063 237.275 140.69C237.797 140.317 238.476 140.13 239.312 140.13C240.002 140.13 240.588 140.261 241.069 140.522C241.554 140.779 241.897 141.152 242.098 141.642C242.191 141.861 242.252 142.106 242.28 142.377C242.308 142.648 242.322 142.923 242.322 143.203V147.9H241.405V146.003L241.671 146.115C241.414 146.764 241.015 147.258 240.474 147.599C239.932 147.94 239.284 148.11 238.528 148.11ZM238.647 147.221C239.127 147.221 239.547 147.135 239.907 146.962C240.266 146.789 240.555 146.554 240.775 146.255C240.994 145.952 241.136 145.611 241.202 145.233C241.258 144.99 241.288 144.724 241.293 144.435C241.297 144.141 241.3 143.922 241.3 143.777L241.692 143.98C241.342 144.027 240.961 144.073 240.551 144.12C240.145 144.167 239.743 144.22 239.347 144.281C238.955 144.342 238.6 144.414 238.283 144.498C238.068 144.559 237.86 144.645 237.66 144.757C237.459 144.864 237.293 145.009 237.163 145.191C237.037 145.373 236.974 145.599 236.974 145.87C236.974 146.089 237.027 146.302 237.135 146.507C237.247 146.712 237.424 146.883 237.667 147.018C237.914 147.153 238.241 147.221 238.647 147.221ZM247.539 148.11C246.844 148.11 246.256 147.935 245.775 147.585C245.294 147.23 244.93 146.752 244.683 146.15C244.436 145.543 244.312 144.864 244.312 144.113C244.312 143.348 244.436 142.666 244.683 142.069C244.935 141.467 245.304 140.993 245.789 140.648C246.274 140.303 246.872 140.13 247.581 140.13C248.272 140.13 248.864 140.305 249.359 140.655C249.854 141.005 250.232 141.481 250.493 142.083C250.759 142.685 250.892 143.362 250.892 144.113C250.892 144.869 250.759 145.548 250.493 146.15C250.227 146.752 249.844 147.23 249.345 147.585C248.846 147.935 248.244 148.11 247.539 148.11ZM244.137 147.9V137.82H245.173V142.209H245.061V147.9H244.137ZM247.434 147.151C247.961 147.151 248.4 147.018 248.75 146.752C249.1 146.486 249.361 146.124 249.534 145.667C249.711 145.205 249.8 144.687 249.8 144.113C249.8 143.544 249.714 143.03 249.541 142.573C249.368 142.116 249.105 141.754 248.75 141.488C248.4 141.222 247.954 141.089 247.413 141.089C246.886 141.089 246.447 141.217 246.097 141.474C245.752 141.731 245.493 142.088 245.32 142.545C245.147 142.998 245.061 143.52 245.061 144.113C245.061 144.696 245.147 145.219 245.32 145.681C245.493 146.138 245.754 146.498 246.104 146.759C246.454 147.02 246.897 147.151 247.434 147.151ZM252.569 147.9V137.61H253.598V147.9H252.569ZM258.896 148.11C258.158 148.11 257.519 147.947 256.978 147.62C256.441 147.293 256.023 146.834 255.725 146.241C255.426 145.648 255.277 144.953 255.277 144.155C255.277 143.329 255.424 142.615 255.718 142.013C256.012 141.411 256.425 140.947 256.957 140.62C257.493 140.293 258.126 140.13 258.854 140.13C259.6 140.13 260.237 140.303 260.765 140.648C261.292 140.989 261.691 141.479 261.962 142.118C262.232 142.757 262.356 143.52 262.333 144.407H261.283V144.043C261.264 143.063 261.052 142.323 260.646 141.824C260.244 141.325 259.656 141.075 258.882 141.075C258.07 141.075 257.447 141.339 257.013 141.866C256.583 142.393 256.369 143.145 256.369 144.12C256.369 145.072 256.583 145.812 257.013 146.339C257.447 146.862 258.06 147.123 258.854 147.123C259.395 147.123 259.866 146.999 260.268 146.752C260.674 146.5 260.993 146.138 261.227 145.667L262.186 146.038C261.887 146.696 261.446 147.207 260.863 147.571C260.284 147.93 259.628 148.11 258.896 148.11ZM256.005 144.407V143.546H261.78V144.407H256.005Z" fill="white"/>
<rect x="0.25" y="184.15" width="141.5" height="38.5" rx="19.25" fill="#466A59"/>
<rect x="0.25" y="184.15" width="141.5" height="38.5" rx="19.25" stroke="#212429" stroke-width="0.5"/>
<path d="M16.98 208.9V198.82H22.769V199.849H18.009V203.349H21.929V204.371H18.009V208.9H16.98ZM25.9243 209.11C25.3549 209.11 24.8766 209.007 24.4893 208.802C24.1066 208.597 23.8196 208.324 23.6283 207.983C23.4369 207.642 23.3413 207.271 23.3413 206.87C23.3413 206.459 23.4229 206.109 23.5863 205.82C23.7543 205.526 23.9806 205.286 24.2653 205.099C24.5546 204.912 24.8883 204.77 25.2663 204.672C25.6489 204.579 26.0713 204.497 26.5333 204.427C26.9999 204.352 27.4549 204.289 27.8983 204.238C28.3463 204.182 28.7383 204.128 29.0743 204.077L28.7103 204.301C28.7243 203.554 28.5796 203.001 28.2763 202.642C27.9729 202.283 27.4456 202.103 26.6943 202.103C26.1763 202.103 25.7376 202.22 25.3783 202.453C25.0236 202.686 24.7739 203.055 24.6292 203.559L23.6283 203.265C23.8009 202.588 24.1486 202.063 24.6713 201.69C25.1939 201.317 25.8729 201.13 26.7083 201.13C27.3989 201.13 27.9846 201.261 28.4653 201.522C28.9506 201.779 29.2936 202.152 29.4943 202.642C29.5876 202.861 29.6483 203.106 29.6763 203.377C29.7043 203.648 29.7183 203.923 29.7183 204.203V208.9H28.8013V207.003L29.0673 207.115C28.8106 207.764 28.4116 208.258 27.8703 208.599C27.3289 208.94 26.6803 209.11 25.9243 209.11ZM26.0433 208.221C26.5239 208.221 26.9439 208.135 27.3033 207.962C27.6626 207.789 27.9519 207.554 28.1713 207.255C28.3906 206.952 28.5329 206.611 28.5983 206.233C28.6543 205.99 28.6846 205.724 28.6893 205.435C28.6939 205.141 28.6963 204.922 28.6963 204.777L29.0883 204.98C28.7383 205.027 28.3579 205.073 27.9473 205.12C27.5413 205.167 27.1399 205.22 26.7433 205.281C26.3513 205.342 25.9966 205.414 25.6793 205.498C25.4646 205.559 25.2569 205.645 25.0563 205.757C24.8556 205.864 24.6899 206.009 24.5593 206.191C24.4333 206.373 24.3703 206.599 24.3703 206.87C24.3703 207.089 24.4239 207.302 24.5312 207.507C24.6433 207.712 24.8206 207.883 25.0633 208.018C25.3106 208.153 25.6373 208.221 26.0433 208.221ZM34.3615 209.103C33.4749 209.103 32.7445 208.912 32.1705 208.529C31.6012 208.146 31.2512 207.614 31.1205 206.933L32.1705 206.758C32.2825 207.187 32.5369 207.53 32.9335 207.787C33.3349 208.039 33.8295 208.165 34.4175 208.165C34.9915 208.165 35.4442 208.046 35.7755 207.808C36.1069 207.565 36.2725 207.236 36.2725 206.821C36.2725 206.588 36.2189 206.399 36.1115 206.254C36.0089 206.105 35.7965 205.967 35.4745 205.841C35.1525 205.715 34.6719 205.566 34.0325 205.393C33.3465 205.206 32.8099 205.02 32.4225 204.833C32.0352 204.646 31.7599 204.432 31.5965 204.189C31.4332 203.942 31.3515 203.641 31.3515 203.286C31.3515 202.857 31.4729 202.481 31.7155 202.159C31.9582 201.832 32.2942 201.58 32.7235 201.403C33.1529 201.221 33.6522 201.13 34.2215 201.13C34.7909 201.13 35.2995 201.223 35.7475 201.41C36.2002 201.592 36.5642 201.849 36.8395 202.18C37.1149 202.511 37.2782 202.896 37.3295 203.335L36.2795 203.524C36.2095 203.081 35.9879 202.731 35.6145 202.474C35.2459 202.213 34.7769 202.077 34.2075 202.068C33.6709 202.054 33.2345 202.157 32.8985 202.376C32.5625 202.591 32.3945 202.878 32.3945 203.237C32.3945 203.438 32.4552 203.61 32.5765 203.755C32.6979 203.895 32.9172 204.028 33.2345 204.154C33.5565 204.28 34.0139 204.418 34.6065 204.567C35.3019 204.744 35.8479 204.931 36.2445 205.127C36.6412 205.323 36.9235 205.554 37.0915 205.82C37.2595 206.086 37.3435 206.415 37.3435 206.807C37.3435 207.521 37.0775 208.083 36.5455 208.494C36.0182 208.9 35.2902 209.103 34.3615 209.103ZM43.012 208.9C42.5873 208.989 42.1673 209.024 41.752 209.005C41.3413 208.986 40.9727 208.898 40.646 208.739C40.324 208.58 40.079 208.333 39.911 207.997C39.7757 207.717 39.701 207.435 39.687 207.15C39.6777 206.861 39.673 206.532 39.673 206.163V199.24H40.695V206.121C40.695 206.438 40.6973 206.704 40.702 206.919C40.7113 207.129 40.7603 207.316 40.849 207.479C41.017 207.792 41.283 207.978 41.647 208.039C42.0157 208.1 42.4707 208.086 43.012 207.997V208.9ZM38.056 202.222V201.34H43.012V202.222H38.056ZM47.4442 208.9V198.82H48.4732V208.9H47.4442ZM56.0318 208.9V205.043C56.0318 204.623 55.9921 204.238 55.9128 203.888C55.8335 203.533 55.7051 203.225 55.5278 202.964C55.3551 202.698 55.1288 202.493 54.8488 202.348C54.5735 202.203 54.2375 202.131 53.8408 202.131C53.4768 202.131 53.1548 202.194 52.8748 202.32C52.5995 202.446 52.3661 202.628 52.1748 202.866C51.9881 203.099 51.8458 203.384 51.7478 203.72C51.6498 204.056 51.6008 204.439 51.6008 204.868L50.8728 204.707C50.8728 203.932 51.0081 203.281 51.2788 202.754C51.5495 202.227 51.9228 201.828 52.3988 201.557C52.8748 201.286 53.4208 201.151 54.0368 201.151C54.4895 201.151 54.8838 201.221 55.2198 201.361C55.5605 201.501 55.8475 201.69 56.0808 201.928C56.3188 202.166 56.5101 202.439 56.6548 202.747C56.7995 203.05 56.9045 203.375 56.9698 203.72C57.0351 204.061 57.0678 204.401 57.0678 204.742V208.9H56.0318ZM50.5648 208.9V201.34H51.4958V203.202H51.6008V208.9H50.5648ZM63.0003 208.9C62.5756 208.989 62.1556 209.024 61.7403 209.005C61.3296 208.986 60.961 208.898 60.6343 208.739C60.3123 208.58 60.0673 208.333 59.8993 207.997C59.764 207.717 59.6893 207.435 59.6753 207.15C59.666 206.861 59.6613 206.532 59.6613 206.163V199.24H60.6833V206.121C60.6833 206.438 60.6856 206.704 60.6903 206.919C60.6996 207.129 60.7486 207.316 60.8373 207.479C61.0053 207.792 61.2713 207.978 61.6353 208.039C62.004 208.1 62.459 208.086 63.0003 207.997V208.9ZM58.0443 202.222V201.34H63.0003V202.222H58.0443ZM67.4153 209.11C66.678 209.11 66.0387 208.947 65.4973 208.62C64.9607 208.293 64.543 207.834 64.2443 207.241C63.9457 206.648 63.7963 205.953 63.7963 205.155C63.7963 204.329 63.9433 203.615 64.2373 203.013C64.5313 202.411 64.9443 201.947 65.4763 201.62C66.013 201.293 66.6453 201.13 67.3733 201.13C68.12 201.13 68.757 201.303 69.2843 201.648C69.8117 201.989 70.2107 202.479 70.4813 203.118C70.752 203.757 70.8757 204.52 70.8523 205.407H69.8023V205.043C69.7837 204.063 69.5713 203.323 69.1653 202.824C68.764 202.325 68.176 202.075 67.4013 202.075C66.5893 202.075 65.9663 202.339 65.5323 202.866C65.103 203.393 64.8883 204.145 64.8883 205.12C64.8883 206.072 65.103 206.812 65.5323 207.339C65.9663 207.862 66.58 208.123 67.3733 208.123C67.9147 208.123 68.386 207.999 68.7873 207.752C69.1933 207.5 69.513 207.138 69.7463 206.667L70.7053 207.038C70.4067 207.696 69.9657 208.207 69.3823 208.571C68.8037 208.93 68.148 209.11 67.4153 209.11ZM64.5243 205.407V204.546H70.2993V205.407H64.5243ZM75.4088 212.47C75.0214 212.47 74.6388 212.412 74.2608 212.295C73.8874 212.183 73.5421 212.003 73.2248 211.756C72.9074 211.513 72.6414 211.196 72.4268 210.804L73.3578 210.286C73.5678 210.706 73.8618 211.007 74.2398 211.189C74.6224 211.376 75.0121 211.469 75.4088 211.469C75.9548 211.469 76.3958 211.366 76.7318 211.161C77.0724 210.96 77.3198 210.662 77.4738 210.265C77.6278 209.868 77.7024 209.374 77.6978 208.781V206.765H77.8168V201.34H78.7338V208.795C78.7338 209.01 78.7268 209.215 78.7128 209.411C78.7034 209.612 78.6824 209.808 78.6498 209.999C78.5611 210.564 78.3768 211.028 78.0968 211.392C77.8214 211.756 77.4574 212.027 77.0048 212.204C76.5568 212.381 76.0248 212.47 75.4088 212.47ZM75.3388 209.11C74.6341 209.11 74.0321 208.935 73.5328 208.585C73.0334 208.23 72.6508 207.752 72.3848 207.15C72.1188 206.548 71.9858 205.869 71.9858 205.113C71.9858 204.362 72.1164 203.685 72.3778 203.083C72.6438 202.481 73.0241 202.005 73.5188 201.655C74.0134 201.305 74.6061 201.13 75.2968 201.13C76.0061 201.13 76.6034 201.303 77.0888 201.648C77.5741 201.993 77.9404 202.467 78.1878 203.069C78.4398 203.666 78.5658 204.348 78.5658 205.113C78.5658 205.864 78.4421 206.543 78.1948 207.15C77.9474 207.752 77.5834 208.23 77.1028 208.585C76.6221 208.935 76.0341 209.11 75.3388 209.11ZM75.4438 208.151C75.9804 208.151 76.4238 208.02 76.7738 207.759C77.1238 207.498 77.3851 207.138 77.5578 206.681C77.7304 206.219 77.8168 205.696 77.8168 205.113C77.8168 204.52 77.7304 203.998 77.5578 203.545C77.3851 203.088 77.1238 202.731 76.7738 202.474C76.4284 202.217 75.9921 202.089 75.4648 202.089C74.9234 202.089 74.4754 202.222 74.1208 202.488C73.7661 202.754 73.5024 203.116 73.3298 203.573C73.1618 204.03 73.0778 204.544 73.0778 205.113C73.0778 205.687 73.1641 206.205 73.3368 206.667C73.5141 207.124 73.7778 207.486 74.1278 207.752C74.4778 208.018 74.9164 208.151 75.4438 208.151ZM80.6909 208.9V201.34H81.6149V203.16L81.4329 202.922C81.5169 202.698 81.6266 202.493 81.7619 202.306C81.8973 202.115 82.0443 201.958 82.2029 201.837C82.3989 201.664 82.6276 201.534 82.8889 201.445C83.1503 201.352 83.4139 201.298 83.6799 201.284C83.9459 201.265 84.1886 201.284 84.4079 201.34V202.306C84.1326 202.236 83.8316 202.22 83.5049 202.257C83.1783 202.294 82.8773 202.425 82.6019 202.649C82.3499 202.845 82.1609 203.081 82.0349 203.356C81.9089 203.627 81.8249 203.916 81.7829 204.224C81.7409 204.527 81.7199 204.828 81.7199 205.127V208.9H80.6909ZM87.6118 209.11C87.0424 209.11 86.5641 209.007 86.1768 208.802C85.7941 208.597 85.5071 208.324 85.3158 207.983C85.1244 207.642 85.0288 207.271 85.0288 206.87C85.0288 206.459 85.1104 206.109 85.2738 205.82C85.4418 205.526 85.6681 205.286 85.9528 205.099C86.2421 204.912 86.5758 204.77 86.9538 204.672C87.3364 204.579 87.7588 204.497 88.2208 204.427C88.6874 204.352 89.1424 204.289 89.5858 204.238C90.0338 204.182 90.4258 204.128 90.7618 204.077L90.3978 204.301C90.4118 203.554 90.2671 203.001 89.9638 202.642C89.6604 202.283 89.1331 202.103 88.3818 202.103C87.8638 202.103 87.4251 202.22 87.0658 202.453C86.7111 202.686 86.4614 203.055 86.3167 203.559L85.3158 203.265C85.4884 202.588 85.8361 202.063 86.3588 201.69C86.8814 201.317 87.5604 201.13 88.3958 201.13C89.0864 201.13 89.6721 201.261 90.1528 201.522C90.6381 201.779 90.9811 202.152 91.1818 202.642C91.2751 202.861 91.3358 203.106 91.3638 203.377C91.3918 203.648 91.4058 203.923 91.4058 204.203V208.9H90.4888V207.003L90.7548 207.115C90.4981 207.764 90.0991 208.258 89.5578 208.599C89.0164 208.94 88.3678 209.11 87.6118 209.11ZM87.7308 208.221C88.2114 208.221 88.6314 208.135 88.9908 207.962C89.3501 207.789 89.6394 207.554 89.8588 207.255C90.0781 206.952 90.2204 206.611 90.2858 206.233C90.3418 205.99 90.3721 205.724 90.3768 205.435C90.3814 205.141 90.3838 204.922 90.3838 204.777L90.7758 204.98C90.4258 205.027 90.0454 205.073 89.6348 205.12C89.2288 205.167 88.8274 205.22 88.4308 205.281C88.0388 205.342 87.6841 205.414 87.3668 205.498C87.1521 205.559 86.9444 205.645 86.7438 205.757C86.5431 205.864 86.3774 206.009 86.2468 206.191C86.1208 206.373 86.0578 206.599 86.0578 206.87C86.0578 207.089 86.1114 207.302 86.2188 207.507C86.3308 207.712 86.5081 207.883 86.7508 208.018C86.9981 208.153 87.3248 208.221 87.7308 208.221ZM97.344 208.9C96.9194 208.989 96.4994 209.024 96.084 209.005C95.6734 208.986 95.3047 208.898 94.978 208.739C94.656 208.58 94.411 208.333 94.243 207.997C94.1077 207.717 94.033 207.435 94.019 207.15C94.0097 206.861 94.005 206.532 94.005 206.163V199.24H95.027V206.121C95.027 206.438 95.0294 206.704 95.034 206.919C95.0434 207.129 95.0924 207.316 95.181 207.479C95.349 207.792 95.615 207.978 95.979 208.039C96.3477 208.1 96.8027 208.086 97.344 207.997V208.9ZM92.388 202.222V201.34H97.344V202.222H92.388ZM98.9735 199.905V198.75H100.003V199.905H98.9735ZM98.9735 208.9V201.34H100.003V208.9H98.9735ZM105.258 209.11C104.507 209.11 103.865 208.94 103.333 208.599C102.801 208.258 102.393 207.787 102.108 207.185C101.823 206.583 101.681 205.892 101.681 205.113C101.681 204.32 101.826 203.624 102.115 203.027C102.404 202.43 102.815 201.965 103.347 201.634C103.884 201.298 104.521 201.13 105.258 201.13C106.014 201.13 106.658 201.3 107.19 201.641C107.727 201.977 108.135 202.446 108.415 203.048C108.7 203.645 108.842 204.334 108.842 205.113C108.842 205.906 108.7 206.604 108.415 207.206C108.13 207.803 107.72 208.27 107.183 208.606C106.646 208.942 106.005 209.11 105.258 209.11ZM105.258 208.123C106.098 208.123 106.723 207.845 107.134 207.29C107.545 206.73 107.75 206.004 107.75 205.113C107.75 204.198 107.542 203.47 107.127 202.929C106.716 202.388 106.093 202.117 105.258 202.117C104.693 202.117 104.227 202.245 103.858 202.502C103.494 202.754 103.221 203.106 103.039 203.559C102.862 204.007 102.773 204.525 102.773 205.113C102.773 206.023 102.983 206.753 103.403 207.304C103.823 207.85 104.441 208.123 105.258 208.123ZM115.846 208.9V205.043C115.846 204.623 115.807 204.238 115.727 203.888C115.648 203.533 115.52 203.225 115.342 202.964C115.17 202.698 114.943 202.493 114.663 202.348C114.388 202.203 114.052 202.131 113.655 202.131C113.291 202.131 112.969 202.194 112.689 202.32C112.414 202.446 112.181 202.628 111.989 202.866C111.803 203.099 111.66 203.384 111.562 203.72C111.464 204.056 111.415 204.439 111.415 204.868L110.687 204.707C110.687 203.932 110.823 203.281 111.093 202.754C111.364 202.227 111.737 201.828 112.213 201.557C112.689 201.286 113.235 201.151 113.851 201.151C114.304 201.151 114.698 201.221 115.034 201.361C115.375 201.501 115.662 201.69 115.895 201.928C116.133 202.166 116.325 202.439 116.469 202.747C116.614 203.05 116.719 203.375 116.784 203.72C116.85 204.061 116.882 204.401 116.882 204.742V208.9H115.846ZM110.379 208.9V201.34H111.31V203.202H111.415V208.9H110.379ZM121.52 209.103C120.633 209.103 119.903 208.912 119.329 208.529C118.759 208.146 118.409 207.614 118.279 206.933L119.329 206.758C119.441 207.187 119.695 207.53 120.092 207.787C120.493 208.039 120.988 208.165 121.576 208.165C122.15 208.165 122.602 208.046 122.934 207.808C123.265 207.565 123.431 207.236 123.431 206.821C123.431 206.588 123.377 206.399 123.27 206.254C123.167 206.105 122.955 205.967 122.633 205.841C122.311 205.715 121.83 205.566 121.191 205.393C120.505 205.206 119.968 205.02 119.581 204.833C119.193 204.646 118.918 204.432 118.755 204.189C118.591 203.942 118.51 203.641 118.51 203.286C118.51 202.857 118.631 202.481 118.874 202.159C119.116 201.832 119.452 201.58 119.882 201.403C120.311 201.221 120.81 201.13 121.38 201.13C121.949 201.13 122.458 201.223 122.906 201.41C123.358 201.592 123.722 201.849 123.998 202.18C124.273 202.511 124.436 202.896 124.488 203.335L123.438 203.524C123.368 203.081 123.146 202.731 122.773 202.474C122.404 202.213 121.935 202.077 121.366 202.068C120.829 202.054 120.393 202.157 120.057 202.376C119.721 202.591 119.553 202.878 119.553 203.237C119.553 203.438 119.613 203.61 119.735 203.755C119.856 203.895 120.075 204.028 120.393 204.154C120.715 204.28 121.172 204.418 121.765 204.567C122.46 204.744 123.006 204.931 123.403 205.127C123.799 205.323 124.082 205.554 124.25 205.82C124.418 206.086 124.502 206.415 124.502 206.807C124.502 207.521 124.236 208.083 123.704 208.494C123.176 208.9 122.448 209.103 121.52 209.103Z" fill="white"/>
<rect x="155.25" y="184.15" width="113.5" height="38.5" rx="19.25" fill="#466A59"/>
<rect x="155.25" y="184.15" width="113.5" height="38.5" rx="19.25" stroke="#212429" stroke-width="0.5"/>
<path d="M171.28 208.9L174.752 198.82H176.117L179.589 208.9H178.518L175.221 199.394H175.627L172.351 208.9H171.28ZM172.827 206.457V205.491H178.035V206.457H172.827ZM183.989 209.11C183.228 209.11 182.584 208.94 182.057 208.599C181.53 208.258 181.128 207.789 180.853 207.192C180.582 206.59 180.442 205.899 180.433 205.12C180.442 204.327 180.587 203.631 180.867 203.034C181.147 202.432 181.551 201.965 182.078 201.634C182.605 201.298 183.245 201.13 183.996 201.13C184.761 201.13 185.426 201.317 185.991 201.69C186.56 202.063 186.95 202.574 187.16 203.223L186.152 203.545C185.975 203.092 185.692 202.742 185.305 202.495C184.922 202.243 184.484 202.117 183.989 202.117C183.434 202.117 182.974 202.245 182.61 202.502C182.246 202.754 181.975 203.106 181.798 203.559C181.621 204.012 181.53 204.532 181.525 205.12C181.534 206.025 181.744 206.753 182.155 207.304C182.566 207.85 183.177 208.123 183.989 208.123C184.502 208.123 184.939 208.006 185.298 207.773C185.662 207.535 185.937 207.19 186.124 206.737L187.16 207.045C186.88 207.717 186.469 208.23 185.928 208.585C185.387 208.935 184.74 209.11 183.989 209.11ZM191.536 209.11C190.775 209.11 190.131 208.94 189.604 208.599C189.077 208.258 188.675 207.789 188.4 207.192C188.129 206.59 187.989 205.899 187.98 205.12C187.989 204.327 188.134 203.631 188.414 203.034C188.694 202.432 189.098 201.965 189.625 201.634C190.152 201.298 190.792 201.13 191.543 201.13C192.308 201.13 192.973 201.317 193.538 201.69C194.107 202.063 194.497 202.574 194.707 203.223L193.699 203.545C193.522 203.092 193.239 202.742 192.852 202.495C192.469 202.243 192.031 202.117 191.536 202.117C190.981 202.117 190.521 202.245 190.157 202.502C189.793 202.754 189.522 203.106 189.345 203.559C189.168 204.012 189.077 204.532 189.072 205.12C189.081 206.025 189.291 206.753 189.702 207.304C190.113 207.85 190.724 208.123 191.536 208.123C192.049 208.123 192.486 208.006 192.845 207.773C193.209 207.535 193.484 207.19 193.671 206.737L194.707 207.045C194.427 207.717 194.016 208.23 193.475 208.585C192.934 208.935 192.287 209.11 191.536 209.11ZM199.146 209.11C198.408 209.11 197.769 208.947 197.228 208.62C196.691 208.293 196.273 207.834 195.975 207.241C195.676 206.648 195.527 205.953 195.527 205.155C195.527 204.329 195.674 203.615 195.968 203.013C196.262 202.411 196.675 201.947 197.207 201.62C197.743 201.293 198.376 201.13 199.104 201.13C199.85 201.13 200.487 201.303 201.015 201.648C201.542 201.989 201.941 202.479 202.212 203.118C202.482 203.757 202.606 204.52 202.583 205.407H201.533V205.043C201.514 204.063 201.302 203.323 200.896 202.824C200.494 202.325 199.906 202.075 199.132 202.075C198.32 202.075 197.697 202.339 197.263 202.866C196.833 203.393 196.619 204.145 196.619 205.12C196.619 206.072 196.833 206.812 197.263 207.339C197.697 207.862 198.31 208.123 199.104 208.123C199.645 208.123 200.116 207.999 200.518 207.752C200.924 207.5 201.243 207.138 201.477 206.667L202.436 207.038C202.137 207.696 201.696 208.207 201.113 208.571C200.534 208.93 199.878 209.11 199.146 209.11ZM196.255 205.407V204.546H202.03V205.407H196.255ZM206.957 209.103C206.071 209.103 205.34 208.912 204.766 208.529C204.197 208.146 203.847 207.614 203.716 206.933L204.766 206.758C204.878 207.187 205.133 207.53 205.529 207.787C205.931 208.039 206.425 208.165 207.013 208.165C207.587 208.165 208.04 208.046 208.371 207.808C208.703 207.565 208.868 207.236 208.868 206.821C208.868 206.588 208.815 206.399 208.707 206.254C208.605 206.105 208.392 205.967 208.07 205.841C207.748 205.715 207.268 205.566 206.628 205.393C205.942 205.206 205.406 205.02 205.018 204.833C204.631 204.646 204.356 204.432 204.192 204.189C204.029 203.942 203.947 203.641 203.947 203.286C203.947 202.857 204.069 202.481 204.311 202.159C204.554 201.832 204.89 201.58 205.319 201.403C205.749 201.221 206.248 201.13 206.817 201.13C207.387 201.13 207.895 201.223 208.343 201.41C208.796 201.592 209.16 201.849 209.435 202.18C209.711 202.511 209.874 202.896 209.925 203.335L208.875 203.524C208.805 203.081 208.584 202.731 208.21 202.474C207.842 202.213 207.373 202.077 206.803 202.068C206.267 202.054 205.83 202.157 205.494 202.376C205.158 202.591 204.99 202.878 204.99 203.237C204.99 203.438 205.051 203.61 205.172 203.755C205.294 203.895 205.513 204.028 205.83 204.154C206.152 204.28 206.61 204.418 207.202 204.567C207.898 204.744 208.444 204.931 208.84 205.127C209.237 205.323 209.519 205.554 209.687 205.82C209.855 206.086 209.939 206.415 209.939 206.807C209.939 207.521 209.673 208.083 209.141 208.494C208.614 208.9 207.886 209.103 206.957 209.103ZM214.313 209.103C213.426 209.103 212.696 208.912 212.122 208.529C211.552 208.146 211.202 207.614 211.072 206.933L212.122 206.758C212.234 207.187 212.488 207.53 212.885 207.787C213.286 208.039 213.781 208.165 214.369 208.165C214.943 208.165 215.395 208.046 215.727 207.808C216.058 207.565 216.224 207.236 216.224 206.821C216.224 206.588 216.17 206.399 216.063 206.254C215.96 206.105 215.748 205.967 215.426 205.841C215.104 205.715 214.623 205.566 213.984 205.393C213.298 205.206 212.761 205.02 212.374 204.833C211.986 204.646 211.711 204.432 211.548 204.189C211.384 203.942 211.303 203.641 211.303 203.286C211.303 202.857 211.424 202.481 211.667 202.159C211.909 201.832 212.245 201.58 212.675 201.403C213.104 201.221 213.603 201.13 214.173 201.13C214.742 201.13 215.251 201.223 215.699 201.41C216.151 201.592 216.515 201.849 216.791 202.18C217.066 202.511 217.229 202.896 217.281 203.335L216.231 203.524C216.161 203.081 215.939 202.731 215.566 202.474C215.197 202.213 214.728 202.077 214.159 202.068C213.622 202.054 213.186 202.157 212.85 202.376C212.514 202.591 212.346 202.878 212.346 203.237C212.346 203.438 212.406 203.61 212.528 203.755C212.649 203.895 212.868 204.028 213.186 204.154C213.508 204.28 213.965 204.418 214.558 204.567C215.253 204.744 215.799 204.931 216.196 205.127C216.592 205.323 216.875 205.554 217.043 205.82C217.211 206.086 217.295 206.415 217.295 206.807C217.295 207.521 217.029 208.083 216.497 208.494C215.969 208.9 215.241 209.103 214.313 209.103ZM218.987 199.905V198.75H220.016V199.905H218.987ZM218.987 208.9V201.34H220.016V208.9H218.987ZM225.51 209.11C224.814 209.11 224.226 208.935 223.746 208.585C223.265 208.23 222.901 207.752 222.654 207.15C222.406 206.543 222.283 205.864 222.283 205.113C222.283 204.348 222.406 203.666 222.654 203.069C222.906 202.467 223.274 201.993 223.76 201.648C224.245 201.303 224.842 201.13 225.552 201.13C226.242 201.13 226.835 201.305 227.33 201.655C227.824 202.005 228.202 202.481 228.464 203.083C228.73 203.685 228.863 204.362 228.863 205.113C228.863 205.869 228.73 206.548 228.464 207.15C228.198 207.752 227.815 208.23 227.316 208.585C226.816 208.935 226.214 209.11 225.51 209.11ZM222.108 208.9V198.82H223.144V203.209H223.032V208.9H222.108ZM225.405 208.151C225.932 208.151 226.371 208.018 226.721 207.752C227.071 207.486 227.332 207.124 227.505 206.667C227.682 206.205 227.771 205.687 227.771 205.113C227.771 204.544 227.684 204.03 227.512 203.573C227.339 203.116 227.075 202.754 226.721 202.488C226.371 202.222 225.925 202.089 225.384 202.089C224.856 202.089 224.418 202.217 224.068 202.474C223.722 202.731 223.463 203.088 223.291 203.545C223.118 203.998 223.032 204.52 223.032 205.113C223.032 205.696 223.118 206.219 223.291 206.681C223.463 207.138 223.725 207.498 224.075 207.759C224.425 208.02 224.868 208.151 225.405 208.151ZM230.54 199.905V198.75H231.569V199.905H230.54ZM230.54 208.9V201.34H231.569V208.9H230.54ZM233.808 208.9V198.61H234.837V208.9H233.808ZM237.075 199.905V198.75H238.104V199.905H237.075ZM237.075 208.9V201.34H238.104V208.9H237.075ZM244.319 208.9C243.894 208.989 243.474 209.024 243.059 209.005C242.648 208.986 242.279 208.898 241.953 208.739C241.631 208.58 241.386 208.333 241.218 207.997C241.082 207.717 241.008 207.435 240.994 207.15C240.984 206.861 240.98 206.532 240.98 206.163V199.24H242.002V206.121C242.002 206.438 242.004 206.704 242.009 206.919C242.018 207.129 242.067 207.316 242.156 207.479C242.324 207.792 242.59 207.978 242.954 208.039C243.322 208.1 243.777 208.086 244.319 207.997V208.9ZM239.363 202.222V201.34H244.319V202.222H239.363ZM246.681 212.26L248.144 208.291L248.165 209.467L244.854 201.34H245.946L248.662 208.137H248.214L250.72 201.34H251.77L247.71 212.26H246.681Z" fill="white"/>
</svg>
