<?xml version="1.0" encoding="utf-8"?>
<!-- Generator: Adobe Illustrator 27.5.0, SVG Export Plug-In . SVG Version: 6.00 Build 0)  -->
<svg version="1.1" xmlns="http://www.w3.org/2000/svg" xmlns:xlink="http://www.w3.org/1999/xlink" x="0px" y="0px"
	 viewBox="0 0 500 500" style="enable-background:new 0 0 500 500;" xml:space="preserve">
<g id="Sea">
	<g id="Sea_1_">
		<ellipse id="XMLID_681_" style="fill:#27DEBF;" cx="251" cy="358.007" rx="213.627" ry="123.338"/>
		<ellipse id="XMLID_682_" style="opacity:0.8;fill:#FFFFFF;" cx="251" cy="358.007" rx="213.627" ry="123.338"/>
	</g>
</g>
<g id="Land">
	<g id="XMLID_316_">
		<g id="XMLID_328_">
			<path id="XMLID_330_" style="fill:#455A64;" d="M128.989,335.233l0.108,29.736c0,17.436,15.416,37.332,38.457,50.635
				c46.084,26.606,120.799,26.606,166.883,0c23.042-13.303,38.458-33.2,38.458-50.636l0.108-29.735l0,0
				c0-17.435-15.524-34.871-38.566-48.174c-46.084-26.606-120.8-26.606-166.883,0C144.514,300.362,128.991,317.798,128.989,335.233
				L128.989,335.233z"/>
			<path id="XMLID_329_" style="fill:#37474F;" d="M338.589,294.611c-48.376-27.93-126.809-27.93-175.185,0
				c-11.195,6.463-19.793,13.857-25.806,21.749c-3.064,6.158-8.608,12.516-8.608,18.875v-0.001l0.108,29.736
				c4.321,13.861,15.75,27.128,34.306,37.841c48.376,27.93,126.808,27.93,175.185,0c18.557-10.713,29.987-23.981,34.307-37.842
				l0.108-29.735c0-6.358-5.543-12.715-8.606-18.872C358.384,308.469,349.785,301.075,338.589,294.611z"/>
		</g>
		<g id="XMLID_318_">
			<path id="XMLID_326_" style="fill:#27DEBF;" d="M127.122,334.544v7.058c0,18.303,12.094,36.606,36.282,50.571
				c48.376,27.93,126.808,27.93,175.185,0c24.188-13.965,36.282-32.268,36.283-50.571v-7.058l0,0
				c0-18.303-12.094-36.606-36.282-50.571c-48.376-27.93-126.809-27.93-175.185,0C139.216,297.939,127.123,316.242,127.122,334.544
				L127.122,334.544z"/>
			<path id="XMLID_324_" style="opacity:0.15;" d="M127.122,334.544v7.058c0,18.303,12.094,36.606,36.282,50.571
				c48.376,27.93,126.808,27.93,175.185,0c24.188-13.965,36.282-32.268,36.283-50.571v-7.058l0,0
				c0-18.303-12.094-36.606-36.282-50.571c-48.376-27.93-126.809-27.93-175.185,0C139.216,297.939,127.123,316.242,127.122,334.544
				L127.122,334.544z"/>
			<path id="XMLID_322_" style="fill:#27DEBF;" d="M338.597,283.974c-48.376-27.93-126.809-27.93-175.185,0
				c-48.376,27.93-48.376,73.214,0.001,101.143c48.377,27.93,126.81,27.93,175.185,0
				C386.972,357.187,386.972,311.904,338.597,283.974z"/>
		</g>
	</g>
</g>
<g id="Clouds">
	<g id="Clouds_1_">
		<path id="XMLID_699_" style="fill:#EBEBEB;" d="M331.533,134.956l3.051,1.048l0.287-7.502c0.228-5.947,4.603-7.739,9.179-5.161
			l0,0c4.577,2.577,8.102,9.487,7.874,15.435l-0.042,1.089c1.082-0.556,2.449-0.492,3.916,0.334h0
			c3.293,1.855,5.83,6.827,5.667,11.107l-0.019,0.495l4.219,2.376c2.169,1.221,3.84,4.496,3.732,7.314
			c-0.108,2.818-1.954,4.113-4.122,2.892l-34.133-19.22c-2.169-1.221-3.84-4.496-3.732-7.314S329.364,133.735,331.533,134.956z"/>
		<path id="XMLID_273_" style="fill:#EBEBEB;" d="M296.322,157.319l2.47,0.848l0.233-6.073c0.184-4.814,3.725-6.264,7.43-4.178l0,0
			c3.705,2.086,6.558,7.68,6.374,12.494l-0.034,0.882c0.876-0.45,1.983-0.398,3.17,0.27h0c2.666,1.501,4.719,5.526,4.587,8.99
			l-0.015,0.401l3.415,1.923c1.756,0.989,3.108,3.639,3.021,5.921c-0.087,2.281-1.581,3.329-3.337,2.341l-27.629-15.557
			c-1.756-0.989-3.108-3.639-3.021-5.921C293.073,157.378,294.567,156.33,296.322,157.319z"/>
	</g>
	<g>
		<g>
			<path style="fill:#606060;" d="M537.41,220.269c1.93,0,1.934-3,0-3C535.48,217.269,535.477,220.269,537.41,220.269
				L537.41,220.269z"/>
		</g>
	</g>
</g>
<g id="Trees">
	<g id="XMLID_299_">
		<g id="XMLID_310_">
			
				<rect id="XMLID_311_" x="355.131" y="307.74" transform="matrix(0.4526 -0.8917 0.8917 0.4526 -77.9979 489.1159)" style="fill:#263238;" width="8.515" height="0.696"/>
		</g>
		<g id="XMLID_308_">
			
				<rect id="XMLID_309_" x="355.087" y="303.174" transform="matrix(0.8503 -0.5263 0.5263 0.8503 -108.2313 232.9889)" style="fill:#263238;" width="0.696" height="7.141"/>
		</g>
		<path id="XMLID_307_" style="fill:#263238;" d="M358.043,302.803v18.3c0,0.086-0.057,0.172-0.171,0.238
			c-0.228,0.131-0.596,0.131-0.824,0c-0.114-0.066-0.171-0.152-0.171-0.238v-18.3H358.043z"/>
		<path id="XMLID_306_" style="fill:#455A64;" d="M371.878,297.108c0,4.694-3.805,8.499-8.499,8.499
			c-4.693,0-8.498-3.805-8.498-8.499c0-4.694,3.805-8.499,8.498-8.499C368.073,288.61,371.878,292.414,371.878,297.108z"/>
		<path id="XMLID_305_" style="fill:#37474F;" d="M366.043,294.935c1.096-3.451,2.264-4.801,1.523-5.222
			c-1.236-0.702-2.664-1.103-4.187-1.103c-4.693,0-8.498,3.805-8.498,8.499c0,4.694,3.805,8.499,8.498,8.499
			c2.639,0,4.997-1.203,6.556-3.09C367.417,303.251,364.622,299.411,366.043,294.935z"/>
		<circle id="XMLID_304_" style="fill:#455A64;" cx="349.991" cy="299.514" r="5.973"/>
		<path id="XMLID_303_" style="fill:#37474F;" d="M349.991,293.541c-1.303,0-2.509,0.419-3.49,1.128
			c-0.162,3.648,2.936,7.206,2.07,8.402c-0.873,1.205-2.999,0.461-3.742-0.554c1.035,1.776,2.959,2.97,5.162,2.97
			c3.299,0,5.973-2.674,5.973-5.973C355.965,296.215,353.29,293.541,349.991,293.541z"/>
		<g id="XMLID_301_">
			<circle id="XMLID_302_" style="fill:#455A64;" cx="357.461" cy="293.074" r="10.957"/>
		</g>
		<path id="XMLID_300_" style="opacity:0.2;fill:#263238;" d="M368.126,295.577c-1.131,4.845-5.475,8.453-10.665,8.453
			c-6.052,0-10.958-4.905-10.958-10.957c0-4.091,2.243-7.659,5.567-9.54c-0.953,0.541-1.818,1.22-2.567,2.011
			c-0.187,0.803-0.29,1.64-0.29,2.502c0,6.052,4.906,10.958,10.957,10.958C363.305,299.005,366.129,297.685,368.126,295.577z"/>
	</g>
	<g id="XMLID_286_">
		<g id="XMLID_297_">
			
				<rect id="XMLID_298_" x="158.004" y="359.342" transform="matrix(0.4526 -0.8917 0.8917 0.4526 -231.9184 341.5826)" style="fill:#263238;" width="8.515" height="0.696"/>
		</g>
		<g id="XMLID_295_">
			
				<rect id="XMLID_296_" x="157.96" y="354.777" transform="matrix(0.8503 -0.5263 0.5263 0.8503 -164.9008 136.965)" style="fill:#263238;" width="0.696" height="7.141"/>
		</g>
		<path id="XMLID_294_" style="fill:#263238;" d="M160.917,354.406v18.3c0,0.086-0.057,0.172-0.171,0.238
			c-0.227,0.131-0.596,0.131-0.824,0c-0.114-0.066-0.171-0.152-0.171-0.238v-18.3H160.917z"/>
		<path id="XMLID_293_" style="fill:#455A64;" d="M174.751,348.711c0,4.694-3.805,8.499-8.499,8.499
			c-4.693,0-8.498-3.805-8.498-8.499c0-4.694,3.805-8.499,8.498-8.499C170.946,340.212,174.751,344.017,174.751,348.711z"/>
		<path id="XMLID_292_" style="fill:#37474F;" d="M168.917,346.537c1.096-3.451,2.264-4.801,1.523-5.222
			c-1.236-0.702-2.664-1.103-4.187-1.103c-4.693,0-8.498,3.805-8.498,8.499c0,4.694,3.805,8.499,8.498,8.499
			c2.639,0,4.997-1.203,6.556-3.09C170.29,354.854,167.495,351.013,168.917,346.537z"/>
		<circle id="XMLID_291_" style="fill:#455A64;" cx="152.865" cy="351.116" r="5.973"/>
		<path id="XMLID_290_" style="fill:#37474F;" d="M152.865,345.143c-1.303,0-2.509,0.419-3.491,1.128
			c-0.162,3.648,2.936,7.206,2.07,8.402c-0.873,1.205-2.999,0.461-3.742-0.554c1.035,1.776,2.959,2.97,5.162,2.97
			c3.299,0,5.973-2.674,5.973-5.973S156.163,345.143,152.865,345.143z"/>
		<g id="XMLID_288_">
			<circle id="XMLID_289_" style="fill:#455A64;" cx="160.334" cy="344.676" r="10.957"/>
		</g>
		<path id="XMLID_287_" style="opacity:0.2;fill:#263238;" d="M170.999,347.18c-1.131,4.845-5.475,8.453-10.665,8.453
			c-6.052,0-10.958-4.905-10.958-10.957c0-4.091,2.243-7.659,5.567-9.54c-0.953,0.54-1.818,1.22-2.567,2.011
			c-0.187,0.803-0.29,1.64-0.29,2.502c0,6.052,4.906,10.958,10.957,10.958C166.178,350.607,169.002,349.288,170.999,347.18z"/>
	</g>
</g>
<g id="Sun">
	<circle style="fill:#27DEBF;" cx="110" cy="104.5" r="23"/>
</g>
<g id="Lighthouse">
	<g id="XMLID_1_">
		<g id="XMLID_166_">
			<g id="XMLID_281_">
				<polygon id="XMLID_285_" style="fill:#455A64;" points="251.659,295.757 237.623,326 185.24,334.104 146.893,311.964 
					160.929,281.721 213.312,273.617 				"/>
				<polygon id="XMLID_284_" style="fill:#263238;" points="185.24,334.104 185.238,339.311 237.622,331.207 237.623,326 				"/>
				<polygon id="XMLID_283_" style="fill:#263238;" points="251.659,295.757 251.658,300.964 237.622,331.207 237.623,326 				"/>
				<polygon id="XMLID_282_" style="fill:#37474F;" points="185.24,334.104 185.238,339.311 146.892,317.171 146.893,311.964 				
					"/>
			</g>
			<g id="XMLID_246_">
				<polygon id="XMLID_280_" style="fill:#F5F5F5;" points="221.611,152.851 229.736,321.709 188.108,328.149 191.522,157.545 				
					"/>
				<polygon id="XMLID_279_" style="fill:#EBEBEB;" points="229.736,321.709 240.89,297.675 229.731,135.24 221.611,152.851 				"/>
				<polygon id="XMLID_278_" style="fill:#EBEBEB;" points="168.793,144.668 157.634,310.555 188.108,328.149 191.522,157.545 				
					"/>
				<g id="XMLID_271_">
					<polygon id="XMLID_277_" style="fill:#27DEBF;" points="157.634,310.555 188.108,328.149 188.487,309.193 158.874,292.123 
											"/>
					<polygon id="XMLID_276_" style="fill:#27DEBF;" points="160.114,273.691 188.867,290.237 189.246,271.281 161.354,255.259 
											"/>
					<polygon id="XMLID_275_" style="fill:#27DEBF;" points="162.594,236.827 189.625,252.325 190.005,233.369 163.834,218.395 
											"/>
					<polygon id="XMLID_274_" style="fill:#27DEBF;" points="165.074,199.964 190.384,214.413 190.763,195.457 166.314,181.531 
											"/>
					<polygon id="XMLID_272_" style="fill:#27DEBF;" points="167.553,163.1 191.143,176.501 191.522,157.545 168.793,144.668 					
						"/>
				</g>
				<g id="XMLID_265_" style="opacity:0.1;">
					<polygon id="XMLID_270_" points="157.634,310.555 188.108,328.149 188.487,309.193 158.874,292.123 					"/>
					<polygon id="XMLID_269_" points="160.114,273.691 188.867,290.237 189.246,271.281 161.354,255.259 					"/>
					<polygon id="XMLID_268_" points="162.594,236.827 189.625,252.325 190.005,233.369 163.834,218.395 					"/>
					<polygon id="XMLID_267_" points="165.074,199.964 190.384,214.413 190.763,195.457 166.314,181.531 					"/>
					<polygon id="XMLID_266_" points="167.553,163.1 191.143,176.501 191.522,157.545 168.793,144.668 					"/>
				</g>
				<g id="XMLID_259_">
					<polygon id="XMLID_264_" style="fill:#27DEBF;" points="191.143,176.501 222.514,171.613 221.611,152.851 191.522,157.545 
											"/>
					<polygon id="XMLID_263_" style="fill:#27DEBF;" points="223.417,190.375 190.763,195.457 190.384,214.413 224.32,209.137 					
						"/>
					<polygon id="XMLID_262_" style="fill:#27DEBF;" points="225.222,227.899 190.005,233.369 189.625,252.325 226.125,246.661 
											"/>
					<polygon id="XMLID_261_" style="fill:#27DEBF;" points="227.028,265.423 189.246,271.281 188.867,290.237 227.931,284.185 
											"/>
					<polygon id="XMLID_260_" style="fill:#27DEBF;" points="228.833,302.947 188.487,309.193 188.108,328.149 229.736,321.709 
											"/>
				</g>
				<g id="XMLID_253_">
					<polygon id="XMLID_258_" style="fill:#27DEBF;" points="221.611,152.851 229.731,135.24 230.971,153.289 222.514,171.613 					
						"/>
					<polygon id="XMLID_257_" style="fill:#27DEBF;" points="224.32,209.137 233.451,189.385 232.211,171.337 223.417,190.375 					
						"/>
					<polygon id="XMLID_256_" style="fill:#27DEBF;" points="226.125,246.661 235.931,225.482 234.691,207.434 225.222,227.899 
											"/>
					<polygon id="XMLID_255_" style="fill:#27DEBF;" points="227.028,265.423 237.171,243.53 238.411,261.579 227.931,284.185 					
						"/>
					<polygon id="XMLID_254_" style="fill:#27DEBF;" points="239.65,279.627 228.833,302.947 229.736,321.709 240.89,297.675 					
						"/>
				</g>
				<g id="XMLID_247_" style="opacity:0.1;">
					<polygon id="XMLID_252_" points="221.611,152.851 229.731,135.24 230.971,153.289 222.514,171.613 					"/>
					<polygon id="XMLID_251_" points="224.32,209.137 233.451,189.385 232.211,171.337 223.417,190.375 					"/>
					<polygon id="XMLID_250_" points="226.125,246.661 235.931,225.482 234.691,207.434 225.222,227.899 					"/>
					<polygon id="XMLID_249_" points="227.028,265.423 237.171,243.53 238.411,261.579 227.931,284.185 					"/>
					<polygon id="XMLID_248_" points="239.65,279.627 228.833,302.947 229.736,321.709 240.89,297.675 					"/>
				</g>
			</g>
			<g id="XMLID_239_">
				<polygon id="XMLID_245_" style="fill:#37474F;" points="235.342,134.372 225.674,155.203 189.595,160.784 163.183,145.536 
					172.85,124.705 208.93,119.123 				"/>
				<polygon id="XMLID_244_" style="fill:#455A64;" points="235.342,124.977 225.674,145.808 189.595,151.389 163.183,136.14 
					172.85,115.31 208.93,109.728 				"/>
				<g id="XMLID_242_">
					<polygon id="XMLID_243_" style="fill:#37474F;" points="229.777,125.838 221.6,143.456 191.086,148.176 168.748,135.279 
						176.925,117.662 207.439,112.941 					"/>
				</g>
				<polygon id="XMLID_241_" style="fill:#263238;" points="235.342,134.372 235.342,124.977 225.674,145.808 225.674,155.203 				
					"/>
				<polygon id="XMLID_240_" style="fill:#263238;" points="189.595,160.784 189.595,151.389 163.183,136.14 163.183,145.536 				
					"/>
			</g>
			<g id="XMLID_234_">
				<polygon id="XMLID_238_" style="fill:#37474F;" points="224.211,126.699 217.526,141.103 192.577,144.963 174.314,134.419 
					180.999,120.014 205.947,116.155 				"/>
				<polygon id="XMLID_237_" style="fill:#455A64;" points="224.211,117.352 217.526,131.756 192.577,135.615 174.314,125.071 
					180.999,110.667 205.947,106.807 				"/>
				<polygon id="XMLID_236_" style="fill:#263238;" points="217.526,141.103 217.526,131.756 224.211,117.352 224.211,126.699 				
					"/>
				<polygon id="XMLID_235_" style="fill:#263238;" points="192.577,144.963 192.577,135.615 174.578,125.224 174.314,134.419 				
					"/>
			</g>
			<g id="XMLID_230_">
				<polygon id="XMLID_233_" style="fill:#FAFAFA;" points="216.089,100.79 216.089,130.559 193.103,134.115 193.103,104.346 				
					"/>
				<polygon id="XMLID_232_" style="fill:#EBEBEB;" points="216.089,130.559 216.089,100.79 222.249,87.519 222.249,117.288 				"/>
				<polygon id="XMLID_231_" style="fill:#EBEBEB;" points="193.103,134.115 193.103,104.346 176.276,94.631 176.276,124.215 				
					"/>
			</g>
			<g id="XMLID_204_">
				
					<line id="XMLID_229_" style="fill:none;stroke:#E0E0E0;stroke-linecap:round;stroke-linejoin:round;stroke-miterlimit:10;" x1="215.495" y1="144.785" x2="215.495" y2="136.252"/>
				
					<line id="XMLID_228_" style="fill:none;stroke:#E0E0E0;stroke-linecap:round;stroke-linejoin:round;stroke-miterlimit:10;" x1="209.394" y1="145.729" x2="209.394" y2="137.196"/>
				
					<line id="XMLID_227_" style="fill:none;stroke:#E0E0E0;stroke-linecap:round;stroke-linejoin:round;stroke-miterlimit:10;" x1="203.292" y1="146.673" x2="203.292" y2="138.14"/>
				
					<line id="XMLID_226_" style="fill:none;stroke:#E0E0E0;stroke-linecap:round;stroke-linejoin:round;stroke-miterlimit:10;" x1="197.19" y1="147.617" x2="197.19" y2="139.083"/>
				
					<line id="XMLID_225_" style="fill:none;stroke:#E0E0E0;stroke-linecap:round;stroke-linejoin:round;stroke-miterlimit:10;" x1="221.597" y1="143.842" x2="221.597" y2="135.309"/>
				
					<line id="XMLID_224_" style="fill:none;stroke:#E0E0E0;stroke-linecap:round;stroke-linejoin:round;stroke-miterlimit:10;" x1="223.642" y1="139.436" x2="223.642" y2="130.903"/>
				
					<line id="XMLID_223_" style="fill:none;stroke:#E0E0E0;stroke-linecap:round;stroke-linejoin:round;stroke-miterlimit:10;" x1="225.687" y1="135.031" x2="225.687" y2="126.498"/>
				
					<line id="XMLID_222_" style="fill:none;stroke:#E0E0E0;stroke-linecap:round;stroke-linejoin:round;stroke-miterlimit:10;" x1="227.732" y1="130.626" x2="227.732" y2="122.093"/>
				
					<line id="XMLID_221_" style="fill:none;stroke:#E0E0E0;stroke-linecap:round;stroke-linejoin:round;stroke-miterlimit:10;" x1="229.777" y1="126.221" x2="229.777" y2="117.688"/>
				
					<line id="XMLID_220_" style="fill:none;stroke:#E0E0E0;stroke-linecap:round;stroke-linejoin:round;stroke-miterlimit:10;" x1="225.309" y1="123.642" x2="225.309" y2="115.109"/>
				
					<line id="XMLID_219_" style="fill:none;stroke:#E0E0E0;stroke-linecap:round;stroke-linejoin:round;stroke-miterlimit:10;" x1="191.088" y1="148.56" x2="191.088" y2="140.027"/>
				
					<line id="XMLID_217_" style="fill:none;stroke:#E0E0E0;stroke-linecap:round;stroke-linejoin:round;stroke-miterlimit:10;" x1="186.62" y1="145.981" x2="186.62" y2="137.448"/>
				
					<line id="XMLID_216_" style="fill:none;stroke:#E0E0E0;stroke-linecap:round;stroke-linejoin:round;stroke-miterlimit:10;" x1="182.152" y1="143.402" x2="182.152" y2="134.869"/>
				
					<line id="XMLID_215_" style="fill:none;stroke:#E0E0E0;stroke-linecap:round;stroke-linejoin:round;stroke-miterlimit:10;" x1="177.684" y1="140.823" x2="177.684" y2="132.29"/>
				
					<line id="XMLID_214_" style="fill:none;stroke:#E0E0E0;stroke-linecap:round;stroke-linejoin:round;stroke-miterlimit:10;" x1="173.216" y1="138.244" x2="173.216" y2="129.711"/>
				
					<line id="XMLID_213_" style="fill:none;stroke:#E0E0E0;stroke-linecap:round;stroke-linejoin:round;stroke-miterlimit:10;" x1="168.748" y1="135.665" x2="168.748" y2="127.132"/>
				
					<line id="XMLID_212_" style="fill:none;stroke:#E0E0E0;stroke-linecap:round;stroke-linejoin:round;stroke-miterlimit:10;" x1="170.794" y1="131.262" x2="170.794" y2="122.729"/>
				
					<line id="XMLID_210_" style="fill:none;stroke:#E0E0E0;stroke-linecap:round;stroke-linejoin:round;stroke-miterlimit:10;" x1="172.839" y1="126.859" x2="172.839" y2="118.326"/>
				
					<line id="XMLID_209_" style="fill:none;stroke:#E0E0E0;stroke-linecap:round;stroke-linejoin:round;stroke-miterlimit:10;" x1="174.884" y1="122.456" x2="174.884" y2="113.923"/>
				<path id="XMLID_205_" style="fill:#FAFAFA;" d="M176.276,112.798l-6.236,14.362l21.241,12.263l29.638-4.584l7.566-16.303
					l-6.237-3.601l0.004-2.308l8.025,4.633c0.448,0.259,0.625,0.817,0.407,1.287l-8.176,17.618
					c-0.141,0.303-0.424,0.516-0.754,0.567l-30.514,4.72c-0.051,0.008-0.102,0.012-0.153,0.012c-0.175,0-0.347-0.046-0.5-0.134
					l-22.338-12.896c-0.448-0.259-0.625-0.817-0.407-1.287l8.176-17.803c0.061-0.132,0.149-0.246,0.256-0.338"/>
			</g>
			<g id="XMLID_195_">
				<polygon id="XMLID_203_" style="fill:#37474F;" points="183.314,128.363 184.314,128.95 184.314,99.209 183.314,98.625 				"/>
				<polygon id="XMLID_202_" style="fill:#37474F;" points="205.096,102.49 204.096,102.645 204.096,132.414 205.096,132.26 				"/>
				<polygon id="XMLID_201_" style="fill:#37474F;" points="193.603,134.038 193.603,104.268 193.103,104.346 192.603,104.054 
					192.603,133.821 193.103,134.115 				"/>
				<polygon id="XMLID_199_" style="fill:#37474F;" points="176.776,94.804 175.776,94.22 175.776,123.934 176.776,124.521 				"/>
				<polygon id="XMLID_198_" style="fill:#37474F;" points="216.59,129.477 216.59,99.71 216.089,100.79 215.59,100.867 
					215.59,130.636 216.089,130.559 				"/>
				<polygon id="XMLID_196_" style="fill:#37474F;" points="221.749,118.369 222.749,116.507 222.749,86.416 221.749,88.574 				"/>
			</g>
			<g id="XMLID_167_">
				<path id="XMLID_194_" style="fill:#37474F;" d="M224.75,90.698v-4.307h-1.12c-1.18-2.228-3.292-4.327-6.345-6.089
					c-9.954-5.747-26.092-5.747-36.046,0c-3.053,1.762-5.165,3.861-6.345,6.089h-1.12v4.316l0,0c0,3.766,2.488,7.532,7.465,10.406
					c9.954,5.747,26.092,5.747,36.046,0C222.266,98.237,224.754,94.467,224.75,90.698z"/>
				<path id="XMLID_192_" style="fill:#455A64;" d="M217.285,76.01c9.954,5.747,9.954,15.064,0,20.811
					c-9.954,5.747-26.092,5.747-36.046,0c-9.954-5.747-9.954-15.064,0-20.811S207.332,70.263,217.285,76.01z"/>
				<g id="XMLID_172_">
					<path id="XMLID_191_" style="fill:#37474F;" d="M199.262,64.592c-11.409,0-20.657,9.249-20.657,20.657h0.001
						c0,3.052,2.017,6.104,6.05,8.433c8.067,4.658,21.146,4.658,29.213,0c4.033-2.329,6.05-5.381,6.05-8.433
						C219.919,73.84,210.671,64.592,199.262,64.592z"/>
					<path id="XMLID_188_" style="opacity:0.5;fill:#455A64;" d="M206.798,67.27c-4.758-2.339-14.511-2.837-18.437,2.935
						c-3.925,5.772,6.994,15.056,18.222,15.721C217.811,86.591,222.016,74.748,206.798,67.27z"/>
					<path id="XMLID_173_" style="opacity:0.5;fill:#263238;" d="M213.869,93.682c2.104-1.215,3.646-2.629,4.653-4.135
						c-6.936,6.294-21.307,6.853-29.988,3.26c-8.642-3.577-9.382-9.816-8.81-14.221c-0.714,2.093-1.119,4.328-1.119,6.662h0.001
						c0,3.052,2.017,6.104,6.05,8.433C192.723,98.34,205.802,98.34,213.869,93.682z"/>
				</g>
				<g id="XMLID_168_">
					<path id="XMLID_171_" style="fill:#263238;" d="M198.092,68.015c0.006-1.637,0.025-6.782,0.025-6.782h2.289
						c0,0,0.019,5.145,0.025,6.782C200.405,68.834,198.12,68.834,198.092,68.015z"/>
					<circle id="XMLID_170_" style="fill:#455A64;" cx="199.262" cy="60.71" r="3.022"/>
					<path id="XMLID_169_" style="fill:#263238;" d="M198.266,58.519c0.005-1.394,0.013-3.385,0.022-5.774
						c0.008-2.389,0.015-5.177,0.057-8.164c0.041-2.987,0.084-6.173,0.127-9.358c0.107-6.372,0.273-12.743,0.463-17.522
						c0.155-4.779,0.327-7.965,0.327-7.965s0.172,3.186,0.327,7.965c0.19,4.779,0.356,11.15,0.463,17.522
						c0.043,3.186,0.087,6.372,0.127,9.358c0.042,2.987,0.05,5.774,0.057,8.164c0.009,2.389,0.016,4.381,0.022,5.774
						C200.235,59.216,198.29,59.216,198.266,58.519z"/>
				</g>
			</g>
		</g>
		<g id="XMLID_110_">
			<polygon id="XMLID_165_" style="fill:#FAFAFA;" points="331.288,328.743 331.288,291.218 233.799,347.502 233.799,385.029 			"/>
			<polygon id="XMLID_164_" style="fill:#F5F5F5;" points="331.288,291.218 233.8,347.502 233.8,366.866 331.288,310.556 			"/>
			<polygon id="XMLID_163_" style="fill:#EBEBEB;" points="185.008,356.884 185.008,319.358 209.439,309.98 233.799,347.502 
				233.799,385.029 			"/>
			<g id="XMLID_155_">
				<polygon id="XMLID_162_" style="fill:#455A64;" points="333.274,294.737 306.927,253.696 306.927,249.005 337.336,297.082 				
					"/>
				<polygon id="XMLID_161_" style="fill:#455A64;" points="235.786,351.022 209.439,309.981 209.439,305.29 239.875,353.381 				
					"/>
				<polygon id="XMLID_160_" style="fill:#37474F;" points="306.927,249.005 209.415,305.29 239.875,353.381 337.351,297.1 				"/>
				<polygon id="XMLID_159_" style="fill:#263238;" points="317.713,308.409 290.667,300.6 320.155,306.999 				"/>
				<polygon id="XMLID_158_" style="fill:#37474F;" points="209.439,309.98 183.023,320.535 178.96,318.189 209.439,305.289 				"/>
				<path id="XMLID_157_" style="fill:#263238;" d="M306.903,249.005c0.023,0-97.465,56.285-97.465,56.285l-30.478,12.9
					l97.651-56.379L306.903,249.005z"/>
				<polygon id="XMLID_156_" style="fill:#263238;" points="183.023,320.535 185.008,320.535 185.008,319.742 				"/>
			</g>
			<polygon id="XMLID_154_" style="fill:#455A64;" points="233.799,385.029 233.8,375.648 331.287,319.362 331.288,328.743 			"/>
			<polygon id="XMLID_152_" style="fill:#37474F;" points="233.8,375.648 185.008,347.478 185.008,356.884 233.799,385.029 			"/>
			<g id="XMLID_148_">
				<path id="XMLID_151_" style="fill:#27DEBF;" d="M217.536,361.567l0-13.746c0-2.761,1.825-3.954,4.077-2.663
					c2.252,1.291,4.077,4.575,4.077,7.337v13.78L217.536,361.567z"/>
				<path id="XMLID_150_" style="opacity:0.3;" d="M217.536,361.567l0-13.746c0-2.761,1.825-3.954,4.077-2.663
					c2.252,1.291,4.077,4.575,4.077,7.337v13.78L217.536,361.567z"/>
				<path id="XMLID_149_" style="opacity:0.1;" d="M224.335,348.021c-0.723-1.216-1.672-2.26-2.723-2.863
					c-2.252-1.291-4.077-0.098-4.077,2.663v13.746l8.154,4.707c0,0-6.705-6.729-6.377-7.568
					C219.555,358.086,222.709,351.44,224.335,348.021z"/>
			</g>
			<g id="XMLID_134_">
				<path id="XMLID_147_" style="fill:#27DEBF;" d="M193.163,347.488l0-13.746c0-2.762,1.825-3.954,4.077-2.663
					c2.252,1.291,4.077,4.575,4.077,7.337v13.78L193.163,347.488z"/>
				<path id="XMLID_146_" style="opacity:0.3;" d="M193.163,347.488l0-13.746c0-2.762,1.825-3.954,4.077-2.663
					c2.252,1.291,4.077,4.575,4.077,7.337v13.78L193.163,347.488z"/>
				<path id="XMLID_140_" style="opacity:0.1;" d="M199.963,333.941c-0.723-1.216-1.672-2.26-2.723-2.863
					c-2.252-1.291-4.077-0.098-4.077,2.663v13.746l8.154,4.707c0,0-6.705-6.729-6.377-7.568
					C195.183,344.007,198.337,337.36,199.963,333.941z"/>
			</g>
			<g id="XMLID_125_">
				<path id="XMLID_133_" style="fill:#27DEBF;" d="M250.062,361.567l0-6.735c0-2.761-1.825-3.954-4.077-2.663
					c-2.252,1.291-4.077,4.575-4.077,7.337v6.769L250.062,361.567z"/>
				<path id="XMLID_132_" style="opacity:0.3;" d="M250.062,361.567l0-6.735c0-2.761-1.825-3.954-4.077-2.663
					c-2.252,1.291-4.077,4.575-4.077,7.337v6.769L250.062,361.567z"/>
				<path id="XMLID_128_" style="opacity:0.1;" d="M249.622,352.832c-0.672-1.243-2.046-1.575-3.636-0.663
					c-1.598,0.916-2.986,2.849-3.654,4.874L249.622,352.832z"/>
			</g>
			<g id="XMLID_111_">
				<path id="XMLID_118_" style="fill:#27DEBF;" d="M323.179,319.354l0-6.735c0-2.761-1.825-3.954-4.077-2.663
					c-2.252,1.29-4.077,4.575-4.077,7.337v6.769L323.179,319.354z"/>
				<path id="XMLID_117_" style="opacity:0.3;" d="M323.179,319.354l0-6.735c0-2.761-1.825-3.954-4.077-2.663
					c-2.252,1.29-4.077,4.575-4.077,7.337v6.769L323.179,319.354z"/>
				<path id="XMLID_112_" style="opacity:0.1;" d="M322.738,310.619c-0.672-1.243-2.046-1.575-3.636-0.663
					c-1.598,0.916-2.986,2.85-3.654,4.875L322.738,310.619z"/>
			</g>
		</g>
		<g id="XMLID_5_">
			<g id="XMLID_102_">
				<polygon id="XMLID_108_" style="fill:#F0F0F0;" points="259.983,369.892 259.983,346.436 266.957,336.371 292.479,351.126 
					292.479,388.654 				"/>
				<polygon id="XMLID_107_" style="fill:#E0E0E0;" points="266.957,336.371 292.479,351.126 292.479,370.421 259.983,351.649 
					259.983,346.436 				"/>
				<polygon id="XMLID_106_" style="fill:#FAFAFA;" points="337.55,362.643 337.549,324.922 315.039,319.351 292.479,351.126 
					292.479,388.654 				"/>
			</g>
			<g id="XMLID_43_">
				<polygon id="XMLID_82_" style="fill:#37474F;" points="286.605,359.22 315.039,319.351 315.039,314.672 282.543,361.565 				"/>
				<polygon id="XMLID_79_" style="fill:#455A64;" points="290.667,300.6 315.039,314.672 282.543,361.565 258.171,347.493 				"/>
				<polygon id="XMLID_53_" style="fill:#263238;" points="315.039,319.351 343.479,326.39 347.542,324.045 315.039,314.672 				"/>
				<polygon id="XMLID_50_" style="fill:#37474F;" points="290.667,300.6 315.039,314.672 347.542,324.045 323.169,309.985 				"/>
				<polygon id="XMLID_45_" points="343.479,326.39 337.55,326.39 337.549,324.922 				"/>
			</g>
			<g id="XMLID_6_">
				<path id="XMLID_42_" style="fill:#37474F;" d="M323.164,370.952l0-27.518c0-5.523-3.637-7.9-8.124-5.31
					c-4.487,2.59-8.126,9.168-8.128,14.69l-0.009,27.523L323.164,370.952z"/>
				<path id="XMLID_41_" style="fill:#E0E0E0;" d="M320.558,344.327l-2.26,1.3l-1,0.58l-1.76,1.02l-1,0.57l-1.76,1.02l-1,0.58
					l-2.26,1.3c0-2.25,0.89-4.76,2.26-6.78c0.3-0.46,0.63-0.89,1-1.29c0.54-0.62,1.13-1.17,1.76-1.59c0.17-0.12,0.33-0.22,0.5-0.32
					c0.17-0.1,0.34-0.18,0.5-0.26c0.62-0.29,1.22-0.44,1.76-0.45c0.36-0.01,0.69,0.04,1,0.14
					C319.668,340.598,320.558,342.067,320.558,344.327z"/>
				<g id="XMLID_8_">
					<g id="XMLID_27_">
						<path id="XMLID_39_" style="fill:#37474F;" d="M315.538,340.457v6.77l-1,0.57v-6.76c0.17-0.12,0.33-0.22,0.5-0.32
							C315.208,340.617,315.378,340.538,315.538,340.457z"/>
					</g>
					<g id="XMLID_25_">
						<path id="XMLID_26_" style="fill:#37474F;" d="M318.298,340.147v5.48l-1,0.58v-6.2
							C317.658,339.997,317.988,340.047,318.298,340.147z"/>
					</g>
					<g id="XMLID_9_">
						<path id="XMLID_23_" style="fill:#37474F;" d="M312.778,342.627v6.19l-1,0.58v-5.48
							C312.078,343.457,312.408,343.027,312.778,342.627z"/>
					</g>
				</g>
				<polygon id="XMLID_7_" style="fill:#455A64;" points="309.518,376.589 320.558,370.219 320.558,346.665 309.518,353.035 				"/>
			</g>
		</g>
	</g>
</g>
</svg>
