<svg width="179" height="37" viewBox="0 0 179 37" fill="none" xmlns="http://www.w3.org/2000/svg">
<g clip-path="url(#clip0_2061_1253)">
<path d="M24.4957 3.15423C24.4957 3.18871 24.6862 3.65409 25.0672 4.55037C25.4829 5.44666 26.0198 6.61872 26.6779 8.06657C27.336 9.47994 28.0808 11.1174 28.9121 12.9789C29.778 14.8059 30.644 16.6847 31.51 18.6152C32.4106 20.5111 33.2765 22.3899 34.1079 24.2514C34.9738 26.0785 35.7359 27.7159 36.394 29.1637C37.0521 30.6116 37.5717 31.8009 37.9527 32.7316C38.3684 33.6279 38.5762 34.1105 38.5762 34.1795C38.8533 34.6621 38.8533 35.1447 38.5762 35.6273C38.3337 36.0755 37.9701 36.2996 37.4851 36.2996C36.2728 36.2996 35.3375 36.2996 34.6794 36.2996C34.0213 36.2996 33.519 36.2823 33.1726 36.2478C32.8262 36.1789 32.5664 36.0927 32.3933 35.9893C32.2547 35.8859 32.0988 35.748 31.9256 35.5756C30.3669 33.7141 28.4618 32.3697 26.2103 31.5423C23.9934 30.6805 21.7073 30.2841 19.3519 30.353C16.9965 30.3875 14.693 30.8529 12.4415 31.7492C10.2246 32.6455 8.33685 33.921 6.77812 35.5756C6.6742 35.748 6.55297 35.8859 6.41441 35.9893C6.27586 36.0927 6.03339 36.1789 5.68701 36.2478C5.34062 36.2823 4.83836 36.2996 4.18023 36.2996C3.5221 36.2996 2.6215 36.2996 1.47843 36.2996C0.889579 36.2996 0.473918 36.0755 0.231449 35.6273C-0.0110206 35.1447 -0.0629793 34.6621 0.0755745 34.1795C2.67346 28.6294 4.83837 23.9756 6.57029 20.2181C8.30221 16.4606 9.72238 13.3753 10.8308 10.9623C11.9392 8.54918 12.8052 6.7049 13.4287 5.42942C14.0522 4.15394 14.5371 3.20594 14.8835 2.58544C15.2645 1.96493 15.559 1.5685 15.7668 1.39614C16.0093 1.1893 16.2864 0.982464 16.5981 0.77563C17.2563 0.361959 17.9663 0.120653 18.7284 0.0517087C19.5251 -0.0517095 20.2871 1.13249e-06 21.0145 0.206838C21.7419 0.413672 22.4001 0.775631 22.9889 1.29272C23.6124 1.77533 24.1147 2.39584 24.4957 3.15423ZM10.7789 26.3198C12.0951 25.8371 13.4807 25.4752 14.9355 25.2339C16.4249 24.9581 17.9144 24.8202 19.4038 24.8202C20.9279 24.7857 22.4174 24.8892 23.8722 25.1305C25.3617 25.3373 26.7645 25.6476 28.0808 26.0612C27.8383 25.5441 27.6478 25.1649 27.5092 24.9236C27.4053 24.6478 27.2668 24.3548 27.0936 24.0446C26.955 23.6999 26.7472 23.2345 26.4701 22.6484C26.193 22.0624 25.76 21.1661 25.1711 19.9596C24.6169 18.753 23.8722 17.1501 22.937 15.1507C22.0364 13.1513 20.8587 10.5658 19.4038 7.39435C17.949 10.4624 16.7713 12.9961 15.8707 14.9955C14.9701 16.9605 14.2427 18.5462 13.6885 19.7527C13.1343 20.9593 12.7186 21.8728 12.4415 22.4933C12.1644 23.1138 11.9392 23.6137 11.7661 23.9929C11.6275 24.3721 11.4889 24.7168 11.3504 25.027C11.2118 25.3373 11.0213 25.7682 10.7789 26.3198Z" fill="#0C1E1E"/>
<path d="M51.752 4.00971C51.752 2.94106 52.081 2.14819 52.7391 1.6311C53.4319 1.11402 54.1766 0.855469 54.9733 0.855469C55.77 0.855469 56.4974 1.11402 57.1556 1.6311C57.8137 2.14819 58.1427 2.94106 58.1427 4.00971V33.8457C58.1427 34.8798 57.8137 35.6727 57.1556 36.2243C56.4974 36.7414 55.77 36.9999 54.9733 36.9999C54.1766 36.9999 53.4319 36.7414 52.7391 36.2243C52.081 35.6727 51.752 34.8798 51.752 33.8457V4.00971Z" fill="#0C1E1E"/>
<path d="M72.6973 14.3517C72.6973 13.283 73.0264 12.4901 73.6845 11.9731C74.3426 11.456 75.07 11.1974 75.8667 11.1974C76.6634 11.1974 77.3908 11.456 78.0489 11.9731C78.7071 12.4901 79.0361 13.283 79.0361 14.3517V33.8459C79.0361 34.88 78.7071 35.6729 78.0489 36.2245C77.3908 36.7416 76.6634 37.0001 75.8667 37.0001C75.07 37.0001 74.3426 36.7416 73.6845 36.2245C73.0264 35.6729 72.6973 34.88 72.6973 33.8459V14.3517ZM75.8148 7.00901C74.7756 7.00901 73.9962 6.69875 73.4767 6.07825C72.9917 5.42327 72.7493 4.71658 72.7493 3.95819C72.7493 3.16532 73.0091 2.4414 73.5286 1.78642C74.0482 1.13144 74.8449 0.803955 75.9187 0.803955C76.9578 0.803955 77.7372 1.13144 78.2568 1.78642C78.7763 2.4414 79.0361 3.16532 79.0361 3.95819C79.0361 4.71658 78.759 5.42327 78.2048 6.07825C77.6852 6.69875 76.8886 7.00901 75.8148 7.00901Z" fill="#0C1E1E"/>
<path d="M99.9826 33.8457C99.9826 34.8798 99.6362 35.6727 98.9435 36.2243C98.2853 36.7414 97.5579 36.9999 96.7612 36.9999C95.9645 36.9999 95.2371 36.7414 94.579 36.2243C93.9209 35.7072 93.5918 34.9143 93.5918 33.8457V22.6766C93.5918 20.6082 93.9555 18.8157 94.6829 17.2989C95.445 15.7476 96.4322 14.4721 97.6445 13.4724C98.8915 12.4382 100.277 11.6798 101.801 11.1972C103.36 10.6801 104.936 10.4216 106.529 10.4216C108.296 10.4216 109.993 10.7318 111.621 11.3524C113.249 11.9729 114.617 12.9036 115.726 14.1446C116.938 12.9381 118.376 12.0246 120.038 11.4041C121.735 10.7836 123.502 10.4733 125.338 10.4733C126.862 10.4733 128.351 10.7146 129.806 11.1972C131.261 11.6454 132.56 12.3693 133.703 13.369C134.846 14.3687 135.764 15.6442 136.457 17.1954C137.15 18.7122 137.496 20.5393 137.496 22.6766V33.8457C137.496 34.8798 137.167 35.6727 136.509 36.2243C135.851 36.7414 135.123 36.9999 134.327 36.9999C133.53 36.9999 132.785 36.7414 132.092 36.2243C131.434 35.6727 131.105 34.8798 131.105 33.8457V22.6766C131.105 21.6769 130.915 20.8151 130.534 20.0911C130.187 19.3327 129.72 18.7122 129.131 18.2296C128.577 17.7125 127.918 17.3333 127.156 17.092C126.429 16.8162 125.684 16.6784 124.922 16.6784C124.126 16.6784 123.363 16.8162 122.636 17.092C121.909 17.3333 121.251 17.7125 120.662 18.2296C120.073 18.7122 119.605 19.3327 119.259 20.0911C118.912 20.8151 118.739 21.6769 118.739 22.6766V33.8457C118.739 34.8798 118.41 35.6727 117.752 36.2243C117.094 36.7414 116.366 36.9999 115.57 36.9999C114.773 36.9999 114.028 36.7414 113.336 36.2243C112.677 35.6727 112.348 34.8798 112.348 33.8457V22.6766C112.348 21.6769 112.158 20.8151 111.777 20.0911C111.431 19.3327 110.963 18.7122 110.374 18.2296C109.82 17.7125 109.162 17.3333 108.4 17.092C107.638 16.8162 106.876 16.6784 106.114 16.6784C105.351 16.6784 104.589 16.799 103.827 17.0403C103.1 17.2816 102.442 17.6608 101.853 18.1779C101.299 18.6605 100.848 19.281 100.502 20.0394C100.156 20.7978 99.9826 21.6769 99.9826 22.6766V33.8457Z" fill="#0C1E1E"/>
<path d="M150.994 23.2229C150.994 21.3614 151.358 19.6033 152.085 17.9486C152.812 16.2939 153.8 14.8461 155.047 13.605C156.293 12.364 157.766 11.3816 159.463 10.6577C161.16 9.93374 162.996 9.57178 164.97 9.57178C166.945 9.57178 168.781 9.93374 170.478 10.6577C172.175 11.3471 173.647 12.3123 174.894 13.5533C176.176 14.7943 177.18 16.2422 177.908 17.8969C178.635 19.5516 178.999 21.3269 178.999 23.2229V33.4095C178.999 34.3403 178.67 35.047 178.012 35.5296C177.354 35.9777 176.626 36.2018 175.83 36.2018C175.033 36.2018 174.288 35.9777 173.595 35.5296C172.937 35.047 172.608 34.3403 172.608 33.4095V23.2229C172.608 21.8785 172.383 20.7064 171.933 19.7067C171.517 18.707 170.963 17.8796 170.27 17.2247C169.577 16.5352 168.763 16.0354 167.828 15.7251C166.927 15.3804 166.01 15.208 165.074 15.208C164.104 15.208 163.152 15.3804 162.217 15.7251C161.316 16.0354 160.502 16.5352 159.775 17.2247C159.047 17.8796 158.458 18.707 158.008 19.7067C157.592 20.7064 157.385 21.8785 157.385 23.2229C157.385 24.2226 157.558 25.2051 157.904 26.1703C158.285 27.101 158.805 27.9456 159.463 28.704C160.156 29.4624 160.97 30.0829 161.905 30.5655C162.84 31.0137 163.862 31.2377 164.97 31.2377C165.178 31.2377 165.455 31.2205 165.802 31.186C166.148 31.1516 166.512 31.1688 166.893 31.2377C167.309 31.3067 167.69 31.4618 168.036 31.7031C168.417 31.9444 168.729 32.3409 168.971 32.8924C169.248 33.5474 169.335 34.1334 169.231 34.6505C169.127 35.1331 168.885 35.5468 168.504 35.8915C168.123 36.2363 167.603 36.4948 166.945 36.6672C166.321 36.8395 165.629 36.9257 164.866 36.9257C163.516 36.9257 162.026 36.6499 160.398 36.0984C158.805 35.5468 157.298 34.7195 155.878 33.6163C154.492 32.4788 153.332 31.0481 152.397 29.3245C151.461 27.6009 150.994 25.567 150.994 23.2229Z" fill="#0C1E1E"/>
</g>
<defs>
<clipPath id="clip0_2061_1253">
<rect width="179" height="37" fill="white"/>
</clipPath>
</defs>
</svg>
