<svg width="179" height="37" viewBox="0 0 179 37" fill="none" xmlns="http://www.w3.org/2000/svg">
<path d="M24.4957 3.15423C24.4957 3.18871 24.6862 3.65409 25.0672 4.55037C25.4829 5.44666 26.0198 6.61872 26.6779 8.06657C27.336 9.47994 28.0808 11.1174 28.9121 12.9789C29.778 14.8059 30.644 16.6847 31.51 18.6152C32.4106 20.5111 33.2765 22.3899 34.1079 24.2514C34.9738 26.0785 35.7359 27.7159 36.394 29.1637C37.0521 30.6116 37.5717 31.8009 37.9527 32.7316C38.3684 33.6279 38.5762 34.1105 38.5762 34.1795C38.8533 34.6621 38.8533 35.1447 38.5762 35.6273C38.3337 36.0755 37.9701 36.2996 37.4851 36.2996C36.2728 36.2996 35.3375 36.2996 34.6794 36.2996C34.0213 36.2996 33.519 36.2823 33.1726 36.2478C32.8262 36.1789 32.5664 36.0927 32.3933 35.9893C32.2547 35.8859 32.0988 35.748 31.9256 35.5756C30.3669 33.7141 28.4618 32.3697 26.2103 31.5423C23.9934 30.6805 21.7073 30.2841 19.3519 30.353C16.9965 30.3875 14.693 30.8529 12.4415 31.7492C10.2246 32.6455 8.33685 33.921 6.77812 35.5756C6.6742 35.748 6.55297 35.8859 6.41441 35.9893C6.27586 36.0927 6.03339 36.1789 5.68701 36.2478C5.34062 36.2823 4.83836 36.2996 4.18023 36.2996C3.5221 36.2996 2.6215 36.2996 1.47843 36.2996C0.889579 36.2996 0.473918 36.0755 0.231449 35.6273C-0.0110206 35.1447 -0.0629793 34.6621 0.0755745 34.1795C2.67346 28.6294 4.83837 23.9756 6.57029 20.2181C8.30221 16.4606 9.72238 13.3753 10.8308 10.9623C11.9392 8.54918 12.8052 6.7049 13.4287 5.42942C14.0522 4.15394 14.5371 3.20594 14.8835 2.58544C15.2645 1.96493 15.559 1.5685 15.7668 1.39614C16.0093 1.1893 16.2864 0.982464 16.5981 0.77563C17.2563 0.361959 17.9663 0.120653 18.7284 0.0517087C19.5251 -0.0517095 20.2871 1.14739e-06 21.0145 0.206838C21.7419 0.413672 22.4001 0.775631 22.9889 1.29272C23.6124 1.77533 24.1147 2.39584 24.4957 3.15423ZM10.7789 26.3198C12.0951 25.8371 13.4807 25.4752 14.9355 25.2339C16.4249 24.9581 17.9144 24.8202 19.4038 24.8202C20.9279 24.7857 22.4174 24.8892 23.8722 25.1305C25.3617 25.3373 26.7645 25.6476 28.0808 26.0612C27.8383 25.5441 27.6478 25.1649 27.5092 24.9236C27.4053 24.6478 27.2668 24.3548 27.0936 24.0446C26.955 23.6999 26.7472 23.2345 26.4701 22.6484C26.193 22.0624 25.76 21.1661 25.1711 19.9596C24.6169 18.753 23.8722 17.1501 22.937 15.1507C22.0364 13.1513 20.8587 10.5658 19.4038 7.39435C17.949 10.4624 16.7713 12.9961 15.8707 14.9955C14.9701 16.9605 14.2427 18.5462 13.6885 19.7527C13.1343 20.9593 12.7186 21.8728 12.4415 22.4933C12.1644 23.1138 11.9392 23.6137 11.7661 23.9929C11.6275 24.3721 11.4889 24.7168 11.3504 25.027C11.2118 25.3373 11.0213 25.7682 10.7789 26.3198Z" fill="#0C1E1E"/>
<path d="M51.7516 4.00981C51.7516 2.94116 52.0806 2.14829 52.7387 1.6312C53.4315 1.11412 54.1762 0.855572 54.9729 0.855572C55.7696 0.855572 56.497 1.11412 57.1552 1.6312C57.8133 2.14829 58.1423 2.94116 58.1423 4.00981V33.8458C58.1423 34.8799 57.8133 35.6728 57.1552 36.2244C56.497 36.7415 55.7696 37 54.9729 37C54.1762 37 53.4315 36.7415 52.7387 36.2244C52.0806 35.6728 51.7516 34.8799 51.7516 33.8458V4.00981Z" fill="#0C1E1E"/>
<path d="M72.697 14.3516C72.697 13.2829 73.0261 12.49 73.6842 11.973C74.3423 11.4559 75.0697 11.1973 75.8664 11.1973C76.6631 11.1973 77.3905 11.4559 78.0486 11.973C78.7068 12.49 79.0358 13.2829 79.0358 14.3516V33.8458C79.0358 34.8799 78.7068 35.6728 78.0486 36.2244C77.3905 36.7415 76.6631 37 75.8664 37C75.0697 37 74.3423 36.7415 73.6842 36.2244C73.0261 35.6728 72.697 34.8799 72.697 33.8458V14.3516ZM75.8145 7.00892C74.7753 7.00892 73.9959 6.69866 73.4764 6.07816C72.9914 5.42318 72.749 4.71649 72.749 3.9581C72.749 3.16523 73.0088 2.44131 73.5283 1.78633C74.0479 1.13135 74.8446 0.803864 75.9184 0.803864C76.9575 0.803864 77.7369 1.13135 78.2565 1.78633C78.776 2.44131 79.0358 3.16523 79.0358 3.9581C79.0358 4.71649 78.7587 5.42318 78.2045 6.07816C77.6849 6.69866 76.8883 7.00892 75.8145 7.00892Z" fill="#0C1E1E"/>
<path d="M99.9825 33.8458C99.9825 34.8799 99.6361 35.6728 98.9434 36.2244C98.2852 36.7415 97.5578 37 96.7611 37C95.9644 37 95.237 36.7415 94.5789 36.2244C93.9208 35.7073 93.5917 34.9144 93.5917 33.8458V22.6767C93.5917 20.6083 93.9554 18.8158 94.6828 17.299C95.4449 15.7477 96.4321 14.4722 97.6444 13.4725C98.8914 12.4383 100.277 11.6799 101.801 11.1973C103.36 10.6802 104.936 10.4217 106.529 10.4217C108.296 10.4217 109.993 10.7319 111.621 11.3525C113.249 11.973 114.617 12.9037 115.726 14.1447C116.938 12.9382 118.376 12.0247 120.038 11.4042C121.735 10.7837 123.502 10.4734 125.338 10.4734C126.862 10.4734 128.351 10.7147 129.806 11.1973C131.261 11.6455 132.56 12.3694 133.703 13.3691C134.846 14.3688 135.764 15.6443 136.457 17.1955C137.15 18.7123 137.496 20.5394 137.496 22.6767V33.8458C137.496 34.8799 137.167 35.6728 136.509 36.2244C135.851 36.7415 135.123 37 134.327 37C133.53 37 132.785 36.7415 132.092 36.2244C131.434 35.6728 131.105 34.8799 131.105 33.8458V22.6767C131.105 21.677 130.915 20.8152 130.534 20.0912C130.187 19.3328 129.72 18.7123 129.131 18.2297C128.577 17.7126 127.918 17.3334 127.156 17.0921C126.429 16.8163 125.684 16.6785 124.922 16.6785C124.126 16.6785 123.363 16.8163 122.636 17.0921C121.909 17.3334 121.251 17.7126 120.662 18.2297C120.073 18.7123 119.605 19.3328 119.259 20.0912C118.912 20.8152 118.739 21.677 118.739 22.6767V33.8458C118.739 34.8799 118.41 35.6728 117.752 36.2244C117.094 36.7415 116.366 37 115.57 37C114.773 37 114.028 36.7415 113.336 36.2244C112.677 35.6728 112.348 34.8799 112.348 33.8458V22.6767C112.348 21.677 112.158 20.8152 111.777 20.0912C111.431 19.3328 110.963 18.7123 110.374 18.2297C109.82 17.7126 109.162 17.3334 108.4 17.0921C107.638 16.8163 106.876 16.6785 106.114 16.6785C105.351 16.6785 104.589 16.7991 103.827 17.0404C103.1 17.2817 102.442 17.6609 101.853 18.178C101.299 18.6606 100.848 19.2811 100.502 20.0395C100.156 20.7979 99.9825 21.677 99.9825 22.6767V33.8458Z" fill="#0C1E1E"/>
<path d="M150.995 23.2229C150.995 21.3614 151.359 19.6033 152.086 17.9486C152.813 16.2939 153.801 14.8461 155.048 13.605C156.294 12.364 157.767 11.3816 159.464 10.6577C161.161 9.93373 162.997 9.57177 164.971 9.57177C166.946 9.57177 168.782 9.93373 170.479 10.6577C172.176 11.3471 173.648 12.3123 174.895 13.5533C176.177 14.7943 177.181 16.2422 177.909 17.8969C178.636 19.5516 179 21.3269 179 23.2229V33.4095C179 34.3403 178.671 35.047 178.013 35.5296C177.355 35.9777 176.627 36.2018 175.831 36.2018C175.034 36.2018 174.289 35.9777 173.596 35.5296C172.938 35.047 172.609 34.3403 172.609 33.4095V23.2229C172.609 21.8785 172.384 20.7064 171.934 19.7067C171.518 18.707 170.964 17.8796 170.271 17.2247C169.578 16.5352 168.764 16.0354 167.829 15.7251C166.928 15.3804 166.011 15.208 165.075 15.208C164.105 15.208 163.153 15.3804 162.218 15.7251C161.317 16.0354 160.503 16.5352 159.776 17.2247C159.048 17.8796 158.459 18.707 158.009 19.7067C157.593 20.7064 157.386 21.8785 157.386 23.2229C157.386 24.2226 157.559 25.2051 157.905 26.1703C158.286 27.101 158.806 27.9456 159.464 28.704C160.157 29.4624 160.971 30.0829 161.906 30.5655C162.841 31.0137 163.863 31.2377 164.971 31.2377C165.179 31.2377 165.456 31.2205 165.803 31.186C166.149 31.1516 166.513 31.1688 166.894 31.2377C167.31 31.3067 167.691 31.4618 168.037 31.7031C168.418 31.9444 168.73 32.3409 168.972 32.8924C169.249 33.5474 169.336 34.1334 169.232 34.6505C169.128 35.1331 168.886 35.5468 168.505 35.8915C168.124 36.2363 167.604 36.4948 166.946 36.6672C166.322 36.8395 165.63 36.9257 164.867 36.9257C163.517 36.9257 162.027 36.6499 160.399 36.0984C158.806 35.5468 157.299 34.7195 155.879 33.6163C154.493 32.4788 153.333 31.0481 152.398 29.3245C151.462 27.6009 150.995 25.567 150.995 23.2229Z" fill="#0C1E1E"/>
</svg>
