<svg width="500" height="500" viewBox="0 0 500 500" fill="none" xmlns="http://www.w3.org/2000/svg">
<path d="M133.745 351.265C133.745 359.047 131.157 365.013 125.981 369.163C121.065 373.054 115.63 375 109.678 375C103.726 375 98.292 373.054 93.3752 369.163C88.4584 365.272 86 359.306 86 351.265V267.218C86 251.654 88.7172 238.165 94.1516 226.751C99.8447 215.078 107.22 205.48 116.277 197.957C125.593 190.175 135.944 184.468 147.33 180.837C158.975 176.946 170.75 175 182.653 175C195.851 175 208.531 177.335 220.694 182.004C232.856 186.673 243.078 193.677 251.359 203.016C260.416 193.936 271.155 187.062 283.576 182.393C296.256 177.724 309.454 175.389 323.169 175.389C334.555 175.389 345.683 177.205 356.551 180.837C367.42 184.209 377.124 189.656 385.664 197.179C394.203 204.702 401.061 214.3 406.237 225.973C411.412 237.387 414 251.135 414 267.218V351.265C414 359.047 411.542 365.013 406.625 369.163C401.708 373.054 396.274 375 390.322 375C384.37 375 378.806 373.054 373.631 369.163C368.714 365.013 366.256 359.047 366.256 351.265V267.218C366.256 259.695 364.832 253.21 361.986 247.763C359.398 242.056 355.905 237.387 351.505 233.755C347.365 229.864 342.448 227.01 336.755 225.195C331.321 223.119 325.757 222.082 320.064 222.082C314.112 222.082 308.419 223.119 302.985 225.195C297.551 227.01 292.634 229.864 288.234 233.755C283.835 237.387 280.342 242.056 277.754 247.763C275.166 253.21 273.872 259.695 273.872 267.218V351.265C273.872 359.047 271.414 365.013 266.497 369.163C261.58 373.054 256.146 375 250.194 375C244.242 375 238.679 373.054 233.503 369.163C228.586 365.013 226.128 359.047 226.128 351.265V267.218C226.128 259.695 224.705 253.21 221.858 247.763C219.27 242.056 215.777 237.387 211.378 233.755C207.237 229.864 202.32 227.01 196.627 225.195C190.934 223.119 185.241 222.082 179.548 222.082C173.855 222.082 168.162 222.99 162.469 224.805C157.035 226.621 152.118 229.475 147.718 233.366C143.578 236.997 140.214 241.667 137.626 247.374C135.038 253.08 133.745 259.695 133.745 267.218V351.265Z" fill="#70FE90"/>
</svg>
