<svg width="500" height="500" viewBox="0 0 500 500" fill="none" xmlns="http://www.w3.org/2000/svg">
<path d="M82.6411 319.363C82.6411 319.363 79.0531 301.266 84.2021 291.703C89.3511 282.14 104.799 292.439 103.328 279.198C101.857 265.957 91.5581 205.637 123.189 190.925C154.82 176.213 201.899 194.603 215.876 154.145C229.853 113.687 228.381 84.262 275.46 83.527C322.539 82.791 410.076 196.811 415.226 232.12C420.375 267.429 369.406 298.301 368.041 316.703C366.676 335.105 397.572 377.771 388.009 393.218C378.446 408.666 376.239 412.344 376.239 412.344L82.6411 319.363Z" fill="#92E3A9"/>
<path opacity="0.7" d="M82.6411 319.363C82.6411 319.363 79.0531 301.266 84.2021 291.703C89.3511 282.14 104.799 292.439 103.328 279.198C101.857 265.957 91.5581 205.637 123.189 190.925C154.82 176.213 201.899 194.603 215.876 154.145C229.853 113.687 228.381 84.262 275.46 83.527C322.539 82.791 410.076 196.811 415.226 232.12C420.375 267.429 369.406 298.301 368.041 316.703C366.676 335.105 397.572 377.771 388.009 393.218C378.446 408.666 376.239 412.344 376.239 412.344L82.6411 319.363Z" fill="white"/>
<path d="M370.004 410.61L383.874 414.966" stroke="#263238" stroke-miterlimit="10" strokeLinecap="round" stroke-linejoin="round"/>
<path d="M102.652 326.658L359.972 407.46" stroke="#263238" stroke-miterlimit="10" strokeLinecap="round" stroke-linejoin="round"/>
<path d="M230.99 421.171L262.22 386.597L163.588 353.271L135.483 387.842L230.99 421.171Z" fill="#92E3A9" stroke="#263238" stroke-miterlimit="10" strokeLinecap="round" stroke-linejoin="round"/>
<path d="M228.014 411.975L248.979 389.355L173.947 362.874L152.982 387.149L228.014 411.975Z" fill="#263238" stroke="#263238" stroke-miterlimit="10" strokeLinecap="round" stroke-linejoin="round"/>
<path d="M217 258.198C217 258.198 201.517 262.302 194.988 268.458C188.459 274.614 185.475 285.993 185.475 285.993C185.475 285.993 176.708 293.454 172.604 295.693C168.5 297.931 161.785 302.222 158.427 312.295C155.069 322.368 150.965 345.126 150.965 345.126L161.411 349.976C161.411 349.976 161.598 344.007 170.925 334.866C180.252 325.726 186.035 310.243 186.781 309.87C187.527 309.497 203.942 298.678 203.942 298.678C203.942 298.678 216.627 307.445 230.99 309.87C245.353 312.295 261.209 309.684 261.209 309.684L256.732 323.488C256.732 323.488 246.472 327.965 243.861 333.375C241.25 338.785 228.938 359.304 228.938 359.304L237.705 366.393C237.705 366.393 246.845 359.304 259.716 352.776C272.587 346.247 275.758 341.584 279.489 333.936C283.22 326.288 287.883 311.738 288.07 310.432C288.256 309.126 291.987 305.769 292.547 297.747C293.107 289.726 293.107 289.726 293.107 289.726L312.693 272.191C312.693 272.191 328.176 266.035 341.047 251.858C353.918 237.681 355.97 230.779 357.276 218.094C358.582 205.409 363.805 155.231 363.991 154.484C364.178 153.738 365.856 150.007 368.095 149.634C370.333 149.261 382.645 160.08 384.324 161.199C386.003 162.318 389.36 162.878 389.734 159.334C390.108 155.79 387.122 147.022 377.609 137.509C368.096 127.995 361.194 126.503 358.955 128.928C356.717 131.353 358.209 136.576 356.717 144.224C355.225 151.872 345.898 179.48 341.234 192.537C336.571 205.595 338.063 223.316 338.063 223.316C338.063 223.316 331.721 225.554 327.244 228.912C322.767 232.27 315.865 236.933 315.865 236.933L314 236C314 236 324.446 225.554 327.617 219.585C330.788 213.616 331.721 213.243 330.042 209.699C328.363 206.155 314.746 188.993 308.777 181.345C302.808 173.697 295.533 160.826 294.041 157.095C292.549 153.364 292.735 149.634 293.854 147.022C294.973 144.41 305.419 139.187 305.606 131.166C305.792 123.145 300.569 125.383 295.719 127.062C290.869 128.741 277.811 141.426 274.827 149.447C271.842 157.468 274.454 160.08 279.677 164.93C284.9 169.78 291.242 179.667 294.6 188.993C297.958 198.32 302.248 207.274 309.15 209.699C309.15 209.699 298.144 214.922 290.869 220.145C283.594 225.368 280.05 227.793 280.05 227.793C280.05 227.793 270.163 230.591 266.433 235.441C262.702 240.291 261.21 243.462 261.21 243.462C261.21 243.462 227.446 249.244 217 258.198Z" fill="white"/>
<mask id="mask0_114_1935" style="mask-type:luminance" maskUnits="userSpaceOnUse" x="150" y="125" width="240" height="242">
<path d="M217 258.198C217 258.198 201.517 262.302 194.988 268.458C188.459 274.614 185.475 285.993 185.475 285.993C185.475 285.993 176.708 293.454 172.604 295.693C168.5 297.931 161.785 302.222 158.427 312.295C155.069 322.368 150.965 345.126 150.965 345.126L161.411 349.976C161.411 349.976 161.598 344.007 170.925 334.866C180.252 325.726 186.035 310.243 186.781 309.87C187.527 309.497 203.942 298.678 203.942 298.678C203.942 298.678 216.627 307.445 230.99 309.87C245.353 312.295 261.209 309.684 261.209 309.684L256.732 323.488C256.732 323.488 246.472 327.965 243.861 333.375C241.25 338.785 228.938 359.304 228.938 359.304L237.705 366.393C237.705 366.393 246.845 359.304 259.716 352.776C272.587 346.247 275.758 341.584 279.489 333.936C283.22 326.288 287.883 311.738 288.07 310.432C288.256 309.126 291.987 305.769 292.547 297.747C293.107 289.726 293.107 289.726 293.107 289.726L312.693 272.191C312.693 272.191 328.176 266.035 341.047 251.858C353.918 237.681 355.97 230.779 357.276 218.094C358.582 205.409 363.805 155.231 363.991 154.484C364.178 153.738 365.856 150.007 368.095 149.634C370.333 149.261 382.645 160.08 384.324 161.199C386.003 162.318 389.36 162.878 389.734 159.334C390.108 155.79 387.122 147.022 377.609 137.509C368.096 127.995 361.194 126.503 358.955 128.928C356.717 131.353 358.209 136.576 356.717 144.224C355.225 151.872 345.898 179.48 341.234 192.537C336.571 205.595 338.063 223.316 338.063 223.316C338.063 223.316 331.721 225.554 327.244 228.912C322.767 232.27 315.865 236.933 315.865 236.933L314 236C314 236 324.446 225.554 327.617 219.585C330.788 213.616 331.721 213.243 330.042 209.699C328.363 206.155 314.746 188.993 308.777 181.345C302.808 173.697 295.533 160.826 294.041 157.095C292.549 153.364 292.735 149.634 293.854 147.022C294.973 144.41 305.419 139.187 305.606 131.166C305.792 123.145 300.569 125.383 295.719 127.062C290.869 128.741 277.811 141.426 274.827 149.447C271.842 157.468 274.454 160.08 279.677 164.93C284.9 169.78 291.242 179.667 294.6 188.993C297.958 198.32 302.248 207.274 309.15 209.699C309.15 209.699 298.144 214.922 290.869 220.145C283.594 225.368 280.05 227.793 280.05 227.793C280.05 227.793 270.163 230.591 266.433 235.441C262.702 240.291 261.21 243.462 261.21 243.462C261.21 243.462 227.446 249.244 217 258.198Z" fill="white"/>
</mask>
<g mask="url(#mask0_114_1935)">
<path opacity="0.2" d="M306.252 275.893L290.316 283.278C290.316 283.278 291.093 295.328 286.818 301.547C282.542 307.766 280.988 309.71 280.988 309.71C280.988 309.71 280.599 319.039 277.878 324.869C275.157 330.7 270.881 332.643 270.881 332.643C270.881 332.643 271.27 339.251 265.828 344.304C260.386 349.357 246.782 357.52 238.231 362.961C237.338 363.53 236.492 364.132 235.676 364.748L237.707 366.39C237.707 366.39 246.847 359.301 259.718 352.773C272.589 346.244 275.76 341.581 279.491 333.933C283.222 326.285 287.885 311.735 288.072 310.429C288.258 309.123 291.989 305.766 292.549 297.744C293.109 289.723 293.109 289.723 293.109 289.723L307.432 276.901L306.252 275.893Z" fill="black"/>
</g>
<mask id="mask1_114_1935" style="mask-type:luminance" maskUnits="userSpaceOnUse" x="150" y="125" width="240" height="242">
<path d="M217 258.198C217 258.198 201.517 262.302 194.988 268.458C188.459 274.614 185.475 285.993 185.475 285.993C185.475 285.993 176.708 293.454 172.604 295.693C168.5 297.931 161.785 302.222 158.427 312.295C155.069 322.368 150.965 345.126 150.965 345.126L161.411 349.976C161.411 349.976 161.598 344.007 170.925 334.866C180.252 325.726 186.035 310.243 186.781 309.87C187.527 309.497 203.942 298.678 203.942 298.678C203.942 298.678 216.627 307.445 230.99 309.87C245.353 312.295 261.209 309.684 261.209 309.684L256.732 323.488C256.732 323.488 246.472 327.965 243.861 333.375C241.25 338.785 228.938 359.304 228.938 359.304L237.705 366.393C237.705 366.393 246.845 359.304 259.716 352.776C272.587 346.247 275.758 341.584 279.489 333.936C283.22 326.288 287.883 311.738 288.07 310.432C288.256 309.126 291.987 305.769 292.547 297.747C293.107 289.726 293.107 289.726 293.107 289.726L312.693 272.191C312.693 272.191 328.176 266.035 341.047 251.858C353.918 237.681 355.97 230.779 357.276 218.094C358.582 205.409 363.805 155.231 363.991 154.484C364.178 153.738 365.856 150.007 368.095 149.634C370.333 149.261 382.645 160.08 384.324 161.199C386.003 162.318 389.36 162.878 389.734 159.334C390.108 155.79 387.122 147.022 377.609 137.509C368.096 127.995 361.194 126.503 358.955 128.928C356.717 131.353 358.209 136.576 356.717 144.224C355.225 151.872 345.898 179.48 341.234 192.537C336.571 205.595 338.063 223.316 338.063 223.316C338.063 223.316 331.721 225.554 327.244 228.912C322.767 232.27 315.865 236.933 315.865 236.933L314 236C314 236 324.446 225.554 327.617 219.585C330.788 213.616 331.721 213.243 330.042 209.699C328.363 206.155 314.746 188.993 308.777 181.345C302.808 173.697 295.533 160.826 294.041 157.095C292.549 153.364 292.735 149.634 293.854 147.022C294.973 144.41 305.419 139.187 305.606 131.166C305.792 123.145 300.569 125.383 295.719 127.062C290.869 128.741 277.811 141.426 274.827 149.447C271.842 157.468 274.454 160.08 279.677 164.93C284.9 169.78 291.242 179.667 294.6 188.993C297.958 198.32 302.248 207.274 309.15 209.699C309.15 209.699 298.144 214.922 290.869 220.145C283.594 225.368 280.05 227.793 280.05 227.793C280.05 227.793 270.163 230.591 266.433 235.441C262.702 240.291 261.21 243.462 261.21 243.462C261.21 243.462 227.446 249.244 217 258.198Z" fill="white"/>
</mask>
<g mask="url(#mask1_114_1935)">
<path opacity="0.2" d="M230.99 309.869C244.008 312.067 258.252 310.128 260.806 309.745C261.626 307.603 262.154 305.188 260.774 304.268C258.442 302.713 259.219 298.437 259.219 298.437C259.219 298.437 257.276 302.713 241.728 302.713C226.18 302.713 205.19 289.497 205.19 289.497C205.19 289.497 203.635 294.161 199.36 295.716C195.084 297.271 183.423 303.879 183.423 303.879C183.423 303.879 183.034 314.763 175.26 321.37C167.486 327.978 158.53 343.402 158.53 343.402L157.172 348.006L161.411 349.974C161.411 349.974 161.598 344.005 170.925 334.864C180.252 325.724 186.035 310.241 186.781 309.868C187.527 309.495 203.943 298.676 203.943 298.676C203.943 298.676 216.627 307.444 230.99 309.869Z" fill="black"/>
</g>
<path d="M217 258.198C217 258.198 201.517 262.302 194.988 268.458C188.459 274.614 185.475 285.993 185.475 285.993C185.475 285.993 176.708 293.454 172.604 295.693C168.5 297.931 161.785 302.222 158.427 312.295C155.069 322.368 150.965 345.126 150.965 345.126L161.411 349.976C161.411 349.976 161.598 344.007 170.925 334.866C180.252 325.726 186.035 310.243 186.781 309.87C187.527 309.497 203.942 298.678 203.942 298.678C203.942 298.678 216.627 307.445 230.99 309.87C245.353 312.295 261.209 309.684 261.209 309.684L256.732 323.488C256.732 323.488 246.472 327.965 243.861 333.375C241.25 338.785 228.938 359.304 228.938 359.304L237.705 366.393C237.705 366.393 246.845 359.304 259.716 352.776C272.587 346.247 275.758 341.584 279.489 333.936C283.22 326.288 287.883 311.738 288.07 310.432C288.256 309.126 291.987 305.769 292.547 297.747C293.107 289.726 293.107 289.726 293.107 289.726L312.693 272.191C312.693 272.191 328.176 266.035 341.047 251.858C353.918 237.681 355.97 230.779 357.276 218.094C358.582 205.409 363.805 155.231 363.991 154.484C364.178 153.738 365.856 150.007 368.095 149.634C370.333 149.261 382.645 160.08 384.324 161.199C386.003 162.318 389.36 162.878 389.734 159.334C390.108 155.79 387.122 147.022 377.609 137.509C368.096 127.995 361.194 126.503 358.955 128.928C356.717 131.353 358.209 136.576 356.717 144.224C355.225 151.872 345.898 179.48 341.234 192.537C336.571 205.595 338.063 223.316 338.063 223.316C338.063 223.316 331.721 225.554 327.244 228.912C322.767 232.27 315.865 236.933 315.865 236.933L314 236C314 236 324.446 225.554 327.617 219.585C330.788 213.616 331.721 213.243 330.042 209.699C328.363 206.155 314.746 188.993 308.777 181.345C302.808 173.697 295.533 160.826 294.041 157.095C292.549 153.364 292.735 149.634 293.854 147.022C294.973 144.41 305.419 139.187 305.606 131.166C305.792 123.145 300.569 125.383 295.719 127.062C290.869 128.741 277.811 141.426 274.827 149.447C271.842 157.468 274.454 160.08 279.677 164.93C284.9 169.78 291.242 179.667 294.6 188.993C297.958 198.32 302.248 207.274 309.15 209.699C309.15 209.699 298.144 214.922 290.869 220.145C283.594 225.368 280.05 227.793 280.05 227.793C280.05 227.793 270.163 230.591 266.433 235.441C262.702 240.291 261.21 243.462 261.21 243.462C261.21 243.462 227.446 249.244 217 258.198Z" stroke="#263238" stroke-miterlimit="10" strokeLinecap="round" stroke-linejoin="round"/>
<path d="M272.961 236.933C270.606 236.933 267.696 237.151 264.958 237.433C262.313 241.134 261.209 243.462 261.209 243.462C261.209 243.462 227.446 249.245 216.999 258.199C216.999 258.199 201.516 262.303 194.987 268.459C188.458 274.615 185.474 285.994 185.474 285.994C185.474 285.994 180.828 289.945 176.716 292.961C179.951 292.729 185.379 292.862 188.272 295.881C191.196 298.932 191 304.319 190.579 307.443C195.643 304.148 203.941 298.679 203.941 298.679C203.941 298.679 216.626 307.446 230.989 309.871C245.352 312.296 261.208 309.685 261.208 309.685L260.487 311.907C263.177 309.895 268.992 306.946 277.436 310.245C282.079 312.059 284.402 315.256 285.505 318.649C286.952 314.423 287.983 311.03 288.069 310.431C288.255 309.125 291.986 305.768 292.546 297.746C293.106 289.725 293.106 289.725 293.106 289.725L309.61 274.95C309.959 271.365 309.507 265.84 306.164 258.2C299.637 243.275 278.744 236.933 272.961 236.933Z" fill="#92E3A9"/>
<mask id="mask2_114_1935" style="mask-type:luminance" maskUnits="userSpaceOnUse" x="176" y="236" width="134" height="83">
<path d="M272.961 236.933C270.606 236.933 267.696 237.151 264.958 237.433C262.313 241.134 261.209 243.462 261.209 243.462C261.209 243.462 227.446 249.245 216.999 258.199C216.999 258.199 201.516 262.303 194.987 268.459C188.458 274.615 185.474 285.994 185.474 285.994C185.474 285.994 180.828 289.945 176.716 292.961C179.951 292.729 185.379 292.862 188.272 295.881C191.196 298.932 191 304.319 190.579 307.443C195.643 304.148 203.941 298.679 203.941 298.679C203.941 298.679 216.626 307.446 230.989 309.871C245.352 312.296 261.208 309.685 261.208 309.685L260.487 311.907C263.177 309.895 268.992 306.946 277.436 310.245C282.079 312.059 284.402 315.256 285.505 318.649C286.952 314.423 287.983 311.03 288.069 310.431C288.255 309.125 291.986 305.768 292.546 297.746C293.106 289.725 293.106 289.725 293.106 289.725L309.61 274.95C309.959 271.365 309.507 265.84 306.164 258.2C299.637 243.275 278.744 236.933 272.961 236.933Z" fill="white"/>
</mask>
<g mask="url(#mask2_114_1935)">
<path opacity="0.2" d="M230.99 309.869C244.008 312.067 258.252 310.128 260.806 309.745C261.626 307.603 262.154 305.188 260.774 304.268C258.442 302.713 259.219 298.437 259.219 298.437C259.219 298.437 257.276 302.713 241.728 302.713C226.18 302.713 205.19 289.497 205.19 289.497C205.19 289.497 203.635 294.161 199.36 295.716C195.084 297.271 183.423 303.879 183.423 303.879C183.423 303.879 183.034 314.763 175.26 321.37C167.486 327.978 158.53 343.402 158.53 343.402L157.172 348.006L161.411 349.974C161.411 349.974 161.598 344.005 170.925 334.864C180.252 325.724 186.035 310.241 186.781 309.868C187.527 309.495 203.943 298.676 203.943 298.676C203.943 298.676 216.627 307.444 230.99 309.869Z" fill="black"/>
</g>
<mask id="mask3_114_1935" style="mask-type:luminance" maskUnits="userSpaceOnUse" x="176" y="236" width="134" height="83">
<path d="M272.961 236.933C270.606 236.933 267.696 237.151 264.958 237.433C262.313 241.134 261.209 243.462 261.209 243.462C261.209 243.462 227.446 249.245 216.999 258.199C216.999 258.199 201.516 262.303 194.987 268.459C188.458 274.615 185.474 285.994 185.474 285.994C185.474 285.994 180.828 289.945 176.716 292.961C179.951 292.729 185.379 292.862 188.272 295.881C191.196 298.932 191 304.319 190.579 307.443C195.643 304.148 203.941 298.679 203.941 298.679C203.941 298.679 216.626 307.446 230.989 309.871C245.352 312.296 261.208 309.685 261.208 309.685L260.487 311.907C263.177 309.895 268.992 306.946 277.436 310.245C282.079 312.059 284.402 315.256 285.505 318.649C286.952 314.423 287.983 311.03 288.069 310.431C288.255 309.125 291.986 305.768 292.546 297.746C293.106 289.725 293.106 289.725 293.106 289.725L309.61 274.95C309.959 271.365 309.507 265.84 306.164 258.2C299.637 243.275 278.744 236.933 272.961 236.933Z" fill="white"/>
</mask>
<g mask="url(#mask3_114_1935)">
<path opacity="0.2" d="M306.252 275.893L290.316 283.278C290.316 283.278 291.093 295.328 286.818 301.547C282.542 307.766 280.988 309.71 280.988 309.71C280.988 309.71 280.599 319.039 277.878 324.869C275.157 330.7 270.881 332.643 270.881 332.643C270.881 332.643 271.27 339.251 265.828 344.304C260.386 349.357 246.782 357.52 238.231 362.961C237.338 363.53 236.492 364.132 235.676 364.748L237.707 366.39C237.707 366.39 246.847 359.301 259.718 352.773C272.589 346.244 275.76 341.581 279.491 333.933C283.222 326.285 287.885 311.735 288.072 310.429C288.258 309.123 291.989 305.766 292.549 297.744C293.109 289.723 293.109 289.723 293.109 289.723L307.432 276.901L306.252 275.893Z" fill="black"/>
</g>
<path d="M272.961 236.933C270.606 236.933 267.696 237.151 264.958 237.433C262.313 241.134 261.209 243.462 261.209 243.462C261.209 243.462 227.446 249.245 216.999 258.199C216.999 258.199 201.516 262.303 194.987 268.459C188.458 274.615 185.474 285.994 185.474 285.994C185.474 285.994 180.828 289.945 176.716 292.961C179.951 292.729 185.379 292.862 188.272 295.881C191.196 298.932 191 304.319 190.579 307.443C195.643 304.148 203.941 298.679 203.941 298.679C203.941 298.679 216.626 307.446 230.989 309.871C245.352 312.296 261.208 309.685 261.208 309.685L260.487 311.907C263.177 309.895 268.992 306.946 277.436 310.245C282.079 312.059 284.402 315.256 285.505 318.649C286.952 314.423 287.983 311.03 288.069 310.431C288.255 309.125 291.986 305.768 292.546 297.746C293.106 289.725 293.106 289.725 293.106 289.725L309.61 274.95C309.959 271.365 309.507 265.84 306.164 258.2C299.637 243.275 278.744 236.933 272.961 236.933Z" stroke="#263238" stroke-miterlimit="10" strokeLinecap="round" stroke-linejoin="round"/>
<path d="M267.552 285.433C267.552 285.433 261.956 288.791 260.091 296.066C258.226 303.341 260.277 307.631 260.277 307.631" stroke="#263238" stroke-miterlimit="10" strokeLinecap="round" stroke-linejoin="round"/>
<path d="M209.721 255.356C209.721 255.356 201.348 259.124 198.418 257.449C195.487 255.774 195.906 248.657 199.465 244.68C203.023 240.703 209.931 240.284 207.629 239.656C205.326 239.028 200.931 237.772 205.745 234.004C210.559 230.236 224.584 226.887 236.097 230.236C247.61 233.585 251.796 239.865 252.633 242.795C253.47 245.726 253.47 246.772 253.47 246.772C253.47 246.772 258.494 244.679 259.331 246.353C260.168 248.028 258.912 249.074 258.912 249.074C258.912 249.074 260.796 250.958 261.215 255.354C261.634 259.75 258.703 263.727 257.029 265.402C255.354 267.077 252.843 267.495 249.912 264.983C246.981 262.471 245.307 253.889 243.423 253.889C241.539 253.889 233.585 254.308 233.376 252.842C233.167 251.377 233.167 251.377 233.167 251.377L211.816 256.819L209.721 255.356Z" fill="#263238" stroke="#263238" stroke-miterlimit="10" strokeLinecap="round" stroke-linejoin="round"/>
<path d="M253.375 273.681C253.375 273.681 254.867 291.589 249.831 300.543C244.794 309.497 235.654 303.155 233.602 301.103C231.55 299.051 243.115 290.47 245.727 283.755C248.339 277.039 252.442 269.95 253.375 273.681Z" fill="white"/>
<mask id="mask4_114_1935" style="mask-type:luminance" maskUnits="userSpaceOnUse" x="233" y="272" width="21" height="34">
<path d="M253.375 273.681C253.375 273.681 254.867 291.589 249.831 300.543C244.794 309.497 235.654 303.155 233.602 301.103C231.55 299.051 243.115 290.47 245.727 283.755C248.339 277.039 252.442 269.95 253.375 273.681Z" fill="white"/>
</mask>
<g mask="url(#mask4_114_1935)">
<path opacity="0.2" d="M253.375 273.681C253.375 273.681 254.867 291.589 249.831 300.543C244.794 309.497 235.654 303.155 233.602 301.103C231.55 299.051 243.115 290.47 245.727 283.755C248.339 277.039 252.442 269.95 253.375 273.681Z" fill="black"/>
</g>
<path d="M253.375 273.681C253.375 273.681 254.867 291.589 249.831 300.543C244.794 309.497 235.654 303.155 233.602 301.103C231.55 299.051 243.115 290.47 245.727 283.755C248.339 277.039 252.442 269.95 253.375 273.681Z" stroke="#263238" stroke-miterlimit="10" strokeLinecap="round" stroke-linejoin="round"/>
<path d="M209.721 255.357C209.721 255.357 210.14 269.59 215.582 284.452C221.024 299.314 230.235 304.339 234.212 304.548C238.189 304.757 245.725 297.222 249.074 290.105C252.423 282.988 254.726 274.824 254.726 274.824C254.726 274.824 259.54 273.148 260.796 268.753C262.052 264.357 261.843 260.381 258.494 259.962C255.145 259.543 253.68 264.357 253.68 264.357C253.68 264.357 249.494 261.636 247.819 256.193C246.144 250.751 249.494 246.564 247.819 247.611C246.144 248.658 242.795 252.008 241.121 251.38C239.447 250.752 242.168 245.938 242.168 245.938C242.168 245.938 214.954 253.055 209.721 255.357Z" fill="white" stroke="#263238" stroke-miterlimit="10" strokeLinecap="round" stroke-linejoin="round"/>
<path d="M245.306 266.45L254.516 262.892" stroke="#263238" stroke-miterlimit="10" strokeLinecap="round" stroke-linejoin="round"/>
<path d="M223.537 267.497L205.116 264.148C205.116 264.148 205.325 270.009 208.256 273.358C211.186 276.707 217.257 277.126 219.559 276.289C221.862 275.452 221.443 268.963 223.955 269.591C226.467 270.219 226.048 272.94 227.095 275.452C228.142 277.964 229.188 277.754 233.793 278.383C238.398 279.011 242.794 278.592 244.468 276.29C246.143 273.987 246.98 266.87 245.305 266.452C243.63 266.033 237.979 266.871 231.908 267.08C225.839 267.288 223.537 267.497 223.537 267.497Z" fill="white"/>
<mask id="mask5_114_1935" style="mask-type:luminance" maskUnits="userSpaceOnUse" x="205" y="264" width="42" height="15">
<path d="M223.537 267.497L205.116 264.148C205.116 264.148 205.325 270.009 208.256 273.358C211.186 276.707 217.257 277.126 219.559 276.289C221.862 275.452 221.443 268.963 223.955 269.591C226.467 270.219 226.048 272.94 227.095 275.452C228.142 277.964 229.188 277.754 233.793 278.383C238.398 279.011 242.794 278.592 244.468 276.29C246.143 273.987 246.98 266.87 245.305 266.452C243.63 266.033 237.979 266.871 231.908 267.08C225.839 267.288 223.537 267.497 223.537 267.497Z" fill="white"/>
</mask>
<g mask="url(#mask5_114_1935)">
<path d="M233.792 278.382C238.397 279.01 242.793 278.591 244.467 276.289C245.68 274.621 246.448 270.438 246.146 268.093L228.104 277.042C229.06 277.908 230.535 277.937 233.792 278.382Z" fill="#92E3A9"/>
<path d="M219.559 276.289C221.862 275.452 221.443 268.963 223.955 269.591C225.455 269.966 225.909 271.089 226.255 272.466L232.601 267.051C232.371 267.061 232.141 267.071 231.909 267.079C230.106 267.141 228.643 267.203 227.466 267.26L209.247 274.284C212.389 276.772 217.491 277.041 219.559 276.289Z" fill="#92E3A9"/>
</g>
<path d="M223.537 267.497L205.116 264.148C205.116 264.148 205.325 270.009 208.256 273.358C211.186 276.707 217.257 277.126 219.559 276.289C221.862 275.452 221.443 268.963 223.955 269.591C226.467 270.219 226.048 272.94 227.095 275.452C228.142 277.964 229.188 277.754 233.793 278.383C238.398 279.011 242.794 278.592 244.468 276.29C246.143 273.987 246.98 266.87 245.305 266.452C243.63 266.033 237.979 266.871 231.908 267.08C225.839 267.288 223.537 267.497 223.537 267.497Z" stroke="#263238" stroke-miterlimit="10" strokeLinecap="round" stroke-linejoin="round"/>
<path d="M222.281 274.195C222.281 274.195 222.072 279.637 222.072 282.987C222.072 286.336 223.328 286.336 225.631 286.127C227.934 285.918 229.19 284.871 229.19 284.871" stroke="#263238" stroke-miterlimit="10" strokeLinecap="round" stroke-linejoin="round"/>
<path d="M229.607 291.988C229.607 291.988 234.003 286.127 238.399 286.755C242.795 287.383 242.795 291.36 240.492 292.825C238.189 294.29 232.328 295.128 230.863 294.709C229.398 294.29 228.77 292.825 229.607 291.988Z" stroke="#263238" stroke-miterlimit="10" strokeLinecap="round" stroke-linejoin="round"/>
<path d="M240.701 288.22C240.701 288.22 235.259 292.825 229.816 293.034" stroke="#263238" stroke-miterlimit="10" strokeLinecap="round" stroke-linejoin="round"/>
<path d="M224.583 262.682C224.583 262.682 227.304 265.613 228.351 264.775C229.398 263.937 233.165 260.17 237.561 259.751C241.957 259.332 242.585 260.17 241.957 259.332C241.329 258.495 238.398 257.029 234.84 257.448C231.282 257.867 228.77 261.425 227.514 262.053C226.258 262.682 224.583 262.682 224.583 262.682Z" fill="#263238" stroke="#263238" stroke-miterlimit="10" strokeLinecap="round" stroke-linejoin="round"/>
<path d="M219.769 261.846C219.769 261.846 219.35 263.521 218.722 263.73C218.094 263.939 217.885 263.938 214.326 262.892C210.767 261.845 209.721 261.636 209.721 261.636C209.721 261.636 209.512 259.963 212.023 259.753C214.535 259.544 217.675 261.428 217.675 261.428C217.675 261.428 219.141 262.474 219.769 261.846Z" fill="#263238" stroke="#263238" stroke-miterlimit="10" strokeLinecap="round" stroke-linejoin="round"/>
<path d="M244.26 233.587C244.26 233.587 253.679 237.564 254.517 253.263L256.401 253.054C256.401 253.054 256.61 245.728 253.47 239.029C250.33 232.331 244.26 233.587 244.26 233.587Z" fill="white" stroke="#263238" stroke-miterlimit="10" strokeLinecap="round" stroke-linejoin="round"/>
<path d="M252.475 259.839C251.25 259.839 250.102 259.078 249.665 257.859C249.109 256.307 249.917 254.599 251.469 254.044L260.276 250.892C261.827 250.334 263.535 251.144 264.091 252.696C264.647 254.248 263.839 255.956 262.287 256.511L253.48 259.663C253.148 259.782 252.809 259.839 252.475 259.839Z" fill="white" stroke="#263238" stroke-miterlimit="10"/>
<path d="M253.376 256.479C253.862 257.773 253.478 259.114 252.519 259.474C251.56 259.834 250.389 259.076 249.904 257.782C249.418 256.488 249.802 255.147 250.761 254.787C251.72 254.428 252.891 255.185 253.376 256.479Z" fill="white" stroke="#263238" stroke-miterlimit="10" strokeLinecap="round" stroke-linejoin="round"/>
<path d="M252.326 273.138C252.326 274.242 251.431 275.137 250.326 275.137C249.222 275.137 248.327 274.242 248.327 273.138C248.327 272.034 250.326 267.61 250.326 267.61C250.326 267.61 252.326 272.034 252.326 273.138Z" stroke="#263238" stroke-miterlimit="10" strokeLinecap="round" stroke-linejoin="round"/>
<path d="M358.956 128.927C356.718 131.352 358.21 136.575 356.718 144.223C355.226 151.871 345.899 179.479 341.235 192.536C336.572 205.594 338.064 223.315 338.064 223.315C338.064 223.315 331.722 225.553 327.245 228.911C322.768 232.269 315.866 236.932 315.866 236.932L314 236C314 236 324.446 225.554 327.617 219.585C330.788 213.616 331.721 213.243 330.042 209.699C328.363 206.155 314.746 188.993 308.777 181.345C302.808 173.697 295.533 160.826 294.041 157.095C292.549 153.364 292.735 149.634 293.854 147.022C294.973 144.41 305.419 139.187 305.606 131.166C305.792 123.145 300.569 125.383 295.719 127.062C290.869 128.741 277.811 141.426 274.827 149.447C271.842 157.468 274.454 160.08 279.677 164.93C284.9 169.78 291.242 179.667 294.6 188.993C297.958 198.32 302.248 207.274 309.15 209.699C309.15 209.699 298.144 214.922 290.869 220.145C283.594 225.368 280.05 227.793 280.05 227.793C280.05 227.793 270.163 230.591 266.433 235.441C264.202 238.342 262.785 240.622 261.996 242.003C266.257 240.446 276.578 238.051 288.631 245.141C303.575 253.932 306.751 268.517 306.755 277.506L312.694 272.189C312.694 272.189 328.177 266.033 341.048 251.856C353.919 237.679 355.971 230.777 357.277 218.092C358.583 205.407 363.806 155.229 363.992 154.482C364.179 153.736 365.857 150.005 368.096 149.632C370.334 149.259 382.646 160.078 384.325 161.197C386.004 162.316 389.361 162.876 389.735 159.332C390.109 155.788 387.123 147.02 377.61 137.507C368.096 127.994 361.194 126.502 358.956 128.927Z" fill="#263238" stroke="#263238" stroke-miterlimit="10" strokeLinecap="round" stroke-linejoin="round"/>
<path d="M294.413 229.285C294.413 229.285 314.186 231.897 324.632 247.939" stroke="white" stroke-miterlimit="10" strokeLinecap="round" stroke-linejoin="round"/>
<path d="M389.735 159.333C390.108 155.789 387.123 147.021 377.61 137.508C368.097 127.994 361.195 126.502 358.956 128.927C356.718 131.352 358.21 136.575 356.718 144.223C356.518 145.247 356.174 146.638 355.723 148.295C357.156 148.058 359.345 148.157 361.941 149.819C363.187 150.617 364.16 151.548 364.927 152.484C365.667 151.231 366.779 149.852 368.096 149.633C370.334 149.26 382.646 160.079 384.325 161.198C386.004 162.317 389.361 162.877 389.735 159.333Z" fill="#263238" stroke="#263238" stroke-miterlimit="10" strokeLinecap="round" stroke-linejoin="round"/>
<path d="M279.677 164.929C280.711 165.889 281.788 167.052 282.877 168.362C286.759 168.318 292.126 166.949 295.801 160.747C294.989 159.195 294.368 157.915 294.04 157.094C292.548 153.363 292.734 149.633 293.853 147.021C294.972 144.409 305.418 139.186 305.605 131.165C305.791 123.144 300.568 125.382 295.718 127.061C290.868 128.74 277.81 141.425 274.826 149.446C271.842 157.467 274.454 160.079 279.677 164.929Z" fill="#263238" stroke="#263238" stroke-miterlimit="10" strokeLinecap="round" stroke-linejoin="round"/>
<path d="M295.719 127.062C290.869 128.741 277.811 141.426 274.827 149.447C272.485 155.741 273.598 158.706 276.706 162.034C277.825 161.751 279.146 161.178 280.61 160.08C285.087 156.722 286.952 150.753 289.75 148.701C291.343 147.533 294.204 145.7 297.097 143.753C300.557 140.825 305.479 136.651 305.606 131.166C305.792 123.144 300.569 125.383 295.719 127.062Z" fill="white" stroke="#263238" stroke-miterlimit="10" strokeLinecap="round" stroke-linejoin="round"/>
<path d="M295.719 127.062C290.869 128.741 277.811 141.426 274.827 149.447C273.162 153.923 273.242 156.713 274.543 159.149C276.142 159.476 278.07 159.231 280.237 157.655C286.393 153.178 284.154 148.515 289.564 145.903C293.956 143.783 300.315 139.695 304.649 135.137C305.21 133.898 305.573 132.578 305.606 131.167C305.792 123.144 300.569 125.383 295.719 127.062Z" fill="white" stroke="#263238" stroke-miterlimit="10" strokeLinecap="round" stroke-linejoin="round"/>
<path d="M389.735 159.333C390.108 155.789 387.123 147.021 377.61 137.508C368.097 127.994 361.195 126.502 358.956 128.927C358.309 129.628 357.979 130.57 357.793 131.729C359.55 131.105 362.512 130.686 366.418 132.471C372.947 135.456 384.885 150.379 386.751 154.482C387.838 156.874 387.532 159.831 387.271 162.034C388.471 161.95 389.534 161.237 389.735 159.333Z" fill="white" stroke="#263238" stroke-miterlimit="10" strokeLinecap="round" stroke-linejoin="round"/>
<path d="M315.172 263.917L306.445 271.028C306.269 271.171 306.171 271.389 306.18 271.616L306.483 279.337C306.506 279.93 307.194 280.243 307.657 279.871L316.688 272.614C316.874 272.464 316.974 272.232 316.955 271.994L316.349 264.419C316.302 263.839 315.623 263.549 315.172 263.917Z" fill="#263238" stroke="#263238" stroke-miterlimit="10" strokeLinecap="round" stroke-linejoin="round"/>
<path d="M311.202 184.664C310.935 147.171 310.935 110.171 311.202 73.5371" stroke="#263238" stroke-miterlimit="10" strokeLinecap="round" stroke-linejoin="round"/>
<path d="M311.202 266.965V184.664" stroke="white" stroke-miterlimit="10" strokeLinecap="round" stroke-linejoin="round"/>
<path d="M256.733 244.208C256.935 187.171 256.935 130.171 256.733 73.5742" stroke="#263238" stroke-miterlimit="10" strokeLinecap="round" stroke-linejoin="round"/>
<path d="M247.776 343.593C243.447 341.284 241.058 340.795 239.818 340.779C238.199 343.616 236.355 346.778 234.65 349.679C237.727 350.185 242.329 351.331 245.168 353.866C247.064 355.559 248.391 357.219 249.303 358.587C251.676 357.142 254.335 355.606 257.225 354.069C255.619 350.959 252.52 346.123 247.776 343.593Z" fill="#263238" stroke="#263238" stroke-miterlimit="10" strokeLinecap="round" stroke-linejoin="round"/>
<path d="M248.819 337.559L234.177 355.184L243.125 360.878L260.478 343.525L248.819 337.559Z" fill="#263238" stroke="#263238" stroke-miterlimit="10" strokeLinecap="round" stroke-linejoin="round"/>
<path d="M249.633 340.632L238.606 353.647L242.944 356.178L255.598 343.344L249.633 340.632Z" fill="white" stroke="#263238" stroke-miterlimit="10" strokeLinecap="round" stroke-linejoin="round"/>
<path d="M152.47 359.022C152.574 354.422 150.44 347.687 149.964 346.228C148.788 342.622 146.186 341.134 144.134 343.005C142.488 344.507 143.482 347.905 143.867 349.724C144.551 352.961 145.058 356.239 146.189 359.364C146.642 360.615 147.18 363.012 148.74 363.341C151.475 363.919 152.405 361.884 152.47 359.022Z" fill="white" stroke="#263238" stroke-miterlimit="10" strokeLinecap="round" stroke-linejoin="round"/>
<path d="M146.738 362.858C146.816 359.404 145.214 354.346 144.856 353.25C143.973 350.542 142.019 349.424 140.478 350.83C139.242 351.958 139.989 354.509 140.278 355.876C140.792 358.306 141.172 360.769 142.022 363.116C142.362 364.056 142.766 365.855 143.938 366.102C145.991 366.535 146.689 365.007 146.738 362.858Z" fill="white" stroke="#263238" stroke-miterlimit="10" strokeLinecap="round" stroke-linejoin="round"/>
<path d="M163.797 347.669C163.797 347.669 168.037 352.887 171.624 353.376C175.212 353.865 177.005 355.659 178.147 357.453C179.288 359.247 175.538 365.28 175.375 367.4C175.212 369.52 173.744 369.846 171.788 368.705C169.831 367.563 169.179 364.465 169.831 362.182C170.483 359.899 170.809 359.247 170.32 359.084C169.831 358.921 165.591 357.779 164.45 357.127C163.308 356.475 163.797 347.669 163.797 347.669Z" fill="white" stroke="#263238" stroke-miterlimit="10" strokeLinecap="round" stroke-linejoin="round"/>
<path d="M159.048 357.582C159.152 352.982 157.018 346.247 156.542 344.788C155.366 341.182 152.764 339.694 150.712 341.565C149.066 343.067 150.06 346.465 150.445 348.285C151.129 351.522 151.636 354.8 152.767 357.925C153.22 359.176 153.758 361.573 155.318 361.902C158.053 362.478 158.983 360.444 159.048 357.582Z" fill="white" stroke="#263238" stroke-miterlimit="10" strokeLinecap="round" stroke-linejoin="round"/>
<path d="M166.867 359.42C166.971 354.82 164.837 348.085 164.361 346.626C163.185 343.02 160.583 341.531 158.531 343.403C156.885 344.905 157.879 348.303 158.264 350.123C158.948 353.36 159.455 356.638 160.586 359.764C161.039 361.015 161.577 363.412 163.137 363.741C165.872 364.316 166.802 362.282 166.867 359.42Z" fill="white" stroke="#263238" stroke-miterlimit="10" strokeLinecap="round" stroke-linejoin="round"/>
<path d="M228.479 380.408C229.89 375.319 234.338 369.02 235.316 367.662C237.732 364.307 240.936 363.989 242.458 367.074C243.678 369.549 241.519 372.768 240.518 374.567C238.736 377.766 237.125 381.101 234.914 383.952C234.028 385.094 232.676 387.447 230.941 387.02C227.899 386.272 227.601 383.574 228.479 380.408Z" fill="white" stroke="#263238" stroke-miterlimit="10" strokeLinecap="round" stroke-linejoin="round"/>
<path d="M236.067 383.6C237.126 379.778 240.466 375.048 241.201 374.028C243.016 371.509 245.422 371.27 246.564 373.587C247.48 375.446 245.859 377.863 245.107 379.214C243.769 381.616 242.559 384.12 240.899 386.261C240.234 387.118 239.219 388.885 237.916 388.565C235.632 388.003 235.408 385.977 236.067 383.6Z" fill="white" stroke="#263238" stroke-miterlimit="10" strokeLinecap="round" stroke-linejoin="round"/>
<path d="M223.299 358.361C223.299 358.361 217.156 361.936 213.255 360.662C209.354 359.388 206.892 360.447 205.109 361.835C203.327 363.223 205.244 371.723 204.714 374.126C204.184 376.53 205.606 377.627 208.023 377.365C210.44 377.102 212.143 374.039 212.217 371.21C212.291 368.381 212.166 367.502 212.73 367.57C213.294 367.638 218.091 368.528 219.496 368.389C220.901 368.25 223.299 358.361 223.299 358.361Z" fill="white" stroke="#263238" stroke-miterlimit="10" strokeLinecap="round" stroke-linejoin="round"/>
<path d="M224.976 371.611C226.386 366.522 230.835 360.222 231.813 358.865C234.229 355.51 237.433 355.193 238.955 358.277C240.175 360.752 238.016 363.971 237.015 365.77C235.233 368.969 233.622 372.304 231.411 375.155C230.525 376.297 229.173 378.65 227.438 378.223C224.397 377.475 224.098 374.777 224.976 371.611Z" fill="white" stroke="#263238" stroke-miterlimit="10" strokeLinecap="round" stroke-linejoin="round"/>
<path d="M216.218 369.679C217.629 364.59 222.077 358.291 223.055 356.933C225.471 353.578 228.675 353.261 230.197 356.345C231.417 358.82 229.259 362.039 228.257 363.838C226.475 367.037 224.864 370.372 222.653 373.223C221.767 374.365 220.415 376.718 218.68 376.291C215.639 375.543 215.341 372.845 216.218 369.679Z" fill="white" stroke="#263238" stroke-miterlimit="10" strokeLinecap="round" stroke-linejoin="round"/>
<path d="M117.673 339.15L135.483 387.842L230.99 421.171L225.519 374.66L117.673 339.15Z" fill="#92E3A9" stroke="#263238" stroke-miterlimit="10" strokeLinecap="round" stroke-linejoin="round"/>
<path d="M332.925 311.424H363.272" stroke="#263238" stroke-miterlimit="10" strokeLinecap="round" stroke-linejoin="round"/>
<path d="M311.248 311.424H321.845" stroke="#263238" stroke-miterlimit="10" strokeLinecap="round" stroke-linejoin="round"/>
<path d="M357.974 316.959H363.272" stroke="#263238" stroke-miterlimit="10" strokeLinecap="round" stroke-linejoin="round"/>
<path d="M343.04 316.959H353.638" stroke="#263238" stroke-miterlimit="10" strokeLinecap="round" stroke-linejoin="round"/>
<path d="M311.248 316.959H335.815" stroke="#263238" stroke-miterlimit="10" strokeLinecap="round" stroke-linejoin="round"/>
<path d="M336.297 322.494H363.272" stroke="#263238" stroke-miterlimit="10" strokeLinecap="round" stroke-linejoin="round"/>
<path d="M311.248 322.494H330.516" stroke="#263238" stroke-miterlimit="10" strokeLinecap="round" stroke-linejoin="round"/>
<path d="M351.711 328.029H363.272" stroke="#263238" stroke-miterlimit="10" strokeLinecap="round" stroke-linejoin="round"/>
<path d="M322.809 328.029H346.894" stroke="#263238" stroke-miterlimit="10" strokeLinecap="round" stroke-linejoin="round"/>
<path d="M311.248 328.029H317.51" stroke="#263238" stroke-miterlimit="10" strokeLinecap="round" stroke-linejoin="round"/>
<path d="M332.925 332.871H363.272" stroke="#263238" stroke-miterlimit="10" strokeLinecap="round" stroke-linejoin="round"/>
<path d="M311.248 332.871H321.845" stroke="#263238" stroke-miterlimit="10" strokeLinecap="round" stroke-linejoin="round"/>
<path d="M357.974 338.406H363.272" stroke="#263238" stroke-miterlimit="10" strokeLinecap="round" stroke-linejoin="round"/>
<path d="M343.04 338.406H353.638" stroke="#263238" stroke-miterlimit="10" strokeLinecap="round" stroke-linejoin="round"/>
<path d="M311.248 338.406H335.815" stroke="#263238" stroke-miterlimit="10" strokeLinecap="round" stroke-linejoin="round"/>
<path d="M336.297 343.941H363.272" stroke="#263238" stroke-miterlimit="10" strokeLinecap="round" stroke-linejoin="round"/>
<path d="M311.248 343.941H330.516" stroke="#263238" stroke-miterlimit="10" strokeLinecap="round" stroke-linejoin="round"/>
<path d="M357.974 354.336H363.272" stroke="#263238" stroke-miterlimit="10" strokeLinecap="round" stroke-linejoin="round"/>
<path d="M343.04 354.336H353.638" stroke="#263238" stroke-miterlimit="10" strokeLinecap="round" stroke-linejoin="round"/>
<path d="M311.248 354.336H335.815" stroke="#263238" stroke-miterlimit="10" strokeLinecap="round" stroke-linejoin="round"/>
<path d="M336.297 359.871H363.272" stroke="#263238" stroke-miterlimit="10" strokeLinecap="round" stroke-linejoin="round"/>
<path d="M311.248 359.871H330.516" stroke="#263238" stroke-miterlimit="10" strokeLinecap="round" stroke-linejoin="round"/>
<path d="M351.711 365.405H363.272" stroke="#263238" stroke-miterlimit="10" strokeLinecap="round" stroke-linejoin="round"/>
<path d="M322.809 365.405H346.894" stroke="#263238" stroke-miterlimit="10" strokeLinecap="round" stroke-linejoin="round"/>
<path d="M311.248 365.405H317.51" stroke="#263238" stroke-miterlimit="10" strokeLinecap="round" stroke-linejoin="round"/>
<path d="M332.925 370.248H363.272" stroke="#263238" stroke-miterlimit="10" strokeLinecap="round" stroke-linejoin="round"/>
<path d="M311.248 370.248H321.845" stroke="#263238" stroke-miterlimit="10" strokeLinecap="round" stroke-linejoin="round"/>
<path d="M357.974 375.783H363.272" stroke="#263238" stroke-miterlimit="10" strokeLinecap="round" stroke-linejoin="round"/>
<path d="M343.04 375.783H353.638" stroke="#263238" stroke-miterlimit="10" strokeLinecap="round" stroke-linejoin="round"/>
<path d="M311.248 375.783H335.815" stroke="#263238" stroke-miterlimit="10" strokeLinecap="round" stroke-linejoin="round"/>
<path d="M369.599 385.877L373.505 368.3L377.411 379.367L382.619 331.845L389.779 368.3L398.242 305.155L407.356 378.065L411.262 370.904L413.215 385.226" stroke="#263238" stroke-miterlimit="10" strokeLinecap="round" stroke-linejoin="round"/>
<path d="M315.34 300.732L337.726 278.346L354.199 293.129L368.138 280.458L388.835 296.086L411.221 272.433" stroke="#263238" stroke-miterlimit="10" strokeLinecap="round" stroke-linejoin="round"/>
<path d="M340.683 278.346C340.683 276.713 339.359 275.389 337.726 275.389C336.093 275.389 334.769 276.713 334.769 278.346C334.769 279.979 336.093 281.303 337.726 281.303C339.359 281.303 340.683 279.979 340.683 278.346Z" fill="#92E3A9" stroke="#263238" stroke-miterlimit="10" strokeLinecap="round" stroke-linejoin="round"/>
<path d="M371.094 280.458C371.094 278.825 369.77 277.501 368.137 277.501C366.504 277.501 365.18 278.825 365.18 280.458C365.18 282.091 366.504 283.415 368.137 283.415C369.771 283.415 371.094 282.091 371.094 280.458Z" fill="#92E3A9" stroke="#263238" stroke-miterlimit="10" strokeLinecap="round" stroke-linejoin="round"/>
<path d="M388.835 299.043C390.468 299.043 391.792 297.719 391.792 296.086C391.792 294.453 390.468 293.129 388.835 293.129C387.202 293.129 385.878 294.453 385.878 296.086C385.878 297.719 387.202 299.043 388.835 299.043Z" fill="#92E3A9" stroke="#263238" stroke-miterlimit="10" strokeLinecap="round" stroke-linejoin="round"/>
<path d="M413.755 272.433C413.755 270.8 412.431 269.476 410.798 269.476C409.165 269.476 407.841 270.8 407.841 272.433C407.841 274.066 409.165 275.39 410.798 275.39C412.431 275.389 413.755 274.066 413.755 272.433Z" fill="#92E3A9" stroke="#263238" stroke-miterlimit="10" strokeLinecap="round" stroke-linejoin="round"/>
<path d="M315.34 303.689C316.973 303.689 318.297 302.365 318.297 300.732C318.297 299.099 316.973 297.775 315.34 297.775C313.707 297.775 312.383 299.099 312.383 300.732C312.383 302.365 313.707 303.689 315.34 303.689Z" fill="#92E3A9" stroke="#263238" stroke-miterlimit="10" strokeLinecap="round" stroke-linejoin="round"/>
<path d="M354.199 295.242C355.832 295.242 357.156 293.918 357.156 292.285C357.156 290.652 355.832 289.328 354.199 289.328C352.566 289.328 351.242 290.652 351.242 292.285C351.242 293.918 352.566 295.242 354.199 295.242Z" fill="#92E3A9" stroke="#263238" stroke-miterlimit="10" strokeLinecap="round" stroke-linejoin="round"/>
<path d="M154.953 204.078L163.648 199.058" stroke="#263238" stroke-miterlimit="10" strokeLinecap="round" stroke-linejoin="round"/>
<path d="M112.527 199.058V228.573L138.087 243.331L163.648 228.573V199.058L138.087 184.3L112.527 199.058Z" stroke="#263238" stroke-miterlimit="10" strokeLinecap="round" stroke-linejoin="round"/>
<path d="M121.222 204.078V223.553L138.087 233.29L154.953 223.553V204.078L138.087 194.341L121.222 204.078Z" stroke="#263238" stroke-miterlimit="10" strokeLinecap="round" stroke-linejoin="round"/>
<path d="M138.087 184.3V162.375" stroke="#263238" stroke-miterlimit="10" strokeLinecap="round" stroke-linejoin="round"/>
<path d="M138.087 165.602C140.469 165.602 142.4 163.671 142.4 161.289C142.4 158.907 140.469 156.976 138.087 156.976C135.705 156.976 133.774 158.907 133.774 161.289C133.774 163.671 135.705 165.602 138.087 165.602Z" fill="#92E3A9" stroke="#263238" stroke-miterlimit="10" strokeLinecap="round" stroke-linejoin="round"/>
<path d="M138.087 242.706V264.632" stroke="#263238" stroke-miterlimit="10" strokeLinecap="round" stroke-linejoin="round"/>
<path d="M133.775 265.718C133.775 268.1 135.706 270.03 138.088 270.03C140.47 270.03 142.401 268.099 142.401 265.718C142.401 263.336 140.47 261.405 138.088 261.405C135.706 261.405 133.775 263.336 133.775 265.718Z" fill="#92E3A9" stroke="#263238" stroke-miterlimit="10" strokeLinecap="round" stroke-linejoin="round"/>
<path d="M121.222 204.078L112.527 199.058" stroke="#263238" stroke-miterlimit="10" strokeLinecap="round" stroke-linejoin="round"/>
<path d="M121.956 223.699L138.821 213.961L154.953 223.553" stroke="#263238" stroke-miterlimit="10" strokeLinecap="round" stroke-linejoin="round"/>
<path d="M138.821 213.961V194.341" stroke="#263238" stroke-miterlimit="10" strokeLinecap="round" stroke-linejoin="round"/>
<path d="M190.613 118.38H202.174" stroke="#263238" stroke-miterlimit="10" strokeLinecap="round" stroke-linejoin="round"/>
<path d="M161.71 118.38H185.796" stroke="#263238" stroke-miterlimit="10" strokeLinecap="round" stroke-linejoin="round"/>
<path d="M150.149 118.38H156.412" stroke="#263238" stroke-miterlimit="10" strokeLinecap="round" stroke-linejoin="round"/>
<path d="M171.826 123.223H202.174" stroke="#263238" stroke-miterlimit="10" strokeLinecap="round" stroke-linejoin="round"/>
<path d="M150.149 123.223H160.747" stroke="#263238" stroke-miterlimit="10" strokeLinecap="round" stroke-linejoin="round"/>
<path d="M196.875 128.758H202.174" stroke="#263238" stroke-miterlimit="10" strokeLinecap="round" stroke-linejoin="round"/>
<path d="M181.942 128.758H192.54" stroke="#263238" stroke-miterlimit="10" strokeLinecap="round" stroke-linejoin="round"/>
<path d="M150.149 128.758H174.717" stroke="#263238" stroke-miterlimit="10" strokeLinecap="round" stroke-linejoin="round"/>
<path d="M175.198 134.292H202.174" stroke="#263238" stroke-miterlimit="10" strokeLinecap="round" stroke-linejoin="round"/>
<path d="M150.149 134.292H169.418" stroke="#263238" stroke-miterlimit="10" strokeLinecap="round" stroke-linejoin="round"/>
<path d="M190.613 139.827H202.174" stroke="#263238" stroke-miterlimit="10" strokeLinecap="round" stroke-linejoin="round"/>
<path d="M161.71 139.827H185.796" stroke="#263238" stroke-miterlimit="10" strokeLinecap="round" stroke-linejoin="round"/>
<path d="M150.149 139.827H156.412" stroke="#263238" stroke-miterlimit="10" strokeLinecap="round" stroke-linejoin="round"/>
<path d="M171.826 144.67H202.174" stroke="#263238" stroke-miterlimit="10" strokeLinecap="round" stroke-linejoin="round"/>
<path d="M150.149 144.67H160.747" stroke="#263238" stroke-miterlimit="10" strokeLinecap="round" stroke-linejoin="round"/>
<path d="M196.875 150.205H202.174" stroke="#263238" stroke-miterlimit="10" strokeLinecap="round" stroke-linejoin="round"/>
<path d="M181.942 150.205H192.54" stroke="#263238" stroke-miterlimit="10" strokeLinecap="round" stroke-linejoin="round"/>
<path d="M150.149 150.205H174.717" stroke="#263238" stroke-miterlimit="10" strokeLinecap="round" stroke-linejoin="round"/>
<path d="M175.198 155.739H202.174" stroke="#263238" stroke-miterlimit="10" strokeLinecap="round" stroke-linejoin="round"/>
<path d="M150.149 155.739H169.418" stroke="#263238" stroke-miterlimit="10" strokeLinecap="round" stroke-linejoin="round"/>
<path d="M190.613 161.274H202.174" stroke="#263238" stroke-miterlimit="10" strokeLinecap="round" stroke-linejoin="round"/>
<path d="M161.71 161.274H185.796" stroke="#263238" stroke-miterlimit="10" strokeLinecap="round" stroke-linejoin="round"/>
<path d="M150.149 161.274H156.412" stroke="#263238" stroke-miterlimit="10" strokeLinecap="round" stroke-linejoin="round"/>
<path d="M171.826 166.117H202.174" stroke="#263238" stroke-miterlimit="10" strokeLinecap="round" stroke-linejoin="round"/>
<path d="M150.149 166.117H160.747" stroke="#263238" stroke-miterlimit="10" strokeLinecap="round" stroke-linejoin="round"/>
<path d="M202.174 171.652H196.875" stroke="#263238" stroke-miterlimit="10" strokeLinecap="round" stroke-linejoin="round"/>
<path d="M181.942 171.652H192.54" stroke="#263238" stroke-miterlimit="10" strokeLinecap="round" stroke-linejoin="round"/>
<path d="M150.149 171.652H174.717" stroke="#263238" stroke-miterlimit="10" strokeLinecap="round" stroke-linejoin="round"/>
<path d="M175.198 177.186H202.174" stroke="#263238" stroke-miterlimit="10" strokeLinecap="round" stroke-linejoin="round"/>
<path d="M150.149 177.186H169.418" stroke="#263238" stroke-miterlimit="10" strokeLinecap="round" stroke-linejoin="round"/>
<path d="M190.613 182.721H202.174" stroke="#263238" stroke-miterlimit="10" strokeLinecap="round" stroke-linejoin="round"/>
<path d="M161.71 182.721H185.796" stroke="#263238" stroke-miterlimit="10" strokeLinecap="round" stroke-linejoin="round"/>
<path d="M150.149 182.721H156.412" stroke="#263238" stroke-miterlimit="10" strokeLinecap="round" stroke-linejoin="round"/>
</svg>
