<svg width="251" height="219" viewBox="0 0 251 219" fill="none" xmlns="http://www.w3.org/2000/svg">
<path d="M192.736 25.053L124.721 0L57.3656 24.716C48.7676 28.882 41.2246 31.376 41.2246 39.592V80.5C41.2246 108.909 48.4816 137.061 63.4126 161.915C75.9766 182.83 95.4316 204.364 125.382 218.052C152.914 208.879 173.464 184.425 186.028 163.511C200.959 138.657 208.215 110.506 208.215 82.096V45.309C208.215 33.592 202.162 27.871 192.736 25.053Z" fill="#34FFDD"/>
<g opacity="0.8">
<path d="M192.736 25.053L124.721 0L57.3656 24.716C48.7676 28.882 41.2246 31.376 41.2246 39.592V80.5C41.2246 108.909 48.4816 137.061 63.4126 161.915C75.9766 182.83 95.4316 204.364 125.382 218.052C152.914 208.879 173.464 184.425 186.028 163.511C200.959 138.657 208.215 110.506 208.215 82.096V45.309C208.215 33.592 202.162 27.871 192.736 25.053Z" fill="black"/>
</g>
<path d="M166.256 128.611H153.758V60.5868C153.758 44.5758 140.732 31.5498 124.721 31.5498C108.71 31.5498 95.6835 44.5758 95.6835 60.5868V128.611H83.1865V60.5868C83.1865 37.6848 101.82 19.0518 124.722 19.0518C147.624 19.0518 166.257 37.6848 166.257 60.5868V128.611H166.256Z" fill="#27DEBF"/>
<g opacity="0.4">
<path d="M166.256 128.611H153.758V60.5868C153.758 44.5758 140.732 31.5498 124.721 31.5498C108.71 31.5498 95.6835 44.5758 95.6835 60.5868V128.611H83.1865V60.5868C83.1865 37.6848 101.82 19.0518 124.722 19.0518C147.624 19.0518 166.257 37.6848 166.257 60.5868V128.611H166.256Z" fill="black"/>
</g>
<path d="M174.884 170.174H74.5571C71.3481 170.174 68.7461 167.572 68.7461 164.363V104.163C68.7461 100.954 71.3481 98.3516 74.5571 98.3516H174.883C178.092 98.3516 180.694 100.954 180.694 104.163V164.363C180.694 167.573 178.093 170.174 174.884 170.174Z" fill="#27DEBF"/>
<g opacity="0.5">
<path d="M134.078 124.906C134.078 119.738 129.889 115.549 124.721 115.549C119.553 115.549 115.364 119.738 115.364 124.906C115.364 129.183 118.25 132.749 122.169 133.866V147.856H127.274V133.866C131.191 132.749 134.078 129.183 134.078 124.906Z" fill="black"/>
</g>
<path d="M74.716 163.363C74.459 163.363 74.251 151.385 74.251 136.613C74.251 121.836 74.459 109.861 74.716 109.861C74.973 109.861 75.181 121.836 75.181 136.613C75.181 151.386 74.973 163.363 74.716 163.363Z" fill="#FAFAFA"/>
<path d="M117.393 136.901C117.363 136.947 116.954 136.755 116.296 136.278C115.636 135.805 114.758 134.997 113.884 133.82C112.139 131.531 110.543 127.374 111.579 122.885C112.666 118.406 115.957 115.406 118.543 114.143C119.852 113.483 120.998 113.154 121.801 113.028C122.603 112.898 123.054 112.909 123.061 112.964C123.1 113.14 121.286 113.31 118.859 114.72C116.47 116.069 113.485 118.963 112.484 123.1C111.524 127.245 112.895 131.17 114.425 133.447C115.961 135.796 117.506 136.761 117.393 136.901Z" fill="#FAFAFA"/>
<path d="M208.805 202.187C208.805 202.187 209.073 201.812 209.614 201.099C209.75 200.92 209.902 200.721 210.07 200.5C210.224 200.269 210.362 199.996 210.529 199.71C210.856 199.134 211.265 198.48 211.557 197.654C211.717 197.249 211.908 196.827 212.07 196.369C212.2 195.899 212.336 195.405 212.479 194.886C212.645 194.373 212.733 193.816 212.821 193.234C212.896 192.651 213.055 192.054 213.074 191.415C213.348 188.876 213.18 185.913 212.672 182.643C211.658 176.082 208.876 168.355 204.617 159.957C200.365 151.541 194.51 142.489 187.316 133.053C180.119 123.614 171.467 113.865 161.519 104.076C151.562 94.2992 140.288 84.4762 127.652 75.1682C121.33 70.5222 114.661 66.0152 107.631 61.7702C100.608 57.5152 93.2034 53.5492 85.3944 50.1102C77.5844 46.7152 69.3434 43.7562 60.6514 42.3542C56.3204 41.6862 51.8514 41.3642 47.4574 42.0292C45.2654 42.3662 43.1114 42.9642 41.0834 43.8752C39.0874 44.8492 37.2514 46.1472 35.7344 47.7872C34.2764 49.4812 33.1894 51.4502 32.4464 53.5442C31.7744 55.6642 31.4164 57.8712 31.3334 60.0882C31.1664 64.5312 31.9964 68.9352 33.1514 73.1642C35.5314 81.6432 39.4094 89.4962 43.6724 96.8712C47.9774 104.24 52.7614 111.148 57.7894 117.642C62.8074 124.145 68.0454 130.258 73.3814 136.011C84.0694 147.508 95.1114 157.591 105.959 166.372C116.818 175.141 127.488 182.628 137.685 188.704C147.878 194.777 157.538 199.563 166.382 202.83C175.21 206.106 183.202 207.99 189.835 208.25C193.141 208.382 196.104 208.211 198.594 207.651C199.227 207.56 199.802 207.334 200.372 207.193C200.94 207.04 201.483 206.889 201.974 206.665C202.473 206.464 202.948 206.273 203.401 206.09C203.838 205.876 204.235 205.639 204.619 205.434C205.406 205.05 206.009 204.569 206.544 204.179C206.809 203.98 207.064 203.812 207.276 203.633C207.476 203.441 207.657 203.268 207.819 203.112C208.463 202.496 208.805 202.187 208.805 202.187C208.805 202.187 208.49 202.52 207.853 203.153C207.693 203.312 207.514 203.489 207.317 203.685C207.107 203.868 206.853 204.04 206.59 204.244C206.057 204.643 205.456 205.133 204.669 205.527C204.285 205.737 203.887 205.98 203.449 206.199C202.996 206.386 202.519 206.583 202.019 206.789C201.526 207.018 200.982 207.174 200.411 207.332C199.839 207.478 199.26 207.709 198.625 207.805C196.123 208.385 193.146 208.573 189.824 208.456C183.16 208.226 175.136 206.364 166.278 203.107C157.403 199.859 147.715 195.087 137.493 189.025C127.268 182.96 116.57 175.48 105.685 166.713C94.8114 157.935 83.7424 147.849 73.0274 136.343C67.6784 130.585 62.4264 124.464 57.3934 117.951C52.3514 111.446 47.5524 104.524 43.2294 97.1332C38.9504 89.7342 35.0524 81.8532 32.6504 73.3082C31.4854 69.0442 30.6434 64.5962 30.8114 60.0742C30.8964 57.8172 31.2604 55.5612 31.9514 53.3832C32.7144 51.2302 33.8364 49.1962 35.3444 47.4462C36.9124 45.7492 38.8094 44.4092 40.8614 43.4092C42.9454 42.4732 45.1474 41.8642 47.3784 41.5202C51.8514 40.8442 56.3644 41.1742 60.7314 41.8472C69.4914 43.2632 77.7624 46.2382 85.5984 49.6472C93.4314 53.1002 100.853 57.0802 107.887 61.3482C114.929 65.6062 121.606 70.1272 127.935 74.7852C140.584 84.1202 151.862 93.9682 161.82 103.772C171.768 113.588 180.417 123.365 187.607 132.833C194.793 142.298 200.637 151.381 204.875 159.829C209.12 168.259 211.883 176.019 212.871 182.615C213.366 185.902 213.518 188.881 213.227 191.433C213.204 192.075 213.041 192.676 212.961 193.262C212.869 193.847 212.776 194.406 212.605 194.921C212.457 195.441 212.316 195.938 212.182 196.409C212.015 196.869 211.819 197.292 211.654 197.698C211.352 198.525 210.934 199.179 210.598 199.753C210.426 200.038 210.284 200.31 210.126 200.539C209.954 200.758 209.798 200.955 209.658 201.132C209.1 201.836 208.805 202.187 208.805 202.187Z" fill="#27DEBF"/>
<path d="M240.817 124.916C240.817 124.916 240.767 124.458 240.697 123.566C240.68 123.342 240.66 123.092 240.638 122.816C240.599 122.541 240.52 122.245 240.455 121.921C240.316 121.273 240.186 120.513 239.854 119.703C239.704 119.294 239.566 118.852 239.381 118.402C239.165 117.965 238.937 117.505 238.699 117.023C238.482 116.529 238.176 116.056 237.855 115.563C237.523 115.078 237.244 114.526 236.832 114.037C235.346 111.96 233.249 109.861 230.693 107.758C225.569 103.537 218.35 99.6222 209.581 96.1912C200.806 92.7412 190.411 89.8832 178.761 87.6302C167.107 85.3772 154.161 83.8612 140.221 83.1782C126.282 82.5102 111.33 82.6842 95.7043 84.1492C87.8943 84.8912 79.9172 85.9662 71.8452 87.4782C63.7722 88.9782 55.6053 90.9472 47.4893 93.5802C39.4003 96.2452 31.2812 99.5232 23.8622 104.263C20.1852 106.648 16.6363 109.382 13.8003 112.803C12.3893 114.514 11.1792 116.393 10.2722 118.424C9.43125 120.479 8.92525 122.67 8.88425 124.904C8.92325 127.138 9.42324 129.331 10.2622 131.389C11.1722 133.419 12.3743 135.304 13.7873 137.014C16.6193 140.44 20.1713 143.175 23.8483 145.562C31.2683 150.305 39.3903 153.584 47.4803 156.25C55.5983 158.883 63.7672 160.854 71.8412 162.354C79.9142 163.866 87.8923 164.942 95.7043 165.683C111.333 167.148 126.286 167.322 140.226 166.654C154.167 165.97 167.113 164.454 178.767 162.201C190.416 159.948 200.811 157.09 209.585 153.64C218.353 150.208 225.572 146.294 230.695 142.073C233.25 139.971 235.347 137.871 236.833 135.795C237.244 135.306 237.524 134.754 237.855 134.269C238.177 133.776 238.482 133.303 238.699 132.809C238.937 132.327 239.165 131.867 239.381 131.431C239.565 130.981 239.703 130.539 239.853 130.13C240.185 129.319 240.315 128.56 240.454 127.912C240.519 127.588 240.598 127.292 240.637 127.017C240.659 126.741 240.678 126.491 240.696 126.267C240.767 125.374 240.817 124.916 240.817 124.916C240.817 124.916 240.803 125.374 240.75 126.27C240.736 126.495 240.721 126.746 240.704 127.024C240.67 127.3 240.595 127.598 240.533 127.925C240.401 128.577 240.279 129.344 239.954 130.161C239.807 130.574 239.672 131.02 239.49 131.474C239.276 131.915 239.051 132.379 238.815 132.866C238.6 133.365 238.297 133.844 237.977 134.341C237.647 134.831 237.369 135.389 236.959 135.883C235.478 137.982 233.381 140.103 230.825 142.227C225.699 146.491 218.471 150.443 209.693 153.909C200.908 157.393 190.501 160.281 178.838 162.561C167.17 164.841 154.208 166.38 140.249 167.084C126.29 167.772 111.317 167.614 95.6613 166.16C87.8363 165.424 79.8433 164.352 71.7513 162.842C63.6593 161.344 55.4692 159.373 47.3232 156.735C39.2042 154.062 31.0502 150.776 23.5692 145.997C19.8622 143.591 16.2722 140.832 13.3882 137.345C11.9492 135.605 10.7182 133.678 9.78424 131.593C8.92024 129.478 8.40326 127.213 8.36426 124.903C8.40426 122.593 8.92825 120.33 9.79425 118.218C10.7263 116.132 11.9642 114.212 13.4002 112.471C16.2882 108.989 19.8753 106.231 23.5833 103.827C31.0633 99.0522 39.2152 95.7672 47.3322 93.0952C55.4762 90.4572 63.6642 88.4882 71.7552 86.9902C79.8452 85.4802 87.8362 84.4092 95.6602 83.6722C111.313 82.2182 126.285 82.0602 140.243 82.7472C154.201 83.4502 167.163 84.9892 178.831 87.2692C190.494 89.5482 200.901 92.4362 209.687 95.9202C218.466 99.3852 225.694 103.337 230.821 107.602C233.378 109.726 235.475 111.847 236.957 113.946C237.367 114.44 237.646 114.998 237.976 115.488C238.296 115.986 238.599 116.465 238.815 116.964C239.051 117.451 239.276 117.915 239.49 118.357C239.672 118.812 239.806 119.258 239.954 119.67C240.279 120.488 240.402 121.254 240.534 121.907C240.595 122.234 240.67 122.532 240.705 122.808C240.722 123.086 240.737 123.337 240.751 123.562C240.803 124.458 240.817 124.916 240.817 124.916Z" fill="#27DEBF"/>
<path d="M198.403 28.7298C198.403 28.7298 198.01 28.4888 197.262 27.9978C197.074 27.8748 196.865 27.7368 196.633 27.5848C196.392 27.4478 196.11 27.3278 195.814 27.1808C195.217 26.8938 194.537 26.5318 193.692 26.2968C193.277 26.1648 192.843 26.0038 192.374 25.8728C191.896 25.7758 191.394 25.6738 190.866 25.5678C190.343 25.4368 189.781 25.3878 189.195 25.3408C188.609 25.3058 188.002 25.1888 187.363 25.2138C184.811 25.1158 181.867 25.4868 178.64 26.2188C172.164 27.6818 164.647 30.9898 156.563 35.8178C148.46 40.6398 139.832 47.1038 130.915 54.9308C121.994 62.7608 112.865 72.0638 103.784 82.6618C94.7161 93.2688 85.6931 105.193 77.2771 118.44C73.0781 125.067 69.0411 132.03 65.2901 139.336C61.5291 146.635 58.0821 154.296 55.1901 162.324C52.3411 170.35 49.9571 178.775 49.1571 187.542C48.7891 191.909 48.7751 196.389 49.7421 200.727C50.2291 202.89 50.9741 204.998 52.0221 206.959C53.1311 208.883 54.5531 210.625 56.2931 212.026C58.0831 213.364 60.1221 214.312 62.2621 214.91C64.4231 215.434 66.6501 215.639 68.8671 215.57C73.3111 215.431 77.6482 214.299 81.7872 212.856C90.0822 209.897 97.6491 205.488 104.713 200.727C111.768 195.924 118.33 190.676 124.462 185.213C130.604 179.759 136.341 174.113 141.714 168.393C152.447 156.939 161.746 145.228 169.759 133.801C177.759 122.364 184.494 111.203 189.853 100.612C195.209 90.0248 199.319 80.0588 201.968 71.0098C204.628 61.9778 205.957 53.8738 205.759 47.2388C205.663 43.9308 205.289 40.9878 204.558 38.5418C204.423 37.9168 204.159 37.3588 203.979 36.7988C203.787 36.2428 203.599 35.7118 203.342 35.2368C203.107 34.7528 202.883 34.2918 202.67 33.8528C202.427 33.4318 202.162 33.0518 201.931 32.6828C201.494 31.9238 200.973 31.3558 200.546 30.8488C200.33 30.5988 200.144 30.3548 199.951 30.1558C199.746 29.9698 199.56 29.8008 199.394 29.6498C198.734 29.0498 198.403 28.7298 198.403 28.7298C198.403 28.7298 198.756 29.0218 199.432 29.6128C199.601 29.7618 199.791 29.9278 200 30.1108C200.197 30.3078 200.387 30.5488 200.607 30.7978C201.042 31.3018 201.572 31.8678 202.02 32.6258C202.256 32.9948 202.526 33.3748 202.774 33.7968C202.992 34.2358 203.221 34.6988 203.461 35.1828C203.723 35.6588 203.916 36.1908 204.113 36.7488C204.298 37.3098 204.568 37.8718 204.708 38.4978C205.459 40.9538 205.851 43.9108 205.963 47.2328C206.192 53.8968 204.888 62.0298 202.248 71.0908C199.619 80.1688 195.526 90.1628 190.182 100.777C184.836 111.395 178.11 122.583 170.114 134.047C162.105 145.5 152.807 157.237 142.065 168.72C136.689 174.453 130.945 180.114 124.794 185.584C118.652 191.062 112.077 196.327 105.001 201.148C97.9141 205.927 90.3211 210.358 81.9611 213.343C77.7881 214.799 73.4081 215.946 68.8851 216.089C66.6281 216.16 64.3511 215.953 62.1311 215.413C59.9311 214.8 57.8241 213.821 55.9741 212.437C54.1731 210.99 52.7062 209.189 51.5672 207.211C50.4892 205.197 49.7301 203.042 49.2341 200.84C48.2511 196.425 48.2702 191.899 48.6412 187.496C49.4502 178.659 51.8482 170.203 54.7102 162.151C57.6152 154.098 61.0752 146.421 64.8482 139.108C68.6112 131.789 72.6611 124.817 76.8721 118.182C85.3131 104.92 94.3611 92.9898 103.456 82.3798C112.564 71.7788 121.722 62.4778 130.672 54.6528C139.619 46.8318 148.278 40.3758 156.414 35.5668C164.531 30.7518 172.083 27.4598 178.595 26.0208C181.84 25.3008 184.802 24.9438 187.368 25.0588C188.01 25.0368 188.621 25.1588 189.211 25.1978C189.801 25.2498 190.365 25.3038 190.891 25.4388C191.42 25.5508 191.925 25.6568 192.405 25.7588C192.875 25.8938 193.311 26.0608 193.727 26.1968C194.573 26.4408 195.254 26.8138 195.85 27.1088C196.146 27.2608 196.427 27.3838 196.667 27.5258C196.897 27.6828 197.105 27.8248 197.291 27.9518C198.032 28.4598 198.403 28.7298 198.403 28.7298Z" fill="#27DEBF"/>
<path d="M7.36102 172.831C9.04502 174.515 9.04502 177.245 7.36102 178.928C5.67702 180.612 2.947 180.612 1.263 178.928C-0.421 177.244 -0.421 174.514 1.263 172.831C2.947 171.147 5.67702 171.147 7.36102 172.831Z" fill="#27DEBF"/>
<path d="M250.629 39.2251C250.629 41.6061 248.699 43.5371 246.317 43.5371C243.935 43.5371 242.005 41.6071 242.005 39.2251C242.005 36.8441 243.935 34.9141 246.317 34.9141C248.699 34.9141 250.629 36.8431 250.629 39.2251Z" fill="#27DEBF"/>
<path d="M34.5895 187.008C34.5895 187.613 34.0985 188.104 33.4935 188.104C32.8885 188.104 32.3975 187.613 32.3975 187.008C32.3975 186.403 32.8885 185.912 33.4935 185.912C34.0985 185.912 34.5895 186.403 34.5895 187.008Z" fill="#27DEBF"/>
<path d="M57.9762 66.1888C57.9762 66.7938 57.4852 67.2848 56.8802 67.2848C56.2752 67.2848 55.7842 66.7938 55.7842 66.1888C55.7842 65.5838 56.2752 65.0928 56.8802 65.0928C57.4862 65.0928 57.9762 65.5838 57.9762 66.1888Z" fill="#27DEBF"/>
<path d="M228.97 124.916C228.97 125.521 228.479 126.012 227.874 126.012C227.269 126.012 226.778 125.521 226.778 124.916C226.778 124.311 227.269 123.82 227.874 123.82C228.48 123.82 228.97 124.311 228.97 124.916Z" fill="#27DEBF"/>
<path d="M244.198 73.8318C244.198 74.4368 243.707 74.9278 243.102 74.9278C242.497 74.9278 242.006 74.4368 242.006 73.8318C242.006 73.2268 242.497 72.7358 243.102 72.7358C243.707 72.7358 244.198 73.2268 244.198 73.8318Z" fill="#27DEBF"/>
</svg>
