<svg width="2457" height="1442" viewBox="0 0 2457 1442" fill="none" xmlns="http://www.w3.org/2000/svg">
<path d="M1006.55 1280.56C1006.55 1280.56 1237.79 1089.7 1292.46 792.131C1347.14 494.565 1123.14 434.696 991.787 333.935C860.438 233.174 812.131 119.738 621.735 112.877C431.34 106.019 332.811 182.701 263.993 331.221C195.178 479.742 158.389 632.236 136.707 781.056C115.025 929.876 125.589 1048.73 247.773 1107.95C369.957 1167.17 426.688 1141.14 484.708 1209.38C542.728 1277.63 807.612 1432.03 1006.55 1280.56Z" fill="#92E3A9"/>
<path opacity="0.7" d="M1006.55 1280.56C1006.55 1280.56 1237.79 1089.7 1292.46 792.131C1347.14 494.565 1123.14 434.696 991.787 333.935C860.438 233.174 812.131 119.738 621.735 112.877C431.34 106.019 332.811 182.701 263.993 331.221C195.178 479.742 158.389 632.236 136.707 781.056C115.025 929.876 125.589 1048.73 247.773 1107.95C369.957 1167.17 426.688 1141.14 484.708 1209.38C542.728 1277.63 807.612 1432.03 1006.55 1280.56Z" fill="white"/>
<path d="M1074.7 1340.7C1074.7 1340.7 1057.81 1195.19 1059.45 1183.3C1061.1 1171.4 1077.52 1101.9 1084.39 1086.56C1091.27 1071.21 1102.74 1037.4 1106.98 1010.34C1111.21 983.285 1109.82 975.819 1110.76 972.554C1111.69 969.289 1112.55 913.345 1108.61 896.31C1104.66 879.274 1094.76 848.513 1094.76 848.513C1094.76 848.513 1093.49 818.462 1069.19 777.558C1044.88 736.654 1044.84 735.582 1030.43 725.438C1016.03 715.295 1001.76 708.374 987.715 706.816C973.673 705.259 960.929 709.023 966.039 728.158C971.147 747.296 992.31 764.678 992.31 764.678C992.31 764.678 1006.32 790.966 1012.1 800.397C1017.87 809.83 1022.66 821.453 1022.66 821.453L1023.89 850.428L1014.95 868.006C1014.95 868.006 1001.48 854.598 995.439 838.728C989.394 822.857 966.325 836.732 958.783 861.78C951.241 886.827 841.499 961.347 846.304 998.772C851.112 1036.2 853.892 1127.47 871.802 1169.72C889.714 1211.96 894.323 1219.3 894.323 1219.3L891.54 1357.03" fill="white"/>
<path d="M1074.7 1340.7C1074.7 1340.7 1057.81 1195.19 1059.45 1183.3C1061.1 1171.4 1077.52 1101.9 1084.39 1086.56C1091.27 1071.21 1102.74 1037.4 1106.98 1010.34C1111.21 983.285 1109.82 975.819 1110.76 972.554C1111.69 969.289 1112.55 913.345 1108.61 896.31C1104.66 879.274 1094.76 848.513 1094.76 848.513C1094.76 848.513 1093.49 818.462 1069.19 777.558C1044.88 736.654 1044.84 735.582 1030.43 725.438C1016.03 715.295 1001.76 708.374 987.715 706.816C973.673 705.259 960.929 709.023 966.039 728.158C971.147 747.296 992.31 764.678 992.31 764.678C992.31 764.678 1006.32 790.966 1012.1 800.397C1017.87 809.83 1022.66 821.453 1022.66 821.453L1023.89 850.428L1014.95 868.006C1014.95 868.006 1001.48 854.598 995.439 838.728C989.394 822.857 966.325 836.732 958.783 861.78C951.241 886.827 841.499 961.347 846.304 998.772C851.112 1036.2 853.892 1127.47 871.802 1169.72C889.714 1211.96 894.323 1219.3 894.323 1219.3L891.54 1357.03" stroke="#263238" stroke-miterlimit="10" stroke-linecap="round" stroke-linejoin="round"/>
<path d="M850.054 1014.82C850.054 1014.82 859.571 1050.58 878.322 1062.12C897.071 1073.66 919.428 1067.17 919.428 1067.17L940.343 1080.15L1021.84 971.253C1021.84 971.253 1039.14 918.609 1037.7 899.857C1036.26 881.108 1034.82 869.566 1031.93 867.403C1029.05 865.24 1008.13 856.585 1008.13 856.585L1000.2 847.209L990.279 828.686C990.279 828.686 980.007 863.798 952.603 891.202C925.199 918.606 871.11 958.993 860.292 981.347C849.477 1003.71 846.449 998.96 850.054 1014.82Z" fill="#263238" stroke="#263238" stroke-miterlimit="10" stroke-linecap="round" stroke-linejoin="round"/>
<path d="M996.854 762.962C996.854 762.962 1013.22 770.954 1031.35 757.497" stroke="#263238" stroke-miterlimit="10" stroke-linecap="round" stroke-linejoin="round"/>
<path d="M995.879 949.093L966.22 984.849C964.588 986.815 961.395 985.466 961.669 982.922L966.056 936.752L1123.15 557.091C1124.28 554.365 1127.4 553.071 1130.13 554.198L1150.08 562.455C1152.81 563.583 1154.1 566.706 1152.97 569.432L995.879 949.093Z" fill="#92E3A9" stroke="#263238" stroke-miterlimit="10" stroke-linecap="round" stroke-linejoin="round"/>
<path d="M1134.94 613.035L1152.98 569.434C1154.11 566.709 1152.81 563.586 1150.09 562.458L1130.14 554.201C1127.41 553.073 1124.29 554.368 1123.16 557.094L1105.12 600.694L1134.94 613.035Z" fill="#D4D4D4" stroke="#263238" stroke-miterlimit="10" stroke-linecap="round" stroke-linejoin="round"/>
<path d="M1113.03 581.415L1105.05 600.689L1134.88 613.028L1142.85 593.753L1113.03 581.415Z" fill="white" stroke="#263238" stroke-miterlimit="10" stroke-linecap="round" stroke-linejoin="round"/>
<path d="M966.048 936.856L961.67 982.925C961.393 985.469 964.588 986.818 966.221 984.851L995.816 949.174L966.048 936.856Z" fill="white" stroke="#263238" stroke-miterlimit="10" stroke-linecap="round" stroke-linejoin="round"/>
<path d="M963.599 962.627L961.67 982.925C961.393 985.466 964.588 986.818 966.221 984.849L979.274 969.111L963.599 962.627Z" fill="#263238" stroke="#263238" stroke-miterlimit="10" stroke-linecap="round" stroke-linejoin="round"/>
<path d="M923.705 1039.21C923.705 1039.21 923.875 1043.21 921.403 1047.99C918.932 1052.76 911.214 1059.77 900.549 1060.22C889.881 1060.67 872.765 1050.71 860.839 1037.18C848.914 1023.66 845.404 1003.78 840.144 989.973C834.886 976.171 834.324 962.838 844.256 945.052C854.192 927.27 875.833 933.701 875.833 933.701C875.833 933.701 891.335 984.471 897.899 997.55C904.466 1010.63 923.705 1039.21 923.705 1039.21Z" fill="white" stroke="#263238" stroke-miterlimit="10" stroke-linecap="round" stroke-linejoin="round"/>
<path d="M890.352 1055.98C890.352 1055.98 883.205 1044.93 886.568 1045.45C889.928 1045.97 900.567 1044.86 905.095 1041.33C909.62 1037.8 909.619 1037.8 913.066 1040.33C916.512 1042.85 921.404 1047.99 921.404 1047.99" stroke="#263238" stroke-miterlimit="10" stroke-linecap="round" stroke-linejoin="round"/>
<path d="M878.331 1017.52L869.31 1026.58C869.31 1026.58 883.539 1020.92 888.471 1017.82" stroke="#263238" stroke-miterlimit="10" stroke-linecap="round" stroke-linejoin="round"/>
<path d="M918.721 873.789C918.721 873.789 900.909 863.187 884.975 881.227C869.041 899.263 871.077 915.875 879.706 946.232C888.335 976.589 898.129 1002.89 904.465 1010.64C910.804 1018.38 923.18 1042.57 937.179 1041.98C937.179 1041.98 960.897 1034.3 965.001 1020.77C969.105 1007.24 961.546 1002.21 961.546 1002.21L951.423 983.94L947.469 969.414C947.469 969.414 934.116 937.92 930.078 921.395C926.044 904.867 918.721 873.789 918.721 873.789Z" fill="white" stroke="#263238" stroke-miterlimit="10" stroke-linecap="round" stroke-linejoin="round"/>
<path d="M933.588 989.87C933.588 989.87 922.277 996.134 917.977 997.039" stroke="#263238" stroke-miterlimit="10" stroke-linecap="round" stroke-linejoin="round"/>
<path d="M924.048 986.657C924.048 986.657 912.587 989.31 909.879 993.766" stroke="#263238" stroke-miterlimit="10" stroke-linecap="round" stroke-linejoin="round"/>
<path d="M950.278 1020.05C950.278 1020.05 931.638 1021.51 931.284 1028.87C930.926 1036.23 938.872 1034.56 938.872 1034.56" stroke="#263238" stroke-miterlimit="10" stroke-linecap="round" stroke-linejoin="round"/>
<path d="M990.3 860.747C990.3 860.747 995.012 845.854 990.282 828.692C985.55 811.526 975.851 803.255 964.517 803.734C953.182 804.212 935.126 803.638 927.362 825.338C919.595 847.037 919.278 871.092 918.733 889.818C918.188 908.541 922.283 926.402 926.563 932.899C930.846 939.397 955.925 979.744 958.789 984.298C961.653 988.852 971.709 989.763 982.844 984.618C993.979 979.473 1000.83 967.83 1000.47 959.164C1000.1 950.497 986.299 908.336 986.299 908.336C986.299 908.336 988.131 904.252 989.625 892.168C991.116 880.079 990.3 860.747 990.3 860.747Z" fill="white" stroke="#263238" stroke-miterlimit="10" stroke-linecap="round" stroke-linejoin="round"/>
<path d="M952.081 967.882C952.081 967.882 948.908 955.994 961.987 949.43C975.066 942.866 991.695 972.886 991.695 972.886" stroke="#263238" stroke-miterlimit="10" stroke-linecap="round" stroke-linejoin="round"/>
<path d="M947.111 905.49C941.753 907.578 936.17 910.857 933.188 915.921" stroke="#263238" stroke-miterlimit="10" stroke-linecap="round" stroke-linejoin="round"/>
<path d="M960.655 902.069C960.655 902.069 958.128 902.34 954.549 903.191" stroke="#263238" stroke-miterlimit="10" stroke-linecap="round" stroke-linejoin="round"/>
<path d="M941.886 916.221C941.886 916.221 953.079 912.408 958.27 908.85" stroke="#263238" stroke-miterlimit="10" stroke-linecap="round" stroke-linejoin="round"/>
<path d="M923.561 1130.71C923.561 1130.71 929.804 1073.01 946.116 1032.25C962.425 991.49 985.027 973.171 992.745 966.166C1000.46 959.161 1009.35 948.101 1009.35 948.101L1022.3 922.843C1022.3 922.843 1023.86 880.702 1023.33 868.035C1022.79 855.369 1025.67 828.533 1043.04 797.077C1060.41 765.621 1072.99 763.086 1080.88 760.081C1088.76 757.076 1105.69 762.374 1110.63 768.843C1115.58 775.312 1093.47 820.994 1094.12 836.326C1094.76 851.66 1090.12 883.912 1088.66 912.691C1087.2 941.47 1089.01 955.977 1084.06 1000.63C1079.11 1045.28 1073.9 1083.96 1073.9 1083.96" fill="white"/>
<path d="M923.561 1130.71C923.561 1130.71 929.804 1073.01 946.116 1032.25C962.425 991.49 985.027 973.171 992.745 966.166C1000.46 959.161 1009.35 948.101 1009.35 948.101L1022.3 922.843C1022.3 922.843 1023.86 880.702 1023.33 868.035C1022.79 855.369 1025.67 828.533 1043.04 797.077C1060.41 765.621 1072.99 763.086 1080.88 760.081C1088.76 757.076 1105.69 762.374 1110.63 768.843C1115.58 775.312 1093.47 820.994 1094.12 836.326C1094.76 851.66 1090.12 883.912 1088.66 912.691C1087.2 941.47 1089.01 955.977 1084.06 1000.63C1079.11 1045.28 1073.9 1083.96 1073.9 1083.96" stroke="#263238" stroke-miterlimit="10" stroke-linecap="round" stroke-linejoin="round"/>
<path d="M1103.49 764.949C1103.49 764.949 1088.23 763.424 1084.12 768.661C1080 773.898 1068.88 801.859 1073.49 808.175C1078.1 814.491 1089.77 816.89 1093.32 815.295" stroke="#263238" stroke-miterlimit="10" stroke-linecap="round" stroke-linejoin="round"/>
<path d="M1087.96 859.648C1087.96 859.648 1075.59 858.002 1070.63 860.381" stroke="#263238" stroke-miterlimit="10" stroke-linecap="round" stroke-linejoin="round"/>
<path d="M1064.31 864.987C1064.31 864.987 1074.63 869.616 1084.65 867.02" stroke="#263238" stroke-miterlimit="10" stroke-linecap="round" stroke-linejoin="round"/>
<path d="M1060.62 880.333C1060.62 880.333 1064.56 888.122 1078.92 885.348" stroke="#263238" stroke-miterlimit="10" stroke-linecap="round" stroke-linejoin="round"/>
<path d="M1066.82 306.082C1066.82 306.082 903.993 286.376 883.251 278.26C862.509 270.142 674.942 171.837 663.219 167.327C651.496 162.816 633.459 167.327 627.146 170.932C620.833 174.54 591.073 184.458 576.644 191.671C562.216 198.884 490.069 227.738 475.641 235.854C461.212 243.969 454.899 259.301 453.996 268.316C453.094 277.334 433.252 348.575 436.857 363.003C440.462 377.432 446.772 424.326 452.182 436.952C457.593 449.578 463.906 446.873 470.219 445.97C476.532 445.068 497.274 434.25 497.274 434.25C497.274 434.25 505.389 464.91 514.405 479.341C523.42 493.773 534.241 518.119 545.064 518.119C555.885 518.119 564.903 508.201 564.903 508.201C564.903 508.201 621.715 528.043 636.144 530.748C650.573 533.454 660.491 530.751 664.099 524.438C667.707 518.125 663.199 502.794 663.199 502.794C663.199 502.794 706.485 502.797 704.682 482.055C702.88 461.313 692.962 454.1 686.649 451.392C680.336 448.687 661.399 445.979 661.399 445.979L702.883 445.982C702.883 445.982 738.053 456.806 781.336 473.942C824.622 491.079 861.595 496.492 911.194 488.38C960.793 480.267 968.909 473.051 977.927 473.054C986.945 473.057 1284.87 540.283 1284.87 540.283" fill="white"/>
<path d="M1066.82 306.082C1066.82 306.082 903.993 286.376 883.251 278.26C862.509 270.142 674.942 171.837 663.219 167.327C651.496 162.816 633.459 167.327 627.146 170.932C620.833 174.54 591.073 184.458 576.644 191.671C562.216 198.884 490.069 227.738 475.641 235.854C461.212 243.969 454.899 259.301 453.996 268.316C453.094 277.334 433.252 348.575 436.857 363.003C440.462 377.432 446.772 424.326 452.182 436.952C457.593 449.578 463.906 446.873 470.219 445.97C476.532 445.068 497.274 434.25 497.274 434.25C497.274 434.25 505.389 464.91 514.405 479.341C523.42 493.773 534.241 518.119 545.064 518.119C555.885 518.119 564.903 508.201 564.903 508.201C564.903 508.201 621.715 528.043 636.144 530.748C650.573 533.454 660.491 530.751 664.099 524.438C667.707 518.125 663.199 502.794 663.199 502.794C663.199 502.794 706.485 502.797 704.682 482.055C702.88 461.313 692.962 454.1 686.649 451.392C680.336 448.687 661.399 445.979 661.399 445.979L702.883 445.982C702.883 445.982 738.053 456.806 781.336 473.942C824.622 491.079 861.595 496.492 911.194 488.38C960.793 480.267 968.909 473.051 977.927 473.054C986.945 473.057 1284.87 540.283 1284.87 540.283" stroke="#263238" stroke-miterlimit="10" stroke-linecap="round" stroke-linejoin="round"/>
<path d="M619.653 465.144C619.815 465.219 619.973 465.288 620.129 465.36C619.948 465.276 619.786 465.204 619.653 465.144Z" fill="#263238" stroke="#263238" stroke-miterlimit="10" stroke-linecap="round" stroke-linejoin="round"/>
<path d="M619.541 465.091C619.578 465.109 619.61 465.123 619.653 465.143C619.615 465.126 619.581 465.111 619.541 465.091Z" fill="#263238" stroke="#263238" stroke-miterlimit="10" stroke-linecap="round" stroke-linejoin="round"/>
<path d="M619.238 464.956C619.238 464.956 619.258 464.965 619.295 464.982C619.275 464.973 619.261 464.965 619.238 464.956Z" fill="#263238" stroke="#263238" stroke-miterlimit="10" stroke-linecap="round" stroke-linejoin="round"/>
<path d="M620.129 465.36C620.397 465.481 620.709 465.622 621.055 465.781C620.76 465.648 620.449 465.507 620.129 465.36Z" fill="#263238" stroke="#263238" stroke-miterlimit="10" stroke-linecap="round" stroke-linejoin="round"/>
<path d="M619.295 464.982C619.382 465.022 619.457 465.054 619.541 465.094C619.434 465.043 619.344 465.002 619.295 464.982Z" fill="#263238" stroke="#263238" stroke-miterlimit="10" stroke-linecap="round" stroke-linejoin="round"/>
<path d="M621.055 465.781C621.678 466.063 622.24 466.32 622.745 466.548C622.156 466.28 621.571 466.014 621.055 465.781Z" fill="#263238" stroke="#263238" stroke-miterlimit="10" stroke-linecap="round" stroke-linejoin="round"/>
<path d="M626.157 468.1C626.664 468.33 626.581 468.293 626.157 468.1Z" fill="#263238" stroke="#263238" stroke-miterlimit="10" stroke-linecap="round" stroke-linejoin="round"/>
<path d="M625.557 467.826C625.805 467.938 626.012 468.033 626.156 468.1C626.001 468.028 625.796 467.935 625.557 467.826Z" fill="#263238" stroke="#263238" stroke-miterlimit="10" stroke-linecap="round" stroke-linejoin="round"/>
<path d="M625.072 467.606C625.245 467.684 625.407 467.759 625.557 467.826C625.413 467.762 625.251 467.687 625.072 467.606Z" fill="#263238" stroke="#263238" stroke-miterlimit="10" stroke-linecap="round" stroke-linejoin="round"/>
<path d="M622.745 466.548C623.105 466.712 623.466 466.877 623.817 467.035C623.494 466.888 623.134 466.724 622.745 466.548Z" fill="#263238" stroke="#263238" stroke-miterlimit="10" stroke-linecap="round" stroke-linejoin="round"/>
<path d="M623.815 467.035C624.314 467.26 624.723 467.448 625.069 467.606C624.695 467.433 624.265 467.24 623.815 467.035Z" fill="#263238" stroke="#263238" stroke-miterlimit="10" stroke-linecap="round" stroke-linejoin="round"/>
<path d="M717.135 430.68C707.592 428.56 698.845 428.32 691.257 429.004C689.616 423.233 681.042 417.281 678.008 415.112C672.8 411.391 587.249 423.297 575.346 432.223C563.444 441.149 552.283 450.077 556.747 464.956L573.114 474.626C573.114 474.626 602.871 457.515 619.238 464.956C619.238 464.956 634.116 448.589 650.483 445.613L702.88 445.982C702.88 445.982 739.835 456.22 756.862 464.024C773.89 471.828 809.36 455.511 814.326 451.254C819.295 446.997 742.676 436.355 717.135 430.68Z" fill="#263238" stroke="#263238" stroke-miterlimit="10" stroke-linecap="round" stroke-linejoin="round"/>
<path d="M570.178 462.438C570.178 462.438 579.863 497.248 564.912 508.21" stroke="#263238" stroke-miterlimit="10" stroke-linecap="round" stroke-linejoin="round"/>
<path d="M537.572 511.999C537.572 511.999 536.268 503.52 537.572 495.696C538.875 487.872 529.745 476.134 529.745 476.134" stroke="#263238" stroke-miterlimit="10" stroke-linecap="round" stroke-linejoin="round"/>
<path d="M594.961 515.913C594.961 515.913 587.137 499.61 598.223 498.306C609.309 497.003 638.002 504.827 638.002 504.827C638.002 504.827 636.046 517.868 641.915 529.606" stroke="#263238" stroke-miterlimit="10" stroke-linecap="round" stroke-linejoin="round"/>
<path d="M613.156 462.588C605.424 459.77 599.526 457.875 599.526 457.875C599.526 457.875 598.874 452.006 596.919 447.441C594.964 442.876 590.167 439.674 590.167 439.674" stroke="white" stroke-miterlimit="10" stroke-linecap="round" stroke-linejoin="round"/>
<path d="M663.208 502.8C663.208 502.8 656.909 486.568 646.478 478.089C640.237 473.019 624.663 466.781 613.156 462.588" stroke="#263238" stroke-miterlimit="10" stroke-linecap="round" stroke-linejoin="round"/>
<path d="M583.223 455.917L591.699 457.221" stroke="white" stroke-miterlimit="10" stroke-linecap="round" stroke-linejoin="round"/>
<path d="M646.478 478.089C646.478 478.089 646.478 470.265 660.174 469.613C673.87 468.962 689.518 465.048 692.128 470.265C694.735 475.482 697.997 487.872 694.736 492.437C691.474 497.003 664.739 497.003 664.739 497.003" stroke="#263238" stroke-miterlimit="10" stroke-linecap="round" stroke-linejoin="round"/>
<path d="M640.608 444.179C640.608 444.179 637.347 438.31 630.826 433.745C624.305 429.18 620.392 427.876 620.392 427.876" stroke="white" stroke-miterlimit="10" stroke-linecap="round" stroke-linejoin="round"/>
<path d="M495.186 398.528C495.186 398.528 498.448 382.225 495.186 369.184C491.924 356.142 489.969 348.967 489.969 348.967C489.969 348.967 499.751 338.532 504.968 328.098C510.186 317.664 518.662 299.405 518.662 299.405C518.662 299.405 546.703 292.885 561.051 288.971C575.399 285.057 591.702 274.623 591.702 274.623C591.702 274.623 594.964 285.057 599.529 290.926" stroke="#263238" stroke-miterlimit="10" stroke-linecap="round" stroke-linejoin="round"/>
<path d="M539.008 347.591C542.339 349.824 546.213 351.738 550.614 352.881" stroke="#263238" stroke-miterlimit="10" stroke-linecap="round" stroke-linejoin="round"/>
<path d="M523.879 331.36C523.879 331.36 526.769 336.724 532.43 342.233" stroke="#263238" stroke-miterlimit="10" stroke-linecap="round" stroke-linejoin="round"/>
<path d="M591.477 249.527C591.143 241.431 591.725 232.122 594.958 225.064" stroke="#263238" stroke-miterlimit="10" stroke-linecap="round" stroke-linejoin="round"/>
<path d="M593.654 267.453C593.654 267.453 593.043 264.676 592.458 260.385" stroke="#263238" stroke-miterlimit="10" stroke-linecap="round" stroke-linejoin="round"/>
<path d="M494.534 266.147C494.534 266.147 520.62 288.319 518.662 299.405" stroke="#263238" stroke-miterlimit="10" stroke-linecap="round" stroke-linejoin="round"/>
<path d="M469.1 332.664C469.1 332.664 478.883 332.012 484.752 345.053" stroke="#263238" stroke-miterlimit="10" stroke-linecap="round" stroke-linejoin="round"/>
<path d="M727.016 258.568L707.635 239.188L688.255 219.807L564.128 343.012L455.704 463.459L469.535 477.291L483.364 491.119L603.811 382.695L727.016 258.568Z" fill="#92E3A9" stroke="#263238" stroke-miterlimit="10" stroke-linecap="round" stroke-linejoin="round"/>
<path d="M790.989 196.029C842.82 142.083 884.425 96.9516 884.425 96.9516L867.149 79.6736L849.871 62.3984C849.871 62.3984 804.74 104.003 750.794 155.831C696.849 207.66 676.047 229.169 676.047 229.169L696.849 249.971L717.651 270.773C717.651 270.773 739.16 249.974 790.989 196.029Z" fill="#92E3A9" stroke="#263238" stroke-miterlimit="10" stroke-linecap="round" stroke-linejoin="round"/>
<path d="M733.664 238.853L722.601 250.173" stroke="#263238" stroke-miterlimit="10" stroke-linecap="round" stroke-linejoin="round"/>
<path d="M872.41 96.917L743.016 229.287" stroke="#263238" stroke-miterlimit="10" stroke-linecap="round" stroke-linejoin="round"/>
<path d="M703.658 267.393L645.973 326.801" stroke="#263238" stroke-miterlimit="10" stroke-linecap="round" stroke-linejoin="round"/>
<path d="M681.994 223.129C677.93 227.225 676.047 229.171 676.047 229.171L717.651 270.776C717.651 270.776 719.598 268.893 723.693 264.829L681.994 223.129Z" fill="#263238" stroke="#263238" stroke-miterlimit="10" stroke-linecap="round" stroke-linejoin="round"/>
<path d="M480.305 487.763L457.428 464.886L445.337 476.977L468.214 499.854L480.305 487.763Z" fill="#D4D4D4" stroke="#263238" stroke-miterlimit="10" stroke-linecap="round" stroke-linejoin="round"/>
<path d="M445.338 476.985L429.649 506.396L436.839 513.586L468.214 499.861L445.338 476.985Z" fill="#D4D4D4" stroke="#263238" stroke-miterlimit="10" stroke-linecap="round" stroke-linejoin="round"/>
<path d="M431.117 508.438L427.034 516.605L434.91 512.23L431.117 508.438Z" fill="white" stroke="#263238" stroke-miterlimit="10" stroke-linecap="round" stroke-linejoin="round"/>
<path d="M883.98 77.1673L870.818 64.0048C866.82 60.0075 860.34 60.0075 856.346 64.0048L853.788 66.5629L881.425 94.2002L883.983 91.6421C887.977 87.642 887.977 81.1646 883.98 77.1673Z" fill="white" stroke="#263238" stroke-miterlimit="10" stroke-linecap="round" stroke-linejoin="round"/>
<path d="M847.14 65.5129L839.443 62.0146L692.512 195.651C692.512 195.651 695.661 198.8 697.409 198.448C699.156 198.096 712.801 192.152 719.099 184.455C725.395 176.757 724.348 172.209 729.594 167.664C734.843 163.116 847.14 65.5129 847.14 65.5129Z" fill="white" stroke="#263238" stroke-miterlimit="10" stroke-linecap="round" stroke-linejoin="round"/>
<path d="M695.672 315.227C695.672 315.227 632.547 343.182 588.359 353.103C544.17 363.024 526.134 366.629 519.823 372.039C513.51 377.449 485.556 407.209 472.03 422.538C458.504 437.869 449.486 456.805 472.932 473.939C496.379 491.073 509.905 482.055 544.173 470.331C578.441 458.608 590.164 439.672 590.164 439.672C590.164 439.672 611.809 419.833 651.487 423.441C691.165 427.048 705.593 436.067 765.113 451.395C824.63 466.726 868.819 442.377 887.758 427.948" fill="white"/>
<path d="M695.672 315.227C695.672 315.227 632.547 343.182 588.359 353.103C544.17 363.024 526.134 366.629 519.823 372.039C513.51 377.449 485.556 407.209 472.03 422.538C458.504 437.869 449.486 456.805 472.932 473.939C496.379 491.073 509.905 482.055 544.173 470.331C578.441 458.608 590.164 439.672 590.164 439.672C590.164 439.672 611.809 419.833 651.487 423.441C691.165 427.048 705.593 436.067 765.113 451.395C824.63 466.726 868.819 442.377 887.758 427.948" stroke="#263238" stroke-miterlimit="10" stroke-linecap="round" stroke-linejoin="round"/>
<path d="M497.141 403.094C497.141 403.094 499.748 433.745 505.62 442.221C511.489 450.7 518.009 453.307 518.009 453.307C518.009 453.307 509.533 468.959 497.141 472.872C484.751 476.786 470.403 468.959 466.49 460.482C462.576 452.006 463.882 441.572 465.186 438.31C466.49 435.048 497.141 403.094 497.141 403.094Z" fill="white" stroke="#263238" stroke-miterlimit="10" stroke-linecap="round" stroke-linejoin="round"/>
<path d="M529.989 408.773C524.432 394.364 522.687 380.827 522.687 380.827Z" fill="white"/>
<path d="M529.989 408.773C524.432 394.364 522.687 380.827 522.687 380.827" stroke="#263238" stroke-miterlimit="10" stroke-linecap="round" stroke-linejoin="round"/>
<path d="M540.914 428.799C538.24 425.413 535.93 421.626 533.94 417.71Z" fill="white"/>
<path d="M540.914 428.799C538.24 425.413 535.93 421.626 533.94 417.71" stroke="#263238" stroke-miterlimit="10" stroke-linecap="round" stroke-linejoin="round"/>
<path d="M537.079 399.056C537.079 399.056 542.835 408.651 544.753 418.246Z" fill="white"/>
<path d="M537.079 399.056C537.079 399.056 542.835 408.651 544.753 418.246" stroke="#263238" stroke-miterlimit="10" stroke-linecap="round" stroke-linejoin="round"/>
<path d="M236.941 1354.72L248.935 1290.27L275.621 1134.42C275.621 1134.42 266.306 1078.15 258.802 1056.01C251.3 1033.87 240.955 998.285 248.944 970.821C256.93 943.356 339.969 880.338 364.405 857.364C388.841 834.387 424.96 821.707 445.702 831.114C466.444 840.522 469.622 872.993 475.794 881.538C481.966 890.083 511.607 904.72 513.724 902.986C515.841 901.253 527.752 874.931 532.349 843.983C536.946 813.037 538.088 809.112 544.678 798.557C551.271 788.001 567.055 785.694 567.055 785.694C567.055 785.694 585.712 781.581 589.441 804.088C593.167 826.595 588.276 854.521 578.3 892.855C568.327 931.189 549.644 981.809 545.777 989.051C541.912 996.289 517.45 1065.77 502.756 1087.03C488.062 1108.3 444.748 1133.12 441.489 1138.77C438.23 1144.43 418.391 1206.6 413.736 1229.16C409.081 1251.73 409.269 1339.39 409.269 1339.39" fill="white"/>
<path d="M236.941 1354.72L248.935 1290.27L275.621 1134.42C275.621 1134.42 266.306 1078.15 258.802 1056.01C251.3 1033.87 240.955 998.285 248.944 970.821C256.93 943.356 339.969 880.338 364.405 857.364C388.841 834.387 424.96 821.707 445.702 831.114C466.444 840.522 469.622 872.993 475.794 881.538C481.966 890.083 511.607 904.72 513.724 902.986C515.841 901.253 527.752 874.931 532.349 843.983C536.946 813.037 538.088 809.112 544.678 798.557C551.271 788.001 567.055 785.694 567.055 785.694C567.055 785.694 585.712 781.581 589.441 804.088C593.167 826.595 588.276 854.521 578.3 892.855C568.327 931.189 549.644 981.809 545.777 989.051C541.912 996.289 517.45 1065.77 502.756 1087.03C488.062 1108.3 444.748 1133.12 441.489 1138.77C438.23 1144.43 418.391 1206.6 413.736 1229.16C409.081 1251.73 409.269 1339.39 409.269 1339.39" stroke="#263238" stroke-miterlimit="10" stroke-linecap="round" stroke-linejoin="round"/>
<path d="M324.655 1034.27C324.655 1034.27 343.196 1036.8 349.097 1035.96C354.997 1035.12 358.369 1032.59 368.483 1039.33C378.597 1046.08 391.241 1057.87 403.039 1055.35C414.837 1052.82 427.481 1050.29 439.282 1035.96C439.282 1035.96 440.124 1047.76 451.081 1048.61C462.037 1049.45 493.222 998.879 484.795 979.493C476.368 960.107 476.368 960.107 476.368 960.107C476.368 960.107 494.067 977.806 505.023 977.806C515.979 977.806 503.336 923.021 502.494 915.436C501.652 907.852 467.095 886.781 456.139 877.509C445.183 868.237 412.311 866.553 399.67 874.98C387.027 883.407 341.515 981.177 334.772 995.505C328.026 1009.83 312.856 1026.69 324.655 1034.27Z" fill="#263238" stroke="#263238" stroke-miterlimit="10" stroke-linecap="round" stroke-linejoin="round"/>
<path d="M425.229 1151.8C429.315 1146.83 434.085 1141.03 434.085 1141.03" stroke="#263238" stroke-miterlimit="10" stroke-linecap="round" stroke-linejoin="round"/>
<path d="M330.486 1180.89C330.486 1180.89 356.959 1194.32 373.885 1188.08C385.043 1183.98 402.024 1171.68 413.473 1162.35" stroke="#263238" stroke-miterlimit="10" stroke-linecap="round" stroke-linejoin="round"/>
<path d="M427.487 1114.95C428.061 1118.28 428.257 1121.61 427.931 1124.85" stroke="#263238" stroke-miterlimit="10" stroke-linecap="round" stroke-linejoin="round"/>
<path d="M406.217 1074.37C406.217 1074.37 419.596 1089.62 425.425 1106.96" stroke="#263238" stroke-miterlimit="10" stroke-linecap="round" stroke-linejoin="round"/>
<path d="M592.977 966.916C584.829 967.712 576.555 963.96 571.938 956.539L354.112 595.961C349.486 588.521 353.76 580.22 361.198 575.597C368.636 570.971 376.426 571.77 381.054 579.211L609.658 933.089C616.132 943.506 612.94 957.197 602.523 963.674C599.529 965.534 596.264 966.593 592.977 966.916Z" fill="#92E3A9" stroke="#263238" stroke-miterlimit="10" stroke-linecap="round" stroke-linejoin="round"/>
<path d="M626.342 1001.75L611.636 936.755L611.434 936.893C611.23 936.446 611.013 936.005 610.757 935.578C605.946 927.59 593.614 926.194 583.212 932.458C572.809 938.722 568.272 950.275 573.083 958.264C574.3 960.288 576.004 961.883 578.035 963.042L626.342 1001.75Z" fill="white" stroke="#263238" stroke-miterlimit="10" stroke-linecap="round" stroke-linejoin="round"/>
<path d="M626.342 1001.75L617.26 962.774C613.205 961.047 609.101 961.26 604.222 964.202C599.252 967.196 596.293 971.934 596.014 976.398L626.342 1001.75Z" fill="#92E3A9" stroke="#263238" stroke-miterlimit="10" stroke-linecap="round" stroke-linejoin="round"/>
<path d="M373.83 822.13C373.83 822.13 393.983 796.846 395.754 793.931C397.525 791.015 430.083 745.318 437.154 740.513C444.226 735.708 460.18 737.574 460.18 737.574C460.18 737.574 523.585 775.94 527.38 779.684C531.175 783.427 544.528 793.775 549.535 802.885C554.542 811.996 584.068 847.504 581.87 860.061C579.67 872.618 560.705 882.017 547.47 879.883C534.232 877.748 516.752 860.26 511.134 851.896C505.516 843.533 498.407 833.943 498.407 833.943L479.82 826.162L469.913 823.019C469.913 823.019 446.467 800.627 420.577 809.331C394.684 818.035 373.83 822.13 373.83 822.13Z" fill="white" stroke="#263238" stroke-miterlimit="10" stroke-linecap="round" stroke-linejoin="round"/>
<path d="M560.157 820.36C560.157 820.36 554.392 817.496 546.838 824.406C539.285 831.316 535.744 837.148 535.744 837.148C535.744 837.148 535.781 851.542 550.974 859.657C566.167 867.77 573.504 865.682 576.022 863.378" stroke="#263238" stroke-miterlimit="10" stroke-linecap="round" stroke-linejoin="round"/>
<path d="M530.679 792.388C530.679 792.388 518.786 796.979 516.735 804.036" stroke="#263238" stroke-miterlimit="10" stroke-linecap="round" stroke-linejoin="round"/>
<path d="M538.068 797.835L529.505 801.417" stroke="#263238" stroke-miterlimit="10" stroke-linecap="round" stroke-linejoin="round"/>
<path d="M457.994 743.273C457.994 743.273 446.1 747.864 441.532 757.226" stroke="#263238" stroke-miterlimit="10" stroke-linecap="round" stroke-linejoin="round"/>
<path d="M454.236 753.927C454.236 753.927 461.506 751.158 465.25 747.363" stroke="#263238" stroke-miterlimit="10" stroke-linecap="round" stroke-linejoin="round"/>
<path d="M305.113 883.707C305.113 883.707 300.668 866.313 305.586 853.491C310.503 840.669 364.385 823.74 364.385 823.74C364.385 823.74 415.7 801.579 435.873 797.547C456.05 793.515 479.814 826.162 479.814 826.162C479.814 826.162 525.266 877.255 532.427 894.383C539.588 911.511 536.842 925.493 536.695 930.993C536.548 936.492 541.67 953.819 541.788 962.036C541.906 970.253 531.504 976.07 519.959 977.2C508.415 978.331 499.881 968.193 494.329 960.507C488.777 952.822 478.251 922.312 478.251 922.312L454.339 895.168L439.625 884.95L427.812 883.363L305.113 883.707Z" fill="white" stroke="#263238" stroke-miterlimit="10" stroke-linecap="round" stroke-linejoin="round"/>
<path d="M444.078 804.287C444.078 804.287 432.732 807.454 427.867 827.815" stroke="#263238" stroke-miterlimit="10" stroke-linecap="round" stroke-linejoin="round"/>
<path d="M453.44 808.858C453.44 808.858 448.67 816.18 445.541 819.229" stroke="#263238" stroke-miterlimit="10" stroke-linecap="round" stroke-linejoin="round"/>
<path d="M439.625 884.947C439.625 884.947 428.707 878.472 427.446 865.569" stroke="#263238" stroke-miterlimit="10" stroke-linecap="round" stroke-linejoin="round"/>
<path d="M534.509 936.688C534.509 936.688 528.447 944.824 523.282 948.072C518.113 951.319 512.201 953.955 512.201 953.955C512.201 953.955 506.139 962.091 513.049 969.641" stroke="#263238" stroke-miterlimit="10" stroke-linecap="round" stroke-linejoin="round"/>
<path d="M337.63 949.946L392.726 959.804L403.299 958.768L410.168 958.858C410.168 958.858 420.101 974.659 424.467 980.332C428.834 986.005 443.519 1003.63 441.163 1010.72C438.806 1017.81 447.911 1032.93 455.741 1042.84C463.571 1052.75 476.425 1043.87 478.562 1034.51C480.697 1025.15 484.325 1023.27 489.628 1015.13C494.932 1006.98 497.066 997.627 493.101 980.479C489.135 963.331 453.699 905.042 444.967 893.7C436.234 882.354 432.695 877.365 386.335 878.85C339.972 880.335 300.868 878.062 300.868 878.062C300.868 878.062 278.966 880.205 272.212 896.875C265.458 913.547 260.843 952.118 260.843 952.118C260.843 952.118 248.852 965.335 247.182 979.894C245.959 990.559 246.712 981.791 245.567 998.594" fill="white"/>
<path d="M337.63 949.946L392.726 959.804L403.299 958.768L410.168 958.858C410.168 958.858 420.101 974.659 424.467 980.332C428.834 986.005 443.519 1003.63 441.163 1010.72C438.806 1017.81 447.911 1032.93 455.741 1042.84C463.571 1052.75 476.425 1043.87 478.562 1034.51C480.697 1025.15 484.325 1023.27 489.628 1015.13C494.932 1006.98 497.066 997.627 493.101 980.479C489.135 963.331 453.699 905.042 444.967 893.7C436.234 882.354 432.695 877.365 386.335 878.85C339.972 880.335 300.868 878.062 300.868 878.062C300.868 878.062 278.966 880.205 272.212 896.875C265.458 913.547 260.843 952.118 260.843 952.118C260.843 952.118 248.852 965.335 247.182 979.894C245.959 990.559 246.712 981.791 245.567 998.594" stroke="#263238" stroke-miterlimit="10" stroke-linecap="round" stroke-linejoin="round"/>
<path d="M477.614 1027.96C477.614 1027.96 474.069 1033.8 467.825 1033.04C461.581 1032.28 457.304 1030.64 457.304 1030.64C457.304 1030.64 455.45 1039.73 459.992 1044.09" stroke="#263238" stroke-miterlimit="10" stroke-linecap="round" stroke-linejoin="round"/>
<path d="M411.521 913.066C411.521 913.066 421.338 894.279 429.09 889.405" stroke="#263238" stroke-miterlimit="10" stroke-linecap="round" stroke-linejoin="round"/>
<path d="M434.711 897.769C434.711 897.769 429.462 907.197 424.36 911.122" stroke="#263238" stroke-miterlimit="10" stroke-linecap="round" stroke-linejoin="round"/>
<path d="M469.576 1008.87C469.576 1008.87 478.404 1008 485.144 999.802" stroke="#263238" stroke-miterlimit="10" stroke-linecap="round" stroke-linejoin="round"/>
<path d="M281.032 1041.63C281.032 1041.63 304.649 1049.24 318.864 1038.7C333.082 1028.16 338.53 1021.52 338.53 1021.52C338.53 1021.52 357.244 1025.79 362.459 1024.52C367.67 1023.25 367.67 1023.25 367.67 1023.25L388.562 1034.16C388.562 1034.16 384.458 1046.77 391.847 1052.14C399.235 1057.52 418.114 1055.67 429.31 1045.43C440.505 1035.18 444.021 1016.54 441.163 1010.72C438.308 1004.9 419.919 988.402 409.528 975.695C399.137 962.988 392.651 959.048 384.123 957.595C375.595 956.141 327.591 948.64 325.252 948.106C322.913 947.573 318.988 946.431 318.988 946.431" fill="white"/>
<path d="M281.032 1041.63C281.032 1041.63 304.649 1049.24 318.864 1038.7C333.082 1028.16 338.53 1021.52 338.53 1021.52C338.53 1021.52 357.244 1025.79 362.459 1024.52C367.67 1023.25 367.67 1023.25 367.67 1023.25L388.562 1034.16C388.562 1034.16 384.458 1046.77 391.847 1052.14C399.235 1057.52 418.114 1055.67 429.31 1045.43C440.505 1035.18 444.021 1016.54 441.163 1010.72C438.308 1004.9 419.919 988.402 409.528 975.695C399.137 962.988 392.651 959.048 384.123 957.595C375.595 956.141 327.591 948.64 325.252 948.106C322.913 947.573 318.988 946.431 318.988 946.431" stroke="#263238" stroke-miterlimit="10" stroke-linecap="round" stroke-linejoin="round"/>
<path d="M338.53 1021.52C338.53 1021.52 311.418 1024.94 302.313 1009.82" stroke="#263238" stroke-miterlimit="10" stroke-linecap="round" stroke-linejoin="round"/>
<path d="M297.753 1025.51C297.753 1025.51 317.133 1036.58 332.179 1026.72" stroke="#263238" stroke-miterlimit="10" stroke-linecap="round" stroke-linejoin="round"/>
<path d="M388.562 1034.17C388.562 1034.17 393.15 1042.1 405.084 1039.41" stroke="#263238" stroke-miterlimit="10" stroke-linecap="round" stroke-linejoin="round"/>
<path d="M391.973 972.574C391.973 972.574 388.031 974.331 386.857 983.36C385.683 992.387 385.669 999.245 385.669 999.245" stroke="#263238" stroke-miterlimit="10" stroke-linecap="round" stroke-linejoin="round"/>
<path d="M394.128 980.592L391.596 989.751" stroke="#263238" stroke-miterlimit="10" stroke-linecap="round" stroke-linejoin="round"/>
</svg>
