<svg width="538" height="114" viewBox="0 0 538 114" fill="none" xmlns="http://www.w3.org/2000/svg">
<path d="M-64 1.44043H32C36.4183 1.44043 40 5.02215 40 9.44043V41.9404C40 46.3587 43.5817 49.9404 48 49.9404H375.5C379.918 49.9404 383.5 53.5222 383.5 57.9404V104.94C383.5 109.359 387.082 112.94 391.5 112.94H550.5" stroke="url(#paint0_radial_1006_459)"/>
<g filter="url(#filter0_ii_1006_459)">
<rect x="142" y="25.4404" width="211.499" height="55.5037" rx="27.7519" fill="#0D0E14"/>
<rect x="142.385" y="25.8259" width="210.728" height="54.7329" rx="27.3664" stroke="#4D4F5C" strokeWidth="0.770885"/>
<path d="M182.947 47.4107H169.071C168.918 47.4107 168.771 47.4716 168.663 47.58C168.554 47.6884 168.493 47.8355 168.493 47.9888V57.8176C168.493 58.1243 168.615 58.4184 168.832 58.6353C169.049 58.8521 169.343 58.9739 169.65 58.9739H182.369C182.676 58.9739 182.97 58.8521 183.187 58.6353C183.404 58.4184 183.526 58.1243 183.526 57.8176V47.9888C183.526 47.8355 183.465 47.6884 183.356 47.58C183.248 47.4716 183.101 47.4107 182.947 47.4107ZM181.461 48.567L176.009 53.5645L170.558 48.567H181.461ZM182.369 57.8176H169.65V49.3034L175.618 54.775C175.725 54.8729 175.865 54.9273 176.009 54.9273C176.154 54.9273 176.294 54.8729 176.4 54.775L182.369 49.3034V57.8176Z" fill="#96EA63"/>
<path d="M196.079 48.722V57.6923H194.725V48.722H196.079ZM199.254 53.6977V57.6923H197.945V50.9646H199.202V52.0596H199.285C199.44 51.7033 199.682 51.4172 200.012 51.2011C200.345 50.985 200.764 50.877 201.269 50.877C201.728 50.877 202.129 50.9733 202.474 51.1661C202.818 51.3559 203.085 51.6391 203.275 52.0158C203.465 52.3925 203.56 52.8582 203.56 53.413V57.6923H202.25V53.5707C202.25 53.0831 202.123 52.702 201.869 52.4275C201.615 52.1501 201.266 52.0114 200.822 52.0114C200.519 52.0114 200.249 52.0771 200.012 52.2085C199.778 52.3399 199.593 52.5326 199.456 52.7867C199.321 53.0378 199.254 53.3415 199.254 53.6977ZM210.831 50.9646L208.391 57.6923H206.989L204.545 50.9646H205.951L207.655 56.1418H207.725L209.425 50.9646H210.831ZM212.062 57.6923V50.9646H213.371V57.6923H212.062ZM212.723 49.9265C212.495 49.9265 212.3 49.8506 212.136 49.6987C211.975 49.544 211.895 49.36 211.895 49.1469C211.895 48.9308 211.975 48.7468 212.136 48.595C212.3 48.4402 212.495 48.3628 212.723 48.3628C212.951 48.3628 213.145 48.4402 213.305 48.595C213.469 48.7468 213.551 48.9308 213.551 49.1469C213.551 49.36 213.469 49.544 213.305 49.6987C213.145 49.8506 212.951 49.9265 212.723 49.9265ZM218.274 50.9646V52.0158H214.599V50.9646H218.274ZM215.584 49.3527H216.894V55.7169C216.894 55.971 216.932 56.1622 217.008 56.2907C217.084 56.4163 217.181 56.5024 217.301 56.5491C217.424 56.5929 217.557 56.6148 217.7 56.6148C217.805 56.6148 217.897 56.6075 217.976 56.5929C218.055 56.5783 218.116 56.5666 218.16 56.5579L218.396 57.6397C218.32 57.6689 218.212 57.6981 218.072 57.7273C217.932 57.7595 217.757 57.777 217.546 57.7799C217.202 57.7857 216.881 57.7244 216.583 57.5959C216.285 57.4675 216.044 57.2689 215.86 57.0003C215.676 56.7316 215.584 56.3944 215.584 55.9885V49.3527ZM222.55 57.8281C221.887 57.8281 221.316 57.6865 220.837 57.4032C220.361 57.1171 219.993 56.7156 219.733 56.1987C219.476 55.679 219.348 55.0701 219.348 54.3722C219.348 53.6831 219.476 53.0758 219.733 52.5502C219.993 52.0245 220.355 51.6143 220.819 51.3194C221.287 51.0244 221.833 50.877 222.458 50.877C222.837 50.877 223.205 50.9398 223.561 51.0653C223.918 51.1909 224.237 51.388 224.521 51.6566C224.804 51.9253 225.027 52.2742 225.191 52.7035C225.354 53.1298 225.436 53.6481 225.436 54.2584V54.7226H220.088V53.7415H224.153C224.153 53.397 224.083 53.0918 223.942 52.8261C223.802 52.5575 223.605 52.3457 223.351 52.191C223.1 52.0362 222.805 51.9588 222.466 51.9588C222.098 51.9588 221.777 52.0494 221.503 52.2304C221.231 52.4085 221.021 52.6421 220.872 52.9312C220.726 53.2174 220.653 53.5284 220.653 53.8642V54.6307C220.653 55.0803 220.732 55.4629 220.889 55.7782C221.05 56.0936 221.273 56.3345 221.56 56.5009C221.846 56.6645 222.18 56.7462 222.563 56.7462C222.811 56.7462 223.037 56.7112 223.242 56.6411C223.446 56.5681 223.623 56.4601 223.772 56.317C223.92 56.1739 224.034 55.9972 224.113 55.787L225.353 56.0104C225.253 56.3754 225.075 56.6951 224.818 56.9696C224.564 57.2412 224.245 57.4529 223.859 57.6047C223.477 57.7536 223.04 57.8281 222.55 57.8281ZM234.415 54.9022V50.9646H235.729V57.6923H234.441V56.5272H234.371C234.216 56.8864 233.968 57.1857 233.627 57.4251C233.288 57.6616 232.866 57.7799 232.361 57.7799C231.929 57.7799 231.546 57.685 231.213 57.4952C230.883 57.3025 230.623 57.0178 230.434 56.6411C230.247 56.2644 230.153 55.7987 230.153 55.2439V50.9646H231.463V55.0862C231.463 55.5446 231.59 55.9096 231.844 56.1812C232.098 56.4528 232.428 56.5885 232.834 56.5885C233.079 56.5885 233.323 56.5272 233.565 56.4046C233.811 56.2819 234.014 56.0965 234.174 55.8483C234.338 55.6001 234.418 55.2847 234.415 54.9022ZM242.53 52.6071L241.343 52.8173C241.293 52.6655 241.215 52.5209 241.107 52.3837C241.001 52.2465 240.858 52.134 240.677 52.0464C240.496 51.9588 240.27 51.915 239.998 51.915C239.628 51.915 239.318 51.9983 239.07 52.1647C238.822 52.3282 238.698 52.5399 238.698 52.7998C238.698 53.0247 238.781 53.2057 238.947 53.3429C239.114 53.4802 239.382 53.5926 239.753 53.6802L240.822 53.9255C241.441 54.0686 241.902 54.289 242.206 54.5869C242.51 54.8847 242.662 55.2716 242.662 55.7476C242.662 56.1505 242.545 56.5097 242.311 56.8251C242.08 57.1375 241.758 57.3828 241.343 57.5609C240.931 57.739 240.454 57.8281 239.911 57.8281C239.158 57.8281 238.543 57.6675 238.067 57.3463C237.591 57.0222 237.299 56.5623 237.191 55.9666L238.457 55.7739C238.536 56.1038 238.698 56.3535 238.943 56.5228C239.188 56.6893 239.508 56.7725 239.902 56.7725C240.331 56.7725 240.674 56.6834 240.931 56.5053C241.188 56.3243 241.317 56.1038 241.317 55.8439C241.317 55.6337 241.238 55.457 241.08 55.3139C240.926 55.1709 240.688 55.0628 240.366 54.9898L239.228 54.7402C238.6 54.5971 238.135 54.3693 237.835 54.0569C237.537 53.7444 237.388 53.3488 237.388 52.8699C237.388 52.4728 237.499 52.1253 237.721 51.8274C237.943 51.5296 238.249 51.2975 238.641 51.131C239.032 50.9617 239.48 50.877 239.985 50.877C240.712 50.877 241.285 51.0347 241.702 51.35C242.12 51.6625 242.396 52.0815 242.53 52.6071ZM247.001 57.8281C246.338 57.8281 245.767 57.6865 245.288 57.4032C244.812 57.1171 244.445 56.7156 244.185 56.1987C243.928 55.679 243.799 55.0701 243.799 54.3722C243.799 53.6831 243.928 53.0758 244.185 52.5502C244.445 52.0245 244.807 51.6143 245.271 51.3194C245.738 51.0244 246.284 50.877 246.909 50.877C247.289 50.877 247.657 50.9398 248.013 51.0653C248.369 51.1909 248.689 51.388 248.972 51.6566C249.255 51.9253 249.479 52.2742 249.642 52.7035C249.806 53.1298 249.887 53.6481 249.887 54.2584V54.7226H244.539V53.7415H248.604C248.604 53.397 248.534 53.0918 248.394 52.8261C248.254 52.5575 248.057 52.3457 247.803 52.191C247.551 52.0362 247.257 51.9588 246.918 51.9588C246.55 51.9588 246.229 52.0494 245.954 52.2304C245.683 52.4085 245.472 52.6421 245.323 52.9312C245.177 53.2174 245.104 53.5284 245.104 53.8642V54.6307C245.104 55.0803 245.183 55.4629 245.341 55.7782C245.502 56.0936 245.725 56.3345 246.011 56.5009C246.297 56.6645 246.632 56.7462 247.014 56.7462C247.262 56.7462 247.489 56.7112 247.693 56.6411C247.897 56.5681 248.074 56.4601 248.223 56.317C248.372 56.1739 248.486 55.9972 248.565 55.787L249.804 56.0104C249.705 56.3754 249.527 56.6951 249.27 56.9696C249.016 57.2412 248.696 57.4529 248.311 57.6047C247.928 57.7536 247.492 57.8281 247.001 57.8281ZM251.341 57.6923V50.9646H252.606V52.0333H252.676C252.799 51.6712 253.015 51.3865 253.325 51.1792C253.637 50.969 253.99 50.8638 254.385 50.8638C254.466 50.8638 254.563 50.8668 254.674 50.8726C254.788 50.8784 254.877 50.8857 254.941 50.8945V52.1472C254.888 52.1326 254.795 52.1165 254.661 52.099C254.526 52.0786 254.392 52.0683 254.258 52.0683C253.948 52.0683 253.672 52.134 253.43 52.2654C253.19 52.3939 253.001 52.5735 252.86 52.8042C252.72 53.032 252.65 53.2918 252.65 53.5838V57.6923H251.341ZM262.479 50.9646V52.0158H258.804V50.9646H262.479ZM259.79 49.3527H261.099V55.7169C261.099 55.971 261.137 56.1622 261.213 56.2907C261.289 56.4163 261.387 56.5024 261.507 56.5491C261.629 56.5929 261.762 56.6148 261.905 56.6148C262.01 56.6148 262.102 56.6075 262.181 56.5929C262.26 56.5783 262.321 56.5666 262.365 56.5579L262.602 57.6397C262.526 57.6689 262.418 57.6981 262.277 57.7273C262.137 57.7595 261.962 57.777 261.752 57.7799C261.407 57.7857 261.086 57.7244 260.788 57.5959C260.49 57.4675 260.25 57.2689 260.066 57.0003C259.882 56.7316 259.79 56.3944 259.79 55.9885V49.3527ZM266.689 57.8281C266.059 57.8281 265.508 57.6835 265.038 57.3945C264.568 57.1054 264.203 56.701 263.943 56.1812C263.683 55.6614 263.553 55.0541 263.553 54.3591C263.553 53.6612 263.683 53.0509 263.943 52.5283C264.203 52.0056 264.568 51.5997 265.038 51.3106C265.508 51.0215 266.059 50.877 266.689 50.877C267.32 50.877 267.87 51.0215 268.341 51.3106C268.811 51.5997 269.176 52.0056 269.436 52.5283C269.695 53.0509 269.825 53.6612 269.825 54.3591C269.825 55.0541 269.695 55.6614 269.436 56.1812C269.176 56.701 268.811 57.1054 268.341 57.3945C267.87 57.6835 267.32 57.8281 266.689 57.8281ZM266.694 56.7287C267.102 56.7287 267.441 56.6207 267.71 56.4046C267.978 56.1885 268.177 55.9009 268.306 55.5417C268.437 55.1825 268.503 54.7869 268.503 54.3547C268.503 53.9255 268.437 53.5313 268.306 53.1721C268.177 52.81 267.978 52.5195 267.71 52.3005C267.441 52.0815 267.102 51.972 266.694 51.972C266.282 51.972 265.94 52.0815 265.669 52.3005C265.4 52.5195 265.2 52.81 265.069 53.1721C264.94 53.5313 264.876 53.9255 264.876 54.3547C264.876 54.7869 264.94 55.1825 265.069 55.5417C265.2 55.9009 265.4 56.1885 265.669 56.4046C265.94 56.6207 266.282 56.7287 266.694 56.7287ZM277.692 50.9646V52.0158H274.017V50.9646H277.692ZM275.003 49.3527H276.312V55.7169C276.312 55.971 276.35 56.1622 276.426 56.2907C276.502 56.4163 276.6 56.5024 276.72 56.5491C276.842 56.5929 276.975 56.6148 277.118 56.6148C277.223 56.6148 277.315 56.6075 277.394 56.5929C277.473 56.5783 277.534 56.5666 277.578 56.5579L277.815 57.6397C277.739 57.6689 277.631 57.6981 277.49 57.7273C277.35 57.7595 277.175 57.777 276.965 57.7799C276.62 57.7857 276.299 57.7244 276.001 57.5959C275.703 57.4675 275.462 57.2689 275.279 57.0003C275.095 56.7316 275.003 56.3944 275.003 55.9885V49.3527ZM280.595 53.6977V57.6923H279.285V48.722H280.577V52.0596H280.66C280.818 51.6975 281.059 51.4099 281.383 51.1967C281.707 50.9836 282.131 50.877 282.653 50.877C283.115 50.877 283.518 50.9719 283.862 51.1617C284.21 51.3515 284.478 51.6347 284.668 52.0114C284.861 52.3852 284.957 52.8524 284.957 53.413V57.6923H283.648V53.5707C283.648 53.0772 283.521 52.6947 283.267 52.4231C283.013 52.1486 282.659 52.0114 282.207 52.0114C281.897 52.0114 281.62 52.0771 281.374 52.2085C281.132 52.3399 280.941 52.5326 280.801 52.7867C280.663 53.0378 280.595 53.3415 280.595 53.6977ZM286.705 57.6923V50.9646H288.015V57.6923H286.705ZM287.366 49.9265C287.139 49.9265 286.943 49.8506 286.779 49.6987C286.619 49.544 286.538 49.36 286.538 49.1469C286.538 48.9308 286.619 48.7468 286.779 48.595C286.943 48.4402 287.139 48.3628 287.366 48.3628C287.594 48.3628 287.788 48.4402 287.949 48.595C288.112 48.7468 288.194 48.9308 288.194 49.1469C288.194 49.36 288.112 49.544 287.949 49.6987C287.788 49.8506 287.594 49.9265 287.366 49.9265ZM294.818 52.6071L293.631 52.8173C293.581 52.6655 293.502 52.5209 293.394 52.3837C293.289 52.2465 293.146 52.134 292.965 52.0464C292.784 51.9588 292.558 51.915 292.286 51.915C291.915 51.915 291.606 51.9983 291.358 52.1647C291.109 52.3282 290.985 52.5399 290.985 52.7998C290.985 53.0247 291.069 53.2057 291.235 53.3429C291.401 53.4802 291.67 53.5926 292.041 53.6802L293.11 53.9255C293.729 54.0686 294.19 54.289 294.494 54.5869C294.797 54.8847 294.949 55.2716 294.949 55.7476C294.949 56.1505 294.832 56.5097 294.599 56.8251C294.368 57.1375 294.045 57.3828 293.631 57.5609C293.219 57.739 292.742 57.8281 292.199 57.8281C291.445 57.8281 290.831 57.6675 290.355 57.3463C289.879 57.0222 289.587 56.5623 289.479 55.9666L290.744 55.7739C290.823 56.1038 290.985 56.3535 291.231 56.5228C291.476 56.6893 291.796 56.7725 292.19 56.7725C292.619 56.7725 292.962 56.6834 293.219 56.5053C293.476 56.3243 293.605 56.1038 293.605 55.8439C293.605 55.6337 293.526 55.457 293.368 55.3139C293.213 55.1709 292.975 55.0628 292.654 54.9898L291.515 54.7402C290.887 54.5971 290.423 54.3693 290.122 54.0569C289.825 53.7444 289.676 53.3488 289.676 52.8699C289.676 52.4728 289.787 52.1253 290.009 51.8274C290.23 51.5296 290.537 51.2975 290.928 51.131C291.32 50.9617 291.768 50.877 292.273 50.877C293 50.877 293.572 51.0347 293.99 51.35C294.408 51.6625 294.684 52.0815 294.818 52.6071ZM302.794 50.9646V52.0158H299.119V50.9646H302.794ZM300.105 49.3527H301.414V55.7169C301.414 55.971 301.452 56.1622 301.528 56.2907C301.604 56.4163 301.702 56.5024 301.822 56.5491C301.944 56.5929 302.077 56.6148 302.22 56.6148C302.325 56.6148 302.417 56.6075 302.496 56.5929C302.575 56.5783 302.636 56.5666 302.68 56.5579L302.917 57.6397C302.841 57.6689 302.733 57.6981 302.592 57.7273C302.452 57.7595 302.277 57.777 302.067 57.7799C301.722 57.7857 301.401 57.7244 301.103 57.5959C300.805 57.4675 300.564 57.2689 300.38 57.0003C300.197 56.7316 300.105 56.3944 300.105 55.9885V49.3527ZM307.07 57.8281C306.407 57.8281 305.836 57.6865 305.357 57.4032C304.881 57.1171 304.513 56.7156 304.254 56.1987C303.997 55.679 303.868 55.0701 303.868 54.3722C303.868 53.6831 303.997 53.0758 304.254 52.5502C304.513 52.0245 304.875 51.6143 305.34 51.3194C305.807 51.0244 306.353 50.877 306.978 50.877C307.357 50.877 307.725 50.9398 308.082 51.0653C308.438 51.1909 308.758 51.388 309.041 51.6566C309.324 51.9253 309.548 52.2742 309.711 52.7035C309.875 53.1298 309.956 53.6481 309.956 54.2584V54.7226H304.608V53.7415H308.673C308.673 53.397 308.603 53.0918 308.463 52.8261C308.323 52.5575 308.125 52.3457 307.871 52.191C307.62 52.0362 307.325 51.9588 306.987 51.9588C306.619 51.9588 306.298 52.0494 306.023 52.2304C305.751 52.4085 305.541 52.6421 305.392 52.9312C305.246 53.2174 305.173 53.5284 305.173 53.8642V54.6307C305.173 55.0803 305.252 55.4629 305.41 55.7782C305.57 56.0936 305.794 56.3345 306.08 56.5009C306.366 56.6645 306.7 56.7462 307.083 56.7462C307.331 56.7462 307.558 56.7112 307.762 56.6411C307.966 56.5681 308.143 56.4601 308.292 56.317C308.441 56.1739 308.555 55.9972 308.634 55.787L309.873 56.0104C309.774 56.3754 309.596 56.6951 309.339 56.9696C309.085 57.2412 308.765 57.4529 308.38 57.6047C307.997 57.7536 307.56 57.8281 307.07 57.8281ZM313.367 57.8412C312.941 57.8412 312.556 57.7624 312.211 57.6047C311.866 57.4441 311.593 57.212 311.392 56.9083C311.193 56.6046 311.094 56.2323 311.094 55.7914C311.094 55.4118 311.167 55.0993 311.313 54.854C311.459 54.6088 311.656 54.4146 311.904 54.2715C312.153 54.1284 312.43 54.0204 312.737 53.9474C313.043 53.8744 313.356 53.8189 313.674 53.7809C314.077 53.7342 314.404 53.6963 314.655 53.6671C314.906 53.6349 315.089 53.5838 315.202 53.5138C315.316 53.4437 315.373 53.3298 315.373 53.1721V53.1415C315.373 52.7589 315.265 52.4625 315.049 52.2523C314.836 52.0421 314.518 51.9369 314.094 51.9369C313.653 51.9369 313.306 52.0348 313.052 52.2304C312.801 52.4231 312.627 52.6378 312.531 52.8743L311.3 52.594C311.446 52.1851 311.659 51.8552 311.939 51.6041C312.223 51.35 312.548 51.1661 312.916 51.0522C313.284 50.9354 313.671 50.877 314.077 50.877C314.345 50.877 314.63 50.9091 314.931 50.9733C315.235 51.0347 315.518 51.1485 315.781 51.315C316.046 51.4814 316.264 51.7194 316.433 52.0289C316.603 52.3355 316.687 52.7341 316.687 53.2247V57.6923H315.408V56.7725H315.356C315.271 56.9419 315.144 57.1083 314.975 57.2718C314.805 57.4353 314.588 57.5711 314.322 57.6792C314.056 57.7872 313.738 57.8412 313.367 57.8412ZM313.652 56.79C314.014 56.79 314.324 56.7185 314.581 56.5754C314.84 56.4323 315.038 56.2454 315.172 56.0148C315.309 55.7812 315.378 55.5315 315.378 55.2658V54.3985C315.331 54.4452 315.24 54.489 315.106 54.5299C314.975 54.5679 314.824 54.6015 314.655 54.6307C314.486 54.6569 314.321 54.6818 314.16 54.7051C313.999 54.7256 313.865 54.7431 313.757 54.7577C313.503 54.7898 313.271 54.8438 313.061 54.9197C312.853 54.9957 312.687 55.1052 312.561 55.2482C312.439 55.3884 312.377 55.5753 312.377 55.8089C312.377 56.133 312.497 56.3783 312.737 56.5447C312.976 56.7083 313.281 56.79 313.652 56.79ZM318.432 57.6923V50.9646H319.689V52.0596H319.772C319.912 51.6887 320.141 51.3997 320.46 51.1923C320.778 50.9821 321.159 50.877 321.603 50.877C322.053 50.877 322.429 50.9821 322.733 51.1923C323.039 51.4026 323.266 51.6917 323.412 52.0596H323.482C323.642 51.7004 323.898 51.4143 324.248 51.2011C324.599 50.985 325.016 50.877 325.501 50.877C326.111 50.877 326.609 51.0682 326.995 51.4508C327.383 51.8333 327.577 52.41 327.577 53.1809V57.6923H326.268V53.3035C326.268 52.848 326.143 52.518 325.895 52.3136C325.647 52.1092 325.351 52.007 325.006 52.007C324.58 52.007 324.248 52.1384 324.012 52.4012C323.775 52.6611 323.657 52.9955 323.657 53.4043V57.6923H322.352V53.2203C322.352 52.8553 322.238 52.5618 322.01 52.3399C321.782 52.118 321.486 52.007 321.121 52.007C320.873 52.007 320.644 52.0727 320.433 52.2041C320.226 52.3326 320.058 52.5122 319.93 52.7429C319.804 52.9736 319.741 53.2407 319.741 53.5444V57.6923H318.432Z" fill="#CFD3DA"/>
</g>
<defs>
<filter id="filter0_ii_1006_459" x="142" y="19.4404" width="211.499" height="67.5037" filterUnits="userSpaceOnUse" color-interpolation-filters="sRGB">
<feFlood flood-opacity="0" result="BackgroundImageFix"/>
<feBlend mode="normal" in="SourceGraphic" in2="BackgroundImageFix" result="shape"/>
<feColorMatrix in="SourceAlpha" type="matrix" values="0 0 0 0 0 0 0 0 0 0 0 0 0 0 0 0 0 0 127 0" result="hardAlpha"/>
<feOffset dy="-6"/>
<feGaussianBlur stdDeviation="3.3"/>
<feComposite in2="hardAlpha" operator="arithmetic" k2="-1" k3="1"/>
<feColorMatrix type="matrix" values="0 0 0 0 0.670588 0 0 0 0 0.933333 0 0 0 0 0.509804 0 0 0 0.1 0"/>
<feBlend mode="lighten" in2="shape" result="effect1_innerShadow_1006_459"/>
<feColorMatrix in="SourceAlpha" type="matrix" values="0 0 0 0 0 0 0 0 0 0 0 0 0 0 0 0 0 0 127 0" result="hardAlpha"/>
<feOffset dy="6"/>
<feGaussianBlur stdDeviation="3.3"/>
<feComposite in2="hardAlpha" operator="arithmetic" k2="-1" k3="1"/>
<feColorMatrix type="matrix" values="0 0 0 0 0.670588 0 0 0 0 0.933333 0 0 0 0 0.509804 0 0 0 0.1 0"/>
<feBlend mode="lighten" in2="effect1_innerShadow_1006_459" result="effect2_innerShadow_1006_459"/>
</filter>
<radialGradient id="paint0_radial_1006_459" cx="0" cy="0" r="1" gradientUnits="userSpaceOnUse" gradientTransform="translate(243 44.9405) scale(269.5 604.809)">
<stop stop-color="#A6A7AD"/>
<stop offset="1" stop-color="#13161B"/>
</radialGradient>
</defs>
</svg>
