<svg width="500" height="500" viewBox="0 0 500 500" fill="none" xmlns="http://www.w3.org/2000/svg">
<path d="M209.392 253.933H146.008V126H209.392V253.933ZM277.43 126H214.045V253.932H277.43V126ZM345.466 126H282.082V253.932H345.466V126Z" fill="white"/>
<path d="M209.392 253.933H146.008V252.239C154.596 245.555 175.279 232.558 209.392 229.177V253.933ZM345.466 212.959C330.08 221.505 308.526 225.353 282.082 227.052V253.932H345.466V212.959ZM277.43 227.328C261.885 228.167 244.751 228.347 226.258 228.347C222.014 228.347 217.957 228.51 214.046 228.786V253.933H277.431V227.328H277.43ZM209.392 204.193V146.785C192.15 137.722 170.842 130.51 155.761 126.001H146.008V219.311C164.445 213.943 189.835 210.787 209.392 204.193ZM277.43 195.666C263.704 200.067 249.476 203.32 234.668 205.261C233.667 205.392 232.627 205.537 231.776 206.098C225.497 210.266 251.808 211.632 254.64 211.613C262.32 211.558 269.915 211.021 277.43 210.083V195.666ZM238.469 179.499C240.227 168.362 229.31 158.082 214.045 149.336V202.513C227.104 197.443 236.742 190.433 238.469 179.499ZM345.466 162.693C325.451 175.762 304.434 186.47 282.082 194.122V209.448C303.871 206.232 324.976 199.671 345.466 191.399V162.693ZM272.777 177.173C274.349 177.366 275.899 177.318 277.429 177.079V126.001H226.893C232.953 139.955 250.103 174.397 272.777 177.173ZM317.218 126H282.081V175.724C297.434 169.173 310.121 143.488 317.218 126Z" fill="#27DEBF"/>
<path opacity="0.48" d="M209.392 253.933H146.008V252.239C154.596 245.555 175.279 232.558 209.392 229.177V253.933ZM345.466 212.959C330.08 221.505 308.526 225.353 282.082 227.052V253.932H345.466V212.959ZM277.43 227.328C261.885 228.167 244.751 228.347 226.258 228.347C222.014 228.347 217.957 228.51 214.046 228.786V253.933H277.431V227.328H277.43ZM209.392 204.193V146.785C192.15 137.722 170.842 130.51 155.761 126.001H146.008V219.311C164.445 213.943 189.835 210.787 209.392 204.193ZM277.43 195.666C263.704 200.067 249.476 203.32 234.668 205.261C233.667 205.392 232.627 205.537 231.776 206.098C225.497 210.266 251.808 211.632 254.64 211.613C262.32 211.558 269.915 211.021 277.43 210.083V195.666ZM238.469 179.499C240.227 168.362 229.31 158.082 214.045 149.336V202.513C227.104 197.443 236.742 190.433 238.469 179.499ZM345.466 162.693C325.451 175.762 304.434 186.47 282.082 194.122V209.448C303.871 206.232 324.976 199.671 345.466 191.399V162.693ZM272.777 177.173C274.349 177.366 275.899 177.318 277.429 177.079V126.001H226.893C232.953 139.955 250.103 174.397 272.777 177.173ZM317.218 126H282.081V175.724C297.434 169.173 310.121 143.488 317.218 126Z" fill="white"/>
<path d="M451.195 307.738C451.234 307.763 452.014 304.742 452.042 304.545C452.358 302.274 451.634 297.699 449.321 296.582C447.655 295.777 445.792 296.746 445.185 298.414C444.565 300.117 445.35 302.208 446.282 303.647C447.375 305.333 451.191 307.735 451.195 307.738Z" fill="#27DEBF"/>
<path d="M405.596 306.746C407.439 307.551 411.948 307.45 411.951 307.45C411.998 307.449 410.982 304.498 410.897 304.32C409.908 302.25 406.78 298.835 404.235 299.178C402.402 299.426 401.383 301.262 401.797 302.987C402.218 304.751 404.027 306.06 405.596 306.746Z" fill="#27DEBF"/>
<path d="M412.591 297.603C412.591 297.603 412.628 297.578 412.636 297.573C412.535 298.297 412.437 299.075 412.346 299.927C412.189 301.501 412.028 303.282 411.982 305.232C411.932 307.18 411.93 309.298 412.132 311.529C412.33 313.765 412.653 316.108 413.298 318.479C413.305 318.506 413.317 318.532 413.323 318.56C412.919 317.925 411.73 316.188 411.623 316.065C410.123 314.331 406.204 311.862 403.84 312.865C402.137 313.589 401.638 315.628 402.492 317.184C403.366 318.772 405.456 319.559 407.152 319.805C409.063 320.084 413.087 318.917 413.407 318.823C414.042 321.075 414.876 323.334 415.846 325.574C416.4 326.855 416.997 328.129 417.612 329.397C417.245 328.859 416.913 328.381 416.859 328.319C415.359 326.585 411.44 324.116 409.076 325.12C407.372 325.843 406.874 327.881 407.728 329.437C408.602 331.027 410.692 331.812 412.388 332.058C414.107 332.309 417.557 331.383 418.468 331.126C418.709 331.611 418.944 332.097 419.187 332.58C420.352 334.899 421.525 337.21 422.605 339.511C422.986 340.321 423.331 341.134 423.68 341.945C423.353 341.468 423.074 341.069 423.026 341.012C421.526 339.278 417.607 336.809 415.242 337.812C413.54 338.535 413.041 340.574 413.896 342.13C414.77 343.718 416.86 344.504 418.556 344.751C420.197 344.99 423.389 344.165 424.471 343.864C424.802 344.706 425.138 345.547 425.421 346.379C425.602 346.95 425.816 347.488 425.966 348.072C426.126 348.648 426.286 349.217 426.443 349.781C426.706 350.879 426.985 352.009 427.215 353.086C427.38 353.833 427.524 354.549 427.672 355.27C427.302 354.458 426.544 352.885 426.465 352.761C425.245 350.819 421.745 347.785 419.256 348.419C417.463 348.876 416.661 350.816 417.27 352.483C417.893 354.186 419.84 355.279 421.479 355.78C423.282 356.332 427.275 355.827 427.773 355.761C428.013 356.954 428.234 358.117 428.426 359.218C429.036 362.679 429.432 365.628 429.694 367.821H431.423C431.11 365.588 430.637 362.538 429.922 358.939C429.684 357.726 429.405 356.436 429.106 355.112C429.406 354.993 431.109 354.304 432.618 353.461C433.933 354.885 437.301 356.551 437.737 356.763C437.279 357.89 436.822 358.982 436.374 360.005C434.988 363.196 433.703 365.854 432.717 367.821H434.607C435.506 365.903 436.604 363.461 437.776 360.597C438.246 359.454 438.726 358.224 439.207 356.956C439.69 357.056 443.643 357.859 445.485 357.443C447.156 357.066 449.178 356.12 449.927 354.469C450.659 352.851 450.004 350.857 448.25 350.268C445.815 349.45 442.099 352.214 440.737 354.06C440.657 354.169 439.918 355.447 439.464 356.261C439.658 355.743 439.852 355.24 440.044 354.703C440.433 353.645 440.79 352.576 441.178 351.428C441.346 350.867 441.515 350.3 441.686 349.729C441.869 349.165 441.988 348.546 442.144 347.949C442.475 346.559 442.743 345.134 442.981 343.693C443.909 344.03 447.223 345.184 448.939 345.063C450.648 344.943 452.791 344.316 453.78 342.796C454.749 341.309 454.404 339.238 452.759 338.39C450.476 337.212 446.384 339.383 444.758 341C444.657 341.101 443.621 342.393 443.066 343.114C443.202 342.246 443.343 341.381 443.452 340.499C443.768 337.953 444.009 335.365 444.26 332.785C444.337 331.994 444.423 331.208 444.506 330.421C444.835 330.544 448.743 331.999 450.666 331.864C452.375 331.745 454.518 331.117 455.508 329.598C456.477 328.11 456.131 326.039 454.487 325.192C452.204 324.015 448.112 326.185 446.487 327.803C446.364 327.924 444.877 329.785 444.521 330.278C444.705 328.544 444.904 326.816 445.168 325.122C445.531 322.783 446.015 320.509 446.649 318.339C446.802 318.397 450.875 319.935 452.844 319.797C454.553 319.677 456.696 319.049 457.686 317.53C458.654 316.042 458.308 313.972 456.664 313.123C454.382 311.946 450.29 314.116 448.665 315.734C448.558 315.84 447.423 317.256 446.899 317.943C446.828 317.906 446.84 317.913 446.769 317.875C447.475 315.56 448.451 313.405 449.463 311.435C450.047 310.293 450.669 309.233 451.297 308.216C452.026 308.579 455.377 310.207 457.163 310.278C458.875 310.346 461.074 309.958 462.224 308.556C463.35 307.184 463.235 305.088 461.693 304.065C459.553 302.644 455.248 304.352 453.454 305.781C453.356 305.859 452.453 306.759 451.804 307.424C452.094 306.969 452.387 306.494 452.673 306.064C453.748 304.446 454.831 303.031 455.8 301.786C456.357 301.082 456.875 300.456 457.366 299.876C458.267 299.861 461.901 299.749 463.491 299.004C465.041 298.276 466.814 296.918 467.189 295.144C467.556 293.406 466.487 291.6 464.647 291.402C462.093 291.127 459.059 294.627 458.126 296.722C458.045 296.903 457.11 299.879 457.157 299.878C457.157 299.878 457.201 299.877 457.212 299.877C456.728 300.426 456.217 301.02 455.67 301.68C454.671 302.906 453.555 304.303 452.44 305.904C451.324 307.501 450.155 309.267 449.091 311.239C448.023 313.215 447 315.346 446.23 317.679C446.222 317.705 446.216 317.734 446.207 317.761C446.22 317.009 446.187 314.904 446.166 314.742C445.872 312.468 443.966 308.246 441.44 307.779C439.621 307.444 438.08 308.869 437.935 310.639C437.787 312.446 439.097 314.255 440.375 315.395C441.815 316.682 445.814 317.928 446.133 318.027C445.42 320.256 444.869 322.6 444.444 325.004C444.198 326.378 443.994 327.77 443.807 329.168C443.798 328.517 443.784 327.935 443.774 327.854C443.479 325.58 441.572 321.359 439.047 320.891C437.227 320.555 435.687 321.981 435.541 323.749C435.393 325.557 436.703 327.365 437.981 328.506C439.277 329.664 442.666 330.795 443.566 331.082C443.5 331.619 443.428 332.155 443.364 332.691C443.056 335.269 442.76 337.842 442.392 340.358C442.263 341.245 442.103 342.112 441.946 342.982C441.937 342.404 441.924 341.917 441.915 341.843C441.62 339.569 439.714 335.347 437.188 334.881C435.369 334.544 433.828 335.97 433.684 337.739C433.536 339.545 434.846 341.354 436.123 342.495C437.36 343.601 440.478 344.672 441.547 345.019C441.359 345.904 441.174 346.791 440.951 347.641C440.787 348.218 440.668 348.784 440.471 349.354C440.288 349.923 440.106 350.486 439.926 351.042C439.54 352.102 439.149 353.199 438.746 354.224C438.472 354.939 438.197 355.616 437.922 356.297C438.062 355.416 438.297 353.687 438.3 353.54C438.335 352.016 437.793 349.54 436.718 347.798C436.724 347.573 436.711 347.349 436.676 347.126C436.395 345.373 434.748 344.072 432.959 344.548C430.477 345.209 428.904 349.565 428.785 351.856C428.778 351.991 428.867 353.465 428.937 354.395C428.812 353.855 428.697 353.33 428.562 352.775C428.302 351.678 428.009 350.59 427.7 349.418C427.531 348.857 427.359 348.292 427.186 347.72C427.027 347.149 426.786 346.567 426.587 345.984C426.096 344.642 425.533 343.306 424.936 341.972C425.897 341.742 429.297 340.876 430.662 339.828C432.021 338.786 433.462 337.079 433.449 335.266C433.436 333.491 432.006 331.954 430.166 332.155C427.613 332.433 425.397 336.499 424.933 338.745C424.904 338.886 424.753 340.534 424.688 341.442C424.323 340.643 423.962 339.844 423.567 339.047C422.425 336.749 421.2 334.458 419.986 332.167C419.613 331.466 419.252 330.762 418.886 330.06C419.229 329.981 423.292 329.039 424.821 327.865C426.18 326.823 427.621 325.116 427.609 323.304C427.596 321.529 426.166 319.992 424.326 320.192C421.773 320.469 419.557 324.537 419.093 326.782C419.059 326.951 418.844 329.325 418.82 329.931C418.016 328.382 417.228 326.833 416.515 325.273C415.528 323.122 414.677 320.957 414.008 318.799C414.168 318.763 418.413 317.798 419.979 316.596C421.338 315.554 422.78 313.847 422.767 312.034C422.755 310.259 421.323 308.722 419.485 308.922C416.932 309.199 414.715 313.267 414.252 315.513C414.221 315.661 414.056 317.469 413.998 318.331C413.918 318.339 413.932 318.338 413.852 318.347C413.163 316.025 412.789 313.691 412.546 311.488C412.402 310.213 412.337 308.985 412.301 307.79C413.11 307.691 416.803 307.2 418.331 306.274C419.796 305.387 421.417 303.85 421.602 302.046C421.785 300.28 420.532 298.595 418.681 298.592C416.113 298.587 413.464 302.386 412.757 304.568C412.718 304.687 412.461 305.936 412.286 306.848C412.278 306.308 412.259 305.752 412.262 305.235C412.265 303.293 412.389 301.515 412.509 299.94C412.586 299.046 412.673 298.239 412.762 297.484C413.505 296.973 416.475 294.876 417.39 293.377C418.281 291.914 419.011 289.804 418.345 288.117C417.693 286.466 415.804 285.548 414.161 286.399C411.879 287.578 411.278 292.17 411.656 294.433C411.69 294.631 412.552 297.629 412.591 297.603Z" fill="#27DEBF"/>
<path d="M444.695 251.68C444.735 251.705 445.515 248.685 445.542 248.487C445.859 246.215 445.135 241.641 442.822 240.525C441.156 239.719 439.294 240.688 438.687 242.356C438.067 244.06 438.853 246.15 439.783 247.589C440.876 249.276 444.692 251.678 444.695 251.68Z" fill="#27DEBF"/>
<path d="M399.098 250.688C400.942 251.493 405.45 251.391 405.453 251.391C405.5 251.39 404.484 248.44 404.399 248.262C403.41 246.193 400.282 242.776 397.736 243.12C395.903 243.368 394.884 245.204 395.298 246.929C395.719 248.693 397.528 250.002 399.098 250.688Z" fill="#27DEBF"/>
<path d="M406.093 241.546C406.093 241.546 406.13 241.52 406.138 241.515C406.037 242.24 405.939 243.018 405.848 243.869C405.691 245.444 405.529 247.224 405.484 249.174C405.433 251.122 405.432 253.24 405.634 255.471C405.832 257.707 406.155 260.051 406.801 262.421C406.808 262.448 406.819 262.475 406.826 262.502C406.422 261.868 405.233 260.13 405.126 260.008C403.626 258.273 399.707 255.804 397.343 256.808C395.64 257.531 395.141 259.57 395.995 261.126C396.869 262.715 398.959 263.501 400.655 263.747C402.566 264.026 406.59 262.859 406.91 262.765C407.545 265.017 408.38 267.276 409.349 269.516C409.903 270.797 410.5 272.071 411.115 273.34C410.748 272.802 410.416 272.324 410.362 272.262C408.862 270.528 404.943 268.059 402.579 269.062C400.876 269.785 400.377 271.825 401.232 273.379C402.106 274.969 404.196 275.754 405.892 276.001C407.612 276.251 411.061 275.325 411.972 275.068C412.213 275.553 412.448 276.039 412.691 276.523C413.856 278.843 415.029 281.153 416.109 283.453C416.49 284.263 416.835 285.076 417.184 285.887C416.857 285.41 416.578 285.011 416.53 284.954C415.03 283.22 411.111 280.751 408.747 281.754C407.044 282.478 406.545 284.517 407.4 286.073C408.274 287.661 410.364 288.448 412.06 288.694C413.7 288.933 416.893 288.108 417.975 287.807C418.306 288.649 418.642 289.492 418.925 290.322C419.106 290.894 419.32 291.431 419.47 292.015C419.63 292.591 419.79 293.16 419.947 293.724C420.21 294.822 420.489 295.952 420.719 297.029C420.884 297.777 421.028 298.493 421.176 299.213C420.806 298.402 420.048 296.829 419.969 296.704C418.749 294.762 415.249 291.728 412.76 292.362C410.967 292.82 410.165 294.759 410.774 296.426C411.397 298.129 413.344 299.222 414.983 299.724C416.786 300.275 420.779 299.771 421.277 299.705C421.517 300.898 421.739 302.061 421.93 303.161C422.54 306.622 422.936 309.572 423.198 311.764H424.927C424.614 309.532 424.141 306.482 423.426 302.883C423.188 301.671 422.909 300.379 422.61 299.056C422.91 298.936 424.614 298.247 426.122 297.404C427.437 298.828 430.805 300.494 431.242 300.706C430.784 301.833 430.327 302.926 429.879 303.949C428.493 307.139 427.209 309.797 426.222 311.764H428.112C429.011 309.846 430.11 307.404 431.281 304.541C431.751 303.398 432.231 302.169 432.712 300.9C433.195 301.001 437.148 301.804 438.99 301.389C440.66 301.011 442.683 300.065 443.432 298.414C444.165 296.796 443.509 294.802 441.755 294.213C439.32 293.395 435.604 296.16 434.242 298.005C434.162 298.114 433.423 299.392 432.97 300.207C433.164 299.688 433.358 299.186 433.551 298.649C433.939 297.59 434.296 296.522 434.684 295.374C434.852 294.813 435.021 294.245 435.192 293.674C435.375 293.11 435.494 292.491 435.651 291.896C435.981 290.506 436.249 289.081 436.487 287.639C437.415 287.977 440.729 289.13 442.446 289.01C444.153 288.889 446.297 288.262 447.286 286.743C448.255 285.255 447.91 283.184 446.265 282.336C443.982 281.159 439.89 283.329 438.264 284.947C438.163 285.048 437.127 286.339 436.572 287.061C436.708 286.192 436.849 285.327 436.958 284.446C437.274 281.899 437.515 279.311 437.766 276.732C437.843 275.942 437.929 275.155 438.012 274.367C438.341 274.491 442.249 275.946 444.172 275.811C445.881 275.691 448.024 275.063 449.014 273.544C449.983 272.056 449.637 269.986 447.993 269.138C445.71 267.961 441.618 270.131 439.993 271.749C439.871 271.871 438.383 273.732 438.027 274.223C438.211 272.488 438.409 270.761 438.674 269.067C439.037 266.728 439.521 264.454 440.155 262.285C440.308 262.342 444.381 263.879 446.35 263.742C448.059 263.623 450.202 262.995 451.192 261.475C452.16 259.988 451.815 257.917 450.17 257.07C447.888 255.892 443.796 258.063 442.171 259.68C442.064 259.786 440.929 261.203 440.405 261.89C440.333 261.853 440.347 261.859 440.275 261.822C440.981 259.507 441.957 257.353 442.969 255.383C443.553 254.24 444.175 253.18 444.805 252.163C445.533 252.527 448.884 254.154 450.671 254.225C452.383 254.294 454.581 253.905 455.731 252.504C456.857 251.131 456.741 249.036 455.2 248.012C453.06 246.592 448.755 248.3 446.961 249.729C446.864 249.806 445.96 250.707 445.311 251.372C445.601 250.917 445.894 250.442 446.18 250.012C447.255 248.394 448.338 246.979 449.308 245.733C449.865 245.03 450.382 244.404 450.873 243.824C451.775 243.808 455.408 243.698 456.998 242.952C458.548 242.224 460.321 240.865 460.696 239.091C461.063 237.354 459.994 235.547 458.154 235.349C455.601 235.075 452.567 238.573 451.634 240.669C451.553 240.85 450.618 243.827 450.665 243.826C450.665 243.826 450.709 243.825 450.72 243.825C450.236 244.373 449.725 244.968 449.179 245.628C448.179 246.855 447.062 248.25 445.948 249.851C444.832 251.448 443.663 253.215 442.6 255.187C441.531 257.162 440.508 259.294 439.738 261.626C439.73 261.653 439.724 261.681 439.715 261.708C439.728 260.955 439.695 258.851 439.674 258.69C439.38 256.416 437.474 252.195 434.948 251.727C433.129 251.39 431.588 252.816 431.443 254.585C431.295 256.393 432.606 258.201 433.883 259.342C435.323 260.628 439.322 261.875 439.641 261.973C438.928 264.202 438.378 266.547 437.952 268.951C437.707 270.324 437.502 271.717 437.315 273.114C437.306 272.463 437.292 271.881 437.282 271.8C436.987 269.526 435.08 265.305 432.556 264.838C430.735 264.501 429.195 265.927 429.05 267.696C428.902 269.502 430.211 271.311 431.489 272.453C432.786 273.61 436.174 274.741 437.074 275.029C437.008 275.565 436.936 276.101 436.872 276.638C436.564 279.215 436.268 281.789 435.9 284.304C435.771 285.191 435.611 286.059 435.455 286.928C435.445 286.351 435.432 285.863 435.423 285.79C435.128 283.516 433.222 279.294 430.697 278.827C428.878 278.491 427.336 279.916 427.192 281.686C427.044 283.493 428.354 285.301 429.631 286.443C430.869 287.548 433.987 288.62 435.055 288.967C434.867 289.851 434.682 290.738 434.46 291.589C434.295 292.165 434.176 292.732 433.979 293.302C433.796 293.87 433.614 294.433 433.434 294.99C433.048 296.05 432.657 297.147 432.255 298.172C431.98 298.887 431.705 299.563 431.431 300.246C431.57 299.365 431.805 297.635 431.808 297.488C431.844 295.965 431.303 293.489 430.226 291.747C430.232 291.523 430.22 291.297 430.184 291.075C429.902 289.322 428.256 288.021 426.467 288.497C423.986 289.157 422.412 293.514 422.293 295.805C422.286 295.94 422.375 297.414 422.446 298.343C422.322 297.803 422.206 297.278 422.071 296.723C421.811 295.625 421.519 294.538 421.209 293.366C421.039 292.805 420.869 292.24 420.696 291.667C420.536 291.097 420.295 290.514 420.096 289.931C419.605 288.589 419.042 287.253 418.446 285.92C419.406 285.689 422.806 284.823 424.171 283.776C425.53 282.734 426.972 281.027 426.959 279.214C426.946 277.439 425.516 275.902 423.676 276.102C421.123 276.379 418.907 280.447 418.444 282.693C418.414 282.833 418.263 284.481 418.198 285.389C417.833 284.59 417.473 283.791 417.077 282.996C415.937 280.698 414.71 278.407 413.496 276.116C413.124 275.414 412.762 274.711 412.396 274.008C412.739 273.93 416.802 272.987 418.331 271.814C419.69 270.772 421.132 269.065 421.119 267.252C421.107 265.477 419.676 263.94 417.836 264.141C415.284 264.417 413.067 268.485 412.604 270.731C412.569 270.9 412.354 273.274 412.33 273.88C411.526 272.331 410.739 270.781 410.026 269.221C409.038 267.07 408.188 264.906 407.519 262.747C407.678 262.712 411.923 261.746 413.49 260.544C414.848 259.502 416.29 257.795 416.277 255.983C416.265 254.208 414.835 252.671 412.995 252.871C410.441 253.149 408.225 257.216 407.762 259.461C407.732 259.609 407.566 261.418 407.508 262.28C407.429 262.288 407.443 262.287 407.363 262.295C406.674 259.974 406.299 257.639 406.056 255.436C405.913 254.16 405.848 252.934 405.811 251.739C406.62 251.64 410.313 251.148 411.842 250.222C413.306 249.336 414.927 247.798 415.113 245.995C415.295 244.23 414.042 242.545 412.192 242.542C409.624 242.536 406.975 246.336 406.267 248.518C406.228 248.636 405.971 249.886 405.796 250.798C405.788 250.258 405.769 249.701 405.772 249.185C405.775 247.243 405.898 245.465 406.02 243.89C406.096 242.996 406.183 242.188 406.272 241.433C407.016 240.923 409.986 238.826 410.9 237.327C411.791 235.864 412.521 233.754 411.855 232.067C411.203 230.415 409.315 229.498 407.671 230.347C405.389 231.527 404.789 236.119 405.166 238.381C405.192 238.573 406.053 241.573 406.093 241.546Z" fill="#27DEBF"/>
<path d="M371.006 263.739H436.471C436.471 263.739 442.515 264.746 440.5 276.832C438.486 288.918 428.414 365.966 428.414 365.966H337.265L357.123 267.944C357.123 267.944 357.913 262.731 371.006 263.739Z" fill="white" stroke="#263238" stroke-miterlimit="10" strokeLinecap="round" stroke-linejoin="round"/>
<path d="M440.501 276.832C438.487 288.918 428.415 365.966 428.415 365.966H416.493C419.185 347.72 429.193 280.13 430.933 272.299C432.667 264.498 435.514 263.786 436.275 263.739H436.472C436.472 263.739 442.515 264.746 440.501 276.832Z" fill="#263238" stroke="#263238" stroke-miterlimit="10" strokeLinecap="round" stroke-linejoin="round"/>
<path d="M299.63 356.35L313.171 333.782L311.591 366.957L296.02 366.731L299.63 356.35Z" fill="#27DEBF" stroke="#263238" stroke-miterlimit="10" strokeLinecap="round" stroke-linejoin="round"/>
<path d="M296.921 355.448C296.921 355.448 300.532 355.448 302.337 355.448C304.143 355.448 303.692 357.253 304.368 360.864C305.045 364.475 298.275 366.958 298.275 366.958C298.275 366.958 299.855 366.958 297.147 367.408C294.438 367.86 291.505 359.509 296.921 355.448Z" fill="white" stroke="#263238" stroke-miterlimit="10" strokeLinecap="round" stroke-linejoin="round"/>
<path d="M303.241 361.54C303.241 361.54 295.568 353.415 291.054 345.968C286.541 338.521 280.674 330.622 278.867 329.269C277.062 327.914 273.226 325.883 269.615 324.755C266.004 323.627 262.619 319.114 261.716 320.467C260.813 321.822 261.491 324.303 262.844 325.206C264.198 326.109 268.26 328.591 268.26 328.591C268.26 328.591 261.716 329.72 259.459 329.72C257.201 329.72 250.657 322.95 249.529 324.529C249.1 325.13 249.292 326.055 249.779 327.06C249.236 326.793 248.852 326.825 248.852 327.462C248.852 329.719 253.14 335.136 256.073 337.167C256.745 337.631 257.328 337.959 257.816 338.162C258.629 339.616 259.582 341.01 260.813 341.906C262.311 342.995 264.298 343.508 265.641 343.744C271.724 345.994 279.77 348.675 279.77 348.675L288.572 366.73H306.175L303.241 361.54Z" fill="white"/>
<mask id="mask0_116_4136" style="mask-type:luminance" maskUnits="userSpaceOnUse" x="248" y="320" width="59" height="47">
<path d="M303.24 361.54C303.24 361.54 295.567 353.416 291.054 345.969C286.54 338.522 280.673 330.623 278.866 329.269C277.061 327.915 273.225 325.884 269.614 324.756C266.003 323.628 262.618 319.114 261.715 320.468C260.812 321.822 261.49 324.304 262.843 325.207C264.197 326.109 268.259 328.592 268.259 328.592C268.259 328.592 261.715 329.72 259.458 329.72C257.2 329.72 250.656 322.95 249.528 324.529C249.099 325.13 249.291 326.056 249.778 327.06C249.235 326.794 248.851 326.825 248.851 327.463C248.851 329.719 253.139 335.136 256.072 337.167C256.744 337.632 257.327 337.96 257.815 338.162C258.628 339.616 259.581 341.011 260.812 341.906C262.31 342.995 264.297 343.508 265.64 343.744C271.723 345.994 279.769 348.676 279.769 348.676L288.571 366.73H306.174L303.24 361.54Z" fill="white"/>
</mask>
<g mask="url(#mask0_116_4136)">
<path d="M303.24 361.54C303.24 361.54 295.567 353.416 291.054 345.969C286.54 338.522 280.673 330.623 278.866 329.269C277.061 327.915 273.225 325.884 269.614 324.756C266.003 323.628 262.618 319.114 261.715 320.468C260.812 321.822 261.49 324.304 262.843 325.207C264.197 326.109 268.259 328.592 268.259 328.592C268.259 328.592 261.715 329.72 259.458 329.72C257.2 329.72 250.656 322.95 249.528 324.529C249.099 325.13 249.291 326.056 249.778 327.06C249.235 326.794 248.851 326.825 248.851 327.463C248.851 329.719 253.139 335.136 256.072 337.167C256.744 337.632 257.327 337.96 257.815 338.162C258.628 339.616 259.581 341.011 260.812 341.906C262.31 342.995 264.297 343.508 265.64 343.744C271.723 345.994 279.769 348.676 279.769 348.676L288.571 366.73H306.174L303.24 361.54Z" fill="#27DEBF"/>
</g>
<mask id="mask1_116_4136" style="mask-type:luminance" maskUnits="userSpaceOnUse" x="248" y="320" width="59" height="47">
<path d="M303.24 361.54C303.24 361.54 295.567 353.416 291.054 345.969C286.54 338.522 280.673 330.623 278.866 329.269C277.061 327.915 273.225 325.884 269.614 324.756C266.003 323.628 262.618 319.114 261.715 320.468C260.812 321.822 261.49 324.304 262.843 325.207C264.197 326.109 268.259 328.592 268.259 328.592C268.259 328.592 261.715 329.72 259.458 329.72C257.2 329.72 250.656 322.95 249.528 324.529C249.099 325.13 249.291 326.056 249.778 327.06C249.235 326.794 248.851 326.825 248.851 327.463C248.851 329.719 253.139 335.136 256.072 337.167C256.744 337.632 257.327 337.96 257.815 338.162C258.628 339.616 259.581 341.011 260.812 341.906C262.31 342.995 264.297 343.508 265.64 343.744C271.723 345.994 279.769 348.676 279.769 348.676L288.571 366.73H306.174L303.24 361.54Z" fill="white"/>
</mask>
<g mask="url(#mask1_116_4136)">
<path opacity="0.5" d="M303.24 361.54C303.24 361.54 295.567 353.416 291.054 345.969C286.54 338.522 280.673 330.623 278.866 329.269C277.061 327.915 273.225 325.884 269.614 324.756C266.003 323.628 262.618 319.114 261.715 320.468C260.812 321.822 261.49 324.304 262.843 325.207C264.197 326.109 268.259 328.592 268.259 328.592C268.259 328.592 261.715 329.72 259.458 329.72C257.2 329.72 250.656 322.95 249.528 324.529C249.099 325.13 249.291 326.056 249.778 327.06C249.235 326.794 248.851 326.825 248.851 327.463C248.851 329.719 253.139 335.136 256.072 337.167C256.744 337.632 257.327 337.96 257.815 338.162C258.628 339.616 259.581 341.011 260.812 341.906C262.31 342.995 264.297 343.508 265.64 343.744C271.723 345.994 279.769 348.676 279.769 348.676L288.571 366.73H306.174L303.24 361.54Z" fill="white"/>
</g>
<path d="M303.241 361.54C303.241 361.54 295.568 353.415 291.054 345.968C286.541 338.521 280.674 330.622 278.867 329.269C277.062 327.914 273.226 325.883 269.615 324.755C266.004 323.627 262.619 319.114 261.716 320.467C260.813 321.822 261.491 324.303 262.844 325.206C264.198 326.109 268.26 328.591 268.26 328.591C268.26 328.591 261.716 329.72 259.459 329.72C257.201 329.72 250.657 322.95 249.529 324.529C249.1 325.13 249.292 326.055 249.779 327.06C249.236 326.793 248.852 326.825 248.852 327.462C248.852 329.719 253.14 335.136 256.073 337.167C256.745 337.631 257.328 337.959 257.816 338.162C258.629 339.616 259.582 341.01 260.813 341.906C262.311 342.995 264.298 343.508 265.641 343.744C271.724 345.994 279.77 348.675 279.77 348.675L288.572 366.73H306.175L303.241 361.54Z" stroke="#263238" stroke-miterlimit="10" strokeLinecap="round" stroke-linejoin="round"/>
<path d="M268.26 328.591C268.26 328.591 269.614 332.654 270.516 334.459C271.419 336.265 274.579 336.716 274.579 336.716" stroke="#263238" stroke-miterlimit="10" strokeLinecap="round" stroke-linejoin="round"/>
<path d="M270.517 338.521C270.517 338.521 277.738 336.49 279.544 337.393C281.349 338.296 282.477 340.552 282.477 340.552" stroke="#263238" stroke-miterlimit="10" strokeLinecap="round" stroke-linejoin="round"/>
<path d="M255.154 330.965C253.947 329.898 248.852 325.601 248.852 327.462" stroke="#263238" stroke-miterlimit="10" strokeLinecap="round" stroke-linejoin="round"/>
<path d="M260.814 341.907C258.331 340.101 257.301 335.793 255.948 333.537C254.594 331.281 255.045 329.249 257.303 331.054C257.809 331.459 258.623 332.205 259.579 333.119" stroke="#263238" stroke-miterlimit="10" strokeLinecap="round" stroke-linejoin="round"/>
<path d="M268.811 338.727C268.811 338.727 262.131 334.395 260.912 333.761C260.189 333.386 257.301 332.859 258.881 335.116C260.461 337.372 264.974 341.435 264.974 341.435L267.457 343.466L269.471 345.085" stroke="#263238" stroke-miterlimit="10" strokeLinecap="round" stroke-linejoin="round"/>
<path d="M374.329 269.949C374.329 269.949 396.672 290.711 397.122 292.967C397.573 295.225 383.582 368.795 383.582 368.795H292.408C292.408 368.795 309.108 345.55 309.108 342.391C309.108 339.232 318.812 293.419 319.038 290.936C319.263 288.454 342.959 278.749 349.73 275.365C356.502 271.98 362.82 267.918 374.329 269.949Z" fill="#27DEBF"/>
<mask id="mask2_116_4136" style="mask-type:luminance" maskUnits="userSpaceOnUse" x="292" y="269" width="106" height="100">
<path d="M374.327 269.949C374.327 269.949 396.67 290.711 397.12 292.968C397.571 295.225 383.58 368.795 383.58 368.795H292.406C292.406 368.795 309.106 345.55 309.106 342.391C309.106 339.232 318.81 293.42 319.036 290.937C319.261 288.454 342.957 278.75 349.728 275.365C356.5 271.98 362.819 267.918 374.327 269.949Z" fill="white"/>
</mask>
<g mask="url(#mask2_116_4136)">
<path opacity="0.2" d="M371.951 322.392L354.961 338.923C354.961 338.923 362.767 320.555 364.604 316.882C366.441 313.209 326.033 331.117 325.114 326.984C324.196 322.851 337.971 283.821 337.971 283.821L334.978 282.088C327.025 285.71 319.166 289.512 319.037 290.937C318.811 293.419 309.107 339.232 309.107 342.391C309.107 345.551 292.407 368.795 292.407 368.795H368.011L371.951 322.392Z" fill="black"/>
</g>
<path d="M374.329 269.949C374.329 269.949 396.672 290.711 397.122 292.967C397.573 295.225 383.582 368.795 383.582 368.795H292.408C292.408 368.795 309.108 345.55 309.108 342.391C309.108 339.232 318.812 293.419 319.038 290.936C319.263 288.454 342.959 278.749 349.73 275.365C356.502 271.98 362.82 267.918 374.329 269.949Z" stroke="#263238" stroke-miterlimit="10" strokeLinecap="round" stroke-linejoin="round"/>
<path d="M358.308 252.213C375.203 252.213 388.899 239.049 388.899 222.809C388.899 206.569 375.203 193.404 358.308 193.404C341.414 193.404 327.718 206.569 327.718 222.809C327.718 239.049 341.414 252.213 358.308 252.213Z" fill="#263238" stroke="#263238" stroke-miterlimit="10" strokeLinecap="round" stroke-linejoin="round"/>
<path d="M338.306 279.498L330.634 298.004L339.209 294.619L338.306 279.498Z" fill="white" stroke="#263238" stroke-miterlimit="10" strokeLinecap="round" stroke-linejoin="round"/>
<path d="M356.36 263.927L338.306 279.498L338.626 300.827L360.873 275.887L356.36 263.927Z" fill="white" stroke="#263238" stroke-miterlimit="10" strokeLinecap="round" stroke-linejoin="round"/>
<path d="M336.668 212.373C336.668 212.373 331.986 218.778 330.8 221.861C329.614 224.943 328.903 250.79 330.8 255.77C332.696 260.75 337.203 264.307 342.657 265.729C342.657 265.729 345.265 280.669 343.369 286.123C341.472 291.577 336.729 302.011 338.625 300.825C340.522 299.639 368.562 275.561 370.402 271.42C371.35 269.287 370.165 254.11 370.165 254.11C370.165 254.11 373.01 240.83 372.536 237.273C372.062 233.715 368.505 230.87 366.371 232.53C364.237 234.189 362.577 236.324 362.577 236.324C362.577 236.324 358.072 233.715 360.205 229.921C362.34 226.127 368.268 222.807 366.133 217.827C363.999 212.847 360.679 211.424 355.699 212.847C350.719 214.273 339.75 216.642 336.668 212.373Z" fill="white"/>
<mask id="mask3_116_4136" style="mask-type:luminance" maskUnits="userSpaceOnUse" x="329" y="212" width="44" height="89">
<path d="M336.667 212.374C336.667 212.374 331.985 218.779 330.799 221.861C329.613 224.943 328.902 250.791 330.799 255.771C332.695 260.751 337.202 264.307 342.656 265.73C342.656 265.73 345.264 280.669 343.368 286.123C341.471 291.577 336.728 302.011 338.624 300.825C340.521 299.64 368.561 275.561 370.401 271.421C371.349 269.287 370.164 254.11 370.164 254.11C370.164 254.11 373.009 240.831 372.535 237.273C372.061 233.716 368.504 230.87 366.37 232.53C364.236 234.19 362.576 236.324 362.576 236.324C362.576 236.324 358.071 233.716 360.204 229.921C362.339 226.127 368.267 222.808 366.132 217.828C363.998 212.848 360.678 211.425 355.698 212.848C350.718 214.273 339.749 216.643 336.667 212.374Z" fill="white"/>
</mask>
<g mask="url(#mask3_116_4136)">
<path d="M343.654 257.728C338.043 253.52 340.284 252.926 340.284 252.926L339.797 245.804C336.7 246.034 336.253 244.627 337.692 242.297C339.132 239.969 339.446 233.88 339.446 233.88L336.254 235.496C336.254 235.496 335.939 230.373 336.641 224.762C336.981 222.038 339.552 218.077 342.108 214.72C339.739 214.515 337.73 213.844 336.667 212.374C336.667 212.374 331.985 218.778 330.799 221.861C329.613 224.943 328.902 250.791 330.799 255.771C332.695 260.751 337.202 264.307 342.656 265.73C342.656 265.73 345.264 280.669 343.368 286.123C341.471 291.577 336.728 302.011 338.624 300.825C338.853 300.682 339.47 300.199 340.369 299.464L356.279 262.636C356.279 262.636 349.265 261.935 343.654 257.728Z" fill="#27DEBF"/>
</g>
<mask id="mask4_116_4136" style="mask-type:luminance" maskUnits="userSpaceOnUse" x="329" y="212" width="44" height="89">
<path d="M336.667 212.374C336.667 212.374 331.985 218.779 330.799 221.861C329.613 224.943 328.902 250.791 330.799 255.771C332.695 260.751 337.202 264.307 342.656 265.73C342.656 265.73 345.264 280.669 343.368 286.123C341.471 291.577 336.728 302.011 338.624 300.825C340.521 299.64 368.561 275.561 370.401 271.421C371.349 269.287 370.164 254.11 370.164 254.11C370.164 254.11 373.009 240.831 372.535 237.273C372.061 233.716 368.504 230.87 366.37 232.53C364.236 234.19 362.576 236.324 362.576 236.324C362.576 236.324 358.071 233.716 360.204 229.921C362.339 226.127 368.267 222.808 366.132 217.828C363.998 212.848 360.678 211.425 355.698 212.848C350.718 214.273 339.749 216.643 336.667 212.374Z" fill="white"/>
</mask>
<g mask="url(#mask4_116_4136)">
<path opacity="0.5" d="M343.654 257.728C338.043 253.52 340.284 252.926 340.284 252.926L339.797 245.804C336.7 246.034 336.253 244.627 337.692 242.297C339.132 239.969 339.446 233.88 339.446 233.88L336.254 235.496C336.254 235.496 335.939 230.373 336.641 224.762C336.981 222.038 339.552 218.077 342.108 214.72C339.739 214.515 337.73 213.844 336.667 212.374C336.667 212.374 331.985 218.778 330.799 221.861C329.613 224.943 328.902 250.791 330.799 255.771C332.695 260.751 337.202 264.307 342.656 265.73C342.656 265.73 345.264 280.669 343.368 286.123C341.471 291.577 336.728 302.011 338.624 300.825C338.853 300.682 339.47 300.199 340.369 299.464L356.279 262.636C356.279 262.636 349.265 261.935 343.654 257.728Z" fill="white"/>
</g>
<path d="M336.668 212.373C336.668 212.373 331.986 218.778 330.8 221.861C329.614 224.943 328.903 250.79 330.8 255.77C332.696 260.75 337.203 264.307 342.657 265.729C342.657 265.729 345.265 280.669 343.369 286.123C341.472 291.577 336.729 302.011 338.625 300.825C340.522 299.639 368.562 275.561 370.402 271.42C371.35 269.287 370.165 254.11 370.165 254.11C370.165 254.11 373.01 240.83 372.536 237.273C372.062 233.715 368.505 230.87 366.371 232.53C364.237 234.189 362.577 236.324 362.577 236.324C362.577 236.324 358.072 233.715 360.205 229.921C362.34 226.127 368.268 222.807 366.133 217.827C363.999 212.847 360.679 211.424 355.699 212.847C350.719 214.273 339.75 216.642 336.668 212.373Z" stroke="#263238" stroke-miterlimit="10" strokeLinecap="round" stroke-linejoin="round"/>
<path d="M339.812 231.11L339.338 235.853L339.101 237.513C339.101 237.513 336.256 242.967 336.256 244.626C336.256 246.286 341.71 246.998 342.896 245.575" stroke="#263238" stroke-miterlimit="10" strokeLinecap="round" stroke-linejoin="round"/>
<path d="M337.44 251.977C337.44 251.977 343.131 254.585 346.452 249.842" stroke="#263238" stroke-miterlimit="10" strokeLinecap="round" stroke-linejoin="round"/>
<path d="M340.286 252.925C340.286 252.925 340.523 256.957 343.369 256.483C346.774 255.916 345.74 251.029 345.74 251.029C345.74 251.029 343.605 252.925 340.286 252.925Z" fill="#263238" stroke="#263238" stroke-miterlimit="10" strokeLinecap="round" stroke-linejoin="round"/>
<path d="M346.214 229.449C346.214 229.449 352.142 228.738 354.276 231.584" stroke="#263238" strokeWidth="2" stroke-miterlimit="10" strokeLinecap="round" stroke-linejoin="round"/>
<path d="M338.863 228.738C338.863 228.738 332.697 227.552 330.801 230.398" stroke="#263238" strokeWidth="2" stroke-miterlimit="10" strokeLinecap="round" stroke-linejoin="round"/>
<path d="M347.518 238.224C348.108 238.224 348.586 237.322 348.586 236.208C348.586 235.095 348.108 234.192 347.518 234.192C346.929 234.192 346.451 235.095 346.451 236.208C346.451 237.322 346.929 238.224 347.518 238.224Z" fill="#263238"/>
<path d="M335.187 237.513C335.777 237.513 336.255 236.61 336.255 235.497C336.255 234.383 335.777 233.48 335.187 233.48C334.598 233.48 334.12 234.383 334.12 235.497C334.12 236.61 334.598 237.513 335.187 237.513Z" fill="#263238"/>
<path d="M342.658 265.73C342.658 265.73 352.073 267.085 358.843 259.864" stroke="#263238" stroke-miterlimit="10" strokeLinecap="round" stroke-linejoin="round"/>
<path d="M371.076 253.312L366.941 252.878C363.348 252.501 360.742 249.282 361.118 245.689L362.303 234.409C362.68 230.816 365.899 228.21 369.492 228.587L373.627 229.021C377.22 229.399 379.827 232.617 379.449 236.21L378.264 247.489C377.888 251.084 374.669 253.69 371.076 253.312Z" fill="white" stroke="#263238" stroke-miterlimit="10" strokeLinecap="round" stroke-linejoin="round"/>
<path d="M373.637 245.962L367.772 245.347C367.104 245.277 366.62 244.679 366.69 244.011L368.541 226.404C368.611 225.736 369.209 225.251 369.877 225.322L375.742 225.937C376.409 226.007 376.894 226.605 376.824 227.273L374.973 244.88C374.904 245.548 374.305 246.033 373.637 245.962Z" fill="white" stroke="#263238" stroke-miterlimit="10" strokeLinecap="round" stroke-linejoin="round"/>
<path d="M375.326 194.573C372.912 191.133 368.308 189.721 364.131 191.138L357.383 193.428C357.691 193.42 357.998 193.406 358.31 193.406C360.552 193.406 362.734 193.647 364.839 194.09L365.102 194C368.016 193.012 371.205 193.962 372.854 196.31C373.789 197.644 374.21 199.276 374.039 200.901L369.599 241.68C369.509 242.51 370.108 243.255 370.938 243.346C370.994 243.353 371.048 243.355 371.104 243.355C371.865 243.355 372.519 242.781 372.604 242.007L377.045 201.222C377.291 198.864 376.681 196.503 375.326 194.573Z" fill="#263238"/>
<path d="M345.302 281.98L338.627 300.826L347.764 294.701L345.302 281.98Z" fill="white" stroke="#263238" stroke-miterlimit="10" strokeLinecap="round" stroke-linejoin="round"/>
<path d="M345.303 281.981L345.98 299.132L377.575 272.954L373.964 262.798L345.303 281.981Z" fill="white" stroke="#263238" stroke-miterlimit="10" strokeLinecap="round" stroke-linejoin="round"/>
<path d="M388.772 289.809C388.772 289.809 380.422 293.194 379.068 296.128C377.713 299.061 359.886 364.508 359.886 364.508C359.886 364.508 359.434 368.119 363.948 368.344C368.462 368.57 395.769 368.344 395.769 368.344C395.769 368.344 398.025 322.531 397.799 315.084C397.574 307.637 397.349 294.097 396.219 292.968" fill="#27DEBF"/>
<mask id="mask5_116_4136" style="mask-type:luminance" maskUnits="userSpaceOnUse" x="359" y="289" width="39" height="80">
<path d="M388.773 289.809C388.773 289.809 380.423 293.195 379.069 296.128C377.714 299.062 359.887 364.508 359.887 364.508C359.887 364.508 359.435 368.119 363.949 368.345C368.463 368.57 395.77 368.345 395.77 368.345C395.77 368.345 398.026 322.532 397.8 315.085C397.575 307.638 397.349 294.097 396.22 292.968" fill="white"/>
</mask>
<g mask="url(#mask5_116_4136)">
<path opacity="0.2" d="M377.463 302.647L372.412 330.657C372.412 330.657 379.299 325.146 386.187 330.657C393.074 336.168 385.269 332.494 380.217 333.872C375.166 335.249 373.329 337.545 373.329 337.545C373.329 337.545 386.645 339.841 390.319 344.434C393.993 349.026 392.156 353.617 387.564 353.617C382.972 353.617 363.687 351.321 363.687 351.321L377.463 302.647Z" fill="black"/>
</g>
<path d="M388.772 289.809C388.772 289.809 380.422 293.194 379.068 296.128C377.713 299.061 359.886 364.508 359.886 364.508C359.886 364.508 359.434 368.119 363.948 368.344C368.462 368.57 395.769 368.344 395.769 368.344C395.769 368.344 398.025 322.531 397.799 315.084C397.574 307.637 397.349 294.097 396.219 292.968" stroke="#263238" stroke-miterlimit="10" strokeLinecap="round" stroke-linejoin="round"/>
<path d="M357.296 337.331C357.296 337.331 334.037 317.402 330.146 310.988C326.254 304.575 325.321 300.615 322.544 297.9C319.768 295.184 315.7 292.928 312.782 290.697C309.863 288.466 309.948 292.805 310.892 294.243C311.836 295.679 314.976 297.871 314.976 297.871L316.601 300.562C316.601 300.562 306.073 298.08 304.034 298.213C301.995 298.346 292.752 297.928 291.29 300.022C289.829 302.115 293.241 301.967 294.209 302.253C295.177 302.539 298.105 302.247 300.223 302.558C302.341 302.868 307.625 304.221 307.625 304.221C307.625 304.221 293.587 306.488 291.81 306.805C290.033 307.122 289.277 309.318 290.586 310.232C291.894 311.146 296.195 310.839 296.195 310.839C296.195 310.839 302.881 314.922 304.333 315.351C305.785 315.781 309.133 316.56 309.133 316.56C309.133 316.56 319.048 320.756 322.332 322.464C325.615 324.171 332.702 334.372 336.357 339.452C340.011 344.533 345.132 351.415 348.51 354.94C351.888 358.465 354.179 361.037 354.179 361.037L362.23 340.58L357.296 337.331Z" fill="white"/>
<mask id="mask6_116_4136" style="mask-type:luminance" maskUnits="userSpaceOnUse" x="289" y="290" width="74" height="72">
<path d="M357.296 337.331C357.296 337.331 334.037 317.402 330.146 310.988C326.254 304.575 325.321 300.615 322.544 297.9C319.768 295.184 315.7 292.928 312.782 290.697C309.863 288.466 309.948 292.805 310.892 294.243C311.836 295.679 314.976 297.871 314.976 297.871L316.601 300.562C316.601 300.562 306.073 298.08 304.034 298.213C301.995 298.346 292.752 297.928 291.29 300.022C289.829 302.115 293.241 301.967 294.209 302.253C295.177 302.539 298.105 302.247 300.223 302.558C302.341 302.868 307.625 304.221 307.625 304.221C307.625 304.221 293.587 306.488 291.81 306.805C290.033 307.122 289.277 309.318 290.586 310.232C291.894 311.146 296.195 310.839 296.195 310.839C296.195 310.839 302.881 314.922 304.333 315.351C305.785 315.781 309.133 316.56 309.133 316.56C309.133 316.56 319.048 320.756 322.332 322.464C325.615 324.171 332.702 334.372 336.357 339.452C340.011 344.533 345.132 351.415 348.51 354.94C351.888 358.465 354.179 361.037 354.179 361.037L362.23 340.58L357.296 337.331Z" fill="white"/>
</mask>
<g mask="url(#mask6_116_4136)">
<path d="M351.366 357.965C354.131 355.144 356.866 352.293 358.146 350.955L358.589 349.83C356.417 347.48 343.039 333.074 335.023 326.291C326.28 318.893 319.554 305.777 311.483 302.751C303.412 299.725 295.005 301.069 291.29 300.022C289.829 302.116 293.241 301.967 294.209 302.253C295.177 302.539 298.105 302.248 300.223 302.558C302.341 302.868 307.625 304.221 307.625 304.221C307.625 304.221 293.587 306.489 291.81 306.805C290.033 307.122 289.277 309.319 290.586 310.233C291.894 311.146 296.195 310.84 296.195 310.84C296.195 310.84 302.881 314.922 304.333 315.351C305.785 315.781 309.133 316.56 309.133 316.56C309.133 316.56 319.048 320.756 322.332 322.464C325.615 324.172 332.702 334.372 336.357 339.453C340.011 344.534 345.132 351.416 348.51 354.94C349.585 356.063 350.549 357.089 351.366 357.965Z" fill="#27DEBF"/>
</g>
<mask id="mask7_116_4136" style="mask-type:luminance" maskUnits="userSpaceOnUse" x="289" y="290" width="74" height="72">
<path d="M357.296 337.331C357.296 337.331 334.037 317.402 330.146 310.988C326.254 304.575 325.321 300.615 322.544 297.9C319.768 295.184 315.7 292.928 312.782 290.697C309.863 288.466 309.948 292.805 310.892 294.243C311.836 295.679 314.976 297.871 314.976 297.871L316.601 300.562C316.601 300.562 306.073 298.08 304.034 298.213C301.995 298.346 292.752 297.928 291.29 300.022C289.829 302.115 293.241 301.967 294.209 302.253C295.177 302.539 298.105 302.247 300.223 302.558C302.341 302.868 307.625 304.221 307.625 304.221C307.625 304.221 293.587 306.488 291.81 306.805C290.033 307.122 289.277 309.318 290.586 310.232C291.894 311.146 296.195 310.839 296.195 310.839C296.195 310.839 302.881 314.922 304.333 315.351C305.785 315.781 309.133 316.56 309.133 316.56C309.133 316.56 319.048 320.756 322.332 322.464C325.615 324.171 332.702 334.372 336.357 339.452C340.011 344.533 345.132 351.415 348.51 354.94C351.888 358.465 354.179 361.037 354.179 361.037L362.23 340.58L357.296 337.331Z" fill="white"/>
</mask>
<g mask="url(#mask7_116_4136)">
<path opacity="0.5" d="M351.366 357.965C354.131 355.144 356.866 352.293 358.146 350.955L358.589 349.83C356.417 347.48 343.039 333.074 335.023 326.291C326.28 318.893 319.554 305.777 311.483 302.751C303.412 299.725 295.005 301.069 291.29 300.022C289.829 302.116 293.241 301.967 294.209 302.253C295.177 302.539 298.105 302.248 300.223 302.558C302.341 302.868 307.625 304.221 307.625 304.221C307.625 304.221 293.587 306.489 291.81 306.805C290.033 307.122 289.277 309.319 290.586 310.233C291.894 311.146 296.195 310.84 296.195 310.84C296.195 310.84 302.881 314.922 304.333 315.351C305.785 315.781 309.133 316.56 309.133 316.56C309.133 316.56 319.048 320.756 322.332 322.464C325.615 324.172 332.702 334.372 336.357 339.453C340.011 344.534 345.132 351.416 348.51 354.94C349.585 356.063 350.549 357.089 351.366 357.965Z" fill="white"/>
</g>
<path d="M357.296 337.331C357.296 337.331 334.037 317.402 330.146 310.988C326.254 304.575 325.321 300.615 322.544 297.9C319.768 295.184 315.7 292.928 312.782 290.697C309.863 288.466 309.948 292.805 310.892 294.243C311.836 295.679 314.976 297.871 314.976 297.871L316.601 300.562C316.601 300.562 306.073 298.08 304.034 298.213C301.995 298.346 292.752 297.928 291.29 300.022C289.829 302.115 293.241 301.967 294.209 302.253C295.177 302.539 298.105 302.247 300.223 302.558C302.341 302.868 307.625 304.221 307.625 304.221C307.625 304.221 293.587 306.488 291.81 306.805C290.033 307.122 289.277 309.318 290.586 310.232C291.894 311.146 296.195 310.839 296.195 310.839C296.195 310.839 302.881 314.922 304.333 315.351C305.785 315.781 309.133 316.56 309.133 316.56C309.133 316.56 319.048 320.756 322.332 322.464C325.615 324.171 332.702 334.372 336.357 339.452C340.011 344.533 345.132 351.415 348.51 354.94C351.888 358.465 354.179 361.037 354.179 361.037L362.23 340.58L357.296 337.331Z" stroke="#263238" stroke-miterlimit="10" strokeLinecap="round" stroke-linejoin="round"/>
<path d="M296.193 310.839L303.462 310.463L309.372 311.475" stroke="#263238" stroke-miterlimit="10" strokeLinecap="round" stroke-linejoin="round"/>
<path d="M301.738 314.007C301.738 314.007 306.659 315.062 309.119 314.885" stroke="#263238" stroke-miterlimit="10" strokeLinecap="round" stroke-linejoin="round"/>
<path d="M388.771 349.838C388.771 349.838 361.69 334.266 360.336 334.266C358.982 334.266 347.247 359.091 348.827 360.219C350.407 361.347 360.787 368.118 360.787 368.118H395.767C395.767 368.118 399.83 359.767 388.771 349.838Z" fill="#27DEBF" stroke="#263238" stroke-miterlimit="10" strokeLinecap="round" stroke-linejoin="round"/>
<path d="M358.757 333.589C358.757 333.589 346.57 358.865 346.796 359.993C347.022 361.121 356.726 366.989 358.531 367.214C360.337 367.44 373.426 340.359 372.975 339.682C372.523 339.005 361.239 333.138 361.239 333.138C361.239 333.138 358.983 332.01 358.757 333.589Z" fill="white" stroke="#263238" stroke-miterlimit="10" strokeLinecap="round" stroke-linejoin="round"/>
<path d="M296.35 299.052L293.921 298.813C293.492 298.902 293.092 299.004 292.741 299.125C294.41 299.034 296.35 299.052 296.35 299.052Z" fill="white"/>
<path d="M115.093 263.739H49.6267C49.6267 263.739 43.5834 264.746 45.5975 276.832C47.6116 288.918 57.6839 365.966 57.6839 365.966H148.833L128.975 267.944C128.975 267.944 128.186 262.731 115.093 263.739Z" fill="white" stroke="#263238" stroke-miterlimit="10" strokeLinecap="round" stroke-linejoin="round"/>
<path d="M45.5985 276.832C47.6126 288.918 57.685 365.966 57.685 365.966H69.6068C66.9154 347.72 56.907 280.13 55.1666 272.299C53.4325 264.498 50.586 263.786 49.8248 263.739H49.6277C49.6277 263.739 43.5845 264.746 45.5985 276.832Z" fill="#263238" stroke="#263238" stroke-miterlimit="10" strokeLinecap="round" stroke-linejoin="round"/>
<path d="M129.444 262.253C129.444 262.253 90.9046 276.612 84.8582 280.642C78.8129 284.672 72.7676 291.725 72.7676 301.297C72.7676 310.869 78.3096 365.783 78.3096 365.783H207.029C207.029 365.783 190.907 309.106 185.618 297.267C182.661 290.649 179.696 283.301 174.697 277.909C168.151 270.846 158.544 266.574 149.385 264.075C145.935 263.135 142.562 262.81 139.02 262.541C136.327 262.336 132.023 261.293 129.444 262.253Z" fill="#27DEBF"/>
<mask id="mask8_116_4136" style="mask-type:luminance" maskUnits="userSpaceOnUse" x="72" y="261" width="136" height="105">
<path d="M129.444 262.253C129.444 262.253 90.9046 276.612 84.8582 280.642C78.8129 284.672 72.7676 291.725 72.7676 301.297C72.7676 310.869 78.3096 365.783 78.3096 365.783H207.029C207.029 365.783 190.907 309.106 185.618 297.267C182.661 290.649 179.696 283.301 174.697 277.909C168.151 270.846 158.544 266.574 149.385 264.075C145.935 263.135 142.562 262.81 139.02 262.541C136.327 262.336 132.023 261.293 129.444 262.253Z" fill="white"/>
</mask>
<g mask="url(#mask8_116_4136)">
<path opacity="0.2" d="M197.809 365.782C199.041 364.281 199.759 363.259 199.759 363.259L175.881 295.3C175.881 295.3 182.31 326.524 183.229 329.28C184.147 332.035 189.658 344.892 171.29 347.188C152.923 349.484 131.801 345.811 117.107 338.005C102.413 330.199 98.2799 309.536 98.2799 309.536L97.3615 325.607L95.2656 365.784H197.809V365.782Z" fill="black"/>
</g>
<path d="M129.444 262.253C129.444 262.253 90.9046 276.612 84.8582 280.642C78.8129 284.672 72.7676 291.725 72.7676 301.297C72.7676 310.869 78.3096 365.783 78.3096 365.783H207.029C207.029 365.783 190.907 309.106 185.618 297.267C182.661 290.649 179.696 283.301 174.697 277.909C168.151 270.846 158.544 266.574 149.385 264.075C145.935 263.135 142.562 262.81 139.02 262.541C136.327 262.336 132.023 261.293 129.444 262.253Z" stroke="#263238" stroke-miterlimit="10" strokeLinecap="round" stroke-linejoin="round"/>
<path d="M138.607 290.988C149.255 290.988 157.887 284.08 157.887 275.559C157.887 267.038 149.255 260.13 138.607 260.13C127.959 260.13 119.327 267.038 119.327 275.559C119.327 284.08 127.959 290.988 138.607 290.988Z" fill="white" stroke="#263238" stroke-miterlimit="10" strokeLinecap="round" stroke-linejoin="round"/>
<path d="M112.818 223.965L111.57 210.571C110.737 201.636 117.46 193.784 126.417 193.23L138.457 192.486C147.811 191.908 156.106 198.451 157.721 207.684L159.239 216.365" stroke="#263238" strokeWidth="2" stroke-miterlimit="10" strokeLinecap="round" stroke-linejoin="round"/>
<path d="M161.521 239.427L159.183 239.641C156.85 239.855 154.786 238.138 154.572 235.804L153.231 221.174C153.017 218.841 154.734 216.777 157.068 216.563L159.406 216.349C161.739 216.135 163.803 217.853 164.017 220.186L165.358 234.816C165.572 237.149 163.854 239.213 161.521 239.427Z" fill="white" stroke="#263238" stroke-miterlimit="10" strokeLinecap="round" stroke-linejoin="round"/>
<path d="M122.896 252.934C122.896 252.934 124.659 266.536 124.407 268.047C124.156 269.558 124.407 279.13 131.46 283.161C138.513 287.191 146.07 285.427 149.597 280.138C153.124 274.848 150.1 252.43 150.1 252.43C150.1 252.43 134.483 260.238 122.896 252.934Z" fill="white"/>
<mask id="mask9_116_4136" style="mask-type:luminance" maskUnits="userSpaceOnUse" x="122" y="252" width="30" height="34">
<path d="M122.896 252.934C122.896 252.934 124.66 266.537 124.408 268.048C124.157 269.559 124.408 279.131 131.461 283.161C138.514 287.191 146.071 285.428 149.598 280.138C153.125 274.849 150.101 252.43 150.101 252.43C150.101 252.43 134.484 260.239 122.896 252.934Z" fill="white"/>
</mask>
<g mask="url(#mask9_116_4136)">
<path d="M151.079 262.678C150.729 257.1 150.101 252.43 150.101 252.43C150.101 252.43 134.484 260.239 122.896 252.934C122.896 252.934 123.757 259.577 124.19 264.094C129.914 267.489 139.317 270.112 151.079 262.678Z" fill="#27DEBF"/>
</g>
<mask id="mask10_116_4136" style="mask-type:luminance" maskUnits="userSpaceOnUse" x="122" y="252" width="30" height="34">
<path d="M122.896 252.934C122.896 252.934 124.66 266.537 124.408 268.048C124.157 269.559 124.408 279.131 131.461 283.161C138.514 287.191 146.071 285.428 149.598 280.138C153.125 274.849 150.101 252.43 150.101 252.43C150.101 252.43 134.484 260.239 122.896 252.934Z" fill="white"/>
</mask>
<g mask="url(#mask10_116_4136)">
<path opacity="0.5" d="M151.079 262.678C150.729 257.1 150.101 252.43 150.101 252.43C150.101 252.43 134.484 260.239 122.896 252.934C122.896 252.934 123.757 259.577 124.19 264.094C129.914 267.489 139.317 270.112 151.079 262.678Z" fill="white"/>
</g>
<path d="M122.896 252.934C122.896 252.934 124.659 266.536 124.407 268.047C124.156 269.558 124.407 279.13 131.46 283.161C138.513 287.191 146.07 285.427 149.597 280.138C153.124 274.848 150.1 252.43 150.1 252.43C150.1 252.43 134.483 260.238 122.896 252.934Z" stroke="#263238" stroke-miterlimit="10" strokeLinecap="round" stroke-linejoin="round"/>
<path d="M144.659 259.016L136.099 260.016C126.924 261.088 118.619 254.519 117.547 245.345L113.916 214.268C112.845 205.094 119.413 196.788 128.587 195.716L137.147 194.716C146.321 193.645 154.627 200.213 155.699 209.387L159.33 240.464C160.401 249.639 153.833 257.944 144.659 259.016Z" fill="white"/>
<mask id="mask11_116_4136" style="mask-type:luminance" maskUnits="userSpaceOnUse" x="113" y="194" width="47" height="67">
<path d="M144.66 259.015L136.1 260.016C126.925 261.087 118.62 254.519 117.548 245.345L113.917 214.268C112.846 205.093 119.414 196.787 128.588 195.716L137.148 194.716C146.322 193.644 154.628 200.213 155.7 209.386L159.33 240.463C160.402 249.638 153.833 257.944 144.66 259.015Z" fill="white"/>
</mask>
<g mask="url(#mask11_116_4136)">
<path d="M131.444 260.042C125.668 253.45 121.726 207.495 123.075 202.544C124.031 199.04 131.84 196.198 136.531 194.788L127.934 195.793C119.12 196.822 112.811 204.802 113.841 213.615L117.623 245.999C118.495 253.448 124.335 259.09 131.444 260.042Z" fill="#27DEBF"/>
</g>
<mask id="mask12_116_4136" style="mask-type:luminance" maskUnits="userSpaceOnUse" x="113" y="194" width="47" height="67">
<path d="M144.66 259.015L136.1 260.016C126.925 261.087 118.62 254.519 117.548 245.345L113.917 214.268C112.846 205.093 119.414 196.787 128.588 195.716L137.148 194.716C146.322 193.644 154.628 200.213 155.7 209.386L159.33 240.463C160.402 249.638 153.833 257.944 144.66 259.015Z" fill="white"/>
</mask>
<g mask="url(#mask12_116_4136)">
<path opacity="0.5" d="M131.444 260.042C125.668 253.45 121.726 207.495 123.075 202.544C124.031 199.04 131.84 196.198 136.531 194.788L127.934 195.793C119.12 196.822 112.811 204.802 113.841 213.615L117.623 245.999C118.495 253.448 124.335 259.09 131.444 260.042Z" fill="white"/>
</g>
<path d="M144.659 259.016L136.099 260.016C126.924 261.088 118.619 254.519 117.547 245.345L113.916 214.268C112.845 205.094 119.413 196.788 128.587 195.716L137.147 194.716C146.321 193.645 154.627 200.213 155.699 209.387L159.33 240.464C160.401 249.639 153.833 257.944 144.659 259.016Z" stroke="#263238" stroke-miterlimit="10" strokeLinecap="round" stroke-linejoin="round"/>
<path d="M159.254 239.813L158.43 232.757C158.255 235.828 157.514 239.621 154.887 239.331C150.519 238.85 150.856 234.545 148.085 232.782C145.314 231.018 139.269 231.774 134.735 233.538C130.2 235.301 131.208 241.598 127.933 243.865C124.659 246.132 121.132 240.842 121.132 240.842L117.605 219.179C117.605 219.179 121.132 214.898 122.894 213.134C124.658 211.371 121.384 210.867 120.123 208.348C118.864 205.828 122.643 202.806 126.925 199.532C131.207 196.257 134.985 200.539 138.512 200.539C142.039 200.539 144.306 199.027 147.328 197.265C147.382 197.234 147.438 197.221 147.493 197.195C144.305 195.264 140.483 194.327 136.495 194.793L129.24 195.641C119.705 196.754 112.879 205.387 113.993 214.921L117.471 244.694C118.584 254.229 127.217 261.055 136.751 259.941L144.006 259.092C153.541 257.979 160.368 249.346 159.254 239.813Z" fill="#263238" stroke="#263238" stroke-miterlimit="10" strokeLinecap="round" stroke-linejoin="round"/>
<path d="M135.993 237.064C135.993 237.064 139.772 240.591 147.076 236.812" stroke="white" stroke-miterlimit="10" strokeLinecap="round" stroke-linejoin="round"/>
<path d="M144.054 216.912C144.054 216.912 145.061 227.239 145.061 229.255C145.061 231.272 141.283 234.545 137.757 230.011" stroke="#263238" stroke-miterlimit="10" strokeLinecap="round" stroke-linejoin="round"/>
<path d="M139.016 215.149C139.016 215.149 133.978 210.362 127.177 216.408" stroke="#263238" strokeWidth="2" stroke-miterlimit="10" strokeLinecap="round" stroke-linejoin="round"/>
<path d="M145.313 214.393C145.313 214.393 150.1 211.119 154.13 213.89" stroke="#263238" strokeWidth="2" stroke-miterlimit="10" strokeLinecap="round" stroke-linejoin="round"/>
<path d="M136.748 221.699C136.748 222.812 136.241 223.714 135.615 223.714C134.989 223.714 134.481 222.812 134.481 221.699C134.481 220.585 134.989 219.684 135.615 219.684C136.241 219.684 136.748 220.585 136.748 221.699Z" fill="#263238"/>
<path d="M149.973 223.462C150.599 223.462 151.107 222.56 151.107 221.447C151.107 220.334 150.599 219.432 149.973 219.432C149.347 219.432 148.84 220.334 148.84 221.447C148.84 222.56 149.347 223.462 149.973 223.462Z" fill="#263238"/>
<path d="M116.756 244.649L114.424 244.93C112.098 245.21 109.986 243.551 109.706 241.226L107.95 226.64C107.67 224.314 109.328 222.202 111.654 221.921L113.985 221.64C116.31 221.36 118.423 223.018 118.703 225.344L120.459 239.93C120.74 242.256 119.081 244.369 116.756 244.649Z" fill="white" stroke="#263238" stroke-miterlimit="10" strokeLinecap="round" stroke-linejoin="round"/>
<path d="M186.876 353.943C180.58 352.431 172.015 352.936 166.977 352.684C161.939 352.433 129.697 349.662 122.139 347.395C114.582 345.128 102.743 343.113 102.743 343.113L99.469 321.953C85.4261 316.415 77.2881 322.212 74.4385 324.959C76.0699 343.588 78.3104 365.783 78.3104 365.783H191.47L194.686 365.532C194.685 365.531 193.174 355.455 186.876 353.943Z" fill="white"/>
<mask id="mask13_116_4136" style="mask-type:luminance" maskUnits="userSpaceOnUse" x="74" y="319" width="121" height="47">
<path d="M186.875 353.944C180.579 352.432 172.014 352.936 166.976 352.685C161.938 352.433 129.696 349.662 122.138 347.395C114.581 345.129 102.742 343.113 102.742 343.113L99.468 321.954C85.4252 316.416 77.2872 322.213 74.4375 324.96C76.0689 343.588 78.3094 365.784 78.3094 365.784H191.469L194.685 365.532C194.684 365.531 193.173 355.456 186.875 353.944Z" fill="white"/>
</mask>
<g mask="url(#mask13_116_4136)">
<path d="M85.8812 358.667C81.8573 356.431 78.4908 349.519 76.0898 343.011C77.2693 355.473 78.3094 365.782 78.3094 365.782H184.995C188.785 362.966 191.035 360.963 191.035 360.963C191.035 360.963 94.1461 363.259 85.8812 358.667Z" fill="#27DEBF"/>
</g>
<mask id="mask14_116_4136" style="mask-type:luminance" maskUnits="userSpaceOnUse" x="74" y="319" width="121" height="47">
<path d="M186.875 353.944C180.579 352.432 172.014 352.936 166.976 352.685C161.938 352.433 129.696 349.662 122.138 347.395C114.581 345.129 102.742 343.113 102.742 343.113L99.468 321.954C85.4252 316.416 77.2872 322.213 74.4375 324.96C76.0689 343.588 78.3094 365.784 78.3094 365.784H191.469L194.685 365.532C194.684 365.531 193.173 355.456 186.875 353.944Z" fill="white"/>
</mask>
<g mask="url(#mask14_116_4136)">
<path opacity="0.5" d="M85.8812 358.667C81.8573 356.431 78.4908 349.519 76.0898 343.011C77.2693 355.473 78.3094 365.782 78.3094 365.782H184.995C188.785 362.966 191.035 360.963 191.035 360.963C191.035 360.963 94.1461 363.259 85.8812 358.667Z" fill="white"/>
</g>
<path d="M186.876 353.943C180.58 352.431 172.015 352.936 166.977 352.684C161.939 352.433 129.697 349.662 122.139 347.395C114.582 345.128 102.743 343.113 102.743 343.113L99.469 321.953C85.4261 316.415 77.2881 322.212 74.4385 324.959C76.0699 343.588 78.3104 365.783 78.3104 365.783H191.47L194.686 365.532C194.685 365.531 193.174 355.455 186.876 353.943Z" stroke="#263238" stroke-miterlimit="10" strokeLinecap="round" stroke-linejoin="round"/>
<path d="M102.743 343.112C102.743 343.112 94.0622 343.329 90.7197 349.711" stroke="#263238" stroke-miterlimit="10" strokeLinecap="round" stroke-linejoin="round"/>
<path d="M99.4695 321.953L97.7061 303.313" stroke="#263238" stroke-miterlimit="10" strokeLinecap="round" stroke-linejoin="round"/>
<path d="M71.7074 360.681H65.9588C64.9922 360.681 64.209 359.897 64.209 358.931V347.189C64.209 346.223 64.9922 345.439 65.9588 345.439H71.7074C73.2791 345.439 74.5582 346.719 74.5582 348.29V357.831C74.5592 359.402 73.2801 360.681 71.7074 360.681ZM67.2966 358.196H71.4715V347.922H67.2966V358.196Z" fill="white" stroke="#263238" stroke-miterlimit="10" strokeLinecap="round" stroke-linejoin="round"/>
<path d="M62.8844 363.578H57.6023C53.8594 363.578 50.8252 360.544 50.8252 356.801V344.987H69.6615V356.801C69.6615 360.544 66.6273 363.578 62.8844 363.578Z" fill="white" stroke="#263238" stroke-miterlimit="10" strokeLinecap="round" stroke-linejoin="round"/>
<path d="M70.9949 365.045H47.5361L42.5088 362.111H76.0222L70.9949 365.045Z" fill="white" stroke="#263238" stroke-miterlimit="10" strokeLinecap="round" stroke-linejoin="round"/>
<path d="M312.526 360.681H306.777C305.811 360.681 305.027 359.898 305.027 358.931V347.19C305.027 346.223 305.811 345.44 306.777 345.44H312.526C314.097 345.44 315.377 346.719 315.377 348.291V357.831C315.378 359.402 314.098 360.681 312.526 360.681ZM308.115 358.196H312.29V347.923H308.115V358.196Z" fill="white" stroke="#263238" stroke-miterlimit="10" strokeLinecap="round" stroke-linejoin="round"/>
<path d="M303.703 363.578H298.421C294.678 363.578 291.644 360.544 291.644 356.801V344.987H310.48V356.801C310.48 360.544 307.446 363.578 303.703 363.578Z" fill="white" stroke="#263238" stroke-miterlimit="10" strokeLinecap="round" stroke-linejoin="round"/>
<path d="M311.813 365.045H288.354L283.327 362.111H316.841L311.813 365.045Z" fill="white" stroke="#263238" stroke-miterlimit="10" strokeLinecap="round" stroke-linejoin="round"/>
<path d="M193.21 291.268L215.032 288.583" stroke="#263238" strokeWidth="4" stroke-miterlimit="10" strokeLinecap="round" stroke-linejoin="round"/>
<path d="M212.349 294.122C211.334 294.122 210.328 293.687 209.63 292.844C208.39 291.343 208.599 289.121 210.1 287.879L247.029 257.328C248.529 256.09 250.751 256.298 251.993 257.798C253.234 259.299 253.024 261.521 251.525 262.762L214.594 293.314C213.936 293.857 213.139 294.122 212.349 294.122Z" stroke="#263238" strokeWidth="3" stroke-miterlimit="10" strokeLinecap="round" stroke-linejoin="round"/>
<path d="M249.611 256.017C247.789 255.93 246.194 257.232 245.914 259.035C243.427 275.048 231.26 351.514 232.153 352.706C233.161 354.049 244.911 363.113 244.911 363.113C244.911 363.113 241.554 354.721 241.554 351.364C241.554 348.431 250.91 276.79 252.985 260.018C253.239 257.956 251.687 256.116 249.611 256.017Z" stroke="#263238" strokeWidth="3" stroke-miterlimit="10" strokeLinecap="round" stroke-linejoin="round"/>
<path d="M186.882 277.087C190.108 281.155 189.426 287.067 185.358 290.293C181.29 293.519 175.377 292.836 172.152 288.768C168.926 284.7 169.608 278.788 173.676 275.562C177.744 272.335 183.657 273.019 186.882 277.087Z" fill="#263238" stroke="#263238" stroke-miterlimit="10" strokeLinecap="round" stroke-linejoin="round"/>
<path d="M199.313 305.496L196.981 307.347C196.157 308.001 194.974 307.937 194.225 307.198L179.791 292.962C177.199 290.405 177.428 286.155 180.282 283.891C183.136 281.627 187.327 282.373 189.226 285.48L199.798 302.779C200.345 303.677 200.139 304.843 199.313 305.496Z" fill="white" stroke="#263238" stroke-miterlimit="10" strokeLinecap="round" stroke-linejoin="round"/>
<path d="M191.325 289.294C189.333 288.939 187.279 289.457 185.694 290.715C184.108 291.974 183.136 293.854 183.026 295.875C183.02 295.967 183.027 296.058 183.026 296.15L185.741 298.829C185.238 297.978 184.983 296.99 185.038 295.984C185.115 294.538 185.81 293.193 186.945 292.293C188.079 291.394 189.547 291.023 190.972 291.276C191.965 291.453 192.868 291.926 193.583 292.611L191.594 289.357C191.504 289.338 191.416 289.31 191.325 289.294Z" fill="#263238"/>
<path d="M199.436 308.183C198.536 308.898 197.225 308.746 196.511 307.846L195.402 306.447C194.687 305.546 194.839 304.236 195.74 303.522C196.64 302.808 197.951 302.959 198.665 303.859L199.774 305.258C200.488 306.16 200.337 307.469 199.436 308.183Z" fill="white" stroke="#263238" stroke-miterlimit="10" strokeLinecap="round" stroke-linejoin="round"/>
<path d="M253.994 365.891H219.485C218.353 365.891 217.435 364.972 217.435 363.84C217.435 362.707 218.353 361.788 219.485 361.788H253.994C255.127 361.788 256.044 362.707 256.044 363.84C256.044 364.973 255.126 365.891 253.994 365.891Z" fill="#263238"/>
<path d="M213.088 295.908C216.553 295.908 219.362 293.099 219.362 289.634C219.362 286.169 216.553 283.36 213.088 283.36C209.623 283.36 206.814 286.169 206.814 289.634C206.814 293.099 209.623 295.908 213.088 295.908Z" fill="#263238"/>
<path d="M249.045 266.708C252.51 266.708 255.319 263.899 255.319 260.434C255.319 256.97 252.51 254.161 249.045 254.161C245.58 254.161 242.771 256.97 242.771 260.434C242.771 263.899 245.58 266.708 249.045 266.708Z" fill="#263238"/>
<path d="M365.521 291.268L387.343 288.583" stroke="#263238" strokeWidth="4" stroke-miterlimit="10" strokeLinecap="round" stroke-linejoin="round"/>
<path d="M384.658 294.122C383.643 294.122 382.637 293.687 381.94 292.844C380.699 291.343 380.909 289.121 382.41 287.879L419.339 257.328C420.839 256.09 423.061 256.298 424.303 257.798C425.544 259.299 425.334 261.521 423.835 262.762L386.904 293.314C386.246 293.857 385.449 294.122 384.658 294.122Z" stroke="#263238" strokeWidth="3" stroke-miterlimit="10" strokeLinecap="round" stroke-linejoin="round"/>
<path d="M421.921 256.017C420.099 255.93 418.505 257.232 418.225 259.035C415.738 275.048 403.571 351.514 404.465 352.706C405.472 354.049 417.222 363.113 417.222 363.113C417.222 363.113 413.865 354.721 413.865 351.364C413.865 348.431 423.221 276.79 425.296 260.018C425.55 257.956 423.997 256.116 421.921 256.017Z" stroke="#263238" strokeWidth="3" stroke-miterlimit="10" strokeLinecap="round" stroke-linejoin="round"/>
<path d="M359.192 277.087C362.418 281.155 361.736 287.067 357.668 290.293C353.6 293.519 347.688 292.837 344.462 288.769C341.236 284.701 341.919 278.789 345.986 275.563C350.054 272.336 355.966 273.019 359.192 277.087Z" fill="#263238" stroke="#263238" stroke-miterlimit="10" strokeLinecap="round" stroke-linejoin="round"/>
<path d="M371.624 305.497L369.291 307.347C368.467 308.001 367.285 307.937 366.535 307.198L352.101 292.963C349.508 290.405 349.738 286.155 352.592 283.891C355.446 281.628 359.636 282.373 361.535 285.481L372.106 302.779C372.656 303.678 372.448 304.843 371.624 305.497Z" fill="white" stroke="#263238" stroke-miterlimit="10" strokeLinecap="round" stroke-linejoin="round"/>
<path d="M363.634 289.294C361.641 288.939 359.588 289.457 358.002 290.715C356.416 291.974 355.444 293.854 355.334 295.875C355.329 295.967 355.335 296.058 355.334 296.15L358.05 298.829C357.545 297.978 357.292 296.99 357.346 295.984C357.424 294.538 358.119 293.193 359.253 292.293C360.388 291.394 361.855 291.023 363.28 291.276C364.273 291.453 365.177 291.926 365.892 292.611L363.903 289.357C363.813 289.338 363.725 289.31 363.634 289.294Z" fill="#263238"/>
<path d="M371.745 308.184C370.844 308.899 369.534 308.747 368.82 307.846L367.711 306.447C366.996 305.547 367.148 304.236 368.048 303.522C368.949 302.808 370.259 302.959 370.973 303.86L372.083 305.258C372.798 306.16 372.647 307.47 371.745 308.184Z" fill="white" stroke="#263238" stroke-miterlimit="10" strokeLinecap="round" stroke-linejoin="round"/>
<path d="M426.303 365.891H391.794C390.661 365.891 389.743 364.972 389.743 363.84C389.743 362.707 390.662 361.788 391.794 361.788H426.302C427.435 361.788 428.353 362.707 428.353 363.84C428.354 364.973 427.436 365.891 426.303 365.891Z" fill="#263238"/>
<path d="M385.399 295.909C388.864 295.909 391.673 293.1 391.673 289.635C391.673 286.17 388.864 283.361 385.399 283.361C381.934 283.361 379.125 286.17 379.125 289.635C379.125 293.1 381.934 295.909 385.399 295.909Z" fill="#263238"/>
<path d="M421.355 266.708C424.82 266.708 427.629 263.899 427.629 260.434C427.629 256.97 424.82 254.161 421.355 254.161C417.89 254.161 415.081 256.97 415.081 260.434C415.081 263.899 417.89 266.708 421.355 266.708Z" fill="#263238"/>
<path d="M244.199 313.561H173.445L161.365 362.128H232.119L244.199 313.561Z" fill="#263238" stroke="#263238" stroke-miterlimit="10" strokeLinecap="round" stroke-linejoin="round"/>
<path d="M231.38 362.128H125.865V365.58H231.38V362.128Z" fill="#263238" stroke="#263238" stroke-miterlimit="10" strokeLinecap="round" stroke-linejoin="round"/>
<path d="M232.119 362.128H161.365V365.58H232.119V362.128Z" fill="white" stroke="#263238" stroke-miterlimit="10" strokeLinecap="round" stroke-linejoin="round"/>
<path d="M244.982 313.561H174.228L162.147 362.128H232.902L244.982 313.561Z" fill="white" stroke="#263238" stroke-miterlimit="10" strokeLinecap="round" stroke-linejoin="round"/>
<path d="M464.581 365.464H32V373.018H464.581V365.464Z" fill="#263238" stroke="#263238" stroke-miterlimit="10" strokeLinecap="round" stroke-linejoin="round"/>
</svg>
