<svg width="2310" height="1440" viewBox="0 0 2310 1440" fill="none" xmlns="http://www.w3.org/2000/svg">
<g clip-path="url(#clip0_2297_1755)">
<rect width="2310" height="1440" fill="url(#paint0_linear_2297_1755)"/>
<line x1="2315" y1="567" x2="5" y2="567" stroke="#CCCCCC" stroke-width="2"/>
<line x1="2315" y1="721" x2="5" y2="721" stroke="#CCCCCC" stroke-width="2"/>
<line x1="2305" y1="875" x2="-5" y2="875" stroke="#CCCCCC" stroke-width="2"/>
<line x1="2105.5" y1="-2.18557e-08" x2="2105.5" y2="1440" stroke="white"/>
<line x1="214.5" y1="-2.18557e-08" x2="214.5" y2="1440" stroke="white"/>
<line x1="1150.5" y1="-2.18557e-08" x2="1150.5" y2="1440" stroke="white"/>
<rect x="500" y="364" width="1309" height="713" rx="73" fill="url(#paint1_linear_2297_1755)" stroke="#313131" stroke-width="2"/>
<rect x="538.5" y="406.5" width="1233" height="627" rx="39.5" fill="url(#paint2_linear_2297_1755)" stroke="black"/>
<rect x="595" y="459" width="1120" height="523" rx="85" fill="black"/>
<g filter="url(#filter0_f_2297_1755)">
<rect x="668" y="548" width="983" height="396" rx="68" fill="#0077FF"/>
</g>
<g filter="url(#filter1_i_2297_1755)">
<rect x="648" y="516" width="1013" height="408" rx="68" fill="url(#paint3_linear_2297_1755)"/>
</g>
<g filter="url(#filter2_di_2297_1755)">
<rect x="713" y="581" width="883" height="278" rx="50" fill="url(#paint4_linear_2297_1755)"/>
<rect x="714.5" y="582.5" width="880" height="275" rx="48.5" stroke="#194EB2" stroke-width="3"/>
</g>
<path d="M1045.66 691.85C1043.74 691.207 1041.82 690.6 1039.9 690.029C1040.22 688.707 1040.5 687.386 1040.79 686.065C1045.16 664.78 1042.28 647.674 1032.58 642.031C1023.23 636.639 1007.98 642.245 992.55 655.745C991.021 657.066 989.529 658.459 988.107 659.852C987.147 658.923 986.152 657.995 985.156 657.102C968.982 642.674 952.773 636.603 943.069 642.281C933.755 647.709 930.983 663.816 934.893 683.957C935.284 685.957 935.711 687.922 936.208 689.921C933.933 690.564 931.694 691.279 929.596 692.028C910.614 698.635 897 709.063 897 719.848C897 730.991 911.503 742.169 931.232 748.954C932.831 749.49 934.431 750.025 936.066 750.49C935.533 752.632 935.071 754.739 934.644 756.918C930.912 776.738 933.827 792.452 943.14 797.844C952.738 803.415 968.876 797.701 984.587 783.881C985.832 782.774 987.076 781.631 988.32 780.417C989.884 781.952 991.519 783.416 993.154 784.845C1008.37 797.987 1023.4 803.308 1032.68 797.916C1042.28 792.345 1045.41 775.453 1041.36 754.882C1041.04 753.311 1040.68 751.704 1040.29 750.061C1041.43 749.74 1042.53 749.383 1043.63 749.025C1064.14 742.204 1079 731.169 1079 719.848C1079 709.028 1064.99 698.528 1045.66 691.85ZM997.562 661.53C1010.79 649.959 1023.12 645.424 1028.74 648.674C1034.74 652.138 1037.05 666.137 1033.29 684.529C1033.04 685.743 1032.79 686.922 1032.47 688.1C1024.58 686.314 1016.58 685.029 1008.55 684.315C1003.92 677.672 998.877 671.315 993.403 665.351C994.789 664.03 996.14 662.78 997.562 661.53ZM956.434 738.383C958.247 741.49 960.096 744.597 962.051 747.633C956.505 747.026 950.996 746.133 945.557 744.954C947.121 739.812 949.076 734.49 951.351 729.062C952.986 732.205 954.657 735.312 956.434 738.383ZM945.664 695.421C950.782 694.278 956.221 693.35 961.873 692.636C959.989 695.6 958.141 698.635 956.399 701.707C954.657 704.742 952.951 707.849 951.351 710.992C949.112 705.671 947.228 700.457 945.664 695.421ZM955.404 720.027C957.75 715.099 960.309 710.277 963.011 705.528C965.712 700.778 968.627 696.171 971.684 691.636C977.016 691.243 982.455 691.029 988 691.029C993.545 691.029 999.02 691.243 1004.32 691.636C1007.34 696.135 1010.22 700.742 1012.95 705.456C1015.69 710.17 1018.25 714.992 1020.67 719.884C1018.29 724.812 1015.73 729.669 1012.99 734.455C1010.29 739.205 1007.41 743.811 1004.39 748.383C999.091 748.775 993.581 748.954 988 748.954C982.419 748.954 977.016 748.775 971.791 748.454C968.698 743.919 965.783 739.276 963.046 734.526C960.309 729.776 957.785 724.955 955.404 720.027ZM1019.6 738.312C1021.41 735.169 1023.12 731.991 1024.79 728.777C1027.07 733.955 1029.06 739.205 1030.8 744.597C1025.29 745.847 1019.71 746.811 1014.09 747.454C1016.01 744.454 1017.82 741.383 1019.6 738.312ZM1024.72 710.992C1023.05 707.849 1021.34 704.706 1019.57 701.635C1017.82 698.6 1016.01 695.6 1014.13 692.636C1019.85 693.35 1025.32 694.314 1030.44 695.493C1028.81 700.778 1026.89 705.921 1024.72 710.992ZM988.071 670.815C991.804 674.887 995.323 679.172 998.593 683.6C991.555 683.279 984.481 683.279 977.443 683.6C980.926 678.993 984.516 674.708 988.071 670.815ZM946.837 648.924C952.809 645.424 966.068 650.424 980.038 662.851C980.926 663.637 981.815 664.494 982.739 665.351C977.229 671.315 972.146 677.672 967.489 684.315C959.456 685.029 951.493 686.279 943.602 688.029C943.14 686.207 942.749 684.35 942.358 682.493C939.016 665.208 941.22 652.173 946.837 648.924ZM938.128 743.061C936.635 742.633 935.177 742.169 933.72 741.669C926.148 739.276 917.546 735.49 911.325 730.526C907.735 728.027 905.318 724.17 904.643 719.848C904.643 713.313 915.875 704.956 932.085 699.278C934.111 698.564 936.173 697.921 938.234 697.314C940.652 705.063 943.566 712.67 946.943 720.027C943.531 727.491 940.58 735.205 938.128 743.061ZM979.575 778.06C973.71 783.452 966.921 787.738 959.527 790.666C955.581 792.559 951.031 792.737 946.979 791.13C941.327 787.845 938.981 775.238 942.18 758.275C942.571 756.275 942.998 754.275 943.495 752.311C951.458 754.025 959.491 755.204 967.632 755.811C972.324 762.489 977.478 768.882 982.988 774.881C981.85 775.988 980.713 777.06 979.575 778.06ZM988.284 769.381C984.659 765.453 981.033 761.096 977.514 756.418C980.926 756.561 984.445 756.632 988 756.632C991.661 756.632 995.252 756.561 998.806 756.382C995.536 760.918 992.017 765.239 988.284 769.381ZM1034.74 780.095C1034.42 784.452 1032.29 788.523 1028.88 791.273C1023.23 794.559 1011.18 790.273 998.166 779.06C996.673 777.774 995.18 776.381 993.652 774.953C999.091 768.917 1004.1 762.525 1008.65 755.811C1016.79 755.132 1024.9 753.882 1032.9 752.061C1033.25 753.525 1033.57 754.989 1033.86 756.418C1035.6 764.132 1035.88 772.167 1034.74 780.095ZM1041.21 741.704C1040.22 742.026 1039.22 742.347 1038.19 742.633C1035.7 734.848 1032.65 727.241 1029.13 719.848C1032.54 712.563 1035.42 705.063 1037.84 697.385C1039.69 697.921 1041.46 698.492 1043.17 699.064C1059.73 704.778 1071.36 713.277 1071.36 719.777C1071.36 726.777 1058.95 735.812 1041.21 741.704ZM988 736.348C996.993 736.348 1004.28 729.026 1004.28 719.991C1004.28 710.956 996.993 703.635 988 703.635C979.007 703.635 971.72 710.956 971.72 719.991C971.72 729.026 979.007 736.348 988 736.348Z" fill="url(#paint5_linear_2297_1755)"/>
<path d="M1137.86 715.282H1142.97C1147.99 715.282 1151.69 714.444 1154.07 712.769C1156.46 711.094 1157.66 708.462 1157.66 704.872C1157.66 701.316 1156.43 698.786 1153.97 697.282C1151.55 695.778 1147.78 695.026 1142.67 695.026H1137.86V715.282ZM1137.86 728.205V756.974H1122V682H1143.79C1153.96 682 1161.48 683.863 1166.35 687.59C1171.23 691.282 1173.67 696.906 1173.67 704.462C1173.67 708.872 1172.46 712.803 1170.04 716.256C1167.61 719.675 1164.19 722.359 1159.75 724.308L1181.75 756.974H1164.15L1146.3 728.205H1137.86Z" fill="url(#paint6_linear_2297_1755)"/>
<path d="M1213.62 709.692C1210.31 709.692 1207.72 710.752 1205.84 712.872C1203.97 714.957 1202.89 717.932 1202.62 721.795H1224.52C1224.45 717.932 1223.44 714.957 1221.5 712.872C1219.55 710.752 1216.93 709.692 1213.62 709.692ZM1215.82 758C1206.61 758 1199.42 755.453 1194.23 750.359C1189.05 745.265 1186.46 738.051 1186.46 728.718C1186.46 719.111 1188.84 711.692 1193.62 706.462C1198.43 701.197 1205.06 698.564 1213.52 698.564C1221.6 698.564 1227.89 700.872 1232.39 705.487C1236.9 710.103 1239.15 716.479 1239.15 724.615V732.205H1202.26C1202.43 736.65 1203.75 740.12 1206.2 742.615C1208.66 745.111 1212.1 746.359 1216.54 746.359C1219.98 746.359 1223.24 746 1226.31 745.282C1229.38 744.564 1232.58 743.419 1235.92 741.846V753.949C1233.2 755.316 1230.28 756.325 1227.18 756.974C1224.07 757.658 1220.29 758 1215.82 758Z" fill="url(#paint7_linear_2297_1755)"/>
<path d="M1288.15 756.974L1285.14 749.179H1284.73C1282.1 752.496 1279.39 754.803 1276.59 756.103C1273.83 757.368 1270.22 758 1265.75 758C1260.26 758 1255.93 756.427 1252.75 753.282C1249.62 750.137 1248.05 745.658 1248.05 739.846C1248.05 733.761 1250.16 729.282 1254.39 726.41C1258.65 723.504 1265.07 721.897 1273.63 721.59L1283.55 721.282V718.769C1283.55 712.957 1280.58 710.051 1274.65 710.051C1270.08 710.051 1264.71 711.436 1258.54 714.205L1253.37 703.641C1259.95 700.188 1267.25 698.462 1275.26 698.462C1282.94 698.462 1288.82 700.137 1292.91 703.487C1297 706.838 1299.05 711.932 1299.05 718.769V756.974H1288.15ZM1283.55 730.41L1277.51 730.615C1272.98 730.752 1269.6 731.573 1267.39 733.077C1265.17 734.581 1264.06 736.872 1264.06 739.949C1264.06 744.359 1266.58 746.564 1271.63 746.564C1275.25 746.564 1278.13 745.521 1280.28 743.436C1282.46 741.35 1283.55 738.581 1283.55 735.128V730.41Z" fill="url(#paint8_linear_2297_1755)"/>
<path d="M1338.39 758C1320.59 758 1311.69 748.205 1311.69 728.615C1311.69 718.872 1314.11 711.436 1318.95 706.308C1323.79 701.145 1330.73 698.564 1339.77 698.564C1346.39 698.564 1352.32 699.863 1357.57 702.462L1352.97 714.564C1350.51 713.573 1348.23 712.769 1346.11 712.154C1344 711.504 1341.89 711.179 1339.77 711.179C1331.65 711.179 1327.6 716.957 1327.6 728.513C1327.6 739.726 1331.65 745.333 1339.77 745.333C1342.77 745.333 1345.55 744.94 1348.11 744.154C1350.67 743.333 1353.23 742.068 1355.78 740.359V753.744C1353.26 755.35 1350.7 756.462 1348.11 757.077C1345.55 757.692 1342.31 758 1338.39 758Z" fill="url(#paint9_linear_2297_1755)"/>
<path d="M1393.18 745.538C1395.91 745.538 1399.18 744.94 1403 743.744V755.385C1399.11 757.128 1394.34 758 1388.68 758C1382.44 758 1377.88 756.427 1375.02 753.282C1372.19 750.103 1370.77 745.35 1370.77 739.026V711.385H1363.3V704.769L1371.9 699.538L1376.4 687.436H1386.37V699.641H1402.39V711.385H1386.37V739.026C1386.37 741.248 1386.99 742.889 1388.22 743.949C1389.48 745.009 1391.13 745.538 1393.18 745.538Z" fill="url(#paint10_linear_2297_1755)"/>
</g>
<defs>
<filter id="filter0_f_2297_1755" x="620.6" y="500.6" width="1077.8" height="490.8" filterUnits="userSpaceOnUse" color-interpolation-filters="sRGB">
<feFlood flood-opacity="0" result="BackgroundImageFix"/>
<feBlend mode="normal" in="SourceGraphic" in2="BackgroundImageFix" result="shape"/>
<feGaussianBlur stdDeviation="23.7" result="effect1_foregroundBlur_2297_1755"/>
</filter>
<filter id="filter1_i_2297_1755" x="646" y="500" width="1015" height="424" filterUnits="userSpaceOnUse" color-interpolation-filters="sRGB">
<feFlood flood-opacity="0" result="BackgroundImageFix"/>
<feBlend mode="normal" in="SourceGraphic" in2="BackgroundImageFix" result="shape"/>
<feColorMatrix in="SourceAlpha" type="matrix" values="0 0 0 0 0 0 0 0 0 0 0 0 0 0 0 0 0 0 127 0" result="hardAlpha"/>
<feMorphology radius="8" operator="erode" in="SourceAlpha" result="effect1_innerShadow_2297_1755"/>
<feOffset dx="-2" dy="-16"/>
<feGaussianBlur stdDeviation="38.5"/>
<feComposite in2="hardAlpha" operator="arithmetic" k2="-1" k3="1"/>
<feColorMatrix type="matrix" values="0 0 0 0 0 0 0 0 0 0 0 0 0 0 0 0 0 0 0.25 0"/>
<feBlend mode="normal" in2="shape" result="effect1_innerShadow_2297_1755"/>
</filter>
<filter id="filter2_di_2297_1755" x="675" y="546" width="973" height="368" filterUnits="userSpaceOnUse" color-interpolation-filters="sRGB">
<feFlood flood-opacity="0" result="BackgroundImageFix"/>
<feColorMatrix in="SourceAlpha" type="matrix" values="0 0 0 0 0 0 0 0 0 0 0 0 0 0 0 0 0 0 127 0" result="hardAlpha"/>
<feOffset dx="7" dy="10"/>
<feGaussianBlur stdDeviation="22.5"/>
<feComposite in2="hardAlpha" operator="out"/>
<feColorMatrix type="matrix" values="0 0 0 0 0 0 0 0 0 0 0 0 0 0 0 0 0 0 0.25 0"/>
<feBlend mode="normal" in2="BackgroundImageFix" result="effect1_dropShadow_2297_1755"/>
<feBlend mode="normal" in="SourceGraphic" in2="effect1_dropShadow_2297_1755" result="shape"/>
<feColorMatrix in="SourceAlpha" type="matrix" values="0 0 0 0 0 0 0 0 0 0 0 0 0 0 0 0 0 0 127 0" result="hardAlpha"/>
<feMorphology radius="17" operator="erode" in="SourceAlpha" result="effect2_innerShadow_2297_1755"/>
<feOffset dx="1" dy="20"/>
<feGaussianBlur stdDeviation="27.2"/>
<feComposite in2="hardAlpha" operator="arithmetic" k2="-1" k3="1"/>
<feColorMatrix type="matrix" values="0 0 0 0 0 0 0 0 0 0 0 0 0 0 0 0 0 0 0.25 0"/>
<feBlend mode="normal" in2="shape" result="effect2_innerShadow_2297_1755"/>
</filter>
<linearGradient id="paint0_linear_2297_1755" x1="5.02182" y1="1.96121e-05" x2="2304.98" y2="1440" gradientUnits="userSpaceOnUse">
<stop stop-color="#1C1C1C"/>
<stop offset="1" stop-color="#1C1C1C"/>
</linearGradient>
<linearGradient id="paint1_linear_2297_1755" x1="511.181" y1="363" x2="1797.82" y2="1078" gradientUnits="userSpaceOnUse">
<stop stop-color="#464646"/>
<stop offset="1" stop-color="#171717"/>
</linearGradient>
<linearGradient id="paint2_linear_2297_1755" x1="557.246" y1="406" x2="1752.75" y2="1034" gradientUnits="userSpaceOnUse">
<stop stop-color="#1B1B1B"/>
<stop offset="1" stop-color="#242424"/>
</linearGradient>
<linearGradient id="paint3_linear_2297_1755" x1="1154.5" y1="516" x2="1154.5" y2="924" gradientUnits="userSpaceOnUse">
<stop stop-color="#1A51B8"/>
<stop offset="1" stop-color="#092161"/>
</linearGradient>
<linearGradient id="paint4_linear_2297_1755" x1="1154.5" y1="581" x2="1154.5" y2="859" gradientUnits="userSpaceOnUse">
<stop stop-color="#061E3D"/>
<stop offset="1" stop-color="#13469E"/>
</linearGradient>
<linearGradient id="paint5_linear_2297_1755" x1="988" y1="640" x2="988" y2="800" gradientUnits="userSpaceOnUse">
<stop stop-color="#FEFDFA"/>
<stop offset="0.575" stop-color="#6C95E4"/>
</linearGradient>
<linearGradient id="paint6_linear_2297_1755" x1="1262.5" y1="682" x2="1262.5" y2="758" gradientUnits="userSpaceOnUse">
<stop stop-color="#FEFDFA"/>
<stop offset="0.575" stop-color="#6C95E4"/>
</linearGradient>
<linearGradient id="paint7_linear_2297_1755" x1="1262.5" y1="682" x2="1262.5" y2="758" gradientUnits="userSpaceOnUse">
<stop stop-color="#FEFDFA"/>
<stop offset="0.575" stop-color="#6C95E4"/>
</linearGradient>
<linearGradient id="paint8_linear_2297_1755" x1="1262.5" y1="682" x2="1262.5" y2="758" gradientUnits="userSpaceOnUse">
<stop stop-color="#FEFDFA"/>
<stop offset="0.575" stop-color="#6C95E4"/>
</linearGradient>
<linearGradient id="paint9_linear_2297_1755" x1="1262.5" y1="682" x2="1262.5" y2="758" gradientUnits="userSpaceOnUse">
<stop stop-color="#FEFDFA"/>
<stop offset="0.575" stop-color="#6C95E4"/>
</linearGradient>
<linearGradient id="paint10_linear_2297_1755" x1="1262.5" y1="682" x2="1262.5" y2="758" gradientUnits="userSpaceOnUse">
<stop stop-color="#FEFDFA"/>
<stop offset="0.575" stop-color="#6C95E4"/>
</linearGradient>
<clipPath id="clip0_2297_1755">
<rect width="2310" height="1440" fill="white"/>
</clipPath>
</defs>
</svg>
