<svg width="2310" height="1440" viewBox="0 0 2310 1440" fill="none" xmlns="http://www.w3.org/2000/svg">
<g clip-path="url(#clip0_2297_1755)">
<rect width="2310" height="1440" fill="url(#paint0_linear_2297_1755)"/>
<line x1="2315" y1="567" x2="5" y2="567" stroke="#CCCCCC" stroke-width="2"/>
<line x1="2315" y1="721" x2="5" y2="721" stroke="#CCCCCC" stroke-width="2"/>
<line x1="2305" y1="875" x2="-5" y2="875" stroke="#CCCCCC" stroke-width="2"/>
<line x1="2105.5" y1="-2.18557e-08" x2="2105.5" y2="1440" stroke="white"/>
<line x1="214.5" y1="-2.18557e-08" x2="214.5" y2="1440" stroke="white"/>
<line x1="1150.5" y1="-2.18557e-08" x2="1150.5" y2="1440" stroke="white"/>
<rect x="500" y="364" width="1309" height="713" rx="73" fill="url(#paint1_linear_2297_1755)" stroke="#313131" stroke-width="2"/>
<rect x="538.5" y="406.5" width="1233" height="627" rx="39.5" fill="url(#paint2_linear_2297_1755)" stroke="black"/>
<rect x="595" y="459" width="1120" height="523" rx="85" fill="black"/>
<g filter="url(#filter0_f_2297_1755)">
<rect x="668" y="548" width="983" height="396" rx="68" fill="#0077FF"/>
</g>
<g filter="url(#filter1_i_2297_1755)">
<rect x="648" y="516" width="1013" height="408" rx="68" fill="url(#paint3_linear_2297_1755)"/>
</g>
<g filter="url(#filter2_di_2297_1755)">
<rect x="713" y="581" width="883" height="278" rx="50" fill="url(#paint4_linear_2297_1755)"/>
<rect x="714.5" y="582.5" width="880" height="275" rx="48.5" stroke="#194EB2" stroke-width="3"/>
</g>
<path d="M1146.43 714.728H1152.7C1158.84 714.728 1163.38 713.703 1166.3 711.653C1169.23 709.603 1170.69 706.381 1170.69 701.989C1170.69 697.638 1169.19 694.542 1166.18 692.701C1163.21 690.861 1158.59 689.94 1152.33 689.94H1146.43V714.728ZM1146.43 730.541V765.746H1127V674.001H1153.7C1166.16 674.001 1175.37 676.281 1181.35 680.841C1187.33 685.359 1190.31 692.241 1190.31 701.487C1190.31 706.883 1188.83 711.695 1185.86 715.92C1182.9 720.103 1178.7 723.387 1173.26 725.772L1200.22 765.746H1178.65L1156.78 730.541H1146.43Z" fill="url(#paint5_linear_2297_1755)"/>
<path d="M1259.9 765.746L1257.33 756.772H1256.32C1254.27 760.035 1251.37 762.566 1247.61 764.365C1243.85 766.122 1239.56 767.001 1234.76 767.001C1226.53 767.001 1220.32 764.804 1216.14 760.412C1211.96 755.977 1209.87 749.618 1209.87 741.335V695.588H1228.99V736.566C1228.99 741.628 1229.89 745.435 1231.69 747.987C1233.48 750.497 1236.35 751.752 1240.27 751.752C1245.62 751.752 1249.49 749.974 1251.87 746.418C1254.25 742.82 1255.44 736.879 1255.44 728.596V695.588H1274.56V765.746H1259.9Z" fill="url(#paint6_linear_2297_1755)"/>
<path d="M1343.52 744.912C1343.52 752.107 1341.01 757.588 1336 761.353C1331.02 765.118 1323.56 767.001 1313.62 767.001C1308.52 767.001 1304.17 766.645 1300.58 765.934C1296.99 765.265 1293.62 764.261 1290.49 762.922V747.108C1294.04 748.782 1298.03 750.183 1302.46 751.313C1306.93 752.442 1310.86 753.007 1314.24 753.007C1321.18 753.007 1324.65 750.999 1324.65 746.983C1324.65 745.477 1324.19 744.263 1323.27 743.343C1322.35 742.381 1320.76 741.314 1318.51 740.143C1316.25 738.929 1313.24 737.528 1309.48 735.938C1304.09 733.679 1300.12 731.587 1297.57 729.663C1295.06 727.738 1293.22 725.542 1292.05 723.074C1290.93 720.564 1290.36 717.489 1290.36 713.849C1290.36 707.616 1292.76 702.804 1297.57 699.416C1302.42 695.985 1309.27 694.27 1318.13 694.27C1326.57 694.27 1334.79 696.111 1342.77 699.792L1337 713.598C1333.49 712.092 1330.21 710.858 1327.16 709.896C1324.11 708.933 1320.99 708.452 1317.82 708.452C1312.18 708.452 1309.36 709.979 1309.36 713.033C1309.36 714.748 1310.25 716.234 1312.05 717.489C1313.89 718.744 1317.88 720.605 1324.02 723.074C1329.5 725.291 1333.51 727.362 1336.06 729.286C1338.61 731.211 1340.49 733.428 1341.7 735.938C1342.91 738.448 1343.52 741.439 1343.52 744.912Z" fill="url(#paint7_linear_2297_1755)"/>
<path d="M1387.96 751.752C1391.31 751.752 1395.32 751.02 1400 749.556V763.8C1395.24 765.934 1389.39 767.001 1382.45 767.001C1374.8 767.001 1369.22 765.076 1365.71 761.228C1362.24 757.337 1360.51 751.522 1360.51 743.782V709.958H1351.36V701.863L1361.89 695.462L1367.4 680.653H1379.63V695.588H1399.25V709.958H1379.63V743.782C1379.63 746.502 1380.38 748.51 1381.88 749.807C1383.43 751.103 1385.46 751.752 1387.96 751.752Z" fill="url(#paint8_linear_2297_1755)"/>
<path d="M1058.91 718.048L1052.09 713.826C1052.04 713.201 1051.99 712.598 1051.92 711.988L1057.77 706.519C1058.06 706.252 1058.27 705.917 1058.39 705.545C1058.51 705.173 1058.53 704.777 1058.46 704.393C1058.38 704.01 1058.21 703.653 1057.95 703.355C1057.7 703.057 1057.38 702.829 1057.01 702.691L1049.51 699.879C1049.34 699.291 1049.17 698.698 1048.99 698.116L1053.68 691.607C1053.9 691.289 1054.05 690.919 1054.09 690.53C1054.14 690.142 1054.08 689.748 1053.93 689.387C1053.78 689.026 1053.54 688.709 1053.23 688.466C1052.93 688.224 1052.56 688.064 1052.18 688.001L1044.24 686.704C1043.95 686.163 1043.68 685.626 1043.38 685.094L1046.72 677.776C1046.88 677.42 1046.95 677.028 1046.92 676.638C1046.89 676.248 1046.76 675.872 1046.54 675.547C1046.32 675.222 1046.02 674.958 1045.68 674.779C1045.33 674.601 1044.94 674.515 1044.55 674.529L1036.48 674.813C1036.11 674.351 1035.73 673.892 1035.35 673.438L1037.19 665.576C1037.28 665.195 1037.27 664.798 1037.16 664.422C1037.05 664.046 1036.85 663.703 1036.57 663.427C1036.3 663.15 1035.96 662.949 1035.58 662.841C1035.2 662.734 1034.81 662.724 1034.43 662.813L1026.56 664.666C1026.11 664.285 1025.65 663.909 1025.19 663.538L1025.47 655.469C1025.49 655.077 1025.4 654.687 1025.23 654.337C1025.05 653.986 1024.79 653.687 1024.46 653.467C1024.14 653.248 1023.76 653.116 1023.37 653.083C1022.98 653.051 1022.58 653.119 1022.23 653.282L1014.91 656.635C1014.38 656.341 1013.84 656.06 1013.3 655.782L1012 647.838C1011.94 647.452 1011.78 647.089 1011.53 646.782C1011.29 646.475 1010.98 646.236 1010.61 646.086C1010.25 645.936 1009.86 645.881 1009.47 645.926C1009.08 645.97 1008.71 646.113 1008.39 646.341L1001.88 651.019C1001.29 650.835 1000.7 650.666 1000.11 650.498L997.301 642.998C997.163 642.632 996.935 642.307 996.637 642.054C996.339 641.801 995.982 641.628 995.599 641.551C995.215 641.475 994.819 641.498 994.447 641.617C994.075 641.737 993.74 641.95 993.473 642.235L988.004 648.085C987.394 648.019 986.782 647.966 986.166 647.913L981.954 641.088C981.748 640.755 981.46 640.481 981.119 640.29C980.777 640.1 980.392 640 980.001 640C979.609 640 979.225 640.1 978.883 640.29C978.541 640.481 978.253 640.755 978.048 641.088L973.826 647.907C973.201 647.96 972.598 648.013 971.988 648.079L966.519 642.229C966.252 641.943 965.917 641.731 965.545 641.611C965.173 641.492 964.777 641.469 964.393 641.545C964.01 641.621 963.653 641.794 963.355 642.047C963.057 642.301 962.829 642.625 962.691 642.991L959.879 650.491C959.288 650.663 958.694 650.829 958.11 651.016L951.604 646.329C951.286 646.101 950.916 645.958 950.527 645.913C950.139 645.868 949.745 645.924 949.384 646.073C949.023 646.223 948.706 646.463 948.463 646.77C948.221 647.076 948.06 647.44 947.998 647.826L946.701 655.766C946.16 656.048 945.623 656.326 945.088 656.619L937.776 653.298C937.418 653.135 937.025 653.066 936.634 653.099C936.242 653.131 935.866 653.264 935.54 653.483C935.215 653.702 934.951 654.002 934.774 654.352C934.596 654.703 934.512 655.093 934.529 655.485L934.816 663.551C934.351 663.923 933.879 664.298 933.435 664.679L925.576 662.813C925.195 662.724 924.798 662.734 924.422 662.841C924.046 662.949 923.703 663.15 923.427 663.427C923.15 663.703 922.949 664.046 922.841 664.422C922.734 664.798 922.724 665.195 922.813 665.576L924.666 673.438C924.282 673.891 923.907 674.354 923.535 674.816L915.469 674.532C915.079 674.52 914.691 674.607 914.343 674.785C913.995 674.964 913.698 675.227 913.479 675.551C913.262 675.876 913.132 676.252 913.1 676.642C913.069 677.032 913.138 677.423 913.301 677.779L916.632 685.094C916.338 685.626 916.06 686.166 915.779 686.707L907.838 688.001C907.452 688.064 907.089 688.224 906.782 688.466C906.475 688.709 906.236 689.026 906.086 689.387C905.936 689.748 905.881 690.142 905.926 690.53C905.97 690.919 906.113 691.289 906.341 691.607L911.029 698.113C910.844 698.698 910.676 699.291 910.504 699.882L903.004 702.694C902.638 702.832 902.313 703.06 902.06 703.358C901.807 703.656 901.634 704.013 901.558 704.396C901.481 704.78 901.504 705.176 901.624 705.548C901.743 705.92 901.956 706.256 902.241 706.523L908.091 711.991C908.026 712.601 907.973 713.213 907.919 713.829L901.088 718.048C900.755 718.253 900.481 718.541 900.29 718.883C900.1 719.225 900 719.609 900 720.001C900 720.392 900.1 720.777 900.29 721.119C900.481 721.46 900.755 721.748 901.088 721.954L907.907 726.176C907.96 726.801 908.013 727.401 908.079 728.01L902.229 733.479C901.943 733.746 901.731 734.081 901.611 734.453C901.492 734.825 901.469 735.222 901.545 735.605C901.621 735.988 901.794 736.346 902.047 736.644C902.301 736.941 902.625 737.17 902.991 737.307L910.491 740.119C910.663 740.71 910.829 741.301 911.016 741.885L906.329 748.394C906.101 748.712 905.958 749.083 905.913 749.471C905.868 749.86 905.924 750.253 906.073 750.614C906.223 750.975 906.463 751.292 906.77 751.535C907.076 751.778 907.44 751.938 907.826 752.001L915.769 753.298C916.051 753.835 916.329 754.376 916.623 754.904L913.301 762.226C913.138 762.582 913.069 762.973 913.1 763.363C913.132 763.753 913.262 764.128 913.479 764.454C913.691 764.784 913.987 765.052 914.337 765.231C914.687 765.41 915.077 765.493 915.469 765.473L923.541 765.188C923.91 765.651 924.285 766.109 924.666 766.563L922.813 774.426C922.724 774.807 922.734 775.204 922.841 775.58C922.949 775.956 923.15 776.298 923.427 776.575C923.703 776.851 924.046 777.053 924.422 777.16C924.798 777.267 925.195 777.277 925.576 777.188L933.438 775.335C933.892 775.716 934.352 776.092 934.816 776.463L934.529 784.532C934.515 784.923 934.601 785.311 934.779 785.659C934.958 786.008 935.222 786.305 935.547 786.522C935.872 786.74 936.248 786.871 936.638 786.903C937.028 786.934 937.42 786.866 937.776 786.704L945.098 783.366C945.626 783.66 946.166 783.938 946.704 784.219L948.001 792.163C948.063 792.549 948.223 792.913 948.466 793.22C948.709 793.527 949.026 793.766 949.387 793.916C949.749 794.066 950.142 794.12 950.531 794.075C950.919 794.03 951.29 793.886 951.607 793.657L958.116 788.969C958.698 789.157 959.291 789.323 959.882 789.494L962.694 796.994C962.832 797.36 963.061 797.684 963.359 797.937C963.657 798.189 964.014 798.362 964.397 798.438C964.78 798.514 965.176 798.492 965.548 798.373C965.92 798.253 966.255 798.042 966.523 797.757L971.991 791.907C972.601 791.973 973.216 792.026 973.829 792.079L978.051 798.898C978.257 799.23 978.544 799.505 978.886 799.695C979.228 799.886 979.613 799.986 980.004 799.986C980.395 799.986 980.78 799.886 981.122 799.695C981.464 799.505 981.751 799.23 981.957 798.898L986.179 792.079C986.804 792.026 987.407 791.973 988.016 791.904L993.485 797.757C993.752 798.042 994.088 798.253 994.46 798.373C994.832 798.492 995.228 798.514 995.611 798.438C995.994 798.362 996.351 798.189 996.649 797.937C996.947 797.684 997.175 797.36 997.313 796.994L1000.13 789.494C1000.72 789.323 1001.31 789.157 1001.89 788.969L1008.4 793.657C1008.71 793.886 1009.09 794.03 1009.47 794.075C1009.86 794.12 1010.26 794.066 1010.62 793.916C1010.98 793.766 1011.3 793.527 1011.54 793.22C1011.78 792.913 1011.94 792.549 1012 792.163L1013.3 784.219C1013.84 783.938 1014.38 783.66 1014.91 783.366L1022.23 786.704C1022.58 786.866 1022.98 786.934 1023.37 786.903C1023.76 786.871 1024.13 786.74 1024.46 786.522C1024.78 786.305 1025.05 786.008 1025.23 785.659C1025.4 785.311 1025.49 784.923 1025.48 784.532L1025.19 776.463C1025.65 776.09 1026.11 775.714 1026.57 775.335L1034.43 777.188C1034.81 777.277 1035.2 777.267 1035.58 777.16C1035.96 777.053 1036.3 776.851 1036.57 776.575C1036.85 776.298 1037.05 775.956 1037.16 775.58C1037.27 775.204 1037.28 774.807 1037.19 774.426L1035.34 766.563C1035.72 766.111 1036.09 765.653 1036.46 765.188L1044.53 765.473C1044.92 765.49 1045.31 765.405 1045.66 765.227C1046.01 765.048 1046.31 764.782 1046.52 764.454C1046.74 764.129 1046.87 763.753 1046.9 763.363C1046.93 762.973 1046.87 762.582 1046.7 762.226L1043.37 754.907C1043.66 754.376 1043.94 753.835 1044.22 753.298L1052.16 752.001C1052.55 751.938 1052.91 751.778 1053.22 751.535C1053.53 751.292 1053.77 750.975 1053.92 750.614C1054.07 750.253 1054.12 749.86 1054.08 749.471C1054.03 749.083 1053.89 748.712 1053.66 748.394L1048.97 741.885C1049.16 741.301 1049.33 740.71 1049.49 740.119L1056.99 737.307C1057.36 737.17 1057.69 736.941 1057.94 736.644C1058.19 736.346 1058.36 735.988 1058.44 735.605C1058.52 735.222 1058.49 734.825 1058.37 734.453C1058.25 734.081 1058.04 733.746 1057.76 733.479L1051.91 728.01C1051.97 727.401 1052.03 726.788 1052.08 726.176L1058.9 721.954C1059.23 721.748 1059.5 721.46 1059.7 721.119C1059.89 720.777 1059.99 720.392 1059.99 720.001C1059.99 719.609 1059.89 719.225 1059.7 718.883C1059.5 718.541 1059.23 718.253 1058.9 718.048H1058.91ZM1011.73 758.385C1010.6 758.143 1009.42 758.359 1008.45 758.985C1007.49 759.611 1006.81 760.595 1006.56 761.723L1004.18 772.869C996.494 776.349 988.152 778.13 979.719 778.09C971.286 778.05 962.961 776.19 955.313 772.638L952.926 761.494C952.807 760.937 952.58 760.409 952.258 759.94C951.935 759.471 951.523 759.07 951.045 758.76C950.568 758.45 950.034 758.237 949.474 758.134C948.914 758.03 948.339 758.038 947.782 758.157L937.935 760.269C936.109 758.385 934.411 756.379 932.854 754.266H980.719C981.257 754.266 981.623 754.176 981.623 753.669V736.735C981.623 736.244 981.257 736.138 980.719 736.138H966.71L966.726 725.404H981.876C983.254 725.404 989.269 725.804 991.185 733.488C991.782 735.848 993.113 743.532 994.016 745.988C994.919 748.744 998.579 754.257 1002.49 754.257H1027.19C1025.53 756.475 1023.72 758.573 1021.77 760.535L1011.73 758.385ZM1019.78 769.163C1019.78 770.104 1019.5 771.025 1018.98 771.807C1018.45 772.59 1017.71 773.201 1016.84 773.562C1015.97 773.923 1015.02 774.018 1014.09 773.835C1013.17 773.653 1012.32 773.201 1011.65 772.536C1010.99 771.872 1010.53 771.025 1010.35 770.102C1010.16 769.179 1010.25 768.222 1010.61 767.351C1010.97 766.481 1011.58 765.736 1012.36 765.211C1013.14 764.686 1014.06 764.404 1015 764.401H1015.14C1016.38 764.436 1017.55 764.953 1018.42 765.842C1019.28 766.732 1019.76 767.923 1019.76 769.163H1019.78ZM949.273 768.951C949.272 769.892 948.992 770.813 948.469 771.595C947.945 772.378 947.201 772.988 946.331 773.348C945.461 773.708 944.504 773.802 943.58 773.618C942.657 773.435 941.808 772.981 941.142 772.315C940.477 771.649 940.023 770.801 939.839 769.877C939.655 768.954 939.749 767.997 940.109 767.126C940.47 766.256 941.079 765.513 941.862 764.989C942.645 764.465 943.565 764.186 944.507 764.185H944.648C945.884 764.226 947.057 764.746 947.917 765.635C948.777 766.524 949.258 767.713 949.257 768.951H949.273ZM921.741 713.173L932.001 708.61C932.522 708.379 932.993 708.048 933.386 707.635C933.779 707.222 934.086 706.735 934.291 706.203C934.496 705.671 934.594 705.104 934.58 704.534C934.565 703.964 934.439 703.403 934.207 702.882L932.091 698.126H940.391V735.541H923.641C921.573 728.277 920.928 720.682 921.741 713.173ZM918.223 701.904C918.222 701.278 918.345 700.659 918.584 700.081C918.823 699.503 919.173 698.978 919.615 698.535C920.057 698.093 920.582 697.742 921.16 697.502C921.737 697.262 922.357 697.139 922.982 697.138H923.126C924.061 697.165 924.969 697.466 925.734 698.005C926.499 698.544 927.089 699.297 927.429 700.169C927.769 701.042 927.844 701.995 927.645 702.909C927.447 703.824 926.983 704.66 926.312 705.313C925.641 705.966 924.792 706.406 923.872 706.579C922.952 706.752 922.002 706.65 921.139 706.286C920.277 705.922 919.541 705.312 919.023 704.532C918.505 703.752 918.229 702.837 918.229 701.901L918.223 701.904ZM966.71 709.557L966.726 698.519H986.494C987.519 698.519 993.704 699.698 993.704 704.338C993.704 708.179 988.957 709.557 985.054 709.557H966.71ZM1024.69 735.848C1021.63 736.201 1018.24 734.56 1017.81 732.694C1016.01 722.541 1013 720.382 1008.26 716.632C1014.15 712.898 1020.28 707.369 1020.28 699.988C1020.28 692.013 1014.81 686.991 1011.09 684.526C1005.85 681.088 1000.07 680.391 998.507 680.391H936.351C944.945 670.789 956.466 664.287 969.129 661.894L976.463 669.582C976.855 669.995 977.325 670.326 977.846 670.556C978.367 670.787 978.928 670.912 979.497 670.925C980.066 670.938 980.633 670.838 981.163 670.631C981.693 670.424 982.178 670.114 982.588 669.719L990.794 661.907C999.154 663.473 1007.07 666.84 1014 671.774C1020.93 676.708 1026.7 683.09 1030.91 690.479L1025.29 703.157C1024.83 704.211 1024.8 705.403 1025.22 706.475C1025.63 707.547 1026.45 708.413 1027.5 708.885L1038.31 713.676C1038.65 717.055 1038.69 720.458 1038.44 723.844H1032.41C1031.81 723.844 1031.57 724.241 1031.57 724.823V727.579C1031.56 734.063 1027.91 735.494 1024.69 735.848ZM975.001 658.816C975.003 657.556 975.505 656.349 976.396 655.458C977.286 654.567 978.494 654.066 979.754 654.063H979.894C980.831 654.089 981.739 654.39 982.505 654.93C983.271 655.469 983.86 656.222 984.201 657.094C984.541 657.967 984.616 658.921 984.417 659.836C984.218 660.751 983.753 661.588 983.081 662.24C982.409 662.893 981.56 663.333 980.639 663.505C979.719 663.677 978.768 663.574 977.905 663.209C977.043 662.844 976.307 662.232 975.791 661.451C975.274 660.669 974.999 659.753 975.001 658.816ZM1036.51 706.876C1035.89 706.876 1035.27 706.752 1034.69 706.513C1034.11 706.274 1033.59 705.923 1033.15 705.481C1032.7 705.039 1032.35 704.514 1032.11 703.936C1031.87 703.358 1031.75 702.739 1031.75 702.113C1031.75 701.488 1031.87 700.868 1032.11 700.291C1032.35 699.713 1032.7 699.188 1033.15 698.746C1033.59 698.303 1034.11 697.953 1034.69 697.713C1035.27 697.474 1035.89 697.351 1036.51 697.351H1036.65C1037.91 697.369 1039.12 697.888 1040 698.794C1040.88 699.7 1041.36 700.919 1041.34 702.182C1041.33 703.445 1040.81 704.649 1039.9 705.529C1038.99 706.41 1037.78 706.894 1036.51 706.876Z" fill="url(#paint9_linear_2297_1755)"/>
</g>
<defs>
<filter id="filter0_f_2297_1755" x="620.6" y="500.6" width="1077.8" height="490.8" filterUnits="userSpaceOnUse" color-interpolation-filters="sRGB">
<feFlood flood-opacity="0" result="BackgroundImageFix"/>
<feBlend mode="normal" in="SourceGraphic" in2="BackgroundImageFix" result="shape"/>
<feGaussianBlur stdDeviation="23.7" result="effect1_foregroundBlur_2297_1755"/>
</filter>
<filter id="filter1_i_2297_1755" x="646" y="500" width="1015" height="424" filterUnits="userSpaceOnUse" color-interpolation-filters="sRGB">
<feFlood flood-opacity="0" result="BackgroundImageFix"/>
<feBlend mode="normal" in="SourceGraphic" in2="BackgroundImageFix" result="shape"/>
<feColorMatrix in="SourceAlpha" type="matrix" values="0 0 0 0 0 0 0 0 0 0 0 0 0 0 0 0 0 0 127 0" result="hardAlpha"/>
<feMorphology radius="8" operator="erode" in="SourceAlpha" result="effect1_innerShadow_2297_1755"/>
<feOffset dx="-2" dy="-16"/>
<feGaussianBlur stdDeviation="38.5"/>
<feComposite in2="hardAlpha" operator="arithmetic" k2="-1" k3="1"/>
<feColorMatrix type="matrix" values="0 0 0 0 0 0 0 0 0 0 0 0 0 0 0 0 0 0 0.25 0"/>
<feBlend mode="normal" in2="shape" result="effect1_innerShadow_2297_1755"/>
</filter>
<filter id="filter2_di_2297_1755" x="675" y="546" width="973" height="368" filterUnits="userSpaceOnUse" color-interpolation-filters="sRGB">
<feFlood flood-opacity="0" result="BackgroundImageFix"/>
<feColorMatrix in="SourceAlpha" type="matrix" values="0 0 0 0 0 0 0 0 0 0 0 0 0 0 0 0 0 0 127 0" result="hardAlpha"/>
<feOffset dx="7" dy="10"/>
<feGaussianBlur stdDeviation="22.5"/>
<feComposite in2="hardAlpha" operator="out"/>
<feColorMatrix type="matrix" values="0 0 0 0 0 0 0 0 0 0 0 0 0 0 0 0 0 0 0.25 0"/>
<feBlend mode="normal" in2="BackgroundImageFix" result="effect1_dropShadow_2297_1755"/>
<feBlend mode="normal" in="SourceGraphic" in2="effect1_dropShadow_2297_1755" result="shape"/>
<feColorMatrix in="SourceAlpha" type="matrix" values="0 0 0 0 0 0 0 0 0 0 0 0 0 0 0 0 0 0 127 0" result="hardAlpha"/>
<feMorphology radius="17" operator="erode" in="SourceAlpha" result="effect2_innerShadow_2297_1755"/>
<feOffset dx="1" dy="20"/>
<feGaussianBlur stdDeviation="27.2"/>
<feComposite in2="hardAlpha" operator="arithmetic" k2="-1" k3="1"/>
<feColorMatrix type="matrix" values="0 0 0 0 0 0 0 0 0 0 0 0 0 0 0 0 0 0 0.25 0"/>
<feBlend mode="normal" in2="shape" result="effect2_innerShadow_2297_1755"/>
</filter>
<linearGradient id="paint0_linear_2297_1755" x1="5.02182" y1="1.96121e-05" x2="2304.98" y2="1440" gradientUnits="userSpaceOnUse">
<stop stop-color="#1C1C1C"/>
<stop offset="1" stop-color="#1C1C1C"/>
</linearGradient>
<linearGradient id="paint1_linear_2297_1755" x1="511.181" y1="363" x2="1797.82" y2="1078" gradientUnits="userSpaceOnUse">
<stop stop-color="#464646"/>
<stop offset="1" stop-color="#171717"/>
</linearGradient>
<linearGradient id="paint2_linear_2297_1755" x1="557.246" y1="406" x2="1752.75" y2="1034" gradientUnits="userSpaceOnUse">
<stop stop-color="#1B1B1B"/>
<stop offset="1" stop-color="#242424"/>
</linearGradient>
<linearGradient id="paint3_linear_2297_1755" x1="1154.5" y1="516" x2="1154.5" y2="924" gradientUnits="userSpaceOnUse">
<stop stop-color="#1A51B8"/>
<stop offset="1" stop-color="#092161"/>
</linearGradient>
<linearGradient id="paint4_linear_2297_1755" x1="1154.5" y1="581" x2="1154.5" y2="859" gradientUnits="userSpaceOnUse">
<stop stop-color="#061E3D"/>
<stop offset="1" stop-color="#13469E"/>
</linearGradient>
<linearGradient id="paint5_linear_2297_1755" x1="1263.5" y1="674.001" x2="1263.5" y2="767.001" gradientUnits="userSpaceOnUse">
<stop stop-color="#FEFDFA"/>
<stop offset="1" stop-color="#6C95E4"/>
</linearGradient>
<linearGradient id="paint6_linear_2297_1755" x1="1263.5" y1="674.001" x2="1263.5" y2="767.001" gradientUnits="userSpaceOnUse">
<stop stop-color="#FEFDFA"/>
<stop offset="1" stop-color="#6C95E4"/>
</linearGradient>
<linearGradient id="paint7_linear_2297_1755" x1="1263.5" y1="674.001" x2="1263.5" y2="767.001" gradientUnits="userSpaceOnUse">
<stop stop-color="#FEFDFA"/>
<stop offset="1" stop-color="#6C95E4"/>
</linearGradient>
<linearGradient id="paint8_linear_2297_1755" x1="1263.5" y1="674.001" x2="1263.5" y2="767.001" gradientUnits="userSpaceOnUse">
<stop stop-color="#FEFDFA"/>
<stop offset="1" stop-color="#6C95E4"/>
</linearGradient>
<linearGradient id="paint9_linear_2297_1755" x1="979.993" y1="640" x2="979.993" y2="799.986" gradientUnits="userSpaceOnUse">
<stop stop-color="#FEFDFA"/>
<stop offset="1" stop-color="#6C95E4"/>
</linearGradient>
<clipPath id="clip0_2297_1755">
<rect width="2310" height="1440" fill="white"/>
</clipPath>
</defs>
</svg>
