<svg width="500" height="500" viewBox="0 0 500 500" fill="none" xmlns="http://www.w3.org/2000/svg">
<path opacity="0.7" d="M67.9308 167.086C67.9308 167.086 40.0538 239.074 79.2278 311.589C118.402 384.105 199.107 422.391 263.697 455.137C328.287 487.883 395.358 471.936 427.231 418.299C459.104 364.662 415.386 326.371 415.334 249.881C415.283 173.391 426.781 153.139 385.371 88.5169C343.961 23.8939 242.312 9.59194 165.471 57.5209C88.6308 105.45 67.9308 167.086 67.9308 167.086Z" fill="white"/>
<path d="M193.95 24.4061C160.039 30.0021 127.532 42.3171 99.9126 63.6071C59.7336 94.5781 37.4456 140.88 35.1206 191.234C33.5856 224.471 41.5226 256.88 51.1096 288.44C63.4426 329.041 71.3996 375.289 97.1546 409.992C137.247 464.015 214.743 486.774 279.55 477.107C321.42 470.861 365.66 447.081 378.539 404.104C383.307 388.192 385.631 371.095 393.782 356.39C403.549 338.77 421.265 328.479 434.713 314.134C451.328 296.411 458.021 274.333 462.16 250.977C471.218 199.863 458.848 145.705 428.982 103.305C397.813 59.0561 351.57 35.3221 299.07 25.9801C293.308 24.9551 287.517 24.0901 281.71 23.3621C252.878 19.7481 222.902 19.6281 193.95 24.4061Z" fill="#27DEBF"/>
<path opacity="0.7" d="M193.95 24.4061C160.039 30.0021 127.532 42.3171 99.9126 63.6071C59.7336 94.5781 37.4456 140.88 35.1206 191.234C33.5856 224.471 41.5226 256.88 51.1096 288.44C63.4426 329.041 71.3996 375.289 97.1546 409.992C137.247 464.015 214.743 486.774 279.55 477.107C321.42 470.861 365.66 447.081 378.539 404.104C383.307 388.192 385.631 371.095 393.782 356.39C403.549 338.77 421.265 328.479 434.713 314.134C451.328 296.411 458.021 274.333 462.16 250.977C471.218 199.863 458.848 145.705 428.982 103.305C397.813 59.0561 351.57 35.3221 299.07 25.9801C293.308 24.9551 287.517 24.0901 281.71 23.3621C252.878 19.7481 222.902 19.6281 193.95 24.4061Z" fill="white"/>
<path opacity="0.2" d="M201.282 382.659L284.961 367.047C284.961 367.047 303.899 426.809 307.724 434.536L305.704 439.229L306.965 447.08L223.82 466L217.153 460.743L201.282 382.659Z" fill="black" fill-opacity="0.7"/>
<path d="M278.929 360.646L197.996 379.809L217.158 460.741L298.091 441.579L278.929 360.646Z" fill="#27DEBF"/>
<mask id="mask0_116_2925" style="mask-type:luminance" maskUnits="userSpaceOnUse" x="197" y="360" width="102" height="101">
<path d="M278.929 360.646L197.996 379.809L217.158 460.741L298.091 441.579L278.929 360.646Z" fill="white"/>
</mask>
<g mask="url(#mask0_116_2925)">
<path opacity="0.2" d="M284.093 382.475L297.52 439.187L220.344 457.459C211.042 434.186 203.93 404.886 203.93 404.886L284.093 382.475Z" fill="black" fill-opacity="0.7"/>
</g>
<path d="M278.929 360.646L197.996 379.809L217.158 460.741L298.091 441.579L278.929 360.646Z" stroke="#263238" stroke-miterlimit="10" strokeLinecap="round" stroke-linejoin="round"/>
<path d="M300.606 436.422C280.385 441.21 251.732 445.712 234.452 448.251C225.412 449.569 219.472 450.349 219.472 450.349C211.811 436.306 197.993 379.81 197.993 379.81L278.926 360.649C279.08 361.342 279.222 362.028 279.373 362.711C289.027 406.443 300.606 436.422 300.606 436.422Z" fill="white"/>
<mask id="mask1_116_2925" style="mask-type:luminance" maskUnits="userSpaceOnUse" x="197" y="360" width="104" height="91">
<path d="M300.606 436.422C280.385 441.21 251.732 445.712 234.452 448.251C225.412 449.569 219.472 450.349 219.472 450.349C211.811 436.306 197.993 379.81 197.993 379.81L278.926 360.649C279.08 361.342 279.222 362.028 279.373 362.711C289.027 406.443 300.606 436.422 300.606 436.422Z" fill="white"/>
</mask>
<g mask="url(#mask1_116_2925)">
<path opacity="0.4" d="M300.606 436.422C280.385 441.21 251.732 445.712 234.452 448.251C221.474 439.619 218.343 431.157 218.5 423.094C218.676 413.506 260.41 422.873 269.132 413.383C275.354 406.614 275.174 377.876 279.373 362.71C289.027 406.443 300.606 436.422 300.606 436.422Z" fill="#27DEBF"/>
</g>
<path d="M300.606 436.422C280.385 441.21 251.732 445.712 234.452 448.251C225.412 449.569 219.472 450.349 219.472 450.349C211.811 436.306 197.993 379.81 197.993 379.81L278.926 360.649C279.08 361.342 279.222 362.028 279.373 362.711C289.027 406.443 300.606 436.422 300.606 436.422Z" stroke="#263238" stroke-miterlimit="10" strokeLinecap="round" stroke-linejoin="round"/>
<path d="M211.646 392.047C212.745 390.775 214.068 389.698 215.537 388.882C215.938 389.908 216.339 390.934 216.74 391.96C218.138 391.452 219.536 390.944 220.934 390.436C222.333 389.928 223.887 389.274 224.422 387.885C225.192 389.714 227.846 389.405 229.736 388.797C242.818 384.588 256.197 381.301 269.74 378.97" stroke="#263238" stroke-miterlimit="10" strokeLinecap="round" stroke-linejoin="round"/>
<path d="M213.682 403.245C212.807 402.795 213.529 401.231 214.51 401.307C215.491 401.383 216.118 402.446 216.196 403.427C217.048 403.335 217.8 402.643 217.964 401.802C218.426 402.124 218.888 402.447 219.35 402.769C218.87 402.083 219.105 401.008 219.828 400.585C220.551 400.162 221.603 400.483 221.966 401.238C221.866 400.103 222.309 398.456 223.416 398.724C223.78 398.812 224.048 399.111 224.352 399.331C225.668 400.282 227.855 399.373 228.11 397.77C229.2 399.013 231.148 398.84 232.778 398.562C237.633 397.735 242.487 396.908 247.342 396.081C247.475 395.164 247.938 393.979 248.856 394.104C249.39 394.177 249.735 394.695 250.201 394.966C250.86 395.35 251.688 395.207 252.434 395.046C258.989 393.629 265.431 391.691 271.679 389.258" stroke="#263238" stroke-miterlimit="10" strokeLinecap="round" stroke-linejoin="round"/>
<path d="M218.696 416.021C220.636 416.191 222.613 415.919 224.435 415.23C223.746 413.888 224.167 412.076 225.378 411.175C225.965 411.551 226.553 411.928 227.14 412.304C234.215 412.143 241.272 411.171 248.127 409.413C251.205 408.624 254.24 407.677 257.273 406.732C263.027 404.938 268.78 403.144 274.534 401.35" stroke="#263238" stroke-miterlimit="10" strokeLinecap="round" stroke-linejoin="round"/>
<path opacity="0.2" d="M352.439 61.5102L350.831 61.6102C349.202 61.7112 347.866 60.8272 347.456 59.3302C345.006 50.3802 336.025 45.3532 325.612 45.9982C316.225 46.5802 306.344 52.4982 300.616 60.6782C299.068 62.8892 296.696 64.4052 294.294 64.5542L286.304 65.0492C283.902 65.1982 281.967 63.9492 281.093 61.8882C277.858 54.2642 269.668 49.4662 260.282 50.0482C249.868 50.6942 239.109 56.9442 233.758 66.3782C232.863 67.9552 231.218 69.0242 229.59 69.1252L227.982 69.2252C227.251 69.2702 226.561 69.9182 226.443 70.6712L225.808 74.6942C225.71 75.3142 226.031 75.8312 226.588 75.9522L228.535 76.5352C230.062 76.9922 231.025 78.3762 230.933 80.1092C230.247 92.9192 239.287 102.333 252.159 101.535C264.575 100.765 276.381 90.7532 280.237 78.3972C280.862 76.3962 282.631 74.7332 284.605 74.2382C286.938 73.6532 289.934 73.2272 293.037 73.6452C294.917 73.8982 296.235 75.3682 296.23 77.3552C296.2 89.4982 305.056 98.2562 317.489 97.4862C330.36 96.6882 342.579 85.9572 345.963 72.9792C346.421 71.2232 347.844 69.6922 349.547 69.0342L351.718 68.1962C352.325 68.0032 352.816 67.4362 352.914 66.8162L353.549 62.7932C353.667 62.0392 353.171 61.4652 352.439 61.5102ZM252.694 98.1372C240.731 98.8792 232.581 89.4582 234.525 77.1362C236.469 64.8152 247.783 54.1882 259.746 53.4462C271.709 52.7042 279.859 62.1252 277.915 74.4462C275.97 86.7682 264.657 97.3962 252.694 98.1372ZM281.48 71.8532C281.528 71.1522 281.546 70.4612 281.536 69.7812C281.528 69.2202 282.046 68.6782 282.605 68.6432L296.924 67.7552C297.483 67.7202 297.838 68.2092 297.651 68.7822C297.427 69.4682 297.227 70.1612 297.054 70.8612C290.892 69.0492 284.741 70.6572 281.48 71.8532ZM318.025 94.0872C306.062 94.8292 297.912 85.4082 299.856 73.0862C301.8 60.7652 313.114 50.1382 325.077 49.3962C337.04 48.6542 345.19 58.0752 343.246 70.3962C341.301 82.7192 329.987 93.3462 318.025 94.0872Z" fill="black" fill-opacity="0.7"/>
<path d="M342.167 64.0234L250.411 76.1784C246.029 76.7584 242.098 79.1694 239.593 82.8114L226.159 102.346C225.626 103.12 225.958 104.189 226.836 104.526C228.688 105.236 230.785 104.585 231.91 102.951L244.327 84.9104C245.823 82.7364 248.162 81.2884 250.776 80.9174L342.505 67.9214L342.167 64.0234Z" fill="#263238"/>
<path d="M218.379 71.7192L310.924 70.1882C315.344 70.1152 319.588 71.9182 322.603 75.1512L338.775 92.4872C339.416 93.1742 339.246 94.2802 338.427 94.7432C336.7 95.7192 334.53 95.3852 333.176 93.9352L318.231 77.9262C316.43 75.9972 313.903 74.9102 311.263 74.9302L218.62 75.6262L218.379 71.7192Z" fill="#263238"/>
<path d="M274.47 77.6074C275.609 77.8234 275.555 85.5794 272.982 88.2414C270.409 90.9034 267.754 84.4694 268.431 82.1744C269.108 79.8784 270.9 76.9304 274.47 77.6074Z" fill="#27DEBF" stroke="#263238" stroke-miterlimit="10" strokeLinecap="round" stroke-linejoin="round"/>
<path d="M290.548 76.6103C289.444 76.9653 290.456 84.6553 293.337 86.9793C296.219 89.3023 298.059 82.5903 297.104 80.3963C296.149 78.2023 294.007 75.4973 290.548 76.6103Z" fill="#27DEBF" stroke="#263238" stroke-miterlimit="10" strokeLinecap="round" stroke-linejoin="round"/>
<path opacity="0.5" d="M233.22 59.3854C238.061 55.2454 248.306 48.1924 259.528 54.8994C270.75 61.6064 274.625 68.8804 272.318 78.7704C270.011 88.6604 262.95 101.842 246.311 99.5394C229.673 97.2364 218.187 72.2424 233.22 59.3854Z" fill="#27DEBF"/>
<path opacity="0.5" d="M298.646 56.1862C303.487 52.0462 313.732 44.9942 324.953 51.7002C336.174 58.4062 340.05 65.6812 337.743 75.5712C335.436 85.4612 328.375 98.6432 311.736 96.3402C295.099 94.0372 283.613 69.0432 298.646 56.1862Z" fill="#27DEBF"/>
<path d="M344.078 62.5982L342.47 62.6982C340.841 62.7992 339.292 61.9432 338.547 60.4912C334.093 51.8082 323.884 46.9462 313.47 47.5912C304.083 48.1732 295.37 53.9352 291.364 61.8852C290.281 64.0342 288.211 65.5092 285.809 65.6582L277.819 66.1532C275.417 66.3022 273.181 65.0932 271.841 63.0952C266.884 55.7012 257.526 51.0592 248.139 51.6412C237.725 52.2862 228.195 58.3732 224.847 67.5392C224.287 69.0722 222.855 70.1122 221.227 70.2132L219.619 70.3132C218.888 70.3582 218.331 70.9882 218.377 71.7192L218.619 75.6252C218.656 76.2272 219.095 76.7282 219.686 76.8442L221.788 77.4062C223.437 77.8472 224.718 79.1882 225.005 80.8702C227.13 93.3052 238.366 102.425 251.237 101.627C263.653 100.857 273.416 91.1172 274.605 79.1182C274.798 77.1752 276.225 75.5572 278.117 75.0732C280.353 74.5012 283.296 74.0822 286.534 74.4822C288.495 74.7242 290.155 76.1492 290.588 78.0772C293.231 89.8632 304.135 98.3482 316.568 97.5772C329.439 96.7792 339.463 86.3412 340.035 73.7392C340.113 72.0342 341.218 70.5452 342.8 69.9042L344.817 69.0862C345.39 68.8972 345.763 68.3462 345.725 67.7442L345.483 63.8382C345.439 63.1092 344.81 62.5532 344.078 62.5982ZM251.034 98.3302C239.071 99.0722 228.736 89.9432 227.994 77.9802C227.252 66.0172 236.381 55.6822 248.344 54.9402C260.307 54.1982 270.642 63.3272 271.384 75.2902C272.126 87.2532 262.997 97.5892 251.034 98.3302ZM274.427 72.7672C274.321 72.0862 274.187 71.4162 274.027 70.7562C273.895 70.2122 274.301 69.6842 274.86 69.6502L289.179 68.7622C289.738 68.7272 290.205 69.2012 290.142 69.7582C290.066 70.4242 290.016 71.0982 289.994 71.7772C283.35 70.0272 277.47 71.6002 274.427 72.7672ZM316.365 94.2812C304.402 95.0232 294.067 85.8942 293.325 73.9312C292.583 61.9682 301.712 51.6332 313.675 50.8912C325.638 50.1492 335.973 59.2782 336.715 71.2412C337.457 83.2032 328.328 93.5392 316.365 94.2812Z" fill="#757575" stroke="#263238" stroke-miterlimit="10" strokeLinecap="round" stroke-linejoin="round"/>
<path opacity="0.4" d="M234.999 90.6373C234.999 90.6373 226.988 80.0553 232.643 67.7543C237.731 56.6883 249.66 55.4283 255.285 57.8023L242.954 79.2703C244.593 71.2523 248.054 64.0223 248.054 64.0223C248.054 64.0223 237.186 75.0113 234.999 90.6373Z" fill="white"/>
<path opacity="0.4" d="M300.175 85.9694C300.175 85.9694 292.164 75.3873 297.819 63.0863C302.907 52.0203 314.836 50.7603 320.461 53.1344L308.129 74.6023C309.058 66.8863 313.229 59.3544 313.229 59.3544C313.229 59.3544 302.362 70.3434 300.175 85.9694Z" fill="white"/>
<path opacity="0.2" d="M65.6008 272.842L68.5048 285.871L71.8128 271.123L63.1098 123.788H57.1758L65.6008 272.842Z" fill="black" fill-opacity="0.7"/>
<path d="M60.3035 121.997L68.5045 270.2L65.4835 282.386L61.1365 270.608L52.9355 122.405C52.8785 121.377 53.6615 120.502 54.6895 120.445L58.3435 120.243C59.3715 120.186 60.2465 120.969 60.3035 121.997Z" fill="#27DEBF"/>
<mask id="mask2_116_2925" style="mask-type:luminance" maskUnits="userSpaceOnUse" x="52" y="120" width="17" height="163">
<path d="M60.3035 121.997L68.5045 270.2L65.4835 282.386L61.1365 270.608L52.9355 122.405C52.8785 121.377 53.6615 120.502 54.6895 120.445L58.3435 120.243C59.3715 120.186 60.2465 120.969 60.3035 121.997Z" fill="white"/>
</mask>
<g mask="url(#mask2_116_2925)">
<path opacity="0.2" d="M65.4826 282.386L61.1356 270.608L52.9346 122.405C52.8776 121.377 53.6606 120.502 54.6886 120.445L55.1976 120.417L63.4586 269.709L65.4826 282.386Z" fill="black" fill-opacity="0.7"/>
</g>
<path d="M60.3035 121.997L68.5045 270.2L65.4835 282.386L61.1365 270.608L52.9355 122.405C52.8785 121.377 53.6615 120.502 54.6895 120.445L58.3435 120.243C59.3715 120.186 60.2465 120.969 60.3035 121.997Z" stroke="#263238" stroke-miterlimit="10" strokeLinecap="round" stroke-linejoin="round"/>
<path d="M55.3398 122.954L63.3908 268.443C63.4288 269.14 64.0258 269.673 64.7218 269.635L65.5998 269.586" fill="#27DEBF"/>
<path d="M55.3398 122.954L63.3908 268.443C63.4288 269.14 64.0258 269.673 64.7218 269.635L65.5998 269.586" stroke="#263238" stroke-miterlimit="10" strokeLinecap="round" stroke-linejoin="round"/>
<path opacity="0.2" d="M91.7509 300.461L118.862 123.333C120.598 111.992 131.199 104.206 142.539 105.942L402.854 145.786C414.195 147.522 421.981 158.123 420.245 169.463L393.134 346.591C391.398 357.932 380.797 365.718 369.457 363.982L109.142 324.139C97.8009 322.403 90.0149 311.802 91.7509 300.461Z" fill="black" fill-opacity="0.7"/>
<path d="M121.496 116.592L119.137 132.003L113.467 131.135C112.927 131.052 112.556 130.548 112.639 130.008L114.699 116.553C114.782 116.013 115.286 115.642 115.826 115.725L121.496 116.592Z" fill="#27DEBF" stroke="#263238" stroke-miterlimit="10" strokeLinecap="round" stroke-linejoin="round"/>
<path d="M161.304 110.521L145.893 108.162L146.761 102.492C146.844 101.952 147.348 101.581 147.888 101.664L161.344 103.723C161.884 103.806 162.255 104.31 162.172 104.85L161.304 110.521Z" fill="#27DEBF" stroke="#263238" stroke-miterlimit="10" strokeLinecap="round" stroke-linejoin="round"/>
<path d="M179.636 113.327L164.225 110.968L165.093 105.298C165.176 104.758 165.68 104.387 166.22 104.47L179.676 106.53C180.216 106.613 180.587 107.117 180.504 107.657L179.636 113.327Z" fill="#27DEBF" stroke="#263238" stroke-miterlimit="10" strokeLinecap="round" stroke-linejoin="round"/>
<path d="M88.7509 296.461L115.862 119.333C117.598 107.992 128.199 100.206 139.539 101.942L399.854 141.786C411.195 143.522 418.981 154.123 417.245 165.463L390.134 342.591C388.398 353.932 377.797 361.718 366.457 359.982L106.142 320.139C94.8009 318.403 87.0149 307.802 88.7509 296.461Z" fill="#27DEBF" stroke="#263238" stroke-miterlimit="10" strokeLinecap="round" stroke-linejoin="round"/>
<path d="M367.48 357.794L105.818 317.744C96.1155 316.259 89.4535 307.189 90.9385 297.486L118.255 119.01C119.74 109.307 128.811 102.645 138.514 104.13L400.175 144.18C409.878 145.665 416.54 154.735 415.055 164.438L387.739 342.914C386.253 352.618 377.183 359.28 367.48 357.794Z" fill="#757575" stroke="#263238" stroke-miterlimit="10" strokeLinecap="round" stroke-linejoin="round"/>
<path d="M108.993 208.921C108.908 209.477 108.388 209.859 107.832 209.774C107.276 209.689 106.894 209.169 106.979 208.613C107.064 208.057 107.584 207.675 108.14 207.76C108.696 207.845 109.078 208.365 108.993 208.921Z" fill="#999999" stroke="#263238" stroke-miterlimit="10" strokeLinecap="round" stroke-linejoin="round"/>
<path d="M108.509 218.228C108.346 219.292 107.352 220.022 106.288 219.86C105.224 219.697 104.494 218.703 104.657 217.639C104.82 216.575 105.814 215.845 106.878 216.007C107.942 216.17 108.672 217.164 108.509 218.228Z" fill="#263238"/>
<path d="M111.939 195.818C111.776 196.882 110.782 197.612 109.718 197.45C108.654 197.287 107.924 196.293 108.086 195.229C108.249 194.165 109.243 193.435 110.307 193.597C111.372 193.759 112.102 194.754 111.939 195.818Z" fill="#263238"/>
<path d="M107.011 224.522C106.892 225.297 106.168 225.83 105.392 225.711C104.617 225.592 104.084 224.868 104.203 224.092C104.322 223.316 105.046 222.784 105.822 222.903C106.598 223.022 107.13 223.746 107.011 224.522Z" fill="#263238"/>
<path d="M408.49 161.36L380.56 343.88C379.82 348.67 375.35 351.96 370.56 351.23L151.35 317.68L146.6 316.95L128.73 314.21L120.08 312.89L107.58 310.98L104.85 310.56C100.06 309.83 96.7698 305.35 97.4998 300.56L125.44 118.04C126.17 113.25 130.65 109.96 135.44 110.7L217.27 123.22L229.65 125.12L241.48 126.93L256.68 129.25L262.18 130.09L401.15 151.36C405.94 152.1 409.22 156.57 408.49 161.36Z" fill="#263238"/>
<g opacity="0.1">
<path d="M203.008 315.989L110.053 301.761C108.794 301.568 107.926 300.387 108.119 299.129L117.352 238.804C117.545 237.545 118.726 236.677 119.985 236.87L212.94 251.098C214.199 251.291 215.067 252.472 214.874 253.731L205.641 314.056C205.449 315.315 204.268 316.182 203.008 315.989ZM119.863 237.666C119.043 237.541 118.274 238.105 118.149 238.926L108.916 299.251C108.791 300.07 109.355 300.839 110.175 300.965L203.13 315.193C203.95 315.318 204.719 314.754 204.844 313.934L214.077 253.609C214.203 252.789 213.637 252.02 212.818 251.894L119.863 237.666Z" fill="white"/>
</g>
<path opacity="0.4" d="M147.898 274.186L168.717 285.993C170.048 283.555 170.986 280.849 171.43 277.945C172.434 271.386 170.738 265.04 167.179 260.024L147.898 274.186Z" fill="#27DEBF"/>
<path opacity="0.6" d="M148.099 273.039L166.703 259.374C164.224 256.111 160.933 253.464 157.071 251.763L153.405 260.457L148.099 273.039Z" fill="#27DEBF"/>
<path d="M151.27 250.029L148.047 271.083L156.325 251.452C154.726 250.81 153.036 250.328 151.27 250.029Z" fill="#27DEBF"/>
<path opacity="0.1" d="M146.795 273.94L150.473 249.907C137.22 248.097 124.917 257.243 122.886 270.515C122.225 274.837 122.739 279.065 124.181 282.883L146.795 273.94Z" fill="white"/>
<path opacity="0.2" d="M143.444 298.502C153.663 300.066 163.368 295.085 168.316 286.692L147.128 274.676L124.473 283.635C127.657 291.294 134.646 297.155 143.444 298.502Z" fill="#27DEBF"/>
<path d="M185.142 263.758L182.38 263.335C182.038 263.283 181.803 262.963 181.856 262.621L182.279 259.859C182.331 259.517 182.651 259.282 182.993 259.335L185.755 259.758C186.097 259.81 186.332 260.13 186.279 260.472L185.856 263.234C185.803 263.575 185.484 263.81 185.142 263.758Z" fill="#27DEBF"/>
<path d="M200.745 263.546L188.694 261.701C188.44 261.662 188.266 261.425 188.305 261.171C188.344 260.917 188.581 260.743 188.835 260.782L200.886 262.627C201.14 262.666 201.314 262.903 201.275 263.157C201.236 263.411 200.999 263.585 200.745 263.546Z" fill="#27DEBF"/>
<path d="M196.763 264.983L188.389 263.701C188.135 263.662 187.961 263.425 188 263.171C188.039 262.917 188.276 262.743 188.53 262.782L196.904 264.064C197.158 264.103 197.332 264.34 197.293 264.594C197.254 264.848 197.017 265.022 196.763 264.983Z" fill="#27DEBF"/>
<path opacity="0.6" d="M183.77 272.716L181.008 272.293C180.666 272.241 180.431 271.921 180.484 271.579L180.907 268.817C180.959 268.475 181.279 268.24 181.621 268.293L184.383 268.716C184.725 268.768 184.96 269.088 184.907 269.43L184.484 272.192C184.432 272.534 184.112 272.769 183.77 272.716Z" fill="#27DEBF"/>
<path d="M199.375 272.505L187.324 270.66C187.07 270.621 186.896 270.384 186.935 270.13C186.974 269.876 187.211 269.702 187.465 269.741L199.516 271.585C199.77 271.624 199.944 271.861 199.905 272.115C199.866 272.37 199.629 272.544 199.375 272.505Z" fill="#27DEBF"/>
<path d="M195.392 273.942L187.018 272.66C186.764 272.621 186.59 272.384 186.629 272.13C186.668 271.876 186.905 271.702 187.159 271.741L195.533 273.023C195.787 273.062 195.961 273.299 195.922 273.553C195.883 273.807 195.646 273.981 195.392 273.942Z" fill="#27DEBF"/>
<path opacity="0.4" d="M182.399 281.676L179.637 281.253C179.295 281.201 179.06 280.881 179.113 280.539L179.536 277.777C179.588 277.435 179.908 277.2 180.25 277.253L183.012 277.676C183.354 277.728 183.589 278.048 183.536 278.39L183.113 281.152C183.061 281.493 182.741 281.728 182.399 281.676Z" fill="#27DEBF"/>
<path d="M198.004 281.464L185.953 279.619C185.699 279.58 185.525 279.343 185.564 279.089C185.603 278.835 185.84 278.661 186.094 278.7L198.145 280.545C198.399 280.584 198.573 280.821 198.534 281.075C198.495 281.329 198.258 281.503 198.004 281.464Z" fill="#27DEBF"/>
<path d="M194.021 282.901L185.647 281.619C185.393 281.58 185.219 281.343 185.258 281.089C185.297 280.835 185.534 280.661 185.788 280.7L194.162 281.982C194.416 282.021 194.59 282.258 194.551 282.512C194.512 282.766 194.275 282.94 194.021 282.901Z" fill="#27DEBF"/>
<path opacity="0.2" d="M181.028 290.634L178.266 290.211C177.924 290.159 177.689 289.839 177.742 289.497L178.165 286.735C178.217 286.393 178.537 286.158 178.879 286.211L181.641 286.634C181.983 286.686 182.218 287.006 182.165 287.348L181.742 290.11C181.689 290.452 181.37 290.687 181.028 290.634Z" fill="#27DEBF"/>
<path d="M196.633 290.423L184.582 288.578C184.328 288.539 184.154 288.302 184.193 288.048C184.232 287.794 184.469 287.62 184.723 287.659L196.774 289.503C197.028 289.542 197.202 289.779 197.163 290.033C197.124 290.288 196.887 290.462 196.633 290.423Z" fill="#27DEBF"/>
<path d="M192.65 291.86L184.276 290.578C184.022 290.539 183.848 290.302 183.887 290.048C183.926 289.794 184.163 289.62 184.417 289.659L192.791 290.941C193.045 290.98 193.219 291.217 193.18 291.471C193.141 291.725 192.904 291.899 192.65 291.86Z" fill="#27DEBF"/>
<path opacity="0.1" d="M179.657 299.594L176.895 299.171C176.553 299.119 176.318 298.799 176.371 298.457L176.794 295.695C176.846 295.353 177.166 295.118 177.508 295.171L180.27 295.594C180.612 295.646 180.847 295.966 180.794 296.308L180.371 299.07C180.318 299.411 179.999 299.646 179.657 299.594Z" fill="white"/>
<path d="M195.261 299.382L183.21 297.538C182.956 297.499 182.782 297.262 182.821 297.008C182.86 296.754 183.097 296.58 183.351 296.619L195.402 298.464C195.656 298.503 195.83 298.74 195.791 298.994C195.752 299.247 195.515 299.421 195.261 299.382Z" fill="#27DEBF"/>
<path d="M191.278 300.819L182.904 299.537C182.65 299.498 182.476 299.261 182.515 299.007C182.554 298.753 182.791 298.579 183.045 298.618L191.419 299.9C191.673 299.939 191.847 300.176 191.808 300.43C191.769 300.684 191.532 300.858 191.278 300.819Z" fill="#27DEBF"/>
<g opacity="0.1">
<path d="M378.157 276.385L227.034 253.254C225.775 253.061 224.591 253.924 224.398 255.183L223.761 259.342L223.639 260.139L222.78 265.748L222.658 266.545L221.801 272.147L221.679 272.944L220.822 278.546L220.7 279.343L219.842 284.953L219.72 285.75L218.863 291.352L218.741 292.149L217.884 297.751L217.762 298.548L216.903 304.158L216.781 304.955L215.924 310.557L215.802 311.354L215.165 315.513C214.972 316.772 215.843 317.957 217.102 318.15L368.225 341.281C369.484 341.474 370.661 340.602 370.854 339.343L371.491 335.184L371.613 334.387L372.47 328.785L372.592 327.988L373.451 322.379L373.573 321.582L374.43 315.98L374.552 315.183L375.409 309.581L375.531 308.784L376.39 303.175L376.512 302.378L377.369 296.776L377.491 295.979L378.348 290.377L378.47 289.58L379.329 283.971L379.451 283.174L380.088 279.015C380.28 277.754 379.416 276.578 378.157 276.385ZM370.057 339.217C369.931 340.038 369.16 340.605 368.347 340.48L217.224 317.349C216.403 317.223 215.836 316.452 215.962 315.631L216.599 311.472L370.694 335.058L370.057 339.217ZM370.815 334.261L216.72 310.675L217.577 305.073L371.672 328.659L370.815 334.261ZM371.795 327.862L217.7 304.276L218.558 298.666L372.653 322.252L371.795 327.862ZM372.775 321.456L218.68 297.87L219.537 292.268L373.632 315.854L372.775 321.456ZM373.755 315.058L219.66 291.472L220.517 285.87L374.612 309.456L373.755 315.058ZM374.734 308.659L220.639 285.074L221.498 279.465L375.593 303.051L374.734 308.659ZM375.715 302.253L221.62 278.667L222.477 273.065L376.572 296.651L375.715 302.253ZM376.694 295.855L222.599 272.269L223.456 266.667L377.551 290.253L376.694 295.855ZM377.673 289.456L223.578 265.87L224.437 260.261L378.532 283.847L377.673 289.456ZM224.559 259.464L225.196 255.305C225.322 254.484 226.092 253.925 226.913 254.051L378.036 277.182C378.849 277.306 379.417 278.07 379.291 278.891L378.654 283.05L224.559 259.464Z" fill="white"/>
</g>
<g opacity="0.1">
<path d="M394.304 168.718L136.778 129.301C135.342 129.081 133.994 130.071 133.774 131.507L119.344 225.783C119.124 227.219 120.114 228.567 121.55 228.787L379.076 268.204C380.512 268.424 381.859 267.434 382.079 265.998L396.509 171.722C396.73 170.285 395.741 168.938 394.304 168.718ZM184.265 182.274L202.178 185.016L200.622 195.185L182.709 192.443L184.265 182.274ZM181.912 192.321L163.999 189.579L165.555 179.41L183.468 182.152L181.912 192.321ZM202.975 185.138L220.888 187.88L219.332 198.049L201.419 195.307L202.975 185.138ZM295.85 198.538L277.937 195.796L279.493 185.627L297.406 188.369L295.85 198.538ZM298.203 188.491L316.116 191.233L314.56 201.402L296.647 198.66L298.203 188.491ZM240.395 190.865L258.308 193.607L256.752 203.776L238.839 201.034L240.395 190.865ZM238.042 200.912L220.129 198.17L221.685 188.001L239.598 190.743L238.042 200.912ZM259.105 193.729L277.018 196.471L275.462 206.64L257.549 203.898L259.105 193.729ZM277.814 196.593L295.727 199.335L294.171 209.504L276.258 206.762L277.814 196.593ZM277.14 195.674L259.227 192.932L260.783 182.763L278.696 185.505L277.14 195.674ZM258.43 192.81L240.517 190.068L242.073 179.899L259.986 182.641L258.43 192.81ZM239.72 189.947L221.807 187.205L223.363 177.036L241.276 179.778L239.72 189.947ZM221.01 187.083L203.097 184.341L204.653 174.172L222.566 176.914L221.01 187.083ZM219.21 198.845L217.654 209.014L199.741 206.272L201.297 196.103L219.21 198.845ZM220.007 198.967L237.92 201.709L236.364 211.878L218.451 209.136L220.007 198.967ZM238.716 201.831L256.629 204.573L255.073 214.742L237.16 212L238.716 201.831ZM257.426 204.694L275.339 207.436L273.783 217.605L255.87 214.863L257.426 204.694ZM276.136 207.558L294.049 210.3L292.493 220.469L274.58 217.727L276.136 207.558ZM294.846 210.422L312.759 213.164L311.202 223.333L293.289 220.591L294.846 210.422ZM294.968 209.625L296.524 199.456L314.437 202.198L312.881 212.367L294.968 209.625ZM315.234 202.32L333.147 205.062L331.591 215.231L313.678 212.489L315.234 202.32ZM333.944 205.184L351.857 207.926L350.301 218.095L332.388 215.353L333.944 205.184ZM334.066 204.387L335.622 194.218L353.535 196.96L351.979 207.129L334.066 204.387ZM333.27 204.265L315.357 201.523L316.913 191.354L334.826 194.096L333.27 204.265ZM317.034 190.558L318.59 180.39L336.503 183.132L334.947 193.3L317.034 190.558ZM316.238 190.436L298.325 187.694L299.881 177.526L317.794 180.268L316.238 190.436ZM297.528 187.572L279.615 184.83L281.171 174.662L299.084 177.404L297.528 187.572ZM278.818 184.708L260.905 181.966L262.461 171.798L280.374 174.54L278.818 184.708ZM260.108 181.845L242.195 179.103L243.751 168.935L261.664 171.677L260.108 181.845ZM241.398 178.981L223.485 176.239L225.041 166.071L242.954 168.813L241.398 178.981ZM222.688 176.117L204.775 173.375L206.331 163.207L224.244 165.949L222.688 176.117ZM203.978 173.253L186.065 170.511L187.621 160.343L205.534 163.085L203.978 173.253ZM203.856 174.05L202.3 184.219L184.387 181.477L185.943 171.308L203.856 174.05ZM183.59 181.355L165.677 178.613L167.233 168.444L185.146 171.186L183.59 181.355ZM164.88 178.492L146.967 175.75L148.523 165.581L166.436 168.323L164.88 178.492ZM164.758 179.288L163.202 189.457L145.289 186.715L146.845 176.546L164.758 179.288ZM163.08 190.254L161.524 200.423L143.611 197.681L145.167 187.512L163.08 190.254ZM163.877 190.376L181.79 193.118L180.234 203.287L162.321 200.545L163.877 190.376ZM182.587 193.24L200.5 195.982L198.944 206.151L181.031 203.409L182.587 193.24ZM198.821 206.947L197.265 217.116L179.352 214.374L180.908 204.205L198.821 206.947ZM199.618 207.069L217.531 209.811L215.975 219.98L198.062 217.238L199.618 207.069ZM218.328 209.932L236.241 212.674L234.685 222.843L216.772 220.101L218.328 209.932ZM237.038 212.796L254.951 215.538L253.395 225.707L235.482 222.965L237.038 212.796ZM255.748 215.66L273.661 218.402L272.105 228.571L254.192 225.829L255.748 215.66ZM274.458 218.524L292.371 221.266L290.815 231.435L272.902 228.693L274.458 218.524ZM293.168 221.387L311.081 224.129L309.525 234.298L291.612 231.556L293.168 221.387ZM311.877 224.251L329.79 226.993L328.234 237.162L310.321 234.42L311.877 224.251ZM311.999 223.454L313.555 213.285L331.468 216.027L329.912 226.196L311.999 223.454ZM332.266 216.149L350.179 218.891L348.623 229.06L330.71 226.318L332.266 216.149ZM350.975 219.013L368.888 221.755L367.332 231.924L349.419 229.182L350.975 219.013ZM351.097 218.216L352.653 208.047L370.566 210.789L369.01 220.958L351.097 218.216ZM352.776 207.251L354.332 197.082L372.245 199.824L370.689 209.993L352.776 207.251ZM354.454 196.285L356.01 186.117L373.923 188.859L372.367 199.027L354.454 196.285ZM353.657 196.163L335.744 193.421L337.3 183.253L355.213 185.995L353.657 196.163ZM337.423 182.456L338.979 172.287L356.892 175.029L355.336 185.198L337.423 182.456ZM336.626 182.335L318.713 179.593L320.269 169.424L338.182 172.166L336.626 182.335ZM317.916 179.471L300.003 176.729L301.559 166.56L319.472 169.302L317.916 179.471ZM299.206 176.607L281.293 173.865L282.849 163.696L300.762 166.438L299.206 176.607ZM280.496 173.743L262.583 171.001L264.139 160.832L282.052 163.574L280.496 173.743ZM261.786 170.88L243.873 168.138L245.429 157.969L263.342 160.711L261.786 170.88ZM243.077 168.016L225.164 165.274L226.72 155.105L244.633 157.847L243.077 168.016ZM224.367 165.152L206.454 162.41L208.01 152.241L225.923 154.983L224.367 165.152ZM205.656 162.288L187.743 159.546L189.299 149.377L207.212 152.119L205.656 162.288ZM186.947 159.425L169.034 156.683L170.59 146.514L188.503 149.256L186.947 159.425ZM186.825 160.221L185.269 170.389L167.356 167.647L168.912 157.479L186.825 160.221ZM166.559 167.526L148.646 164.784L150.202 154.616L168.115 157.358L166.559 167.526ZM147.849 164.662L129.936 161.92L131.492 151.752L149.405 154.494L147.849 164.662ZM147.727 165.459L146.171 175.628L128.258 172.886L129.814 162.717L147.727 165.459ZM146.048 176.425L144.492 186.594L126.579 183.852L128.135 173.683L146.048 176.425ZM144.37 187.39L142.814 197.559L124.901 194.817L126.457 184.648L144.37 187.39ZM142.692 198.356L141.136 208.525L123.223 205.783L124.779 195.614L142.692 198.356ZM143.488 198.477L161.401 201.219L159.845 211.388L141.932 208.646L143.488 198.477ZM162.198 201.341L180.111 204.083L178.555 214.252L160.642 211.51L162.198 201.341ZM178.433 215.048L176.877 225.217L158.964 222.475L160.52 212.306L178.433 215.048ZM179.23 215.17L197.143 217.912L195.587 228.081L177.674 225.339L179.23 215.17ZM197.94 218.034L215.853 220.776L214.297 230.945L196.384 228.203L197.94 218.034ZM216.65 220.898L234.563 223.64L233.007 233.809L215.094 231.067L216.65 220.898ZM235.36 223.762L253.273 226.504L251.717 236.673L233.804 233.931L235.36 223.762ZM254.069 226.625L271.982 229.367L270.426 239.536L252.513 236.794L254.069 226.625ZM272.779 229.489L290.692 232.231L289.136 242.4L271.223 239.658L272.779 229.489ZM291.49 232.353L309.403 235.095L307.847 245.264L289.934 242.522L291.49 232.353ZM310.199 235.217L328.112 237.959L326.556 248.128L308.643 245.386L310.199 235.217ZM328.909 238.08L346.822 240.822L345.266 250.991L327.353 248.249L328.909 238.08ZM329.031 237.283L330.587 227.114L348.5 229.856L346.944 240.025L329.031 237.283ZM349.297 229.978L367.21 232.72L365.654 242.889L347.741 240.147L349.297 229.978ZM368.007 232.842L385.92 235.584L384.364 245.753L366.451 243.011L368.007 232.842ZM368.129 232.045L369.685 221.876L387.598 224.618L386.042 234.787L368.129 232.045ZM369.808 221.08L371.364 210.911L389.277 213.653L387.721 223.822L369.808 221.08ZM371.486 210.115L373.042 199.946L390.955 202.688L389.399 212.857L371.486 210.115ZM373.164 199.149L374.72 188.981L392.633 191.723L391.077 201.891L373.164 199.149ZM374.843 188.184L376.399 178.015L394.312 180.757L392.756 190.926L374.843 188.184ZM374.046 188.062L356.132 185.32L357.688 175.151L375.602 177.893L374.046 188.062ZM357.811 174.355L359.367 164.186L377.28 166.928L375.724 177.097L357.811 174.355ZM357.014 174.233L339.101 171.491L340.658 161.322L358.571 164.064L357.014 174.233ZM338.305 171.369L320.392 168.627L321.948 158.458L339.861 161.2L338.305 171.369ZM319.594 168.505L301.681 165.763L303.237 155.594L321.15 158.336L319.594 168.505ZM300.885 165.642L282.972 162.9L284.528 152.731L302.441 155.473L300.885 165.642ZM282.175 162.778L264.262 160.036L265.818 149.867L283.731 152.609L282.175 162.778ZM263.465 159.914L245.552 157.172L247.108 147.003L265.021 149.745L263.465 159.914ZM244.755 157.051L226.842 154.309L228.398 144.14L246.311 146.882L244.755 157.051ZM226.045 154.187L208.132 151.445L209.688 141.276L227.601 144.018L226.045 154.187ZM207.335 151.323L189.422 148.581L190.978 138.412L208.891 141.154L207.335 151.323ZM188.625 148.459L170.712 145.717L172.268 135.548L190.181 138.29L188.625 148.459ZM169.915 145.596L152.002 142.854L153.558 132.685L171.471 135.427L169.915 145.596ZM169.793 146.392L168.237 156.561L150.324 153.819L151.88 143.65L169.793 146.392ZM149.527 153.697L131.614 150.955L133.17 140.786L151.083 143.528L149.527 153.697ZM123.1 206.579L141.013 209.321L139.457 219.49L121.544 216.748L123.1 206.579ZM141.81 209.443L159.723 212.185L158.167 222.354L140.254 219.612L141.81 209.443ZM158.045 223.15L156.489 233.318L138.576 230.576L140.132 220.408L158.045 223.15ZM158.842 223.272L176.755 226.014L175.199 236.182L157.286 233.44L158.842 223.272ZM177.551 226.136L195.464 228.878L193.908 239.046L175.995 236.304L177.551 226.136ZM196.261 229L214.174 231.742L212.618 241.91L194.705 239.168L196.261 229ZM214.971 231.863L232.884 234.605L231.328 244.773L213.415 242.031L214.971 231.863ZM233.681 234.727L251.594 237.469L250.038 247.637L232.125 244.895L233.681 234.727ZM252.391 237.591L270.304 240.333L268.748 250.501L250.835 247.759L252.391 237.591ZM271.101 240.454L289.014 243.196L287.458 253.364L269.544 250.622L271.101 240.454ZM289.811 243.318L307.724 246.06L306.168 256.228L288.255 253.486L289.811 243.318ZM308.521 246.182L326.434 248.924L324.878 259.092L306.965 256.35L308.521 246.182ZM327.231 249.046L345.144 251.788L343.588 261.956L325.675 259.214L327.231 249.046ZM345.94 251.909L363.854 254.651L362.298 264.819L344.385 262.077L345.94 251.909ZM346.062 251.113L347.618 240.944L365.531 243.686L363.975 253.855L346.062 251.113ZM366.329 243.808L384.242 246.55L382.686 256.719L364.773 253.977L366.329 243.808ZM395.713 171.6L394.433 179.961L376.52 177.219L378.076 167.05L394.181 169.515C395.179 169.667 395.866 170.603 395.713 171.6ZM136.657 130.098L152.762 132.563L151.206 142.732L133.293 139.99L134.573 131.629C134.725 130.633 135.66 129.946 136.657 130.098ZM120.142 225.905L121.422 217.545L139.335 220.287L137.779 230.455L121.674 227.99C120.677 227.837 119.99 226.902 120.142 225.905ZM379.199 267.406L363.094 264.941L364.65 254.773L382.563 257.515L381.283 265.875C381.131 266.872 380.196 267.559 379.199 267.406Z" fill="white"/>
</g>
<path opacity="0.5" d="M385.796 236.38L381.283 265.862C381.137 266.818 380.245 267.473 379.281 267.325L121.61 227.887C120.654 227.741 119.999 226.849 120.146 225.893L120.75 221.949C120.75 221.949 132.861 212.19 140.439 213.35C149.395 214.721 150.983 219.8 158.951 221.019C166.911 222.237 175.715 203.72 182.934 204.825C186.838 205.423 187.838 208.43 189.756 211.186C191.178 213.247 193.127 215.16 197.156 215.85C197.25 215.873 197.354 215.888 197.45 215.903C207.251 217.403 220.515 165.375 233.997 167.439C239.957 168.351 242.366 179.835 244.153 192.512C246.422 208.533 247.706 226.466 253.953 227.422C265.132 229.133 268.929 206.457 279.327 208.048C285.861 209.048 288.24 221.155 293.737 230.738C296.986 236.414 301.341 241.206 308.306 242.272C314.633 243.24 318.862 241.767 322.151 239.458C328.598 234.948 331.481 227.251 339.545 228.485C344.318 229.216 346.062 232.899 347.839 236.368C349.389 239.402 350.972 242.27 354.654 242.834C358.981 243.496 362.669 237.3 366.577 231.799C369.789 227.275 373.141 223.222 377.125 223.832C381.197 224.455 383.597 229.34 384.808 232.828C385.494 234.834 385.796 236.38 385.796 236.38Z" fill="#27DEBF"/>
<path opacity="0.5" d="M391.996 195.871L381.283 265.863C381.137 266.819 380.245 267.474 379.281 267.326L121.61 227.887C120.654 227.741 119.999 226.849 120.146 225.893L120.75 221.949C131.451 223.587 137.162 215.58 144.341 216.679C151.52 217.778 155.238 222.791 161.963 223.821C168.688 224.85 179.046 209.123 186.401 210.249C187.668 210.443 188.767 210.774 189.756 211.187C192.584 212.37 194.535 214.275 197.156 215.851C198.934 216.914 201.02 217.829 203.889 218.268C212.503 219.586 229.733 188.422 239.717 189.95C241.462 190.217 242.902 191.147 244.152 192.513C250.05 198.945 251.569 215.022 259.896 216.296C269.984 217.84 275.383 201.427 285.167 202.925C294.952 204.423 297.842 221.289 309.189 223.026C320.536 224.763 332.812 193.79 344.58 195.591C356.341 197.391 359.714 213.3 369.943 214.865C381.148 216.579 391.996 195.871 391.996 195.871Z" fill="#27DEBF"/>
<path d="M387.016 228.412L381.284 265.862C381.138 266.818 380.246 267.473 379.282 267.325L121.61 227.887C120.654 227.741 119.999 226.849 120.146 225.893L120.441 223.965C120.814 223.606 126.877 217.88 133.044 218.824C139.411 219.799 139.427 225.501 148.311 226.861C157.195 228.221 159.779 221.196 172.385 223.125C184.999 225.056 184.939 233.862 197.967 235.856C210.995 237.85 213.687 227.294 222.938 228.71C232.181 230.125 231.575 235.52 236.826 236.324C242.077 237.128 245.15 228.881 251.62 229.871C258.09 230.861 263.036 244.421 270.327 245.537C275.451 246.321 284.504 236.184 293.737 230.739C297.644 228.442 301.586 226.982 305.275 227.547C312.885 228.712 317.325 234.651 322.151 239.459C325.186 242.484 328.38 245.061 332.603 245.707C338.635 246.63 343.213 241.174 347.838 236.369C351.6 232.46 355.387 228.978 360.001 229.684C362.941 230.134 364.992 230.905 366.576 231.799C370.555 234.039 371.626 237.057 376.415 237.79C382.189 238.674 387.016 228.412 387.016 228.412Z" fill="#27DEBF"/>
<path d="M152.048 126.257L138.213 124.139C136.867 123.933 135.943 122.675 136.149 121.328C136.355 119.982 137.613 119.058 138.96 119.264L152.795 121.382C154.141 121.588 155.065 122.846 154.859 124.193C154.652 125.539 153.394 126.463 152.048 126.257Z" fill="#27DEBF"/>
<path d="M159.688 123.466C159.762 123.466 159.837 123.472 159.913 123.483L173.748 125.601C174.135 125.66 174.476 125.867 174.708 126.182C174.94 126.498 175.035 126.885 174.976 127.272C174.867 127.981 174.246 128.516 173.53 128.516C173.456 128.516 173.381 128.51 173.305 128.499L159.47 126.382C159.083 126.323 158.742 126.116 158.51 125.801C158.278 125.485 158.183 125.099 158.243 124.711C158.351 124.001 158.972 123.466 159.688 123.466ZM159.688 122.466C158.491 122.466 157.44 123.339 157.254 124.559C157.048 125.905 157.972 127.163 159.318 127.37L173.153 129.488C173.279 129.507 173.405 129.517 173.529 129.517C174.726 129.517 175.777 128.644 175.963 127.424C176.169 126.078 175.245 124.82 173.899 124.613L160.064 122.495C159.938 122.476 159.812 122.466 159.688 122.466Z" fill="#27DEBF"/>
<path d="M180.793 126.697C180.867 126.697 180.942 126.703 181.018 126.714L194.853 128.832C195.24 128.891 195.581 129.098 195.813 129.413C196.045 129.728 196.14 130.115 196.081 130.502C195.972 131.211 195.351 131.746 194.635 131.746C194.561 131.746 194.486 131.74 194.41 131.729L180.575 129.611C180.188 129.552 179.847 129.345 179.615 129.03C179.383 128.714 179.288 128.328 179.347 127.941C179.456 127.232 180.077 126.697 180.793 126.697ZM180.793 125.697C179.596 125.697 178.545 126.57 178.359 127.79C178.153 129.136 179.077 130.394 180.423 130.6L194.258 132.718C194.384 132.737 194.51 132.747 194.634 132.747C195.831 132.747 196.882 131.874 197.068 130.654C197.274 129.308 196.35 128.049 195.004 127.843L181.169 125.725C181.043 125.706 180.917 125.697 180.793 125.697Z" fill="#27DEBF"/>
<path d="M396.264 161.41L396.429 160.33L395.631 160.136C395.609 159.958 395.567 159.785 395.505 159.621L396.122 159.08L395.475 158.199L394.774 158.626C394.635 158.518 394.483 158.426 394.32 158.352L394.374 157.532L393.294 157.367L393.101 158.165C392.923 158.187 392.75 158.229 392.585 158.291L392.044 157.674L391.163 158.321L391.59 159.022C391.482 159.161 391.39 159.313 391.316 159.476L390.496 159.422L390.331 160.502L391.129 160.696C391.151 160.874 391.193 161.047 391.255 161.211L390.638 161.752L391.285 162.633L391.986 162.206C392.125 162.314 392.277 162.406 392.44 162.48L392.386 163.3L393.466 163.465L393.66 162.667C393.838 162.645 394.011 162.603 394.176 162.541L394.717 163.158L395.598 162.511L395.171 161.81C395.279 161.671 395.371 161.519 395.445 161.356L396.264 161.41ZM393.188 161.671C392.495 161.565 392.019 160.917 392.125 160.224C392.231 159.531 392.879 159.055 393.572 159.161C394.265 159.267 394.741 159.915 394.635 160.608C394.53 161.301 393.882 161.777 393.188 161.671Z" fill="#27DEBF"/>
<path opacity="0.2" d="M240.714 280.411L237.772 279.96L234.534 301.117L237.476 301.568L240.714 280.411Z" fill="#27DEBF"/>
<path d="M240.226 283.598L237.284 283.148L235.76 293.107L238.702 293.557L240.226 283.598Z" fill="#27DEBF"/>
<path opacity="0.2" d="M233.276 284.735L230.334 284.285L227.096 305.442L230.037 305.892L233.276 284.735Z" fill="#27DEBF"/>
<path d="M229.484 289.859L227.96 299.818L230.902 300.269L232.426 290.309L229.484 289.859Z" fill="#27DEBF"/>
<path opacity="0.2" d="M227.273 279.664L224.331 279.214L221.093 300.371L224.035 300.821L227.273 279.664Z" fill="#27DEBF"/>
<path d="M226.055 287.631L223.113 287.181L221.589 297.14L224.531 297.59L226.055 287.631Z" fill="#27DEBF"/>
<path opacity="0.2" d="M246.699 285.604L243.757 285.153L240.519 306.31L243.46 306.76L246.699 285.604Z" fill="#27DEBF"/>
<path d="M246.22 288.786L243.278 288.335L241.754 298.295L244.696 298.745L246.22 288.786Z" fill="#27DEBF"/>
<path opacity="0.2" d="M254.278 280.359L251.336 279.909L248.098 301.066L251.039 301.516L254.278 280.359Z" fill="#27DEBF"/>
<path d="M253.913 282.748L250.972 282.298L249.447 292.257L252.389 292.707L253.913 282.748Z" fill="#27DEBF"/>
<path opacity="0.2" d="M260.063 286.836L257.121 286.385L253.883 307.542L256.825 307.992L260.063 286.836Z" fill="#27DEBF"/>
<path d="M259.943 287.631L257.001 287.181L255.477 297.14L258.418 297.591L259.943 287.631Z" fill="#27DEBF"/>
<path opacity="0.2" d="M268.379 276.788L265.438 276.337L262.199 297.494L265.141 297.945L268.379 276.788Z" fill="#27DEBF"/>
<path d="M268.259 277.583L265.317 277.133L263.793 287.092L266.735 287.542L268.259 277.583Z" fill="#27DEBF"/>
<path opacity="0.2" d="M272.964 291.124L270.022 290.673L266.784 311.83L269.726 312.28L272.964 291.124Z" fill="#27DEBF"/>
<path d="M272.475 294.312L269.533 293.861L268.009 303.82L270.951 304.271L272.475 294.312Z" fill="#27DEBF"/>
<path opacity="0.2" d="M279.398 293.372L276.456 292.921L273.218 314.078L276.16 314.529L279.398 293.372Z" fill="#27DEBF"/>
<path d="M278.176 301.341L275.234 300.891L273.71 310.85L276.652 311.3L278.176 301.341Z" fill="#27DEBF"/>
<path opacity="0.2" d="M288.062 281.1L285.12 280.649L281.882 301.806L284.824 302.257L288.062 281.1Z" fill="#27DEBF"/>
<path d="M286.711 289.872L283.77 289.422L282.245 299.381L285.187 299.831L286.711 289.872Z" fill="#27DEBF"/>
<path opacity="0.2" d="M293.252 291.42L290.311 290.97L287.072 312.127L290.014 312.577L293.252 291.42Z" fill="#27DEBF"/>
<path d="M292.641 295.405L289.699 294.955L288.175 304.914L291.117 305.364L292.641 295.405Z" fill="#27DEBF"/>
<path opacity="0.2" d="M300.717 286.915L297.775 286.465L294.537 307.622L297.479 308.072L300.717 286.915Z" fill="#27DEBF"/>
<path d="M300.23 290.102L297.288 289.651L295.764 299.611L298.706 300.061L300.23 290.102Z" fill="#27DEBF"/>
<path opacity="0.2" d="M308.793 278.429L305.852 277.979L302.613 299.135L305.555 299.586L308.793 278.429Z" fill="#27DEBF"/>
<path d="M308.795 278.427L305.854 277.977L304.329 287.936L307.271 288.386L308.795 278.427Z" fill="#27DEBF"/>
<path opacity="0.2" d="M313.377 292.834L310.436 292.383L307.197 313.54L310.139 313.99L313.377 292.834Z" fill="#27DEBF"/>
<path d="M313.001 295.232L310.06 294.781L308.535 304.74L311.477 305.191L313.001 295.232Z" fill="#27DEBF"/>
<path opacity="0.2" d="M318.565 303.153L315.623 302.703L312.385 323.86L315.327 324.31L318.565 303.153Z" fill="#27DEBF"/>
<path d="M318.201 305.543L315.259 305.093L313.734 315.052L316.676 315.502L318.201 305.543Z" fill="#27DEBF"/>
<path opacity="0.2" d="M326.904 292.968L323.962 292.518L320.724 313.674L323.665 314.125L326.904 292.968Z" fill="#27DEBF"/>
<path d="M325.694 300.928L322.752 300.478L321.228 310.437L324.169 310.887L325.694 300.928Z" fill="#27DEBF"/>
<path opacity="0.2" d="M335.356 282.023L332.414 281.572L329.176 302.729L332.118 303.179L335.356 282.023Z" fill="#27DEBF"/>
<path d="M333.891 291.586L330.949 291.136L329.425 301.095L332.367 301.545L333.891 291.586Z" fill="#27DEBF"/>
<path opacity="0.2" d="M340.146 294.996L337.204 294.546L333.966 315.703L336.908 316.153L340.146 294.996Z" fill="#27DEBF"/>
<path d="M339.672 298.173L336.73 297.723L335.206 307.682L338.148 308.132L339.672 298.173Z" fill="#27DEBF"/>
<path opacity="0.2" d="M346.23 299.53L343.288 299.08L340.05 320.237L342.992 320.687L346.23 299.53Z" fill="#27DEBF"/>
<path d="M344.891 308.294L341.949 307.844L340.425 317.803L343.367 318.253L344.891 308.294Z" fill="#27DEBF"/>
<path opacity="0.2" d="M353.865 293.944L350.923 293.494L347.685 314.651L350.626 315.101L353.865 293.944Z" fill="#27DEBF"/>
<path d="M353.863 293.945L350.921 293.495L349.397 303.454L352.338 303.905L353.863 293.945Z" fill="#27DEBF"/>
<path opacity="0.2" d="M359.475 301.558L356.533 301.107L353.295 322.264L356.237 322.715L359.475 301.558Z" fill="#27DEBF"/>
<path d="M359.231 303.151L356.289 302.701L354.765 312.66L357.706 313.111L359.231 303.151Z" fill="#27DEBF"/>
<path opacity="0.2" d="M366.537 299.716L363.595 299.266L360.356 320.422L363.298 320.873L366.537 299.716Z" fill="#27DEBF"/>
<path d="M366.412 300.514L363.471 300.064L361.946 310.023L364.888 310.473L366.412 300.514Z" fill="#27DEBF"/>
<path opacity="0.2" d="M372.741 303.449L369.799 302.999L366.561 324.155L369.502 324.606L372.741 303.449Z" fill="#27DEBF"/>
<path d="M371.169 313.795L368.228 313.345L366.703 323.304L369.645 323.755L371.169 313.795Z" fill="#27DEBF"/>
<path d="M265.799 332.826L210.319 324.334L210.057 326.051L265.536 334.543L265.799 332.826Z" fill="#999999" stroke="#263238" stroke-miterlimit="10" strokeLinecap="round" stroke-linejoin="round"/>
<path opacity="0.2" d="M301.06 211.88C301.06 211.88 293.54 216.047 298.325 227.353C303.11 238.659 332.248 257.225 331.657 266.667C331.657 266.667 301.751 248.026 293.44 258.788C293.44 258.788 316.034 280.696 318.377 297.183C320.72 313.67 328.411 320.969 346.062 330.37C363.713 339.771 402.179 389.392 402.179 389.392L396.429 306.09L340.444 242.889L312.759 227.115L301.06 211.88Z" fill="black" fill-opacity="0.7"/>
<path d="M453.01 360.4C453.01 360.4 403.71 392.78 403.7 392.78C403.67 392.79 403.65 392.8 403.62 392.8C403.53 392.8 403.45 392.74 403.41 392.65C403.19 392.07 381.38 333.86 376.16 329.32C372.27 325.94 370.57 321.53 369.94 319.38C369.94 319.37 369.93 319.37 369.93 319.36C369.92 319.34 369.92 319.31 369.91 319.28C369.72 318.64 369.63 318.22 369.61 318.11C369.42 317.65 365.84 309.63 356.74 303.65C353.31 301.39 349.32 299.77 345.1 298.05C338.9 295.54 332.52 292.95 328.01 288.16C327.25 287.35 326.54 286.48 325.9 285.53C318.73 275.03 307.66 263.44 303.97 261.06C300.14 258.58 293.52 259 293.46 259.01C293.34 259.02 293.24 258.94 293.22 258.83C292.93 257.14 293.5 255.33 294.84 253.74C296.68 251.55 299.53 250.24 302.47 250.24C308.17 250.24 316.02 253.27 319.98 257.01C323.85 260.66 333.1 263.55 334.15 263.87C335.64 262.99 339.11 264.88 340.44 265.68C338.91 260.23 339.53 258.13 339.77 257.6C336.49 253.35 319.41 240.77 310.34 234.46H310.33C307.83 232.71 305.95 231.45 305.13 230.97C300.9 228.48 297.4 220.69 298.08 215.25C298.3 213.48 298.98 212.21 300.09 211.47C301.05 210.83 302.14 210.71 302.94 210.74C303.62 210.76 304.1 210.88 304.15 210.89C304.19 210.91 304.23 210.93 304.26 210.96C304.34 211.07 312.83 221.14 315.77 222.72C317.21 223.49 324.87 227.36 332.15 230.96C333.26 231.51 334.36 232.06 335.43 232.58C335.45 231.03 335.52 224.95 335.93 223.09C336.21 221.85 338.19 220.08 340.44 219.05C341.49 218.57 343.47 217.88 344.87 218.64C345.42 218.95 346.72 219.75 348.52 220.87C349.4 221.41 350.42 222.05 351.54 222.73C351.92 222.18 353.11 220.56 353.86 220.12C354.61 219.68 358.76 218.91 360.24 219.43C361.53 219.9 365.67 222.53 370.05 225.31C370.67 225.7 371.3 226.1 371.94 226.5C372.17 226.07 372.71 225.17 373.22 224.97C375.17 224.18 378.33 224.02 379.97 224.61C381.45 225.15 386.53 228.9 391.45 232.53C394.15 234.53 396.74 236.44 398.44 237.59C398.5 237.61 398.55 237.64 398.58 237.69C399.07 238.02 399.48 238.28 399.79 238.46C403.41 240.53 412.31 287.21 412.4 287.68C412.98 290.81 415.1 294.04 417.34 297.46C419.53 300.8 422.01 304.59 423.5 308.95C426.35 317.28 432.84 329.47 442.35 344.37C443.21 345.72 444.1 347.09 445.01 348.48C447.58 352.42 450.32 356.48 453.01 360.4Z" fill="white"/>
<path opacity="0.4" d="M343.14 271.02C341.23 272.53 327.37 271.1 325.67 275.76C324.67 278.51 325.41 282.67 328.01 288.16C327.25 287.35 326.54 286.48 325.9 285.53C318.73 275.03 307.66 263.44 303.97 261.06C300.14 258.58 293.52 259 293.46 259.01C293.34 259.02 293.24 258.94 293.22 258.83C292.93 257.14 293.5 255.33 294.84 253.74C296.68 251.55 299.53 250.24 302.47 250.24C308.17 250.24 316.02 253.27 319.98 257.01C323.85 260.66 333.1 263.55 334.15 263.87C335.64 262.99 339.11 264.88 340.44 265.68C338.91 260.23 339.53 258.13 339.77 257.6C336.49 253.35 319.41 240.77 310.34 234.46H310.33C307.83 232.71 305.95 231.45 305.13 230.97C300.9 228.48 297.4 220.69 298.08 215.25C298.3 213.48 298.98 212.21 300.09 211.47C301.05 210.83 302.14 210.71 302.94 210.74C302.31 210.98 301.68 211.35 301.06 211.88C298.28 214.25 304.91 226.76 308.64 230.22C312.54 233.83 330.08 242.79 336.38 248.13C339.84 251.06 344.38 255.5 344.38 255.5C341.61 260.21 345.04 269.52 343.14 271.02Z" fill="#27DEBF"/>
<path d="M407.541 194.53C407.531 194.44 407.531 194.42 407.551 194.46C407.561 194.49 407.561 194.51 407.541 194.53Z" fill="#27DEBF"/>
<path opacity="0.4" d="M442.35 344.37C434.92 337.3 423.86 326.29 421.79 321.46C418.63 314.06 416.52 307.23 412.59 302.25C408.67 297.28 400.69 244.2 398.4 244.05C396.17 243.89 401.28 265.03 401.55 266.13C401.33 265.46 398.47 256.45 395.73 246.18C392.89 235.51 390.02 234.93 390.02 234.93C386.21 235.69 386.19 238.4 384.24 238.36C382.3 238.32 375.6 233.57 375.6 233.57C369.11 234.51 344.76 218.83 344.76 218.83C339.22 219.58 337.92 224.42 342.65 228.96C347.39 233.51 354.45 239.03 354.45 239.03C349.89 241.25 333.15 231.86 333.15 231.86L332.15 230.96C333.26 231.51 334.36 232.06 335.43 232.58C335.45 231.03 335.52 224.95 335.93 223.09C336.21 221.85 338.19 220.08 340.44 219.05C341.49 218.57 343.47 217.88 344.87 218.64C345.42 218.95 346.72 219.75 348.52 220.87C349.4 221.41 350.42 222.05 351.54 222.73C351.92 222.18 353.11 220.56 353.86 220.12C354.61 219.68 358.76 218.91 360.24 219.43C361.53 219.9 365.67 222.53 370.05 225.31C370.67 225.7 371.3 226.1 371.94 226.5C372.17 226.07 372.71 225.17 373.22 224.97C375.17 224.18 378.33 224.02 379.97 224.61C381.45 225.15 386.53 228.9 391.45 232.53C394.15 234.53 396.74 236.44 398.44 237.59C398.5 237.61 398.55 237.64 398.58 237.69C399.07 238.02 399.48 238.28 399.79 238.46C403.41 240.53 412.31 287.21 412.4 287.68C412.98 290.81 415.1 294.04 417.34 297.46C419.53 300.8 422.01 304.59 423.5 308.95C426.35 317.28 432.84 329.47 442.35 344.37Z" fill="#27DEBF"/>
<path d="M403.62 392.578C403.62 392.578 381.63 333.785 376.307 329.156C370.983 324.527 369.826 318.045 369.826 318.045C369.826 318.045 366.354 309.712 356.864 303.463C347.374 297.213 333.023 295.593 326.079 285.408C319.135 275.223 308.024 263.418 304.089 260.872C300.154 258.326 293.441 258.789 293.441 258.789C292.747 254.854 297.145 250.456 302.468 250.456C307.791 250.456 315.662 253.234 319.828 257.169C323.994 261.104 334.179 264.113 334.179 264.113C335.799 262.956 340.805 266.167 340.805 266.167C338.809 259.396 340.024 257.574 340.024 257.574C336.089 252.25 309.181 233.096 305.246 230.781C301.311 228.466 297.608 220.828 298.302 215.273C298.996 209.718 304.089 211.107 304.089 211.107C304.089 211.107 312.653 221.292 315.662 222.912C318.671 224.532 342.281 236.337 345.753 237.726C349.225 239.115 351.771 237.263 351.771 237.263" stroke="#263238" stroke-miterlimit="10" strokeLinecap="round" stroke-linejoin="round"/>
<path d="M335.652 232.929C335.652 232.929 335.684 225.225 336.147 223.142C336.61 221.059 342.216 217.446 344.762 218.835C347.308 220.224 366.064 232.553 370.95 233.096" stroke="#263238" stroke-miterlimit="10" strokeLinecap="round" stroke-linejoin="round"/>
<path d="M351.589 223.042C351.589 223.042 353.11 220.809 353.971 220.307C354.665 219.902 358.774 219.142 360.163 219.642C362.941 220.64 379.317 231.939 382.095 232.633" stroke="#263238" stroke-miterlimit="10" strokeLinecap="round" stroke-linejoin="round"/>
<path d="M372.021 226.817C372.021 226.817 372.729 225.398 373.298 225.169C375.283 224.371 378.351 224.258 379.895 224.82C382.441 225.746 396.444 236.799 399.685 238.65C402.926 240.502 411.027 281.472 412.184 287.722C413.341 293.972 420.287 300.221 423.296 309.017C426.305 317.813 433.48 331.238 444.822 348.598C446.816 351.649 448.902 354.765 450.987 357.828" stroke="#263238" stroke-miterlimit="10" strokeLinecap="round" stroke-linejoin="round"/>
<path d="M349.92 249.24C349.92 249.24 350.962 244.553 353.739 242.469C356.517 240.386 360.336 243.684 363.114 244.031" stroke="#263238" stroke-miterlimit="10" strokeLinecap="round" stroke-linejoin="round"/>
<path d="M368.843 241.785C368.843 241.785 370.405 236.394 373.183 235.179C375.961 233.964 380.243 237.609 382.094 237.783" stroke="#263238" stroke-miterlimit="10" strokeLinecap="round" stroke-linejoin="round"/>
<path d="M387.07 236.915C387.07 236.915 389.153 234.944 390.021 234.932C390.889 234.919 394.535 238.738 395.316 238.999C396.097 239.259 397.055 237.831 398.399 237.807" stroke="#263238" stroke-miterlimit="10" strokeLinecap="round" stroke-linejoin="round"/>
<path d="M380.743 232.025C380.743 232.025 383.251 231.793 385.074 233.095" stroke="#263238" stroke-miterlimit="10" strokeLinecap="round" stroke-linejoin="round"/>
<path d="M340.024 257.573C340.024 257.573 338.635 254.014 339.33 252.191" stroke="#263238" stroke-miterlimit="10" strokeLinecap="round" stroke-linejoin="round"/>
<path d="M342.716 231.446C342.716 231.446 344.365 233.381 344.452 234.931C344.539 236.481 348.495 238.358 348.495 238.358" stroke="#263238" stroke-miterlimit="10" strokeLinecap="round" stroke-linejoin="round"/>
<path d="M369.185 232.632C369.185 232.632 371.447 231.822 372.662 232.632" stroke="#263238" stroke-miterlimit="10" strokeLinecap="round" stroke-linejoin="round"/>
<path d="M340.025 262.26C340.025 262.26 339.562 258.672 342.716 256.242" stroke="#263238" stroke-miterlimit="10" strokeLinecap="round" stroke-linejoin="round"/>
<path d="M340.805 266.167C340.805 266.167 338.23 268.395 338.23 269.784" stroke="#263238" stroke-miterlimit="10" strokeLinecap="round" stroke-linejoin="round"/>
<path d="M328.929 262.26C331.993 263.398 334.528 268.162 336.38 268.973" stroke="#263238" stroke-miterlimit="10" strokeLinecap="round" stroke-linejoin="round"/>
<path d="M366.007 247.099C367.859 249.761 372.025 269.089 376.192 275.223" stroke="#263238" stroke-miterlimit="10" strokeLinecap="round" stroke-linejoin="round"/>
<path d="M381.52 241.635C381.867 241.866 384.298 249.389 384.298 249.389" stroke="#263238" stroke-miterlimit="10" strokeLinecap="round" stroke-linejoin="round"/>
<path d="M412.593 289.286C413.574 295.592 415.889 300.453 415.889 300.453" stroke="#263238" stroke-miterlimit="10" strokeLinecap="round" stroke-linejoin="round"/>
<path d="M370.143 319.311C369.826 318.044 368.486 309.711 366.841 306.934" stroke="#263238" stroke-miterlimit="10" strokeLinecap="round" stroke-linejoin="round"/>
<path opacity="0.2" d="M89.8936 449.289C89.8936 449.289 122.43 405.539 146.968 397.528C171.506 389.517 172.72 378.65 171.718 358.369C170.715 338.088 171.463 317.65 164.759 315.21C158.056 312.77 172.842 286.294 165.74 275.796L119.315 348.742L89.8936 449.289Z" fill="black" fill-opacity="0.7"/>
<path d="M82.0003 461.48C81.8603 461.44 81.7003 461.38 81.5103 461.32C81.9003 461.54 82.1403 461.68 82.2103 461.71C82.1803 461.67 82.1103 461.6 82.0003 461.48ZM161.1 327.27C157.05 325.4 149.16 316.63 148.17 315.53C153.19 307.11 158.11 298.99 159.82 297.04C163.37 293 167.7 281.37 165.94 275.73C164.33 270.55 159.06 271.38 158.34 271.52C158.29 271.53 158.26 271.54 158.26 271.54C158.2 271.55 158.16 271.58 158.13 271.63C158.02 271.82 147.29 289.91 143.96 294.24C142.37 296.3 138.71 300.99 135 305.69C134.81 305.66 134.41 305.59 133.89 305.52C132.17 305.31 129.01 305.05 126.84 305.72C126.77 305.74 126.69 305.77 126.61 305.8C125.84 306.09 124.63 306.74 123.18 307.62C123.04 307.56 122.76 307.44 122.39 307.29C120.81 306.63 117.54 305.36 115.99 305.29C114.1 305.19 107.44 308.28 103.46 310.79C102.84 310.59 99.0703 309.46 95.0403 309.62C91.9903 309.75 85.7703 312.28 80.7703 314.31C78.5503 315.21 76.6303 315.99 75.5103 316.34C75.1703 316.45 74.8503 316.54 74.5403 316.64C71.5603 317.53 69.9203 318.03 67.8403 322.19C65.6803 326.51 63.3503 342.62 62.2303 350.36L62.0803 351.41C61.6503 354.37 61.7203 359.67 61.7903 365.28C61.9003 373.08 62.0103 381.14 60.8503 384.3C59.1203 388.99 56.5603 392.71 54.6903 395.42C54.3603 395.89 54.0603 396.33 53.7803 396.75C52.0203 399.36 51.1603 401.66 50.0703 404.56C49.2303 406.78 48.1803 409.22 47.1603 411.45C45.2803 415.58 43.5303 418.99 43.5303 418.99C43.5303 418.99 78.9103 458.05 82.0003 461.48C82.3103 461.59 82.4903 461.64 82.5103 461.64C82.6303 461.44 89.1703 450.26 96.1003 439.23C102.07 429.71 108.33 420.3 111 418.14C115.38 414.59 117.58 409.7 118.66 406.22C120.1 401.59 129.29 395.88 138.18 390.36C148.01 384.26 158.16 377.95 158.52 372.73C158.71 370.03 159.33 365.56 160.05 360.37C162 346.31 164.42 328.8 161.1 327.27ZM144.26 349.75L139.89 354.03C139.27 350.53 135.02 345.88 134.35 345.17C134.71 343.63 134.86 341.79 135 340.07C135.16 338.12 135.33 336.1 135.81 335.74C136.29 335.38 138.5 331.77 142.1 325.73C142.4 329.96 146.06 334.62 146.6 335.29L144.26 349.75Z" fill="white"/>
<path opacity="0.4" d="M92.3702 336.76C91.0802 348.28 79.7902 376.86 79.7902 376.86L77.7502 348.07C77.7502 348.07 69.0402 387.14 66.5902 388.55C64.1402 389.95 59.9502 397.43 57.5702 403.36C55.9802 407.35 50.5602 410.08 47.1602 411.45C48.1802 409.22 49.2302 406.78 50.0702 404.56C51.1602 401.66 52.0202 399.36 53.7802 396.75C54.0602 396.33 54.3602 395.89 54.6902 395.42C56.5602 392.71 59.1202 388.99 60.8502 384.3C62.0102 381.14 61.9002 373.08 61.7902 365.28C61.7202 359.67 61.6502 354.37 62.0802 351.41L62.2302 350.36C63.3502 342.62 65.6802 326.51 67.8402 322.19C69.9202 318.03 71.5602 317.53 74.5402 316.64C74.8502 316.54 75.1702 316.45 75.5102 316.34C76.6302 315.99 78.5502 315.21 80.7702 314.31C85.7702 312.28 91.9902 309.75 95.0402 309.62C99.0702 309.46 102.84 310.59 103.46 310.79C107.44 308.28 114.1 305.19 115.99 305.29C117.54 305.36 120.81 306.63 122.39 307.29C115.8 310.76 104.63 319.04 104.63 319.04C91.9602 321.74 92.3702 336.76 92.3702 336.76Z" fill="#27DEBF"/>
<path opacity="0.4" d="M114.75 321.46C114.75 321.46 121.66 316.73 124.9 315.21C128.14 313.69 129.18 307.63 126.9 305.92C126.82 305.86 126.73 305.82 126.61 305.8C126.69 305.77 126.77 305.74 126.84 305.72C129.01 305.05 132.17 305.31 133.89 305.52C129.7 311.81 126.42 316.63 125.55 317.67C122.62 321.17 114.75 321.46 114.75 321.46Z" fill="#27DEBF"/>
<path opacity="0.4" d="M131.28 360.93L132.81 361.59C131.88 365.3 131.28 360.93 131.28 360.93Z" fill="#27DEBF"/>
<path opacity="0.4" d="M161.101 327.27C157.051 325.4 149.161 316.63 148.171 315.53C153.191 307.11 158.111 298.99 159.821 297.04C163.371 293 167.701 281.37 165.941 275.73C164.331 270.55 159.061 271.38 158.341 271.52L158.311 271.74C158.311 271.74 164.011 272.45 164.001 280.69C163.991 288.94 149.191 305.26 149.191 305.26C149.191 305.26 133.971 333.81 132.961 333.38C131.951 332.95 129.731 352.46 129.731 352.46C129.731 352.46 133.971 356.07 132.961 360.93C132.911 361.17 132.861 361.39 132.811 361.59L139.331 364.4C139.331 364.4 145.871 359.81 149.191 366.56C152.521 373.3 117.311 397.43 114.541 400.99C114.541 400.99 114.151 414.44 109.011 416.42C105.681 417.7 99.8106 430.42 96.1006 439.23C102.071 429.71 108.331 420.3 111.001 418.14C115.381 414.59 117.581 409.7 118.661 406.22C120.101 401.59 129.291 395.88 138.181 390.36C148.011 384.26 158.161 377.95 158.521 372.73C158.711 370.03 159.331 365.56 160.051 360.37C162.001 346.31 164.421 328.8 161.101 327.27ZM144.261 349.75L139.891 354.03C139.271 350.53 135.021 345.88 134.351 345.17C134.711 343.63 134.861 341.79 135.001 340.07C135.161 338.12 135.331 336.1 135.811 335.74C136.291 335.38 138.501 331.77 142.101 325.73C142.401 329.96 146.061 334.62 146.601 335.29L144.261 349.75Z" fill="#27DEBF"/>
<path d="M118.46 321.725C118.46 321.725 122.512 321.05 125.552 317.673C128.591 314.296 140.749 298.761 144.126 294.371C147.503 289.981 158.31 271.744 158.31 271.744C158.31 271.744 164.051 270.393 165.74 275.796C167.428 281.199 163.376 292.676 159.661 296.9C155.946 301.124 137.034 334.558 135.684 335.571C134.333 336.584 135.346 346.053 132.645 348.073" stroke="#263238" stroke-miterlimit="10" strokeLinecap="round" stroke-linejoin="round"/>
<path d="M134.111 345.231C134.111 345.231 139.398 350.768 139.736 354.482L144.464 349.856L146.828 335.232C146.828 335.232 142.157 329.604 142.297 324.988" stroke="#263238" stroke-miterlimit="10" strokeLinecap="round" stroke-linejoin="round"/>
<path d="M147.907 315.556C147.907 315.556 156.621 325.44 161.011 327.466C165.401 329.492 158.985 362.926 158.309 372.719C157.634 382.513 121.502 396.342 118.459 406.153C117.25 410.052 114.968 414.647 110.86 417.973C105 422.718 82.3232 461.538 82.3232 461.538" stroke="#263238" stroke-miterlimit="10" strokeLinecap="round" stroke-linejoin="round"/>
<path d="M135.093 305.92C135.093 305.92 129.942 304.974 126.903 305.92C123.864 306.866 111.031 315.984 107.991 317.673C104.952 319.361 100.561 319.699 99.5479 321.725" stroke="#263238" stroke-miterlimit="10" strokeLinecap="round" stroke-linejoin="round"/>
<path d="M123.197 307.855C123.197 307.855 118.01 305.596 115.984 305.499C113.958 305.402 105.853 309.229 102.138 311.931C98.4226 314.633 94.8206 315.984 92.6816 316.546" stroke="#263238" stroke-miterlimit="10" strokeLinecap="round" stroke-linejoin="round"/>
<path d="M103.484 311.022C103.484 311.022 99.4353 309.649 95.0453 309.833C90.6553 310.018 79.1733 315.421 75.5703 316.547C71.9683 317.673 70.2793 317.785 68.0283 322.288C65.7773 326.791 63.3003 344.464 62.2873 351.444C61.2743 358.423 63.0753 378.855 61.0493 384.371C59.0233 389.887 55.8903 393.992 53.9573 396.866C50.1083 402.59 50.5413 406.908 43.5283 418.995" stroke="#263238" stroke-miterlimit="10" strokeLinecap="round" stroke-linejoin="round"/>
<path d="M95.327 323.244C90.937 327.128 91.753 334.563 92.372 336.758C92.991 338.953 90.261 347.728 89.417 352.456" stroke="#263238" stroke-miterlimit="10" strokeLinecap="round" stroke-linejoin="round"/>
<path d="M123.196 326.959C115.251 327.128 112.718 332.531 112.212 336.077" stroke="#263238" stroke-miterlimit="10" strokeLinecap="round" stroke-linejoin="round"/>
<path d="M89.417 319.023C87.053 318.854 80.974 322.569 79.792 328.648" stroke="#263238" stroke-miterlimit="10" strokeLinecap="round" stroke-linejoin="round"/>
<path d="M146.828 335.233C146.828 335.233 148.01 331.856 149.192 331.518" stroke="#263238" stroke-miterlimit="10" strokeLinecap="round" stroke-linejoin="round"/>
<path d="M144.465 349.857C144.465 349.857 143.34 353.638 142.298 355.665C141.257 357.691 142.298 360.854 142.298 360.854" stroke="#263238" stroke-miterlimit="10" strokeLinecap="round" stroke-linejoin="round"/>
<path d="M139.737 354.483C139.568 357.86 135.855 361.485 135.094 360.854" stroke="#263238" stroke-miterlimit="10" strokeLinecap="round" stroke-linejoin="round"/>
<path d="M107.939 348.742C107.822 352.457 101.068 379.643 101.068 379.643" stroke="#263238" stroke-miterlimit="10" strokeLinecap="round" stroke-linejoin="round"/>
</svg>
