<svg width="500" height="500" viewBox="0 0 500 500" fill="none" xmlns="http://www.w3.org/2000/svg">
<path d="M67.7319 420.396H51.6719V420.646H67.7319V420.396Z" fill="#E0E0E0"/>
<path d="M223.882 417.686H170.352V417.936H223.882V417.686Z" fill="#E0E0E0"/>
<path d="M104.982 429.686H68.7324V429.936H104.982V429.686Z" fill="#E0E0E0"/>
<path d="M421.542 417.556H378.352V417.806H421.542V417.556Z" fill="#E0E0E0"/>
<path d="M436.782 417.556H430.452V417.806H436.782V417.556Z" fill="#E0E0E0"/>
<path d="M370.102 423.786H316.212V424.036H370.102V423.786Z" fill="#E0E0E0"/>
<path d="M408.147 385.3C410.364 382.859 413.391 380.287 417.226 377.583C420.038 375.605 422.157 373.89 423.585 372.438C425.017 370.987 425.953 369.196 426.398 367.064C427.028 364.038 426.5 361.429 424.81 359.24C423.121 357.051 420.57 355.602 417.157 354.891C413.88 354.208 410.804 354.4 407.93 355.468C405.054 356.531 402.448 358.32 400.109 360.818L389.278 349.466C393.297 344.837 398.094 341.606 403.674 339.779C409.251 337.951 415.455 337.749 422.284 339.172C430.297 340.842 436.306 344.189 440.312 349.208C444.318 354.227 445.579 360.298 444.095 367.422C443.395 370.78 442.311 373.627 440.842 375.968C439.373 378.31 437.776 380.221 436.05 381.695C434.327 383.173 432.144 384.833 429.508 386.677C426.368 388.841 424.013 390.721 422.445 392.315C420.877 393.909 419.818 396.017 419.271 398.638L403.492 395.35C404.381 391.092 405.93 387.744 408.147 385.3ZM398.723 422.172C397.21 419.831 396.743 417.268 397.324 414.482C397.904 411.699 399.329 409.568 401.6 408.09C403.87 406.615 406.471 406.18 409.395 406.789C412.323 407.399 414.53 408.836 416.022 411.095C417.514 413.357 417.969 415.88 417.39 418.663C416.809 421.45 415.362 423.614 413.04 425.156C410.718 426.698 408.132 427.17 405.273 426.575C402.418 425.979 400.232 424.513 398.723 422.172Z" fill="#E6E6E6"/>
<path d="M97.9276 130.047C99.7556 126.614 102.472 122.796 106.074 118.593C108.717 115.517 110.642 112.942 111.855 110.867C113.072 108.793 113.624 106.474 113.514 103.907C113.358 100.264 111.998 97.4339 109.432 95.4199C106.866 93.4059 103.53 92.4889 99.4216 92.6649C95.4766 92.8339 92.0156 93.9439 89.0386 95.9979C86.0576 98.0459 83.5966 100.847 81.6466 104.381L65.9736 94.5389C69.2286 88.0819 73.7766 82.9979 79.6286 79.2929C85.4756 75.5869 92.5116 73.5589 100.732 73.2079C110.378 72.7959 118.218 74.8829 124.252 79.4609C130.286 84.0399 133.487 90.6159 133.853 99.1919C134.026 103.234 133.611 106.804 132.609 109.906C131.607 113.009 130.336 115.657 128.789 117.842C127.247 120.031 125.231 122.562 122.752 125.434C119.788 128.818 117.64 131.649 116.309 133.926C114.978 136.203 114.377 138.92 114.512 142.075L95.5176 142.887C95.2986 137.761 96.1016 133.484 97.9276 130.047ZM97.8336 174.937C95.4256 172.699 94.1496 169.904 94.0066 166.549C93.8636 163.199 94.8756 160.349 97.0436 158.002C99.2116 155.658 102.061 154.407 105.58 154.256C109.104 154.105 112.044 155.11 114.405 157.26C116.766 159.414 118.018 162.167 118.161 165.517C118.304 168.872 117.276 171.765 115.068 174.201C112.859 176.637 110.039 177.926 106.598 178.073C103.162 178.22 100.238 177.176 97.8336 174.937Z" fill="#E6E6E6"/>
<path d="M158.297 106.946C159.857 105.291 161.977 103.557 164.656 101.741C166.621 100.413 168.103 99.2571 169.107 98.2741C170.113 97.2921 170.781 96.0691 171.115 94.6041C171.588 92.5261 171.257 90.7201 170.12 89.1891C168.983 87.6581 167.243 86.6261 164.899 86.0931C162.648 85.5801 160.525 85.6731 158.529 86.3731C156.532 87.0691 154.713 88.2691 153.068 89.9621L145.745 81.9961C148.575 78.8551 151.924 76.6891 155.795 75.5011C159.664 74.3121 163.945 74.2521 168.635 75.3201C174.139 76.5741 178.239 78.9591 180.937 82.4701C183.635 85.9821 184.427 90.1851 183.312 95.0781C182.787 97.3841 182.003 99.3341 180.96 100.93C179.917 102.526 178.792 103.824 177.583 104.818C176.376 105.815 174.849 106.932 173.008 108.17C170.815 109.622 169.167 110.888 168.066 111.967C166.964 113.046 166.207 114.486 165.797 116.286L154.959 113.818C155.626 110.891 156.737 108.603 158.297 106.946ZM151.328 132.25C150.315 130.617 150.026 128.844 150.462 126.929C150.897 125.017 151.907 123.566 153.492 122.576C155.076 121.588 156.875 121.321 158.884 121.779C160.895 122.237 162.398 123.256 163.398 124.833C164.398 126.411 164.68 128.157 164.244 130.069C163.808 131.983 162.782 133.457 161.162 134.49C159.541 135.524 157.752 135.816 155.788 135.369C153.827 134.922 152.338 133.883 151.328 132.25Z" fill="#F0F0F0"/>
<path d="M414.695 188.736C413.869 190.14 412.664 191.688 411.082 193.383C409.921 194.623 409.07 195.666 408.525 196.512C407.979 197.358 407.706 198.318 407.706 199.394C407.706 200.921 408.225 202.129 409.262 203.018C410.299 203.906 411.679 204.35 413.401 204.35C415.055 204.35 416.523 203.947 417.805 203.141C419.089 202.337 420.169 201.21 421.048 199.766L427.429 204.164C425.952 206.808 423.958 208.853 421.443 210.299C418.93 211.745 415.95 212.468 412.505 212.468C408.462 212.468 405.219 211.455 402.776 209.431C400.333 207.407 399.112 204.599 399.112 201.004C399.112 199.31 399.349 197.824 399.824 196.543C400.299 195.263 400.878 194.177 401.564 193.291C402.248 192.403 403.137 191.38 404.226 190.223C405.527 188.86 406.476 187.714 407.074 186.785C407.672 185.856 407.971 184.73 407.971 183.408H415.932C415.933 185.556 415.521 187.331 414.695 188.736ZM415.537 169.956C416.505 170.935 416.988 172.128 416.988 173.534C416.988 174.938 416.514 176.113 415.564 177.056C414.615 177.998 413.401 178.471 411.926 178.471C410.449 178.471 409.237 177.998 408.287 177.056C407.338 176.113 406.863 174.938 406.863 173.534C406.863 172.128 407.345 170.936 408.312 169.956C409.28 168.976 410.483 168.487 411.925 168.487C413.367 168.487 414.571 168.976 415.537 169.956Z" fill="#F0F0F0"/>
<path d="M65.931 187.448C65.877 185.691 66.085 183.584 66.554 181.126C66.9 179.326 67.077 177.884 67.087 176.798C67.099 175.711 66.794 174.678 66.175 173.695C65.296 172.301 64.127 171.496 62.668 171.283C61.209 171.069 59.695 171.459 58.123 172.45C56.613 173.402 55.505 174.615 54.799 176.088C54.09 177.561 53.753 179.212 53.782 181.036L45.425 180.694C45.252 177.43 45.895 174.415 47.358 171.648C48.819 168.882 51.124 166.506 54.269 164.523C57.96 162.195 61.504 161.254 64.899 161.695C68.294 162.136 71.026 163.997 73.095 167.278C74.07 168.825 74.709 170.318 75.013 171.76C75.317 173.202 75.413 174.526 75.297 175.731C75.184 176.936 74.961 178.381 74.633 180.064C74.23 182.057 74.024 183.65 74.012 184.842C74.001 186.034 74.376 187.235 75.137 188.442L67.869 193.025C66.631 191.064 65.986 189.207 65.931 187.448ZM75.973 205.077C74.526 204.74 73.398 203.93 72.588 202.646C71.78 201.364 71.537 200.019 71.86 198.611C72.184 197.205 73.02 196.074 74.367 195.225C75.716 194.375 77.094 194.108 78.503 194.422C79.913 194.737 81.022 195.535 81.83 196.817C82.64 198.101 82.886 199.466 82.567 200.918C82.248 202.37 81.431 203.508 80.114 204.339C78.8 205.169 77.418 205.416 75.973 205.077Z" fill="#F0F0F0"/>
<path d="M293.373 120.629C293.683 118.899 294.323 116.88 295.29 114.573C296.001 112.884 296.472 111.509 296.706 110.448C296.942 109.387 296.858 108.313 296.455 107.224C295.883 105.678 294.906 104.649 293.523 104.139C292.14 103.628 290.578 103.696 288.835 104.341C287.161 104.96 285.826 105.918 284.83 107.213C283.831 108.507 283.161 110.053 282.812 111.844L274.706 109.782C275.211 106.553 276.464 103.736 278.468 101.331C280.47 98.9269 283.216 97.0789 286.703 95.7889C290.796 94.2749 294.457 94.0869 297.688 95.2199C300.918 96.3539 303.206 98.7389 304.552 102.378C305.186 104.093 305.503 105.686 305.502 107.16C305.501 108.634 305.321 109.949 304.959 111.103C304.599 112.259 304.083 113.627 303.414 115.206C302.608 117.073 302.076 118.588 301.819 119.752C301.562 120.916 301.68 122.168 302.175 123.507L294.116 126.488C293.311 124.312 293.064 122.361 293.373 120.629ZM299.553 139.954C298.207 139.325 297.271 138.299 296.744 136.876C296.218 135.455 296.259 134.088 296.866 132.778C297.474 131.469 298.526 130.536 300.019 129.984C301.514 129.431 302.918 129.455 304.232 130.053C305.546 130.653 306.466 131.663 306.992 133.085C307.519 134.508 307.477 135.896 306.865 137.249C306.252 138.603 305.218 139.548 303.758 140.088C302.299 140.628 300.897 140.584 299.553 139.954Z" fill="#FAFAFA"/>
<path d="M220.614 435.631C219.404 416.959 218.704 398.256 218.528 379.546C218.478 374.248 218.471 368.949 218.503 363.651C218.523 360.433 213.523 360.429 213.503 363.651C213.39 382.361 213.786 401.074 214.707 419.762C214.968 425.054 215.271 430.344 215.614 435.631C215.701 436.979 216.7 438.131 218.114 438.131C219.4 438.131 220.702 436.986 220.614 435.631Z" fill="#263238"/>
<path d="M220.102 431.271C220.102 431.271 186.996 415.651 177.778 440.233L221.17 439.372L220.102 431.271Z" fill="#263238"/>
<path d="M294.613 435.631C294.103 426.605 293.623 417.578 293.155 408.55C292.276 391.602 291.435 374.65 290.783 357.692C290.502 350.386 290.224 343.075 290.176 335.763C290.155 332.547 285.154 332.54 285.176 335.763C285.274 350.507 286.057 365.259 286.742 379.984C287.457 395.337 288.249 410.686 289.083 426.033C289.257 429.232 289.432 432.432 289.613 435.631C289.794 438.831 294.795 438.852 294.613 435.631Z" fill="#263238"/>
<path d="M289.697 431.271C289.697 431.271 322.803 415.651 332.021 440.233L288.629 439.372L289.697 431.271Z" fill="#263238"/>
<path d="M138.507 185.777C138.507 185.777 112.855 188.152 110.955 216.654C110.955 216.654 82.9276 229.005 90.5286 262.257C90.5286 262.257 79.6026 281.733 94.8036 296.934C94.8036 296.934 89.5786 322.111 112.618 335.412C112.618 335.412 125.206 362.964 148.483 347.763C148.483 347.763 159.884 366.289 183.16 360.589C183.16 360.589 200.736 382.916 227.338 372.94C227.338 372.94 258.69 389.091 271.991 365.339C271.991 365.339 292.892 362.964 281.492 342.537L284.895 339.687H298.593C298.593 339.687 299.543 354.413 326.62 355.363C353.697 356.313 362.723 338.262 362.723 338.262C362.723 338.262 391.225 342.537 394.55 314.51C394.55 314.51 419.252 305.009 410.701 273.182C410.701 273.182 423.052 240.405 393.6 224.729C393.6 224.729 387.9 192.902 359.873 191.952C359.873 191.952 348.947 156.8 301.919 159.175C301.919 159.175 278.642 138.749 245.39 145.874C245.39 145.874 208.813 129.248 174.61 154.425C174.61 154.425 142.783 151.575 138.507 185.777Z" fill="#27DEBF"/>
<g opacity="0.3">
<path d="M253.386 312.763C244.21 318.043 228.663 311.784 228.6 300.283C216.212 305.096 202.756 301.987 195.271 290.403C194.973 300.685 201.223 309.227 211.187 311.785C215.853 312.983 222.634 313.369 226.256 316.545C228.638 318.634 227.229 324.126 229.048 326.72C233.853 333.571 244.046 335.941 251.381 331.914C252.161 334.928 252.94 337.942 253.72 340.956C250.836 348.476 243.889 354.293 235.978 355.809C228.068 357.325 219.462 354.49 214.001 348.569C207.886 352.242 199.236 350.915 194.503 345.58C187.956 350.536 176.763 345.925 175.606 337.796C166.383 340.814 155.702 338.907 148.094 332.885C140.485 326.862 136.177 316.904 136.997 307.235C129.974 308.87 122.936 300.379 125.846 293.782C118.334 292.254 111.99 286.037 110.311 278.558C108.631 271.079 111.708 262.746 117.845 258.152C109.501 255.274 102.907 247.806 101.084 239.17C99.7906 233.047 100.939 226.498 104.016 221.061C96.2706 227.168 85.4516 240.044 90.5296 262.259C90.5296 262.259 79.6036 281.735 94.8046 296.936C94.8046 296.936 89.5796 322.113 112.619 335.414C112.619 335.414 125.207 362.966 148.484 347.765C148.484 347.765 159.885 366.291 183.161 360.591C183.161 360.591 200.737 382.917 227.339 372.942C227.339 372.942 258.691 389.093 271.992 365.342C271.992 365.342 292.893 362.967 281.493 342.54L284.896 339.69H286.253C281.224 339.971 277.937 338.675 274.123 337.46C263.565 334.091 255.673 323.606 253.386 312.763Z" fill="black"/>
</g>
<path d="M111.139 215.195C115.998 221.473 123.907 225.096 131.815 224.79L133.516 224.675C134.077 224.585 134.642 224.506 135.215 224.434C134.67 224.61 134.119 224.779 133.562 224.936L131.86 225.278L130.127 225.438C122.587 225.85 114.8 221.874 111.139 215.195Z" fill="#263238"/>
<path d="M137.062 213.168C135.353 222.545 136.488 232.373 140.407 241.062C140.893 242.157 141.671 243.689 142.221 244.742C141.821 244.185 141.427 243.621 141.042 243.049C135.476 234.328 133.865 223.033 137.062 213.168Z" fill="#263238"/>
<path d="M171.362 218.139C163.072 211.345 162.036 198.13 169.351 190.208C171.639 187.571 174.625 185.517 177.961 184.427L177.638 184.874C177.693 179.812 177.756 174.468 180.128 169.838C182.392 165.359 187.61 161.628 192.739 163.066C187.655 162.013 182.835 165.757 180.745 170.14C178.617 174.725 178.59 179.895 178.585 184.878V185.213L178.262 185.325C164.348 190.213 160.697 207.935 171.362 218.139Z" fill="#263238"/>
<path d="M285.188 163.952C293.034 160.563 304.876 163.095 308.831 171.206C310.228 173.892 310.991 176.837 311.516 179.779L311.166 179.512C319.007 178.657 327.613 179.987 333.658 185.449C339.671 190.78 342.595 199.617 340.184 207.406L339.914 206.822C344.599 208.742 349.206 211.038 353.218 214.235C359.378 218.957 362.879 226.229 365.085 233.516C366.817 240.931 367.344 248.53 368.228 256.063L368.073 255.79C373.238 259.649 377.028 265.671 377.064 272.245C377.177 278.563 374.866 285.556 369.083 288.778C377.185 283.768 378.516 271.104 373.924 263.314C372.352 260.591 370.087 258.327 367.592 256.424L367.457 256.321L367.437 256.15C365.997 246.274 366.106 235.849 361.501 226.778C357.693 217.041 348.515 211.234 339.152 207.529C341.71 200.055 338.926 191.282 333.084 186.09C327.233 180.786 318.902 179.394 311.232 180.153L310.93 180.18C310.446 177.172 309.727 174.164 308.356 171.45C304.56 163.423 292.986 160.777 285.188 163.952Z" fill="#263238"/>
<path d="M362.52 338.754C373.119 331.52 378.063 317.16 373.41 305.081C371.982 301.073 369.675 297.395 366.703 294.333C370.002 297.121 372.515 300.8 374.129 304.808C379.294 316.988 374.06 332.295 362.52 338.754Z" fill="#263238"/>
<path d="M371.646 252.137C381.005 244.859 384.009 231.171 378.201 220.769C377.438 219.284 376.489 217.896 375.438 216.579C376.659 217.746 377.703 219.095 378.626 220.524C385.326 230.863 382.151 245.633 371.646 252.137Z" fill="#263238"/>
<path d="M295.984 313.723C304.549 315.5 314.207 315.182 321.418 309.786C328.629 304.909 331.625 294.029 325.984 286.933L325.308 286.099L326.376 286.199C337.492 287.129 345.099 275.466 339.882 265.546C345.864 275.498 337.897 288.076 326.293 287.098L326.685 286.364C332.818 293.952 329.614 305.336 321.928 310.487C314.476 315.906 304.553 316.017 295.984 313.723Z" fill="#263238"/>
<path d="M184.715 287.152C186.534 282.377 192.806 279.656 197.534 281.603C192.538 281.223 187.854 283.246 184.715 287.152Z" fill="#263238"/>
<path d="M192.229 283.365C196.469 298.781 214.069 306.831 228.405 299.873L229.12 299.531L229.05 300.321C228.598 305.855 232.903 310.862 237.89 312.749C243.274 314.81 249.305 313.993 254.696 312.283C256.187 327.187 269.259 339.519 284.267 340.201C269.239 340.104 255.657 327.885 253.877 312.925L254.454 313.294C251.737 314.144 248.919 314.741 246.05 314.888C243.189 315.036 240.256 314.709 237.536 313.679C232.153 311.613 227.64 306.239 228.149 300.241L228.794 300.689C214.112 307.803 195.926 299.214 192.229 283.365Z" fill="#263238"/>
<path d="M140.419 276.576C137.378 294.606 150.68 312.397 168.809 314.439L169.164 314.483L169.209 314.84C171.417 332.025 190.303 341.832 205.639 333.75L205.952 333.586L206.135 333.88C211.948 343.12 224.892 346.996 234.906 342.574C224.858 347.443 211.589 343.658 205.499 334.286L205.995 334.415C190.256 343.022 170.401 332.777 168.293 314.952L168.693 315.353C150.166 313.21 136.713 294.823 140.419 276.576Z" fill="#263238"/>
<path d="M228.663 335.764C233.989 335.445 237.434 342.072 234.035 346.256C233.072 347.565 231.609 348.506 230.058 348.725C236.444 345.858 235.51 337.2 228.663 335.764Z" fill="#263238"/>
<path d="M333.646 269.723C336.532 265.482 342.554 263.428 347.428 265.034C342.328 264.93 337.622 266.525 333.646 269.723Z" fill="#263238"/>
<g opacity="0.3">
<path d="M368.399 256.108C374.247 246.823 375.471 234.775 371.609 224.503C367.747 214.231 358.889 205.974 348.372 202.841C349.493 193.758 346.525 184.248 340.436 177.414C334.347 170.581 325.241 166.54 316.09 166.61C314.96 164.054 313.617 161.619 312.121 159.284C308.918 159.055 305.537 158.993 301.917 159.175C301.917 159.175 278.64 138.749 245.388 145.874C245.388 145.874 208.811 129.248 174.608 154.425C174.608 154.425 142.781 151.575 138.505 185.777C138.505 185.777 117.616 187.719 112.146 209.05C118.074 197.399 132.558 190.225 145.346 193.67C147.328 185.116 149.599 176.041 155.978 170.008C162.357 163.975 174.287 163.037 179.035 170.423C185.269 159.298 197.091 151.498 209.772 150.143C222.452 148.788 235.656 153.914 244.1 163.47C255.736 154.313 273.77 154.525 285.187 163.953C290.629 161.432 297.319 161.816 302.438 164.941C307.557 168.067 310.954 173.842 311.197 179.835C319.061 177.854 327.876 180.211 333.701 185.853C339.526 191.494 342.165 200.229 340.438 208.152C350.263 209.875 358.048 217.898 362.173 226.98C366.299 236.061 367.375 246.185 368.399 256.108Z" fill="white"/>
</g>
<path d="M301.729 229.548C302.588 240.424 297.683 250.074 290.773 251.105C283.866 252.137 277.57 244.159 276.711 233.285C275.85 222.412 280.754 212.759 287.663 211.727C294.571 210.695 300.867 218.673 301.729 229.548Z" fill="#263238"/>
<path d="M306.919 194.281C306.113 194.371 305.294 194.136 304.669 193.559C294.921 184.534 283.946 187.703 283.818 187.739C282.192 188.213 280.546 187.292 280.173 185.632C279.805 183.974 280.838 182.233 282.486 181.734C283.06 181.565 296.834 177.573 308.93 188.779C310.134 189.895 310.159 191.873 308.985 193.194C308.416 193.828 307.673 194.197 306.919 194.281Z" fill="#263238"/>
<path d="M197.629 229.233C196.501 240.058 201.164 249.809 208.045 251.014C214.924 252.22 221.416 244.424 222.544 233.6C223.674 222.778 219.012 213.024 212.132 211.818C205.252 210.612 198.761 218.408 197.629 229.233Z" fill="#263238"/>
<path d="M192.773 216.56C193.579 216.65 194.398 216.415 195.023 215.838C204.771 206.813 215.746 209.982 215.873 210.018C217.499 210.492 219.145 209.571 219.518 207.911C219.886 206.253 218.853 204.512 217.205 204.013C216.631 203.844 202.857 199.852 190.761 211.058C189.557 212.174 189.532 214.152 190.706 215.473C191.275 216.107 192.018 216.476 192.773 216.56Z" fill="#263238"/>
<path d="M218.745 223.835C218.745 227.523 217.58 230.513 216.144 230.513C214.707 230.513 213.543 227.523 213.543 223.835C213.543 220.147 214.708 217.157 216.144 217.157C217.58 217.158 218.745 220.147 218.745 223.835Z" fill="white"/>
<path d="M296.707 222.5C296.707 226.188 295.542 229.178 294.106 229.178C292.669 229.178 291.504 226.188 291.504 222.5C291.504 218.812 292.669 215.822 294.106 215.822C295.542 215.822 296.707 218.812 296.707 222.5Z" fill="white"/>
<path d="M196.647 273.651C203.237 273.651 208.579 270.296 208.579 266.158C208.579 262.02 203.237 258.665 196.647 258.665C190.057 258.665 184.715 262.02 184.715 266.158C184.715 270.296 190.057 273.651 196.647 273.651Z" fill="#EEC1BB"/>
<path d="M302.299 269.33C308.889 269.33 314.231 265.976 314.231 261.837C314.231 257.699 308.889 254.344 302.299 254.344C295.709 254.344 290.367 257.699 290.367 261.837C290.367 265.976 295.709 269.33 302.299 269.33Z" fill="#EEC1BB"/>
<path d="M261.39 270.313C261.093 266.198 261.042 262.059 260.499 257.969C260.319 256.62 260.149 255.834 259.839 254.655C259.391 252.951 255.606 252.59 255.606 252.59C252.288 252.134 248.242 252.701 246.611 255.858C244.981 259.015 244.681 262.771 244.766 266.386C244.85 269.97 245.54 274.022 248.333 275.955C250.643 277.553 253.631 277.16 256.341 276.708C258.037 276.426 259.938 276.005 260.864 274.442C261.569 273.251 261.492 271.725 261.39 270.313Z" fill="#263238"/>
<path d="M245.257 270.721C245.741 272.856 246.651 274.792 248.332 275.955C250.642 277.553 253.63 277.16 256.34 276.708C257.925 276.444 259.679 276.047 260.658 274.722C257.103 268.103 247.543 270.08 245.257 270.721Z" fill="#DC5753"/>
<path d="M233.019 308.517C233.019 308.517 221.461 298.766 223.807 295.037C225.057 293.05 226.755 292.738 231.738 295.181C236.721 297.624 238.311 298.082 240.391 296.002C242.471 293.921 248.103 273.622 249.927 272.401C251.751 271.179 254.131 273.446 254.323 277.458C254.515 281.47 255.124 287.007 255.124 287.007C255.124 287.007 264.876 292.213 265.261 298.849C265.646 305.485 266.062 309.785 256.13 317.82C246.197 325.854 233.019 308.517 233.019 308.517Z" fill="#263238"/>
<path d="M147.275 277.451C143.597 288.551 139.441 299.436 138.058 311.124C137.343 317.161 137.08 323.423 137.831 329.469C138.553 335.285 140.366 340.991 144.413 345.378C152.667 354.326 166.316 353.799 177.28 351.722C189.165 349.471 200.822 345.26 211.555 339.707C223.479 333.538 234.266 325.403 244.083 316.283C246.445 314.088 242.904 310.558 240.547 312.747C232.266 320.441 223.31 327.373 213.475 332.975C203.421 338.703 192.608 342.911 181.384 345.702C171.769 348.093 159.561 350.219 150.767 344.295C141.453 338.02 141.954 324.402 142.722 314.549C143.693 302.095 148.203 290.53 152.096 278.78C153.111 275.719 148.284 274.406 147.275 277.451Z" fill="#263238"/>
<path d="M156.83 275.885C157.125 279.789 154.2 283.194 150.295 283.489C146.391 283.784 142.986 280.858 142.691 276.954C142.396 273.05 145.322 269.645 149.226 269.35C153.131 269.055 156.535 271.981 156.83 275.885Z" fill="#263238"/>
<path d="M342.637 379.53C344.668 377.401 344.315 387.441 341.755 382.518C339.195 377.594 339.467 375.889 341.424 374.593C345.097 372.16 354.976 371.866 354.976 371.866C354.976 371.866 372.618 384.632 364.82 394.751C357.022 404.87 352.713 404.555 346.07 404.327C339.427 404.099 333.992 394.472 333.992 394.472C333.992 394.472 333.285 386.826 335.749 384.185C338.212 381.543 342.637 379.53 342.637 379.53Z" fill="#263238"/>
<path d="M352.234 286.859C363.753 294.828 372.095 307.089 375.657 320.601C379.295 334.405 377.48 349.216 370.973 361.895C367.245 369.16 362.116 375.572 355.809 380.762C354.766 381.621 354.919 383.408 355.809 384.298C356.841 385.33 358.299 385.159 359.344 384.298C371.231 374.514 379.326 360.144 381.72 344.947C384.121 329.707 380.768 314.042 372.497 301.019C367.871 293.735 361.852 287.45 354.756 282.541C353.645 281.772 351.98 282.335 351.335 283.438C350.611 284.68 351.12 286.088 352.234 286.859Z" fill="#263238"/>
<path d="M360.584 284.23C360.584 288.146 357.41 291.32 353.494 291.32C349.578 291.32 346.404 288.146 346.404 284.23C346.404 280.315 349.578 277.14 353.494 277.14C357.41 277.14 360.584 280.315 360.584 284.23Z" fill="#263238"/>
<path d="M408.241 89.7901C389.904 76.2591 364.069 80.1551 350.538 98.4921C340.092 112.649 340.073 131.253 349.027 145.235L345.693 157.172L358.712 155.761C358.895 155.9 359.056 156.058 359.242 156.195C377.579 169.726 403.414 165.829 416.945 147.492C430.475 129.155 426.578 103.321 408.241 89.7901Z" fill="#27DEBF"/>
<path opacity="0.7" d="M408.241 89.7901C389.904 76.2591 364.069 80.1551 350.538 98.4921C340.092 112.649 340.073 131.253 349.027 145.235L345.693 157.172L358.712 155.761C358.895 155.9 359.056 156.058 359.242 156.195C377.579 169.726 403.414 165.829 416.945 147.492C430.475 129.155 426.578 103.321 408.241 89.7901Z" fill="white"/>
<path d="M412.675 87.1211C423.765 94.6711 430.605 108.081 430.209 121.491" stroke="#27DEBF" strokeWidth="0.5" stroke-miterlimit="10" strokeLinecap="round" stroke-linejoin="round"/>
<path d="M429.809 127.634C429.9 129.678 429.564 131.74 428.828 133.65" stroke="#27DEBF" strokeWidth="0.5" stroke-miterlimit="10" strokeLinecap="round" stroke-linejoin="round"/>
<path d="M381.062 125.019C381.757 123.839 382.77 122.537 384.1 121.112C385.076 120.07 385.792 119.193 386.25 118.481C386.709 117.77 386.938 116.962 386.938 116.058C386.938 114.774 386.502 113.758 385.63 113.011C384.758 112.264 383.598 111.891 382.15 111.891C380.76 111.891 379.525 112.23 378.447 112.907C377.368 113.583 376.46 114.531 375.721 115.745L370.356 112.047C371.598 109.824 373.275 108.105 375.389 106.889C377.502 105.673 380.007 105.066 382.904 105.066C386.303 105.066 389.03 105.918 391.084 107.619C393.138 109.32 394.165 111.682 394.165 114.704C394.165 116.128 393.965 117.378 393.566 118.454C393.167 119.53 392.68 120.443 392.103 121.188C391.528 121.935 390.781 122.795 389.865 123.768C388.771 124.914 387.973 125.878 387.471 126.658C386.968 127.439 386.716 128.386 386.716 129.498H380.022C380.021 127.693 380.368 126.2 381.062 125.019ZM380.354 140.809C379.54 139.985 379.134 138.983 379.134 137.801C379.134 136.62 379.533 135.633 380.331 134.84C381.129 134.048 382.15 133.651 383.39 133.651C384.632 133.651 385.651 134.048 386.449 134.84C387.247 135.633 387.646 136.62 387.646 137.801C387.646 138.983 387.241 139.986 386.427 140.809C385.613 141.633 384.602 142.044 383.389 142.044C382.179 142.043 381.166 141.632 380.354 140.809Z" fill="#27DEBF"/>
</svg>
