<svg width="500" height="500" viewBox="0 0 500 500" fill="none" xmlns="http://www.w3.org/2000/svg">
<g clip-path="url(#clip0_2059_1738)">
<path d="M402.119 428.843C417.528 418.684 430.542 405.516 440.364 388.422C497.521 288.948 484.608 142.257 374.528 79.36C323.654 50.292 250.408 31.887 195.429 61.747C150.833 85.968 123.489 131.563 100.876 173.046C86.6525 199.138 74.9415 227.217 57.4245 251.626C34.7025 283.287 9.68853 325.567 34.9445 362.346C69.3505 412.451 134.341 435.33 193.276 450.391C257.217 466.732 329.109 469.051 388.173 437.179C392.954 434.598 397.61 431.816 402.119 428.843Z" fill="#70FE90"/>
<path opacity="0.7" d="M402.119 428.843C417.528 418.684 430.542 405.516 440.364 388.422C497.521 288.948 484.608 142.257 374.528 79.36C323.654 50.292 250.408 31.887 195.429 61.747C150.833 85.968 123.489 131.563 100.876 173.046C86.6525 199.138 74.9415 227.217 57.4245 251.626C34.7025 283.287 9.68853 325.567 34.9445 362.346C69.3505 412.451 134.341 435.33 193.276 450.391C257.217 466.732 329.109 469.051 388.173 437.179C392.954 434.598 397.61 431.816 402.119 428.843Z" fill="white"/>
<path d="M338.237 85.8699C380.28 86.5219 415.363 102.471 442.99 134.37C446.763 138.726 446.301 144.77 442.092 148.386C438.079 151.833 432.11 151.395 428.42 147.111C418.376 135.45 406.733 125.795 393.09 118.635C350.312 96.1839 299.144 101.69 262.291 132.869C257.212 137.166 252.692 142.15 248.114 147.004C244.148 151.209 238.297 151.882 234.104 148.269C229.965 144.702 229.65 138.627 233.427 134.25C256.58 107.415 285.711 91.5519 320.822 86.7019C323.572 86.3219 326.345 86.0269 329.116 85.9009C332.151 85.7639 335.197 85.8699 338.237 85.8699Z" fill="#263238"/>
<path d="M341.71 124.853C368.285 125.541 393.265 136.892 412.925 159.61C416.802 164.09 416.347 169.873 412.044 173.57C407.947 177.09 402.015 176.616 398.23 172.235C387.973 160.361 375.54 151.651 360.382 147.559C329.491 139.219 302.784 146.825 280.417 169.69C279.585 170.54 278.817 171.454 278.026 172.344C274.335 176.502 268.364 177.059 264.328 173.621C260.073 169.996 259.632 164.005 263.353 159.618C272.113 149.292 282.542 141.08 294.677 135.058C308.43 128.234 323.005 124.916 341.71 124.853Z" fill="#263238"/>
<path d="M385.432 191.337C385.427 195.383 382.982 198.963 379.221 200.429C375.434 201.905 371.228 200.923 368.392 197.711C364.213 192.979 359.396 189.153 353.551 186.676C337.597 179.916 319.997 184.115 308.133 197.516C305.318 200.695 301.807 201.847 297.748 200.616C293.844 199.432 291.59 196.62 290.988 192.591C290.564 189.754 291.419 187.232 293.244 185.032C313.563 160.531 350.946 157.062 375.392 177.487C378.17 179.808 380.78 182.406 383.078 185.196C384.43 186.837 385.013 189.111 385.942 191.1C385.771 191.179 385.601 191.258 385.432 191.337Z" fill="#263238"/>
<path d="M338.205 242.378C327.304 242.384 318.647 233.734 318.654 222.845C318.66 212.128 327.37 203.415 338.119 203.373C348.917 203.331 357.681 212.117 357.653 222.957C357.625 233.751 348.991 242.373 338.205 242.378Z" fill="#263238"/>
<path d="M221.263 335.798C230.343 326.718 230.343 311.998 221.263 302.919C212.184 293.84 197.464 293.84 188.385 302.919C179.305 311.998 179.305 326.718 188.385 335.798C197.464 344.877 212.184 344.877 221.263 335.798Z" stroke="#263238" stroke-width="2" stroke-miterlimit="10" stroke-linecap="round" stroke-linejoin="round"/>
<path d="M204.828 342.608C211.179 342.608 216.328 332.199 216.328 319.359C216.328 306.519 211.179 296.11 204.828 296.11C198.477 296.11 193.328 306.519 193.328 319.359C193.328 332.199 198.477 342.608 204.828 342.608Z" stroke="#263238" stroke-width="2" stroke-miterlimit="10" stroke-linecap="round" stroke-linejoin="round"/>
<path d="M188.83 302.915C192.998 306.868 198.629 309.294 204.827 309.294C211.135 309.294 216.857 306.782 221.046 302.703" stroke="#263238" stroke-width="2" stroke-miterlimit="10" stroke-linecap="round" stroke-linejoin="round"/>
<path d="M220.891 335.867C216.717 331.876 211.058 329.424 204.827 329.424C198.479 329.424 192.725 331.968 188.529 336.093" stroke="#263238" stroke-width="2" stroke-miterlimit="10" stroke-linecap="round" stroke-linejoin="round"/>
<path d="M181.578 319.359H228.077" stroke="#263238" stroke-width="2" stroke-miterlimit="10" stroke-linecap="round" stroke-linejoin="round"/>
<path d="M204.828 296.109V342.609" stroke="#263238" stroke-width="2" stroke-miterlimit="10" stroke-linecap="round" stroke-linejoin="round"/>
<path d="M204.941 288.758V286.258" stroke="#263238" stroke-linecap="round" stroke-linejoin="round"/>
<path d="M204.941 281.184V30.0132" stroke="#263238" stroke-linecap="round" stroke-linejoin="round" stroke-dasharray="5.07 5.07"/>
<path d="M204.941 27.4761V24.9761" stroke="#263238" stroke-linecap="round" stroke-linejoin="round"/>
<path d="M167.427 153.229C159.448 153.229 152.98 159.697 152.98 167.676C152.98 175.655 167.427 191.974 167.427 191.974C167.427 191.974 181.874 175.656 181.874 167.676C181.874 159.697 175.406 153.229 167.427 153.229ZM167.427 174.243C163.8 174.243 160.86 171.303 160.86 167.676C160.86 164.049 163.8 161.109 167.427 161.109C171.054 161.109 173.994 164.049 173.994 167.676C173.994 171.303 171.054 174.243 167.427 174.243Z" fill="#263238" stroke="#263238" stroke-miterlimit="10" stroke-linecap="round" stroke-linejoin="round"/>
<path d="M167.428 153.229V150.729" stroke="#263238" stroke-linecap="round" stroke-linejoin="round"/>
<path d="M167.428 145.799V29.9412" stroke="#263238" stroke-linecap="round" stroke-linejoin="round" stroke-dasharray="4.93 4.93"/>
<path d="M167.428 27.4761V24.9761" stroke="#263238" stroke-linecap="round" stroke-linejoin="round"/>
<path d="M133.268 271.755H104.643C99.9793 271.755 96.1973 275.536 96.1973 280.201V293.238C96.1973 297.902 99.9783 301.684 104.643 301.684L104.927 314.778L113.913 301.684H133.269C137.934 301.684 141.715 297.903 141.715 293.238V280.201C141.713 275.536 137.932 271.755 133.268 271.755Z" fill="white" stroke="#263238" stroke-miterlimit="10" stroke-linecap="round" stroke-linejoin="round"/>
<path d="M122.467 278.793H145.995C149.829 278.793 152.937 281.901 152.937 285.735V296.451C152.937 300.285 149.829 303.393 145.995 303.393L145.762 314.155L138.376 303.393H122.467C118.633 303.393 115.525 300.285 115.525 296.451V285.735C115.525 281.901 118.633 278.793 122.467 278.793Z" fill="#263238" stroke="#263238" stroke-miterlimit="10" stroke-linecap="round" stroke-linejoin="round"/>
<path d="M129.502 291.084C129.502 289.656 128.344 288.498 126.916 288.498C125.488 288.498 124.33 289.656 124.33 291.084C124.33 292.512 125.488 293.67 126.916 293.67C128.345 293.67 129.502 292.512 129.502 291.084Z" fill="#70FE90"/>
<path d="M134.928 293.67C136.356 293.67 137.514 292.513 137.514 291.084C137.514 289.656 136.356 288.498 134.928 288.498C133.5 288.498 132.342 289.656 132.342 291.084C132.342 292.513 133.5 293.67 134.928 293.67Z" fill="#70FE90"/>
<path d="M142.94 293.67C144.368 293.67 145.526 292.513 145.526 291.084C145.526 289.656 144.368 288.498 142.94 288.498C141.511 288.498 140.354 289.656 140.354 291.084C140.354 292.513 141.511 293.67 142.94 293.67Z" fill="#70FE90"/>
<path d="M127.51 262.608V260.108" stroke="#263238" stroke-linecap="round" stroke-linejoin="round"/>
<path d="M127.51 255.178V30.8401" stroke="#DEDBCC" stroke-linecap="round" stroke-linejoin="round" stroke-dasharray="4.93 4.93"/>
<path d="M127.51 28.374V25.874" stroke="#263238" stroke-linecap="round" stroke-linejoin="round"/>
<path d="M116.838 189.152H66.2734V218.703H116.838V189.152Z" fill="white" stroke="#263238" stroke-miterlimit="10" stroke-linecap="round" stroke-linejoin="round"/>
<path d="M66.2734 218.703L91.1544 195.719L116.838 218.703H66.2734Z" fill="white" stroke="#263238" stroke-miterlimit="10" stroke-linecap="round" stroke-linejoin="round"/>
<path d="M66.2734 189.152L91.5564 203.927L116.838 189.152H66.2734Z" fill="white" stroke="#263238" stroke-miterlimit="10" stroke-linecap="round" stroke-linejoin="round"/>
<path d="M91.1094 187.802V185.302" stroke="#DEDBCC" stroke-linecap="round" stroke-linejoin="round"/>
<path d="M91.1094 180.608V145.403" stroke="#DEDBCC" stroke-linecap="round" stroke-linejoin="round" stroke-dasharray="4.69 4.69"/>
<path d="M91.1094 143.056V140.556" stroke="#DEDBCC" stroke-linecap="round" stroke-linejoin="round"/>
<path d="M104.631 97.8771C100.256 88.9101 90.9067 82.7131 80.0777 82.7131C67.3557 82.7131 56.6767 91.2661 53.7057 102.818C53.2697 102.785 52.8327 102.753 52.3887 102.753C43.0207 102.753 35.4277 110.187 35.4277 119.357C35.4277 127.79 41.8557 134.739 50.1737 135.804V135.962H101.325C112.146 135.962 120.918 127.375 120.918 116.781C120.918 107.291 113.877 99.4161 104.631 97.8771Z" fill="white" stroke="#263238" stroke-miterlimit="10" stroke-linecap="round" stroke-linejoin="round"/>
<path d="M80.0781 82.7131V80.2131" stroke="#DEDBCC" stroke-linecap="round" stroke-linejoin="round"/>
<path d="M80.0781 75.335V28.99" stroke="#DEDBCC" stroke-linecap="round" stroke-linejoin="round" stroke-dasharray="4.88 4.88"/>
<path d="M80.0781 26.551V24.051" stroke="#DEDBCC" stroke-linecap="round" stroke-linejoin="round"/>
<path d="M47.585 261.104C46.393 261.104 45.297 261.506 44.415 262.175L31.824 252.732C32.047 252.15 32.174 251.52 32.174 250.859C32.174 247.957 29.822 245.605 26.921 245.605C24.019 245.605 21.668 247.957 21.668 250.859C21.668 253.76 24.02 256.113 26.921 256.113C28.113 256.113 29.209 255.711 30.091 255.042L42.682 264.485C42.459 265.068 42.332 265.698 42.332 266.358C42.332 267.019 42.459 267.648 42.682 268.231L30.091 277.674C29.209 277.005 28.113 276.603 26.921 276.603C24.019 276.603 21.668 278.955 21.668 281.857C21.668 284.759 24.02 287.111 26.921 287.111C29.822 287.111 32.174 284.759 32.174 281.857C32.174 281.196 32.047 280.566 31.824 279.984L44.414 270.541C45.296 271.21 46.392 271.613 47.584 271.613C50.485 271.613 52.837 269.261 52.837 266.359C52.837 263.457 50.486 261.104 47.585 261.104Z" fill="#DEDBCC"/>
<path d="M39.8379 88.7761V86.2761" stroke="#DEDBCC" stroke-linecap="round" stroke-linejoin="round"/>
<path d="M39.8379 80.9082V29.9092" stroke="#DEDBCC" stroke-linecap="round" stroke-linejoin="round" stroke-dasharray="5.37 5.37"/>
<path d="M39.8379 27.2251V24.7251" stroke="#DEDBCC" stroke-linecap="round" stroke-linejoin="round"/>
<path d="M39.8379 249.984V247.484" stroke="#DEDBCC" stroke-linecap="round" stroke-linejoin="round"/>
<path d="M39.8379 242.467V144.64" stroke="#DEDBCC" stroke-linecap="round" stroke-linejoin="round" stroke-dasharray="5.02 5.02"/>
<path d="M39.8379 142.131V139.631" stroke="#DEDBCC" stroke-linecap="round" stroke-linejoin="round"/>
<path d="M93.3909 405.187C100.394 405.187 106.071 390.296 106.071 371.927C106.071 353.558 100.394 338.667 93.3909 338.667C86.388 338.667 80.7109 353.558 80.7109 371.927C80.7109 390.296 86.388 405.187 93.3909 405.187Z" fill="#70FE90" stroke="#263238" stroke-miterlimit="10"/>
<path d="M132.805 351.41C136.768 338.933 135.58 327.42 130.15 325.695C124.719 323.97 117.104 332.686 113.14 345.163C109.176 357.639 110.365 369.152 115.795 370.878C121.225 372.603 128.841 363.887 132.805 351.41Z" fill="#70FE90" stroke="#263238" stroke-miterlimit="10"/>
<path d="M39.7467 426.646C26.8397 424.46 17.1477 418.133 18.0997 412.516C19.0507 406.899 30.2857 404.117 43.1927 406.304C56.0997 408.49 65.7907 414.817 64.8397 420.434C63.8877 426.051 52.6537 428.833 39.7467 426.646Z" fill="#70FE90" stroke="#263238" stroke-miterlimit="10"/>
<path d="M144.726 395.898C133.945 406.589 121.209 411.225 116.277 406.253C111.346 401.28 116.087 388.582 126.867 377.891C137.647 367.2 150.384 362.564 155.316 367.536C160.248 372.508 155.507 385.206 144.726 395.898Z" fill="#70FE90" stroke="#263238" stroke-miterlimit="10"/>
<path d="M70.4428 366.572C80.8668 381.697 83.9738 397.641 77.3808 402.185C70.7878 406.729 56.9928 398.152 46.5688 383.027C36.1448 367.903 33.0378 351.958 39.6308 347.414C46.2228 342.87 60.0188 351.448 70.4428 366.572Z" fill="#70FE90" stroke="#263238" stroke-miterlimit="10"/>
<path d="M94.2793 403.527L95.2603 449.257" stroke="#263238" stroke-miterlimit="10" stroke-linecap="round"/>
<path d="M93.0977 359.56L94.2797 403.527" stroke="#263238" stroke-miterlimit="10" stroke-linecap="round"/>
<path d="M93.1827 352.387L93.0977 355.755" stroke="#263238" stroke-miterlimit="10" stroke-linecap="round"/>
<path d="M77.332 400.025C83.688 413.375 88.856 429.589 89.856 448.01" stroke="#263238" stroke-miterlimit="10" stroke-linecap="round"/>
<path d="M55.5508 366.701C61.4618 373.525 70.1548 384.949 77.3318 400.025" stroke="#263238" stroke-miterlimit="10" stroke-linecap="round"/>
<path d="M48.6973 359.455C48.6973 359.455 50.0123 360.656 52.1733 362.953" stroke="#263238" stroke-miterlimit="10" stroke-linecap="round"/>
<path d="M117.065 404.719C109.667 414.944 102.237 428.327 96.5078 445.514" stroke="#263238" stroke-miterlimit="10" stroke-linecap="round"/>
<path d="M131.654 387.956C127.177 392.203 122.129 397.721 117.066 404.719" stroke="#263238" stroke-miterlimit="10" stroke-linecap="round"/>
<path d="M147.229 376.085C147.229 376.085 142.706 378.403 136.121 383.956" stroke="#263238" stroke-miterlimit="10" stroke-linecap="round"/>
<path d="M116.532 367.791C109.508 389.897 100.078 422.564 95.6777 450.92" stroke="#263238" stroke-miterlimit="10" stroke-linecap="round"/>
<path d="M120.811 354.677C119.561 358.405 118.107 362.832 116.531 367.79" stroke="#263238" stroke-miterlimit="10" stroke-linecap="round"/>
<path d="M125.194 341.993C125.194 341.993 123.966 345.377 121.99 351.182" stroke="#263238" stroke-miterlimit="10" stroke-linecap="round"/>
<path d="M64.1895 417.37C72.9655 420.698 81.5344 427.118 85.6984 439.278" stroke="#263238" stroke-miterlimit="10" stroke-linecap="round"/>
<path d="M47.9785 414.074C52.7025 414.352 58.4905 415.209 64.1905 417.37" stroke="#263238" stroke-miterlimit="10" stroke-linecap="round"/>
<path d="M37.4727 414.333C37.4727 414.333 39.0347 414.11 41.6117 414.009" stroke="#263238" stroke-miterlimit="10" stroke-linecap="round"/>
<path d="M150.201 426.646C163.108 424.46 172.8 418.133 171.848 412.516C170.896 406.899 159.662 404.117 146.755 406.304C133.848 408.49 124.156 414.817 125.108 420.434C126.06 426.051 137.295 428.833 150.201 426.646Z" fill="#70FE90" stroke="#263238" stroke-miterlimit="10"/>
<path d="M126.035 417.266C117.163 420.564 108.456 426.99 104.248 439.279" stroke="#263238" stroke-miterlimit="10" stroke-linecap="round"/>
<path d="M143.328 414.008C138.455 414.193 132.205 414.973 126.035 417.266" stroke="#263238" stroke-miterlimit="10" stroke-linecap="round"/>
<path d="M152.475 414.333C152.475 414.333 151.446 414.186 149.68 414.077" stroke="#263238" stroke-miterlimit="10" stroke-linecap="round"/>
<path d="M125.849 478.137C129.635 470.215 131.846 461.067 131.846 451.959C131.846 446.317 130.991 440.924 129.447 435.953H61.9049C60.3609 440.924 59.5059 446.317 59.5059 451.959C59.5059 461.067 61.7159 470.215 65.5029 478.137H125.849Z" fill="#263238"/>
<path d="M60.1727 443.436C59.9797 444.666 59.8307 445.914 59.7207 447.178H131.633C131.523 445.915 131.374 444.666 131.181 443.436H60.1727Z" fill="#7A7A7A"/>
<path d="M130.867 462.56C131.092 461.32 131.289 460.073 131.437 458.818H59.916C60.064 460.072 60.261 461.319 60.486 462.56H130.867Z" fill="#7A7A7A"/>
<path d="M68.236 452.167C68.236 453.774 66.933 455.077 65.326 455.077C63.719 455.077 62.416 453.774 62.416 452.167C62.416 450.56 63.719 449.257 65.326 449.257C66.933 449.257 68.236 450.56 68.236 452.167Z" fill="#8C8C8C"/>
<path d="M82.7887 452.167C82.7887 453.774 81.4857 455.077 79.8787 455.077C78.2717 455.077 76.9688 453.774 76.9688 452.167C76.9688 450.56 78.2717 449.257 79.8787 449.257C81.4857 449.257 82.7887 450.56 82.7887 452.167Z" fill="#8C8C8C"/>
<path d="M97.3395 452.167C97.3395 453.774 96.0365 455.077 94.4295 455.077C92.8225 455.077 91.5195 453.774 91.5195 452.167C91.5195 450.56 92.8225 449.257 94.4295 449.257C96.0365 449.257 97.3395 450.56 97.3395 452.167Z" fill="#8C8C8C"/>
<path d="M108.98 455.077C110.587 455.077 111.89 453.774 111.89 452.167C111.89 450.56 110.587 449.257 108.98 449.257C107.373 449.257 106.07 450.56 106.07 452.167C106.07 453.774 107.373 455.077 108.98 455.077Z" fill="#8C8C8C"/>
<path d="M126.441 452.167C126.441 453.774 125.138 455.077 123.531 455.077C121.924 455.077 120.621 453.774 120.621 452.167C120.621 450.56 121.924 449.257 123.531 449.257C125.138 449.257 126.441 450.56 126.441 452.167Z" fill="#8C8C8C"/>
<path d="M443.651 250.081C441.551 249.844 439.647 251.335 439.376 253.431L419.979 403.169L432.595 404.593L447.07 254.3C447.272 252.195 445.751 250.318 443.651 250.081Z" fill="#263238" stroke="#263238" stroke-miterlimit="10" stroke-linecap="round" stroke-linejoin="round"/>
<path d="M248.766 250.081C250.866 249.844 252.769 251.335 253.04 253.431L272.438 403.169L259.822 404.593L245.346 254.3C245.144 252.195 246.666 250.318 248.766 250.081Z" fill="#263238" stroke="#263238" stroke-miterlimit="10" stroke-linecap="round" stroke-linejoin="round"/>
<path d="M465.939 478.137H268.663C266.13 478.137 264.076 476.083 264.076 473.55V404.74C264.076 402.207 266.13 400.153 268.663 400.153H465.939C468.473 400.153 470.526 402.207 470.526 404.74V473.55C470.527 476.083 468.473 478.137 465.939 478.137Z" fill="white" stroke="#263238" stroke-miterlimit="10" stroke-linecap="round" stroke-linejoin="round"/>
<path d="M470.722 468.522H263.879C261.575 468.522 259.707 466.654 259.707 464.35V413.938C259.707 411.634 261.575 409.766 263.879 409.766H470.722C473.026 409.766 474.894 411.634 474.894 413.938V464.35C474.894 466.655 473.026 468.522 470.722 468.522Z" fill="white" stroke="#263238" stroke-miterlimit="10" stroke-linecap="round" stroke-linejoin="round"/>
<path d="M357.674 478.137H160.398C157.865 478.137 155.811 476.083 155.811 473.55V404.74C155.811 402.207 157.865 400.153 160.398 400.153H357.674C360.207 400.153 362.261 402.207 362.261 404.74V473.55C362.261 476.083 360.207 478.137 357.674 478.137Z" fill="white" stroke="#263238" stroke-miterlimit="10" stroke-linecap="round" stroke-linejoin="round"/>
<path d="M362.456 468.522H155.613C153.309 468.522 151.441 466.654 151.441 464.35V413.938C151.441 411.634 153.309 409.766 155.613 409.766H362.456C364.76 409.766 366.628 411.634 366.628 413.938V464.35C366.628 466.655 364.76 468.522 362.456 468.522Z" fill="white" stroke="#263238" stroke-miterlimit="10" stroke-linecap="round" stroke-linejoin="round"/>
<path d="M345.376 454.227H174.55C171.785 454.227 169.543 451.985 169.543 449.22V427.654C169.543 424.889 171.785 422.647 174.55 422.647H345.376C348.141 422.647 350.383 424.889 350.383 427.654V449.22C350.383 451.985 348.141 454.227 345.376 454.227Z" fill="#263238" stroke="#263238" stroke-miterlimit="10" stroke-linecap="round" stroke-linejoin="round"/>
<path d="M179.588 430.301C176.495 431.539 174.309 434.564 174.309 438.099C174.309 442.736 178.068 446.495 182.705 446.495C187.342 446.495 191.101 442.736 191.101 438.099C191.101 434.621 188.986 431.637 185.973 430.363" stroke="#70FE90" stroke-width="3" stroke-miterlimit="10" stroke-linecap="round"/>
<path d="M182.793 427.055V433.258" stroke="#70FE90" stroke-width="3" stroke-miterlimit="10" stroke-linecap="round"/>
<path d="M280.666 447.234C280.666 447.234 272.501 449.795 270.772 450.134C269.044 450.472 263.717 449.086 263.556 451.175C263.396 453.264 266.623 455.105 271.754 457.165C276.885 459.225 282.514 460.924 286.331 460.746C290.148 460.568 289.421 453.05 289.628 451.762C289.836 450.473 280.666 447.234 280.666 447.234Z" fill="white" stroke="#263238" stroke-miterlimit="10" stroke-linecap="round" stroke-linejoin="round"/>
<path d="M274.434 455.305C268.036 452.669 265.065 451.298 263.763 450.658C263.653 450.802 263.574 450.967 263.558 451.175C263.398 453.264 266.625 455.105 271.756 457.165C276.887 459.225 282.516 460.924 286.333 460.746C287.757 460.68 288.549 459.591 288.992 458.185C285.864 458.236 280.56 457.829 274.434 455.305Z" fill="white" stroke="#263238" stroke-miterlimit="10" stroke-linecap="round" stroke-linejoin="round"/>
<path d="M330.324 370.549L328.185 371.716V374.828C328.185 374.828 283.556 382.269 282.972 386.159C282.389 390.049 280.623 447.92 280.623 447.92C280.623 447.92 287.819 455.669 289.375 453.918C290.931 452.168 291.32 446.558 291.32 446.558L298.726 395.299C298.726 395.299 348.996 399.917 356.581 397.583C364.166 395.249 367.862 385.135 368.056 380.468C368.25 375.8 368.25 373.661 368.25 373.661L334.019 368.993L330.324 370.549Z" fill="#70FE90" stroke="#263238" stroke-miterlimit="10" stroke-linecap="round" stroke-linejoin="round"/>
<path d="M315.152 449.319C315.152 449.319 315.039 449.511 314.829 449.846C314.047 451.095 311.924 454.339 309.317 457.099C306.011 460.6 300.565 463.517 300.759 464.684C300.953 465.851 304.649 466.629 317.291 462.739C322.978 460.989 327.21 460.989 327.794 459.044C328.377 457.099 323.71 448.736 323.71 448.736L315.152 449.319Z" fill="white" stroke="#263238" stroke-miterlimit="10" stroke-linecap="round" stroke-linejoin="round"/>
<path d="M327.794 459.043C327.954 458.51 327.718 457.493 327.293 456.299C324.875 457.465 320.216 459.495 313.985 461.182C308.399 462.695 304.011 463.369 301.376 463.669C300.957 464.082 300.717 464.427 300.759 464.683C300.953 465.85 304.649 466.628 317.291 462.738C322.979 460.989 327.211 460.988 327.794 459.043Z" fill="white" stroke="#263238" stroke-miterlimit="10" stroke-linecap="round" stroke-linejoin="round"/>
<path d="M342.576 378.912C342.576 378.912 337.908 374.828 337.519 377.162C337.13 379.496 336.352 380.079 336.352 380.079C336.352 380.079 303.677 383.969 299.982 386.303C296.287 388.637 295.12 391.749 297.259 396.417C299.398 401.085 313.791 452.237 313.791 452.237C313.791 452.237 316.319 453.404 318.459 453.793C320.598 454.182 325.072 452.042 325.072 452.042C325.072 452.042 324.53 442.51 323.169 439.398C321.808 436.286 316.238 400.412 316.238 400.412C316.238 400.412 339.854 400.501 347.828 400.501C355.802 400.501 364.554 393.888 366.305 388.443C368.055 382.997 367.278 381.83 367.278 381.83" fill="#70FE90"/>
<path d="M342.576 378.912C342.576 378.912 337.908 374.828 337.519 377.162C337.13 379.496 336.352 380.079 336.352 380.079C336.352 380.079 303.677 383.969 299.982 386.303C296.287 388.637 295.12 391.749 297.259 396.417C299.398 401.085 313.791 452.237 313.791 452.237C313.791 452.237 316.319 453.404 318.459 453.793C320.598 454.182 325.072 452.042 325.072 452.042C325.072 452.042 324.53 442.51 323.169 439.398C321.808 436.286 316.238 400.412 316.238 400.412C316.238 400.412 339.854 400.501 347.828 400.501C355.802 400.501 364.554 393.888 366.305 388.443C368.055 382.997 367.278 381.83 367.278 381.83" stroke="#263238" stroke-miterlimit="10" stroke-linecap="round" stroke-linejoin="round"/>
<path d="M316.239 400.412L315.113 394.288" stroke="#263238" stroke-miterlimit="10" stroke-linecap="round" stroke-linejoin="round"/>
<path d="M353.375 387.511C353.979 388.368 354.499 389.31 354.886 390.34" stroke="#263238" stroke-miterlimit="10" stroke-linecap="round" stroke-linejoin="round"/>
<path d="M344.484 380.762C344.484 380.762 348.859 382.421 352.121 385.964" stroke="#263238" stroke-miterlimit="10" stroke-linecap="round" stroke-linejoin="round"/>
<path d="M351.875 381.856C351.875 381.856 356.527 383.772 358.991 388.424" stroke="#263238" stroke-miterlimit="10" stroke-linecap="round" stroke-linejoin="round"/>
<path d="M330.8 322.822C330.8 322.822 330.778 323.097 330.748 323.585C330.578 326.327 327.534 330.422 329.351 335.541C333.481 347.181 332.641 355.727 332.268 353.24C332.851 357.13 329.351 365.493 329.351 368.216C329.351 370.939 322.153 371.349 338.491 376.212C354.829 381.074 360.47 380.858 364.555 379.303C368.639 377.747 371.557 376.386 371.946 373.079C372.335 369.772 368.834 363.938 368.64 358.881C368.446 353.824 367.756 337.994 362.894 327.88C358.032 317.766 345.195 310.765 345.195 310.765L330.8 322.822Z" fill="white" stroke="#263238" stroke-miterlimit="10" stroke-linecap="round" stroke-linejoin="round"/>
<path d="M356.398 360.956C357.246 360.309 358.043 359.654 358.769 358.997" stroke="#263238" stroke-miterlimit="10" stroke-linecap="round" stroke-linejoin="round"/>
<path d="M335.896 372.438C335.896 372.438 345.536 368.285 353.289 363.156" stroke="#263238" stroke-miterlimit="10" stroke-linecap="round" stroke-linejoin="round"/>
<path d="M342.175 371.318C340.259 372.261 337.665 373.381 334.953 374.089" stroke="#263238" stroke-miterlimit="10" stroke-linecap="round" stroke-linejoin="round"/>
<path d="M345.328 369.608C345.328 369.608 344.783 369.945 343.857 370.448" stroke="#263238" stroke-miterlimit="10" stroke-linecap="round" stroke-linejoin="round"/>
<path d="M348.021 343.903L353.272 337.485" stroke="#263238" stroke-miterlimit="10" stroke-linecap="round" stroke-linejoin="round"/>
<path d="M328.954 279.689C328.954 279.689 326.294 282.509 325.448 284.184C324.602 285.859 324.482 287.076 322.997 288.14C321.512 289.204 318.552 288.534 318.628 290.262C318.704 291.99 320.507 293.643 320.507 293.643C320.507 293.643 319.05 304.202 319.603 305.882C320.156 307.563 327.708 307.872 327.708 307.872L331.559 320.41L345.154 311.199L345.514 307.547C345.849 306.067 348.286 301.486 350.307 298.054C352.328 294.623 351.425 285.552 346.553 281.65C341.681 277.747 335.212 278.15 333.222 278.011C331.232 277.871 328.954 279.689 328.954 279.689Z" fill="white" stroke="#263238" stroke-miterlimit="10" stroke-linecap="round" stroke-linejoin="round"/>
<path d="M321.438 295.72C321.438 295.72 323.288 297.85 326.468 296.859" stroke="#263238" stroke-miterlimit="10" stroke-linecap="round" stroke-linejoin="round"/>
<path d="M327.221 289.366C326.889 290.135 326.37 290.651 326.062 290.518C325.754 290.385 325.774 289.654 326.107 288.885C326.439 288.116 326.958 287.6 327.266 287.733C327.573 287.866 327.553 288.597 327.221 289.366Z" fill="#263238"/>
<path d="M326.693 285.555C326.693 285.555 329.624 284.974 330.057 287.872" stroke="#263238" stroke-miterlimit="10" stroke-linecap="round" stroke-linejoin="round"/>
<path d="M327.709 307.872L332.416 307.693L329.192 311.63L327.709 307.872Z" fill="#263238" stroke="#263238" stroke-miterlimit="10" stroke-linecap="round" stroke-linejoin="round"/>
<path d="M338.458 302.994L336.419 302.377L335.211 304.282" stroke="#263238" stroke-miterlimit="10" stroke-linecap="round" stroke-linejoin="round"/>
<path d="M337.316 275.048C337.316 275.048 340.258 271.67 336.727 270.093C333.195 268.516 321.188 271.398 322.484 276.669C323.78 281.94 334.983 282.609 336.053 282.695C337.122 282.781 333.909 283.921 334.791 285.52C335.673 287.12 337.826 287.918 337.901 289.646C337.977 291.374 335.894 293.703 336.91 294.71C337.926 295.718 339.512 294.21 340.534 293.819C341.556 293.428 344.342 296.236 342.14 299.782C339.938 303.328 338.458 302.993 338.458 302.993C338.458 302.993 337.512 305.112 339.463 306.798C341.414 308.484 345.415 307.99 346.409 306.348C347.403 304.706 349.136 303.232 352.737 299.692C356.338 296.152 358.052 287.207 355.558 281.042C353.065 274.879 341.819 272.334 337.316 275.048Z" fill="#263238" stroke="#263238" stroke-miterlimit="10" stroke-linecap="round" stroke-linejoin="round"/>
<path d="M345.156 307.893L326.621 321.543L327.68 327.425L348.54 312.058L345.156 307.893Z" fill="white" stroke="#263238" stroke-miterlimit="10" stroke-linecap="round" stroke-linejoin="round"/>
<path d="M298.89 387.478L331.53 380.331L323.906 375.804L292.934 382.713L298.89 387.478Z" fill="white" stroke="#263238" stroke-miterlimit="10" stroke-linecap="round" stroke-linejoin="round"/>
<path d="M284.356 356.506L298.889 387.478L292.933 382.713L278.162 353.647L284.356 356.506Z" fill="#263238" stroke="#263238" stroke-miterlimit="10" stroke-linecap="round" stroke-linejoin="round"/>
<path d="M310.614 374.309L303.094 376.254L298.426 382.996C298.426 382.996 299.074 383.644 299.852 383.515C300.63 383.385 302.705 381.57 302.705 381.57L308.151 380.144C308.151 380.144 305.298 381.83 305.298 382.219C305.298 382.608 305.817 382.738 307.113 382.608C308.41 382.478 311.521 379.626 311.521 379.626L313.596 377.033L310.614 374.309Z" fill="white" stroke="#263238" stroke-miterlimit="10" stroke-linecap="round" stroke-linejoin="round"/>
<path d="M330.924 340.536L327.08 358.101L310.613 374.309L314.503 377.94L328.183 371.716L329.128 369.252L332.432 354.536L330.924 340.536Z" fill="white" stroke="#263238" stroke-miterlimit="10" stroke-linecap="round" stroke-linejoin="round"/>
<path d="M306.055 370.774C306.055 370.774 300.804 371.552 298.859 371.552C296.914 371.552 292.246 371.941 291.468 372.33C290.69 372.719 286.995 375.053 287.189 376.803C287.383 378.553 290.69 376.998 290.69 376.998C290.69 376.998 291.662 379.332 293.218 381.471C294.774 383.61 295.552 382.832 298.664 381.665C301.776 380.498 306.444 376.997 306.444 376.997L309.167 374.469L306.055 370.774Z" fill="white" stroke="#263238" stroke-miterlimit="10" stroke-linecap="round" stroke-linejoin="round"/>
<path d="M351.716 316.091C351.716 316.091 343.742 314.924 340.824 318.814C337.907 322.704 334.989 329.511 334.406 334.568C333.823 339.625 330.127 349.739 330.127 349.739L305.396 370.326L309.675 376.744C309.675 376.744 339.658 362.77 340.436 361.797C341.214 360.824 351.133 335.151 351.133 335.151" fill="white"/>
<path d="M351.716 316.091C351.716 316.091 343.742 314.924 340.824 318.814C337.907 322.704 334.989 329.511 334.406 334.568C333.823 339.625 330.127 349.739 330.127 349.739L305.396 370.326L309.675 376.744C309.675 376.744 339.658 362.77 340.436 361.797C341.214 360.824 351.133 335.151 351.133 335.151" stroke="#263238" stroke-miterlimit="10" stroke-linecap="round" stroke-linejoin="round"/>
<path d="M28.498 478.137H488.607" stroke="#263238" stroke-miterlimit="10" stroke-linecap="round" stroke-linejoin="round"/>
</g>
<defs>
<clipPath id="clip0_2059_1738">
<rect width="500" height="500" fill="white"/>
</clipPath>
</defs>
</svg>
