<svg width="2310" height="1440" viewBox="0 0 2310 1440" fill="none" xmlns="http://www.w3.org/2000/svg">
<g clip-path="url(#clip0_2297_1755)">
<rect width="2310" height="1440" fill="url(#paint0_linear_2297_1755)"/>
<line x1="2315" y1="567" x2="5" y2="567" stroke="#CCCCCC" stroke-width="2"/>
<line x1="2315" y1="721" x2="5" y2="721" stroke="#CCCCCC" stroke-width="2"/>
<line x1="2305" y1="875" x2="-5" y2="875" stroke="#CCCCCC" stroke-width="2"/>
<line x1="2105.5" y1="-2.18557e-08" x2="2105.5" y2="1440" stroke="white"/>
<line x1="214.5" y1="-2.18557e-08" x2="214.5" y2="1440" stroke="white"/>
<line x1="1150.5" y1="-2.18557e-08" x2="1150.5" y2="1440" stroke="white"/>
<rect x="500" y="364" width="1309" height="713" rx="73" fill="url(#paint1_linear_2297_1755)" stroke="#313131" stroke-width="2"/>
<rect x="538.5" y="406.5" width="1233" height="627" rx="39.5" fill="url(#paint2_linear_2297_1755)" stroke="black"/>
<rect x="595" y="459" width="1120" height="523" rx="85" fill="black"/>
<g filter="url(#filter0_f_2297_1755)">
<rect x="668" y="548" width="983" height="396" rx="68" fill="#0077FF"/>
</g>
<g filter="url(#filter1_i_2297_1755)">
<rect x="648" y="516" width="1013" height="408" rx="68" fill="url(#paint3_linear_2297_1755)"/>
</g>
<g filter="url(#filter2_di_2297_1755)">
<rect x="713" y="581" width="883" height="278" rx="50" fill="url(#paint4_linear_2297_1755)"/>
<rect x="714.5" y="582.5" width="880" height="275" rx="48.5" stroke="#194EB2" stroke-width="3"/>
</g>
<path d="M1045.1 763.989C1038.14 764.164 1031.3 762.236 1025.46 758.46C1020.01 754.878 1015.96 749.535 1014 743.329L1025.95 738.953C1027.61 742.765 1030.31 746.031 1033.76 748.372C1037.25 750.706 1041.38 751.915 1045.58 751.836C1049.63 752.047 1053.61 750.843 1056.86 748.434C1058.27 747.252 1059.39 745.757 1060.12 744.069C1060.85 742.381 1061.18 740.546 1061.07 738.711C1061.08 737.001 1060.69 735.313 1059.91 733.789C1059.23 732.426 1058.35 731.175 1057.29 730.081C1055.95 728.864 1054.42 727.86 1052.78 727.104C1050.74 726.092 1049.06 725.323 1047.72 724.794C1046.37 724.269 1044.4 723.56 1041.8 722.668C1038.55 721.534 1036.11 720.643 1034.49 719.995C1032.28 719.061 1030.15 717.985 1028.08 716.774C1025.87 715.6 1023.85 714.083 1022.11 712.278C1020.6 710.515 1019.39 708.525 1018.51 706.382C1016.83 702.297 1016.48 697.787 1017.5 693.491C1018.53 689.195 1020.89 685.329 1024.24 682.441C1029.12 678.148 1035.75 676 1044.12 676C1051.11 676 1056.86 677.539 1061.37 680.618C1065.75 683.52 1068.97 687.866 1070.46 692.894L1058.75 696.782C1057.58 694.149 1055.59 691.957 1053.08 690.523C1050.05 688.846 1046.61 688.026 1043.14 688.153C1039.74 687.958 1036.37 688.899 1033.57 690.827C1032.43 691.711 1031.51 692.858 1030.91 694.17C1030.3 695.482 1030.02 696.92 1030.1 698.362C1030.11 699.467 1030.35 700.558 1030.81 701.564C1031.27 702.569 1031.94 703.466 1032.78 704.196C1034.4 705.786 1036.3 707.063 1038.39 707.963C1040.34 708.774 1043.31 709.867 1047.29 711.244C1049.73 712.137 1051.53 712.806 1052.71 713.25C1053.89 713.694 1055.62 714.444 1057.9 715.498C1059.72 716.303 1061.48 717.258 1063.14 718.354C1064.63 719.423 1066.06 720.58 1067.41 721.818C1068.88 723.089 1070.13 724.586 1071.13 726.253C1072.08 727.983 1072.81 729.818 1073.32 731.721C1073.95 733.957 1074.25 736.268 1074.24 738.589C1074.24 746.53 1071.51 752.748 1066.07 757.243C1060.62 761.741 1053.63 763.99 1045.1 763.989ZM1123.26 762.531L1093.99 677.459H1107.65L1127.04 736.766C1128.11 739.956 1129.01 743.202 1129.72 746.489C1130.43 743.201 1131.33 739.955 1132.4 736.766L1151.55 677.458H1165.08L1135.94 762.531H1123.26ZM1190.93 762.531V677.459H1243.86V689.369H1203.62V712.703H1229.59V724.614H1203.62V750.62H1246.54V762.531H1190.93ZM1278.85 762.531V677.459H1291.53V750.378H1333.24V762.531L1278.85 762.531ZM1381.03 689.612V762.531H1368.35V689.612H1344.21V677.459H1405.18V689.612L1381.03 689.612ZM1431.39 762.531V677.459H1484.32V689.369H1444.08V712.703H1470.05V724.614H1444.08V750.62H1487V762.531H1431.39Z" fill="url(#paint5_linear_2297_1755)"/>
<path d="M956.523 661.17C941.681 639.905 912.367 633.603 891.172 647.12L853.949 670.868C848.92 674.035 844.607 678.217 841.285 683.147C837.963 688.078 835.705 693.647 834.656 699.501C832.88 709.361 834.441 719.532 839.091 728.403C835.904 733.242 833.731 738.676 832.702 744.379C831.642 750.35 831.783 756.473 833.118 762.389C834.453 768.305 836.955 773.895 840.476 778.83C855.322 800.096 884.635 806.397 905.827 792.88L943.051 769.132C948.08 765.965 952.393 761.783 955.715 756.853C959.037 751.923 961.295 746.353 962.344 740.499C964.119 730.639 962.559 720.469 957.912 711.596C961.097 706.758 963.269 701.323 964.297 695.621C965.358 689.65 965.217 683.526 963.882 677.61C962.547 671.694 960.045 666.105 956.523 661.17Z" fill="url(#paint6_linear_2297_1755)"/>
<path d="M887.603 781.044C881.782 782.574 875.637 782.261 869.997 780.148C864.357 778.035 859.495 774.223 856.067 769.228C853.962 766.25 852.467 762.877 851.669 759.306C850.871 755.736 850.786 752.041 851.42 748.437C851.635 747.254 851.93 746.087 852.304 744.945L853.001 742.798L854.896 744.205C859.272 747.456 864.166 749.928 869.366 751.513L870.741 751.935L870.614 753.322C870.446 755.295 870.975 757.265 872.106 758.882C873.138 760.386 874.602 761.535 876.3 762.172C877.998 762.809 879.848 762.904 881.602 762.444C882.406 762.227 883.172 761.887 883.874 761.435L920.865 737.606C921.771 737.03 922.547 736.269 923.145 735.373C923.744 734.477 924.151 733.465 924.341 732.401C924.531 731.314 924.505 730.201 924.264 729.125C924.024 728.049 923.574 727.032 922.94 726.134C921.908 724.629 920.444 723.48 918.745 722.843C917.047 722.205 915.195 722.11 913.441 722.57C912.639 722.787 911.873 723.127 911.172 723.578L897.056 732.674C894.735 734.166 892.202 735.291 889.545 736.009C883.723 737.539 877.578 737.226 871.938 735.113C866.298 733 861.435 729.188 858.007 724.192C855.902 721.214 854.407 717.841 853.609 714.271C852.811 710.7 852.726 707.005 853.36 703.402C853.987 699.869 855.336 696.508 857.322 693.533C859.307 690.559 861.885 688.035 864.89 686.125L901.88 662.294C904.202 660.8 906.737 659.674 909.396 658.956C915.218 657.426 921.363 657.739 927.003 659.852C932.643 661.965 937.505 665.777 940.933 670.772C943.038 673.75 944.533 677.123 945.331 680.694C946.129 684.264 946.214 687.959 945.58 691.563C945.365 692.746 945.069 693.912 944.696 695.055L943.999 697.202L942.105 695.797C937.729 692.544 932.835 690.072 927.634 688.486L926.259 688.064L926.386 686.677C926.552 684.704 926.024 682.735 924.894 681.117C923.862 679.613 922.398 678.464 920.7 677.827C919.002 677.19 917.152 677.095 915.398 677.555C914.594 677.772 913.828 678.113 913.126 678.564L876.134 702.394C875.229 702.97 874.452 703.73 873.854 704.627C873.256 705.523 872.849 706.535 872.66 707.599C872.469 708.686 872.495 709.799 872.735 710.875C872.975 711.952 873.425 712.969 874.058 713.867C875.091 715.372 876.555 716.521 878.254 717.158C879.952 717.795 881.803 717.891 883.557 717.431C884.361 717.214 885.127 716.873 885.829 716.422L899.944 707.329C902.264 705.835 904.797 704.71 907.454 703.992C913.276 702.462 919.421 702.775 925.061 704.888C930.701 707.001 935.563 710.813 938.992 715.809C941.097 718.787 942.592 722.16 943.39 725.73C944.188 729.3 944.273 732.996 943.639 736.599C943.011 740.132 941.662 743.493 939.676 746.468C937.691 749.443 935.113 751.967 932.108 753.879L895.12 777.706C892.797 779.2 890.263 780.326 887.603 781.044Z" fill="#6C95E4"/>
</g>
<defs>
<filter id="filter0_f_2297_1755" x="620.6" y="500.6" width="1077.8" height="490.8" filterUnits="userSpaceOnUse" color-interpolation-filters="sRGB">
<feFlood flood-opacity="0" result="BackgroundImageFix"/>
<feBlend mode="normal" in="SourceGraphic" in2="BackgroundImageFix" result="shape"/>
<feGaussianBlur stdDeviation="23.7" result="effect1_foregroundBlur_2297_1755"/>
</filter>
<filter id="filter1_i_2297_1755" x="646" y="500" width="1015" height="424" filterUnits="userSpaceOnUse" color-interpolation-filters="sRGB">
<feFlood flood-opacity="0" result="BackgroundImageFix"/>
<feBlend mode="normal" in="SourceGraphic" in2="BackgroundImageFix" result="shape"/>
<feColorMatrix in="SourceAlpha" type="matrix" values="0 0 0 0 0 0 0 0 0 0 0 0 0 0 0 0 0 0 127 0" result="hardAlpha"/>
<feMorphology radius="8" operator="erode" in="SourceAlpha" result="effect1_innerShadow_2297_1755"/>
<feOffset dx="-2" dy="-16"/>
<feGaussianBlur stdDeviation="38.5"/>
<feComposite in2="hardAlpha" operator="arithmetic" k2="-1" k3="1"/>
<feColorMatrix type="matrix" values="0 0 0 0 0 0 0 0 0 0 0 0 0 0 0 0 0 0 0.25 0"/>
<feBlend mode="normal" in2="shape" result="effect1_innerShadow_2297_1755"/>
</filter>
<filter id="filter2_di_2297_1755" x="675" y="546" width="973" height="368" filterUnits="userSpaceOnUse" color-interpolation-filters="sRGB">
<feFlood flood-opacity="0" result="BackgroundImageFix"/>
<feColorMatrix in="SourceAlpha" type="matrix" values="0 0 0 0 0 0 0 0 0 0 0 0 0 0 0 0 0 0 127 0" result="hardAlpha"/>
<feOffset dx="7" dy="10"/>
<feGaussianBlur stdDeviation="22.5"/>
<feComposite in2="hardAlpha" operator="out"/>
<feColorMatrix type="matrix" values="0 0 0 0 0 0 0 0 0 0 0 0 0 0 0 0 0 0 0.25 0"/>
<feBlend mode="normal" in2="BackgroundImageFix" result="effect1_dropShadow_2297_1755"/>
<feBlend mode="normal" in="SourceGraphic" in2="effect1_dropShadow_2297_1755" result="shape"/>
<feColorMatrix in="SourceAlpha" type="matrix" values="0 0 0 0 0 0 0 0 0 0 0 0 0 0 0 0 0 0 127 0" result="hardAlpha"/>
<feMorphology radius="17" operator="erode" in="SourceAlpha" result="effect2_innerShadow_2297_1755"/>
<feOffset dx="1" dy="20"/>
<feGaussianBlur stdDeviation="27.2"/>
<feComposite in2="hardAlpha" operator="arithmetic" k2="-1" k3="1"/>
<feColorMatrix type="matrix" values="0 0 0 0 0 0 0 0 0 0 0 0 0 0 0 0 0 0 0.25 0"/>
<feBlend mode="normal" in2="shape" result="effect2_innerShadow_2297_1755"/>
</filter>
<linearGradient id="paint0_linear_2297_1755" x1="5.02182" y1="1.96121e-05" x2="2304.98" y2="1440" gradientUnits="userSpaceOnUse">
<stop stop-color="#1C1C1C"/>
<stop offset="1" stop-color="#1C1C1C"/>
</linearGradient>
<linearGradient id="paint1_linear_2297_1755" x1="511.181" y1="363" x2="1797.82" y2="1078" gradientUnits="userSpaceOnUse">
<stop stop-color="#464646"/>
<stop offset="1" stop-color="#171717"/>
</linearGradient>
<linearGradient id="paint2_linear_2297_1755" x1="557.246" y1="406" x2="1752.75" y2="1034" gradientUnits="userSpaceOnUse">
<stop stop-color="#1B1B1B"/>
<stop offset="1" stop-color="#242424"/>
</linearGradient>
<linearGradient id="paint3_linear_2297_1755" x1="1154.5" y1="516" x2="1154.5" y2="924" gradientUnits="userSpaceOnUse">
<stop stop-color="#1A51B8"/>
<stop offset="1" stop-color="#092161"/>
</linearGradient>
<linearGradient id="paint4_linear_2297_1755" x1="1154.5" y1="581" x2="1154.5" y2="859" gradientUnits="userSpaceOnUse">
<stop stop-color="#061E3D"/>
<stop offset="1" stop-color="#13469E"/>
</linearGradient>
<linearGradient id="paint5_linear_2297_1755" x1="1250.5" y1="676" x2="1250.5" y2="764" gradientUnits="userSpaceOnUse">
<stop stop-color="#FEFDFA"/>
<stop offset="1" stop-color="#6C95E4"/>
</linearGradient>
<linearGradient id="paint6_linear_2297_1755" x1="898.5" y1="640" x2="898.5" y2="800" gradientUnits="userSpaceOnUse">
<stop stop-color="#FEFDFA"/>
<stop offset="1" stop-color="#6C95E4"/>
</linearGradient>
<clipPath id="clip0_2297_1755">
<rect width="2310" height="1440" fill="white"/>
</clipPath>
</defs>
</svg>
