<svg width="2310" height="1440" viewBox="0 0 2310 1440" fill="none" xmlns="http://www.w3.org/2000/svg">
<g clip-path="url(#clip0_2297_1755)">
<rect width="2310" height="1440" fill="url(#paint0_linear_2297_1755)"/>
<line x1="2315" y1="567" x2="5" y2="567" stroke="#CCCCCC" stroke-width="2"/>
<line x1="2315" y1="721" x2="5" y2="721" stroke="#CCCCCC" stroke-width="2"/>
<line x1="2305" y1="875" x2="-5" y2="875" stroke="#CCCCCC" stroke-width="2"/>
<line x1="2105.5" y1="-2.18557e-08" x2="2105.5" y2="1440" stroke="white"/>
<line x1="214.5" y1="-2.18557e-08" x2="214.5" y2="1440" stroke="white"/>
<line x1="1150.5" y1="-2.18557e-08" x2="1150.5" y2="1440" stroke="white"/>
<rect x="500" y="364" width="1309" height="713" rx="73" fill="url(#paint1_linear_2297_1755)" stroke="#313131" stroke-width="2"/>
<rect x="538.5" y="406.5" width="1233" height="627" rx="39.5" fill="url(#paint2_linear_2297_1755)" stroke="black"/>
<rect x="595" y="459" width="1120" height="523" rx="85" fill="black"/>
<g filter="url(#filter0_f_2297_1755)">
<rect x="668" y="548" width="983" height="396" rx="68" fill="#0077FF"/>
</g>
<g filter="url(#filter1_i_2297_1755)">
<rect x="648" y="516" width="1013" height="408" rx="68" fill="url(#paint3_linear_2297_1755)"/>
</g>
<g filter="url(#filter2_di_2297_1755)">
<rect x="713" y="581" width="883" height="278" rx="50" fill="url(#paint4_linear_2297_1755)"/>
<rect x="714.5" y="582.5" width="880" height="275" rx="48.5" stroke="#194EB2" stroke-width="3"/>
</g>
<path d="M1108.83 754.895H1092.24V690.752H1071V677.008H1130.08V690.752H1108.83V754.895Z" fill="url(#paint5_linear_2297_1755)"/>
<path d="M1196.06 754.895H1179.73V720.107C1179.73 711.512 1176.52 707.214 1170.1 707.214C1165.54 707.214 1162.24 708.759 1160.2 711.849C1158.17 714.939 1157.15 719.947 1157.15 726.872V754.895H1140.83V672H1157.15V688.888C1157.15 690.202 1157.03 693.292 1156.78 698.158L1156.4 702.952H1157.26C1160.9 697.128 1166.68 694.215 1174.6 694.215C1181.63 694.215 1186.96 696.098 1190.6 699.862C1194.24 703.627 1196.06 709.026 1196.06 716.058V754.895Z" fill="url(#paint6_linear_2297_1755)"/>
<path d="M1246.25 694.215C1248.46 694.215 1250.3 694.375 1251.76 694.695L1250.53 709.931C1249.21 709.576 1247.6 709.398 1245.71 709.398C1240.51 709.398 1236.44 710.73 1233.51 713.394C1230.62 716.058 1229.18 719.787 1229.18 724.582V754.895H1212.86V695.334H1225.22L1227.63 705.35H1228.43C1230.29 702.011 1232.78 699.33 1235.92 697.305C1239.1 695.245 1242.54 694.215 1246.25 694.215Z" fill="url(#paint7_linear_2297_1755)"/>
<path d="M1286.33 705.776C1282.87 705.776 1280.16 706.877 1278.2 709.079C1276.23 711.245 1275.11 714.335 1274.82 718.349H1297.73C1297.66 714.335 1296.6 711.245 1294.57 709.079C1292.54 706.877 1289.79 705.776 1286.33 705.776ZM1288.63 755.96C1279 755.96 1271.47 753.314 1266.05 748.022C1260.63 742.73 1257.91 735.236 1257.91 725.541C1257.91 715.56 1260.41 707.853 1265.41 702.42C1270.44 696.95 1277.37 694.215 1286.22 694.215C1294.68 694.215 1301.26 696.613 1305.97 701.407C1310.68 706.202 1313.03 712.826 1313.03 721.279V729.163H1274.45C1274.63 733.78 1276 737.385 1278.57 739.978C1281.14 742.57 1284.74 743.867 1289.38 743.867C1292.98 743.867 1296.39 743.494 1299.6 742.748C1302.81 742.002 1306.16 740.812 1309.66 739.179V751.751C1306.81 753.172 1303.76 754.22 1300.51 754.895C1297.26 755.605 1293.3 755.96 1288.63 755.96Z" fill="url(#paint8_linear_2297_1755)"/>
<path d="M1351.08 705.776C1347.62 705.776 1344.91 706.877 1342.94 709.079C1340.98 711.245 1339.86 714.335 1339.57 718.349H1362.48C1362.4 714.335 1361.35 711.245 1359.32 709.079C1357.29 706.877 1354.54 705.776 1351.08 705.776ZM1353.38 755.96C1343.75 755.96 1336.22 753.314 1330.8 748.022C1325.37 742.73 1322.66 735.236 1322.66 725.541C1322.66 715.56 1325.16 707.853 1330.15 702.42C1335.18 696.95 1342.12 694.215 1350.97 694.215C1359.43 694.215 1366.01 696.613 1370.72 701.407C1375.43 706.202 1377.78 712.826 1377.78 721.279V729.163H1339.2C1339.38 733.78 1340.75 737.385 1343.32 739.978C1345.89 742.57 1349.49 743.867 1354.13 743.867C1357.73 743.867 1361.14 743.494 1364.35 742.748C1367.56 742.002 1370.91 740.812 1374.41 739.179V751.751C1371.55 753.172 1368.5 754.22 1365.26 754.895C1362.01 755.605 1358.05 755.96 1353.38 755.96Z" fill="url(#paint9_linear_2297_1755)"/>
<path d="M1393.99 751.831C1393.99 752.808 1393.65 753.643 1392.95 754.335C1392.25 755.01 1391.42 755.347 1390.44 755.347C1389.45 755.347 1388.62 755.01 1387.92 754.335C1387.22 753.643 1386.88 752.808 1386.88 751.831C1386.88 750.855 1387.22 750.02 1387.92 749.327C1388.62 748.635 1389.45 748.289 1390.44 748.289C1391.42 748.289 1392.25 748.635 1392.95 749.327C1393.65 750.02 1393.99 750.855 1393.99 751.831Z" fill="url(#paint10_linear_2297_1755)"/>
<path d="M1395.97 768C1393.89 768 1392.09 767.778 1390.6 767.334V760.941C1391.84 761.279 1393.12 761.447 1394.42 761.447C1395.8 761.447 1396.79 761.065 1397.42 760.302C1398.06 759.538 1398.38 758.411 1398.38 756.919V725.114H1406.54V758.118C1406.54 761.279 1405.62 763.711 1403.79 765.416C1401.95 767.139 1399.34 768 1395.97 768ZM1398.03 717.416C1398.03 714.77 1399.51 713.447 1402.48 713.447C1405.44 713.447 1406.92 714.77 1406.92 717.416C1406.92 718.677 1406.54 719.663 1405.79 720.373C1405.06 721.065 1403.96 721.412 1402.48 721.412C1399.51 721.412 1398.03 720.08 1398.03 717.416Z" fill="url(#paint11_linear_2297_1755)"/>
<path d="M1436 746.051C1436 749.105 1434.93 751.432 1432.79 753.03C1430.67 754.628 1427.48 755.427 1423.24 755.427C1421.06 755.427 1419.21 755.276 1417.67 754.974C1416.14 754.69 1414.7 754.264 1413.36 753.696V746.983C1414.88 747.694 1416.58 748.289 1418.48 748.768C1420.38 749.248 1422.06 749.487 1423.51 749.487C1426.47 749.487 1427.95 748.635 1427.95 746.93C1427.95 746.291 1427.75 745.776 1427.36 745.385C1426.97 744.977 1426.29 744.524 1425.32 744.027C1424.36 743.512 1423.08 742.917 1421.47 742.242C1419.17 741.283 1417.48 740.395 1416.39 739.578C1415.32 738.761 1414.53 737.829 1414.03 736.781C1413.55 735.716 1413.31 734.411 1413.31 732.866C1413.31 730.22 1414.34 728.178 1416.39 726.739C1418.46 725.283 1421.38 724.555 1425.16 724.555C1428.77 724.555 1432.27 725.336 1435.68 726.899L1433.22 732.759C1431.72 732.12 1430.32 731.596 1429.02 731.188C1427.71 730.779 1426.39 730.575 1425.03 730.575C1422.62 730.575 1421.42 731.223 1421.42 732.519C1421.42 733.248 1421.8 733.878 1422.57 734.411C1423.35 734.943 1425.06 735.734 1427.68 736.781C1430.02 737.723 1431.73 738.602 1432.82 739.418C1433.9 740.235 1434.71 741.176 1435.22 742.242C1435.74 743.307 1436 744.577 1436 746.051Z" fill="url(#paint12_linear_2297_1755)"/>
<path d="M866.532 640C866.263 640.004 865.999 640.069 865.759 640.189C865.519 640.31 865.309 640.483 865.145 640.695C864.981 640.908 864.867 641.155 864.812 641.418C864.756 641.681 864.761 641.953 864.825 642.213L884.119 720.32C884.134 720.41 884.156 720.5 884.185 720.587L903.452 798.64C903.527 798.945 903.682 799.225 903.9 799.452C904.118 799.678 904.392 799.843 904.695 799.93C904.997 800.016 905.317 800.022 905.622 799.945C905.927 799.868 906.206 799.713 906.432 799.493L1022.68 687.667C1022.9 687.449 1023.07 687.176 1023.15 686.875C1023.24 686.574 1023.25 686.255 1023.17 685.952C1023.09 685.648 1022.94 685.369 1022.72 685.144C1022.51 684.918 1022.23 684.754 1021.93 684.667L983.372 673.553C983.121 673.411 982.84 673.33 982.552 673.32L906.532 651.433C906.244 651.255 905.911 651.163 905.572 651.167L867.039 640.067C866.874 640.02 866.703 639.998 866.532 640ZM869.025 644.36L902.065 653.867L877.265 677.76L869.025 644.36ZM908.065 655.6L940.492 664.933L916.159 688.367L908.065 655.6ZM904.585 656.4L912.699 689.24L880.185 679.907L904.585 656.4ZM946.452 666.653L978.972 676.013L954.559 699.547L946.452 666.653ZM942.985 667.52L951.039 700.187L918.685 690.907L942.985 667.52ZM984.985 677.747L1017.97 687.24L993.199 711.067L984.985 677.747ZM981.492 678.547L989.592 711.387L957.085 702.067L981.492 678.547ZM878.612 683.187L911.705 692.68L886.865 716.587L878.612 683.187ZM917.645 694.333L950.159 703.667L925.759 727.18L917.645 694.333ZM914.192 695.247L922.432 728.693L889.345 719.147L914.192 695.247ZM956.019 705.48L989.119 714.98L964.252 738.887L956.019 705.48ZM952.552 706.327L960.785 739.74L927.732 730.207L952.552 706.327ZM888.352 722.58L920.839 731.953L896.465 755.44L888.352 722.58ZM927.379 733.827L959.799 743.18L935.479 766.58L927.379 733.827ZM923.779 734.093L931.872 766.94L899.372 757.607L923.779 734.093ZM897.805 760.893L931.385 770.507L906.172 794.76L897.805 760.893Z" fill="url(#paint13_linear_2297_1755)"/>
</g>
<defs>
<filter id="filter0_f_2297_1755" x="620.6" y="500.6" width="1077.8" height="490.8" filterUnits="userSpaceOnUse" color-interpolation-filters="sRGB">
<feFlood flood-opacity="0" result="BackgroundImageFix"/>
<feBlend mode="normal" in="SourceGraphic" in2="BackgroundImageFix" result="shape"/>
<feGaussianBlur stdDeviation="23.7" result="effect1_foregroundBlur_2297_1755"/>
</filter>
<filter id="filter1_i_2297_1755" x="646" y="500" width="1015" height="424" filterUnits="userSpaceOnUse" color-interpolation-filters="sRGB">
<feFlood flood-opacity="0" result="BackgroundImageFix"/>
<feBlend mode="normal" in="SourceGraphic" in2="BackgroundImageFix" result="shape"/>
<feColorMatrix in="SourceAlpha" type="matrix" values="0 0 0 0 0 0 0 0 0 0 0 0 0 0 0 0 0 0 127 0" result="hardAlpha"/>
<feMorphology radius="8" operator="erode" in="SourceAlpha" result="effect1_innerShadow_2297_1755"/>
<feOffset dx="-2" dy="-16"/>
<feGaussianBlur stdDeviation="38.5"/>
<feComposite in2="hardAlpha" operator="arithmetic" k2="-1" k3="1"/>
<feColorMatrix type="matrix" values="0 0 0 0 0 0 0 0 0 0 0 0 0 0 0 0 0 0 0.25 0"/>
<feBlend mode="normal" in2="shape" result="effect1_innerShadow_2297_1755"/>
</filter>
<filter id="filter2_di_2297_1755" x="675" y="546" width="973" height="368" filterUnits="userSpaceOnUse" color-interpolation-filters="sRGB">
<feFlood flood-opacity="0" result="BackgroundImageFix"/>
<feColorMatrix in="SourceAlpha" type="matrix" values="0 0 0 0 0 0 0 0 0 0 0 0 0 0 0 0 0 0 127 0" result="hardAlpha"/>
<feOffset dx="7" dy="10"/>
<feGaussianBlur stdDeviation="22.5"/>
<feComposite in2="hardAlpha" operator="out"/>
<feColorMatrix type="matrix" values="0 0 0 0 0 0 0 0 0 0 0 0 0 0 0 0 0 0 0.25 0"/>
<feBlend mode="normal" in2="BackgroundImageFix" result="effect1_dropShadow_2297_1755"/>
<feBlend mode="normal" in="SourceGraphic" in2="effect1_dropShadow_2297_1755" result="shape"/>
<feColorMatrix in="SourceAlpha" type="matrix" values="0 0 0 0 0 0 0 0 0 0 0 0 0 0 0 0 0 0 127 0" result="hardAlpha"/>
<feMorphology radius="17" operator="erode" in="SourceAlpha" result="effect2_innerShadow_2297_1755"/>
<feOffset dx="1" dy="20"/>
<feGaussianBlur stdDeviation="27.2"/>
<feComposite in2="hardAlpha" operator="arithmetic" k2="-1" k3="1"/>
<feColorMatrix type="matrix" values="0 0 0 0 0 0 0 0 0 0 0 0 0 0 0 0 0 0 0.25 0"/>
<feBlend mode="normal" in2="shape" result="effect2_innerShadow_2297_1755"/>
</filter>
<linearGradient id="paint0_linear_2297_1755" x1="5.02182" y1="1.96121e-05" x2="2304.98" y2="1440" gradientUnits="userSpaceOnUse">
<stop stop-color="#1C1C1C"/>
<stop offset="1" stop-color="#1C1C1C"/>
</linearGradient>
<linearGradient id="paint1_linear_2297_1755" x1="511.181" y1="363" x2="1797.82" y2="1078" gradientUnits="userSpaceOnUse">
<stop stop-color="#464646"/>
<stop offset="1" stop-color="#171717"/>
</linearGradient>
<linearGradient id="paint2_linear_2297_1755" x1="557.246" y1="406" x2="1752.75" y2="1034" gradientUnits="userSpaceOnUse">
<stop stop-color="#1B1B1B"/>
<stop offset="1" stop-color="#242424"/>
</linearGradient>
<linearGradient id="paint3_linear_2297_1755" x1="1154.5" y1="516" x2="1154.5" y2="924" gradientUnits="userSpaceOnUse">
<stop stop-color="#1A51B8"/>
<stop offset="1" stop-color="#092161"/>
</linearGradient>
<linearGradient id="paint4_linear_2297_1755" x1="1154.5" y1="581" x2="1154.5" y2="859" gradientUnits="userSpaceOnUse">
<stop stop-color="#061E3D"/>
<stop offset="1" stop-color="#13469E"/>
</linearGradient>
<linearGradient id="paint5_linear_2297_1755" x1="1253.5" y1="672" x2="1253.5" y2="768" gradientUnits="userSpaceOnUse">
<stop stop-color="#FEFDFA"/>
<stop offset="1" stop-color="#6C95E4"/>
</linearGradient>
<linearGradient id="paint6_linear_2297_1755" x1="1253.5" y1="672" x2="1253.5" y2="768" gradientUnits="userSpaceOnUse">
<stop stop-color="#FEFDFA"/>
<stop offset="1" stop-color="#6C95E4"/>
</linearGradient>
<linearGradient id="paint7_linear_2297_1755" x1="1253.5" y1="672" x2="1253.5" y2="768" gradientUnits="userSpaceOnUse">
<stop stop-color="#FEFDFA"/>
<stop offset="1" stop-color="#6C95E4"/>
</linearGradient>
<linearGradient id="paint8_linear_2297_1755" x1="1253.5" y1="672" x2="1253.5" y2="768" gradientUnits="userSpaceOnUse">
<stop stop-color="#FEFDFA"/>
<stop offset="1" stop-color="#6C95E4"/>
</linearGradient>
<linearGradient id="paint9_linear_2297_1755" x1="1253.5" y1="672" x2="1253.5" y2="768" gradientUnits="userSpaceOnUse">
<stop stop-color="#FEFDFA"/>
<stop offset="1" stop-color="#6C95E4"/>
</linearGradient>
<linearGradient id="paint10_linear_2297_1755" x1="1253.5" y1="672" x2="1253.5" y2="768" gradientUnits="userSpaceOnUse">
<stop stop-color="#FEFDFA"/>
<stop offset="1" stop-color="#6C95E4"/>
</linearGradient>
<linearGradient id="paint11_linear_2297_1755" x1="1253.5" y1="672" x2="1253.5" y2="768" gradientUnits="userSpaceOnUse">
<stop stop-color="#FEFDFA"/>
<stop offset="1" stop-color="#6C95E4"/>
</linearGradient>
<linearGradient id="paint12_linear_2297_1755" x1="1253.5" y1="672" x2="1253.5" y2="768" gradientUnits="userSpaceOnUse">
<stop stop-color="#FEFDFA"/>
<stop offset="1" stop-color="#6C95E4"/>
</linearGradient>
<linearGradient id="paint13_linear_2297_1755" x1="943.998" y1="640" x2="943.998" y2="799.999" gradientUnits="userSpaceOnUse">
<stop stop-color="#FEFDFA"/>
<stop offset="1" stop-color="#6C95E4"/>
</linearGradient>
<clipPath id="clip0_2297_1755">
<rect width="2310" height="1440" fill="white"/>
</clipPath>
</defs>
</svg>
