<svg width="2310" height="1440" viewBox="0 0 2310 1440" fill="none" xmlns="http://www.w3.org/2000/svg">
<g clip-path="url(#clip0_2297_1755)">
<rect width="2310" height="1440" fill="url(#paint0_linear_2297_1755)"/>
<line x1="2315" y1="567" x2="5" y2="567" stroke="#CCCCCC" stroke-width="2"/>
<line x1="2315" y1="721" x2="5" y2="721" stroke="#CCCCCC" stroke-width="2"/>
<line x1="2305" y1="875" x2="-5" y2="875" stroke="#CCCCCC" stroke-width="2"/>
<line x1="2105.5" y1="-2.18557e-08" x2="2105.5" y2="1440" stroke="white"/>
<line x1="214.5" y1="-2.18557e-08" x2="214.5" y2="1440" stroke="white"/>
<line x1="1150.5" y1="-2.18557e-08" x2="1150.5" y2="1440" stroke="white"/>
<rect x="500" y="364" width="1309" height="713" rx="73" fill="url(#paint1_linear_2297_1755)" stroke="#313131" stroke-width="2"/>
<rect x="538.5" y="406.5" width="1233" height="627" rx="39.5" fill="url(#paint2_linear_2297_1755)" stroke="black"/>
<rect x="595" y="459" width="1120" height="523" rx="85" fill="black"/>
<g filter="url(#filter0_f_2297_1755)">
<rect x="668" y="548" width="983" height="396" rx="68" fill="#0077FF"/>
</g>
<g filter="url(#filter1_i_2297_1755)">
<rect x="648" y="516" width="1013" height="408" rx="68" fill="url(#paint3_linear_2297_1755)"/>
</g>
<g filter="url(#filter2_di_2297_1755)">
<rect x="713" y="581" width="883" height="278" rx="50" fill="url(#paint4_linear_2297_1755)"/>
<rect x="714.5" y="582.5" width="880" height="275" rx="48.5" stroke="#194EB2" stroke-width="3"/>
</g>
<path d="M965.356 640H836.644C832.495 640 828.516 641.648 825.582 644.582C822.648 647.516 821 651.495 821 655.644V784.356C821 788.505 822.648 792.484 825.582 795.418C828.516 798.352 832.495 800 836.644 800H965.356C967.41 800 969.444 799.595 971.342 798.809C973.24 798.023 974.965 796.871 976.418 795.418C977.871 793.965 979.023 792.24 979.809 790.342C980.595 788.444 981 786.41 981 784.356V655.644C981 653.59 980.595 651.556 979.809 649.658C979.023 647.76 977.871 646.035 976.418 644.582C974.965 643.129 973.24 641.977 971.342 641.191C969.444 640.405 967.41 640 965.356 640ZM913.8 728.889H893.8V786.133H877.889V728.889H857.889V715.911H913.8V728.889ZM965.356 775.822C964.069 778.558 961.995 780.849 959.4 782.4C956.67 784.081 953.658 785.255 950.511 785.867C947.002 786.591 943.427 786.949 939.844 786.933C936.178 786.93 932.52 786.603 928.911 785.956C925.844 785.327 922.861 784.343 920.022 783.022V767.822L919.489 767.289H920.022V767.911C922.696 769.997 925.701 771.62 928.911 772.711C932.117 773.932 935.525 774.535 938.956 774.489C940.748 774.52 942.538 774.341 944.289 773.956C945.604 773.648 946.863 773.138 948.022 772.444C948.929 771.891 949.691 771.129 950.244 770.222C950.792 769.189 951.032 768.021 950.938 766.855C950.843 765.69 950.418 764.576 949.711 763.644C948.875 762.473 947.819 761.476 946.6 760.711C945.12 759.671 943.542 758.778 941.889 758.044L935.933 755.556C931.219 753.614 927.042 750.565 923.756 746.667C921.005 743.351 919.552 739.15 919.667 734.844C919.563 731.573 920.297 728.33 921.8 725.422C923.234 722.888 925.244 720.726 927.667 719.111C930.366 717.315 933.383 716.048 936.556 715.378C940.024 714.579 943.574 714.192 947.133 714.222C950.374 714.177 953.614 714.385 956.822 714.844C959.492 715.262 962.112 715.947 964.644 716.889V731.556C963.474 730.722 962.224 730.007 960.911 729.422C959.498 728.814 958.042 728.309 956.556 727.911C955.131 727.494 953.674 727.197 952.2 727.022C950.84 726.894 949.471 726.894 948.111 727.022C946.436 726.995 944.764 727.174 943.133 727.556C941.795 727.836 940.507 728.316 939.311 728.978C938.378 729.528 937.586 730.289 937 731.2C936.468 732.085 936.191 733.1 936.2 734.133C936.178 735.236 936.488 736.32 937.089 737.244C937.819 738.254 938.722 739.127 939.756 739.822C941.009 740.82 942.383 741.656 943.844 742.311L949.444 744.8C952.019 745.864 954.515 747.112 956.911 748.533C959.018 749.687 960.937 751.155 962.6 752.889C964.23 754.468 965.502 756.377 966.333 758.489C967.186 760.916 967.607 763.473 967.578 766.044C967.514 769.364 966.757 772.634 965.356 775.644V775.822Z" fill="url(#paint5_linear_2297_1755)"/>
<path d="M1061.06 746H1046.53V689.562H1027.92V677.469H1079.67V689.562H1061.06V746ZM1080.66 693.594H1096.31L1106.2 723.078C1107.05 725.641 1107.62 728.672 1107.94 732.172H1108.22C1108.56 728.953 1109.23 725.922 1110.23 723.078L1119.94 693.594H1135.27L1113.09 752.703C1111.06 758.172 1108.16 762.266 1104.38 764.984C1100.62 767.703 1096.23 769.062 1091.2 769.062C1088.73 769.062 1086.31 768.797 1083.94 768.266V756.922C1085.66 757.328 1087.53 757.531 1089.56 757.531C1092.09 757.531 1094.3 756.75 1096.17 755.188C1098.08 753.656 1099.56 751.328 1100.62 748.203L1101.47 745.625L1080.66 693.594ZM1171.59 746.938C1165.44 746.938 1160.61 744.703 1157.11 740.234H1156.36C1156.86 744.609 1157.11 747.141 1157.11 747.828V769.062H1142.81V693.594H1154.44L1156.45 700.391H1157.11C1160.45 695.203 1165.41 692.609 1171.97 692.609C1178.16 692.609 1183 695 1186.5 699.781C1190 704.562 1191.75 711.203 1191.75 719.703C1191.75 725.297 1190.92 730.156 1189.27 734.281C1187.64 738.406 1185.31 741.547 1182.28 743.703C1179.25 745.859 1175.69 746.938 1171.59 746.938ZM1167.38 704.047C1163.84 704.047 1161.27 705.141 1159.64 707.328C1158.02 709.484 1157.17 713.062 1157.11 718.062V719.609C1157.11 725.234 1157.94 729.266 1159.59 731.703C1161.28 734.141 1163.94 735.359 1167.56 735.359C1173.97 735.359 1177.17 730.078 1177.17 719.516C1177.17 714.359 1176.38 710.5 1174.78 707.938C1173.22 705.344 1170.75 704.047 1167.38 704.047ZM1225.27 702.781C1222.23 702.781 1219.86 703.75 1218.14 705.688C1216.42 707.594 1215.44 710.312 1215.19 713.844H1235.25C1235.19 710.312 1234.27 707.594 1232.48 705.688C1230.7 703.75 1228.3 702.781 1225.27 702.781ZM1227.28 746.938C1218.84 746.938 1212.25 744.609 1207.5 739.953C1202.75 735.297 1200.38 728.703 1200.38 720.172C1200.38 711.391 1202.56 704.609 1206.94 699.828C1211.34 695.016 1217.42 692.609 1225.17 692.609C1232.58 692.609 1238.34 694.719 1242.47 698.938C1246.59 703.156 1248.66 708.984 1248.66 716.422V723.359H1214.86C1215.02 727.422 1216.22 730.594 1218.47 732.875C1220.72 735.156 1223.88 736.297 1227.94 736.297C1231.09 736.297 1234.08 735.969 1236.89 735.312C1239.7 734.656 1242.64 733.609 1245.7 732.172V743.234C1243.2 744.484 1240.53 745.406 1237.69 746C1234.84 746.625 1231.38 746.938 1227.28 746.938ZM1301.86 726.969C1301.86 733.156 1299.62 738.031 1295.16 741.594C1290.72 745.156 1284.53 746.938 1276.59 746.938C1269.28 746.938 1262.81 745.562 1257.19 742.812V729.312C1261.81 731.375 1265.72 732.828 1268.91 733.672C1272.12 734.516 1275.06 734.938 1277.72 734.938C1280.91 734.938 1283.34 734.328 1285.03 733.109C1286.75 731.891 1287.61 730.078 1287.61 727.672C1287.61 726.328 1287.23 725.141 1286.48 724.109C1285.73 723.047 1284.62 722.031 1283.16 721.062C1281.72 720.094 1278.77 718.547 1274.3 716.422C1270.11 714.453 1266.97 712.562 1264.88 710.75C1262.78 708.938 1261.11 706.828 1259.86 704.422C1258.61 702.016 1257.98 699.203 1257.98 695.984C1257.98 689.922 1260.03 685.156 1264.12 681.688C1268.25 678.219 1273.94 676.484 1281.19 676.484C1284.75 676.484 1288.14 676.906 1291.36 677.75C1294.61 678.594 1298 679.781 1301.53 681.312L1296.84 692.609C1293.19 691.109 1290.16 690.062 1287.75 689.469C1285.38 688.875 1283.03 688.578 1280.72 688.578C1277.97 688.578 1275.86 689.219 1274.39 690.5C1272.92 691.781 1272.19 693.453 1272.19 695.516C1272.19 696.797 1272.48 697.922 1273.08 698.891C1273.67 699.828 1274.61 700.75 1275.89 701.656C1277.2 702.531 1280.28 704.125 1285.12 706.438C1291.53 709.5 1295.92 712.578 1298.3 715.672C1300.67 718.734 1301.86 722.5 1301.86 726.969ZM1334.44 746.938C1318.12 746.938 1309.97 737.984 1309.97 720.078C1309.97 711.172 1312.19 704.375 1316.62 699.688C1321.06 694.969 1327.42 692.609 1335.7 692.609C1341.77 692.609 1347.2 693.797 1352.02 696.172L1347.8 707.234C1345.55 706.328 1343.45 705.594 1341.52 705.031C1339.58 704.438 1337.64 704.141 1335.7 704.141C1328.27 704.141 1324.55 709.422 1324.55 719.984C1324.55 730.234 1328.27 735.359 1335.7 735.359C1338.45 735.359 1341 735 1343.34 734.281C1345.69 733.531 1348.03 732.375 1350.38 730.812V743.047C1348.06 744.516 1345.72 745.531 1343.34 746.094C1341 746.656 1338.03 746.938 1334.44 746.938ZM1391.81 692.609C1393.75 692.609 1395.36 692.75 1396.64 693.031L1395.56 706.438C1394.41 706.125 1393 705.969 1391.34 705.969C1386.78 705.969 1383.22 707.141 1380.66 709.484C1378.12 711.828 1376.86 715.109 1376.86 719.328V746H1362.56V693.594H1373.39L1375.5 702.406H1376.2C1377.83 699.469 1380.02 697.109 1382.77 695.328C1385.55 693.516 1388.56 692.609 1391.81 692.609ZM1405.55 680.047C1405.55 675.391 1408.14 673.062 1413.33 673.062C1418.52 673.062 1421.11 675.391 1421.11 680.047C1421.11 682.266 1420.45 684 1419.14 685.25C1417.86 686.469 1415.92 687.078 1413.33 687.078C1408.14 687.078 1405.55 684.734 1405.55 680.047ZM1420.45 746H1406.16V693.594H1420.45V746ZM1464.28 746.938C1458.12 746.938 1453.3 744.703 1449.8 740.234H1449.05C1449.55 744.609 1449.8 747.141 1449.8 747.828V769.062H1435.5V693.594H1447.12L1449.14 700.391H1449.8C1453.14 695.203 1458.09 692.609 1464.66 692.609C1470.84 692.609 1475.69 695 1479.19 699.781C1482.69 704.562 1484.44 711.203 1484.44 719.703C1484.44 725.297 1483.61 730.156 1481.95 734.281C1480.33 738.406 1478 741.547 1474.97 743.703C1471.94 745.859 1468.38 746.938 1464.28 746.938ZM1460.06 704.047C1456.53 704.047 1453.95 705.141 1452.33 707.328C1450.7 709.484 1449.86 713.062 1449.8 718.062V719.609C1449.8 725.234 1450.62 729.266 1452.28 731.703C1453.97 734.141 1456.62 735.359 1460.25 735.359C1466.66 735.359 1469.86 730.078 1469.86 719.516C1469.86 714.359 1469.06 710.5 1467.47 707.938C1465.91 705.344 1463.44 704.047 1460.06 704.047ZM1518.33 735.547C1520.83 735.547 1523.83 735 1527.33 733.906V744.547C1523.77 746.141 1519.39 746.938 1514.2 746.938C1508.48 746.938 1504.31 745.5 1501.69 742.625C1499.09 739.719 1497.8 735.375 1497.8 729.594V704.328H1490.95V698.281L1498.83 693.5L1502.95 682.438H1512.09V693.594H1526.77V704.328H1512.09V729.594C1512.09 731.625 1512.66 733.125 1513.78 734.094C1514.94 735.062 1516.45 735.547 1518.33 735.547Z" fill="url(#paint6_linear_2297_1755)"/>
</g>
<defs>
<filter id="filter0_f_2297_1755" x="620.6" y="500.6" width="1077.8" height="490.8" filterUnits="userSpaceOnUse" color-interpolation-filters="sRGB">
<feFlood flood-opacity="0" result="BackgroundImageFix"/>
<feBlend mode="normal" in="SourceGraphic" in2="BackgroundImageFix" result="shape"/>
<feGaussianBlur stdDeviation="23.7" result="effect1_foregroundBlur_2297_1755"/>
</filter>
<filter id="filter1_i_2297_1755" x="646" y="500" width="1015" height="424" filterUnits="userSpaceOnUse" color-interpolation-filters="sRGB">
<feFlood flood-opacity="0" result="BackgroundImageFix"/>
<feBlend mode="normal" in="SourceGraphic" in2="BackgroundImageFix" result="shape"/>
<feColorMatrix in="SourceAlpha" type="matrix" values="0 0 0 0 0 0 0 0 0 0 0 0 0 0 0 0 0 0 127 0" result="hardAlpha"/>
<feMorphology radius="8" operator="erode" in="SourceAlpha" result="effect1_innerShadow_2297_1755"/>
<feOffset dx="-2" dy="-16"/>
<feGaussianBlur stdDeviation="38.5"/>
<feComposite in2="hardAlpha" operator="arithmetic" k2="-1" k3="1"/>
<feColorMatrix type="matrix" values="0 0 0 0 0 0 0 0 0 0 0 0 0 0 0 0 0 0 0.25 0"/>
<feBlend mode="normal" in2="shape" result="effect1_innerShadow_2297_1755"/>
</filter>
<filter id="filter2_di_2297_1755" x="675" y="546" width="973" height="368" filterUnits="userSpaceOnUse" color-interpolation-filters="sRGB">
<feFlood flood-opacity="0" result="BackgroundImageFix"/>
<feColorMatrix in="SourceAlpha" type="matrix" values="0 0 0 0 0 0 0 0 0 0 0 0 0 0 0 0 0 0 127 0" result="hardAlpha"/>
<feOffset dx="7" dy="10"/>
<feGaussianBlur stdDeviation="22.5"/>
<feComposite in2="hardAlpha" operator="out"/>
<feColorMatrix type="matrix" values="0 0 0 0 0 0 0 0 0 0 0 0 0 0 0 0 0 0 0.25 0"/>
<feBlend mode="normal" in2="BackgroundImageFix" result="effect1_dropShadow_2297_1755"/>
<feBlend mode="normal" in="SourceGraphic" in2="effect1_dropShadow_2297_1755" result="shape"/>
<feColorMatrix in="SourceAlpha" type="matrix" values="0 0 0 0 0 0 0 0 0 0 0 0 0 0 0 0 0 0 127 0" result="hardAlpha"/>
<feMorphology radius="17" operator="erode" in="SourceAlpha" result="effect2_innerShadow_2297_1755"/>
<feOffset dx="1" dy="20"/>
<feGaussianBlur stdDeviation="27.2"/>
<feComposite in2="hardAlpha" operator="arithmetic" k2="-1" k3="1"/>
<feColorMatrix type="matrix" values="0 0 0 0 0 0 0 0 0 0 0 0 0 0 0 0 0 0 0.25 0"/>
<feBlend mode="normal" in2="shape" result="effect2_innerShadow_2297_1755"/>
</filter>
<linearGradient id="paint0_linear_2297_1755" x1="5.02182" y1="1.96121e-05" x2="2304.98" y2="1440" gradientUnits="userSpaceOnUse">
<stop stop-color="#1C1C1C"/>
<stop offset="1" stop-color="#1C1C1C"/>
</linearGradient>
<linearGradient id="paint1_linear_2297_1755" x1="511.181" y1="363" x2="1797.82" y2="1078" gradientUnits="userSpaceOnUse">
<stop stop-color="#464646"/>
<stop offset="1" stop-color="#171717"/>
</linearGradient>
<linearGradient id="paint2_linear_2297_1755" x1="557.246" y1="406" x2="1752.75" y2="1034" gradientUnits="userSpaceOnUse">
<stop stop-color="#1B1B1B"/>
<stop offset="1" stop-color="#242424"/>
</linearGradient>
<linearGradient id="paint3_linear_2297_1755" x1="1154.5" y1="516" x2="1154.5" y2="924" gradientUnits="userSpaceOnUse">
<stop stop-color="#1A51B8"/>
<stop offset="1" stop-color="#092161"/>
</linearGradient>
<linearGradient id="paint4_linear_2297_1755" x1="1154.5" y1="581" x2="1154.5" y2="859" gradientUnits="userSpaceOnUse">
<stop stop-color="#061E3D"/>
<stop offset="1" stop-color="#13469E"/>
</linearGradient>
<linearGradient id="paint5_linear_2297_1755" x1="901" y1="640" x2="901" y2="800" gradientUnits="userSpaceOnUse">
<stop stop-color="#FEFDFA"/>
<stop offset="1" stop-color="#6C95E4"/>
</linearGradient>
<linearGradient id="paint6_linear_2297_1755" x1="1113.67" y1="687" x2="1113.67" y2="783" gradientUnits="userSpaceOnUse">
<stop stop-color="#FEFDFA"/>
<stop offset="1" stop-color="#6C95E4"/>
</linearGradient>
<clipPath id="clip0_2297_1755">
<rect width="2310" height="1440" fill="white"/>
</clipPath>
</defs>
</svg>
