<svg width="500" height="500" viewBox="0 0 500 500" fill="none" xmlns="http://www.w3.org/2000/svg">
<g clip-path="url(#clip0_2059_1738)">
<path d="M321.902 65.816C293.117 72.749 266.659 88.024 236.296 94.198C187.077 104.206 131.58 101.263 95.0728 141.845C67.5028 172.493 51.9138 217.367 61.2308 258.255C85.4668 364.612 238.221 383.593 320.476 338.399C363.148 314.953 394.09 271.396 415.625 228.831C435.401 189.742 456.405 138.294 426.636 98.62C412.434 79.692 390.117 67.639 366.782 63.711C350.767 61.015 336.054 62.408 321.902 65.816Z" fill="#70FE90"/>
<path opacity="0.8" d="M321.902 65.816C293.117 72.749 266.659 88.024 236.296 94.198C187.077 104.206 131.58 101.263 95.0728 141.845C67.5028 172.493 51.9138 217.367 61.2308 258.255C85.4668 364.612 238.221 383.593 320.476 338.399C363.148 314.953 394.09 271.396 415.625 228.831C435.401 189.742 456.405 138.294 426.636 98.62C412.434 79.692 390.117 67.639 366.782 63.711C350.767 61.015 336.054 62.408 321.902 65.816Z" fill="white"/>
<path d="M375.151 323.251H367.086V368.85H375.151V323.251Z" fill="#70FE90"/>
<path d="M375.651 369.35H366.586V322.75H375.651V369.35ZM367.586 368.35H374.651V323.75H367.586V368.35Z" fill="#263238"/>
<path d="M385.698 346.206H377.633V368.851H385.698V346.206Z" fill="#70FE90"/>
<path d="M386.198 369.35H377.133V345.705H386.198V369.35ZM378.133 368.35H385.198V346.705H378.133V368.35Z" fill="#263238"/>
<path d="M395.932 331.316H387.867V368.85H395.932V331.316Z" fill="#70FE90"/>
<path d="M396.434 369.35H387.369V330.816H396.434V369.35ZM388.368 368.35H395.433V331.816H388.368V368.35Z" fill="#263238"/>
<path d="M405.151 372.609H366.814C366.538 372.609 366.314 372.385 366.314 372.109C366.314 371.833 366.538 371.609 366.814 371.609H405.151C405.427 371.609 405.651 371.833 405.651 372.109C405.651 372.385 405.427 372.609 405.151 372.609Z" fill="#263238"/>
<path d="M402.219 375.089C401.943 375.089 401.719 374.865 401.719 374.589V336.252C401.719 335.976 401.943 335.752 402.219 335.752C402.495 335.752 402.719 335.976 402.719 336.252V374.589C402.719 374.866 402.495 375.089 402.219 375.089Z" fill="#263238"/>
<path d="M108.008 77.434C108.008 78.927 106.797 80.138 105.304 80.138C103.811 80.138 102.6 78.927 102.6 77.434C102.6 75.941 103.811 74.73 105.304 74.73C106.797 74.73 108.008 75.94 108.008 77.434Z" fill="#DEDBCC"/>
<path d="M137.899 84.263C137.899 86.962 135.711 89.149 133.013 89.149C130.315 89.149 128.127 86.961 128.127 84.263C128.127 81.564 130.315 79.377 133.013 79.377C135.711 79.377 137.899 81.564 137.899 84.263Z" fill="#DEDBCC"/>
<path d="M92.7728 99.2089C92.7728 101.273 91.0998 102.946 89.0358 102.946C86.9718 102.946 85.2988 101.273 85.2988 99.2089C85.2988 97.1449 86.9718 95.4719 89.0358 95.4719C91.0998 95.4729 92.7728 97.1459 92.7728 99.2089Z" fill="#DEDBCC"/>
<path d="M89.4377 99.5091L88.6367 98.9101L105.1 76.8711L133.992 83.7771L133.76 84.7491L105.507 77.9971L89.4377 99.5091Z" fill="#DEDBCC"/>
<path d="M399.015 305.539C399.013 306.97 399.179 308.396 399.509 309.788L395.244 313.102L399.566 320.727L404.611 318.667C406.677 320.663 409.188 322.139 411.937 322.973L412.661 328.334L421.417 328.361L422.181 322.982C424.944 322.183 427.473 320.73 429.556 318.746L434.565 320.811L438.962 313.241L434.712 309.928C435.39 307.135 435.394 304.221 434.725 301.426L438.99 298.112L434.661 290.481L429.64 292.515C427.574 290.519 425.063 289.043 422.314 288.209L421.596 282.854L412.84 282.827L412.076 288.206C409.313 289.007 406.782 290.457 404.695 292.435L399.693 290.376L395.296 297.946L399.54 301.266C399.196 302.665 399.02 304.099 399.015 305.539ZM414.915 296.095C420.16 294.879 425.397 298.144 426.614 303.388C427.831 308.633 424.565 313.87 419.321 315.087C414.076 316.303 408.839 313.038 407.622 307.793C407.282 306.326 407.286 304.8 407.634 303.335C408.469 299.724 411.299 296.91 414.915 296.095Z" fill="#DEDBCC"/>
<path d="M364.328 258.696C364.323 259.504 364.413 260.309 364.596 261.096L362.184 262.957L364.639 267.228L367.473 266.078C368.643 267.2 370.063 268.027 371.616 268.49L372.017 271.507L376.946 271.52L377.37 268.508C378.925 268.051 380.349 267.233 381.526 266.12L384.344 267.281L386.824 263.017L384.424 261.143C384.802 259.57 384.807 257.93 384.437 256.354L386.849 254.493L384.394 250.222L381.571 251.36C380.401 250.238 378.981 249.411 377.428 248.948L377.027 245.931L372.098 245.918L371.669 248.936C370.116 249.389 368.693 250.206 367.518 251.318L364.7 250.157L362.22 254.421L364.619 256.294C364.426 257.081 364.328 257.887 364.328 258.696ZM373.489 253.313C376.461 252.733 379.34 254.673 379.919 257.645C380.498 260.617 378.559 263.496 375.587 264.075C372.615 264.655 369.736 262.715 369.156 259.743C369.018 259.036 369.021 258.309 369.164 257.603C369.609 255.431 371.314 253.739 373.489 253.313Z" fill="white"/>
<path d="M124.97 200.085C125.348 201.019 125.834 201.905 126.418 202.725L124.515 206.016L129.353 209.843L132.097 207.163C133.973 207.918 136.001 208.215 138.015 208.031L139.907 211.335L145.624 209.033L144.698 205.323C146.288 204.07 147.553 202.453 148.385 200.608L152.198 200.628L153.06 194.527L149.411 193.492C149.113 191.491 148.344 189.59 147.167 187.944L149.07 184.653L144.226 180.824L141.49 183.48C139.614 182.726 137.586 182.428 135.572 182.612L133.686 179.31L127.969 181.611L128.896 185.321C127.307 186.575 126.04 188.191 125.203 190.034L121.396 190.016L120.533 196.117L124.18 197.158C124.327 198.163 124.592 199.145 124.97 200.085ZM132.837 189.715C135.935 187.533 140.215 188.275 142.398 191.373C144.58 194.471 143.838 198.751 140.74 200.934C137.642 203.116 133.362 202.374 131.179 199.277C130.569 198.41 130.167 197.414 130.006 196.367C129.595 193.789 130.695 191.204 132.837 189.715Z" fill="#70FE90"/>
<path d="M129.077 172.824C129.23 173.207 129.427 173.57 129.664 173.906L128.882 175.248L130.861 176.795L131.979 175.708C132.747 176.013 133.577 176.132 134.399 176.052L135.167 177.4L137.498 176.46L137.12 174.956C137.767 174.442 138.283 173.782 138.625 173.03L140.179 173.038L140.532 170.548L139.039 170.123C138.916 169.307 138.603 168.531 138.126 167.858L138.908 166.516L136.929 164.969L135.814 166.048C135.046 165.742 134.216 165.624 133.394 165.704L132.626 164.356L130.295 165.296L130.671 166.804C130.024 167.316 129.509 167.975 129.167 168.726L127.613 168.718L127.26 171.208L128.753 171.633C128.813 172.042 128.922 172.442 129.077 172.824ZM132.372 168.523C133.665 167.679 135.397 168.043 136.241 169.335C137.085 170.628 136.721 172.36 135.429 173.204C134.136 174.048 132.404 173.684 131.56 172.392C131.359 172.084 131.221 171.74 131.153 171.379C130.945 170.268 131.426 169.142 132.372 168.523Z" fill="#70FE90"/>
<path d="M383.608 280.141H113.342V144.693C113.342 143.036 114.685 141.693 116.342 141.693H383.608C385.265 141.693 386.608 143.036 386.608 144.693V277.141C386.608 278.798 385.264 280.141 383.608 280.141Z" fill="#70FE90"/>
<path opacity="0.2" d="M383.608 280.141H113.342V144.693C113.342 143.036 114.685 141.693 116.342 141.693H383.608C385.265 141.693 386.608 143.036 386.608 144.693V277.141C386.608 278.798 385.264 280.141 383.608 280.141Z" fill="black"/>
<path d="M388.707 287.496H111.295C108.262 287.496 105.795 285.029 105.795 281.996V105.101C105.795 102.068 108.262 99.6011 111.295 99.6011H389.706C392.187 99.6011 394.206 101.62 394.206 104.101V281.997C394.207 285.03 391.739 287.496 388.707 287.496ZM111.295 100.601C108.814 100.601 106.795 102.62 106.795 105.101V281.997C106.795 284.478 108.814 286.497 111.295 286.497H388.706C391.187 286.497 393.206 284.478 393.206 281.997V104.101C393.206 102.171 391.636 100.601 389.706 100.601H111.295Z" fill="#263238"/>
<path d="M266.573 116.124H116.82C114.611 116.124 112.82 114.333 112.82 112.124V111.696C112.82 109.487 114.611 107.696 116.82 107.696H265.574C267.783 107.696 269.574 109.487 269.574 111.696V113.124C269.573 114.781 268.23 116.124 266.573 116.124Z" fill="#70FE90"/>
<path d="M266.574 116.624H116.82C114.339 116.624 112.32 114.605 112.32 112.124V111.696C112.32 109.215 114.339 107.196 116.82 107.196H265.574C268.056 107.196 270.074 109.215 270.074 111.696V113.124C270.074 115.054 268.503 116.624 266.574 116.624ZM116.82 108.197C114.89 108.197 113.32 109.767 113.32 111.697V112.125C113.32 114.055 114.89 115.625 116.82 115.625H266.574C267.953 115.625 269.074 114.503 269.074 113.125V111.697C269.074 109.767 267.504 108.197 265.574 108.197H116.82Z" fill="#263238"/>
<path d="M120.973 127.843C120.973 129.574 119.57 130.977 117.839 130.977C116.108 130.977 114.705 129.574 114.705 127.843C114.705 126.112 116.108 124.709 117.839 124.709C119.57 124.709 120.973 126.112 120.973 127.843Z" fill="white"/>
<path d="M117.839 131.478C115.835 131.478 114.205 129.848 114.205 127.843C114.205 125.839 115.835 124.209 117.839 124.209C119.843 124.209 121.473 125.839 121.473 127.843C121.473 129.848 119.843 131.478 117.839 131.478ZM117.839 125.209C116.386 125.209 115.205 126.391 115.205 127.843C115.205 129.296 116.387 130.478 117.839 130.478C119.292 130.478 120.473 129.296 120.473 127.843C120.473 126.39 119.291 125.209 117.839 125.209Z" fill="#263238"/>
<path d="M128.495 130.977C130.226 130.977 131.629 129.574 131.629 127.843C131.629 126.112 130.226 124.709 128.495 124.709C126.764 124.709 125.361 126.112 125.361 127.843C125.361 129.574 126.764 130.977 128.495 130.977Z" fill="white"/>
<path d="M128.495 131.478C126.491 131.478 124.861 129.848 124.861 127.843C124.861 125.839 126.491 124.209 128.495 124.209C130.499 124.209 132.129 125.839 132.129 127.843C132.129 129.848 130.498 131.478 128.495 131.478ZM128.495 125.209C127.042 125.209 125.861 126.391 125.861 127.843C125.861 129.296 127.043 130.478 128.495 130.478C129.948 130.478 131.129 129.296 131.129 127.843C131.129 126.39 129.947 125.209 128.495 125.209Z" fill="#263238"/>
<path d="M142.288 127.843C142.288 129.574 140.885 130.977 139.154 130.977C137.423 130.977 136.02 129.574 136.02 127.843C136.02 126.112 137.423 124.709 139.154 124.709C140.884 124.709 142.288 126.112 142.288 127.843Z" fill="white"/>
<path d="M139.152 131.478C137.148 131.478 135.518 129.848 135.518 127.843C135.518 125.839 137.148 124.209 139.152 124.209C141.156 124.209 142.786 125.839 142.786 127.843C142.787 129.848 141.156 131.478 139.152 131.478ZM139.152 125.209C137.699 125.209 136.518 126.391 136.518 127.843C136.518 129.296 137.7 130.478 139.152 130.478C140.605 130.478 141.786 129.296 141.786 127.843C141.787 126.39 140.605 125.209 139.152 125.209Z" fill="#263238"/>
<path d="M250 442.205C335.275 442.205 404.404 435.52 404.404 427.273C404.404 419.026 335.275 412.341 250 412.341C164.725 412.341 95.5957 419.026 95.5957 427.273C95.5957 435.52 164.725 442.205 250 442.205Z" fill="#70FE90"/>
<path opacity="0.7" d="M250 442.205C335.275 442.205 404.404 435.52 404.404 427.273C404.404 419.026 335.275 412.341 250 412.341C164.725 412.341 95.5957 419.026 95.5957 427.273C95.5957 435.52 164.725 442.205 250 442.205Z" fill="white"/>
<path d="M255.171 414.606C255.171 414.606 248.484 422.694 247.298 429.056C246.112 435.418 248.162 435.095 249.779 435.203C251.397 435.311 255.817 430.027 256.895 427.978C257.973 425.929 260.454 413.851 260.454 413.851L255.171 414.606Z" fill="white"/>
<path d="M317.202 413.376L320.803 411.034C320.803 411.034 326.556 416.019 331.232 417.443C335.909 418.866 345.162 416.528 346.839 422.171C346.839 422.171 338.393 425.114 333.389 424.735C328.385 424.357 316.582 424.544 316.582 424.544L317.202 413.376Z" fill="white"/>
<path d="M282.382 238.079C282.382 238.079 275.413 291.405 273.292 306.252C271.171 321.098 262.99 360.184 261.475 368.971C259.96 377.758 254.203 415.631 254.203 415.631L260.263 418.358L304.499 285.346C304.499 285.346 310.862 334.43 310.559 349.277C310.256 364.123 316.316 415.026 316.316 415.026L322.368 412.325C322.368 412.325 329.951 372.608 328.739 358.064C327.527 343.521 332.072 296.557 330.557 279.59C329.042 262.623 326.921 237.171 326.921 237.171C326.921 237.171 310.56 247.169 282.382 238.079Z" fill="#263238"/>
<path d="M249.292 435.626C249.134 435.626 248.974 435.619 248.813 435.604C247.562 435.485 246.731 434.765 246.411 433.524C245.095 428.43 252.584 415.46 255.951 413.156C256.175 413.005 256.482 413.061 256.637 413.285C256.79 413.51 256.732 413.817 256.508 413.971C253.459 416.057 246.192 428.729 247.366 433.277C247.583 434.114 248.072 434.541 248.905 434.62C249.035 434.633 249.164 434.638 249.292 434.638C256.254 434.64 259.562 416.551 259.595 416.365C259.642 416.096 259.895 415.922 260.168 415.966C260.436 416.014 260.615 416.27 260.567 416.538C260.424 417.334 257.074 435.626 249.292 435.626Z" fill="#263238"/>
<path d="M304.95 283.451C304.84 283.451 304.73 283.414 304.639 283.34C304.428 283.168 304.395 282.857 304.568 282.646L319.007 264.898C319.179 264.686 319.491 264.656 319.701 264.827C319.912 264.999 319.945 265.31 319.772 265.521L305.333 283.269C305.235 283.389 305.092 283.451 304.95 283.451Z" fill="white"/>
<path d="M306.478 285.599C306.309 285.599 306.145 285.512 306.052 285.355C305.914 285.12 305.993 284.817 306.228 284.679C308.435 283.385 310.519 281.865 312.42 280.161C312.622 279.979 312.934 279.994 313.117 280.199C313.299 280.402 313.282 280.715 313.079 280.896C311.127 282.644 308.991 284.204 306.727 285.532C306.65 285.576 306.563 285.599 306.478 285.599Z" fill="white"/>
<path d="M333.39 425.228C331.184 425.228 328.453 425.1 325.811 424.975C322.095 424.799 317.47 424.583 316.856 424.955C316.702 425.049 316.5 425.057 316.346 424.966C316.19 424.877 316.087 424.715 316.09 424.535L316.351 409.137C316.356 408.865 316.546 408.621 316.853 408.652C317.125 408.657 317.343 408.881 317.338 409.154L317.088 423.885C318.399 423.673 321.106 423.765 325.857 423.989C328.487 424.112 331.207 424.24 333.39 424.24C338.355 424.24 344.606 422.365 346.263 421.837C345.817 420.314 344.214 419.275 342.722 418.902C341.411 418.574 340.062 418.589 338.638 418.598C338.104 418.603 337.571 418.607 337.041 418.594C330.841 418.433 324.68 415.571 320.558 410.938C320.378 410.735 320.395 410.422 320.6 410.241C320.801 410.061 321.114 410.078 321.297 410.282C325.24 414.714 331.135 417.453 337.067 417.607C337.586 417.62 338.107 417.617 338.63 417.611C340.054 417.6 341.531 417.586 342.962 417.943C344.902 418.429 347.004 419.901 347.328 422.095C347.364 422.331 347.225 422.558 346.999 422.635C346.687 422.743 339.302 425.228 333.39 425.228Z" fill="#263238"/>
<path d="M282.502 253.652C282.09 253.652 281.674 253.569 281.275 253.382C281.028 253.266 280.921 252.972 281.037 252.726C281.153 252.478 281.448 252.372 281.693 252.488C282.778 252.997 284.163 252.325 284.876 251.384C285.696 250.305 285.985 248.849 286.241 247.565L287.485 241.318C287.538 241.049 287.803 240.877 288.065 240.93C288.332 240.983 288.505 241.243 288.453 241.51L287.209 247.757C286.933 249.146 286.62 250.72 285.663 251.979C284.96 252.907 283.741 253.652 282.502 253.652Z" fill="white"/>
<path d="M331.505 423.207C329.849 423.207 328.191 423.097 326.543 422.876C326.076 422.814 325.603 422.744 325.128 422.673C322.19 422.236 319.151 421.782 316.685 423.154L316.205 422.292C318.959 420.758 322.169 421.235 325.273 421.696C325.743 421.766 326.211 421.836 326.673 421.898C332.951 422.735 339.372 421.923 345.242 419.543L345.612 420.457C341.128 422.278 336.326 423.207 331.505 423.207Z" fill="#263238"/>
<path d="M250.697 435.209C249.841 434.807 248.412 433.678 248.065 432.535C247.753 431.509 247.774 430.445 247.836 429.54C248.198 424.199 250.536 418.921 254.249 415.062L254.96 415.746C251.405 419.44 249.168 424.492 248.821 429.607C248.765 430.422 248.744 431.375 249.01 432.248C249.225 432.956 250.319 433.942 251.118 434.317L250.697 435.209Z" fill="#263238"/>
<path d="M358.044 182.298L389.285 131.54L355.076 118.063L326.873 159.94L358.044 182.298Z" fill="white"/>
<path d="M380.231 164.442C380.231 164.442 382.913 161.012 382.975 157.581C383.037 154.151 380.802 153.733 381.39 151.728C381.978 149.723 381.486 148.581 379.393 146.47C377.299 144.359 372.56 143.112 372.248 144.234C371.936 145.357 376.489 147.165 376.053 149.099C376.053 149.099 367.945 149.411 367.571 151.469L367.446 152.903C367.446 152.903 365.824 153.652 366.199 154.525C366.573 155.398 374.874 155.281 374.874 155.281C374.874 155.281 373.496 160.7 375.305 162.321L380.231 164.442Z" fill="white"/>
<path d="M364.539 135.969C373.121 147.277 365.309 161.519 353.735 168.884C342.161 176.249 330.942 172.96 325.129 163.826C319.316 154.691 323.987 141.315 335.562 133.95C347.136 126.585 357.993 127.344 364.539 135.969Z" fill="white"/>
<path d="M373.848 161.445L359.426 194.5L333.17 171.735C333.17 171.735 323.6 167.032 322.381 159.036L303.741 156.444C303.741 156.444 301.504 165.294 297.675 167.214L293.5 159.9L292.866 168.903C292.866 168.903 283.249 164.996 280.542 162.712C280.542 162.712 259.051 172.426 255.576 183.042C252.092 193.658 263.581 219.228 263.581 219.228C263.581 219.228 267.929 230.362 271.576 231.063C275.233 231.754 282.547 224.958 282.547 224.958L280.57 237.724C280.57 237.724 308.684 248.868 327.276 236.572L327.027 195.078C327.027 195.078 350.735 207.047 357.867 209.658C365.008 212.269 367.609 211.222 367.609 211.222C367.609 211.222 379.789 179.211 381.882 164.429L373.848 161.445ZM278.839 210.961L275.205 197.31L281.392 208.898L278.839 210.961Z" fill="#70FE90"/>
<path d="M329.536 167.932C329.536 167.932 344.06 173.931 357.952 159.091C371.844 144.251 362.993 134.975 362.993 134.975C362.993 134.975 375.318 143.462 364.74 158.459C354.163 173.456 342.481 173.614 335.85 172.509C329.22 171.404 329.536 167.932 329.536 167.932Z" fill="#70FE90"/>
<path opacity="0.2" d="M290.128 218.334C289.893 218.308 290.136 218.687 290.373 218.691C294.04 218.753 297.711 218.635 301.366 218.335C298.047 219.637 294.728 220.94 291.41 222.242C291.095 222.366 290.768 222.497 290.545 222.75C290.334 222.989 290.24 223.306 290.153 223.613C288.655 228.882 285.563 239.562 285.705 239.609L280.57 237.722L282.55 224.956L290.128 218.334Z" fill="black"/>
<path opacity="0.2" d="M274.49 194.903L276.347 178.613C276.347 178.613 282.373 183.178 280.547 188.839C278.721 194.5 285.112 206.187 285.112 206.187L281.393 208.899L273.973 193.587L274.49 194.903Z" fill="black"/>
<path opacity="0.2" d="M327.162 183.873C327.162 183.873 328.67 191.527 329.249 192.107C329.829 192.687 328.669 185.729 329.713 185.381C330.757 185.033 333.54 194.427 333.54 194.427C333.54 194.427 344.209 200.689 347.804 200.109C351.399 199.529 357.082 193.151 357.082 193.151L359.266 195.109C359.266 195.109 357.082 201.037 354.415 202.196C354.415 202.196 358.938 208.226 369.143 207.067C369.143 207.067 368.42 212.543 364.388 211.706C354.894 209.734 327.027 195.078 327.027 195.078L327.162 183.873Z" fill="black"/>
<path opacity="0.2" d="M261.835 173.341C257.307 190.173 259.056 196.016 264.47 210.231C264.47 210.231 271.901 206.725 277.937 209.944L278.51 211.52L268.676 217.608C268.676 217.608 269.682 225.455 276.322 228.876C276.322 228.876 273.671 231.439 271.576 231.063C269.481 230.687 261.231 212.779 259.42 209.157C257.61 205.535 248.958 187.426 261.835 173.341Z" fill="black"/>
<path d="M326.781 166.254C326.781 166.254 320.772 160.861 322.467 151.924C324.162 142.987 332.945 134.358 340.032 131.431C347.12 128.503 358.984 127.271 362.99 134.975C362.99 134.975 354.67 128.658 340.032 136.67C325.394 144.682 324.624 159.936 326.781 166.254Z" fill="#70FE90"/>
<path d="M359.371 195.536C359.253 195.536 359.136 195.495 359.041 195.41L327.877 167.454C327.675 167.272 327.657 166.96 327.839 166.757C328.022 166.554 328.333 166.538 328.536 166.719L359.7 194.675C359.902 194.857 359.92 195.168 359.738 195.372C359.641 195.481 359.506 195.536 359.371 195.536Z" fill="#263238"/>
<path d="M365.418 212.335C357.451 212.336 330.429 197.494 327.12 195.66C326.881 195.528 326.795 195.227 326.927 194.989C327.06 194.75 327.362 194.666 327.598 194.796C341.543 202.526 363.406 213.268 366.512 211.143C370.013 208.749 378.254 177.597 381.27 165.254L374.106 162.094L358.069 199.747C357.962 199.997 357.673 200.115 357.421 200.007C357.17 199.9 357.054 199.611 357.161 199.359L373.394 161.247C373.446 161.126 373.543 161.03 373.667 160.982C373.788 160.934 373.926 160.936 374.048 160.989L382.047 164.518C382.266 164.614 382.383 164.854 382.327 165.086C381.893 166.871 371.644 208.83 367.069 211.959C366.692 212.216 366.13 212.335 365.418 212.335Z" fill="#263238"/>
<path d="M307.136 243.697C293.683 243.697 280.579 238.265 280.376 238.179C280.168 238.09 280.045 237.873 280.08 237.649L282.057 224.881C282.099 224.611 282.355 224.43 282.62 224.469C282.89 224.51 283.074 224.763 283.033 225.032L281.116 237.414C284.593 238.793 312.534 249.271 326.781 236.352L326.618 182.727C326.617 182.455 326.838 182.233 327.11 182.232H327.112C327.384 182.232 327.604 182.452 327.605 182.724L327.769 236.567C327.769 236.706 327.712 236.838 327.611 236.931C322.084 242.044 314.556 243.697 307.136 243.697Z" fill="#263238"/>
<path d="M321.724 158.505C321.704 158.505 321.685 158.504 321.664 158.502L303.278 156.308C303.008 156.276 302.814 156.03 302.847 155.76C302.88 155.489 303.132 155.298 303.395 155.328L321.781 157.523C322.051 157.555 322.245 157.801 322.212 158.071C322.183 158.321 321.97 158.505 321.724 158.505Z" fill="#263238"/>
<path d="M272.173 231.844C270.115 231.845 268.427 228.891 267.416 227.12C267.274 226.873 267.148 226.652 267.038 226.47C264.733 222.626 262.894 218.607 261.058 214.485C256.623 204.529 252.85 193.979 255.252 184.286C257.691 174.446 265.169 170.365 273.088 166.044C275.27 164.853 277.526 163.622 279.684 162.257C279.912 162.111 280.218 162.178 280.365 162.41C280.511 162.64 280.442 162.945 280.212 163.09C278.026 164.473 275.757 165.711 273.561 166.91C265.838 171.124 258.545 175.105 256.21 184.523C253.879 193.927 257.596 204.288 261.96 214.084C263.783 218.177 265.608 222.166 267.883 225.962C267.996 226.148 268.126 226.375 268.272 226.631C269.117 228.111 270.687 230.858 272.171 230.858C272.181 230.858 272.189 230.858 272.199 230.858C276.446 230.76 300.356 209.151 309.619 200.453L305.342 193.895L271.352 216.702C271.129 216.853 270.821 216.796 270.668 216.567C270.516 216.341 270.576 216.034 270.803 215.883L305.199 192.802C305.307 192.727 305.438 192.7 305.569 192.722C305.698 192.746 305.813 192.82 305.886 192.929L305.972 193.054L310.672 200.262C310.802 200.462 310.77 200.727 310.597 200.89C309.259 202.149 277.771 231.717 272.223 231.845C272.206 231.844 272.189 231.844 272.173 231.844Z" fill="#263238"/>
<path d="M304.049 128.887C303.944 128.887 303.838 128.853 303.747 128.784C303.532 128.618 303.492 128.308 303.657 128.092C304.51 126.986 306.533 123.774 305.672 122.225C305.379 121.697 305.044 121.398 304.676 121.338C304.091 121.239 303.541 121.739 303.535 121.745C303.334 121.928 303.024 121.915 302.839 121.715C302.655 121.515 302.667 121.205 302.866 121.021C302.903 120.987 303.771 120.195 304.825 120.364C305.509 120.472 306.085 120.938 306.535 121.747C307.862 124.138 304.793 128.237 304.438 128.696C304.343 128.821 304.197 128.887 304.049 128.887Z" fill="#263238"/>
<path d="M337.004 169.909C331.859 169.909 327.565 168.075 324.81 164.672C321.817 160.973 321.016 155.881 322.556 150.333C324.079 144.845 327.718 139.556 332.803 135.441C337.888 131.326 343.819 128.869 349.504 128.524C355.254 128.175 360.064 130.021 363.058 133.72C366.051 137.419 366.852 142.512 365.313 148.059C363.79 153.547 360.151 158.836 355.066 162.951C349.981 167.066 344.05 169.523 338.365 169.868C337.905 169.896 337.451 169.909 337.004 169.909ZM350.861 129.471C350.435 129.471 350.002 129.484 349.564 129.51C344.082 129.843 338.35 132.222 333.424 136.209C328.497 140.196 324.976 145.306 323.507 150.597C322.055 155.829 322.791 160.607 325.578 164.052C328.365 167.496 332.891 169.21 338.306 168.883C343.788 168.55 349.52 166.171 354.446 162.184C359.373 158.197 362.894 153.088 364.362 147.796C365.813 142.564 365.078 137.786 362.291 134.341C359.729 131.176 355.703 129.471 350.861 129.471Z" fill="#263238"/>
<path d="M340.206 173.438C335.236 173.438 330.823 171.718 327.99 168.218C324.997 164.519 324.196 159.427 325.735 153.879C327.258 148.391 330.897 143.102 335.982 138.987C346.527 130.454 360.098 129.681 366.238 137.266C369.231 140.965 370.032 146.058 368.492 151.605C366.969 157.093 363.33 162.382 358.245 166.497C352.566 171.093 346.007 173.438 340.206 173.438ZM354.025 133.018C348.451 133.018 342.11 135.298 336.603 139.754C331.676 143.741 328.154 148.851 326.687 154.143C325.236 159.375 325.971 164.153 328.758 167.598C334.553 174.758 347.502 173.922 357.625 165.731C362.552 161.744 366.073 156.634 367.542 151.342C368.993 146.11 368.258 141.332 365.471 137.887C362.828 134.621 358.696 133.018 354.025 133.018Z" fill="#263238"/>
<path d="M332.518 171.504L322.209 183.176L322.171 183.224L308.829 198.342L306.424 192.736L305.355 193.293C305.365 193.245 304.95 193.44 304.959 193.392C305.301 192.524 305.728 191.892 305.623 190.999C306.295 190.805 305.669 190.106 305.63 189.866L305.623 188.61L313.369 181.429L313.81 180.968L327.584 167.05C327.593 167.05 327.651 167.05 327.747 167.06C327.9 167.079 328.15 167.108 328.476 167.214C328.927 167.339 329.513 167.588 330.117 168.059C330.904 168.664 331.739 169.623 332.382 171.169C332.432 171.274 332.47 171.389 332.518 171.504Z" fill="#263238"/>
<path d="M337.683 159.452C337.133 159.452 336.562 159.347 335.99 159.084C334.64 158.462 333.681 157.046 333.487 155.387C333.337 154.119 333.626 152.919 333.837 152.043C334.228 150.419 334.715 148.504 335.371 146.599C335.715 145.596 336.805 145.061 337.811 145.408C338.814 145.752 339.347 146.845 339.002 147.847C338.399 149.6 337.94 151.406 337.57 152.941C337.378 153.739 337.236 154.392 337.301 154.937C337.347 155.331 337.528 155.564 337.596 155.595C337.659 155.624 338.067 155.729 339.476 154.754C346.049 150.209 352.489 145.302 358.618 140.17C359.432 139.489 360.642 139.597 361.322 140.409C362.002 141.222 361.896 142.433 361.083 143.113C354.864 148.32 348.329 153.3 341.659 157.912C340.976 158.386 339.433 159.452 337.683 159.452Z" fill="#70FE90"/>
<path d="M337.682 159.946C337.019 159.946 336.38 159.807 335.783 159.533C334.277 158.839 333.21 157.273 332.996 155.445C332.836 154.094 333.136 152.847 333.354 151.937C333.751 150.292 334.243 148.36 334.904 146.44C335.113 145.83 335.548 145.337 336.127 145.055C336.705 144.773 337.361 144.732 337.971 144.943C338.58 145.152 339.072 145.587 339.355 146.166C339.637 146.745 339.678 147.4 339.468 148.01C338.872 149.743 338.416 151.535 338.049 153.059C337.869 153.808 337.735 154.418 337.79 154.881C337.801 154.969 337.821 155.041 337.841 155.096C338.03 155.042 338.44 154.874 339.196 154.351C345.76 149.811 352.189 144.913 358.301 139.795C358.795 139.381 359.423 139.184 360.064 139.241C360.706 139.298 361.287 139.602 361.701 140.096C362.115 140.59 362.311 141.216 362.254 141.858C362.197 142.5 361.894 143.081 361.399 143.495C355.164 148.715 348.618 153.704 341.939 158.322C341.233 158.808 339.585 159.946 337.682 159.946ZM337.182 145.797C336.968 145.797 336.757 145.845 336.56 145.942C336.218 146.109 335.961 146.4 335.837 146.761C335.19 148.642 334.705 150.546 334.316 152.16C334.113 153.006 333.838 154.153 333.977 155.33C334.151 156.82 335.002 158.086 336.196 158.637C336.664 158.851 337.164 158.96 337.683 158.96C339.278 158.96 340.749 157.944 341.377 157.511C348.032 152.909 354.555 147.939 360.765 142.738C361.058 142.493 361.237 142.15 361.271 141.77C361.305 141.391 361.188 141.021 360.943 140.729C360.699 140.437 360.355 140.258 359.975 140.224C359.609 140.192 359.227 140.306 358.934 140.552C352.798 145.69 346.346 150.606 339.756 155.163C338.602 155.961 337.828 156.247 337.388 156.046C337.107 155.919 336.867 155.487 336.809 154.998C336.736 154.373 336.885 153.676 337.089 152.829C337.462 151.282 337.925 149.462 338.535 147.69C338.659 147.33 338.635 146.943 338.469 146.6C338.301 146.258 338.011 146.001 337.651 145.877C337.496 145.823 337.339 145.797 337.182 145.797Z" fill="#263238"/>
<path d="M348.38 175.957C348.281 175.957 348.181 175.928 348.095 175.866L344.12 173.055C343.898 172.898 343.845 172.59 344.003 172.367C344.162 172.144 344.47 172.094 344.691 172.249L348.666 175.06C348.888 175.217 348.941 175.525 348.784 175.748C348.687 175.884 348.534 175.957 348.38 175.957Z" fill="#263238"/>
<path d="M358.044 182.792C357.943 182.792 357.843 182.761 357.759 182.701L352.394 178.906C352.171 178.748 352.119 178.441 352.276 178.218C352.435 177.995 352.743 177.944 352.964 178.1L357.901 181.592L373.952 155.611C374.096 155.378 374.401 155.307 374.632 155.45C374.864 155.593 374.936 155.897 374.793 156.129L358.466 182.557C358.394 182.673 358.278 182.754 358.144 182.781C358.109 182.789 358.077 182.792 358.044 182.792Z" fill="#263238"/>
<path d="M380.631 146.093C380.542 146.093 380.453 146.069 380.373 146.02C380.141 145.877 380.069 145.573 380.211 145.341L388.555 131.784L355.256 118.666L347.909 129.162C347.754 129.386 347.445 129.439 347.222 129.283C346.999 129.127 346.944 128.819 347.102 128.596L354.671 117.781C354.802 117.594 355.042 117.522 355.256 117.605L389.465 131.081C389.601 131.134 389.706 131.246 389.752 131.384C389.798 131.522 389.78 131.675 389.704 131.799L381.051 145.859C380.957 146.009 380.796 146.093 380.631 146.093Z" fill="#263238"/>
<path d="M278.604 211.446C278.437 211.446 278.275 211.361 278.183 211.207C277.372 209.855 271.6 186.414 270.944 183.746C270.879 183.482 271.04 183.214 271.306 183.15C271.576 183.084 271.838 183.248 271.902 183.511C274.458 193.915 278.465 209.742 279.029 210.7C279.167 210.934 279.091 211.238 278.856 211.376C278.778 211.423 278.69 211.446 278.604 211.446Z" fill="#263238"/>
<path d="M281.33 208.83C281.154 208.83 280.983 208.736 280.894 208.569L273.847 195.356C273.719 195.115 273.81 194.816 274.05 194.688C274.29 194.559 274.589 194.65 274.718 194.891L281.765 208.104C281.893 208.345 281.802 208.644 281.562 208.772C281.489 208.812 281.409 208.83 281.33 208.83Z" fill="#263238"/>
<path d="M266.958 212.247C266.712 212.247 266.499 212.063 266.469 211.813C266.436 211.542 266.629 211.296 266.899 211.264C269.698 210.925 272.509 210.471 275.256 209.916C275.519 209.863 275.783 210.035 275.837 210.303C275.891 210.57 275.718 210.83 275.45 210.884C272.679 211.444 269.842 211.902 267.018 212.244C266.998 212.246 266.978 212.247 266.958 212.247Z" fill="#263238"/>
<path d="M274.607 196.878C274.527 196.878 274.445 196.862 274.365 196.823C274.184 196.734 274.055 196.503 274.069 196.302C274.082 196.122 274.169 195.993 274.226 195.918L275.59 183.034C275.619 182.762 275.866 182.564 276.133 182.596C276.404 182.624 276.6 182.867 276.572 183.139L275.199 196.113C275.194 196.16 275.185 196.204 275.172 196.243C275.208 196.416 275.146 196.606 275.014 196.726C274.918 196.811 274.767 196.878 274.607 196.878ZM274.217 196.006C274.217 196.006 274.217 196.008 274.217 196.01V196.006Z" fill="#263238"/>
<path d="M323.098 182.238C323.069 183.927 321.351 187.421 321.351 187.421C321.351 187.421 321.341 187.584 321.293 187.862C321.235 188.275 321.12 188.927 320.89 189.676C320.477 191.01 319.719 192.642 318.327 193.774C318.068 193.985 317.78 194.216 317.453 194.465C317.424 194.494 317.386 194.523 317.348 194.542C315.275 196.126 312.136 198.324 310.245 199.639L309.208 198.055C309.208 198.055 306.499 194.171 305.826 192.838C305.864 192.752 306.29 192.257 306.299 192.152C306.433 191.442 306.203 190.559 306.021 189.772C305.954 189.484 305.887 189.215 305.848 188.975C305.771 188.562 305.771 188.226 305.915 188.025C305.972 187.939 306.126 187.766 306.347 187.545L306.356 187.535C307.901 185.894 312.777 181.267 312.777 181.267C312.777 181.267 313.526 180.777 314.293 180.441C314.735 180.239 315.186 180.086 315.493 180.124C315.714 180.134 315.867 180.239 315.906 180.46C315.925 180.585 315.925 180.738 315.896 180.921C315.656 182.342 314.071 185.561 313.946 185.81C313.929 186.034 314.155 186.012 314.201 185.619C314.537 185.417 316.472 184.05 318.632 182.956C318.661 182.946 318.699 182.927 318.728 182.908C320.657 181.938 322.51 181.18 322.942 181.564C322.971 181.593 322.99 181.622 323 181.65C323.029 181.717 323.057 181.804 323.077 181.89C323.088 181.998 323.098 182.113 323.098 182.238Z" fill="white"/>
<path d="M310.325 200.289C310.171 200.289 310.017 200.216 309.922 200.08C309.765 199.857 309.818 199.549 310.04 199.393C312.011 198.003 315.192 195.748 317.016 194.423C317.039 194.4 317.111 194.353 317.138 194.334C319.74 192.452 320.057 191.409 320.364 189.86L320.414 189.598C320.477 189.275 320.542 188.934 320.626 188.568C320.666 188.386 320.718 188.189 320.779 187.994C321.003 187.258 321.331 186.503 321.647 185.772C322.185 184.531 322.694 183.358 322.603 182.521C322.595 182.439 322.589 182.384 322.578 182.355C322.562 182.314 322.55 182.27 322.545 182.226C322.541 182.218 322.534 182.202 322.527 182.183C322.385 182.138 321.646 182.086 318.93 183.619C318.894 183.644 318.817 183.683 318.748 183.705C316.4 185.058 313.805 186.885 313.779 186.903C313.585 187.039 313.323 187.019 313.152 186.855C312.981 186.69 312.952 186.428 313.083 186.229C313.222 186.017 313.351 185.805 313.462 185.611C315.071 182.97 315.384 181.766 315.364 181.219C315.35 180.912 315.25 180.856 315.214 180.835C315.105 180.773 314.935 180.75 314.713 180.753C314.613 180.762 314.51 180.77 314.407 180.786C313.488 180.928 311.76 182.761 310.234 184.379C309.313 185.356 308.36 186.366 307.495 187.121C307.164 187.412 306.916 187.72 306.759 188.035C306.748 188.057 306.736 188.078 306.722 188.099C306.554 188.426 306.46 188.771 306.435 189.153C306.42 189.406 306.431 189.673 306.471 189.99C306.507 190.289 306.561 190.577 306.612 190.854C306.721 191.437 306.824 191.988 306.749 192.504C306.741 192.597 306.702 192.723 306.377 193.417L306.334 193.511C306.223 193.761 305.931 193.872 305.682 193.762C305.433 193.651 305.321 193.359 305.431 193.111L305.483 193C305.567 192.821 305.74 192.457 305.779 192.329C305.823 192.009 305.735 191.537 305.642 191.037C305.586 190.739 305.529 190.43 305.492 190.112C305.445 189.736 305.431 189.411 305.45 189.093C305.487 188.549 305.624 188.06 305.872 187.595C305.881 187.579 305.89 187.563 305.901 187.548C306.115 187.137 306.433 186.744 306.845 186.382C307.675 185.658 308.611 184.665 309.516 183.706C311.387 181.722 313.002 180.008 314.257 179.815C314.382 179.796 314.508 179.785 314.626 179.775C315.112 179.756 315.431 179.827 315.7 179.98C315.977 180.135 316.318 180.472 316.351 181.182C316.381 181.999 315.951 183.208 315.044 184.86C315.989 184.238 317.186 183.477 318.35 182.812L318.447 182.762C321.998 180.758 322.888 181.024 323.294 181.546C323.334 181.58 323.395 181.675 323.43 181.779C323.467 181.843 323.5 181.943 323.52 182.055C323.567 182.197 323.579 182.328 323.588 182.428C323.706 183.516 323.147 184.805 322.556 186.169C322.25 186.874 321.934 187.603 321.725 188.289C321.671 188.462 321.627 188.631 321.591 188.791C321.509 189.147 321.445 189.477 321.386 189.789L321.334 190.054C320.99 191.795 320.557 193.084 317.789 195.091C317.696 195.165 317.613 195.226 317.529 195.267C315.771 196.552 312.586 198.811 310.611 200.203C310.522 200.26 310.423 200.289 310.325 200.289ZM322.491 182.087C322.493 182.091 322.494 182.094 322.495 182.098C322.494 182.093 322.492 182.09 322.491 182.087Z" fill="#263238"/>
<path d="M351.784 200.376C351.621 200.376 351.461 200.295 351.367 200.146C351.221 199.916 351.291 199.611 351.521 199.466C353.215 198.395 354.804 197.145 356.242 195.751C356.438 195.562 356.75 195.568 356.94 195.763C357.129 195.959 357.124 196.271 356.928 196.461C355.442 197.903 353.8 199.194 352.046 200.302C351.966 200.351 351.875 200.376 351.784 200.376Z" fill="#263238"/>
<path d="M374.638 162.255C374.413 162.255 374.21 162.101 374.157 161.873C373.709 159.948 373.729 158.062 374.23 155.838C371.911 156.03 369.584 155.915 367.295 155.498C367.009 155.446 366.412 155.338 366.094 154.855C365.734 154.306 365.937 153.611 366.325 153.208C366.662 152.857 367.098 152.693 367.514 152.555C369.513 151.896 371.599 151.539 373.396 151.255C374.065 151.15 374.899 151.02 375.703 151.251C377.164 151.673 377.988 153.086 378.645 154.378C378.769 154.621 378.672 154.918 378.429 155.042C378.191 155.163 377.889 155.07 377.766 154.826C377.176 153.668 376.51 152.512 375.429 152.2C374.877 152.04 374.276 152.116 373.55 152.231C371.79 152.508 369.752 152.857 367.823 153.492C367.512 153.595 367.218 153.703 367.036 153.892C366.914 154.019 366.858 154.219 366.918 154.312C367.003 154.442 367.331 154.501 367.47 154.526C369.896 154.969 372.369 155.058 374.818 154.79C374.986 154.77 375.14 154.836 375.246 154.958C375.352 155.081 375.391 155.248 375.349 155.405C374.734 157.768 374.663 159.693 375.118 161.649C375.18 161.915 375.014 162.18 374.749 162.241C374.712 162.251 374.675 162.255 374.638 162.255Z" fill="#263238"/>
<path d="M367.768 153.136C367.564 153.136 367.361 153.065 367.187 152.928C366.933 152.731 366.773 152.424 366.759 152.108C366.74 151.707 366.91 151.312 367.266 150.933C367.878 150.278 368.709 149.933 369.44 149.682C371.902 148.839 374.5 148.649 376.756 149.15C377.022 149.209 377.19 149.473 377.131 149.739C377.072 150.004 376.811 150.172 376.542 150.114C374.461 149.651 372.052 149.83 369.76 150.617C369.143 150.828 368.45 151.111 367.986 151.609C367.824 151.782 367.739 151.942 367.744 152.063C367.746 152.098 367.78 152.144 367.799 152.155C368.073 152.101 368.302 152.272 368.356 152.54C368.41 152.807 368.213 153.066 367.945 153.12C367.887 153.13 367.828 153.136 367.768 153.136Z" fill="#263238"/>
<path d="M380.541 164.792C380.428 164.792 380.316 164.754 380.224 164.676C380.015 164.501 379.988 164.189 380.163 163.981C382.476 161.229 383.073 157.163 381.645 153.864L381.469 153.472C381.23 152.948 380.983 152.407 380.901 151.794C380.833 151.282 380.888 150.785 380.943 150.306C381.003 149.773 381.061 149.269 380.935 148.817C380.711 148.008 379.913 147.416 379.116 146.879C377.389 145.716 375.535 144.563 373.525 144.366C373.267 144.339 372.947 144.328 372.744 144.458C372.689 144.519 372.637 144.793 372.678 144.884L374.979 146.238C375.485 146.541 376.178 146.956 376.465 147.698C376.625 148.112 376.619 148.535 376.614 148.908C376.611 149.114 376.606 149.32 376.636 149.521C376.677 149.79 376.491 150.042 376.223 150.083C375.963 150.125 375.702 149.94 375.661 149.67C375.622 149.416 375.623 149.155 375.627 148.895C375.631 148.584 375.636 148.29 375.544 148.055C375.392 147.662 374.968 147.383 374.471 147.085L372.107 145.67C371.836 145.508 371.684 145.202 371.678 144.809C371.671 144.397 371.833 143.873 372.21 143.629C372.667 143.335 373.206 143.344 373.621 143.385C375.859 143.605 377.835 144.828 379.667 146.062C380.617 146.702 381.571 147.421 381.885 148.554C382.062 149.19 381.991 149.815 381.923 150.418C381.873 150.858 381.826 151.274 381.878 151.665C381.941 152.132 382.148 152.585 382.367 153.064L382.551 153.475C384.123 157.109 383.467 161.587 380.918 164.619C380.822 164.732 380.682 164.792 380.541 164.792Z" fill="#263238"/>
<path d="M267.746 124.025L271.644 119.265L274.489 123.029C274.489 123.029 271.254 124.433 267.746 124.025Z" fill="white"/>
<path d="M283.695 154.651L280.545 162.713L292.865 168.904V160.065L297.766 167.736C297.766 167.736 301.266 162.776 303.738 156.443L300.065 152.228C300.065 152.228 295.493 159.438 292.715 159.239C289.937 159.04 283.695 154.651 283.695 154.651Z" fill="white"/>
<path d="M301.747 113.245L302.856 120.375C302.856 120.375 306.5 120.534 306.342 123.069C306.184 125.604 303.649 129.565 303.649 129.565C303.649 129.565 305.391 140.731 300.004 146.118L299.967 151.632C299.967 151.632 296.501 158.563 292.866 160.066C292.866 160.066 286.855 157.925 284.003 155.232C284.003 155.232 279.779 140.354 278.353 135.601C278.353 135.601 275.685 137.229 273.982 135.694C272.279 134.159 269.456 130.555 270.788 128.634C272.12 126.713 275.447 127.505 275.447 127.505L271.644 119.266C271.644 119.266 278.14 110.869 286.695 111.186C295.251 111.502 301.747 113.245 301.747 113.245Z" fill="white"/>
<path d="M282.048 113.478C283.941 116.613 284.805 120.358 284.475 124.005C284.289 126.063 283.736 128.078 283.625 130.141C283.447 133.427 284.39 136.659 285.324 139.815C285.937 141.885 286.417 144.621 288.328 145.625C289.272 146.121 290.288 145.751 291.496 146.544C291.496 146.621 291.586 146.86 291.586 146.937C291.586 149.774 292.115 152.501 291.711 155.309C291.5 156.773 291.118 158.293 290.101 159.367L283.697 154.652C283.697 154.652 280.904 143.765 278.164 135.769C278.164 135.769 273.611 136.849 271.755 133.254C269.9 129.659 270.016 128.152 271.871 127.688C273.726 127.224 276.394 127.804 276.394 127.804L275.118 119.107L280.337 113.772L282.048 113.478Z" fill="#70FE90"/>
<path opacity="0.5" d="M282.048 113.478C283.941 116.613 284.805 120.358 284.475 124.005C284.289 126.063 283.736 128.078 283.625 130.141C283.447 133.427 284.39 136.659 285.324 139.815C285.937 141.885 286.417 144.621 288.328 145.625C289.272 146.121 290.288 145.751 291.496 146.544C291.496 146.621 291.586 146.86 291.586 146.937C291.586 149.774 292.115 152.501 291.711 155.309C291.5 156.773 291.118 158.293 290.101 159.367L283.697 154.652C283.697 154.652 280.904 143.765 278.164 135.769C278.164 135.769 273.611 136.849 271.755 133.254C269.9 129.659 270.016 128.152 271.871 127.688C273.726 127.224 276.394 127.804 276.394 127.804L275.118 119.107L280.337 113.772L282.048 113.478Z" fill="white"/>
<path d="M275.5 129.898L277.58 128.665C277.58 128.665 275.766 125.087 277.917 123.397C280.067 121.707 282.064 119.557 280.528 114.641C280.528 114.641 283.6 113.105 288.516 114.334C293.432 115.563 305.863 116.893 311.239 111.21C316.615 105.526 317.087 103.274 314.937 99.4342C312.787 95.5942 308.793 101.124 302.341 98.3592C295.889 95.5942 290.974 93.2902 280.068 100.356C269.162 107.422 267.472 113.72 269.623 118.021C271.773 122.323 273.81 126.058 275.5 129.898Z" fill="#263238"/>
<path d="M268.191 122.396L269.561 119.264C269.561 119.264 267.257 113.427 269.039 106.537C271.233 98.0521 280.663 93.8101 286.339 93.0271C292.015 92.2441 296.32 94.9561 300.626 97.1091L308.511 98.7121C308.511 98.7121 284.395 101.598 268.191 122.396Z" fill="white"/>
<path d="M296.094 147.652C292.501 147.653 286.429 146.238 283.755 143.917C283.725 143.89 283.697 143.86 283.674 143.827L277.933 135.596C277.777 135.372 277.832 135.065 278.055 134.909C278.277 134.755 278.585 134.807 278.742 135.031L284.447 143.211C287.635 145.924 295.594 147.168 297.799 146.484C300.035 145.791 302.686 143.905 303.341 135.403C304 126.832 301.788 115.545 301.766 115.432C301.713 115.165 301.887 114.905 302.153 114.852C302.423 114.796 302.681 114.972 302.733 115.24C302.756 115.354 304.994 126.771 304.323 135.479C303.623 144.573 300.625 146.64 298.091 147.426C297.602 147.579 296.912 147.652 296.094 147.652Z" fill="#263238"/>
<path d="M275.75 136.616C275.156 136.616 274.478 136.493 273.761 136.134C272.405 135.455 270.963 133.509 270.335 131.504C270.055 130.615 269.833 129.354 270.354 128.396C271.568 126.173 275.045 127.696 275.192 127.761C275.441 127.872 275.551 128.164 275.441 128.412C275.33 128.66 275.042 128.773 274.79 128.662C274.763 128.65 271.988 127.464 271.221 128.868C270.943 129.377 270.964 130.209 271.277 131.208C271.815 132.923 273.1 134.699 274.203 135.25C275.931 136.114 277.354 135.231 277.413 135.193C277.641 135.045 277.947 135.114 278.094 135.342C278.241 135.57 278.176 135.874 277.949 136.022C277.896 136.057 277.015 136.616 275.75 136.616Z" fill="#263238"/>
<path d="M295.83 131.975C295.6 131.975 295.393 131.813 295.347 131.578C295.294 131.31 295.467 131.051 295.734 130.998C296.307 130.884 296.838 130.554 297.192 130.091C297.349 129.887 297.499 129.577 297.408 129.378C297.373 129.303 297.292 129.216 297.207 129.123C296.845 128.728 296.525 128.327 296.234 127.906C296.015 127.588 295.773 127.205 295.642 126.763C295.528 126.381 295.506 125.992 295.494 125.659C295.456 124.549 295.518 123.434 295.676 122.343C295.715 122.073 295.968 121.879 296.236 121.926C296.505 121.965 296.692 122.216 296.653 122.485C296.503 123.518 296.445 124.575 296.48 125.625C296.49 125.91 296.506 126.212 296.587 126.482C296.679 126.791 296.861 127.08 297.045 127.346C297.309 127.729 297.601 128.094 297.91 128.433C298.052 128.586 298.203 128.75 298.302 128.967C298.535 129.475 298.412 130.119 297.974 130.691C297.476 131.342 296.728 131.807 295.924 131.966C295.895 131.972 295.862 131.975 295.83 131.975Z" fill="#263238"/>
<path d="M292.785 136.535C292.447 136.535 292.131 136.496 291.872 136.464C291.758 136.45 291.657 136.437 291.572 136.431C290.489 136.354 289.414 136.034 288.466 135.505C288.228 135.373 288.142 135.072 288.275 134.834C288.406 134.595 288.709 134.511 288.946 134.644C289.77 135.103 290.702 135.381 291.642 135.447C291.742 135.454 291.861 135.468 291.994 135.485C292.478 135.545 293.141 135.627 293.613 135.39C293.857 135.27 294.152 135.366 294.274 135.611C294.396 135.855 294.297 136.151 294.053 136.273C293.646 136.476 293.199 136.535 292.785 136.535Z" fill="#263238"/>
<path d="M285.728 120.794C285.638 120.794 285.548 120.77 285.467 120.719C285.236 120.574 285.165 120.27 285.31 120.039C285.758 119.323 286.265 118.511 286.979 117.891C288.088 116.929 289.61 116.516 291.055 116.785C291.323 116.835 291.499 117.093 291.449 117.361C291.399 117.629 291.134 117.799 290.874 117.756C289.741 117.542 288.496 117.882 287.627 118.637C287.024 119.16 286.579 119.874 286.147 120.563C286.053 120.712 285.892 120.794 285.728 120.794Z" fill="#263238"/>
<path d="M301.655 120.179C301.421 120.179 301.213 120.011 301.17 119.771C301.138 119.592 301.045 119.418 300.913 119.293C300.768 119.155 300.563 119.056 300.363 118.969C299.743 118.701 298.167 118.153 296.916 118.879C296.681 119.015 296.378 118.936 296.241 118.7C296.104 118.464 296.185 118.162 296.42 118.025C297.575 117.356 299.155 117.37 300.755 118.063C301.025 118.18 301.336 118.333 301.594 118.577C301.879 118.848 302.074 119.211 302.142 119.599C302.189 119.867 302.01 120.123 301.742 120.171C301.713 120.177 301.684 120.179 301.655 120.179Z" fill="#263238"/>
<path d="M290.619 124.339C290.689 125.079 290.446 125.706 290.077 125.741C289.707 125.776 289.351 125.205 289.28 124.466C289.21 123.727 289.453 123.099 289.822 123.064C290.192 123.028 290.549 123.599 290.619 124.339Z" fill="#263238"/>
<path d="M299.784 123.818C299.854 124.557 299.611 125.185 299.242 125.22C298.872 125.255 298.516 124.684 298.446 123.945C298.376 123.206 298.619 122.578 298.988 122.543C299.358 122.508 299.714 123.079 299.784 123.818Z" fill="#263238"/>
<path d="M300.063 152.721C299.815 152.721 299.601 152.534 299.573 152.281C299.141 148.325 299.277 146.426 299.283 146.347C299.304 146.075 299.538 145.867 299.812 145.893C300.084 145.914 300.288 146.15 300.268 146.422C300.266 146.44 300.134 148.325 300.554 152.175C300.584 152.446 300.388 152.69 300.117 152.719C300.1 152.719 300.082 152.721 300.063 152.721Z" fill="#263238"/>
<path d="M283.617 155.101C283.371 155.101 283.158 154.917 283.128 154.667C282.516 149.597 280.954 145.17 279.3 140.483C278.735 138.882 278.15 137.226 277.6 135.526C277.516 135.267 277.658 134.988 277.917 134.904C278.182 134.821 278.455 134.962 278.539 135.221C279.085 136.909 279.668 138.559 280.231 140.154C281.903 144.893 283.483 149.37 284.107 154.548C284.14 154.819 283.947 155.065 283.676 155.097C283.657 155.1 283.637 155.101 283.617 155.101Z" fill="#263238"/>
<path d="M267.746 124.519C267.685 124.519 267.624 124.508 267.565 124.484C267.338 124.394 267.21 124.152 267.265 123.913C270.434 110.286 278.356 101.815 291.485 98.0151C299.406 95.7241 309.579 98.1141 310.006 98.2171C310.24 98.2731 310.399 98.4891 310.384 98.7291C310.369 98.9691 310.183 99.1631 309.944 99.1881C281.253 102.24 268.301 124.053 268.174 124.273C268.082 124.429 267.918 124.519 267.746 124.519ZM299.373 98.0241C296.844 98.0241 294.173 98.2641 291.758 98.9631C279.916 102.391 272.433 109.734 268.958 121.372C273.113 115.756 285.273 102.007 306.746 98.6141C304.83 98.3221 302.189 98.0241 299.373 98.0241Z" fill="#263238"/>
<path d="M268.758 124.887C268.034 124.887 267.653 124.771 267.617 124.76C267.358 124.677 267.214 124.4 267.297 124.14C267.381 123.88 267.659 123.735 267.918 123.821C267.93 123.824 269.724 124.326 273.265 122.765C273.516 122.655 273.806 122.767 273.917 123.017C274.027 123.266 273.913 123.558 273.664 123.668C271.388 124.669 269.751 124.887 268.758 124.887Z" fill="#263238"/>
<path d="M268.965 118.855C268.915 118.704 264.094 103.637 275.965 96.3331C290.486 87.3951 300.776 96.9291 300.879 97.0271L300.199 97.7421C299.803 97.3671 290.343 88.6451 276.483 97.1731C265.271 104.073 269.856 118.401 269.903 118.544L268.965 118.855Z" fill="#263238"/>
<path d="M292.865 169.398C292.8 169.398 292.735 169.386 292.673 169.359C292.24 169.176 282.047 164.866 280.005 162.486C279.882 162.341 279.852 162.139 279.929 161.966L283.243 154.453C283.309 154.302 283.447 154.194 283.61 154.166C283.772 154.137 283.938 154.193 284.052 154.313C284.089 154.352 287.784 158.208 292.99 159.589C293.207 159.646 293.357 159.842 293.357 160.066V168.905C293.357 169.07 293.274 169.225 293.136 169.316C293.056 169.37 292.96 169.398 292.865 169.398ZM280.964 162.064C282.936 163.972 290.112 167.174 292.371 168.155V160.441C288.18 159.229 285.051 156.615 283.858 155.503L280.964 162.064Z" fill="#263238"/>
<path d="M297.766 168.23C297.744 168.23 297.722 168.229 297.7 168.226C297.556 168.206 297.428 168.125 297.351 168.002L292.449 160.331C292.378 160.221 292.355 160.087 292.383 159.959C292.412 159.831 292.49 159.719 292.601 159.65C292.658 159.613 298.342 155.96 299.684 151.523C299.738 151.345 299.887 151.212 300.071 151.18C300.251 151.146 300.439 151.22 300.552 151.37L304.135 156.148C304.222 156.264 304.254 156.414 304.221 156.555C304.149 156.867 302.398 164.244 298.097 168.104C298.004 168.185 297.886 168.23 297.766 168.23ZM293.54 160.207L297.86 166.967C301.242 163.591 302.89 157.753 303.202 156.551L300.308 152.692C298.753 156.39 294.832 159.316 293.54 160.207Z" fill="#263238"/>
<path d="M282.927 109.187C282.708 109.187 282.509 109.041 282.45 108.82C282.381 108.556 282.538 108.287 282.801 108.217C286.398 107.266 290.099 106.895 293.789 107.113C294.871 107.177 295.967 107.293 297.026 107.405C299.414 107.659 301.883 107.919 304.26 107.582C307.442 107.131 310.975 105.181 311.695 101.842C311.752 101.575 312.023 101.407 312.281 101.464C312.547 101.521 312.717 101.784 312.659 102.05C311.84 105.853 307.919 108.059 304.399 108.559C301.9 108.912 299.369 108.645 296.922 108.386C295.873 108.275 294.79 108.16 293.731 108.097C290.14 107.886 286.548 108.246 283.053 109.17C283.011 109.182 282.969 109.187 282.927 109.187Z" fill="white"/>
<path d="M290.049 105.458C289.873 105.458 289.702 105.363 289.613 105.196C289.485 104.955 289.576 104.657 289.817 104.529C292.843 102.921 296.303 102.632 299.588 102.473L299.86 102.46C301.308 102.391 302.805 102.32 304.185 101.921C305.781 101.459 307.019 100.583 307.673 99.4542C307.81 99.2162 308.114 99.1382 308.347 99.2742C308.583 99.4102 308.664 99.7122 308.527 99.9482C307.746 101.298 306.302 102.335 304.459 102.869C302.968 103.3 301.412 103.374 299.907 103.446L299.636 103.459C296.462 103.612 293.127 103.888 290.28 105.401C290.207 105.439 290.127 105.458 290.049 105.458Z" fill="white"/>
<path d="M116.967 302.333C113.787 303.605 125.234 322.365 129.05 323.319C132.866 324.273 144.63 295.02 141.451 293.43C138.271 291.84 130.004 316.324 128.414 316.324C126.824 316.323 120.147 301.061 116.967 302.333Z" fill="#263238"/>
<path d="M242.474 322.738L240.544 335.9C240.544 335.9 241.308 343.029 228.067 346.093C222.38 347.409 214.078 346.495 206.46 345.022C196.33 343.069 187.406 340.138 187.406 340.138L189.478 335.758L192.66 329.023L192.55 328.164L192.274 326.021L188.068 327.415L155.213 338.277L151.826 330.928L179.482 313.961L179.419 309.408L174.134 309.188C174.134 306.636 175.851 302.311 175.851 302.311L178.907 301.445C178.907 301.445 176.103 271.457 177.127 266.873C178.143 262.289 187.729 256.546 187.729 256.546C190.439 263.541 196.142 265.723 196.142 265.723L198.6 259.603L200.963 264.479C206.965 261.824 212.038 252.065 212.038 252.065C212.038 252.065 225.775 255.665 235.708 270.946C245.64 286.228 242.474 322.738 242.474 322.738Z" fill="#70FE90"/>
<path opacity="0.2" d="M216.897 327.165C223.01 334.113 197.535 330.442 196.511 330.292C197.086 330.528 206.154 333.535 206.533 344.224C195.488 343.023 187.406 340.138 187.406 340.138L189.478 335.758L192.55 328.165L192.274 326.022L189.726 311.928C189.726 311.928 208.455 314.209 224.554 316.672L198.182 318.09C198.182 318.09 210.659 320.076 216.897 327.165Z" fill="black"/>
<path opacity="0.2" d="M186.906 299.211L210.215 295.14C209.501 287.678 210.256 280.04 213.608 273.336C214.442 271.667 215.565 270.222 216.801 268.926C217.366 268.334 219.566 268.688 219.191 271.672C218.42 277.798 218.234 276.936 217.277 282.998L215.328 295.26C215.328 295.26 228.15 292.033 229.888 302.775C229.988 303.391 229.344 303.864 228.778 303.6C225.79 302.207 218.352 298.946 215.591 299.643C215.591 299.643 204.63 299.505 200.895 300.354C197.16 301.203 187.334 301.398 187.334 301.398L186.906 299.211Z" fill="black"/>
<path opacity="0.2" d="M151.822 330.928L155.213 338.276L192.275 326.023L189.788 311.964L179.465 310.578L179.412 313.989L151.822 330.928Z" fill="black"/>
<path d="M152.979 333.37L151.197 331.587C151.197 331.587 145.446 330.724 142.463 331.983C139.48 333.242 130.195 336.77 131.207 337.299C132.219 337.827 137.554 337.902 137.554 337.902C137.554 337.902 125.98 344.959 126.107 345.851C126.234 346.742 137.187 345.851 138.97 345.469C140.753 345.087 154.521 337.294 154.521 337.294L152.979 333.37Z" fill="white"/>
<path d="M174.17 308.029L175.707 303.082C175.707 303.082 170.56 297.267 167.819 296.866C165.078 296.465 161.602 297.869 161.602 297.869C161.602 297.869 156.722 295.128 155.987 296.465C155.252 297.802 156.107 300.65 156.107 300.65C156.107 300.65 153.914 304.286 155.385 305.623C156.856 306.96 156.922 308.698 156.922 308.698C156.922 308.698 167.619 311.171 174.17 308.029Z" fill="white"/>
<path d="M155.892 296.962C157.172 295.531 158.161 300.678 159.165 302.314C159.68 303.152 160.209 304.006 160.973 304.625C162.357 305.746 164.266 305.912 166.046 305.928C168.782 305.953 171.52 305.736 174.217 305.279L174.835 307.289C174.835 307.289 168.646 310.569 156.923 308.697C156.923 308.697 156.477 306.713 155.391 305.472C154.305 304.231 155.906 301.239 155.906 301.239C155.906 301.239 154.739 298.25 155.892 296.962Z" fill="#70FE90"/>
<path opacity="0.5" d="M155.892 296.962C157.172 295.531 158.161 300.678 159.165 302.314C159.68 303.152 160.209 304.006 160.973 304.625C162.357 305.746 164.266 305.912 166.046 305.928C168.782 305.953 171.52 305.736 174.217 305.279L174.835 307.289C174.835 307.289 168.646 310.569 156.923 308.697C156.923 308.697 156.477 306.713 155.391 305.472C154.305 304.231 155.906 301.239 155.906 301.239C155.906 301.239 154.739 298.25 155.892 296.962Z" fill="white"/>
<path d="M152.159 284.958C149.181 289.19 142.448 289.581 137.122 285.833C131.795 282.084 130.304 275.622 133.282 271.39C136.26 267.158 142.581 266.76 147.907 270.508C153.233 274.257 155.137 280.727 152.159 284.958Z" fill="white"/>
<path d="M135.668 270.267C135.668 270.267 135.367 280.494 151.609 283.501C151.609 283.501 152.211 287.712 146.496 287.01C140.781 286.308 135.066 281.095 133.863 278.087C132.66 275.08 132.259 271.27 135.668 270.267Z" fill="#70FE90"/>
<path opacity="0.4" d="M135.668 270.267C135.668 270.267 135.367 280.494 151.609 283.501C151.609 283.501 152.211 287.712 146.496 287.01C140.781 286.308 135.066 281.095 133.863 278.087C132.66 275.08 132.259 271.27 135.668 270.267Z" fill="white"/>
<path d="M146.581 287.481C146.365 287.481 146.145 287.474 145.923 287.461C143.188 287.295 140.338 286.116 137.898 284.142C135.458 282.168 133.711 279.627 132.978 276.986C132.229 274.285 132.623 271.801 134.09 269.99C135.557 268.177 137.911 267.275 140.701 267.444C143.436 267.61 146.286 268.788 148.725 270.763C151.165 272.737 152.913 275.278 153.645 277.919C154.394 280.618 154 283.103 152.533 284.915C151.184 286.583 149.088 287.481 146.581 287.481ZM140.045 268.41C137.841 268.41 136.014 269.18 134.857 270.61C133.597 272.167 133.267 274.337 133.929 276.721C134.607 279.165 136.237 281.528 138.518 283.374C140.8 285.221 143.451 286.322 145.982 286.475C148.458 286.629 150.506 285.85 151.766 284.293C153.026 282.736 153.356 280.565 152.694 278.181C152.016 275.738 150.386 273.375 148.104 271.529C145.822 269.683 143.172 268.581 140.64 268.428C140.44 268.415 140.241 268.41 140.045 268.41Z" fill="#263238"/>
<path d="M145.082 289.153C144.866 289.153 144.646 289.146 144.424 289.133C141.689 288.967 138.839 287.789 136.399 285.814C133.959 283.84 132.212 281.299 131.48 278.658C130.731 275.957 131.125 273.473 132.592 271.661C135.576 267.973 142.142 268.319 147.227 272.434C152.312 276.549 154.021 282.899 151.035 286.587C149.685 288.255 147.588 289.153 145.082 289.153ZM133.358 272.281C132.098 273.838 131.768 276.009 132.43 278.393C133.108 280.837 134.738 283.2 137.02 285.046C139.302 286.893 141.953 287.994 144.484 288.148C146.961 288.301 149.008 287.523 150.268 285.966C152.911 282.7 151.268 276.974 146.606 273.201C141.943 269.427 136 269.016 133.358 272.281Z" fill="#263238"/>
<path d="M164.161 299.153L156.645 296.974L148.697 287.971C148.716 287.913 148.745 287.856 148.774 287.798C149.072 287.088 149.456 286.637 149.82 286.349C150.108 286.138 150.377 286.013 150.588 285.946C150.741 285.898 150.866 285.879 150.943 285.879C150.991 285.87 151.02 285.87 151.02 285.87L164.161 299.153Z" fill="#263238"/>
<path d="M155.215 338.769C155.027 338.769 154.85 338.661 154.767 338.483L151.376 331.135C151.271 330.908 151.353 330.638 151.566 330.508L178.915 313.718L178.845 310.672C178.839 310.399 179.055 310.174 179.327 310.167C179.633 310.173 179.825 310.378 179.832 310.649L179.908 313.978C179.912 314.153 179.822 314.318 179.673 314.41L152.456 331.119L155.479 337.669L192.123 325.555C192.381 325.466 192.661 325.61 192.746 325.868C192.832 326.127 192.691 326.406 192.432 326.492L155.37 338.744C155.318 338.761 155.266 338.769 155.215 338.769Z" fill="#263238"/>
<path d="M178.776 302.032C178.517 302.032 178.299 301.83 178.284 301.567L176.337 267.814C176.333 267.738 176.346 267.662 176.376 267.591C178.512 262.606 182.206 258.533 187.356 255.484C187.592 255.347 187.894 255.424 188.032 255.658C188.171 255.892 188.093 256.196 187.859 256.335C182.93 259.252 179.388 263.134 177.329 267.875L179.27 301.512C179.286 301.784 179.078 302.017 178.806 302.032C178.795 302.032 178.786 302.032 178.776 302.032Z" fill="#263238"/>
<path d="M239.366 343.317C239.341 343.317 239.315 343.315 239.29 343.311C239.02 343.27 238.836 343.017 238.878 342.748L241.987 322.661C241.993 322.392 243.01 289.844 238.16 277.133C232.851 263.219 218.221 255.406 212.178 252.693C211.929 252.581 211.819 252.289 211.93 252.041C212.041 251.792 212.334 251.68 212.582 251.793C218.737 254.556 233.641 262.524 239.081 276.781C244.002 289.678 243.012 321.409 242.968 322.753L239.853 342.899C239.815 343.142 239.605 343.317 239.366 343.317Z" fill="#263238"/>
<path d="M187.337 301.891C187.103 301.891 186.896 301.725 186.852 301.487L182.88 279.93C182.83 279.662 183.008 279.405 183.276 279.355C183.551 279.315 183.802 279.483 183.851 279.751L187.823 301.308C187.873 301.576 187.695 301.833 187.427 301.883C187.397 301.888 187.366 301.891 187.337 301.891Z" fill="#263238"/>
<path d="M202.738 336.784C202.609 336.784 202.481 336.734 202.384 336.635C200.352 334.546 197.653 333.119 194.783 332.615C194.515 332.568 194.335 332.312 194.382 332.043C194.43 331.775 194.685 331.587 194.954 331.643C198.027 332.182 200.916 333.71 203.092 335.946C203.282 336.142 203.278 336.454 203.082 336.644C202.986 336.738 202.862 336.784 202.738 336.784Z" fill="#263238"/>
<path d="M215.593 300.136C215.322 300.136 215.101 299.917 215.1 299.645C215.1 299.574 215.086 292.377 217.72 279.736C218.346 276.73 219.131 274.201 220.053 272.219C220.168 271.971 220.463 271.862 220.708 271.98C220.955 272.095 221.063 272.389 220.947 272.635C220.056 274.548 219.296 277.005 218.685 279.937C216.076 292.463 216.086 299.569 216.086 299.639C216.088 299.912 215.868 300.133 215.595 300.135L215.593 300.136Z" fill="#263238"/>
<path d="M228.516 317.098C219.429 317.099 182.158 311.072 174.065 309.744C173.826 309.705 173.652 309.499 173.652 309.257C173.652 304.039 175.834 302.089 175.927 302.008C176.002 301.943 176.095 301.902 176.193 301.89C180.569 301.376 184.484 301.152 188.271 300.934C192.04 300.717 195.938 300.494 200.281 299.984C208.475 299.022 218.671 297.826 227.166 301.997C227.411 302.117 227.511 302.413 227.391 302.658C227.271 302.903 226.977 303.003 226.73 302.883C218.499 298.837 208.461 300.015 200.395 300.964C196.023 301.477 192.111 301.701 188.328 301.918C184.605 302.132 180.757 302.354 176.479 302.85C176.104 303.261 174.738 305.019 174.644 308.838C195.916 312.318 227.873 317.057 229.878 316.037C231.485 314.965 235.643 296.459 237.885 285.047C237.937 284.779 238.194 284.601 238.464 284.659C238.731 284.711 238.905 284.97 238.852 285.238C237.871 290.234 232.852 315.239 230.416 316.863C230.175 317.025 229.516 317.098 228.516 317.098Z" fill="#263238"/>
<path d="M175.519 303.282C175.397 303.282 175.275 303.238 175.18 303.147C172.801 300.896 169.038 297.666 168.122 297.535C166.965 297.363 163.24 297.851 161.904 298.052C161.634 298.097 161.384 297.907 161.343 297.638C161.303 297.368 161.489 297.117 161.758 297.077C161.96 297.046 166.721 296.341 168.261 296.558C169.821 296.781 174.863 301.489 175.858 302.43C176.056 302.617 176.064 302.93 175.877 303.128C175.78 303.23 175.65 303.282 175.519 303.282Z" fill="#263238"/>
<path d="M164.011 309.954C160.326 309.955 157.164 309.645 156.908 309.619C156.657 309.594 156.466 309.382 156.464 309.13C156.464 309.113 156.438 307.455 155.187 306.562C153.601 305.429 154.997 301.912 155.539 300.707C155.208 300.184 154.71 298.95 155.432 296.882C155.576 296.471 155.869 296.174 156.281 296.022C157.863 295.435 161.139 297.147 164.135 298.895C164.416 299.06 164.631 299.187 164.756 299.253C164.879 299.271 164.996 299.337 165.077 299.444C165.218 299.632 165.213 299.91 165.057 300.086C164.771 300.408 164.597 300.308 163.637 299.748C162.238 298.932 157.981 296.448 156.622 296.947C156.487 296.997 156.409 297.075 156.363 297.207C155.609 299.369 156.425 300.264 156.46 300.302C156.6 300.449 156.642 300.676 156.555 300.86C155.772 302.505 154.979 305.2 155.76 305.758C156.979 306.628 157.319 307.974 157.414 308.673C159.573 308.858 169.711 309.595 173.725 307.59C173.968 307.468 174.265 307.568 174.387 307.811C174.509 308.055 174.41 308.352 174.166 308.473C171.811 309.652 167.655 309.954 164.011 309.954Z" fill="#263238"/>
<path d="M216.402 278.122C216.153 278.122 215.938 277.933 215.912 277.68C215.671 275.375 215.665 273.036 215.896 270.725C215.923 270.454 216.17 270.256 216.436 270.284C216.707 270.311 216.905 270.553 216.877 270.824C216.653 273.067 216.658 275.339 216.892 277.578C216.921 277.849 216.723 278.092 216.453 278.12C216.437 278.121 216.42 278.122 216.402 278.122Z" fill="#263238"/>
<path d="M186.99 318.178C186.928 318.178 186.866 318.167 186.806 318.142L178.946 314.98C178.693 314.878 178.571 314.591 178.672 314.338C178.774 314.085 179.063 313.965 179.314 314.064L187.174 317.226C187.427 317.328 187.549 317.615 187.448 317.868C187.37 318.061 187.186 318.178 186.99 318.178Z" fill="#263238"/>
<path d="M219.476 298.585C219.212 298.585 218.993 298.376 218.983 298.11C218.973 297.838 219.185 297.609 219.458 297.598C221.466 297.522 223.455 297.169 225.366 296.549C225.623 296.464 225.904 296.608 225.988 296.866C226.072 297.125 225.93 297.404 225.671 297.488C223.673 298.137 221.595 298.506 219.495 298.586C219.488 298.585 219.481 298.585 219.476 298.585Z" fill="#263238"/>
<path d="M187.824 340.332C187.762 340.332 187.699 340.32 187.638 340.295C187.385 340.193 187.264 339.906 187.366 339.653L192.148 327.843L189.236 311.869C189.187 311.601 189.365 311.344 189.633 311.295C189.902 311.254 190.158 311.424 190.207 311.692L193.145 327.808C193.162 327.902 193.152 327.997 193.116 328.085L193.006 328.353L188.281 340.023C188.203 340.216 188.018 340.332 187.824 340.332Z" fill="#263238"/>
<path d="M206.991 329.499C206.956 329.499 206.921 329.495 206.886 329.487C203.746 328.805 200.526 328.446 197.313 328.422C195.568 328.402 194.055 328.5 192.693 328.703C192.427 328.748 192.173 328.558 192.132 328.288C192.092 328.019 192.278 327.767 192.547 327.728C193.961 327.517 195.518 327.422 197.321 327.436C200.601 327.46 203.89 327.826 207.096 328.524C207.362 328.582 207.531 328.845 207.473 329.111C207.422 329.341 207.218 329.499 206.991 329.499Z" fill="#263238"/>
<path d="M129.117 347.159C127.775 347.159 126.714 347.076 126.216 346.917C126.104 346.88 125.763 346.772 125.649 346.456C125.505 346.056 125.268 345.401 135.658 338.555C133.769 338.663 131.489 338.632 130.9 337.935C130.715 337.716 130.656 337.443 130.734 337.166C130.985 336.274 132.827 335.479 136.97 333.881C139.101 333.06 141.305 332.21 142.175 331.582C145.322 329.315 152.315 331.769 152.611 331.874C152.868 331.965 153.002 332.247 152.911 332.504C152.819 332.759 152.536 332.897 152.281 332.803C152.213 332.78 145.479 330.419 142.753 332.383C141.779 333.085 139.616 333.918 137.326 334.802C135.288 335.587 132.258 336.756 131.74 337.356C132.329 337.666 134.857 337.695 137.503 337.411C137.721 337.386 137.943 337.521 138.021 337.736C138.098 337.951 138.017 338.191 137.825 338.315C133.141 341.367 128.129 344.856 126.861 346.064C129.004 346.427 137.581 346.004 140.044 344.292C144.313 341.328 153.954 337.107 154.362 336.929C154.615 336.82 154.903 336.935 155.012 337.183C155.121 337.433 155.007 337.724 154.758 337.833C154.659 337.876 144.796 342.195 140.607 345.104C138.549 346.532 132.786 347.159 129.117 347.159Z" fill="#263238"/>
<path d="M131.84 347.059C131.674 347.059 131.512 346.975 131.419 346.824C131.276 346.592 131.349 346.288 131.581 346.146L139.241 341.445C139.472 341.299 139.776 341.375 139.92 341.607C140.063 341.839 139.99 342.143 139.758 342.285L132.098 346.986C132.018 347.036 131.929 347.059 131.84 347.059Z" fill="#263238"/>
<path opacity="0.2" d="M176.828 267.785C176.828 267.785 182.048 274.165 183.519 281.52C184.99 288.875 187.336 301.398 187.336 301.398L179.192 301.995L176.828 267.785Z" fill="black"/>
<path d="M214.762 413.081C214.762 413.081 201.178 426.835 199.48 429.552C197.782 432.269 195.848 433.895 199.074 435.423C202.3 436.951 212.015 435.905 214.431 434.984C217.568 433.789 226.818 421.741 226.818 421.741L225.629 411.553L214.762 413.081Z" fill="white"/>
<path d="M204.558 437.08C199.872 437.08 197.163 435.84 196.619 433.394C195.852 429.944 211.462 415.989 213.244 414.41L213.445 414.232L213.703 414.304C214.098 414.414 214.491 414.532 214.894 414.654C217.43 415.419 220.304 416.29 226.553 415.842L227.046 415.807L227.08 416.301C227.238 418.648 227.524 420.253 227.527 420.269L227.555 420.425L227.487 420.568C227.211 421.15 220.639 434.832 212.004 436.332C209.141 436.833 206.652 437.08 204.558 437.08ZM213.698 415.328C206.666 421.582 197.131 431.143 197.584 433.181C198.217 436.033 203.413 436.826 211.837 435.362C219.528 434.024 225.816 421.731 226.531 420.285C226.46 419.855 226.268 418.605 226.133 416.861C220.041 417.233 217.161 416.368 214.612 415.599C214.302 415.506 214 415.415 213.698 415.328Z" fill="#263238"/>
<path d="M207.893 434.386C203.827 434.386 200.021 432.979 197.762 431.939C197.675 431.899 197.616 431.871 197.586 431.859L197.91 430.927C197.942 430.938 198.032 430.977 198.175 431.043C201.165 432.419 206.975 434.471 212.286 432.733C217.197 431.125 225.911 416.867 225.999 416.724L226.841 417.237C226.477 417.837 217.847 431.951 212.593 433.672C211.037 434.18 209.446 434.386 207.893 434.386Z" fill="#263238"/>
<path d="M209.818 393.952C209.818 393.952 175.272 421.938 161.062 421.938C161.062 421.938 153.332 419.176 150.49 408.163C147.648 397.15 158.306 381.163 158.306 381.163L186.87 343.065L188.743 340.505C188.743 340.505 218.154 351.198 237.611 336.516C237.611 336.516 239.66 360.558 234.686 370.505C229.713 380.452 209.818 393.952 209.818 393.952Z" fill="#263238"/>
<path d="M161.733 421.128C161.381 421.128 161.073 421.095 160.811 421.026C155.151 419.539 150.556 410.898 149.753 405.356C148.96 399.887 155.246 383.248 162.761 373.728C170.417 364.03 187.3 342.332 187.469 342.114L188.248 342.719C188.078 342.938 171.194 364.637 163.536 374.338C155.617 384.37 150.036 400.439 150.729 405.214C151.475 410.36 155.871 418.707 161.061 420.07C161.269 420.124 161.517 420.151 161.801 420.151C168.467 420.153 195.385 405.529 205.578 395.127L206.283 395.817C196.46 405.844 169.259 421.126 161.733 421.128Z" fill="#263238"/>
<path d="M175.927 395.31C175.791 395.31 175.654 395.253 175.557 395.143C175.377 394.939 175.396 394.626 175.601 394.446L209.661 364.415C208.403 360.391 206.185 356.12 203.394 352.352C203.232 352.133 203.278 351.824 203.497 351.662C203.717 351.5 204.025 351.546 204.188 351.764C207.115 355.715 209.428 360.214 210.699 364.432C210.755 364.617 210.698 364.817 210.553 364.945L176.254 395.186C176.159 395.27 176.043 395.31 175.927 395.31Z" fill="white"/>
<path d="M228.091 406.086C229.935 399.079 242.348 359.654 242.474 352.609C242.61 344.993 236.942 327.899 229.935 323.105C222.928 318.31 213.74 324.225 211.864 328.637C208.492 336.566 212.602 415.306 212.602 415.306C212.602 415.306 212.337 415.537 211.874 415.947C214.754 416.748 219.934 417.703 227.27 417.183C227.067 414.19 227.069 409.971 228.091 406.086Z" fill="#263238"/>
<path d="M211.839 383.154C211.587 383.154 211.373 382.962 211.348 382.706C211.173 380.806 207.102 336.055 211.351 327.175C211.468 326.929 211.763 326.825 212.009 326.943C212.255 327.06 212.359 327.356 212.241 327.601C208.108 336.237 212.288 382.152 212.331 382.615C212.356 382.887 212.157 383.127 211.885 383.152C211.87 383.152 211.854 383.154 211.839 383.154Z" fill="white"/>
<path d="M242.832 354.535C242.825 354.535 242.818 354.535 242.812 354.535C242.539 354.524 242.328 354.293 242.339 354.021C242.472 350.854 241.45 346.663 240.96 344.648L240.84 344.156C240.776 343.891 240.94 343.625 241.205 343.561C241.474 343.493 241.737 343.662 241.8 343.926L241.918 344.415C242.419 346.473 243.463 350.756 243.325 354.061C243.314 354.328 243.095 354.535 242.832 354.535Z" fill="white"/>
<path d="M240.258 340.794C240.051 340.794 239.858 340.662 239.79 340.455C237.146 332.419 233.817 327.149 233.784 327.097C233.638 326.868 233.705 326.562 233.935 326.416C234.163 326.271 234.469 326.337 234.616 326.567C234.65 326.62 238.041 331.985 240.726 340.146C240.812 340.405 240.671 340.684 240.412 340.769C240.361 340.786 240.309 340.794 240.258 340.794Z" fill="white"/>
<path d="M207.608 249.263L212.04 252.07C212.04 252.07 206.696 261.048 200.961 264.479L198.635 260.053L196.142 265.725L190.579 260.937L187.665 256.05L188.406 252.641C188.406 252.641 183.514 247.897 180.253 238.114C176.992 228.331 176.713 222.888 176.713 222.888C176.713 222.888 191.816 214.396 195.225 216.62C198.634 218.844 203.378 224.625 203.378 224.625L208.715 223.736C208.715 223.736 212.12 233.635 207.376 235.562L207.608 249.263Z" fill="white"/>
<path d="M195.23 220.205C192.585 219.449 189.779 220.866 187.748 222.722C185.717 224.578 184.128 226.902 181.95 228.582C183.832 234.66 186.134 240.609 188.834 246.37C189.555 247.908 190.35 249.49 191.702 250.516C193.934 252.21 197.193 251.929 199.649 250.58C202.105 249.231 203.982 247.776 205.755 245.606C205.755 245.606 201.594 259.819 198.595 259.602L193.026 255.415C193.026 255.415 189.056 253.079 186.954 251.211C184.852 249.343 180.531 238.249 179.364 235.329L176.211 223.301L192.443 216.645L195.23 220.205Z" fill="#70FE90"/>
<path opacity="0.5" d="M195.23 220.205C192.585 219.449 189.779 220.866 187.748 222.722C185.717 224.578 184.128 226.902 181.95 228.582C183.832 234.66 186.134 240.609 188.834 246.37C189.555 247.908 190.35 249.49 191.702 250.516C193.934 252.21 197.193 251.929 199.649 250.58C202.105 249.231 203.982 247.776 205.755 245.606C205.755 245.606 201.594 259.819 198.595 259.602L193.026 255.415C193.026 255.415 189.056 253.079 186.954 251.211C184.852 249.343 180.531 238.249 179.364 235.329L176.211 223.301L192.443 216.645L195.23 220.205Z" fill="white"/>
<path d="M205.773 236.302C205.271 236.302 204.744 236.219 204.194 236.051C203.933 235.971 203.786 235.695 203.865 235.435C203.945 235.175 204.221 235.027 204.481 235.106C205.531 235.426 206.455 235.375 207.231 234.955C208.17 234.446 208.899 233.374 209.34 231.855C209.974 229.673 209.641 226.621 208.626 225.323C208.292 224.896 207.916 224.689 207.507 224.713C205.893 224.776 204.664 228.466 204.361 229.754C204.298 230.019 204.03 230.187 203.768 230.121C203.502 230.059 203.338 229.793 203.4 229.528C203.537 228.945 204.814 223.831 207.469 223.726C208.207 223.702 208.877 224.04 209.405 224.716C210.627 226.277 211.023 229.604 210.29 232.13C209.774 233.908 208.879 235.184 207.703 235.821C207.111 236.143 206.467 236.302 205.773 236.302Z" fill="#263238"/>
<path d="M191.906 245.665C191.766 245.665 191.624 245.662 191.478 245.656C191.206 245.644 190.995 245.414 191.006 245.141C191.018 244.869 191.254 244.668 191.52 244.669C195.305 244.833 196.449 242.545 196.46 242.522C196.577 242.276 196.872 242.171 197.118 242.289C197.364 242.406 197.469 242.7 197.352 242.946C197.297 243.061 196.01 245.665 191.906 245.665Z" fill="#263238"/>
<path d="M189.95 242C188.99 242 188.031 241.729 187.217 241.213C186.973 241.06 186.626 240.809 186.431 240.421C186.135 239.834 186.289 239.19 186.402 238.72C186.726 237.372 187.007 235.928 186.872 234.505C186.732 233.022 186.111 231.734 185.168 230.971C184.956 230.8 184.923 230.489 185.095 230.277C185.266 230.065 185.576 230.031 185.789 230.204C186.937 231.133 187.691 232.666 187.855 234.413C188.003 235.979 187.706 237.519 187.362 238.95C187.281 239.289 187.179 239.712 187.312 239.976C187.398 240.147 187.6 240.287 187.745 240.379C188.628 240.939 189.723 241.142 190.743 240.935C191.01 240.881 191.27 241.054 191.324 241.321C191.377 241.588 191.205 241.848 190.937 241.902C190.612 241.969 190.281 242 189.95 242Z" fill="#263238"/>
<path d="M195.881 228.406C195.786 228.406 195.69 228.378 195.604 228.321C193.843 227.127 191.562 226.74 189.502 227.283C189.238 227.356 188.968 227.195 188.899 226.932C188.829 226.669 188.986 226.398 189.25 226.329C191.58 225.711 194.162 226.151 196.158 227.504C196.384 227.657 196.442 227.964 196.29 228.189C196.194 228.33 196.039 228.406 195.881 228.406Z" fill="#263238"/>
<path d="M178.454 231.753C178.369 231.753 178.283 231.731 178.204 231.685C177.969 231.547 177.891 231.245 178.03 231.009C178.608 230.028 179.574 229.316 180.683 229.056C181.792 228.792 182.975 229.004 183.929 229.626C184.157 229.775 184.222 230.081 184.072 230.309C183.924 230.537 183.619 230.601 183.389 230.453C182.671 229.985 181.744 229.824 180.908 230.016C180.073 230.213 179.315 230.771 178.88 231.51C178.788 231.666 178.623 231.753 178.454 231.753Z" fill="#263238"/>
<path d="M191.783 232.805C192.039 233.54 192.585 234.019 193.002 233.873C193.419 233.728 193.55 233.014 193.294 232.278C193.038 231.543 192.492 231.064 192.075 231.21C191.658 231.356 191.527 232.07 191.783 232.805Z" fill="#263238"/>
<path d="M183.118 235.242C183.378 235.988 183.931 236.473 184.355 236.325C184.778 236.178 184.911 235.453 184.651 234.708C184.391 233.962 183.837 233.477 183.414 233.624C182.99 233.772 182.858 234.496 183.118 235.242Z" fill="#263238"/>
<path d="M193.162 255.031C190.504 255.031 187.084 253.631 183.097 246.047C178.821 237.913 176.119 224.727 176.092 224.595C176.038 224.328 176.21 224.067 176.478 224.013C176.747 223.959 177.006 224.132 177.06 224.398C177.086 224.529 179.761 237.579 183.971 245.587C188.153 253.542 191.511 254.256 193.968 253.998C196.391 253.739 203.568 249.217 205.524 245.262L207.141 235.75C207.187 235.481 207.442 235.3 207.711 235.346C207.98 235.392 208.16 235.647 208.115 235.916L206.486 245.498C206.478 245.543 206.464 245.588 206.444 245.629C204.463 249.743 196.975 254.67 194.074 254.98C193.78 255.011 193.476 255.031 193.162 255.031Z" fill="#263238"/>
<path d="M207.339 249.851C207.087 249.851 206.872 249.659 206.848 249.403C206.425 244.834 206.576 239.642 207.25 235.514C207.294 235.245 207.544 235.057 207.817 235.107C208.086 235.15 208.268 235.405 208.225 235.674C207.562 239.724 207.415 244.822 207.831 249.312C207.856 249.583 207.657 249.824 207.385 249.849C207.369 249.85 207.354 249.851 207.339 249.851Z" fill="#263238"/>
<path d="M200.74 265.157L197.973 259.448L198.306 259.205C202.035 256.479 207.149 249.058 207.201 248.983L207.47 248.591L212.645 251.868L212.5 252.246C209.369 260.449 201.525 264.736 201.193 264.914L200.74 265.157ZM199.217 259.752L201.171 263.783C202.841 262.768 208.77 258.803 211.43 252.267L207.742 249.932C206.65 251.482 202.564 257.135 199.217 259.752Z" fill="#263238"/>
<path d="M196.385 266.44L195.891 266.151C195.629 265.998 189.447 262.329 187.269 256.728L187.229 256.625L187.542 252.08L188.527 252.147L188.228 256.471C189.97 260.821 194.421 264.019 195.902 264.991L197.947 259.894C196.941 259.469 194.619 258.182 191.891 254.626L192.675 254.025C196.018 258.385 198.69 259.117 198.716 259.125L199.259 259.266L196.385 266.44Z" fill="#263238"/>
<path d="M204.113 229.182C203.834 230.073 202.409 229.946 201.558 230.328C201.553 228.207 201.573 226.226 200.143 224.504C199.31 223.501 196.847 224.096 195.703 223.271C194.661 222.52 195.01 221.125 194.33 220.478C193.368 219.562 189.577 220.066 188.456 220.436C186.959 220.929 185.724 221.978 184.392 222.82C181.239 224.813 176.184 226.37 172.563 224.795C168.095 222.852 168.311 215.61 173.074 214.253C176.013 213.415 179.597 213.919 182.3 212.36C185.621 210.444 198.701 199.831 206.491 208.899C214.282 217.967 210.036 227.918 210.036 227.918C210.036 227.918 207.428 218.6 204.113 229.182Z" fill="#263238"/>
<path d="M172.12 224.438C171.861 224.438 171.644 224.237 171.628 223.974C171.611 223.702 171.818 223.468 172.09 223.452C175.623 223.235 178.683 221.051 181.642 218.94C182.643 218.226 183.678 217.488 184.721 216.831C186.608 215.644 188.632 214.669 190.737 213.936C192.733 213.24 194.391 212.915 195.951 212.915C195.957 212.915 195.964 212.915 195.97 212.915C200.265 212.924 204.415 215.699 206.063 219.663C206.167 219.916 206.048 220.204 205.796 220.309C205.547 220.412 205.256 220.294 205.151 220.043C203.652 216.436 199.875 213.911 195.968 213.902C194.522 213.86 192.958 214.206 191.061 214.867C189.026 215.577 187.07 216.519 185.246 217.666C184.228 218.307 183.205 219.037 182.215 219.743C179.142 221.936 175.964 224.203 172.15 224.438C172.14 224.438 172.13 224.438 172.12 224.438Z" fill="white"/>
<path d="M177.128 217.754C176.563 217.754 175.996 217.687 175.428 217.537C175.164 217.468 175.007 217.198 175.077 216.934C175.147 216.671 175.42 216.512 175.68 216.583C178.423 217.308 181.321 215.726 183.878 214.331C187.348 212.44 191.394 210.524 195.69 210.334C200.396 210.119 204.685 212.226 206.62 215.684C206.753 215.922 206.668 216.223 206.43 216.356C206.193 216.488 205.891 216.404 205.758 216.166C204.003 213.03 200.078 211.126 195.733 211.319C191.639 211.501 187.72 213.36 184.428 215.156C182.14 216.403 179.662 217.754 177.128 217.754Z" fill="white"/>
</g>
<defs>
<clipPath id="clip0_2059_1738">
<rect width="500" height="500" fill="white"/>
</clipPath>
</defs>
</svg>
