<svg width="500" height="500" viewBox="0 0 500 500" fill="none" xmlns="http://www.w3.org/2000/svg">
<path d="M151.287 181.564L149.991 181.014C151.155 178.262 151.825 175.98 152.038 174.037L153.437 174.19C153.209 176.273 152.505 178.683 151.287 181.564ZM150.734 165.434C148.002 159.432 142.924 155.647 136.047 154.488L136.281 153.1C143.639 154.34 149.08 158.405 152.015 164.852L150.734 165.434Z" fill="#27DEBF"/>
<path d="M143.362 195.726L129.509 202.033L128.878 200.647C127.805 198.29 127.201 196.254 127.066 194.541C126.931 192.827 127.117 191.122 127.619 189.425C128.123 187.73 129.526 184.509 131.825 179.765C133.063 177.264 133.378 175.347 132.77 174.01C132.162 172.674 131.293 171.815 130.166 171.432C129.039 171.051 127.673 171.224 126.069 171.955C124.343 172.74 123.176 173.961 122.566 175.618C121.956 177.276 122.139 179.597 123.119 182.585L108.179 187.274C106.296 181.852 106.281 176.805 108.131 172.135C109.98 167.464 114.306 163.58 121.111 160.482C126.41 158.07 131.19 157.229 135.454 157.957C141.238 158.932 145.263 161.913 147.532 166.893C148.472 168.96 148.809 171.213 148.54 173.653C148.271 176.093 147.006 179.5 144.744 183.875C143.174 186.937 142.335 189.204 142.229 190.676C142.122 192.147 142.499 193.83 143.362 195.726ZM130.713 205.93L145.549 199.176L151.506 212.262L136.67 219.017L130.713 205.93Z" fill="#27DEBF"/>
<path d="M109.089 227.034L102.042 236.6L101.086 235.896C99.4579 234.697 98.2723 233.539 97.5289 232.421C96.7855 231.303 96.2631 230.071 95.9618 228.723C95.6604 227.375 95.3915 224.646 95.1578 220.536C95.0508 218.361 94.5368 216.933 93.6132 216.253C92.6895 215.573 91.7715 215.317 90.8577 215.486C89.9439 215.655 89.0793 216.292 88.2627 217.399C87.3855 218.59 87.0532 219.867 87.2672 221.229C87.4812 222.591 88.4894 224.104 90.293 225.768L81.8885 234.646C78.5445 231.665 76.614 228.23 76.1001 224.342C75.5848 220.455 77.059 216.16 80.5199 211.462C83.2149 207.802 86.1548 205.411 89.3398 204.288C93.654 202.754 97.5317 203.254 100.972 205.789C102.399 206.84 103.483 208.248 104.23 210.014C104.975 211.78 105.407 214.585 105.528 218.427C105.622 221.112 105.912 222.976 106.398 224.02C106.881 225.064 107.779 226.07 109.089 227.034ZM104.342 238.801L111.891 228.555L120.929 235.212L113.38 245.458L104.342 238.801Z" fill="#27DEBF"/>
<path d="M258.969 414.166C256.684 414.166 254.478 412.921 253.356 410.751C247.697 399.821 240.589 386.995 227.794 373.112C226.297 371.49 225.758 369.203 226.369 367.083C231.12 350.593 238.578 328.054 238.653 327.828C239.75 324.514 243.323 322.723 246.634 323.818C249.945 324.914 251.741 328.487 250.644 331.799C250.575 332.007 244.151 351.424 239.488 367.219C251.248 380.558 258.498 393.209 264.573 404.946C266.177 408.042 264.966 411.854 261.868 413.458C260.939 413.939 259.948 414.166 258.969 414.166Z" fill="#27DEBF"/>
<path d="M269.49 419.237H220.508L246.466 404.514L268.227 405.356L269.49 419.237Z" fill="#263238"/>
<path d="M264.786 359.934C287.084 352.966 300.479 332.336 294.704 313.857C288.929 295.378 266.171 286.047 243.872 293.016C221.574 299.984 208.179 320.614 213.954 339.093C219.729 357.572 242.487 366.903 264.786 359.934Z" fill="#263238"/>
<path d="M142.897 303.418C140.419 303.419 138.066 301.951 137.06 299.518C135.725 296.295 137.255 292.6 140.477 291.265C144.145 289.746 144.656 285.995 144.659 285.957C144.923 283.134 147.037 280.833 149.826 280.332C151.331 280.06 152.786 279.635 154.468 279.142C163.026 276.643 173.623 273.542 207 282.89C239.922 264.479 240.296 229.953 240.296 228.463C240.295 224.982 243.109 222.148 246.59 222.135C246.597 222.135 246.604 222.135 246.613 222.135C250.083 222.135 252.905 224.926 252.928 228.4C252.94 230.234 252.735 273.573 210.628 295.279C209.193 296.019 207.533 296.185 205.981 295.733C174.167 286.546 165.209 289.163 158.012 291.267C157.375 291.452 156.728 291.643 156.069 291.824C154.511 295.833 151.267 300.467 145.311 302.935C144.522 303.264 143.703 303.418 142.897 303.418Z" fill="#263238"/>
<path d="M216.718 258.234C204.741 210.608 172.81 87.777 275.105 80.268C366.877 73.5306 392.065 195.684 398.187 238.004C401.755 262.668 402.955 285.037 403.163 302.518C403.432 325.068 387.59 344.513 365.491 349.001C315.491 359.156 268.174 360.601 236.306 348.023C227.689 344.621 222.478 335.84 223.306 326.614C224.534 312.932 224.556 289.404 216.718 258.234Z" fill="#27DEBF"/>
<path opacity="0.1" d="M398.184 237.999C392.415 198.119 369.712 87.2814 290.245 80.3511C280.997 79.5443 271.871 84.0965 267.612 92.3433C264.067 99.2088 264.181 107.537 269.492 115.767C287.006 142.929 328.775 236.803 322.468 287.956C319.595 311.231 304.998 329.814 317.701 355.978C333.035 354.711 349.114 352.331 365.49 348.994C387.596 344.517 403.436 325.072 403.169 302.515C402.957 285.042 401.761 262.668 398.184 237.999Z" fill="black"/>
<path d="M384.496 303.149C384.151 303.149 383.868 302.871 383.864 302.525C383.604 280.768 381.932 259.089 378.895 238.093C363.69 132.981 322.75 79.8199 260.484 84.4072C260.145 84.4481 259.834 84.1721 259.808 83.8243C259.783 83.4765 260.043 83.1724 260.393 83.1485C323.405 78.5006 364.83 132.039 380.145 237.913C383.191 258.963 384.868 280.699 385.128 302.512C385.133 302.86 384.852 303.146 384.505 303.15C384.502 303.149 384.499 303.149 384.496 303.149Z" fill="#263238"/>
<path d="M383.527 363.307C405.826 356.339 419.221 335.709 413.446 317.23C407.671 298.751 384.912 289.42 362.614 296.389C340.315 303.358 326.92 323.987 332.695 342.466C338.47 360.945 361.228 370.276 383.527 363.307Z" fill="#263238"/>
<path d="M387.392 414.167C385.107 414.167 382.9 412.922 381.778 410.752C376.121 399.822 369.011 386.997 356.217 373.113C354.721 371.489 354.182 369.204 354.793 367.084C359.544 350.594 367.002 328.054 367.077 327.829C368.174 324.516 371.742 322.715 375.057 323.819C378.369 324.914 380.164 328.488 379.068 331.8C378.999 332.008 372.575 351.425 367.912 367.22C379.672 380.558 386.921 393.209 392.996 404.947C394.599 408.043 393.389 411.855 390.291 413.458C389.362 413.94 388.37 414.167 387.392 414.167Z" fill="#27DEBF"/>
<path d="M374.129 221.647C371.856 221.647 369.661 220.418 368.53 218.266C366.913 215.182 368.094 211.372 371.171 209.746C372.388 209.098 399.887 194.068 407.607 157.973C389.274 150.306 356.323 132.997 349.118 124.297C348.42 123.454 347.954 122.446 347.763 121.367C347.594 120.417 346.41 112.948 349.173 105.876L345.847 99.4524C344.243 96.3548 345.454 92.5447 348.552 90.9395C351.65 89.34 355.461 90.5467 357.065 93.6443L361.849 102.885C362.873 104.861 362.78 107.229 361.607 109.12C360.096 111.556 359.909 115.121 360.032 117.444C368.146 124.774 400.921 142.145 416.954 148.097C419.767 149.14 421.457 152.02 420.998 154.985C413.856 201.122 378.56 220.136 377.06 220.922C376.123 221.414 375.119 221.647 374.129 221.647Z" fill="#263238"/>
<path d="M353.981 123.427C353.388 123.427 352.789 123.261 352.256 122.913C350.796 121.958 350.386 120.003 351.34 118.542C351.559 118.209 356.78 110.334 364.721 108.206C366.404 107.751 368.138 108.755 368.589 110.439C369.039 112.123 368.04 113.855 366.356 114.306C360.809 115.793 356.668 121.934 356.628 121.996C356.021 122.923 355.011 123.427 353.981 123.427Z" fill="#263238"/>
<path d="M397.914 419.237H348.93L374.888 404.514L396.651 405.356L397.914 419.237Z" fill="#263238"/>
<path d="M295.336 230.589C313.867 228.948 327.692 214.098 326.215 197.42C324.738 180.742 308.519 168.552 289.988 170.193C271.458 171.833 257.633 186.684 259.109 203.362C260.586 220.039 276.805 232.229 295.336 230.589Z" fill="white"/>
<path d="M293.339 200.821C295.888 209.764 293.967 218.148 289.052 219.549C284.135 220.95 278.085 214.837 275.536 205.894C272.987 196.952 274.908 188.567 279.823 187.166C284.739 185.765 290.792 191.879 293.339 200.821Z" fill="#263238"/>
<path d="M254.332 206.094C275.596 203.356 317.7 191.357 324.648 186.515C319.173 170.516 293.729 156.831 270.962 164.539C250.442 171.487 254.332 206.094 254.332 206.094Z" fill="#263238"/>
<path d="M258.47 216.372C284.859 211.357 319.175 202.936 328.989 197.54C328.384 214.757 323.385 232.199 296.437 238.094C274.42 242.911 258.47 216.372 258.47 216.372Z" fill="#263238"/>
<path d="M236.727 232.914C246.273 226.599 247.533 211.686 239.54 199.606C231.548 187.526 217.33 182.854 207.784 189.17C198.239 195.485 196.979 210.398 204.971 222.478C212.964 234.558 227.181 239.23 236.727 232.914Z" fill="white"/>
<path d="M222.71 211.472C224.311 219.014 222.928 225.307 219.622 225.527C216.314 225.745 212.335 219.809 210.733 212.264C209.132 204.722 210.513 198.429 213.821 198.209C217.128 197.991 221.109 203.927 222.71 211.472Z" fill="#263238"/>
<path d="M196.537 208.583C210.803 210.267 239.129 208.388 243.837 205.813C240.359 192.151 223.485 176.706 208.154 178.687C194.336 180.473 196.537 208.583 196.537 208.583Z" fill="#263238"/>
<path d="M199.187 217.473C216.911 218.279 239.981 217.826 246.615 215.331C246.009 228.857 242.459 241.763 224.351 241.551C209.555 241.377 199.187 217.473 199.187 217.473Z" fill="#263238"/>
<path d="M301.21 156.024C274.619 156.024 256.939 142.887 256.07 142.228C253.29 140.12 252.747 136.158 254.853 133.379C256.958 130.606 260.909 130.06 263.686 132.152C263.991 132.376 284.994 147.691 314.147 142.165C317.577 141.521 320.88 143.768 321.529 147.193C322.178 150.621 319.927 153.925 316.501 154.575C311.146 155.592 306.03 156.024 301.21 156.024Z" fill="#263238"/>
<path d="M188.271 145.135C187.561 145.136 186.84 145.015 186.135 144.761C182.853 143.582 181.148 139.964 182.326 136.682C185.675 127.362 191.227 121.311 198.828 118.696C212.609 113.95 227.449 123.178 228.075 123.573C231.024 125.436 231.904 129.338 230.042 132.286C228.182 135.228 224.293 136.113 221.346 134.263C218.47 132.474 209.555 128.342 202.9 130.653C199.066 131.985 196.225 135.356 194.214 140.951C193.289 143.531 190.86 145.135 188.271 145.135Z" fill="#263238"/>
<path d="M238.051 251.694C237.876 251.694 237.7 251.67 237.524 251.618C236.528 251.328 235.948 250.304 236.227 249.304C236.275 249.133 237.462 245.042 242.651 242.364C249.896 238.629 260.938 239.402 275.47 244.662C276.454 245.018 276.964 246.105 276.607 247.09C276.25 248.075 275.163 248.586 274.181 248.227C257.518 242.191 248.868 243.496 244.544 245.655C240.769 247.539 239.906 250.229 239.872 250.344C239.62 251.16 238.866 251.694 238.051 251.694Z" fill="#263238"/>
<path d="M178.42 244.758C141.669 248.058 115.36 263.275 115.36 263.275C126.243 261.219 165.141 309.355 175.142 346.481C193.59 339.639 215.105 334.981 238.05 331.343C224.153 293.077 198.74 249.731 178.42 244.758Z" fill="#27DEBF"/>
<path opacity="0.6" d="M178.42 244.758C141.669 248.058 115.36 263.275 115.36 263.275C126.243 261.219 165.141 309.355 175.142 346.481C193.59 339.639 215.105 334.981 238.05 331.343C224.153 293.077 198.74 249.731 178.42 244.758Z" fill="white"/>
<path d="M178.421 244.758C154.372 242.043 115.326 262.178 115.326 262.178C108.408 266.589 110.285 274.865 114.06 278.356C117.681 273.159 158.037 259.638 173.207 257.824C165.657 250.84 172.67 245.776 178.421 244.758Z" fill="#27DEBF"/>
<path opacity="0.2" d="M178.421 244.758C154.372 242.043 115.326 262.178 115.326 262.178C108.408 266.589 110.285 274.865 114.06 278.356C117.681 273.159 158.037 259.638 173.207 257.824C165.657 250.84 172.67 245.776 178.421 244.758Z" fill="white"/>
<path d="M142.902 303.418C140.839 303.418 138.819 302.408 137.607 300.553C133.026 293.535 135.887 282.825 136.507 280.751C137.505 277.409 141.022 275.509 144.367 276.508C147.705 277.504 149.604 281.016 148.613 284.355C147.581 287.889 147.371 292.404 148.184 293.65C150.09 296.571 149.268 300.485 146.346 302.391C145.282 303.086 144.085 303.418 142.902 303.418Z" fill="#263238"/>
</svg>
