<svg width="500" height="500" viewBox="0 0 500 500" fill="none" xmlns="http://www.w3.org/2000/svg">
<path d="M137.133 191.074L58.4325 236.475C56.9634 237.323 55.7715 239.387 55.7715 241.082V317.447C55.7715 319.144 56.9687 321.194 58.4466 322.029L64.6991 325.591C66.177 326.424 68.5661 326.413 70.0352 325.564L148.738 280.163C150.207 279.316 151.399 277.251 151.399 275.555V199.191C151.399 197.495 150.202 195.445 148.724 194.609L142.471 191.048C140.992 190.214 138.603 190.227 137.133 191.074Z" fill="#27DEBF"/>
<path d="M67.376 324.027V247.662C67.376 245.965 68.5679 243.903 70.037 243.054L148.738 197.655C150.207 196.807 151.399 197.494 151.399 199.191V275.554C151.399 277.251 150.209 279.313 148.738 280.162L70.0352 325.563C68.5678 326.411 67.376 325.724 67.376 324.027Z" fill="#27DEBF"/>
<path opacity="0.2" d="M70.0369 325.563C68.6208 326.385 66.034 326.415 64.6973 325.595L58.4501 322.023C56.9757 321.2 55.7715 319.149 55.7715 317.452V241.081C55.7715 240.197 56.1034 239.226 56.619 238.366L68.1617 245.046C67.6708 245.868 67.376 246.815 67.376 247.662V324.02C67.376 325.576 68.469 326.471 70.0369 325.563Z" fill="black"/>
<path opacity="0.5" d="M151.361 198.709C151.153 197.369 150.058 196.891 148.732 197.652L70.0399 243.056C69.3035 243.485 68.6396 244.211 68.1593 245.046L56.6025 238.366C57.0828 237.568 57.7202 236.879 58.4336 236.473L137.138 191.071C138.6 190.223 140.984 190.211 142.471 191.046L148.718 194.604C150.06 195.367 151.178 197.124 151.361 198.709Z" fill="white"/>
<path d="M55.7701 267.251L37.6836 286.378C36.5412 287.54 36.9367 289.269 38.088 290.017C38.5294 290.305 49.6289 296.759 49.6289 296.759L67.3764 274.043L55.7701 267.251Z" fill="#27DEBF"/>
<path opacity="0.1" d="M55.7701 267.251L37.6836 286.378C36.5412 287.54 36.9367 289.269 38.088 290.017C38.5294 290.305 49.6289 296.759 49.6289 296.759L67.3764 274.043L55.7701 267.251Z" fill="black"/>
<path d="M67.3762 274.043L49.2897 293.17C47.7094 294.776 49.0743 297.473 51.3044 297.149L67.3744 296.999C69.458 296.999 69.458 274.043 67.3762 274.043Z" fill="#27DEBF"/>
<path d="M130.742 237.116L94.408 258.093L130.419 226.663C131.485 225.732 132.202 223.838 132.02 222.432L131.302 217.283C131.12 215.876 130.108 215.491 129.043 216.422L87.5428 252.644C86.4763 253.575 85.7594 255.469 85.9413 256.875L86.6599 262.024C86.7253 262.525 86.8983 262.891 87.1385 263.118C86.7553 263.851 86.5169 264.693 86.5169 265.474V298.384C86.5169 299.945 87.4651 300.662 88.6358 299.985L130.742 275.675C131.912 275 132.861 273.187 132.861 271.628V238.718C132.861 237.158 131.912 236.442 130.742 237.116ZM116.699 235.493L119.462 227.947C119.776 227.12 120.463 226.075 120.997 225.61L126.486 220.818C127.02 220.354 127.196 220.645 126.882 221.47L124.118 229.017C123.804 229.841 123.117 230.888 122.584 231.353L117.094 236.143C116.561 236.611 116.384 236.32 116.699 235.493ZM103.435 247.071L106.2 239.525C106.514 238.7 107.201 237.653 107.734 237.188L113.224 232.398C113.757 231.932 113.934 232.225 113.619 233.05L110.854 240.596C110.54 241.421 109.853 242.468 109.32 242.932L103.83 247.725C103.295 248.189 103.118 247.898 103.435 247.071ZM90.1685 258.649L92.9319 251.103C93.2462 250.278 93.933 249.231 94.4663 248.766L99.956 243.974C100.489 243.51 100.666 243.801 100.352 244.626L97.5864 252.173C97.2721 252.997 96.5852 254.044 96.0519 254.509L90.5622 259.301C90.0308 259.767 89.8542 259.474 90.1685 258.649ZM100.717 259.163L97.7206 264.916C97.3339 265.73 96.5781 266.643 96.0343 266.957L90.4263 270.196C89.8824 270.51 89.7535 270.105 90.1402 269.291L93.1367 263.539C93.5234 262.726 94.2774 261.812 94.823 261.497L100.431 258.259C100.975 257.945 101.104 258.349 100.717 259.163ZM114.269 251.339L111.273 257.092C110.886 257.906 110.132 258.819 109.586 259.133L103.978 262.372C103.435 262.686 103.306 262.281 103.692 261.469L106.689 255.716C107.075 254.902 107.831 253.99 108.375 253.675L113.983 250.437C114.527 250.121 114.656 250.525 114.269 251.339ZM127.821 243.513L124.825 249.266C124.438 250.078 123.682 250.993 123.138 251.307L117.53 254.546C116.987 254.86 116.858 254.456 117.244 253.643L120.241 247.891C120.628 247.077 121.382 246.164 121.927 245.849L127.537 242.611C128.081 242.297 128.208 242.701 127.821 243.513Z" fill="#455A64"/>
<path d="M199.337 217.121C197.074 215.801 193.943 215.975 190.475 217.967C183.539 221.952 177.905 231.669 177.889 239.668C177.882 243.586 179.227 246.355 181.417 247.699C182.153 248.151 191.006 252.68 191.702 253.088C193.968 254.414 197.1 254.243 200.573 252.246C207.509 248.26 213.144 238.543 213.159 230.545C213.167 226.596 211.8 223.814 209.58 222.484C208.856 222.051 200.038 217.531 199.337 217.121Z" fill="#455A64"/>
<path d="M179.348 245.603C179.419 245.715 179.488 245.828 179.566 245.932C179.481 245.821 179.405 245.708 179.327 245.589L179.341 245.596C179.341 245.603 179.348 245.603 179.348 245.603Z" fill="#455A64"/>
<path d="M188.044 244.982C188.028 252.981 193.638 256.235 200.574 252.248C207.51 248.263 213.144 238.546 213.16 230.547C213.176 222.548 207.566 219.294 200.63 223.279C193.696 227.266 188.06 236.983 188.044 244.982Z" fill="#263238"/>
<path opacity="0.15" d="M191.404 252.92C191.362 252.899 191.319 252.871 191.279 252.85C191.243 252.829 191.215 252.815 191.18 252.793C191.116 252.758 191.047 252.723 190.97 252.68C190.92 252.645 190.865 252.617 190.802 252.583C190.684 252.52 190.556 252.451 190.424 252.38C190.164 252.234 189.878 252.073 189.576 251.911C188.582 251.365 183.52 248.879 182.658 248.402C182.392 248.248 182.155 248.114 181.957 248.01C181.712 247.87 181.523 247.757 181.419 247.696C181.138 247.528 180.873 247.332 180.628 247.115C180.509 247.016 180.396 246.905 180.285 246.793C180.096 246.611 179.921 246.408 179.768 246.198C179.69 246.108 179.628 246.024 179.565 245.932C179.487 245.828 179.418 245.714 179.347 245.603C179.347 245.603 179.34 245.603 179.34 245.596L179.326 245.589C178.41 244.106 177.884 242.111 177.891 239.667C177.898 237.006 178.521 234.158 179.612 231.393C179.752 231.036 179.9 230.686 180.054 230.342C180.167 230.082 180.278 229.825 180.403 229.572C180.523 229.313 180.649 229.062 180.774 228.809C180.774 228.802 180.774 228.795 180.781 228.788L190.878 234.228C189.114 237.728 188.049 241.516 188.042 244.982C188.035 247.39 188.538 249.364 189.435 250.848C189.968 251.716 190.625 252.408 191.404 252.92Z" fill="black"/>
<path d="M255.313 259.178C255.302 264.611 251.478 271.206 246.767 273.912C245.4 274.697 244.107 275.073 242.963 275.07C242.144 275.068 241.401 274.872 240.756 274.505L240.744 274.498C240.74 274.498 240.74 274.498 240.74 274.498L196.786 249.625L196.66 249.557C196.424 249.412 196.206 249.239 196.002 249.052C194.891 248.031 194.234 246.325 194.239 244.065C194.25 238.635 198.075 232.037 202.786 229.332C204.744 228.207 206.547 227.932 207.984 228.389C208.228 228.461 208.455 228.558 208.678 228.677L208.715 228.696L208.955 228.837L252.82 253.651V253.655C254.365 254.545 255.318 256.455 255.313 259.178Z" fill="#37474F"/>
<path opacity="0.15" d="M237.212 262.139C236.428 264.126 235.98 266.17 235.976 268.081C235.971 269.836 236.349 271.268 237.008 272.335L231.327 269.047L231.202 268.976C231.197 268.976 231.197 268.971 231.191 268.971L200.04 251.483L199.899 251.402L199.858 251.377C199.848 251.372 199.839 251.372 199.828 251.361L199.818 251.356L196.802 249.606C196.791 249.601 196.791 249.595 196.786 249.595L196.75 249.576C195.237 248.672 194.301 246.77 194.307 244.081C194.312 242.282 194.734 240.35 195.469 238.48L237.212 262.139Z" fill="black"/>
<path d="M390.346 208.089C390.346 207.487 389.947 206.883 389.151 206.424L286.672 147.258C285.08 146.338 282.496 146.338 280.904 147.258L216.313 184.55C215.516 185.011 215.117 185.613 215.117 186.217V211.217C215.117 211.819 215.516 212.423 216.313 212.882L318.793 272.048C320.386 272.968 322.969 272.968 324.562 272.048L389.152 234.756C389.949 234.295 390.348 233.693 390.348 233.089L390.346 221.566L390.8 221.304C390.512 220.835 390.367 220.27 390.348 219.625V208.089H390.346Z" fill="#37474F"/>
<path d="M216.312 187.881L318.79 247.047C320.383 247.967 322.966 247.967 324.559 247.047L389.15 209.755C390.743 208.835 390.743 207.343 389.15 206.424L286.672 147.258C285.079 146.338 282.496 146.338 280.901 147.258L216.31 184.55C214.719 185.469 214.719 186.961 216.312 187.881Z" fill="#455A64"/>
<path d="M318.797 247.045L216.306 187.885C215.52 187.419 215.119 186.819 215.119 186.22V211.218C215.119 211.818 215.518 212.417 216.306 212.883L318.797 272.042C319.582 272.509 320.635 272.735 321.675 272.735V247.737C320.636 247.737 319.582 247.511 318.797 247.045Z" fill="#263238"/>
<path d="M412.001 237.385V305.724C412.001 307.55 410.709 309.801 409.123 310.721L346.206 347.03C344.621 347.95 342.05 347.95 340.45 347.044L338.679 346.019L334.828 343.794V342.9L330.191 340.236L329.432 340.675H329.418L325.567 338.451L324.793 338.011C324.781 338.011 324.781 337.997 324.767 337.997L324.567 337.877C323.967 337.543 323.421 337.011 322.955 336.385C322.556 335.865 322.222 335.265 322.009 334.612C321.968 334.492 321.929 334.359 321.888 334.225C321.742 333.771 321.675 333.319 321.675 332.88V261.208L322.129 260.956L390.802 221.302C391.081 221.783 391.468 222.196 392.015 222.515L409.123 232.389C410.709 233.308 412.001 235.559 412.001 237.385Z" fill="#455A64"/>
<path d="M346.206 347.031C345.313 347.55 344.313 347.816 343.316 347.816C342.33 347.816 341.331 347.55 340.452 347.043L338.681 346.017L334.83 343.792V342.899L330.193 340.234L329.433 340.674H329.419L325.568 338.449L324.795 338.01C324.782 338.01 324.782 337.995 324.768 337.995C324.048 337.568 323.435 337.022 322.957 336.383C322.558 335.864 322.224 335.264 322.01 334.61C321.97 334.49 321.931 334.358 321.89 334.224C321.744 333.705 321.676 333.157 321.676 332.598L321.397 247.736L321.676 259.287C321.676 259.874 321.837 260.46 322.13 260.952C322.411 261.445 322.837 261.872 323.343 262.166L344.169 274.197C343.662 274.957 343.422 275.929 343.33 277.035V345.362L346.206 347.031Z" fill="#263238"/>
<path d="M229.9 280.094C228.307 279.174 227.015 276.937 227.015 275.097V250.304L327.092 308.083V336.206L229.9 280.094Z" fill="#263238"/>
<path d="M409.123 235.72L346.213 272.041C344.621 272.961 343.328 275.198 343.328 277.038V345.373C343.328 347.212 344.619 347.958 346.213 347.038L409.123 310.716C410.716 309.796 412.009 307.559 412.009 305.719V237.385C412.009 235.545 410.716 234.8 409.123 235.72Z" fill="#37474F"/>
<path d="M226.961 215.901C225.467 216.765 224.256 218.954 224.256 220.794V257.88C224.256 259.72 225.548 261.957 227.141 262.877L313.382 312.669C314.974 313.589 317.478 313.573 318.972 312.634C320.466 311.695 321.679 309.443 321.679 307.603V270.659C321.679 268.819 320.386 266.583 318.792 265.665L232.553 216.002C230.959 215.084 228.455 215.038 226.961 215.901Z" fill="#27DEBF"/>
<path opacity="0.2" d="M226.961 215.901C225.467 216.765 224.256 218.954 224.256 220.794V257.88C224.256 259.72 225.548 261.957 227.141 262.877L313.382 312.669C314.974 313.589 317.478 313.573 318.972 312.634C320.466 311.695 321.679 309.443 321.679 307.603V270.659C321.679 268.819 320.386 266.583 318.792 265.665L232.553 216.002C230.959 215.084 228.455 215.038 226.961 215.901Z" fill="black"/>
<path d="M227.139 219.129L313.389 268.921C314.981 269.841 316.274 272.078 316.272 273.918L316.265 311.004C316.265 312.844 314.973 313.589 313.38 312.669L227.139 262.877C225.546 261.957 224.254 259.719 224.254 257.88V220.794C224.254 218.954 225.546 218.209 227.139 219.129Z" fill="#27DEBF"/>
<path opacity="0.4" d="M227.139 219.129L313.389 268.921C314.981 269.841 316.274 272.078 316.272 273.918L316.265 311.004C316.265 312.844 314.973 313.589 313.38 312.669L227.139 262.877C225.546 261.957 224.254 259.719 224.254 257.88V220.794C224.254 218.954 225.546 218.209 227.139 219.129Z" fill="black"/>
<path opacity="0.15" d="M321.675 270.655V307.603C321.675 309.441 320.462 311.694 318.97 312.627C317.61 313.492 315.412 313.573 313.826 312.879C315.212 313.439 316.265 312.666 316.265 311L316.279 273.92C316.279 273 315.959 271.974 315.426 271.082V271.068L320.889 267.923C321.369 268.79 321.675 269.776 321.675 270.655Z" fill="black"/>
<path d="M258.459 243.461C263.341 246.279 277.176 254.267 282.056 257.085C283.011 257.638 283.783 258.98 283.776 260.083L283.764 262.315C283.757 263.419 282.978 263.865 282.021 263.315L258.457 249.709C257.502 249.157 256.727 247.815 256.727 246.711V244.46C256.727 243.356 257.504 242.91 258.459 243.461Z" fill="#E6E6E6"/>
<path d="M256.722 284.742C256.722 283.822 256.076 282.705 255.279 282.244L250.06 279.231C249.661 279.002 249.3 278.979 249.039 279.131C248.778 279.281 246.586 280.541 246.325 280.699C246.069 280.85 245.91 281.172 245.91 281.627V284.546C245.91 285.466 246.556 286.584 247.353 287.045L252.572 290.057C252.97 290.287 253.332 290.31 253.593 290.158C253.854 290.008 256.038 288.747 256.3 288.595C256.561 288.445 256.722 288.122 256.722 287.661V284.742Z" fill="#27DEBF"/>
<path d="M247.355 280.792L252.574 283.806C253.371 284.265 254.017 285.385 254.017 286.305V289.224C254.017 290.144 253.371 290.516 252.574 290.057L247.355 287.045C246.558 286.584 245.912 285.466 245.912 284.546V281.627C245.912 280.706 246.558 280.333 247.355 280.792Z" fill="#27DEBF"/>
<path opacity="0.15" d="M256.721 284.742V287.661C256.721 288.114 256.56 288.446 256.294 288.593C256.053 288.725 254.175 289.818 253.682 290.099C253.896 289.926 254.016 289.633 254.016 289.22V286.303C254.016 285.849 253.855 285.344 253.603 284.89L256.308 283.331C256.56 283.783 256.721 284.29 256.721 284.742Z" fill="black"/>
<path opacity="0.25" d="M256.307 283.33L253.602 284.889C253.35 284.435 252.975 284.036 252.576 283.81L247.353 280.799C246.981 280.586 246.647 280.547 246.395 280.653C246.861 280.386 248.792 279.267 249.047 279.134C249.299 278.975 249.659 279.002 250.058 279.228L255.282 282.238C255.681 282.477 256.041 282.878 256.307 283.33Z" fill="black"/>
<path d="M272.96 294.125C272.96 293.205 272.314 292.088 271.517 291.627L266.298 288.613C265.899 288.383 265.539 288.36 265.277 288.512C265.016 288.662 262.825 289.923 262.563 290.078C262.307 290.232 262.148 290.551 262.148 291.007V293.926C262.148 294.846 262.795 295.963 263.591 296.424L268.811 299.437C269.21 299.666 269.57 299.689 269.831 299.537C270.093 299.387 272.277 298.126 272.538 297.975C272.799 297.825 272.96 297.501 272.96 297.041V294.125Z" fill="#27DEBF"/>
<path d="M263.593 290.177L268.813 293.189C269.609 293.648 270.255 294.768 270.255 295.688V298.606C270.255 299.526 269.609 299.899 268.813 299.44L263.593 296.428C262.797 295.968 262.15 294.849 262.15 293.929V291.01C262.15 290.09 262.797 289.716 263.593 290.177Z" fill="#27DEBF"/>
<path opacity="0.15" d="M272.959 294.127V297.044C272.959 297.498 272.798 297.83 272.532 297.976C272.292 298.109 270.413 299.202 269.92 299.482C270.134 299.309 270.254 299.016 270.254 298.603V295.684C270.254 295.23 270.095 294.725 269.841 294.272L272.546 292.712C272.798 293.168 272.959 293.673 272.959 294.127Z" fill="black"/>
<path opacity="0.25" d="M272.546 292.714L269.841 294.273C269.588 293.82 269.214 293.421 268.815 293.195L263.592 290.184C263.219 289.97 262.885 289.931 262.633 290.037C263.099 289.771 265.031 288.651 265.285 288.519C265.537 288.358 265.898 288.385 266.297 288.612L271.52 291.623C271.919 291.861 272.279 292.262 272.546 292.714Z" fill="black"/>
<path d="M289.196 303.511C289.196 302.591 288.55 301.473 287.754 301.012L282.534 298C282.135 297.77 281.775 297.747 281.514 297.899C281.252 298.049 279.061 299.31 278.8 299.467C278.544 299.619 278.385 299.94 278.385 300.396V303.315C278.385 304.235 279.031 305.352 279.827 305.813L285.047 308.827C285.444 309.057 285.806 309.08 286.067 308.928C286.329 308.778 288.513 307.517 288.774 307.365C289.036 307.215 289.196 306.892 289.196 306.431V303.511Z" fill="#27DEBF"/>
<path d="M279.827 299.562L285.047 302.576C285.843 303.036 286.49 304.155 286.49 305.075V307.994C286.49 308.914 285.843 309.286 285.047 308.827L279.827 305.813C279.031 305.354 278.385 304.235 278.385 303.315V300.396C278.385 299.474 279.031 299.101 279.827 299.562Z" fill="#27DEBF"/>
<path opacity="0.15" d="M289.192 303.512V306.431C289.192 306.885 289.031 307.217 288.764 307.363C288.524 307.497 286.645 308.589 286.153 308.869C286.366 308.696 286.486 308.403 286.486 307.99V305.071C286.486 304.618 286.328 304.113 286.073 303.659L288.778 302.1C289.033 302.552 289.192 303.058 289.192 303.512Z" fill="black"/>
<path opacity="0.25" d="M288.78 302.1L286.075 303.659C285.822 303.205 285.448 302.806 285.049 302.58L279.826 299.569C279.453 299.356 279.12 299.317 278.867 299.423C279.333 299.156 281.265 298.037 281.519 297.904C281.772 297.743 282.132 297.77 282.531 297.998L287.754 301.008C288.155 301.247 288.513 301.646 288.78 302.1Z" fill="black"/>
<path d="M338.677 299.356V346.017L334.826 343.793V342.899L330.189 340.235L329.43 340.674H329.416L325.564 338.449V291.774C325.564 289.936 326.857 289.189 328.443 290.109L335.797 294.359C337.384 295.279 338.677 297.518 338.677 299.356Z" fill="#455A64"/>
<path d="M334.826 326.433V342.901L330.189 340.236L329.43 340.676H329.415V323.303C329.401 322.702 329.749 322.397 330.228 322.503C330.334 322.517 330.441 322.57 330.561 322.635L333.68 324.434C334.319 324.807 334.826 325.699 334.826 326.433Z" fill="#263238"/>
<path d="M334.826 326.433V342.9L330.189 340.236V322.863C330.189 322.728 330.204 322.61 330.23 322.502C330.336 322.517 330.444 322.57 330.564 322.635L333.682 324.434C334.32 324.807 334.826 325.698 334.826 326.433Z" fill="#37474F"/>
<path d="M331.77 325.897L331.174 326.241L331.204 326.293C331.136 326.402 331.098 326.547 331.098 326.725C331.098 327.311 331.509 328.025 332.018 328.318C332.171 328.408 332.318 328.447 332.445 328.443L332.475 328.494L333.072 328.15C333.238 328.055 333.34 327.848 333.34 327.555C333.34 326.969 332.929 326.255 332.42 325.962C332.168 325.814 331.936 325.802 331.77 325.897Z" fill="#27DEBF"/>
<path opacity="0.15" d="M331.77 325.897L331.174 326.241L331.204 326.293C331.136 326.402 331.098 326.547 331.098 326.725C331.098 327.311 331.509 328.025 332.018 328.318C332.171 328.408 332.318 328.447 332.445 328.443L332.475 328.494L333.072 328.15C333.238 328.055 333.34 327.848 333.34 327.555C333.34 326.969 332.929 326.255 332.42 325.962C332.168 325.814 331.936 325.802 331.77 325.897Z" fill="black"/>
<path d="M332.743 327.9C332.743 328.486 332.332 328.724 331.823 328.431C331.315 328.138 330.903 327.425 330.903 326.839C330.903 326.252 331.315 326.014 331.823 326.307C332.332 326.6 332.743 327.313 332.743 327.9Z" fill="#27DEBF"/>
<path d="M331.349 298.843L330.039 299.599L330.104 299.712C329.956 299.951 329.871 300.27 329.871 300.662C329.871 301.949 330.775 303.514 331.889 304.157C332.228 304.353 332.548 304.439 332.829 304.43L332.894 304.543L334.204 303.788C334.57 303.577 334.796 303.125 334.796 302.481C334.796 301.194 333.892 299.629 332.778 298.987C332.22 298.663 331.715 298.632 331.349 298.843Z" fill="#27DEBF"/>
<path opacity="0.15" d="M331.349 298.843L330.039 299.599L330.104 299.712C329.956 299.951 329.871 300.27 329.871 300.662C329.871 301.949 330.775 303.514 331.889 304.157C332.228 304.353 332.548 304.439 332.829 304.43L332.894 304.543L334.204 303.788C334.57 303.577 334.796 303.125 334.796 302.481C334.796 301.194 333.892 299.629 332.778 298.987C332.22 298.663 331.715 298.632 331.349 298.843Z" fill="black"/>
<path d="M333.484 303.236C333.484 304.524 332.58 305.045 331.466 304.402C330.351 303.759 329.447 302.193 329.447 300.907C329.447 299.62 330.351 299.099 331.466 299.742C332.58 300.385 333.484 301.949 333.484 303.236Z" fill="#27DEBF"/>
<path d="M331.77 332.217L331.174 332.561L331.204 332.612C331.136 332.722 331.098 332.866 331.098 333.045C331.098 333.631 331.509 334.344 332.018 334.637C332.171 334.726 332.318 334.766 332.445 334.763L332.475 334.814L333.072 334.47C333.238 334.374 333.34 334.168 333.34 333.875C333.34 333.288 332.929 332.575 332.42 332.282C332.168 332.134 331.936 332.119 331.77 332.217Z" fill="#27DEBF"/>
<path opacity="0.15" d="M331.77 332.217L331.174 332.561L331.204 332.612C331.136 332.722 331.098 332.866 331.098 333.045C331.098 333.631 331.509 334.344 332.018 334.637C332.171 334.726 332.318 334.766 332.445 334.763L332.475 334.814L333.072 334.47C333.238 334.374 333.34 334.168 333.34 333.875C333.34 333.288 332.929 332.575 332.42 332.282C332.168 332.134 331.936 332.119 331.77 332.217Z" fill="black"/>
<path d="M332.743 334.217C332.743 334.803 332.332 335.041 331.823 334.748C331.315 334.455 330.903 333.742 330.903 333.155C330.903 332.569 331.315 332.331 331.823 332.624C332.332 332.917 332.743 333.63 332.743 334.217Z" fill="#27DEBF"/>
<path d="M331.645 308.167L330.835 308.635L330.875 308.703C330.784 308.852 330.732 309.049 330.732 309.291C330.732 310.088 331.292 311.055 331.981 311.454C332.191 311.576 332.389 311.629 332.562 311.624L332.602 311.693L333.413 311.225C333.639 311.094 333.778 310.815 333.778 310.416C333.778 309.62 333.219 308.652 332.53 308.253C332.184 308.055 331.871 308.036 331.645 308.167Z" fill="#263238"/>
<path d="M332.966 310.884C332.966 311.68 332.406 312.003 331.717 311.604C331.027 311.207 330.469 310.238 330.469 309.441C330.469 308.645 331.028 308.322 331.717 308.721C332.406 309.12 332.966 310.089 332.966 310.884Z" fill="#37474F"/>
<path d="M331.645 314.999L330.835 315.467L330.875 315.535C330.784 315.684 330.732 315.882 330.732 316.123C330.732 316.92 331.292 317.887 331.981 318.286C332.191 318.408 332.389 318.461 332.562 318.456L332.602 318.525L333.413 318.057C333.639 317.926 333.778 317.647 333.778 317.248C333.778 316.452 333.219 315.484 332.53 315.085C332.184 314.887 331.871 314.868 331.645 314.999Z" fill="#263238"/>
<path d="M332.966 317.716C332.966 318.512 332.406 318.835 331.717 318.436C331.027 318.037 330.469 317.07 330.469 316.273C330.469 315.477 331.028 315.154 331.717 315.553C332.406 315.952 332.966 316.92 332.966 317.716Z" fill="#37474F"/>
<path d="M355.493 259.552C355.493 259.065 355.129 258.461 354.679 258.201L347.012 253.794C346.563 253.534 345.834 253.534 345.386 253.794L334.812 259.864C334.364 260.124 334.014 260.737 334.032 261.235C334.051 261.733 334.429 262.345 334.879 262.605L342.511 266.991C342.959 267.251 343.689 267.251 344.137 266.989L354.679 260.901C355.129 260.643 355.493 260.037 355.493 259.552Z" fill="#27DEBF"/>
<path opacity="0.2" d="M355.493 259.552C355.493 259.065 355.129 258.461 354.679 258.201L347.012 253.794C346.563 253.534 345.834 253.534 345.386 253.794L334.812 259.864C334.364 260.124 334.014 260.737 334.032 261.235C334.051 261.733 334.429 262.345 334.879 262.605L342.511 266.991C342.959 267.251 343.689 267.251 344.137 266.989L354.679 260.901C355.129 260.643 355.493 260.037 355.493 259.552Z" fill="white"/>
<path d="M354.68 259.14L344.105 265.213C343.657 265.472 342.928 265.472 342.479 265.213L334.814 260.804C334.365 260.544 334.365 260.124 334.814 259.864L345.387 253.794C345.836 253.534 346.565 253.534 347.013 253.794L354.68 258.201C355.129 258.461 355.129 258.881 354.68 259.14Z" fill="#27DEBF"/>
<path opacity="0.5" d="M354.68 259.14L344.105 265.213C343.657 265.472 342.928 265.472 342.479 265.213L334.814 260.804C334.365 260.544 334.365 260.124 334.814 259.864L345.387 253.794C345.836 253.534 346.565 253.534 347.013 253.794L354.68 258.201C355.129 258.461 355.129 258.881 354.68 259.14Z" fill="white"/>
<path opacity="0.15" d="M342.513 266.991L334.88 262.603C334.431 262.344 334.052 261.731 334.034 261.235C334.015 260.781 334.304 260.233 334.698 259.944C334.366 260.203 334.407 260.569 334.813 260.804L342.476 265.213C342.7 265.342 342.997 265.409 343.29 265.405L343.294 265.407L343.292 267.183C343.011 267.18 342.727 267.115 342.513 266.991Z" fill="black"/>
<path d="M351.985 256.054V258.022C351.985 258.39 351.727 258.838 351.407 259.022L343.532 263.569C343.213 263.752 342.697 263.752 342.377 263.569L338.118 261.109C337.801 260.925 337.541 260.502 337.541 260.163C337.541 259.823 337.799 259.4 338.118 259.216L342.377 256.756C342.695 256.573 343.151 256.198 343.391 255.921L346.135 252.766C346.377 252.489 346.831 252.413 347.148 252.596L351.407 255.054C351.727 255.24 351.985 255.686 351.985 256.054Z" fill="#27DEBF"/>
<path opacity="0.3" d="M351.985 256.054V258.022C351.985 258.39 351.727 258.838 351.407 259.022L343.532 263.569C343.213 263.752 342.697 263.752 342.377 263.569L338.118 261.109C337.801 260.925 337.541 260.502 337.541 260.163C337.541 259.823 337.799 259.4 338.118 259.216L342.377 256.756C342.695 256.573 343.151 256.198 343.391 255.921L346.135 252.766C346.377 252.489 346.831 252.413 347.148 252.596L351.407 255.054C351.727 255.24 351.985 255.686 351.985 256.054Z" fill="black"/>
<path d="M343.533 262.341L347.792 259.883C348.11 259.7 348.566 259.325 348.806 259.048L351.55 255.893C351.792 255.616 351.728 255.241 351.41 255.058L347.151 252.6C346.832 252.416 346.378 252.492 346.138 252.769L343.394 255.925C343.152 256.202 342.698 256.576 342.38 256.76L338.121 259.219C337.803 259.403 337.803 259.702 338.121 259.885L342.38 262.343C342.698 262.525 343.214 262.525 343.533 262.341Z" fill="#27DEBF"/>
<path opacity="0.15" d="M351.408 255.054L347.149 252.596C346.83 252.413 346.376 252.489 346.136 252.766L343.392 255.921C343.266 256.064 343.086 256.234 342.896 256.389L348.309 259.513C348.5 259.357 348.68 259.19 348.804 259.047L351.548 255.891C351.79 255.612 351.728 255.24 351.408 255.054Z" fill="black"/>
<path opacity="0.15" d="M342.895 262.472V263.698C342.707 263.684 342.522 263.657 342.375 263.565L338.125 261.113C337.806 260.926 337.539 260.5 337.539 260.166C337.539 259.859 337.753 259.501 338.019 259.313C337.806 259.472 337.846 259.727 338.125 259.886L342.375 262.336C342.522 262.418 342.709 262.472 342.895 262.472Z" fill="black"/>
<path opacity="0.05" d="M348.308 259.513L342.895 256.389C342.716 256.534 342.531 256.668 342.377 256.758L338.118 259.218C337.8 259.402 337.8 259.7 338.118 259.884L342.377 262.341C342.697 262.525 343.212 262.525 343.532 262.341L347.791 259.884C347.945 259.794 348.13 259.659 348.308 259.513Z" fill="black"/>
<path d="M314.458 230.649V229.275H314.785C315.12 228.65 315.713 228.061 316.572 227.566C319.39 225.938 323.959 225.938 326.779 227.566C327.638 228.061 328.231 228.65 328.566 229.275H328.895V230.649C328.895 231.716 328.19 232.782 326.781 233.596C323.963 235.224 319.391 235.224 316.573 233.596C315.164 232.782 314.458 231.716 314.458 230.649Z" fill="#263238"/>
<path d="M326.781 232.222C329.599 230.594 329.599 227.956 326.781 226.328C323.963 224.7 319.392 224.7 316.574 226.328C313.755 227.956 313.755 230.594 316.574 232.222C319.392 233.85 323.961 233.85 326.781 232.222Z" fill="#37474F"/>
<path d="M316.08 228.729V226.349H316.334C316.594 225.864 317.055 225.406 317.719 225.023C319.903 223.762 323.447 223.762 325.633 225.023C326.298 225.406 326.757 225.864 327.019 226.349H327.273V228.729C327.273 229.556 326.727 230.382 325.634 231.014C323.448 232.275 319.906 232.275 317.72 231.014C316.626 230.384 316.08 229.558 316.08 228.729Z" fill="#27DEBF"/>
<path opacity="0.15" d="M316.08 228.729V226.349H316.334C316.594 225.864 317.055 225.406 317.719 225.023C319.903 223.762 323.447 223.762 325.633 225.023C326.298 225.406 326.757 225.864 327.019 226.349H327.273V228.729C327.273 229.556 326.727 230.382 325.634 231.014C323.448 232.275 319.906 232.275 317.72 231.014C316.626 230.384 316.08 229.558 316.08 228.729Z" fill="black"/>
<path d="M325.632 228.634C327.817 227.371 327.817 225.327 325.632 224.064C323.446 222.803 319.904 222.803 317.718 224.064C315.534 225.327 315.534 227.371 317.718 228.634C319.904 229.896 323.446 229.896 325.632 228.634Z" fill="#27DEBF"/>
<path d="M342.7 222.482L336.784 225.895C336.189 226.233 335.227 226.233 334.63 225.895L328.726 222.482C328.131 222.134 328.131 221.58 328.726 221.241L334.63 217.826C335.225 217.478 336.188 217.478 336.784 217.826L342.7 221.241C343.295 221.578 343.295 222.134 342.7 222.482Z" fill="#263238"/>
<path d="M342.7 222.482L336.784 225.896C336.189 226.233 335.227 226.233 334.63 225.896L328.726 222.482L334.63 219.067C335.225 218.73 336.188 218.73 336.784 219.067L342.7 222.482Z" fill="#37474F"/>
<path d="M333.137 222.404V221.309H333.253C333.373 221.087 333.585 220.875 333.891 220.698C334.897 220.117 336.527 220.117 337.533 220.698C337.839 220.875 338.051 221.085 338.171 221.309H338.287V222.406C338.287 222.787 338.037 223.167 337.533 223.458C336.527 224.039 334.897 224.039 333.891 223.458C333.389 223.167 333.137 222.786 333.137 222.404Z" fill="#27DEBF"/>
<path opacity="0.15" d="M333.137 222.404V221.309H333.253C333.373 221.087 333.585 220.875 333.891 220.698C334.897 220.117 336.527 220.117 337.533 220.698C337.839 220.875 338.051 221.085 338.171 221.309H338.287V222.406C338.287 222.787 338.037 223.167 337.533 223.458C336.527 224.039 334.897 224.039 333.891 223.458C333.389 223.167 333.137 222.786 333.137 222.404Z" fill="black"/>
<path d="M337.536 222.361C338.543 221.781 338.543 220.839 337.536 220.258C336.53 219.678 334.9 219.678 333.894 220.258C332.887 220.839 332.887 221.781 333.894 222.361C334.898 222.942 336.53 222.942 337.536 222.361Z" fill="#27DEBF"/>
<path d="M354.338 215.763L348.423 219.178C347.828 219.516 346.864 219.516 346.269 219.178L340.364 215.763C339.769 215.415 339.769 214.861 340.364 214.522L346.269 211.107C346.864 210.759 347.828 210.759 348.423 211.107L354.338 214.522C354.933 214.859 354.933 215.415 354.338 215.763Z" fill="#263238"/>
<path d="M354.339 215.763L348.424 219.178C347.829 219.515 346.865 219.515 346.27 219.178L340.365 215.763L346.27 212.348C346.865 212.011 347.829 212.011 348.424 212.348L354.339 215.763Z" fill="#37474F"/>
<path d="M344.773 215.685V214.591H344.89C345.01 214.368 345.222 214.156 345.527 213.98C346.534 213.399 348.164 213.399 349.17 213.98C349.476 214.156 349.687 214.366 349.808 214.591H349.924V215.685C349.924 216.067 349.673 216.446 349.17 216.738C348.164 217.319 346.534 217.319 345.527 216.738C345.024 216.448 344.773 216.067 344.773 215.685Z" fill="#27DEBF"/>
<path opacity="0.15" d="M344.773 215.685V214.591H344.89C345.01 214.368 345.222 214.156 345.527 213.98C346.534 213.399 348.164 213.399 349.17 213.98C349.476 214.156 349.687 214.366 349.808 214.591H349.924V215.685C349.924 216.067 349.673 216.446 349.17 216.738C348.164 217.319 346.534 217.319 345.527 216.738C345.024 216.448 344.773 216.067 344.773 215.685Z" fill="black"/>
<path d="M349.171 215.643C350.177 215.062 350.177 214.121 349.171 213.54C348.165 212.959 346.535 212.959 345.528 213.54C344.522 214.121 344.522 215.062 345.528 215.643C346.535 216.222 348.166 216.222 349.171 215.643Z" fill="#27DEBF"/>
<path d="M404.054 268.635L404.043 268.624L403.356 268.229C399.32 266.099 393.832 266.512 387.782 269.986C375.3 277.165 365.163 294.644 365.135 309.042C365.13 311.699 365.469 314.074 366.111 316.126C366.975 318.867 368.355 321.031 370.151 322.569C370.594 322.944 371.059 323.279 371.543 323.572L371.573 323.592C371.603 323.613 371.624 323.622 371.654 323.632L371.755 323.694L372.127 323.906L387.279 332.685C386.654 332.3 386.078 331.845 385.534 331.349C382.589 328.645 380.85 324.125 380.862 318.134C380.891 303.747 391.028 286.257 403.51 279.088C408.699 276.107 413.479 275.38 417.286 276.589C417.932 276.782 418.538 277.036 419.124 277.35L404.054 268.635Z" fill="#27DEBF"/>
<path opacity="0.25" d="M404.054 268.635L404.043 268.624L403.356 268.229C399.32 266.099 393.832 266.512 387.782 269.986C375.3 277.165 365.163 294.644 365.135 309.042C365.13 311.699 365.469 314.074 366.111 316.126C366.975 318.867 368.355 321.031 370.151 322.569C370.594 322.944 371.059 323.279 371.543 323.572L371.573 323.592C371.603 323.613 371.624 323.622 371.654 323.632L371.755 323.694L372.127 323.906L387.279 332.685C386.654 332.3 386.078 331.845 385.534 331.349C382.589 328.645 380.85 324.125 380.862 318.134C380.891 303.747 391.028 286.257 403.51 279.088C408.699 276.107 413.479 275.38 417.286 276.589C417.932 276.782 418.538 277.036 419.124 277.35L404.054 268.635Z" fill="black"/>
<path d="M370.152 322.571C370.586 322.946 371.059 323.281 371.543 323.574L363.55 318.941C363.529 318.93 363.52 318.922 363.509 318.911L363.419 318.86C359.402 316.467 356.926 311.431 356.94 304.298C356.969 289.91 367.108 272.421 379.588 265.252C383.209 263.168 386.637 262.185 389.667 262.19C391.86 262.193 393.848 262.713 395.554 263.707L403.355 268.229C399.318 266.099 393.83 266.513 387.781 269.986C375.299 277.165 365.162 294.644 365.134 309.042C365.128 311.7 365.467 314.075 366.11 316.126C366.958 318.869 368.347 321.042 370.152 322.571Z" fill="#455A64"/>
<path d="M450.652 306.434C450.624 320.832 440.485 338.311 428.005 345.48C424.383 347.564 420.956 348.558 417.926 348.552C415.754 348.549 413.785 348.03 412.079 347.055L412.049 347.036C412.039 347.036 412.039 347.036 412.039 347.036L387.617 332.873L387.283 332.691C386.658 332.306 386.082 331.85 385.538 331.354C382.593 328.651 380.854 324.13 380.866 318.139C380.895 303.752 391.032 286.262 403.514 279.093C408.703 276.113 413.483 275.385 417.29 276.595C417.936 276.787 418.542 277.042 419.128 277.356L419.229 277.407L419.864 277.781L444.045 291.793V291.803C448.141 294.152 450.666 299.219 450.652 306.434Z" fill="#37474F"/>
<path d="M379.469 326.306C379.352 326.306 379.236 326.278 379.128 326.214L370.578 321.3C370.252 321.113 370.14 320.696 370.329 320.37C370.517 320.043 370.935 319.933 371.26 320.121L379.81 325.035C380.136 325.222 380.248 325.638 380.059 325.965C379.933 326.184 379.702 326.306 379.469 326.306Z" fill="#37474F"/>
<path d="M377.778 320.245C377.664 320.245 377.545 320.217 377.438 320.153L368.888 315.239C368.561 315.052 368.45 314.635 368.639 314.309C368.824 313.982 369.243 313.871 369.569 314.06L378.119 318.974C378.446 319.161 378.557 319.578 378.368 319.904C378.243 320.122 378.011 320.245 377.778 320.245Z" fill="#37474F"/>
<path d="M377.162 314.483C377.046 314.483 376.929 314.453 376.821 314.391L368.272 309.477C367.945 309.29 367.834 308.873 368.023 308.546C368.21 308.22 368.63 308.11 368.953 308.297L377.503 313.211C377.83 313.399 377.941 313.815 377.752 314.142C377.627 314.361 377.397 314.483 377.162 314.483Z" fill="#37474F"/>
<path d="M377.488 309.249C377.372 309.249 377.255 309.219 377.148 309.157L368.598 304.241C368.271 304.054 368.16 303.637 368.349 303.311C368.536 302.986 368.955 302.874 369.279 303.062L377.829 307.977C378.156 308.165 378.267 308.581 378.078 308.908C377.953 309.125 377.723 309.249 377.488 309.249Z" fill="#37474F"/>
<path d="M378.939 304.235C378.823 304.235 378.706 304.205 378.599 304.143L370.047 299.229C369.72 299.042 369.609 298.625 369.798 298.298C369.985 297.973 370.404 297.86 370.729 298.049L379.28 302.963C379.607 303.15 379.718 303.567 379.529 303.894C379.404 304.113 379.174 304.235 378.939 304.235Z" fill="#37474F"/>
<path d="M380.946 299.277C380.83 299.277 380.713 299.247 380.605 299.185L372.054 294.27C371.727 294.082 371.616 293.666 371.805 293.339C371.992 293.012 372.412 292.901 372.735 293.09L381.287 298.006C381.614 298.193 381.725 298.61 381.536 298.936C381.411 299.155 381.179 299.277 380.946 299.277Z" fill="#37474F"/>
<path d="M383.449 294.477C383.334 294.477 383.216 294.447 383.108 294.385L374.557 289.471C374.23 289.284 374.119 288.867 374.308 288.54C374.495 288.214 374.912 288.104 375.238 288.291L383.788 293.206C384.115 293.393 384.226 293.809 384.037 294.136C383.914 294.355 383.684 294.477 383.449 294.477Z" fill="#37474F"/>
<path d="M386.396 289.937C386.279 289.937 386.163 289.907 386.055 289.845L377.505 284.931C377.178 284.744 377.067 284.327 377.256 284.001C377.443 283.674 377.862 283.563 378.187 283.752L386.736 288.666C387.063 288.853 387.174 289.27 386.985 289.596C386.86 289.813 386.63 289.937 386.396 289.937Z" fill="#37474F"/>
<path d="M389.724 285.757C389.608 285.757 389.491 285.727 389.384 285.666L380.832 280.75C380.506 280.563 380.394 280.146 380.583 279.819C380.77 279.493 381.189 279.383 381.514 279.57L390.063 284.486C390.39 284.673 390.501 285.09 390.312 285.417C390.189 285.634 389.959 285.757 389.724 285.757Z" fill="#37474F"/>
<path d="M393.371 282.039C393.255 282.039 393.138 282.009 393.03 281.947L384.481 277.033C384.154 276.846 384.043 276.429 384.232 276.102C384.419 275.776 384.837 275.666 385.162 275.853L393.712 280.767C394.039 280.955 394.15 281.371 393.961 281.698C393.836 281.917 393.606 282.039 393.371 282.039Z" fill="#37474F"/>
<path d="M397.286 278.885C397.17 278.885 397.053 278.855 396.945 278.793L388.396 273.879C388.069 273.692 387.958 273.275 388.147 272.949C388.334 272.622 388.752 272.512 389.077 272.7L397.627 277.614C397.954 277.801 398.065 278.218 397.876 278.544C397.751 278.763 397.521 278.885 397.286 278.885Z" fill="#37474F"/>
<path d="M401.946 276.132C401.83 276.132 401.713 276.102 401.606 276.04L393.056 271.125C392.729 270.937 392.618 270.521 392.807 270.194C392.994 269.867 393.414 269.756 393.737 269.945L402.287 274.861C402.614 275.048 402.725 275.465 402.536 275.791C402.411 276.009 402.181 276.132 401.946 276.132Z" fill="#37474F"/>
<path d="M407.393 274.303C407.278 274.303 407.16 274.273 407.052 274.211L398.502 269.297C398.175 269.11 398.064 268.693 398.253 268.366C398.44 268.042 398.859 267.929 399.184 268.118L407.733 273.032C408.06 273.219 408.171 273.635 407.982 273.962C407.857 274.179 407.626 274.303 407.393 274.303Z" fill="#37474F"/>
<path opacity="0.15" d="M403.221 314.573C401.143 319.836 399.956 325.259 399.944 330.321C399.93 334.972 400.929 338.769 402.676 341.594L387.619 332.88L387.285 332.693C387.271 332.693 387.271 332.679 387.259 332.679L372.135 323.912L371.763 323.698L371.657 323.631C371.63 323.617 371.604 323.617 371.577 323.59L371.551 323.576L363.555 318.939C363.529 318.927 363.529 318.913 363.515 318.913L363.421 318.86C359.411 316.462 356.932 311.424 356.946 304.296C356.96 299.527 358.078 294.41 360.024 289.453L403.221 314.573Z" fill="black"/>
<path d="M442.233 283.068C437.347 280.22 430.595 280.595 423.11 284.896C408.145 293.497 395.985 314.463 395.951 331.724C395.935 340.178 398.84 346.153 403.563 349.051C405.154 350.027 415.793 355.796 417.296 356.675C422.183 359.536 428.942 359.167 436.436 354.86C451.401 346.259 463.562 325.294 463.595 308.033C463.611 299.511 460.66 293.509 455.872 290.638C454.311 289.701 443.745 283.95 442.233 283.068Z" fill="#455A64"/>
<path d="M399.096 344.527C399.248 344.769 399.398 345.011 399.564 345.237C399.382 344.995 399.216 344.753 399.05 344.497L399.08 344.513C399.08 344.527 399.096 344.527 399.096 344.527Z" fill="#455A64"/>
<path d="M409.401 339.18C409.368 356.442 421.472 363.461 436.437 354.86C451.401 346.259 463.562 325.294 463.596 308.033C463.629 290.771 451.525 283.752 436.56 292.353C421.596 300.954 409.437 321.918 409.401 339.18Z" fill="#37474F"/>
<path d="M424.356 351.871C416.852 351.855 416.057 343 416.064 339.193C416.095 324.338 427 305.533 439.879 298.129C443.061 296.302 446.091 295.337 448.641 295.343C456.145 295.357 456.94 304.214 456.933 308.021C456.903 322.876 445.997 341.681 433.118 349.083C429.936 350.913 426.906 351.877 424.356 351.871Z" fill="#263238"/>
<path d="M448.065 299.118C448.067 298.14 448.014 296.826 447.809 295.417C445.438 295.592 442.729 296.492 439.879 298.131C427 305.535 416.095 324.338 416.064 339.195C416.063 340.173 416.116 341.487 416.321 342.896C418.692 342.721 421.401 341.821 424.25 340.182C437.13 332.778 448.037 313.975 448.065 299.118Z" fill="#27DEBF"/>
<path opacity="0.3" d="M448.065 299.118C448.067 298.14 448.014 296.826 447.809 295.417C445.438 295.592 442.729 296.492 439.879 298.131C427 305.535 416.095 324.338 416.064 339.195C416.063 340.173 416.116 341.487 416.321 342.896C418.692 342.721 421.401 341.821 424.25 340.182C437.13 332.778 448.037 313.975 448.065 299.118Z" fill="black"/>
<path d="M432.907 306.472C437.991 300.329 444.55 298.291 445.569 300.571C446.588 302.852 443.353 325.025 421.908 338.047C421.908 338.047 433.513 328.044 439.158 315.444C442.461 308.068 439.458 302.022 432.907 306.472Z" fill="#E0E0E0"/>
<path opacity="0.15" d="M416.649 356.309C416.559 356.264 416.467 356.204 416.377 356.159C416.301 356.113 416.241 356.083 416.165 356.038C416.029 355.962 415.879 355.887 415.711 355.796C415.605 355.72 415.485 355.66 415.349 355.584C415.093 355.448 414.821 355.296 414.534 355.146C413.974 354.828 413.356 354.482 412.706 354.134C410.561 352.956 408.099 351.597 406.242 350.569C405.668 350.237 405.154 349.949 404.732 349.723C404.204 349.421 403.796 349.179 403.568 349.043C402.964 348.681 402.391 348.258 401.861 347.79C401.605 347.578 401.363 347.336 401.121 347.096C400.713 346.704 400.335 346.264 400.003 345.812C399.837 345.616 399.701 345.434 399.565 345.238C399.399 345.012 399.248 344.77 399.097 344.528C399.097 344.528 399.083 344.528 399.083 344.513L399.053 344.497C397.074 341.294 395.942 336.989 395.956 331.718C395.972 325.978 397.316 319.829 399.671 313.863C399.973 313.093 400.291 312.337 400.623 311.597C400.865 311.038 401.107 310.48 401.379 309.936C401.637 309.378 401.907 308.834 402.179 308.29C402.179 308.274 402.179 308.26 402.193 308.244L415.517 315.978C411.71 323.53 409.415 331.704 409.399 339.18C409.383 344.377 410.471 348.636 412.404 351.839C413.552 353.71 414.971 355.206 416.649 356.309Z" fill="black"/>
<path d="M295.387 174.671V172.759H295.842C296.31 171.889 297.135 171.068 298.33 170.377C302.255 168.11 308.621 168.11 312.546 170.377C313.742 171.068 314.566 171.889 315.034 172.759H315.49V174.673C315.49 176.158 314.508 177.643 312.546 178.777C308.621 181.044 302.255 181.044 298.33 178.777C296.368 177.643 295.387 176.156 295.387 174.671Z" fill="#263238"/>
<path d="M312.547 176.863C316.472 174.595 316.472 170.921 312.547 168.655C308.621 166.388 302.256 166.388 298.331 168.655C294.405 170.923 294.405 174.597 298.331 176.863C302.256 179.128 308.621 179.13 312.547 176.863Z" fill="#37474F"/>
<path d="M360.728 168.565L314.8 142.049C312.361 140.65 309.444 140.65 307.006 142.049C304.567 143.461 303.102 145.994 303.102 148.805V171.842V171.895C303.116 172.229 303.342 172.561 303.794 172.801C304.7 173.334 306.179 173.334 307.085 172.801C307.525 172.561 307.751 172.227 307.765 171.895V171.842V148.805C307.765 147.673 308.351 146.659 309.336 146.099C310.322 145.526 311.482 145.526 312.467 146.099L358.396 172.616C359.515 173.255 360.94 172.868 361.579 171.763C362.222 170.643 361.848 169.218 360.728 168.565Z" fill="#263238"/>
<path d="M423.511 201.845L423.514 201.839C420.65 196.897 367.973 162.97 354.297 155.053C352.9 154.157 350.93 154.228 348.739 155.492C344.506 157.936 341.075 163.879 341.075 168.765C341.075 171.292 341.997 173.035 343.47 173.796C357.249 181.736 411.68 210.711 419.102 210.377C422.091 210.377 424.514 207.954 424.514 204.965C424.512 203.801 424.136 202.728 423.511 201.845Z" fill="#27DEBF"/>
<path opacity="0.1" d="M424.266 206.492C422.733 208.655 420.018 209.766 411.512 206.067C403.602 202.625 357.62 175.781 341.338 166.329C341.17 167.155 341.071 167.976 341.071 168.767C341.071 171.294 341.993 173.037 343.466 173.798C357.246 181.738 411.676 210.712 419.098 210.379C421.554 210.377 423.604 208.731 424.266 206.492Z" fill="black"/>
<path d="M292.47 223.096C292.47 222.61 292.833 222.005 293.284 221.745L300.951 217.338C301.399 217.078 302.128 217.078 302.577 217.338L308.044 220.497C308.492 220.756 308.842 221.369 308.824 221.867C308.806 222.365 308.427 222.978 307.977 223.237L300.345 227.623C299.896 227.883 299.167 227.883 298.719 227.621L293.284 224.445C292.833 224.187 292.47 223.581 292.47 223.096Z" fill="#27DEBF"/>
<path opacity="0.2" d="M292.47 223.096C292.47 222.61 292.833 222.005 293.284 221.745L300.951 217.338C301.399 217.078 302.128 217.078 302.577 217.338L308.044 220.497C308.492 220.756 308.842 221.369 308.824 221.867C308.806 222.365 308.427 222.978 307.977 223.237L300.345 227.623C299.896 227.883 299.167 227.883 298.719 227.621L293.284 224.445C292.833 224.187 292.47 223.581 292.47 223.096Z" fill="white"/>
<path d="M293.284 222.684L298.752 225.845C299.201 226.105 299.93 226.105 300.378 225.845L308.044 221.436C308.492 221.176 308.492 220.756 308.044 220.497L302.577 217.338C302.128 217.078 301.399 217.078 300.951 217.338L293.284 221.745C292.835 222.005 292.835 222.425 293.284 222.684Z" fill="#27DEBF"/>
<path opacity="0.5" d="M293.284 222.684L298.752 225.845C299.201 226.105 299.93 226.105 300.378 225.845L308.044 221.436C308.492 221.176 308.492 220.756 308.044 220.497L302.577 217.338C302.128 217.078 301.399 217.078 300.951 217.338L293.284 221.745C292.835 222.005 292.835 222.425 293.284 222.684Z" fill="white"/>
<path opacity="0.15" d="M300.344 227.623L307.977 223.235C308.426 222.976 308.805 222.363 308.823 221.867C308.842 221.413 308.553 220.864 308.159 220.576C308.491 220.836 308.45 221.201 308.044 221.436L300.381 225.845C300.157 225.974 299.862 226.041 299.567 226.038L299.563 226.039L299.565 227.817C299.844 227.812 300.128 227.749 300.344 227.623Z" fill="black"/>
<path d="M243.636 195.045C243.636 194.559 243.999 193.953 244.45 193.694L252.117 189.286C252.565 189.027 253.294 189.027 253.743 189.286L259.21 192.445C259.658 192.705 260.008 193.318 259.99 193.816C259.971 194.314 259.593 194.926 259.143 195.186L251.511 199.572C251.063 199.832 250.333 199.832 249.885 199.572L244.45 196.395C243.999 196.136 243.636 195.53 243.636 195.045Z" fill="#27DEBF"/>
<path opacity="0.2" d="M243.636 195.045C243.636 194.559 243.999 193.953 244.45 193.694L252.117 189.286C252.565 189.027 253.294 189.027 253.743 189.286L259.21 192.445C259.658 192.705 260.008 193.318 259.99 193.816C259.971 194.314 259.593 194.926 259.143 195.186L251.511 199.572C251.063 199.832 250.333 199.832 249.885 199.572L244.45 196.395C243.999 196.136 243.636 195.53 243.636 195.045Z" fill="white"/>
<path d="M244.449 194.633L249.918 197.794C250.366 198.053 251.095 198.053 251.544 197.794L259.209 193.385C259.657 193.125 259.657 192.705 259.209 192.445L253.742 189.286C253.294 189.027 252.564 189.027 252.116 189.286L244.449 193.694C243.999 193.953 243.999 194.374 244.449 194.633Z" fill="#27DEBF"/>
<path opacity="0.5" d="M244.449 194.633L249.918 197.794C250.366 198.053 251.095 198.053 251.544 197.794L259.209 193.385C259.657 193.125 259.657 192.705 259.209 192.445L253.742 189.286C253.294 189.027 252.564 189.027 252.116 189.286L244.449 193.694C243.999 193.953 243.999 194.374 244.449 194.633Z" fill="white"/>
<path opacity="0.15" d="M251.509 199.572L259.142 195.184C259.591 194.925 259.97 194.312 259.988 193.816C260.008 193.362 259.718 192.814 259.324 192.525C259.656 192.784 259.616 193.15 259.209 193.385L251.546 197.794C251.322 197.923 251.025 197.99 250.732 197.986L250.729 197.988L250.73 199.764C251.011 199.761 251.295 199.697 251.509 199.572Z" fill="black"/>
<path d="M256.166 180.371V192.777L251.313 195.579V179.105C251.313 178.252 251.905 177.915 252.643 178.337L256.166 180.371Z" fill="black"/>
<path d="M304.659 200.938V221.024L300.027 223.704L296.909 221.9V205.425C296.909 204.581 296.31 203.545 295.579 203.121L257.55 181.173L252.643 178.339C251.905 177.917 251.314 178.254 251.314 179.107V195.581L248.188 193.777V173.7C248.188 173.615 248.196 173.523 248.211 173.439C248.312 172.648 248.865 171.772 249.525 171.396L251.499 170.252C252.228 169.83 253.419 169.83 254.157 170.252L303.331 198.636C304.067 199.065 304.659 200.094 304.659 200.938Z" fill="#37474F"/>
<path d="M300.027 203.619V223.704L296.909 221.9V205.425C296.909 204.581 296.31 203.545 295.579 203.121L257.55 181.173L252.643 178.339C251.905 177.917 251.314 178.254 251.314 179.107V195.581L248.188 193.777V173.7C248.188 173.615 248.196 173.524 248.211 173.439C248.326 172.785 248.872 172.556 249.525 172.932L298.698 201.316C299.427 201.745 300.027 202.775 300.027 203.619Z" fill="#263238"/>
</svg>
