<svg width="500" height="500" viewBox="0 0 500 500" fill="none" xmlns="http://www.w3.org/2000/svg">
<path d="M51.3662 311.883L57.3742 314.734C57.3742 314.734 59.7682 309.689 65.0532 312.086C67.7982 313.331 68.3632 315.784 68.2892 317.423C68.2022 319.326 67.1432 321.038 65.5522 322.086C63.7362 323.283 60.7782 323.75 57.0672 321.116L52.8842 329.933L58.8252 332.752L60.3462 329.547C60.3462 329.547 69.7002 331.346 74.0572 322.164C78.2252 313.378 71.3152 307.599 67.9422 305.999C65.3632 304.775 56.2822 301.23 51.3662 311.883Z" fill="#E0E0E0"/>
<path d="M57.8014 335.087L51.7715 332.226L49.0994 337.858L55.1294 340.719L57.8014 335.087Z" fill="#E0E0E0"/>
<path d="M109.709 409.362L116.495 411.281C116.495 411.281 118.107 405.583 124.057 407.156C127.147 407.973 128.172 410.438 128.383 412.165C128.628 414.17 127.823 416.148 126.345 417.524C124.657 419.096 121.647 420.108 117.302 418.008L114.485 427.966L121.195 429.864L122.219 426.244C122.219 426.244 132.318 426.473 135.252 416.101C138.059 406.178 129.811 401.356 126.002 400.279C123.09 399.456 112.967 397.354 109.709 409.362Z" fill="#E0E0E0"/>
<path d="M120.532 432.498L113.722 430.572L111.922 436.933L118.733 438.859L120.532 432.498Z" fill="#E0E0E0"/>
<path d="M394.301 195.278L400.805 195.399C403.547 198.478 407.147 200.863 411.387 202.133C423.58 205.787 436.426 198.865 440.08 186.673C443.734 174.48 436.812 161.634 424.619 157.98C412.426 154.326 399.58 161.248 395.926 173.44C394.4 178.531 394.724 183.734 396.5 188.336L396.492 188.326L394.301 195.278Z" fill="white"/>
<path d="M394.302 195.278C394.294 195.284 394.334 195.138 394.419 194.844C394.514 194.522 394.643 194.085 394.81 193.522C395.176 192.309 395.705 190.558 396.388 188.293C396.406 188.235 396.467 188.202 396.525 188.219C396.549 188.226 396.57 188.243 396.584 188.261L396.591 188.271L396.398 188.375C395.322 185.633 394.41 181.748 394.966 177.16C395.228 174.875 395.919 172.457 397.046 170.064C398.17 167.672 399.785 165.312 401.921 163.263C404.05 161.213 406.696 159.477 409.713 158.324C412.724 157.168 416.106 156.602 419.56 156.826C426.464 157.187 433.608 161.106 437.667 167.578C439.723 170.86 440.991 174.574 441.223 178.292C441.498 182.004 440.869 185.675 439.54 188.934C438.193 192.192 436.13 195.011 433.707 197.214C431.281 199.423 428.494 201.017 425.666 201.997C419.973 203.973 414.286 203.456 409.993 201.841C405.647 200.224 402.627 197.64 400.727 195.467L400.804 195.502C398.704 195.436 397.074 195.384 395.937 195.348C395.415 195.328 395.007 195.313 394.704 195.301C394.429 195.292 394.294 195.284 394.302 195.278C394.31 195.273 394.46 195.27 394.747 195.269C395.057 195.269 395.474 195.269 396.009 195.268C397.129 195.274 398.737 195.282 400.807 195.293C400.837 195.293 400.865 195.308 400.884 195.328C402.801 197.451 405.813 199.969 410.108 201.527C414.354 203.084 419.944 203.552 425.522 201.588C428.293 200.613 431.019 199.039 433.389 196.867C435.756 194.701 437.767 191.937 439.079 188.745C440.373 185.551 440.981 181.96 440.709 178.331C440.479 174.696 439.236 171.066 437.226 167.857C433.257 161.53 426.282 157.692 419.525 157.323C412.729 156.851 406.381 159.56 402.222 163.578C400.117 165.58 398.52 167.887 397.401 170.232C396.279 172.578 395.581 174.954 395.305 177.202C394.722 181.717 395.578 185.562 396.603 188.294C396.625 188.351 396.598 188.415 396.541 188.438C396.493 188.457 396.439 188.438 396.41 188.399L396.403 188.389L396.598 188.358C395.869 190.575 395.305 192.288 394.915 193.476C394.725 194.045 394.576 194.486 394.468 194.811C394.365 195.115 394.302 195.278 394.302 195.278Z" fill="#E0E0E0"/>
<path d="M410.359 176.894H414.433C414.433 176.894 414.433 173.473 417.988 173.412C419.834 173.38 420.791 174.589 421.18 175.516C421.632 176.592 421.495 177.818 420.89 178.815C420.199 179.954 418.685 180.99 415.939 180.506V186.484H419.967V184.311C419.967 184.311 425.617 182.851 425.617 176.625C425.617 170.668 420.275 169.285 417.988 169.285C416.239 169.284 410.283 169.707 410.359 176.894Z" fill="#E0E0E0"/>
<path d="M420.016 188.036H415.928V191.854H420.016V188.036Z" fill="#E0E0E0"/>
<path d="M413.225 307.215L425.712 308.561C425.712 308.561 426.842 298.077 437.758 299.063C443.427 299.575 445.961 303.598 446.847 306.567C447.876 310.014 447.051 313.727 444.867 316.584C442.373 319.848 437.389 322.521 429.134 320.131L427.159 338.455L439.506 339.786L440.224 333.125C440.224 333.125 458.023 330.515 460.081 311.432C462.049 293.173 446.132 287.166 439.123 286.411C433.763 285.833 415.364 285.161 413.225 307.215Z" fill="#EBEBEB"/>
<path d="M439.12 344.552L426.59 343.201L425.328 354.903L437.858 356.254L439.12 344.552Z" fill="#EBEBEB"/>
<path d="M49.2168 382.108L62.3398 380.693C62.3398 380.693 61.1518 369.674 72.5818 368.242C78.5178 367.498 82.0208 371.062 83.5958 373.911C85.4238 377.22 85.4098 381.217 83.8068 384.64C81.9768 388.55 77.4588 392.412 68.4458 391.807L70.5218 411.065L83.4988 409.666L82.7438 402.665C82.7438 402.665 100.436 395.998 98.2738 375.942C96.2048 356.752 78.5148 354.15 71.1488 354.944C65.5168 355.552 46.4738 358.982 49.2168 382.108Z" fill="#F5F5F5"/>
<path d="M84.1975 414.631L71.0283 416.051L72.3545 428.35L85.5237 426.93L84.1975 414.631Z" fill="#F5F5F5"/>
<path d="M437.833 254.053L447.156 251.332C447.156 251.332 444.871 243.505 452.965 240.99C457.168 239.684 460.167 241.812 461.675 243.672C463.427 245.832 463.933 248.729 463.215 251.416C462.395 254.485 459.621 257.866 453.015 258.593L457.008 272.274L466.226 269.583L464.774 264.61C464.774 264.61 476.727 257.494 472.568 243.246C468.589 229.614 455.439 230.016 450.207 231.543C446.206 232.71 432.856 237.657 437.833 254.053Z" fill="#F5F5F5"/>
<path d="M467.354 273.091L457.999 275.822L460.549 284.559L469.905 281.828L467.354 273.091Z" fill="#F5F5F5"/>
<path d="M468.292 478.852C468.292 478.996 370.552 479.112 250.011 479.112C129.428 479.112 31.709 478.995 31.709 478.852C31.709 478.708 129.428 478.592 250.011 478.592C370.551 478.592 468.292 478.708 468.292 478.852Z" fill="#263238"/>
<path d="M412.148 120.361C415.531 99.0139 400.968 78.967 379.621 75.5847C358.274 72.2023 338.227 86.7653 334.845 108.112C331.463 129.459 346.026 149.506 367.372 152.888C388.719 156.27 408.766 141.707 412.148 120.361Z" fill="white"/>
<path d="M412.621 114.241C412.621 114.241 412.592 114.026 412.562 113.608C412.534 113.171 412.494 112.554 412.442 111.751C412.417 111.341 412.39 110.885 412.36 110.383C412.307 109.882 412.2 109.339 412.112 108.749C412.018 108.158 411.917 107.523 411.809 106.845C411.728 106.161 411.473 105.466 411.297 104.712C410.608 101.69 409.193 98.1181 406.963 94.3331C404.714 90.5641 401.47 86.6261 397.052 83.2831C396.497 82.8701 395.936 82.4521 395.368 82.0291C394.776 81.6411 394.153 81.2861 393.537 80.9071C392.908 80.5501 392.312 80.1151 391.638 79.8091C390.971 79.4891 390.297 79.1661 389.617 78.8401C389.276 78.6781 388.933 78.5161 388.589 78.3531C388.231 78.2231 387.871 78.0921 387.509 77.9601C386.786 77.6971 386.055 77.4311 385.318 77.1621C384.574 76.9161 383.795 76.7581 383.025 76.5481C382.247 76.3721 381.481 76.0981 380.67 76.0151C379.061 75.7871 377.435 75.4551 375.75 75.4461C374.911 75.4171 374.066 75.3351 373.214 75.3491C372.362 75.3931 371.504 75.4381 370.639 75.4821C370.208 75.5121 369.771 75.5091 369.339 75.5661L368.042 75.7661C367.176 75.9101 366.296 76.0111 365.425 76.1911C363.708 76.6581 361.93 77.0071 360.239 77.7131C358.494 78.2711 356.854 79.1341 355.167 79.9421C354.346 80.3871 353.558 80.9061 352.745 81.3891C352.347 81.6441 351.922 81.8611 351.543 82.1481L350.398 83.0051C348.817 84.0901 347.435 85.4471 345.987 86.7541C344.679 88.2011 343.305 89.6181 342.177 91.2611L341.283 92.4571L340.5 93.7361L339.718 95.0241C339.446 95.4481 339.197 95.8861 338.994 96.3501C338.556 97.2601 338.116 98.1741 337.674 99.0921C337.324 100.048 336.972 101.008 336.619 101.971C335.351 105.873 334.669 110.018 334.613 114.236C334.669 118.455 335.349 122.601 336.617 126.505C336.97 127.469 337.321 128.429 337.672 129.385C338.114 130.303 338.554 131.217 338.992 132.128L339.324 132.808L339.716 133.454L340.498 134.742L341.281 136.022L342.175 137.219C343.303 138.862 344.677 140.28 345.985 141.727C347.433 143.034 348.815 144.392 350.396 145.477L351.541 146.335C351.92 146.623 352.345 146.84 352.743 147.095C353.556 147.577 354.344 148.096 355.165 148.542C356.852 149.351 358.493 150.213 360.238 150.772C361.929 151.479 363.708 151.827 365.425 152.295C366.296 152.475 367.176 152.577 368.042 152.72L369.339 152.92C369.771 152.977 370.207 152.974 370.639 153.004C371.504 153.049 372.362 153.093 373.214 153.137C374.066 153.15 374.912 153.068 375.75 153.039C377.435 153.03 379.061 152.698 380.671 152.47C381.483 152.387 382.248 152.113 383.027 151.937C383.797 151.728 384.576 151.57 385.32 151.323C386.057 151.054 386.787 150.788 387.511 150.525C387.873 150.393 388.233 150.262 388.591 150.132C388.935 149.969 389.278 149.806 389.619 149.645C390.3 149.319 390.974 148.996 391.641 148.676C392.315 148.37 392.911 147.936 393.54 147.578C394.156 147.198 394.78 146.844 395.371 146.456C395.939 146.033 396.5 145.615 397.055 145.202C401.473 141.859 404.717 137.921 406.965 134.151C409.195 130.365 410.61 126.795 411.298 123.773C411.474 123.019 411.728 122.324 411.809 121.64C411.917 120.962 412.018 120.327 412.112 119.736C412.2 119.146 412.307 118.603 412.36 118.102C412.39 117.6 412.417 117.144 412.442 116.734C412.494 115.931 412.533 115.314 412.562 114.877C412.592 114.456 412.621 114.241 412.621 114.241C412.621 114.241 412.628 114.456 412.616 114.875C412.6 115.313 412.577 115.932 412.548 116.738C412.531 117.149 412.512 117.607 412.491 118.111C412.446 118.614 412.347 119.16 412.267 119.754C412.18 120.348 412.087 120.987 411.987 121.67C411.913 122.359 411.666 123.059 411.497 123.819C410.834 126.864 409.44 130.469 407.217 134.297C404.976 138.109 401.725 142.098 397.28 145.491C396.721 145.91 396.156 146.335 395.585 146.764C394.99 147.158 394.362 147.519 393.741 147.905C393.108 148.269 392.507 148.709 391.827 149.021C391.154 149.347 390.475 149.675 389.788 150.008C389.444 150.172 389.098 150.338 388.751 150.504C388.39 150.637 388.026 150.771 387.661 150.905C386.931 151.173 386.194 151.445 385.449 151.718C384.698 151.969 383.911 152.132 383.133 152.346C382.347 152.527 381.573 152.805 380.753 152.892C379.127 153.128 377.483 153.467 375.779 153.481C374.931 153.513 374.076 153.597 373.214 153.586C372.352 153.543 371.484 153.501 370.609 153.458C370.172 153.429 369.731 153.432 369.294 153.375L367.981 153.176C367.104 153.033 366.213 152.931 365.331 152.751C363.592 152.283 361.791 151.932 360.077 151.22C358.31 150.657 356.646 149.788 354.937 148.97C354.105 148.52 353.306 147.997 352.482 147.509C352.079 147.251 351.648 147.032 351.264 146.741L350.103 145.874C348.501 144.776 347.098 143.405 345.631 142.081C344.303 140.617 342.911 139.182 341.766 137.519L340.859 136.307L340.065 135.011L339.272 133.707L338.874 133.053L338.537 132.364C338.092 131.442 337.646 130.515 337.198 129.585C336.843 128.616 336.486 127.643 336.127 126.667C334.841 122.712 334.15 118.509 334.094 114.234C334.15 109.961 334.843 105.76 336.129 101.806C336.487 100.83 336.844 99.8571 337.2 98.8891C337.648 97.9601 338.094 97.0341 338.539 96.1111C338.746 95.6411 338.998 95.1981 339.274 94.7681L340.067 93.4641L340.861 92.1691L341.767 90.9571C342.911 89.2941 344.304 87.8601 345.631 86.3961C347.098 85.0731 348.501 83.7011 350.102 82.6041L351.263 81.7381C351.647 81.4481 352.078 81.2281 352.481 80.9701C353.305 80.4821 354.103 79.9591 354.935 79.5091C356.644 78.6911 358.307 77.8231 360.074 77.2601C361.787 76.5491 363.588 76.1981 365.327 75.7291C366.208 75.5481 367.1 75.4471 367.976 75.3041L369.289 75.1051C369.726 75.0481 370.168 75.0521 370.604 75.0221C371.479 74.9791 372.347 74.9361 373.209 74.8941C374.071 74.8831 374.926 74.9671 375.774 74.9981C377.478 75.0121 379.122 75.3511 380.748 75.5871C381.568 75.6741 382.342 75.9521 383.128 76.1331C383.906 76.3471 384.693 76.5101 385.444 76.7611C386.188 77.0351 386.925 77.3061 387.656 77.5741C388.021 77.7081 388.384 77.8421 388.746 77.9751C389.094 78.1411 389.439 78.3061 389.783 78.4711C390.469 78.8031 391.149 79.1321 391.822 79.4581C392.502 79.7691 393.103 80.2101 393.736 80.5741C394.357 80.9601 394.985 81.3211 395.58 81.7151C396.152 82.1441 396.717 82.5691 397.275 82.9881C401.72 86.3811 404.971 90.3701 407.213 94.1821C409.437 98.0101 410.831 101.615 411.494 104.661C411.663 105.421 411.91 106.121 411.985 106.81C412.085 107.493 412.178 108.132 412.265 108.726C412.345 109.32 412.445 109.866 412.489 110.369C412.51 110.873 412.529 111.331 412.546 111.743C412.575 112.549 412.598 113.168 412.614 113.606C412.628 114.027 412.621 114.241 412.621 114.241Z" fill="#263238"/>
<path d="M359.566 107.534H367C367 107.534 367 101.291 373.487 101.18C376.856 101.122 378.603 103.329 379.313 105.02C380.137 106.983 379.888 109.221 378.783 111.041C377.522 113.12 374.759 115.01 369.748 114.127V125.037H377.1V121.071C377.1 121.071 387.411 118.406 387.411 107.043C387.411 96.171 377.661 93.646 373.488 93.646C370.297 93.646 359.425 94.417 359.566 107.534Z" fill="#27DEBF"/>
<path d="M377.189 127.869H369.728V134.837H377.189V127.869Z" fill="#27DEBF"/>
<path d="M355.058 166.455C358.44 166.455 361.182 163.713 361.182 160.331C361.182 156.949 358.44 154.207 355.058 154.207C351.675 154.207 348.934 156.949 348.934 160.331C348.934 163.713 351.675 166.455 355.058 166.455Z" fill="white"/>
<path d="M361.182 160.331C361.127 160.334 361.146 159.785 360.892 158.86C360.642 157.952 360.02 156.627 358.652 155.609C357.33 154.589 355.156 154.02 353.054 154.804C352.019 155.18 351.032 155.886 350.332 156.861C349.611 157.823 349.207 159.057 349.195 160.329C349.207 161.602 349.611 162.836 350.332 163.798C351.032 164.774 352.019 165.48 353.054 165.856C355.156 166.641 357.33 166.071 358.652 165.051C360.02 164.033 360.642 162.708 360.892 161.8C361.146 160.876 361.127 160.328 361.182 160.331C361.2 160.331 361.211 160.465 361.215 160.724C361.224 160.982 361.194 161.368 361.089 161.85C360.891 162.802 360.298 164.224 358.875 165.344C357.501 166.466 355.175 167.13 352.89 166.307C351.765 165.913 350.688 165.156 349.92 164.1C349.132 163.059 348.685 161.713 348.673 160.329C348.685 158.945 349.132 157.6 349.92 156.559C350.687 155.504 351.764 154.747 352.889 154.353C355.174 153.53 357.5 154.194 358.874 155.316C360.297 156.436 360.89 157.858 361.088 158.81C361.193 159.293 361.223 159.678 361.214 159.936C361.211 160.196 361.2 160.331 361.182 160.331Z" fill="#263238"/>
<path d="M362.955 296.683C373.133 331.215 375.515 367.763 369.39 403.277C368.634 407.663 370.56 412.164 375.152 413.425C379.123 414.516 384.539 412.078 385.3 407.663C391.936 369.187 389.914 329.784 378.865 292.297C375.87 282.134 359.942 286.46 362.955 296.683Z" fill="#263238"/>
<path d="M406.254 254.695C401.565 238.594 388.633 225.485 373.244 221.233C376.34 209.716 371.437 196.417 365.346 186.329C359.255 176.241 348.26 168.987 337.093 167.137C325.496 165.215 318.297 166.261 307.06 169.857C300.351 157.01 287.459 150.043 273.688 148.393C259.917 146.743 245.088 154.492 239.507 167.932C237.51 153.803 221.588 145.426 208.444 148.614C195.299 151.802 185.317 163.465 179.163 176.178L355.741 366.13C371.392 372.37 390.699 365.876 400.088 351.215C409.477 336.554 408.036 315.148 396.779 302.046C407.23 289.345 410.943 270.796 406.254 254.695Z" fill="#27DEBF"/>
<path d="M259.974 388.473L247.117 387.086L237.404 477.165L250.261 478.551L259.974 388.473Z" fill="#263238"/>
<path d="M280.369 478.586L293.226 477.199L283.513 387.121L270.656 388.507L280.369 478.586Z" fill="#263238"/>
<path d="M117.692 200.221C122.96 185.479 132.606 174.298 147.347 168.199C162.213 162.049 178.993 161.955 194.835 164.754C201.329 165.901 208.001 167.646 213.007 171.938C218.013 176.231 220.823 183.715 217.939 189.645C231.673 181.891 249.487 181.945 263.174 189.783C276.86 197.62 285.924 212.957 286.187 228.726C300.497 227.582 315.515 230.745 326.869 239.53C338.223 248.315 345.245 263.188 342.674 277.312C352.03 276.494 361.003 282.518 365.985 290.48C370.966 298.442 372.593 308.037 373.256 317.405C373.665 323.188 373.724 329.144 371.792 334.611C370.852 337.272 369.452 339.78 368.84 342.534C368.1 345.867 368.56 349.331 368.663 352.744C369.137 368.533 361.277 384.338 348.401 393.489C335.525 402.64 318.014 404.864 303.259 399.223C286.87 416.143 257.5 418.252 238.861 403.847C226.736 407.914 213.891 410.845 201.206 409.214C194.735 408.382 188.336 406.232 182.808 402.739C177.742 399.538 174.837 393.352 170.067 390.422C165.195 387.429 159.682 390.065 154.185 389.991C147.77 389.904 141.363 388.328 135.676 385.349C124.83 379.668 116.761 369.077 113.815 357.193C113.218 354.786 112.776 352.233 111.26 350.271C109.873 348.476 107.77 347.417 105.81 346.274C93.5941 339.148 84.7881 326.437 82.4091 312.495C80.0301 298.554 84.1221 283.642 93.2841 272.868C93.2841 272.868 84.0351 249.146 92.7371 227.901C101.442 206.657 117.692 200.221 117.692 200.221Z" fill="#27DEBF"/>
<g opacity="0.3">
<path d="M399.988 334.308C392.62 345.814 379.143 352.286 366.119 351.525C362.894 361.24 356.656 369.976 348.304 375.911C335.427 385.061 317.917 387.286 303.162 381.646C286.773 398.566 257.403 400.675 238.764 386.27C226.639 390.337 213.794 393.268 201.109 391.637C194.638 390.805 188.239 388.655 182.711 385.162C177.645 381.961 174.74 375.775 169.97 372.845C165.098 369.852 159.585 372.488 154.088 372.414C147.673 372.327 141.266 370.751 135.579 367.772C124.733 362.091 116.664 351.5 113.718 339.616C113.121 337.209 112.679 334.656 111.163 332.694C109.776 330.899 107.673 329.84 105.713 328.697C93.7269 321.705 85.0389 309.333 82.4689 295.701C81.4589 301.226 81.3669 306.915 82.3119 312.454C84.6909 326.395 93.4969 339.106 105.713 346.233C107.672 347.376 109.776 348.435 111.163 350.23C112.679 352.192 113.122 354.746 113.718 357.152C116.664 369.036 124.734 379.627 135.579 385.308C141.266 388.287 147.673 389.863 154.088 389.95C159.585 390.024 165.098 387.388 169.97 390.381C174.74 393.312 177.645 399.498 182.711 402.698C188.239 406.191 194.638 408.34 201.109 409.173C213.794 410.804 226.638 407.873 238.764 403.806C257.402 418.211 286.772 416.102 303.162 399.182C317.917 404.822 335.428 402.598 348.304 393.447C356.656 387.512 362.893 378.775 366.119 369.061C379.144 369.823 392.62 363.351 399.988 351.844C405.711 342.907 407.403 331.466 405.308 320.926C404.346 325.689 402.582 330.256 399.988 334.308Z" fill="black"/>
</g>
<path d="M186.626 305.236C186.61 305.245 186.475 305.061 186.231 304.702C185.975 304.352 185.663 303.793 185.162 303.142C184.219 301.8 182.717 299.946 180.587 297.936C178.463 295.923 175.639 293.821 172.18 292.086C168.731 290.347 164.617 289.043 160.178 288.602C155.733 288.214 151.448 288.734 147.736 289.804C144.015 290.869 140.851 292.412 138.392 293.998C135.926 295.579 134.107 297.123 132.932 298.267C132.319 298.814 131.909 299.305 131.593 299.602C131.287 299.909 131.12 300.065 131.106 300.053C131.092 300.041 131.233 299.862 131.515 299.532C131.807 299.211 132.195 298.696 132.79 298.123C133.928 296.928 135.726 295.326 138.192 293.689C140.652 292.047 143.839 290.449 147.603 289.343C151.358 288.232 155.708 287.688 160.227 288.083C164.739 288.531 168.912 289.871 172.396 291.657C175.891 293.44 178.726 295.6 180.84 297.669C182.961 299.735 184.431 301.641 185.328 303.027C185.806 303.7 186.093 304.279 186.32 304.648C186.536 305.025 186.642 305.227 186.626 305.236Z" fill="#263238"/>
<path d="M200.54 364.464C200.531 364.464 200.533 364.344 200.545 364.11C200.562 363.849 200.584 363.506 200.613 363.072C200.65 362.605 200.695 362.042 200.747 361.383C200.854 360.717 200.976 359.954 201.114 359.1C201.429 357.389 201.958 355.321 202.772 352.983C203.663 350.681 204.751 348.061 206.422 345.424C209.654 340.137 214.757 334.376 222.057 330.423C225.678 328.439 229.837 326.994 234.279 326.308C238.719 325.616 243.431 325.664 248.121 326.5C257.516 328.207 265.768 333.012 271.288 339.148C276.874 345.265 279.773 352.506 280.444 358.695C281.146 364.939 279.761 369.992 278.409 373.167C277.015 376.37 275.752 377.859 275.752 377.859C275.745 377.854 275.803 377.748 275.923 377.548C276.059 377.326 276.238 377.033 276.464 376.662C276.914 375.87 277.572 374.693 278.222 373.09C279.507 369.915 280.819 364.9 280.079 358.738C279.37 352.63 276.471 345.495 270.934 339.47C265.467 333.431 257.312 328.699 248.03 327.012C243.397 326.186 238.744 326.135 234.36 326.811C229.974 327.481 225.871 328.896 222.288 330.844C215.065 334.725 209.983 340.399 206.739 345.616C205.062 348.218 203.96 350.806 203.049 353.083C202.215 355.394 201.661 357.442 201.317 359.138C201.163 359.986 201.025 360.742 200.905 361.403C200.833 362.057 200.773 362.617 200.722 363.08C200.672 363.512 200.633 363.853 200.603 364.112C200.569 364.346 200.549 364.465 200.54 364.464Z" fill="#263238"/>
<path d="M330.215 375.898C330.223 375.914 330.074 375.997 329.782 376.141C329.486 376.273 329.066 376.515 328.483 376.722C327.339 377.191 325.608 377.713 323.406 378C321.208 378.293 318.526 378.269 315.647 377.649C312.774 377.037 309.721 375.765 306.99 373.727C304.286 371.651 302.233 369.056 300.865 366.457C299.487 363.854 298.737 361.279 298.423 359.084C298.102 356.887 298.134 355.079 298.276 353.851C298.316 353.234 298.436 352.764 298.482 352.443C298.541 352.123 298.581 351.957 298.598 351.961C298.746 351.963 298.059 354.693 298.786 359.025C299.141 361.177 299.915 363.693 301.287 366.23C302.65 368.764 304.668 371.288 307.304 373.312C309.967 375.299 312.942 376.556 315.751 377.181C318.565 377.814 321.196 377.876 323.364 377.634C327.731 377.158 330.172 375.756 330.215 375.898Z" fill="#263238"/>
<path d="M178.346 182.444C178.311 182.438 178.365 181.981 178.495 181.156C178.614 180.33 178.868 179.147 179.255 177.704C179.634 176.259 180.205 174.569 180.949 172.737C181.717 170.915 182.672 168.957 183.84 166.995C185.025 165.042 186.307 163.279 187.556 161.746C188.825 160.229 190.05 158.933 191.149 157.92C192.241 156.901 193.167 156.122 193.841 155.629C194.508 155.128 194.887 154.865 194.909 154.894C194.969 154.97 193.509 156.097 191.406 158.184C190.349 159.222 189.165 160.532 187.929 162.048C186.714 163.581 185.459 165.331 184.287 167.262C183.132 169.202 182.175 171.13 181.391 172.923C180.631 174.725 180.03 176.385 179.609 177.806C178.752 180.644 178.442 182.462 178.346 182.444Z" fill="#263238"/>
<path d="M139.279 197.764C139.253 197.867 137.482 197.351 134.548 197.042C133.083 196.876 131.324 196.824 129.38 196.903C127.437 197.017 125.309 197.282 123.119 197.786C120.934 198.315 118.912 199.03 117.123 199.798C115.348 200.598 113.799 201.431 112.563 202.235C110.077 203.825 108.724 205.078 108.655 204.997C108.631 204.97 108.958 204.649 109.575 204.089C109.879 203.804 110.262 203.467 110.738 203.115C111.21 202.758 111.729 202.324 112.362 201.928C113.587 201.076 115.138 200.197 116.928 199.361C118.732 198.558 120.782 197.817 123.001 197.28C125.225 196.768 127.389 196.513 129.361 196.425C131.335 196.372 133.116 196.464 134.593 196.678C135.336 196.749 135.995 196.905 136.576 197.013C137.159 197.115 137.652 197.245 138.052 197.364C138.852 197.588 139.289 197.729 139.279 197.764Z" fill="#263238"/>
<path d="M139.279 280.715C139.29 280.729 139.155 280.853 138.887 281.076C138.613 281.291 138.231 281.641 137.683 282.014C136.617 282.802 134.98 283.827 132.817 284.816C130.658 285.808 127.941 286.698 124.825 287.171C121.715 287.649 118.203 287.655 114.627 286.964C111.057 286.235 107.814 284.885 105.123 283.254C102.425 281.625 100.254 279.763 98.6394 278.021C97.0194 276.281 95.8984 274.707 95.2154 273.571C94.8514 273.017 94.6334 272.547 94.4624 272.244C94.3004 271.935 94.2224 271.77 94.2384 271.761C94.2784 271.738 94.6514 272.369 95.3854 273.461C96.1164 274.555 97.2714 276.079 98.9054 277.766C100.535 279.455 102.699 281.261 105.369 282.842C108.032 284.426 111.224 285.737 114.729 286.453C118.24 287.131 121.69 287.14 124.756 286.696C127.827 286.256 130.517 285.416 132.669 284.479C134.824 283.546 136.475 282.579 137.569 281.847C138.665 281.119 139.25 280.678 139.279 280.715Z" fill="#263238"/>
<path d="M114.749 327.573C114.844 327.613 114.059 329.353 113.238 332.302C112.818 333.773 112.444 335.559 112.151 337.558C111.89 339.561 111.728 341.78 111.768 344.112C111.831 346.444 112.091 348.654 112.44 350.644C112.821 352.628 113.274 354.395 113.758 355.847C114.709 358.757 115.569 360.461 115.476 360.505C115.444 360.521 115.214 360.104 114.826 359.334C114.626 358.951 114.396 358.476 114.169 357.906C113.937 357.339 113.646 356.702 113.41 355.966C112.876 354.516 112.38 352.738 111.969 350.734C111.589 348.725 111.311 346.486 111.247 344.124C111.206 341.762 111.385 339.514 111.676 337.49C111.999 335.47 112.416 333.673 112.885 332.2C113.088 331.454 113.352 330.805 113.558 330.228C113.759 329.649 113.968 329.164 114.151 328.772C114.506 327.985 114.717 327.558 114.749 327.573Z" fill="#263238"/>
<path d="M179.593 399.6C179.578 399.61 179.431 399.43 179.165 399.076C178.903 398.719 178.501 398.203 178.029 397.506C177.064 396.127 175.731 394.082 174.29 391.434C172.846 388.79 171.346 385.505 170.178 381.683C169.614 379.768 169.127 377.724 168.789 375.574C168.472 373.422 168.306 371.17 168.315 368.864C168.367 359.609 170.929 351.455 173.548 346.051C174.848 343.329 176.105 341.232 177.042 339.833C177.494 339.123 177.899 338.607 178.154 338.245C178.416 337.888 178.561 337.706 178.576 337.716C178.591 337.726 178.475 337.929 178.241 338.304C178.014 338.684 177.638 339.217 177.214 339.942C176.332 341.369 175.132 343.483 173.883 346.206C171.366 351.615 168.888 359.704 168.837 368.867C168.829 371.147 168.989 373.37 169.295 375.498C169.622 377.623 170.093 379.646 170.639 381.546C171.771 385.336 173.223 388.611 174.617 391.262C176.008 393.917 177.288 395.984 178.199 397.394C178.633 398.062 178.982 398.601 179.252 399.017C179.489 399.388 179.607 399.589 179.593 399.6Z" fill="#263238"/>
<path d="M169.528 357.291C169.539 357.313 169.165 357.533 168.408 357.703C167.656 357.878 166.507 357.921 165.154 357.626C163.796 357.345 162.272 356.709 160.672 355.86C159.072 355.005 157.411 353.873 155.848 352.477C152.698 349.687 150.652 346.394 149.544 343.901C148.997 342.644 148.647 341.592 148.446 340.855C148.258 340.113 148.172 339.701 148.207 339.692C148.305 339.663 148.705 341.309 149.878 343.745C151.056 346.164 153.109 349.354 156.195 352.088C157.727 353.457 159.345 354.577 160.902 355.439C162.462 356.296 163.937 356.952 165.239 357.268C167.872 357.964 169.524 357.189 169.528 357.291Z" fill="#263238"/>
<path d="M241.938 405.47C241.919 405.501 241.594 405.332 241.02 404.998C240.443 404.671 239.638 404.146 238.674 403.454C236.748 402.071 234.237 399.911 231.936 397.095C229.642 394.272 228.034 391.376 227.069 389.21C226.586 388.126 226.234 387.232 226.031 386.6C225.821 385.971 225.721 385.618 225.754 385.606C225.838 385.575 226.358 386.943 227.402 389.052C228.444 391.159 230.079 393.982 232.34 396.766C234.608 399.542 237.043 401.714 238.896 403.16C240.751 404.608 241.986 405.394 241.938 405.47Z" fill="#263238"/>
<path d="M309.053 374.298C309.089 374.298 309.124 374.674 309.157 375.356C309.192 376.037 309.213 377.024 309.21 378.245C309.191 380.68 309.076 384.081 308.244 387.742C307.414 391.408 305.888 394.496 304.579 396.558C303.909 397.584 303.34 398.394 302.9 398.918C302.472 399.451 302.222 399.734 302.194 399.712C302.116 399.654 303.034 398.454 304.265 396.367C305.48 394.277 306.921 391.229 307.738 387.625C308.557 384.026 308.731 380.661 308.844 378.236C308.94 375.806 308.974 374.298 309.053 374.298Z" fill="#263238"/>
<path d="M351.377 322.596C351.386 322.58 351.547 322.657 351.847 322.818C352.144 322.984 352.594 323.213 353.142 323.558C354.227 324.261 355.77 325.357 357.392 327.028C359.009 328.694 360.688 330.939 362.068 333.689C362.758 335.063 363.367 336.56 363.916 338.138C364.439 339.725 364.891 341.396 365.26 343.127C366.688 350.08 366.616 356.53 366.484 361.134C366.406 363.443 366.29 365.308 366.206 366.596C366.162 367.19 366.125 367.68 366.095 368.078C366.064 368.417 366.041 368.594 366.023 368.594C366.005 368.593 365.994 368.414 365.99 368.074C365.993 367.675 365.998 367.183 366.003 366.587C366.031 365.22 366.069 363.372 366.114 361.125C366.152 356.528 366.162 350.112 364.748 343.233C364.382 341.52 363.94 339.868 363.431 338.299C362.895 336.74 362.305 335.261 361.637 333.902C360.302 331.182 358.683 328.956 357.124 327.281C355.561 325.603 354.071 324.476 353.029 323.727C351.961 323.014 351.356 322.633 351.377 322.596Z" fill="#263238"/>
<path d="M339.689 333.683C339.668 333.654 340.035 333.341 340.715 332.802C341.4 332.27 342.37 331.472 343.54 330.459C345.884 328.437 348.96 325.445 351.907 321.754C354.847 318.055 357.075 314.388 358.521 311.65C359.247 310.282 359.807 309.159 360.172 308.373C360.545 307.59 360.768 307.162 360.801 307.176C360.834 307.19 360.675 307.643 360.357 308.454C360.047 309.268 359.536 310.421 358.848 311.818C357.478 314.614 355.279 318.347 352.314 322.078C349.341 325.801 346.196 328.779 343.777 330.74C342.569 331.723 341.559 332.48 340.835 332.964C340.116 333.456 339.71 333.712 339.689 333.683Z" fill="#263238"/>
<path d="M333.671 197.106C333.687 197.099 333.762 197.228 333.891 197.483C334.013 197.74 334.214 198.112 334.416 198.615C334.848 199.609 335.384 201.09 335.85 202.976C336.797 206.721 337.253 212.246 335.751 218.027C334.248 223.81 331.159 228.413 328.509 231.224C327.184 232.645 325.995 233.677 325.133 234.335C324.712 234.676 324.356 234.903 324.124 235.068C323.888 235.228 323.759 235.305 323.749 235.29C323.724 235.256 324.19 234.881 325.005 234.178C325.821 233.477 326.962 232.412 328.236 230.977C330.787 228.135 333.771 223.579 335.247 217.896C336.723 212.216 336.336 206.784 335.492 203.059C335.078 201.185 334.6 199.699 334.228 198.689C333.857 197.678 333.632 197.123 333.671 197.106Z" fill="#263238"/>
<path d="M351.378 206.969C351.376 207.06 350.382 207.041 348.814 207.271C347.248 207.496 345.112 208.051 342.963 209.149C340.818 210.256 339.122 211.669 338.027 212.81C336.926 213.95 336.363 214.768 336.288 214.717C336.243 214.69 336.7 213.792 337.756 212.561C338.804 211.331 340.516 209.825 342.726 208.685C344.939 207.554 347.16 207.04 348.77 206.905C350.385 206.764 351.383 206.916 351.378 206.969Z" fill="#263238"/>
<path d="M383.645 315.796C383.628 315.79 383.695 315.546 383.837 315.087C383.967 314.625 384.225 313.965 384.454 313.085C384.97 311.342 385.583 308.774 385.977 305.552C386.372 302.332 386.488 298.442 385.956 294.184C385.45 289.931 384.264 285.312 382.202 280.817C381.16 278.575 379.955 276.477 378.652 274.543C377.324 272.625 375.895 270.883 374.443 269.307C371.485 266.203 368.424 263.796 365.652 262.111C362.884 260.417 360.481 259.318 358.78 258.682C357.944 258.321 357.259 258.139 356.813 257.961C356.362 257.798 356.127 257.704 356.132 257.687C356.137 257.67 356.382 257.73 356.844 257.861C357.301 258.007 357.999 258.159 358.85 258.492C360.582 259.073 363.026 260.128 365.843 261.797C368.665 263.456 371.782 265.858 374.792 268.978C376.27 270.563 377.723 272.319 379.072 274.255C380.397 276.207 381.62 278.33 382.674 280.6C384.762 285.15 385.947 289.828 386.432 294.128C386.943 298.433 386.787 302.36 386.342 305.599C385.898 308.842 385.225 311.413 384.647 313.146C384.386 314.022 384.097 314.673 383.935 315.125C383.762 315.571 383.662 315.803 383.645 315.796Z" fill="#263238"/>
<path d="M383.584 251.784C383.641 251.797 383.49 252.768 382.973 254.267C382.457 255.762 381.526 257.77 380.107 259.739C378.687 261.708 377.073 263.227 375.805 264.174C374.537 265.127 373.653 265.559 373.624 265.509C373.512 265.372 376.92 263.337 379.685 259.434C382.498 255.574 383.417 251.719 383.584 251.784Z" fill="#263238"/>
<path d="M278.506 169.857C278.54 169.846 278.682 170.215 278.909 170.896C279.028 171.235 279.16 171.654 279.273 172.151C279.391 172.647 279.551 173.207 279.645 173.843C279.892 175.105 280.051 176.632 280.096 178.333C280.113 180.034 279.999 181.908 279.673 183.847C279.326 185.783 278.801 187.586 278.212 189.182C277.595 190.768 276.93 192.153 276.272 193.257C275.969 193.824 275.629 194.297 275.351 194.724C275.077 195.154 274.812 195.504 274.585 195.783C274.141 196.347 273.883 196.647 273.855 196.625C273.774 196.565 274.747 195.313 275.95 193.078C276.559 191.965 277.179 190.585 277.761 189.015C278.316 187.435 278.818 185.66 279.159 183.757C279.479 181.851 279.606 180.011 279.616 178.337C279.597 176.663 279.479 175.155 279.281 173.902C278.904 171.394 278.41 169.886 278.506 169.857Z" fill="#263238"/>
<g opacity="0.3">
<path d="M279.803 348.286C280.696 346.053 280.971 342.838 278.767 341.878C277.26 341.222 275.566 342.138 274.194 343.045C269.853 345.914 268.575 347.815 264.282 350.602C261.222 352.588 256.696 354.749 253.377 353.233C249.692 351.55 249.641 346.378 247.49 342.945C246.825 341.883 245.752 340.895 244.502 340.983C243.155 341.077 241.522 342.267 241.294 343.599C241.067 344.93 241.466 346.588 241.519 347.937C241.683 352.127 241.687 354.311 241.315 357.574C241.14 358.393 241.017 359.278 240.932 360.201C237.356 359.953 233.696 359.906 230.474 359.711C229.672 359.662 228.768 359.675 228.2 360.322C227.777 360.804 227.652 361.519 227.56 362.192C227.402 363.354 227.294 364.524 227.218 365.696C210.536 365.782 194.787 364.838 180.04 356.738C164.167 348.019 156.571 333.927 156.571 314.249C156.571 314.249 156.652 308.348 148.198 308.23C138.867 308.1 139.01 318.468 139.01 318.468C137.281 339.782 151.373 360.116 169.853 370.875C187.892 381.378 209.379 384.168 230.284 384.244C230.725 384.793 231.235 385.258 231.844 385.584C233.142 386.279 234.642 386.241 236.071 386.104C239.868 385.74 243.614 384.748 247.174 383.203C248.071 383.968 249.38 384.828 251.915 385.26C256.577 386.054 260.128 386.404 264.809 385.727C267.71 385.308 272.317 383.565 273.183 380.765C273.452 379.896 273.441 378.935 273.874 378.135C273.884 378.116 273.899 378.101 273.91 378.082C274.239 377.725 274.563 377.364 274.858 376.979C275.045 376.806 275.233 376.634 275.414 376.457C277.404 374.512 277.885 368.411 275.763 366.57C276.075 366.151 276.374 365.723 276.643 365.276L275.984 365.961C278.359 362.395 277.986 359.284 274.815 356.163C274.855 356.099 274.903 356.041 274.942 355.977L274.789 356.136C274.786 356.133 274.784 356.13 274.781 356.127C277.237 352.616 278.285 352.081 279.803 348.286Z" fill="black"/>
</g>
<path d="M156.572 309.378C156.572 329.056 164.167 343.148 180.041 351.867C195.914 360.586 212.947 361.014 231.056 360.791C231.309 366.986 231.563 373.181 231.816 379.376C210.432 379.431 188.334 376.764 169.854 366.005C151.374 355.246 137.282 334.911 139.011 313.598C139.011 313.598 138.867 303.23 148.199 303.36C156.654 303.476 156.572 309.378 156.572 309.378Z" fill="#263238"/>
<path d="M278.767 337.004C277.26 336.348 275.566 337.264 274.194 338.171C269.853 341.04 268.575 342.941 264.282 345.728C261.222 347.715 256.696 349.875 253.377 348.359C249.692 346.676 249.641 341.504 247.49 338.071C246.825 337.009 245.752 336.021 244.503 336.109C243.156 336.203 241.523 337.393 241.295 338.725C241.067 340.056 241.467 341.714 241.519 343.063C241.683 347.253 241.687 349.437 241.315 352.701C240.943 355.965 240.241 361.98 242.083 364.7C243.009 369.168 244.136 372.161 246.1 376.279C246.625 377.38 244.978 376.532 245.957 377.26C247.011 378.045 248.016 379.724 251.916 380.388C256.578 381.182 260.129 381.532 264.81 380.855C267.711 380.436 272.318 378.693 273.184 375.893C273.453 375.024 273.442 374.063 273.875 373.263C274.238 372.592 274.87 372.118 275.415 371.585C277.443 369.603 277.91 363.291 275.645 361.585C278.406 357.795 278.134 354.532 274.781 351.254C277.238 347.741 278.286 347.207 279.804 343.411C280.696 341.18 280.972 337.964 278.767 337.004Z" fill="white"/>
<path d="M250.116 358.149C249.4 358.769 248.899 356.436 248.015 356.243C242.596 355.06 235.91 355.167 230.473 354.838C229.671 354.789 228.767 354.802 228.199 355.449C227.776 355.931 227.651 356.646 227.559 357.32C226.815 362.781 226.987 368.402 228.062 373.791C228.61 376.538 229.605 379.515 231.843 380.714C233.141 381.409 234.641 381.371 236.07 381.234C244.053 380.468 251.817 376.957 258.087 371.278L250.116 358.149Z" fill="white"/>
<path d="M245.983 377.728C245.954 377.749 245.729 377.461 245.346 376.92C245.144 376.655 244.945 376.303 244.709 375.896C244.463 375.494 244.217 375.018 243.966 374.481C242.92 372.354 241.88 369.226 241.231 365.673C240.601 362.115 240.477 358.826 240.669 356.466C240.706 355.875 240.759 355.343 240.835 354.878C240.9 354.412 240.955 354.012 241.037 353.69C241.182 353.044 241.279 352.693 241.314 352.7C241.405 352.718 241.11 354.146 241.036 356.485C240.941 358.821 241.121 362.063 241.743 365.58C242.385 369.092 243.354 372.191 244.301 374.327C245.227 376.477 246.063 377.674 245.983 377.728Z" fill="#263238"/>
<path d="M271.746 365.496C271.663 365.367 272.958 364.447 274.295 363.047C275.643 361.656 276.512 360.327 276.644 360.405C276.764 360.465 276.07 361.962 274.671 363.408C273.279 364.862 271.81 365.614 271.746 365.496Z" fill="#263238"/>
<path d="M270.966 375.722C270.883 375.593 272.178 374.673 273.515 373.273C274.863 371.882 275.731 370.553 275.864 370.631C275.984 370.691 275.29 372.188 273.891 373.634C272.499 375.088 271.03 375.84 270.966 375.722Z" fill="#263238"/>
<path d="M270.045 356.197C269.962 356.068 271.257 355.148 272.594 353.748C273.942 352.357 274.81 351.028 274.943 351.106C275.063 351.166 274.37 352.663 272.97 354.109C271.578 355.563 270.109 356.315 270.045 356.197Z" fill="#263238"/>
<path d="M228.275 257.834C227.968 260.144 219.884 260.85 210.893 263.986C201.836 266.941 194.979 271.276 193.335 269.625C192.587 268.825 193.445 266.527 196.003 263.796C198.533 261.074 202.866 258.064 208.277 256.232C213.688 254.413 218.958 254.181 222.623 254.813C226.312 255.436 228.387 256.745 228.275 257.834Z" fill="#263238"/>
<path d="M314.713 220.57C312.964 222.364 306.304 220.323 298.249 220.064C290.205 219.573 283.346 220.981 281.815 219.032C281.147 218.09 282.259 216.279 285.276 214.609C288.249 212.945 293.193 211.637 298.726 211.893C304.259 212.155 309.02 213.914 311.784 215.847C314.591 217.788 315.487 219.694 314.713 220.57Z" fill="#263238"/>
<path d="M316.598 255.38C329.722 260.508 335.962 275.928 330.534 289.821C325.106 303.713 310.066 310.818 296.941 305.691C283.816 300.563 277.577 285.143 283.005 271.251C288.433 257.358 303.473 250.252 316.598 255.38Z" fill="white"/>
<path d="M317.07 254.174C330.194 259.302 337.039 273.173 332.358 285.155C327.677 297.136 313.242 302.692 300.117 297.564C286.992 292.436 280.148 278.565 284.829 266.585C289.51 254.602 303.945 249.046 317.07 254.174Z" fill="#263238"/>
<path d="M237.39 273.16C248.061 282.361 248.817 298.979 239.077 310.276C229.338 321.572 212.79 323.27 202.119 314.069C191.447 304.867 190.692 288.25 200.431 276.955C210.17 265.658 226.717 263.959 237.39 273.16Z" fill="white"/>
<path d="M238.235 272.18C248.906 281.381 250.748 296.739 242.348 306.482C233.949 316.224 218.487 316.662 207.815 307.461C197.143 298.259 195.302 282.902 203.701 273.16C212.102 263.417 227.563 262.978 238.235 272.18Z" fill="#263238"/>
<g opacity="0.3">
<path d="M264.2 312.786C261.33 314.787 261.577 317.578 261.625 321.076C261.647 322.72 262.132 323.948 263.116 325.265C264.1 326.582 265.691 327.493 267.334 327.43C270.084 327.325 272.57 324.901 273.771 322.425C275.57 318.718 276.028 314.551 276.301 310.439C272.82 310.014 267.069 310.785 264.2 312.786Z" fill="black"/>
</g>
<path d="M273.771 322.426C273.785 322.435 273.731 322.564 273.601 322.796C273.472 323.029 273.262 323.361 272.958 323.765C272.337 324.568 271.363 325.657 269.879 326.74C269.113 327.242 268.16 327.668 267.06 327.768C265.969 327.889 264.725 327.57 263.752 326.787C262.772 326.021 262.047 324.858 261.717 323.565C261.375 322.27 261.369 320.891 261.428 319.52C261.486 318.146 261.649 316.766 262.162 315.525C262.668 314.278 263.55 313.269 264.517 312.537C266.476 311.06 268.669 310.53 270.446 310.295C272.243 310.069 273.704 310.096 274.707 310.115C275.711 310.141 276.265 310.183 276.265 310.217C276.265 310.254 275.71 310.281 274.708 310.317C273.708 310.36 272.256 310.391 270.498 310.659C268.76 310.934 266.651 311.495 264.81 312.917C263.901 313.623 263.097 314.562 262.634 315.718C262.162 316.874 262.004 318.191 261.948 319.543C261.888 320.898 261.896 322.225 262.21 323.436C262.512 324.644 263.168 325.702 264.051 326.411C264.928 327.128 266.02 327.427 267.025 327.337C268.035 327.265 268.943 326.887 269.68 326.429C271.121 325.435 272.153 324.377 272.8 323.636C273.446 322.88 273.733 322.402 273.771 322.426Z" fill="#263238"/>
<path d="M229.326 463.537C220.889 462.078 211.964 461.93 203.634 463.912C199.304 464.942 194.932 466.28 191.379 468.96C187.826 471.64 184.932 474.416 185.273 478.853L250.362 478.921C250.362 471.01 237.763 464.996 229.326 463.537Z" fill="#263238"/>
<path d="M301.205 463.253C309.642 461.794 318.567 461.646 326.897 463.628C331.227 464.658 335.599 465.996 339.152 468.676C342.705 471.356 345.352 474.415 345.011 478.853L280.17 478.637C280.169 470.727 292.768 464.712 301.205 463.253Z" fill="#263238"/>
<path d="M205.171 183.242C205.149 183.287 204.396 182.923 202.997 182.373C201.601 181.818 199.517 181.156 196.872 180.708C194.231 180.253 191.009 180.101 187.497 180.577C183.991 181.045 180.21 182.209 176.659 184.226C173.132 186.288 170.228 188.975 168.065 191.774C165.892 194.574 164.407 197.439 163.477 199.951C162.539 202.464 162.066 204.599 161.847 206.085C161.622 207.571 161.558 208.405 161.508 208.401C161.49 208.4 161.491 208.191 161.509 207.794C161.541 207.398 161.532 206.806 161.645 206.057C161.805 204.552 162.226 202.384 163.131 199.823C164.028 197.264 165.499 194.34 167.685 191.48C169.86 188.622 172.805 185.874 176.399 183.774C180.017 181.719 183.87 180.549 187.433 180.1C191.003 179.643 194.27 179.837 196.934 180.344C199.603 180.845 201.69 181.568 203.072 182.185C203.777 182.462 204.285 182.767 204.643 182.938C204.998 183.122 205.179 183.226 205.171 183.242Z" fill="#263238"/>
<g opacity="0.3">
<path d="M267.07 214.717C268.066 207.534 265.532 199.945 260.421 194.801C255.309 189.657 247.737 187.076 240.548 188.026C240.533 180.993 240.518 173.959 240.503 166.926C240.503 166.926 245.924 168.015 246.019 183.242C246.019 183.242 258.82 182.013 265.911 194.23C273.002 206.446 267.07 214.717 267.07 214.717Z" fill="black"/>
</g>
<path d="M248.869 245.109C248.851 245.106 248.868 244.809 248.915 244.248C248.942 243.953 248.973 243.609 249.009 243.213C249.056 242.805 249.099 242.333 249.08 241.799C249.172 239.673 248.937 236.558 247.882 232.903C247.668 231.974 247.247 231.064 246.906 230.085C246.529 229.12 246.033 228.157 245.55 227.151C244.968 226.197 244.468 225.149 243.749 224.196C243.405 223.711 243.076 223.204 242.707 222.717C242.318 222.245 241.923 221.767 241.524 221.283C239.855 219.419 237.967 217.544 235.673 216.055C233.407 214.54 230.855 213.276 228.084 212.442C225.294 211.668 222.461 211.375 219.735 211.447C217 211.482 214.401 212.061 211.995 212.747C211.399 212.943 210.81 213.137 210.229 213.328C209.657 213.543 209.108 213.796 208.558 214.023C207.442 214.445 206.459 215.065 205.458 215.561C204.513 216.154 203.58 216.704 202.746 217.319C201.935 217.965 201.094 218.511 200.417 219.182C197.575 221.711 195.714 224.22 194.658 226.066C194.357 226.508 194.142 226.929 193.964 227.3C193.783 227.655 193.626 227.963 193.491 228.226C193.232 228.726 193.088 228.985 193.071 228.979C193.055 228.972 193.166 228.699 193.396 228.183C193.518 227.912 193.661 227.596 193.826 227.231C193.991 226.851 194.193 226.42 194.483 225.966C195.493 224.074 197.327 221.503 200.173 218.908C200.851 218.22 201.694 217.658 202.51 216.995C203.349 216.363 204.289 215.797 205.242 215.188C206.251 214.676 207.245 214.041 208.373 213.605C208.929 213.371 209.485 213.11 210.064 212.889C210.653 212.691 211.25 212.491 211.853 212.289C214.292 211.579 216.932 210.982 219.717 210.938C222.491 210.857 225.381 211.152 228.228 211.942C231.056 212.792 233.657 214.085 235.959 215.634C238.29 217.157 240.203 219.07 241.887 220.972C242.29 221.466 242.688 221.953 243.08 222.434C243.452 222.93 243.783 223.447 244.128 223.942C244.849 224.913 245.351 225.98 245.931 226.952C246.413 227.976 246.905 228.956 247.278 229.938C247.614 230.933 248.028 231.859 248.234 232.803C249.256 236.517 249.435 239.67 249.28 241.809C249.283 242.347 249.224 242.82 249.16 243.229C249.105 243.626 249.057 243.97 249.015 244.264C248.938 244.821 248.887 245.112 248.869 245.109Z" fill="#263238"/>
<path d="M155.311 275.758C155.307 275.775 155.122 275.742 154.774 275.661C154.43 275.568 153.903 275.482 153.262 275.255C151.959 274.864 150.117 274.117 148.027 272.854C145.936 271.598 143.642 269.748 141.572 267.259C139.502 264.78 137.711 261.62 136.691 258.016C135.718 254.398 135.634 250.766 136.14 247.576C136.64 244.377 137.661 241.611 138.812 239.461C139.958 237.305 141.157 235.719 142.074 234.715C142.508 234.191 142.916 233.848 143.164 233.591C143.422 233.343 143.563 233.22 143.576 233.233C143.611 233.268 143.088 233.807 142.229 234.847C141.366 235.882 140.228 237.483 139.14 239.63C138.047 241.771 137.08 244.503 136.615 247.648C136.144 250.785 136.243 254.341 137.194 257.878C138.192 261.401 139.931 264.504 141.944 266.954C143.956 269.415 146.187 271.264 148.224 272.542C150.259 273.826 152.057 274.617 153.329 275.063C154.597 275.515 155.324 275.71 155.311 275.758Z" fill="#263238"/>
<path d="M118.599 238.977C118.605 238.919 119.708 238.96 121.453 239.308C123.196 239.653 125.573 240.362 128.019 241.559C130.463 242.763 132.477 244.21 133.816 245.378C135.159 246.547 135.866 247.393 135.824 247.434C135.764 247.495 134.968 246.744 133.583 245.663C132.201 244.581 130.191 243.209 127.79 242.026C125.387 240.85 123.073 240.099 121.371 239.667C119.669 239.232 118.588 239.061 118.599 238.977Z" fill="#263238"/>
<path d="M264.553 223.932C264.525 224.018 263.447 223.675 261.664 223.362C259.884 223.049 257.375 222.837 254.639 223.17C251.903 223.512 249.524 224.337 247.887 225.1C246.246 225.861 245.301 226.485 245.251 226.409C245.231 226.379 245.45 226.2 245.866 225.898C246.277 225.589 246.912 225.199 247.725 224.769C249.348 223.907 251.772 223.002 254.575 222.652C257.378 222.311 259.946 222.588 261.735 223C262.631 223.206 263.346 223.416 263.824 223.603C264.306 223.783 264.565 223.898 264.553 223.932Z" fill="#263238"/>
<g opacity="0.3">
<path d="M256.609 218.678C252.788 217.996 248.738 218.678 245.35 220.574C239.759 211.001 228.282 205.218 217.261 206.42C206.24 207.622 197.582 216.106 194.186 226.659C199.827 216.136 209.585 211.976 219.878 211.683C230.172 211.391 240.654 217.055 245.216 226.287C251.604 222.65 259.577 221.924 266.516 224.35C263.994 221.401 260.43 219.36 256.609 218.678Z" fill="black"/>
</g>
<g opacity="0.3">
<path d="M146.564 230.957C140.583 231.334 134.878 234.78 131.761 239.898C127.733 237.976 123.059 237.798 118.754 238.977C125.419 239.582 132.004 243.003 136.388 248.114C136.027 241.077 140.215 234.015 146.564 230.957Z" fill="black"/>
</g>
<g opacity="0.3">
<path d="M387.146 274.68C381.365 264.935 368.79 257.633 357.466 258.026L357.189 258.011C366.172 261.414 376.321 268.523 381.685 279.511C385.899 288.144 387.657 299.218 385.924 308.667C391.698 298.916 392.928 284.425 387.146 274.68Z" fill="black"/>
</g>
<path d="M390.391 420.221C390.5 419.407 390.59 418.59 390.608 417.769C390.659 415.334 390.864 413.297 390.218 410.609C389.767 408.729 388.853 406.83 388.177 406.015C389.605 402.837 390.54 399.487 390.912 396.083C391.052 394.802 391.103 393.456 390.495 392.283C389.446 390.259 386.785 389.332 384.326 388.807C379.502 387.778 374.459 387.558 369.548 388.161C368.943 388.235 368.299 388.339 367.862 388.713C367.275 389.215 367.253 390.026 367.287 390.747C367.405 393.243 367.768 397.424 367.477 401.522C364.982 402.443 362.677 403.916 360.75 405.861C360.728 405.883 360.706 405.906 360.683 405.928C358.462 408.152 353.284 411.677 353.284 411.677C351.813 412.67 350.892 413.7 350.791 414.909C350.698 416.03 351.254 417.022 352.199 417.632C355.254 419.603 362.1 414.638 362.1 414.638C362.1 414.638 360.912 418.37 359.093 421.093C356.022 425.69 358.431 421.843 353.742 428.844C353.258 429.568 351.748 431.426 352.353 433.375C352.987 435.415 354.443 435.662 356.45 434.89C359.846 433.584 364.295 428.861 367.246 426.472C366.432 427.473 362.45 433.213 361.789 434.263C360.863 435.731 359.928 436.942 360.363 438.172C360.798 439.403 362.56 439.826 363.862 439.728C364.919 439.648 365.802 438.921 366.587 438.209C368.815 436.189 371.75 432.61 373.674 430.299C372.773 432.353 370.629 436.364 370.044 438.529C369.829 439.327 369.238 441.063 369.603 441.804C370.223 443.061 372.029 443.147 373.331 442.627C375.016 441.954 377.32 439.273 378.312 437.753C379.304 436.233 379.973 434.53 380.636 432.841C380.636 432.841 380.381 434.069 380.06 434.779C379.739 435.488 378.903 437.563 378.891 438.341C378.879 439.119 377.999 442.034 379.239 442.828C380.905 443.895 382.324 442.131 382.759 441.585C385.657 437.946 387.328 432.971 388.5 429.548C389.536 426.517 389.967 423.389 390.391 420.221Z" fill="white"/>
<path d="M390.392 420.221C390.392 420.221 390.38 420.446 390.331 420.881C390.273 421.334 390.191 421.975 390.085 422.81C389.831 424.494 389.497 427.02 388.421 430.099C387.9 431.636 387.317 433.348 386.547 435.174C385.775 436.995 384.838 438.951 383.496 440.851C382.817 441.751 382.118 442.881 380.806 443.262C380.149 443.431 379.436 443.25 378.906 442.766C378.422 442.2 378.398 441.467 378.413 440.813C378.437 440.144 378.555 439.479 378.659 438.82C378.685 438.655 378.706 438.492 378.714 438.341C378.722 438.15 378.752 437.974 378.79 437.802C378.866 437.458 378.969 437.126 379.079 436.795C379.302 436.134 379.555 435.479 379.839 434.822C380.124 434.196 380.295 433.502 380.451 432.804L380.812 432.911C380.044 434.876 379.232 436.989 377.798 438.821C377.096 439.733 376.321 440.612 375.441 441.42C374.999 441.821 374.53 442.207 373.996 442.525C373.461 442.851 372.841 443.054 372.209 443.116C371.579 443.182 370.906 443.118 370.303 442.805C370.005 442.647 369.734 442.415 369.54 442.125C369.329 441.854 369.257 441.43 369.27 441.116C369.288 440.448 369.455 439.829 369.621 439.213C369.794 438.608 369.958 437.981 370.193 437.373C371.114 434.957 372.368 432.637 373.462 430.205L373.854 430.448C372.302 432.317 370.715 434.245 368.987 436.13C368.118 437.069 367.222 438.004 366.211 438.86C365.7 439.281 365.123 439.684 364.431 439.875C363.72 440.056 363.038 439.998 362.352 439.866C361.68 439.716 360.98 439.444 360.482 438.861C359.973 438.274 359.902 437.408 360.136 436.724C360.359 436.03 360.741 435.446 361.103 434.868C361.462 434.289 361.848 433.73 362.248 433.167C363.825 430.913 365.426 428.625 367.048 426.309L367.408 426.67C364.715 428.893 362.214 431.509 359.204 433.638C358.45 434.167 357.653 434.654 356.781 435.027C355.924 435.383 354.959 435.704 353.934 435.464C353.426 435.347 352.97 435.013 352.67 434.601C352.364 434.186 352.179 433.73 352.055 433.247C351.806 432.256 352.061 431.225 352.487 430.365C355.7 424.881 360.209 420.401 361.855 414.557L362.251 414.843C360.922 415.765 359.551 416.581 358.098 417.239C356.655 417.884 355.109 418.44 353.457 418.314C352.635 418.213 351.828 417.806 351.296 417.177C350.746 416.554 350.462 415.695 350.542 414.871C350.615 414.027 351.073 413.293 351.612 412.73C352.15 412.158 352.789 411.704 353.405 411.289C355.841 409.578 358.245 407.869 360.324 405.934C362.336 403.858 364.787 402.251 367.396 401.3L367.245 401.501C367.435 398.778 367.356 396.101 367.218 393.497C367.182 392.845 367.146 392.197 367.11 391.554C367.089 390.914 366.994 390.268 367.134 389.581C367.205 389.244 367.363 388.901 367.62 388.642C367.877 388.38 368.208 388.228 368.526 388.133C369.175 387.948 369.793 387.928 370.41 387.849C375.354 387.352 380.065 387.707 384.301 388.609C386.394 389.075 388.518 389.711 389.956 391.228C390.674 391.975 391.054 392.983 391.133 393.949C391.223 394.922 391.103 395.858 390.99 396.754C390.507 400.357 389.461 403.478 388.291 406.061L388.273 405.932C389.019 406.911 389.457 407.966 389.831 408.96C390.195 409.96 390.423 410.932 390.56 411.84C390.839 413.662 390.754 415.218 390.711 416.456C390.686 417.697 390.578 418.638 390.509 419.268C390.442 419.903 390.392 420.221 390.392 420.221C390.392 420.221 390.398 419.897 390.443 419.267C390.49 418.637 390.577 417.701 390.581 416.457C390.604 415.218 390.667 413.671 390.372 411.875C390.226 410.978 389.992 410.023 389.625 409.041C389.251 408.068 388.797 407.016 388.083 406.095C388.053 406.059 388.049 406.007 388.065 405.966C389.206 403.391 390.221 400.289 390.678 396.719C390.787 395.828 390.896 394.908 390.805 393.987C390.722 393.069 390.373 392.159 389.702 391.466C388.36 390.056 386.291 389.424 384.222 388.978C380.018 388.102 375.347 387.767 370.451 388.275C369.844 388.353 369.208 388.385 368.648 388.549C368.075 388.7 367.662 389.1 367.556 389.68C367.437 390.247 367.521 390.894 367.547 391.536C367.585 392.179 367.622 392.827 367.66 393.479C367.806 396.09 367.893 398.784 367.706 401.54C367.7 401.634 367.637 401.711 367.555 401.742C365.008 402.681 362.642 404.233 360.657 406.286C358.53 408.271 356.134 409.976 353.685 411.702C353.064 412.122 352.471 412.547 351.973 413.076C351.477 413.596 351.098 414.228 351.04 414.919C350.975 415.614 351.209 416.321 351.675 416.851C352.143 417.393 352.799 417.722 353.512 417.814C354.976 417.929 356.482 417.412 357.884 416.777C359.295 416.138 360.658 415.325 361.946 414.429L361.953 414.424C362.069 414.343 362.229 414.372 362.309 414.488C362.357 414.557 362.366 414.642 362.342 414.715C361.86 416.159 361.289 417.568 360.607 418.949C359.942 420.343 359.052 421.628 358.184 422.895C357.757 423.54 357.264 424.16 356.821 424.778C356.382 425.414 355.941 426.053 355.5 426.692L354.191 428.635C353.754 429.3 353.277 429.909 352.951 430.593C352.555 431.393 352.346 432.291 352.556 433.123C352.764 433.959 353.251 434.781 354.06 434.96C354.859 435.157 355.767 434.892 356.575 434.547C357.392 434.198 358.166 433.728 358.902 433.211C361.856 431.125 364.349 428.524 367.081 426.27C367.19 426.18 367.351 426.196 367.441 426.305C367.516 426.395 367.517 426.522 367.453 426.614L367.441 426.631C365.828 428.931 364.235 431.203 362.666 433.441C362.27 433.996 361.881 434.56 361.521 435.137C361.161 435.706 360.798 436.274 360.608 436.871C360.412 437.458 360.48 438.098 360.859 438.542C361.236 438.992 361.843 439.249 362.451 439.382C363.057 439.505 363.732 439.55 364.297 439.4C364.88 439.242 365.408 438.884 365.896 438.483C366.873 437.659 367.766 436.732 368.629 435.803C370.348 433.934 371.935 432.015 373.492 430.149C373.573 430.049 373.72 430.034 373.819 430.115C373.902 430.182 373.925 430.298 373.884 430.391C372.772 432.848 371.518 435.156 370.608 437.528C370.379 438.114 370.219 438.72 370.043 439.33C369.878 439.93 369.719 440.538 369.703 441.121C369.652 441.696 370.013 442.152 370.503 442.422C370.995 442.681 371.592 442.75 372.162 442.69C373.336 442.608 374.299 441.885 375.158 441.111C376.015 440.329 376.783 439.465 377.474 438.574C378.874 436.801 379.679 434.737 380.456 432.772C380.492 432.674 380.601 432.625 380.698 432.661C380.787 432.694 380.835 432.79 380.816 432.88C380.653 433.596 380.477 434.304 380.172 434.969C379.891 435.611 379.636 436.262 379.415 436.908C379.306 437.231 379.204 437.556 379.132 437.877C379.095 438.037 379.069 438.197 379.062 438.345C379.052 438.533 379.028 438.704 379.001 438.871C378.892 439.539 378.775 440.184 378.749 440.823C378.723 441.448 378.778 442.116 379.143 442.537C379.551 442.911 380.183 443.098 380.726 442.948C381.862 442.638 382.577 441.57 383.249 440.674C384.583 438.81 385.528 436.876 386.309 435.071C387.088 433.261 387.685 431.559 388.22 430.028C389.32 426.978 389.686 424.469 389.974 422.79C390.103 421.959 390.203 421.321 390.273 420.87C390.344 420.441 390.392 420.221 390.392 420.221Z" fill="#263238"/>
<path d="M388.29 406.1C388.227 406.172 387.274 405.317 385.57 404.184C383.868 403.063 381.328 401.737 378.27 401.147C375.21 400.567 372.357 400.809 370.339 401.115C368.315 401.438 367.081 401.772 367.058 401.684C367.048 401.65 367.347 401.536 367.899 401.359C368.448 401.173 369.261 400.966 370.276 400.752C372.301 400.349 375.219 400.038 378.369 400.635C381.517 401.243 384.106 402.664 385.779 403.88C386.614 404.498 387.263 405.032 387.675 405.441C388.094 405.841 388.314 406.074 388.29 406.1Z" fill="#263238"/>
</svg>
