<svg width="500" height="500" viewBox="0 0 500 500" fill="none" xmlns="http://www.w3.org/2000/svg">
<path d="M372.643 464.874C372.643 464.874 366.784 414.421 367.355 410.297C367.926 406.172 373.619 382.073 376.003 376.753C378.388 371.433 382.366 359.709 383.834 350.327C385.302 340.945 384.82 338.356 385.144 337.224C385.469 336.092 385.768 316.694 384.4 310.787C383.032 304.88 379.599 294.214 379.599 294.214C379.599 294.214 379.159 283.794 370.731 269.611C362.303 255.428 362.288 255.056 357.293 251.539C352.298 248.022 347.35 245.622 342.481 245.082C337.612 244.542 333.193 245.847 334.965 252.482C336.736 259.118 344.074 265.145 344.074 265.145C344.074 265.145 348.932 274.26 350.935 277.53C352.937 280.801 354.599 284.831 354.599 284.831L355.023 294.878L351.925 300.973C351.925 300.973 347.255 296.324 345.159 290.821C343.063 285.318 335.064 290.129 332.449 298.814C329.834 307.499 291.782 333.338 293.448 346.315C295.115 359.292 296.079 390.939 302.289 405.588C308.5 420.237 310.098 422.78 310.098 422.78L309.133 470.538" fill="white"/>
<path d="M372.643 464.874C372.643 464.874 366.784 414.421 367.355 410.297C367.926 406.172 373.619 382.073 376.003 376.753C378.388 371.433 382.366 359.709 383.834 350.327C385.302 340.945 384.82 338.356 385.144 337.224C385.469 336.092 385.768 316.694 384.4 310.787C383.032 304.88 379.599 294.214 379.599 294.214C379.599 294.214 379.159 283.794 370.731 269.611C362.303 255.428 362.288 255.056 357.293 251.539C352.298 248.022 347.35 245.622 342.481 245.082C337.612 244.542 333.193 245.847 334.965 252.482C336.736 259.118 344.074 265.145 344.074 265.145C344.074 265.145 348.932 274.26 350.935 277.53C352.937 280.801 354.599 284.831 354.599 284.831L355.023 294.878L351.925 300.973C351.925 300.973 347.255 296.324 345.159 290.821C343.063 285.318 335.064 290.129 332.449 298.814C329.834 307.499 291.782 333.338 293.448 346.315C295.115 359.292 296.079 390.939 302.289 405.588C308.5 420.237 310.098 422.78 310.098 422.78L309.133 470.538" stroke="#263238" stroke-miterlimit="10" strokeLinecap="round" stroke-linejoin="round"/>
<path d="M294.748 351.881C294.748 351.881 298.048 364.28 304.55 368.281C311.051 372.282 318.803 370.031 318.803 370.031L326.055 374.532L354.312 336.773C354.312 336.773 360.313 318.519 359.813 312.017C359.313 305.516 358.813 301.514 357.813 300.764C356.813 300.014 349.561 297.013 349.561 297.013L346.81 293.762L343.37 287.339C343.37 287.339 339.808 299.514 330.306 309.016C320.804 318.518 302.049 332.522 298.298 340.273C294.548 348.027 293.498 346.38 294.748 351.881Z" fill="#263238" stroke="#263238" stroke-miterlimit="10" strokeLinecap="round" stroke-linejoin="round"/>
<path d="M345.649 264.55C345.649 264.55 351.324 267.321 357.611 262.655" stroke="#263238" stroke-miterlimit="10" strokeLinecap="round" stroke-linejoin="round"/>
<path d="M345.312 329.089L335.028 341.487C334.462 342.169 333.355 341.701 333.45 340.819L334.971 324.81L389.443 193.166C389.834 192.221 390.917 191.772 391.862 192.163L398.78 195.026C399.725 195.417 400.174 196.5 399.783 197.445L345.312 329.089Z" fill="#27DEBF" stroke="#263238" stroke-miterlimit="10" strokeLinecap="round" stroke-linejoin="round"/>
<path d="M393.529 212.564L399.785 197.446C400.176 196.501 399.727 195.418 398.782 195.027L391.864 192.164C390.919 191.773 389.836 192.222 389.445 193.167L383.189 208.285L393.529 212.564Z" fill="#D4D4D4" stroke="#263238" stroke-miterlimit="10" strokeLinecap="round" stroke-linejoin="round"/>
<path d="M385.932 201.6L383.167 208.284L393.507 212.562L396.273 205.879L385.932 201.6Z" fill="white" stroke="#263238" stroke-miterlimit="10" strokeLinecap="round" stroke-linejoin="round"/>
<path d="M334.968 324.846L333.45 340.82C333.354 341.702 334.462 342.17 335.028 341.488L345.29 329.117L334.968 324.846Z" fill="white" stroke="#263238" stroke-miterlimit="10" strokeLinecap="round" stroke-linejoin="round"/>
<path d="M334.119 333.782L333.45 340.82C333.354 341.701 334.462 342.17 335.028 341.487L339.554 336.03L334.119 333.782Z" fill="#263238" stroke="#263238" stroke-miterlimit="10" strokeLinecap="round" stroke-linejoin="round"/>
<path d="M320.286 360.335C320.286 360.335 320.345 361.722 319.488 363.379C318.631 365.036 315.955 367.465 312.257 367.621C308.558 367.777 302.623 364.323 298.488 359.634C294.353 354.946 293.136 348.05 291.312 343.264C289.489 338.478 289.294 333.855 292.738 327.688C296.183 321.522 303.687 323.752 303.687 323.752C303.687 323.752 309.062 341.356 311.338 345.891C313.615 350.428 320.286 360.335 320.286 360.335Z" fill="white" stroke="#263238" stroke-miterlimit="10" strokeLinecap="round" stroke-linejoin="round"/>
<path d="M308.721 366.15C308.721 366.15 306.243 362.318 307.409 362.5C308.574 362.682 312.263 362.295 313.833 361.071C315.402 359.847 315.402 359.847 316.597 360.723C317.792 361.599 319.488 363.38 319.488 363.38" stroke="#263238" stroke-miterlimit="10" strokeLinecap="round" stroke-linejoin="round"/>
<path d="M304.553 352.816L301.425 355.958C301.425 355.958 306.359 353.994 308.069 352.918" stroke="#263238" stroke-miterlimit="10" strokeLinecap="round" stroke-linejoin="round"/>
<path d="M318.558 302.978C318.558 302.978 312.382 299.302 306.857 305.557C301.332 311.811 302.038 317.571 305.03 328.097C308.022 338.623 311.418 347.743 313.615 350.429C315.813 353.115 320.104 361.502 324.958 361.297C324.958 361.297 333.182 358.634 334.605 353.942C336.028 349.25 333.407 347.508 333.407 347.508L329.897 341.172L328.526 336.135C328.526 336.135 323.896 325.215 322.496 319.485C321.097 313.754 318.558 302.978 318.558 302.978Z" fill="white" stroke="#263238" stroke-miterlimit="10" strokeLinecap="round" stroke-linejoin="round"/>
<path d="M323.713 343.228C323.713 343.228 319.791 345.4 318.3 345.714" stroke="#263238" stroke-miterlimit="10" strokeLinecap="round" stroke-linejoin="round"/>
<path d="M320.405 342.114C320.405 342.114 316.431 343.034 315.492 344.579" stroke="#263238" stroke-miterlimit="10" strokeLinecap="round" stroke-linejoin="round"/>
<path d="M329.499 353.693C329.499 353.693 323.036 354.198 322.913 356.75C322.789 359.303 325.544 358.723 325.544 358.723" stroke="#263238" stroke-miterlimit="10" strokeLinecap="round" stroke-linejoin="round"/>
<path d="M343.377 298.456C343.377 298.456 345.011 293.292 343.371 287.341C341.73 281.389 338.367 278.521 334.437 278.687C330.507 278.853 324.246 278.654 321.554 286.178C318.861 293.702 318.751 302.043 318.562 308.536C318.373 315.028 319.793 321.221 321.277 323.474C322.762 325.727 331.458 339.717 332.451 341.296C333.444 342.875 336.931 343.191 340.792 341.407C344.653 339.623 347.03 335.586 346.903 332.581C346.776 329.576 341.99 314.957 341.99 314.957C341.99 314.957 342.625 313.541 343.143 309.351C343.66 305.159 343.377 298.456 343.377 298.456Z" fill="white" stroke="#263238" stroke-miterlimit="10" strokeLinecap="round" stroke-linejoin="round"/>
<path d="M330.125 335.604C330.125 335.604 329.025 331.482 333.56 329.206C338.095 326.93 343.861 337.339 343.861 337.339" stroke="#263238" stroke-miterlimit="10" strokeLinecap="round" stroke-linejoin="round"/>
<path d="M328.402 313.97C326.544 314.694 324.608 315.831 323.574 317.587" stroke="#263238" stroke-miterlimit="10" strokeLinecap="round" stroke-linejoin="round"/>
<path d="M333.097 312.784C333.097 312.784 332.221 312.878 330.98 313.173" stroke="#263238" stroke-miterlimit="10" strokeLinecap="round" stroke-linejoin="round"/>
<path d="M326.59 317.691C326.59 317.691 330.471 316.369 332.271 315.135" stroke="#263238" stroke-miterlimit="10" strokeLinecap="round" stroke-linejoin="round"/>
<path d="M320.236 392.063C320.236 392.063 322.401 372.056 328.057 357.923C333.712 343.79 341.549 337.438 344.225 335.009C346.901 332.58 349.981 328.745 349.981 328.745L354.474 319.987C354.474 319.987 355.015 305.375 354.829 300.983C354.643 296.591 355.64 287.286 361.663 276.379C367.686 265.472 372.049 264.593 374.784 263.551C377.519 262.509 383.386 264.346 385.102 266.589C386.818 268.832 379.15 284.672 379.375 289.988C379.599 295.305 377.988 306.488 377.483 316.467C376.978 326.446 377.604 331.476 375.887 346.958C374.17 362.44 372.366 375.852 372.366 375.852" fill="white"/>
<path d="M320.236 392.063C320.236 392.063 322.401 372.056 328.057 357.923C333.712 343.79 341.549 337.438 344.225 335.009C346.901 332.58 349.981 328.745 349.981 328.745L354.474 319.987C354.474 319.987 355.015 305.375 354.829 300.983C354.643 296.591 355.64 287.286 361.663 276.379C367.686 265.472 372.049 264.593 374.784 263.551C377.519 262.509 383.386 264.346 385.102 266.589C386.818 268.832 379.15 284.672 379.375 289.988C379.599 295.305 377.988 306.488 377.483 316.467C376.978 326.446 377.604 331.476 375.887 346.958C374.17 362.44 372.366 375.852 372.366 375.852" stroke="#263238" stroke-miterlimit="10" strokeLinecap="round" stroke-linejoin="round"/>
<path d="M382.626 265.239C382.626 265.239 377.336 264.71 375.908 266.526C374.48 268.342 370.625 278.037 372.223 280.227C373.821 282.417 377.869 283.249 379.1 282.696" stroke="#263238" stroke-miterlimit="10" strokeLinecap="round" stroke-linejoin="round"/>
<path d="M377.239 298.075C377.239 298.075 372.951 297.504 371.23 298.329" stroke="#263238" stroke-miterlimit="10" strokeLinecap="round" stroke-linejoin="round"/>
<path d="M369.041 299.926C369.041 299.926 372.62 301.531 376.094 300.631" stroke="#263238" stroke-miterlimit="10" strokeLinecap="round" stroke-linejoin="round"/>
<path d="M367.761 305.247C367.761 305.247 369.129 307.948 374.105 306.986" stroke="#263238" stroke-miterlimit="10" strokeLinecap="round" stroke-linejoin="round"/>
<path d="M369.91 106.131C369.91 106.131 313.451 99.2978 306.259 96.4838C299.067 93.6688 234.03 59.5828 229.965 58.0188C225.9 56.4548 219.646 58.0188 217.457 59.2688C215.268 60.5198 204.949 63.9588 199.946 66.4598C194.943 68.9608 169.927 78.9658 164.924 81.7798C159.921 84.5938 157.732 89.9098 157.419 93.0358C157.106 96.1628 150.226 120.865 151.476 125.868C152.726 130.871 154.914 147.131 156.79 151.509C158.666 155.887 160.855 154.949 163.044 154.636C165.233 154.323 172.425 150.572 172.425 150.572C172.425 150.572 175.239 161.203 178.365 166.207C181.491 171.211 185.243 179.653 188.996 179.653C192.748 179.653 195.875 176.214 195.875 176.214C195.875 176.214 215.574 183.094 220.577 184.032C225.58 184.97 229.019 184.033 230.27 181.844C231.521 179.655 229.958 174.339 229.958 174.339C229.958 174.339 244.967 174.34 244.342 167.148C243.717 159.956 240.278 157.455 238.089 156.516C235.9 155.578 229.334 154.639 229.334 154.639L243.718 154.64C243.718 154.64 255.913 158.393 270.921 164.335C285.93 170.277 298.75 172.154 315.948 169.341C333.146 166.528 335.96 164.026 339.087 164.027C342.214 164.028 445.515 187.338 445.515 187.338" fill="white"/>
<path d="M369.91 106.131C369.91 106.131 313.451 99.2978 306.259 96.4838C299.067 93.6688 234.03 59.5828 229.965 58.0188C225.9 56.4548 219.646 58.0188 217.457 59.2688C215.268 60.5198 204.949 63.9588 199.946 66.4598C194.943 68.9608 169.927 78.9658 164.924 81.7798C159.921 84.5938 157.732 89.9098 157.419 93.0358C157.106 96.1628 150.226 120.865 151.476 125.868C152.726 130.871 154.914 147.131 156.79 151.509C158.666 155.887 160.855 154.949 163.044 154.636C165.233 154.323 172.425 150.572 172.425 150.572C172.425 150.572 175.239 161.203 178.365 166.207C181.491 171.211 185.243 179.653 188.996 179.653C192.748 179.653 195.875 176.214 195.875 176.214C195.875 176.214 215.574 183.094 220.577 184.032C225.58 184.97 229.019 184.033 230.27 181.844C231.521 179.655 229.958 174.339 229.958 174.339C229.958 174.339 244.967 174.34 244.342 167.148C243.717 159.956 240.278 157.455 238.089 156.516C235.9 155.578 229.334 154.639 229.334 154.639L243.718 154.64C243.718 154.64 255.913 158.393 270.921 164.335C285.93 170.277 298.75 172.154 315.948 169.341C333.146 166.528 335.96 164.026 339.087 164.027C342.214 164.028 445.515 187.338 445.515 187.338" stroke="#263238" stroke-miterlimit="10" strokeLinecap="round" stroke-linejoin="round"/>
<path d="M214.858 161.284C214.914 161.31 214.969 161.334 215.023 161.359C214.96 161.33 214.904 161.305 214.858 161.284Z" fill="#263238" stroke="#263238" stroke-miterlimit="10" strokeLinecap="round" stroke-linejoin="round"/>
<path d="M214.819 161.266C214.832 161.272 214.843 161.277 214.858 161.284C214.845 161.278 214.833 161.273 214.819 161.266Z" fill="#263238" stroke="#263238" stroke-miterlimit="10" strokeLinecap="round" stroke-linejoin="round"/>
<path d="M214.715 161.219C214.715 161.219 214.722 161.222 214.735 161.228C214.728 161.225 214.723 161.222 214.715 161.219Z" fill="#263238" stroke="#263238" stroke-miterlimit="10" strokeLinecap="round" stroke-linejoin="round"/>
<path d="M215.023 161.359C215.116 161.401 215.224 161.45 215.344 161.505C215.242 161.459 215.134 161.41 215.023 161.359Z" fill="#263238" stroke="#263238" stroke-miterlimit="10" strokeLinecap="round" stroke-linejoin="round"/>
<path d="M214.734 161.228C214.764 161.242 214.79 161.253 214.819 161.267C214.782 161.249 214.751 161.235 214.734 161.228Z" fill="#263238" stroke="#263238" stroke-miterlimit="10" strokeLinecap="round" stroke-linejoin="round"/>
<path d="M215.345 161.505C215.561 161.603 215.756 161.692 215.931 161.771C215.727 161.678 215.524 161.586 215.345 161.505Z" fill="#263238" stroke="#263238" stroke-miterlimit="10" strokeLinecap="round" stroke-linejoin="round"/>
<path d="M217.114 162.309C217.29 162.389 217.261 162.376 217.114 162.309Z" fill="#263238" stroke="#263238" stroke-miterlimit="10" strokeLinecap="round" stroke-linejoin="round"/>
<path d="M216.906 162.214C216.992 162.253 217.064 162.286 217.114 162.309C217.06 162.284 216.989 162.252 216.906 162.214Z" fill="#263238" stroke="#263238" stroke-miterlimit="10" strokeLinecap="round" stroke-linejoin="round"/>
<path d="M216.738 162.138C216.798 162.165 216.854 162.191 216.906 162.214C216.856 162.192 216.8 162.166 216.738 162.138Z" fill="#263238" stroke="#263238" stroke-miterlimit="10" strokeLinecap="round" stroke-linejoin="round"/>
<path d="M215.931 161.771C216.056 161.828 216.181 161.885 216.303 161.94C216.191 161.889 216.066 161.832 215.931 161.771Z" fill="#263238" stroke="#263238" stroke-miterlimit="10" strokeLinecap="round" stroke-linejoin="round"/>
<path d="M216.302 161.94C216.475 162.018 216.617 162.083 216.737 162.138C216.607 162.078 216.458 162.011 216.302 161.94Z" fill="#263238" stroke="#263238" stroke-miterlimit="10" strokeLinecap="round" stroke-linejoin="round"/>
<path d="M248.66 149.334C245.351 148.599 242.318 148.516 239.687 148.753C239.118 146.752 236.145 144.688 235.093 143.936C233.287 142.646 203.623 146.774 199.496 149.869C195.369 152.964 191.499 156.06 193.047 161.219L198.722 164.572C198.722 164.572 209.04 158.639 214.715 161.219C214.715 161.219 219.874 155.544 225.549 154.512L243.717 154.64C243.717 154.64 256.531 158.19 262.435 160.896C268.339 163.602 280.638 157.944 282.36 156.468C284.083 154.992 257.516 151.302 248.66 149.334Z" fill="#263238" stroke="#263238" stroke-miterlimit="10" strokeLinecap="round" stroke-linejoin="round"/>
<path d="M197.704 160.346C197.704 160.346 201.062 172.416 195.878 176.217" stroke="#263238" stroke-miterlimit="10" strokeLinecap="round" stroke-linejoin="round"/>
<path d="M186.399 177.531C186.399 177.531 185.947 174.591 186.399 171.878C186.851 169.165 183.685 165.095 183.685 165.095" stroke="#263238" stroke-miterlimit="10" strokeLinecap="round" stroke-linejoin="round"/>
<path d="M206.298 178.888C206.298 178.888 203.585 173.235 207.429 172.783C211.273 172.331 221.222 175.044 221.222 175.044C221.222 175.044 220.544 179.566 222.579 183.636" stroke="#263238" stroke-miterlimit="10" strokeLinecap="round" stroke-linejoin="round"/>
<path d="M212.606 160.398C209.925 159.421 207.88 158.764 207.88 158.764C207.88 158.764 207.654 156.729 206.976 155.146C206.298 153.563 204.635 152.453 204.635 152.453" stroke="white" stroke-miterlimit="10" strokeLinecap="round" stroke-linejoin="round"/>
<path d="M229.961 174.34C229.961 174.34 227.777 168.712 224.16 165.772C221.996 164.014 216.596 161.851 212.606 160.397" stroke="#263238" stroke-miterlimit="10" strokeLinecap="round" stroke-linejoin="round"/>
<path d="M202.228 158.084L205.167 158.536" stroke="white" stroke-miterlimit="10" strokeLinecap="round" stroke-linejoin="round"/>
<path d="M224.16 165.773C224.16 165.773 224.16 163.06 228.909 162.834C233.658 162.608 239.084 161.251 239.989 163.06C240.893 164.869 242.024 169.165 240.893 170.748C239.762 172.331 230.492 172.331 230.492 172.331" stroke="#263238" stroke-miterlimit="10" strokeLinecap="round" stroke-linejoin="round"/>
<path d="M222.125 154.014C222.125 154.014 220.994 151.979 218.733 150.396C216.472 148.813 215.115 148.361 215.115 148.361" stroke="white" stroke-miterlimit="10" strokeLinecap="round" stroke-linejoin="round"/>
<path d="M171.702 138.186C171.702 138.186 172.833 132.533 171.702 128.011C170.571 123.489 169.893 121.001 169.893 121.001C169.893 121.001 173.285 117.383 175.094 113.765C176.903 110.147 179.842 103.816 179.842 103.816C179.842 103.816 189.565 101.555 194.54 100.198C199.515 98.8407 205.168 95.2227 205.168 95.2227C205.168 95.2227 206.299 98.8407 207.882 100.876" stroke="#263238" stroke-miterlimit="10" strokeLinecap="round" stroke-linejoin="round"/>
<path d="M186.896 120.523C188.051 121.297 189.394 121.961 190.92 122.357" stroke="#263238" stroke-miterlimit="10" strokeLinecap="round" stroke-linejoin="round"/>
<path d="M181.65 114.896C181.65 114.896 182.652 116.756 184.615 118.666" stroke="#263238" stroke-miterlimit="10" strokeLinecap="round" stroke-linejoin="round"/>
<path d="M205.089 86.5206C204.973 83.7136 205.175 80.4856 206.296 78.0386" stroke="#263238" stroke-miterlimit="10" strokeLinecap="round" stroke-linejoin="round"/>
<path d="M205.845 92.7366C205.845 92.7366 205.633 91.7736 205.43 90.2856" stroke="#263238" stroke-miterlimit="10" strokeLinecap="round" stroke-linejoin="round"/>
<path d="M171.476 92.2837C171.476 92.2837 180.521 99.9717 179.842 103.816" stroke="#263238" stroke-miterlimit="10" strokeLinecap="round" stroke-linejoin="round"/>
<path d="M162.656 115.348C162.656 115.348 166.048 115.122 168.083 119.644" stroke="#263238" stroke-miterlimit="10" strokeLinecap="round" stroke-linejoin="round"/>
<path d="M252.087 89.6558L245.367 82.9358L238.647 76.2158L195.607 118.936L158.012 160.7L162.808 165.496L167.603 170.291L209.367 132.696L252.087 89.6558Z" fill="#27DEBF" stroke="#263238" stroke-miterlimit="10" strokeLinecap="round" stroke-linejoin="round"/>
<path d="M274.268 67.9707C292.24 49.2657 306.666 33.6167 306.666 33.6167L300.676 27.6257L294.685 21.6357C294.685 21.6357 279.036 36.0617 260.331 54.0327C241.626 72.0037 234.413 79.4617 234.413 79.4617L241.626 86.6747L248.839 93.8877C248.839 93.8877 256.297 86.6757 274.268 67.9707Z" fill="#27DEBF" stroke="#263238" stroke-miterlimit="10" strokeLinecap="round" stroke-linejoin="round"/>
<path d="M254.392 82.8198L250.556 86.7448" stroke="#263238" stroke-miterlimit="10" strokeLinecap="round" stroke-linejoin="round"/>
<path d="M302.501 33.605L257.635 79.503" stroke="#263238" stroke-miterlimit="10" strokeLinecap="round" stroke-linejoin="round"/>
<path d="M243.987 92.7158L223.985 113.315" stroke="#263238" stroke-miterlimit="10" strokeLinecap="round" stroke-linejoin="round"/>
<path d="M236.475 77.3677C235.066 78.7877 234.413 79.4627 234.413 79.4627L248.839 93.8887C248.839 93.8887 249.514 93.2357 250.934 91.8267L236.475 77.3677Z" fill="#263238" stroke="#263238" stroke-miterlimit="10" strokeLinecap="round" stroke-linejoin="round"/>
<path d="M166.542 169.127L158.609 161.195L154.417 165.387L162.349 173.319L166.542 169.127Z" fill="#D4D4D4" stroke="#263238" stroke-miterlimit="10" strokeLinecap="round" stroke-linejoin="round"/>
<path d="M154.418 165.39L148.978 175.588L151.471 178.081L162.35 173.322L154.418 165.39Z" fill="#D4D4D4" stroke="#263238" stroke-miterlimit="10" strokeLinecap="round" stroke-linejoin="round"/>
<path d="M149.486 176.296L148.07 179.128L150.801 177.611L149.486 176.296Z" fill="white" stroke="#263238" stroke-miterlimit="10" strokeLinecap="round" stroke-linejoin="round"/>
<path d="M306.512 26.7568L301.948 22.1928C300.562 20.8068 298.315 20.8068 296.93 22.1928L296.043 23.0798L305.626 32.6628L306.513 31.7758C307.898 30.3888 307.898 28.1428 306.512 26.7568Z" fill="white" stroke="#263238" stroke-miterlimit="10" strokeLinecap="round" stroke-linejoin="round"/>
<path d="M293.738 22.7159L291.069 21.5029L240.122 67.8399C240.122 67.8399 241.214 68.9319 241.82 68.8099C242.426 68.6879 247.157 66.6269 249.341 63.9579C251.524 61.2889 251.161 59.7119 252.98 58.1359C254.8 56.5589 293.738 22.7159 293.738 22.7159Z" fill="white" stroke="#263238" stroke-miterlimit="10" strokeLinecap="round" stroke-linejoin="round"/>
<path d="M241.218 109.302C241.218 109.302 219.33 118.995 204.008 122.435C188.686 125.875 182.432 127.125 180.244 129.001C178.055 130.877 168.362 141.196 163.672 146.511C158.982 151.827 155.855 158.393 163.985 164.334C172.115 170.275 176.805 167.148 188.687 163.083C200.569 159.018 204.634 152.452 204.634 152.452C204.634 152.452 212.139 145.573 225.897 146.824C239.655 148.075 244.658 151.202 265.296 156.517C285.933 161.833 301.255 153.39 307.822 148.387" fill="white"/>
<path d="M241.218 109.302C241.218 109.302 219.33 118.995 204.008 122.435C188.686 125.875 182.432 127.125 180.244 129.001C178.055 130.877 168.362 141.196 163.672 146.511C158.982 151.827 155.855 158.393 163.985 164.334C172.115 170.275 176.805 167.148 188.687 163.083C200.569 159.018 204.634 152.452 204.634 152.452C204.634 152.452 212.139 145.573 225.897 146.824C239.655 148.075 244.658 151.202 265.296 156.517C285.933 161.833 301.255 153.39 307.822 148.387" stroke="#263238" stroke-miterlimit="10" strokeLinecap="round" stroke-linejoin="round"/>
<path d="M172.379 139.769C172.379 139.769 173.283 150.397 175.319 153.336C177.354 156.276 179.615 157.18 179.615 157.18C179.615 157.18 176.676 162.607 172.379 163.964C168.083 165.321 163.108 162.607 161.751 159.668C160.394 156.729 160.847 153.111 161.299 151.98C161.751 150.849 172.379 139.769 172.379 139.769Z" fill="white" stroke="#263238" stroke-miterlimit="10" strokeLinecap="round" stroke-linejoin="round"/>
<path d="M183.769 141.738C181.842 136.742 181.237 132.048 181.237 132.048Z" fill="white"/>
<path d="M183.769 141.738C181.842 136.742 181.237 132.048 181.237 132.048" stroke="#263238" stroke-miterlimit="10" strokeLinecap="round" stroke-linejoin="round"/>
<path d="M187.558 148.682C186.631 147.508 185.83 146.195 185.14 144.837Z" fill="white"/>
<path d="M187.558 148.682C186.631 147.508 185.83 146.195 185.14 144.837" stroke="#263238" stroke-miterlimit="10" strokeLinecap="round" stroke-linejoin="round"/>
<path d="M186.228 138.369C186.228 138.369 188.224 141.696 188.889 145.023Z" fill="white"/>
<path d="M186.228 138.369C186.228 138.369 188.224 141.696 188.889 145.023" stroke="#263238" stroke-miterlimit="10" strokeLinecap="round" stroke-linejoin="round"/>
<path d="M82.1572 469.738L86.3162 447.389L95.5692 393.348C95.5692 393.348 92.3392 373.837 89.7372 366.161C87.1362 358.485 83.5492 346.146 86.3192 336.623C89.0882 327.1 117.881 305.249 126.354 297.283C134.827 289.316 147.351 284.919 154.543 288.181C161.735 291.443 162.837 302.702 164.977 305.665C167.117 308.628 177.395 313.703 178.129 313.102C178.863 312.501 182.993 303.374 184.587 292.643C186.181 281.913 186.577 280.552 188.862 276.892C191.148 273.232 196.621 272.432 196.621 272.432C196.621 272.432 203.09 271.006 204.383 278.81C205.675 286.614 203.979 296.297 200.52 309.589C197.062 322.881 190.584 340.433 189.243 342.944C187.903 345.454 179.421 369.547 174.326 376.919C169.231 384.291 154.212 392.898 153.082 394.859C151.952 396.82 145.073 418.377 143.459 426.201C141.845 434.025 141.91 464.42 141.91 464.42" fill="white"/>
<path d="M82.1572 469.738L86.3162 447.389L95.5692 393.348C95.5692 393.348 92.3392 373.837 89.7372 366.161C87.1362 358.485 83.5492 346.146 86.3192 336.623C89.0882 327.1 117.881 305.249 126.354 297.283C134.827 289.316 147.351 284.919 154.543 288.181C161.735 291.443 162.837 302.702 164.977 305.665C167.117 308.628 177.395 313.703 178.129 313.102C178.863 312.501 182.993 303.374 184.587 292.643C186.181 281.913 186.577 280.552 188.862 276.892C191.148 273.232 196.621 272.432 196.621 272.432C196.621 272.432 203.09 271.006 204.383 278.81C205.675 286.614 203.979 296.297 200.52 309.589C197.062 322.881 190.584 340.433 189.243 342.944C187.903 345.454 179.421 369.547 174.326 376.919C169.231 384.291 154.212 392.898 153.082 394.859C151.952 396.82 145.073 418.377 143.459 426.201C141.845 434.025 141.91 464.42 141.91 464.42" stroke="#263238" stroke-miterlimit="10" strokeLinecap="round" stroke-linejoin="round"/>
<path d="M112.571 358.625C112.571 358.625 119 359.502 121.046 359.21C123.092 358.918 124.261 358.041 127.768 360.379C131.275 362.717 135.659 366.808 139.75 365.932C143.841 365.055 148.225 364.179 152.317 359.21C152.317 359.21 152.609 363.301 156.408 363.594C160.207 363.886 171.02 346.352 168.098 339.63C165.176 332.908 165.176 332.908 165.176 332.908C165.176 332.908 171.313 339.045 175.112 339.045C178.911 339.045 174.527 320.049 174.235 317.419C173.943 314.789 161.961 307.483 158.162 304.268C154.363 301.053 142.965 300.469 138.582 303.391C134.198 306.313 118.417 340.214 116.079 345.182C113.74 350.15 108.48 355.995 112.571 358.625Z" fill="#263238" stroke="#263238" stroke-miterlimit="10" strokeLinecap="round" stroke-linejoin="round"/>
<path d="M147.444 399.377C148.861 397.652 150.515 395.64 150.515 395.64" stroke="#263238" stroke-miterlimit="10" strokeLinecap="round" stroke-linejoin="round"/>
<path d="M114.593 409.464C114.593 409.464 123.772 414.118 129.641 411.957C133.51 410.533 139.398 406.27 143.368 403.035" stroke="#263238" stroke-miterlimit="10" strokeLinecap="round" stroke-linejoin="round"/>
<path d="M148.228 386.6C148.427 387.753 148.495 388.907 148.382 390.032" stroke="#263238" stroke-miterlimit="10" strokeLinecap="round" stroke-linejoin="round"/>
<path d="M140.853 372.528C140.853 372.528 145.492 377.815 147.513 383.827" stroke="#263238" stroke-miterlimit="10" strokeLinecap="round" stroke-linejoin="round"/>
<path d="M205.61 335.269C202.785 335.545 199.916 334.244 198.315 331.671L122.786 206.644C121.182 204.064 122.664 201.186 125.243 199.583C127.822 197.979 130.523 198.256 132.128 200.836L211.394 323.54C213.639 327.152 212.532 331.899 208.92 334.145C207.882 334.79 206.75 335.157 205.61 335.269Z" fill="#27DEBF" stroke="#263238" stroke-miterlimit="10" strokeLinecap="round" stroke-linejoin="round"/>
<path d="M217.179 347.348L212.08 324.811L212.01 324.859C211.939 324.704 211.864 324.551 211.775 324.403C210.107 321.633 205.831 321.149 202.224 323.321C198.617 325.493 197.044 329.499 198.712 332.269C199.134 332.971 199.725 333.524 200.429 333.926L217.179 347.348Z" fill="white" stroke="#263238" stroke-miterlimit="10" strokeLinecap="round" stroke-linejoin="round"/>
<path d="M217.179 347.348L214.03 333.833C212.624 333.234 211.201 333.308 209.509 334.328C207.786 335.366 206.76 337.009 206.663 338.557L217.179 347.348Z" fill="#27DEBF" stroke="#263238" stroke-miterlimit="10" strokeLinecap="round" stroke-linejoin="round"/>
<path d="M129.622 285.066C129.622 285.066 136.61 276.299 137.224 275.288C137.838 274.277 149.127 258.432 151.579 256.766C154.031 255.1 159.563 255.747 159.563 255.747C159.563 255.747 181.548 269.05 182.864 270.348C184.18 271.646 188.81 275.234 190.546 278.393C192.282 281.552 202.52 293.864 201.758 298.218C200.995 302.572 194.419 305.831 189.83 305.091C185.24 304.351 179.179 298.287 177.231 295.387C175.283 292.487 172.818 289.162 172.818 289.162L166.373 286.464L162.938 285.374C162.938 285.374 154.808 277.61 145.831 280.628C136.853 283.646 129.622 285.066 129.622 285.066Z" fill="white" stroke="#263238" stroke-miterlimit="10" strokeLinecap="round" stroke-linejoin="round"/>
<path d="M194.229 284.452C194.229 284.452 192.23 283.459 189.611 285.855C186.992 288.251 185.764 290.273 185.764 290.273C185.764 290.273 185.777 295.264 191.045 298.078C196.313 300.891 198.857 300.167 199.73 299.368" stroke="#263238" stroke-miterlimit="10" strokeLinecap="round" stroke-linejoin="round"/>
<path d="M184.008 274.753C184.008 274.753 179.884 276.345 179.173 278.792" stroke="#263238" stroke-miterlimit="10" strokeLinecap="round" stroke-linejoin="round"/>
<path d="M186.571 276.642L183.602 277.884" stroke="#263238" stroke-miterlimit="10" strokeLinecap="round" stroke-linejoin="round"/>
<path d="M158.805 257.723C158.805 257.723 154.681 259.315 153.097 262.561" stroke="#263238" stroke-miterlimit="10" strokeLinecap="round" stroke-linejoin="round"/>
<path d="M157.502 261.417C157.502 261.417 160.023 260.457 161.321 259.141" stroke="#263238" stroke-miterlimit="10" strokeLinecap="round" stroke-linejoin="round"/>
<path d="M105.795 306.417C105.795 306.417 104.254 300.386 105.959 295.94C107.664 291.494 126.347 285.624 126.347 285.624C126.347 285.624 144.14 277.94 151.135 276.542C158.131 275.144 166.371 286.464 166.371 286.464C166.371 286.464 182.131 304.18 184.614 310.119C187.097 316.058 186.145 320.906 186.094 322.813C186.043 324.72 187.819 330.728 187.86 333.577C187.901 336.426 184.294 338.443 180.291 338.835C176.288 339.227 173.329 335.712 171.404 333.047C169.479 330.382 165.829 319.803 165.829 319.803L157.538 310.391L152.436 306.848L148.34 306.298L105.795 306.417Z" fill="white" stroke="#263238" stroke-miterlimit="10" strokeLinecap="round" stroke-linejoin="round"/>
<path d="M153.98 278.879C153.98 278.879 150.046 279.977 148.359 287.037" stroke="#263238" stroke-miterlimit="10" strokeLinecap="round" stroke-linejoin="round"/>
<path d="M157.226 280.464C157.226 280.464 155.572 283.003 154.487 284.06" stroke="#263238" stroke-miterlimit="10" strokeLinecap="round" stroke-linejoin="round"/>
<path d="M152.436 306.847C152.436 306.847 148.65 304.602 148.213 300.128" stroke="#263238" stroke-miterlimit="10" strokeLinecap="round" stroke-linejoin="round"/>
<path d="M185.336 324.788C185.336 324.788 183.234 327.609 181.443 328.735C179.651 329.861 177.601 330.775 177.601 330.775C177.601 330.775 175.499 333.596 177.895 336.214" stroke="#263238" stroke-miterlimit="10" strokeLinecap="round" stroke-linejoin="round"/>
<path d="M117.07 329.385L136.174 332.803L139.84 332.444L142.222 332.475C142.222 332.475 145.666 337.954 147.18 339.921C148.694 341.888 153.786 347.999 152.969 350.458C152.152 352.917 155.309 358.16 158.024 361.595C160.739 365.03 165.196 361.951 165.937 358.706C166.677 355.461 167.935 354.809 169.774 351.986C171.613 349.162 172.353 345.918 170.978 339.972C169.603 334.026 157.316 313.815 154.288 309.882C151.26 305.948 150.033 304.218 133.958 304.733C117.882 305.248 104.323 304.46 104.323 304.46C104.323 304.46 96.7294 305.203 94.3874 310.983C92.0454 316.764 90.4454 330.138 90.4454 330.138C90.4454 330.138 86.2874 334.721 85.7084 339.769C85.2844 343.467 85.5454 340.427 85.1484 346.253" fill="white"/>
<path d="M117.07 329.385L136.174 332.803L139.84 332.444L142.222 332.475C142.222 332.475 145.666 337.954 147.18 339.921C148.694 341.888 153.786 347.999 152.969 350.458C152.152 352.917 155.309 358.16 158.024 361.595C160.739 365.03 165.196 361.951 165.937 358.706C166.677 355.461 167.935 354.809 169.774 351.986C171.613 349.162 172.353 345.918 170.978 339.972C169.603 334.026 157.316 313.815 154.288 309.882C151.26 305.948 150.033 304.218 133.958 304.733C117.882 305.248 104.323 304.46 104.323 304.46C104.323 304.46 96.7294 305.203 94.3874 310.983C92.0454 316.764 90.4454 330.138 90.4454 330.138C90.4454 330.138 86.2874 334.721 85.7084 339.769C85.2844 343.467 85.5454 340.427 85.1484 346.253" stroke="#263238" stroke-miterlimit="10" strokeLinecap="round" stroke-linejoin="round"/>
<path d="M165.608 356.437C165.608 356.437 164.379 358.459 162.214 358.196C160.049 357.933 158.566 357.364 158.566 357.364C158.566 357.364 157.923 360.518 159.498 362.028" stroke="#263238" stroke-miterlimit="10" strokeLinecap="round" stroke-linejoin="round"/>
<path d="M142.691 316.597C142.691 316.597 146.095 310.083 148.783 308.393" stroke="#263238" stroke-miterlimit="10" strokeLinecap="round" stroke-linejoin="round"/>
<path d="M150.733 311.293C150.733 311.293 148.913 314.562 147.144 315.923" stroke="#263238" stroke-miterlimit="10" strokeLinecap="round" stroke-linejoin="round"/>
<path d="M162.821 349.815C162.821 349.815 165.882 349.516 168.219 346.672" stroke="#263238" stroke-miterlimit="10" strokeLinecap="round" stroke-linejoin="round"/>
<path d="M97.4453 361.177C97.4453 361.177 105.634 363.813 110.563 360.158C115.493 356.504 117.382 354.204 117.382 354.204C117.382 354.204 123.871 355.684 125.679 355.243C127.486 354.802 127.486 354.802 127.486 354.802L134.73 358.587C134.73 358.587 133.307 362.956 135.869 364.82C138.431 366.684 144.977 366.044 148.859 362.492C152.741 358.94 153.96 352.476 152.969 350.458C151.979 348.44 145.603 342.719 142 338.313C138.397 333.907 136.148 332.541 133.191 332.037C130.234 331.533 113.589 328.932 112.778 328.747C111.967 328.562 110.606 328.166 110.606 328.166" fill="white"/>
<path d="M97.4453 361.177C97.4453 361.177 105.634 363.813 110.563 360.158C115.493 356.504 117.382 354.204 117.382 354.204C117.382 354.204 123.871 355.684 125.679 355.243C127.486 354.802 127.486 354.802 127.486 354.802L134.73 358.587C134.73 358.587 133.307 362.956 135.869 364.82C138.431 366.684 144.977 366.044 148.859 362.492C152.741 358.94 153.96 352.476 152.969 350.458C151.979 348.44 145.603 342.719 142 338.313C138.397 333.907 136.148 332.541 133.191 332.037C130.234 331.533 113.589 328.932 112.778 328.747C111.967 328.562 110.606 328.166 110.606 328.166" stroke="#263238" stroke-miterlimit="10" strokeLinecap="round" stroke-linejoin="round"/>
<path d="M117.382 354.204C117.382 354.204 107.981 355.388 104.824 350.145" stroke="#263238" stroke-miterlimit="10" strokeLinecap="round" stroke-linejoin="round"/>
<path d="M103.243 355.587C103.243 355.587 109.963 359.424 115.18 356.005" stroke="#263238" stroke-miterlimit="10" strokeLinecap="round" stroke-linejoin="round"/>
<path d="M134.73 358.587C134.73 358.587 136.321 361.339 140.459 360.406" stroke="#263238" stroke-miterlimit="10" strokeLinecap="round" stroke-linejoin="round"/>
<path d="M135.914 337.231C135.914 337.231 134.547 337.84 134.14 340.971C133.733 344.101 133.728 346.479 133.728 346.479" stroke="#263238" stroke-miterlimit="10" strokeLinecap="round" stroke-linejoin="round"/>
<path d="M136.66 340.011L135.782 343.187" stroke="#263238" stroke-miterlimit="10" strokeLinecap="round" stroke-linejoin="round"/>
</svg>
